%TF.GenerationSoftware,KiCad,Pcbnew,(6.0.0-0)*%
%TF.CreationDate,2022-04-08T17:51:14+01:00*%
%TF.ProjectId,acnode-reader-direct,61636e6f-6465-42d7-9265-616465722d64,rev?*%
%TF.SameCoordinates,Original*%
%TF.FileFunction,Copper,L1,Top*%
%TF.FilePolarity,Positive*%
%FSLAX46Y46*%
G04 Gerber Fmt 4.6, Leading zero omitted, Abs format (unit mm)*
G04 Created by KiCad (PCBNEW (6.0.0-0)) date 2022-04-08 17:51:14*
%MOMM*%
%LPD*%
G01*
G04 APERTURE LIST*
%TA.AperFunction,ComponentPad*%
%ADD10R,2.100000X2.100000*%
%TD*%
%TA.AperFunction,ComponentPad*%
%ADD11C,2.100000*%
%TD*%
%TA.AperFunction,ComponentPad*%
%ADD12R,1.500000X1.500000*%
%TD*%
%TA.AperFunction,ComponentPad*%
%ADD13C,1.500000*%
%TD*%
%TA.AperFunction,ComponentPad*%
%ADD14C,2.300000*%
%TD*%
%TA.AperFunction,ComponentPad*%
%ADD15C,1.600000*%
%TD*%
%TA.AperFunction,ComponentPad*%
%ADD16O,1.600000X1.600000*%
%TD*%
%TA.AperFunction,ComponentPad*%
%ADD17R,1.700000X1.700000*%
%TD*%
%TA.AperFunction,ComponentPad*%
%ADD18O,1.700000X1.700000*%
%TD*%
%TA.AperFunction,ViaPad*%
%ADD19C,0.800000*%
%TD*%
%TA.AperFunction,Conductor*%
%ADD20C,0.250000*%
%TD*%
G04 APERTURE END LIST*
D10*
%TO.P,J3,1,Pin_1*%
%TO.N,/GND*%
X85000000Y-56540000D03*
D11*
%TO.P,J3,2,Pin_2*%
%TO.N,/BTN*%
X85000000Y-54000000D03*
%TO.P,J3,3*%
%TO.N,/+5V_Vcc*%
X85000000Y-51460000D03*
%TD*%
D12*
%TO.P,J1,1*%
%TO.N,/+5V_Vcc*%
X88900000Y-76200000D03*
D13*
%TO.P,J1,2*%
%TO.N,/GND*%
X90680000Y-75184000D03*
%TO.P,J1,3*%
%TO.N,/PN532_TXD*%
X88900000Y-74168000D03*
%TO.P,J1,4*%
%TO.N,/CAT5_BLUE*%
X90680000Y-73152000D03*
%TO.P,J1,5*%
%TO.N,/BTN*%
X88900000Y-72136000D03*
%TO.P,J1,6*%
%TO.N,/PN532_RXD*%
X90680000Y-71120000D03*
%TO.P,J1,7*%
%TO.N,/CAT5_WHITE{slash}BROWN*%
X88900000Y-70104000D03*
%TO.P,J1,8*%
%TO.N,/CAT5_BROWN*%
X90680000Y-69088000D03*
D14*
%TO.P,J1,SH*%
%TO.N,N/C*%
X89790000Y-64510000D03*
X89790000Y-80770000D03*
%TD*%
D15*
%TO.P,R1,1*%
%TO.N,/CAT5_BLUE*%
X101150000Y-62500000D03*
D16*
%TO.P,R1,2*%
%TO.N,/LED_RED-*%
X113850000Y-62500000D03*
%TD*%
D10*
%TO.P,J2,1,Pin_1*%
%TO.N,/LED_RED-*%
X83000000Y-99185000D03*
D11*
%TO.P,J2,2,Pin_2*%
%TO.N,/+5V_Vcc*%
X83000000Y-101725000D03*
%TO.P,J2,3,Pin_3*%
%TO.N,/LED_GREEN-*%
X83000000Y-104265000D03*
%TO.P,J2,4,Pin_4*%
%TO.N,/LED_BLUE-*%
X83000000Y-106805000D03*
%TD*%
D15*
%TO.P,R2,1*%
%TO.N,/CAT5_WHITE{slash}BROWN*%
X130000000Y-87500000D03*
D16*
%TO.P,R2,2*%
%TO.N,/LED_GREEN-*%
X117300000Y-87500000D03*
%TD*%
D15*
%TO.P,R3,1*%
%TO.N,/CAT5_BROWN*%
X101150000Y-87500000D03*
D16*
%TO.P,R3,2*%
%TO.N,/LED_BLUE-*%
X113850000Y-87500000D03*
%TD*%
D17*
%TO.P,J4,1,Pin_1*%
%TO.N,/GND*%
X127000000Y-76200000D03*
D18*
%TO.P,J4,2,Pin_2*%
%TO.N,/+5V_Vcc*%
X127000000Y-73660000D03*
%TO.P,J4,3,Pin_3*%
%TO.N,/PN532_TXD*%
X127000000Y-71120000D03*
%TO.P,J4,4,Pin_4*%
%TO.N,/PN532_RXD*%
X127000000Y-68580000D03*
%TD*%
D19*
%TO.N,/PN532_TXD*%
X107000000Y-81000000D03*
%TO.N,/GND*%
X85000000Y-75000000D03*
%TD*%
D20*
%TO.N,/+5V_Vcc*%
X85000000Y-51460000D02*
X124460000Y-51460000D01*
X130000000Y-72320000D02*
X128660000Y-73660000D01*
X124460000Y-51460000D02*
X130000000Y-57000000D01*
X130000000Y-57000000D02*
X130000000Y-72320000D01*
%TO.N,/BTN*%
X92000000Y-54000000D02*
X92000000Y-60000000D01*
X85000000Y-54000000D02*
X92000000Y-54000000D01*
%TO.N,/GND*%
X85000000Y-56540000D02*
X80460000Y-56540000D01*
X80460000Y-56540000D02*
X80000000Y-57000000D01*
X80000000Y-57000000D02*
X80000000Y-70000000D01*
%TO.N,/+5V_Vcc*%
X86000000Y-94340000D02*
X92500000Y-87840000D01*
X92500000Y-79800000D02*
X92500000Y-82500000D01*
X85725000Y-101725000D02*
X86000000Y-101450000D01*
X130000000Y-75000000D02*
X128660000Y-73660000D01*
X92500000Y-87840000D02*
X92500000Y-82500000D01*
X130000000Y-80000000D02*
X130000000Y-75000000D01*
X92500000Y-82500000D02*
X127500000Y-82500000D01*
X128660000Y-73660000D02*
X127000000Y-73660000D01*
X127500000Y-82500000D02*
X130000000Y-80000000D01*
X86000000Y-101450000D02*
X86000000Y-94340000D01*
X83000000Y-101725000D02*
X85725000Y-101725000D01*
X88900000Y-76200000D02*
X92500000Y-79800000D01*
%TO.N,/PN532_TXD*%
X111880000Y-71120000D02*
X107000000Y-76000000D01*
X107000000Y-76000000D02*
X107000000Y-81000000D01*
X127000000Y-71120000D02*
X111880000Y-71120000D01*
%TO.N,/BTN*%
X83000000Y-60000000D02*
X92000000Y-60000000D01*
X83136000Y-72136000D02*
X83000000Y-72000000D01*
X88900000Y-72136000D02*
X83136000Y-72136000D01*
X83000000Y-72000000D02*
X83000000Y-60000000D01*
%TO.N,/GND*%
X80000000Y-70000000D02*
X85000000Y-75000000D01*
%TO.N,/CAT5_BLUE*%
X90680000Y-73152000D02*
X98832000Y-65000000D01*
X98832000Y-65000000D02*
X98832000Y-64818000D01*
X98832000Y-64818000D02*
X101150000Y-62500000D01*
%TO.N,/PN532_RXD*%
X127000000Y-68580000D02*
X123580000Y-68580000D01*
X100000000Y-60000000D02*
X100000000Y-61800000D01*
X115000000Y-60000000D02*
X100000000Y-60000000D01*
X100000000Y-61800000D02*
X90680000Y-71120000D01*
X123580000Y-68580000D02*
X115000000Y-60000000D01*
%TO.N,/LED_GREEN-*%
X88000000Y-95000000D02*
X99000000Y-84000000D01*
X83000000Y-104265000D02*
X87735000Y-104265000D01*
X99000000Y-84000000D02*
X115000000Y-84000000D01*
X88000000Y-104000000D02*
X88000000Y-95000000D01*
X87735000Y-104265000D02*
X88000000Y-104000000D01*
X117300000Y-86300000D02*
X117300000Y-87500000D01*
X115000000Y-84000000D02*
X117300000Y-86300000D01*
%TO.N,/LED_BLUE-*%
X106730000Y-94620000D02*
X113850000Y-87500000D01*
X90000000Y-96000000D02*
X91380000Y-94620000D01*
X91380000Y-94620000D02*
X106730000Y-94620000D01*
X83000000Y-106805000D02*
X83000000Y-107000000D01*
X90000000Y-105000000D02*
X90000000Y-96000000D01*
X88000000Y-107000000D02*
X90000000Y-105000000D01*
X83000000Y-107000000D02*
X88000000Y-107000000D01*
%TD*%
M02*
