%TF.GenerationSoftware,KiCad,Pcbnew,(6.0.0-0)*%
%TF.CreationDate,2022-04-08T17:51:15+01:00*%
%TF.ProjectId,acnode-reader-direct,61636e6f-6465-42d7-9265-616465722d64,rev?*%
%TF.SameCoordinates,Original*%
%TF.FileFunction,Legend,Bot*%
%TF.FilePolarity,Positive*%
%FSLAX46Y46*%
G04 Gerber Fmt 4.6, Leading zero omitted, Abs format (unit mm)*
G04 Created by KiCad (PCBNEW (6.0.0-0)) date 2022-04-08 17:51:15*
%MOMM*%
%LPD*%
G01*
G04 APERTURE LIST*
%ADD10C,0.150000*%
%ADD11C,0.120000*%
%ADD12R,2.100000X2.100000*%
%ADD13C,2.100000*%
%ADD14C,3.250000*%
%ADD15R,1.500000X1.500000*%
%ADD16C,1.500000*%
%ADD17C,2.300000*%
%ADD18C,3.700000*%
%ADD19C,1.600000*%
%ADD20O,1.600000X1.600000*%
%ADD21C,5.300000*%
%ADD22R,1.700000X1.700000*%
%ADD23O,1.700000X1.700000*%
G04 APERTURE END LIST*
D10*
X115261904Y-75847145D02*
X115357142Y-75799525D01*
X115500000Y-75799525D01*
X115642857Y-75847145D01*
X115738095Y-75942383D01*
X115785714Y-76037621D01*
X115833333Y-76228097D01*
X115833333Y-76370954D01*
X115785714Y-76561430D01*
X115738095Y-76656668D01*
X115642857Y-76751906D01*
X115500000Y-76799525D01*
X115404761Y-76799525D01*
X115261904Y-76751906D01*
X115214285Y-76704287D01*
X115214285Y-76370954D01*
X115404761Y-76370954D01*
X114785714Y-76799525D02*
X114785714Y-75799525D01*
X114214285Y-76799525D01*
X114214285Y-75799525D01*
X113738095Y-76799525D02*
X113738095Y-75799525D01*
X113500000Y-75799525D01*
X113357142Y-75847145D01*
X113261904Y-75942383D01*
X113214285Y-76037621D01*
X113166666Y-76228097D01*
X113166666Y-76370954D01*
X113214285Y-76561430D01*
X113261904Y-76656668D01*
X113357142Y-76751906D01*
X113500000Y-76799525D01*
X113738095Y-76799525D01*
X125202380Y-73571428D02*
X124440476Y-73571428D01*
X124821428Y-73952380D02*
X124821428Y-73190476D01*
X123488095Y-72952380D02*
X123964285Y-72952380D01*
X124011904Y-73428571D01*
X123964285Y-73380952D01*
X123869047Y-73333333D01*
X123630952Y-73333333D01*
X123535714Y-73380952D01*
X123488095Y-73428571D01*
X123440476Y-73523809D01*
X123440476Y-73761904D01*
X123488095Y-73857142D01*
X123535714Y-73904761D01*
X123630952Y-73952380D01*
X123869047Y-73952380D01*
X123964285Y-73904761D01*
X124011904Y-73857142D01*
X123154761Y-72952380D02*
X122821428Y-73952380D01*
X122488095Y-72952380D01*
X121535714Y-72952380D02*
X121202380Y-73952380D01*
X120869047Y-72952380D01*
X120107142Y-73904761D02*
X120202380Y-73952380D01*
X120392857Y-73952380D01*
X120488095Y-73904761D01*
X120535714Y-73857142D01*
X120583333Y-73761904D01*
X120583333Y-73476190D01*
X120535714Y-73380952D01*
X120488095Y-73333333D01*
X120392857Y-73285714D01*
X120202380Y-73285714D01*
X120107142Y-73333333D01*
X119250000Y-73904761D02*
X119345238Y-73952380D01*
X119535714Y-73952380D01*
X119630952Y-73904761D01*
X119678571Y-73857142D01*
X119726190Y-73761904D01*
X119726190Y-73476190D01*
X119678571Y-73380952D01*
X119630952Y-73333333D01*
X119535714Y-73285714D01*
X119345238Y-73285714D01*
X119250000Y-73333333D01*
X124557142Y-71657142D02*
X124557142Y-70757142D01*
X124214285Y-70757142D01*
X124128571Y-70800000D01*
X124085714Y-70842857D01*
X124042857Y-70928571D01*
X124042857Y-71057142D01*
X124085714Y-71142857D01*
X124128571Y-71185714D01*
X124214285Y-71228571D01*
X124557142Y-71228571D01*
X123657142Y-71657142D02*
X123657142Y-70757142D01*
X123142857Y-71657142D01*
X123142857Y-70757142D01*
X122285714Y-70757142D02*
X122714285Y-70757142D01*
X122757142Y-71185714D01*
X122714285Y-71142857D01*
X122628571Y-71100000D01*
X122414285Y-71100000D01*
X122328571Y-71142857D01*
X122285714Y-71185714D01*
X122242857Y-71271428D01*
X122242857Y-71485714D01*
X122285714Y-71571428D01*
X122328571Y-71614285D01*
X122414285Y-71657142D01*
X122628571Y-71657142D01*
X122714285Y-71614285D01*
X122757142Y-71571428D01*
X121942857Y-70757142D02*
X121385714Y-70757142D01*
X121685714Y-71100000D01*
X121557142Y-71100000D01*
X121471428Y-71142857D01*
X121428571Y-71185714D01*
X121385714Y-71271428D01*
X121385714Y-71485714D01*
X121428571Y-71571428D01*
X121471428Y-71614285D01*
X121557142Y-71657142D01*
X121814285Y-71657142D01*
X121900000Y-71614285D01*
X121942857Y-71571428D01*
X121042857Y-70842857D02*
X121000000Y-70800000D01*
X120914285Y-70757142D01*
X120700000Y-70757142D01*
X120614285Y-70800000D01*
X120571428Y-70842857D01*
X120528571Y-70928571D01*
X120528571Y-71014285D01*
X120571428Y-71142857D01*
X121085714Y-71657142D01*
X120528571Y-71657142D01*
X119585714Y-70757142D02*
X119071428Y-70757142D01*
X119328571Y-71657142D02*
X119328571Y-70757142D01*
X118857142Y-70757142D02*
X118257142Y-71657142D01*
X118257142Y-70757142D02*
X118857142Y-71657142D01*
X117914285Y-71657142D02*
X117914285Y-70757142D01*
X117700000Y-70757142D01*
X117571428Y-70800000D01*
X117485714Y-70885714D01*
X117442857Y-70971428D01*
X117400000Y-71142857D01*
X117400000Y-71271428D01*
X117442857Y-71442857D01*
X117485714Y-71528571D01*
X117571428Y-71614285D01*
X117700000Y-71657142D01*
X117914285Y-71657142D01*
X125188214Y-68907142D02*
X125188214Y-68007142D01*
X124845357Y-68007142D01*
X124759642Y-68050000D01*
X124716785Y-68092857D01*
X124673928Y-68178571D01*
X124673928Y-68307142D01*
X124716785Y-68392857D01*
X124759642Y-68435714D01*
X124845357Y-68478571D01*
X125188214Y-68478571D01*
X124288214Y-68907142D02*
X124288214Y-68007142D01*
X123773928Y-68907142D01*
X123773928Y-68007142D01*
X122916785Y-68007142D02*
X123345357Y-68007142D01*
X123388214Y-68435714D01*
X123345357Y-68392857D01*
X123259642Y-68350000D01*
X123045357Y-68350000D01*
X122959642Y-68392857D01*
X122916785Y-68435714D01*
X122873928Y-68521428D01*
X122873928Y-68735714D01*
X122916785Y-68821428D01*
X122959642Y-68864285D01*
X123045357Y-68907142D01*
X123259642Y-68907142D01*
X123345357Y-68864285D01*
X123388214Y-68821428D01*
X122573928Y-68007142D02*
X122016785Y-68007142D01*
X122316785Y-68350000D01*
X122188214Y-68350000D01*
X122102500Y-68392857D01*
X122059642Y-68435714D01*
X122016785Y-68521428D01*
X122016785Y-68735714D01*
X122059642Y-68821428D01*
X122102500Y-68864285D01*
X122188214Y-68907142D01*
X122445357Y-68907142D01*
X122531071Y-68864285D01*
X122573928Y-68821428D01*
X121673928Y-68092857D02*
X121631071Y-68050000D01*
X121545357Y-68007142D01*
X121331071Y-68007142D01*
X121245357Y-68050000D01*
X121202500Y-68092857D01*
X121159642Y-68178571D01*
X121159642Y-68264285D01*
X121202500Y-68392857D01*
X121716785Y-68907142D01*
X121159642Y-68907142D01*
X119573928Y-68907142D02*
X119873928Y-68478571D01*
X120088214Y-68907142D02*
X120088214Y-68007142D01*
X119745357Y-68007142D01*
X119659642Y-68050000D01*
X119616785Y-68092857D01*
X119573928Y-68178571D01*
X119573928Y-68307142D01*
X119616785Y-68392857D01*
X119659642Y-68435714D01*
X119745357Y-68478571D01*
X120088214Y-68478571D01*
X119273928Y-68007142D02*
X118673928Y-68907142D01*
X118673928Y-68007142D02*
X119273928Y-68907142D01*
X118331071Y-68907142D02*
X118331071Y-68007142D01*
X118116785Y-68007142D01*
X117988214Y-68050000D01*
X117902500Y-68135714D01*
X117859642Y-68221428D01*
X117816785Y-68392857D01*
X117816785Y-68521428D01*
X117859642Y-68692857D01*
X117902500Y-68778571D01*
X117988214Y-68864285D01*
X118116785Y-68907142D01*
X118331071Y-68907142D01*
%TO.C,J4*%
X122953333Y-78422380D02*
X122953333Y-79136666D01*
X123000952Y-79279523D01*
X123096190Y-79374761D01*
X123239047Y-79422380D01*
X123334285Y-79422380D01*
X122048571Y-78755714D02*
X122048571Y-79422380D01*
X122286666Y-78374761D02*
X122524761Y-79089047D01*
X121905714Y-79089047D01*
D11*
X116910000Y-76347145D02*
X125540000Y-76347145D01*
X125540000Y-75840000D02*
X125890000Y-75840000D01*
X125540000Y-68220000D02*
X125950000Y-68220000D01*
X116910000Y-77291905D02*
X125540000Y-77291905D01*
X125540000Y-68940000D02*
X125950000Y-68940000D01*
X116910000Y-77055715D02*
X125540000Y-77055715D01*
X116910000Y-67250000D02*
X125540000Y-67250000D01*
X116910000Y-76110955D02*
X125540000Y-76110955D01*
X125540000Y-74020000D02*
X125950000Y-74020000D01*
X116910000Y-75166195D02*
X125540000Y-75166195D01*
X116910000Y-75048100D02*
X125540000Y-75048100D01*
X116910000Y-74930000D02*
X125540000Y-74930000D01*
X116910000Y-77530000D02*
X125540000Y-77530000D01*
X116910000Y-77530000D02*
X116910000Y-67250000D01*
X116910000Y-75284290D02*
X125540000Y-75284290D01*
X125540000Y-70760000D02*
X125950000Y-70760000D01*
X125540000Y-73300000D02*
X125950000Y-73300000D01*
X116910000Y-77410000D02*
X125540000Y-77410000D01*
X116910000Y-77173810D02*
X125540000Y-77173810D01*
X125540000Y-71480000D02*
X125950000Y-71480000D01*
X116910000Y-76937620D02*
X125540000Y-76937620D01*
X116910000Y-75520480D02*
X125540000Y-75520480D01*
X116910000Y-72390000D02*
X125540000Y-72390000D01*
X116910000Y-76819525D02*
X125540000Y-76819525D01*
X116910000Y-76701430D02*
X125540000Y-76701430D01*
X116910000Y-76583335D02*
X125540000Y-76583335D01*
X116910000Y-76465240D02*
X125540000Y-76465240D01*
X116910000Y-75402385D02*
X125540000Y-75402385D01*
X116910000Y-76229050D02*
X125540000Y-76229050D01*
X128110000Y-77530000D02*
X128110000Y-76200000D01*
X127000000Y-77530000D02*
X128110000Y-77530000D01*
X116910000Y-75756670D02*
X125540000Y-75756670D01*
X116910000Y-75638575D02*
X125540000Y-75638575D01*
X116910000Y-69850000D02*
X125540000Y-69850000D01*
X116910000Y-75874765D02*
X125540000Y-75874765D01*
X116910000Y-75992860D02*
X125540000Y-75992860D01*
X125540000Y-76560000D02*
X125890000Y-76560000D01*
X125540000Y-77530000D02*
X125540000Y-67250000D01*
%TD*%
%LPC*%
D12*
%TO.C,J3*%
X85000000Y-56540000D03*
D13*
X85000000Y-54000000D03*
X85000000Y-51460000D03*
%TD*%
D14*
%TO.C,J1*%
X86360000Y-78990000D03*
X86360000Y-66290000D03*
D15*
X88900000Y-76200000D03*
D16*
X90680000Y-75184000D03*
X88900000Y-74168000D03*
X90680000Y-73152000D03*
X88900000Y-72136000D03*
X90680000Y-71120000D03*
X88900000Y-70104000D03*
X90680000Y-69088000D03*
D17*
X89790000Y-64510000D03*
X89790000Y-80770000D03*
%TD*%
D18*
%TO.C,EN 60670-1*%
X95000000Y-42800000D03*
%TD*%
D19*
%TO.C,R1*%
X101150000Y-62500000D03*
D20*
X113850000Y-62500000D03*
%TD*%
D18*
%TO.C,EN 60670-1*%
X95000000Y-103100000D03*
%TD*%
D12*
%TO.C,J2*%
X83000000Y-99185000D03*
D13*
X83000000Y-101725000D03*
X83000000Y-104265000D03*
X83000000Y-106805000D03*
%TD*%
D21*
%TO.C,LED HOLE*%
X63000000Y-103000000D03*
%TD*%
D19*
%TO.C,R2*%
X130000000Y-87500000D03*
D20*
X117300000Y-87500000D03*
%TD*%
D19*
%TO.C,R3*%
X101150000Y-87500000D03*
D20*
X113850000Y-87500000D03*
%TD*%
D22*
%TO.C,J4*%
X127000000Y-76200000D03*
D23*
X127000000Y-73660000D03*
X127000000Y-71120000D03*
X127000000Y-68580000D03*
%TD*%
M02*
