G04 #@! TF.FileFunction,Legend,Top*
%FSLAX46Y46*%
G04 Gerber Fmt 4.6, Leading zero omitted, Abs format (unit mm)*
G04 Created by KiCad (PCBNEW 4.0.2-stable) date 2016 May 07, Saturday 23:02:04*
%MOMM*%
G01*
G04 APERTURE LIST*
%ADD10C,1.000000*%
%ADD11C,0.150000*%
G04 APERTURE END LIST*
D10*
D11*
X79750000Y-93210000D02*
X79750000Y-94226000D01*
X79750000Y-88384000D02*
X79750000Y-87114000D01*
X81020000Y-88638000D02*
X78480000Y-88638000D01*
X81020000Y-88892000D02*
X78480000Y-88892000D01*
X81020000Y-89146000D02*
X78480000Y-89146000D01*
X81020000Y-88384000D02*
X78480000Y-88384000D01*
X81020000Y-89400000D02*
X78480000Y-88130000D01*
X81020000Y-88130000D02*
X78480000Y-89400000D01*
X81020000Y-89400000D02*
X78480000Y-89400000D01*
X81020000Y-88765000D02*
X78480000Y-88765000D01*
X78480000Y-88130000D02*
X81020000Y-88130000D01*
X81020000Y-88130000D02*
X81020000Y-93210000D01*
X81020000Y-93210000D02*
X78480000Y-93210000D01*
X78480000Y-93210000D02*
X78480000Y-88130000D01*
X93980000Y-82550000D02*
X93980000Y-57150000D01*
X99060000Y-59690000D02*
X99060000Y-82550000D01*
X93980000Y-82550000D02*
X99060000Y-82550000D01*
X93980000Y-57150000D02*
X96520000Y-57150000D01*
X99340000Y-58420000D02*
X99340000Y-56870000D01*
X96520000Y-57150000D02*
X96520000Y-59690000D01*
X96520000Y-59690000D02*
X99060000Y-59690000D01*
X99340000Y-56870000D02*
X97790000Y-56870000D01*
X50800000Y-82550000D02*
X50800000Y-57150000D01*
X55880000Y-59690000D02*
X55880000Y-82550000D01*
X50800000Y-82550000D02*
X55880000Y-82550000D01*
X50800000Y-57150000D02*
X53340000Y-57150000D01*
X56160000Y-58420000D02*
X56160000Y-56870000D01*
X53340000Y-57150000D02*
X53340000Y-59690000D01*
X53340000Y-59690000D02*
X55880000Y-59690000D01*
X56160000Y-56870000D02*
X54610000Y-56870000D01*
X69520000Y-69570000D02*
X64440000Y-69570000D01*
X64440000Y-69570000D02*
X64440000Y-67030000D01*
X64440000Y-67030000D02*
X69520000Y-67030000D01*
X69520000Y-67030000D02*
X69520000Y-69570000D01*
X69520000Y-68300000D02*
X70790000Y-68300000D01*
X64440000Y-68300000D02*
X63170000Y-68300000D01*
X78430000Y-78960000D02*
X78430000Y-73880000D01*
X78430000Y-73880000D02*
X80970000Y-73880000D01*
X80970000Y-73880000D02*
X80970000Y-78960000D01*
X80970000Y-78960000D02*
X78430000Y-78960000D01*
X79700000Y-78960000D02*
X79700000Y-80230000D01*
X79700000Y-73880000D02*
X79700000Y-72610000D01*
X76537695Y-75203010D02*
G75*
G03X76050000Y-74500000I-2187695J-996990D01*
G01*
X72162305Y-75203010D02*
G75*
G02X72650000Y-74500000I2187695J-996990D01*
G01*
X76050000Y-74500000D02*
X72650000Y-74500000D01*
X76534879Y-77193127D02*
G75*
G02X74350000Y-78600000I-2184879J993127D01*
G01*
X72165121Y-77193127D02*
G75*
G03X74350000Y-78600000I2184879J993127D01*
G01*
X82502381Y-91388095D02*
X81502381Y-91388095D01*
X81502381Y-91150000D01*
X81550000Y-91007142D01*
X81645238Y-90911904D01*
X81740476Y-90864285D01*
X81930952Y-90816666D01*
X82073810Y-90816666D01*
X82264286Y-90864285D01*
X82359524Y-90911904D01*
X82454762Y-91007142D01*
X82502381Y-91150000D01*
X82502381Y-91388095D01*
X82502381Y-89864285D02*
X82502381Y-90435714D01*
X82502381Y-90150000D02*
X81502381Y-90150000D01*
X81645238Y-90245238D01*
X81740476Y-90340476D01*
X81788095Y-90435714D01*
X103342381Y-59158095D02*
X102342381Y-59158095D01*
X102342381Y-58777142D01*
X102390000Y-58681904D01*
X102437619Y-58634285D01*
X102532857Y-58586666D01*
X102675714Y-58586666D01*
X102770952Y-58634285D01*
X102818571Y-58681904D01*
X102866190Y-58777142D01*
X102866190Y-59158095D01*
X102675714Y-57729523D02*
X103342381Y-57729523D01*
X102294762Y-57967619D02*
X103009048Y-58205714D01*
X103009048Y-57586666D01*
X60162381Y-59158095D02*
X59162381Y-59158095D01*
X59162381Y-58777142D01*
X59210000Y-58681904D01*
X59257619Y-58634285D01*
X59352857Y-58586666D01*
X59495714Y-58586666D01*
X59590952Y-58634285D01*
X59638571Y-58681904D01*
X59686190Y-58777142D01*
X59686190Y-59158095D01*
X59162381Y-57681904D02*
X59162381Y-58158095D01*
X59638571Y-58205714D01*
X59590952Y-58158095D01*
X59543333Y-58062857D01*
X59543333Y-57824761D01*
X59590952Y-57729523D01*
X59638571Y-57681904D01*
X59733810Y-57634285D01*
X59971905Y-57634285D01*
X60067143Y-57681904D01*
X60114762Y-57729523D01*
X60162381Y-57824761D01*
X60162381Y-58062857D01*
X60114762Y-58158095D01*
X60067143Y-58205714D01*
X66564414Y-72252501D02*
X66231080Y-71776310D01*
X65992985Y-72252501D02*
X65992985Y-71252501D01*
X66373938Y-71252501D01*
X66469176Y-71300120D01*
X66516795Y-71347739D01*
X66564414Y-71442977D01*
X66564414Y-71585834D01*
X66516795Y-71681072D01*
X66469176Y-71728691D01*
X66373938Y-71776310D01*
X65992985Y-71776310D01*
X67516795Y-72252501D02*
X66945366Y-72252501D01*
X67231080Y-72252501D02*
X67231080Y-71252501D01*
X67135842Y-71395358D01*
X67040604Y-71490596D01*
X66945366Y-71538215D01*
X76652261Y-76337746D02*
X76176070Y-76671080D01*
X76652261Y-76909175D02*
X75652261Y-76909175D01*
X75652261Y-76528222D01*
X75699880Y-76432984D01*
X75747499Y-76385365D01*
X75842737Y-76337746D01*
X75985594Y-76337746D01*
X76080832Y-76385365D01*
X76128451Y-76432984D01*
X76176070Y-76528222D01*
X76176070Y-76909175D01*
X75747499Y-75956794D02*
X75699880Y-75909175D01*
X75652261Y-75813937D01*
X75652261Y-75575841D01*
X75699880Y-75480603D01*
X75747499Y-75432984D01*
X75842737Y-75385365D01*
X75937975Y-75385365D01*
X76080832Y-75432984D01*
X76652261Y-76004413D01*
X76652261Y-75385365D01*
X76794762Y-80747619D02*
X76699524Y-80700000D01*
X76604286Y-80604762D01*
X76461429Y-80461905D01*
X76366190Y-80414286D01*
X76270952Y-80414286D01*
X76318571Y-80652381D02*
X76223333Y-80604762D01*
X76128095Y-80509524D01*
X76080476Y-80319048D01*
X76080476Y-79985714D01*
X76128095Y-79795238D01*
X76223333Y-79700000D01*
X76318571Y-79652381D01*
X76509048Y-79652381D01*
X76604286Y-79700000D01*
X76699524Y-79795238D01*
X76747143Y-79985714D01*
X76747143Y-80319048D01*
X76699524Y-80509524D01*
X76604286Y-80604762D01*
X76509048Y-80652381D01*
X76318571Y-80652381D01*
X77699524Y-80652381D02*
X77128095Y-80652381D01*
X77413809Y-80652381D02*
X77413809Y-79652381D01*
X77318571Y-79795238D01*
X77223333Y-79890476D01*
X77128095Y-79938095D01*
M02*
