M48
;DRILL file {KiCad 4.0.2-stable} date 2016 May 07, Saturday 23:02:33
;FORMAT={-:-/ absolute / inch / decimal}
FMAT,2
INCH,TZ
T1C0.031
T2C0.032
T3C0.039
T4C0.039
T5C0.040
T6C0.050
T7C0.051
%
G90
G05
M72
T1
X2.8272Y-3.
X2.9272Y-3.
X3.0272Y-3.
T2
X2.4287Y-2.8823
X2.4287Y-3.0823
X2.7287Y-2.8823
X2.7287Y-3.0823
T3
X2.8858Y-3.3287
X2.8858Y-3.8012
T4
X2.437Y-2.689
X2.837Y-2.689
X3.1378Y-2.8087
X3.1378Y-3.2087
X3.1398Y-3.3697
T5
X2.05Y-2.3
X2.05Y-2.4
X2.05Y-2.5
X2.05Y-2.6
X2.05Y-2.7
X2.05Y-2.8
X2.05Y-2.9
X2.05Y-3.
X2.05Y-3.1
X2.05Y-3.2
X2.0571Y-2.0571
X2.0571Y-2.1571
X2.1063Y-3.5122
X2.1063Y-3.6122
X2.1063Y-3.7122
X2.15Y-2.3
X2.15Y-2.4
X2.15Y-2.5
X2.15Y-2.6
X2.15Y-2.7
X2.15Y-2.8
X2.15Y-2.9
X2.15Y-3.
X2.15Y-3.1
X2.15Y-3.2
X2.3031Y-2.5886
X2.3031Y-2.6886
X2.3031Y-2.7886
X2.3031Y-2.8886
X2.5591Y-2.0638
X2.5591Y-2.1638
X2.5591Y-2.2638
X3.5906Y-2.3
X3.5906Y-2.4
X3.5906Y-2.5
X3.5906Y-2.6
X3.75Y-2.3
X3.75Y-2.4
X3.75Y-2.5
X3.75Y-2.6
X3.75Y-2.7
X3.75Y-2.8
X3.75Y-2.9
X3.75Y-3.
X3.75Y-3.1
X3.75Y-3.2
X3.85Y-2.3
X3.85Y-2.4
X3.85Y-2.5
X3.85Y-2.6
X3.85Y-2.7
X3.85Y-2.8
X3.85Y-2.9
X3.85Y-3.
X3.85Y-3.1
X3.85Y-3.2
T6
X3.1398Y-3.7697
T7
X2.4035Y-3.3268
X2.4055Y-3.8012
X2.9626Y-3.563
T0
M30
