G04 #@! TF.FileFunction,Legend,Top*
%FSLAX46Y46*%
G04 Gerber Fmt 4.6, Leading zero omitted, Abs format (unit mm)*
G04 Created by KiCad (PCBNEW 4.0.2-stable) date Tuesday, 04 October 2016 09:30:43*
%MOMM*%
G01*
G04 APERTURE LIST*
%ADD10C,1.000000*%
%ADD11C,0.150000*%
G04 APERTURE END LIST*
D10*
D11*
X37500000Y-38975000D02*
X35500000Y-38975000D01*
X35500000Y-41025000D02*
X37500000Y-41025000D01*
X17810000Y-22870000D02*
X17810000Y-48270000D01*
X12730000Y-45730000D02*
X12730000Y-22870000D01*
X17810000Y-22870000D02*
X12730000Y-22870000D01*
X17810000Y-48270000D02*
X15270000Y-48270000D01*
X12450000Y-47000000D02*
X12450000Y-48550000D01*
X15270000Y-48270000D02*
X15270000Y-45730000D01*
X15270000Y-45730000D02*
X12730000Y-45730000D01*
X12450000Y-48550000D02*
X14000000Y-48550000D01*
X60810000Y-22870000D02*
X60810000Y-48270000D01*
X55730000Y-45730000D02*
X55730000Y-22870000D01*
X60810000Y-22870000D02*
X55730000Y-22870000D01*
X60810000Y-48270000D02*
X58270000Y-48270000D01*
X55450000Y-47000000D02*
X55450000Y-48550000D01*
X58270000Y-48270000D02*
X58270000Y-45730000D01*
X58270000Y-45730000D02*
X55730000Y-45730000D01*
X55450000Y-48550000D02*
X57000000Y-48550000D01*
X23600000Y-61300000D02*
X27100000Y-61300000D01*
X27100000Y-61300000D02*
X29250000Y-56000000D01*
X29250000Y-56000000D02*
X44100000Y-56000000D01*
X44100000Y-56000000D02*
X46200000Y-61300000D01*
X46200000Y-61300000D02*
X49950000Y-61300000D01*
X49950000Y-61300000D02*
X49950000Y-52700000D01*
X49950000Y-52700000D02*
X47800000Y-50450000D01*
X47800000Y-50450000D02*
X47800000Y-44750000D01*
X47800000Y-44750000D02*
X23600000Y-44900000D01*
X23600000Y-44900000D02*
X23600000Y-61250000D01*
X36333334Y-38057143D02*
X36285715Y-38104762D01*
X36142858Y-38152381D01*
X36047620Y-38152381D01*
X35904762Y-38104762D01*
X35809524Y-38009524D01*
X35761905Y-37914286D01*
X35714286Y-37723810D01*
X35714286Y-37580952D01*
X35761905Y-37390476D01*
X35809524Y-37295238D01*
X35904762Y-37200000D01*
X36047620Y-37152381D01*
X36142858Y-37152381D01*
X36285715Y-37200000D01*
X36333334Y-37247619D01*
X37285715Y-38152381D02*
X36714286Y-38152381D01*
X37000000Y-38152381D02*
X37000000Y-37152381D01*
X36904762Y-37295238D01*
X36809524Y-37390476D01*
X36714286Y-37438095D01*
X14761905Y-22152381D02*
X14761905Y-21152381D01*
X15142858Y-21152381D01*
X15238096Y-21200000D01*
X15285715Y-21247619D01*
X15333334Y-21342857D01*
X15333334Y-21485714D01*
X15285715Y-21580952D01*
X15238096Y-21628571D01*
X15142858Y-21676190D01*
X14761905Y-21676190D01*
X16190477Y-21485714D02*
X16190477Y-22152381D01*
X15952381Y-21104762D02*
X15714286Y-21819048D01*
X16333334Y-21819048D01*
X57361905Y-22352381D02*
X57361905Y-21352381D01*
X57742858Y-21352381D01*
X57838096Y-21400000D01*
X57885715Y-21447619D01*
X57933334Y-21542857D01*
X57933334Y-21685714D01*
X57885715Y-21780952D01*
X57838096Y-21828571D01*
X57742858Y-21876190D01*
X57361905Y-21876190D01*
X58838096Y-21352381D02*
X58361905Y-21352381D01*
X58314286Y-21828571D01*
X58361905Y-21780952D01*
X58457143Y-21733333D01*
X58695239Y-21733333D01*
X58790477Y-21780952D01*
X58838096Y-21828571D01*
X58885715Y-21923810D01*
X58885715Y-22161905D01*
X58838096Y-22257143D01*
X58790477Y-22304762D01*
X58695239Y-22352381D01*
X58457143Y-22352381D01*
X58361905Y-22304762D01*
X58314286Y-22257143D01*
X34685715Y-49357143D02*
X34638096Y-49404762D01*
X34495239Y-49452381D01*
X34400001Y-49452381D01*
X34257143Y-49404762D01*
X34161905Y-49309524D01*
X34114286Y-49214286D01*
X34066667Y-49023810D01*
X34066667Y-48880952D01*
X34114286Y-48690476D01*
X34161905Y-48595238D01*
X34257143Y-48500000D01*
X34400001Y-48452381D01*
X34495239Y-48452381D01*
X34638096Y-48500000D01*
X34685715Y-48547619D01*
X35304762Y-48452381D02*
X35495239Y-48452381D01*
X35590477Y-48500000D01*
X35685715Y-48595238D01*
X35733334Y-48785714D01*
X35733334Y-49119048D01*
X35685715Y-49309524D01*
X35590477Y-49404762D01*
X35495239Y-49452381D01*
X35304762Y-49452381D01*
X35209524Y-49404762D01*
X35114286Y-49309524D01*
X35066667Y-49119048D01*
X35066667Y-48785714D01*
X35114286Y-48595238D01*
X35209524Y-48500000D01*
X35304762Y-48452381D01*
X36161905Y-49452381D02*
X36161905Y-48452381D01*
X36733334Y-49452381D01*
X36733334Y-48452381D01*
X37733334Y-49452381D02*
X37161905Y-49452381D01*
X37447619Y-49452381D02*
X37447619Y-48452381D01*
X37352381Y-48595238D01*
X37257143Y-48690476D01*
X37161905Y-48738095D01*
M02*
