G04 #@! TF.FileFunction,Soldermask,Top*
%FSLAX46Y46*%
G04 Gerber Fmt 4.6, Leading zero omitted, Abs format (unit mm)*
G04 Created by KiCad (PCBNEW 4.0.2-stable) date 2016 May 07, Saturday 23:02:04*
%MOMM*%
G01*
G04 APERTURE LIST*
%ADD10C,1.000000*%
%ADD11C,2.900000*%
%ADD12C,3.400000*%
%ADD13C,2.398980*%
%ADD14R,2.398980X2.398980*%
%ADD15R,2.432000X2.127200*%
%ADD16O,2.432000X2.127200*%
%ADD17R,2.127200X2.127200*%
%ADD18O,2.127200X2.127200*%
%ADD19C,1.797000*%
%ADD20R,2.432000X2.432000*%
%ADD21O,2.432000X2.432000*%
%ADD22C,1.924000*%
G04 APERTURE END LIST*
D10*
D11*
X73300000Y-96550000D03*
D12*
X61100000Y-96550000D03*
X61050000Y-84500000D03*
D11*
X73300000Y-84550000D03*
D12*
X75250000Y-90500000D03*
D13*
X79750000Y-95750000D03*
D14*
X79750000Y-85590000D03*
D15*
X91200000Y-58420000D03*
D16*
X91200000Y-60960000D03*
X91200000Y-63500000D03*
X91200000Y-66040000D03*
D15*
X53500000Y-89210000D03*
D16*
X53500000Y-91750000D03*
X53500000Y-94290000D03*
D15*
X58500000Y-65750000D03*
D16*
X58500000Y-68290000D03*
X58500000Y-70830000D03*
X58500000Y-73370000D03*
D17*
X97790000Y-58420000D03*
D18*
X95250000Y-58420000D03*
X97790000Y-60960000D03*
X95250000Y-60960000D03*
X97790000Y-63500000D03*
X95250000Y-63500000D03*
X97790000Y-66040000D03*
X95250000Y-66040000D03*
X97790000Y-68580000D03*
X95250000Y-68580000D03*
X97790000Y-71120000D03*
X95250000Y-71120000D03*
X97790000Y-73660000D03*
X95250000Y-73660000D03*
X97790000Y-76200000D03*
X95250000Y-76200000D03*
X97790000Y-78740000D03*
X95250000Y-78740000D03*
X97790000Y-81280000D03*
X95250000Y-81280000D03*
D17*
X54610000Y-58420000D03*
D18*
X52070000Y-58420000D03*
X54610000Y-60960000D03*
X52070000Y-60960000D03*
X54610000Y-63500000D03*
X52070000Y-63500000D03*
X54610000Y-66040000D03*
X52070000Y-66040000D03*
X54610000Y-68580000D03*
X52070000Y-68580000D03*
X54610000Y-71120000D03*
X52070000Y-71120000D03*
X54610000Y-73660000D03*
X52070000Y-73660000D03*
X54610000Y-76200000D03*
X52070000Y-76200000D03*
X54610000Y-78740000D03*
X52070000Y-78740000D03*
X54610000Y-81280000D03*
X52070000Y-81280000D03*
D15*
X65000000Y-57500000D03*
D16*
X65000000Y-54960000D03*
X65000000Y-52420000D03*
D13*
X72060000Y-68300000D03*
X61900000Y-68300000D03*
X79700000Y-81500000D03*
X79700000Y-71340000D03*
D19*
X69310000Y-78290000D03*
X69310000Y-73210000D03*
X61690000Y-78290000D03*
X61690000Y-73210000D03*
D20*
X52250000Y-54790000D03*
D21*
X52250000Y-52250000D03*
D22*
X74350000Y-76200000D03*
X71810000Y-76200000D03*
X76890000Y-76200000D03*
M02*
