M48
;DRILL file {KiCad 4.0.2-stable} date Monday, 03 October 2016 14:03:18
;FORMAT={-:-/ absolute / metric / decimal}
FMAT,2
METRIC,TZ
T1C0.400
T2C0.800
T3C0.813
T4C1.000
T5C1.001
T6C1.016
T7C1.270
T8C1.300
%
G90
G05
M71
T1
X26.5Y-26.75
X26.9Y-46.4
X29.8Y-42.5
X32.2Y-41.5
X32.8Y-49.3
X41.2Y-47.
X42.8Y-50.4
T2
X46.6Y-15.26
X46.6Y-17.8
X46.6Y-20.34
T3
X51.8Y-14.62
X51.8Y-19.7
X59.42Y-14.62
X59.42Y-19.7
T4
X35.05Y-23.55
X35.05Y-35.55
T5
X32.Y-15.003
X46.6Y-24.4
X46.6Y-34.56
T6
X14.Y-24.14
X14.Y-26.68
X14.Y-29.22
X14.Y-31.76
X14.Y-34.3
X14.Y-36.84
X14.Y-39.38
X14.Y-41.92
X14.Y-44.46
X14.Y-47.
X16.54Y-24.14
X16.54Y-26.68
X16.54Y-29.22
X16.54Y-31.76
X16.54Y-34.3
X16.54Y-36.84
X16.54Y-39.38
X16.54Y-41.92
X16.54Y-44.46
X16.54Y-47.
X20.4Y-39.36
X20.4Y-41.9
X20.4Y-44.44
X20.4Y-46.98
X52.8Y-34.26
X52.8Y-36.8
X52.8Y-39.34
X52.8Y-41.88
X53.Y-54.
X53.Y-56.54
X53.Y-59.08
X56.6Y-59.1
X57.Y-24.14
X57.Y-26.68
X57.Y-29.22
X57.Y-31.76
X57.Y-34.3
X57.Y-36.84
X57.Y-39.38
X57.Y-41.92
X57.Y-44.46
X57.Y-47.
X59.14Y-59.1
X59.54Y-24.14
X59.54Y-26.68
X59.54Y-29.22
X59.54Y-31.76
X59.54Y-34.3
X59.54Y-36.84
X59.54Y-39.38
X59.54Y-41.92
X59.54Y-44.46
X59.54Y-47.
T7
X42.16Y-15.003
T8
X15.Y-16.
X20.Y-16.
X22.8Y-23.5
X22.85Y-35.55
X25.Y-16.
X37.Y-29.5
T0
M30
