G04 #@! TF.FileFunction,Copper,L1,Top,Signal*
%FSLAX46Y46*%
G04 Gerber Fmt 4.6, Leading zero omitted, Abs format (unit mm)*
G04 Created by KiCad (PCBNEW 4.0.2-stable) date 2016 May 07, Saturday 23:02:04*
%MOMM*%
G01*
G04 APERTURE LIST*
%ADD10C,1.000000*%
%ADD11C,2.500000*%
%ADD12C,3.000000*%
%ADD13C,1.998980*%
%ADD14R,1.998980X1.998980*%
%ADD15R,2.032000X1.727200*%
%ADD16O,2.032000X1.727200*%
%ADD17R,1.727200X1.727200*%
%ADD18O,1.727200X1.727200*%
%ADD19C,1.397000*%
%ADD20R,2.032000X2.032000*%
%ADD21O,2.032000X2.032000*%
%ADD22C,1.524000*%
%ADD23C,0.250000*%
%ADD24C,0.500000*%
G04 APERTURE END LIST*
D10*
D11*
X73300000Y-96550000D03*
D12*
X61100000Y-96550000D03*
X61050000Y-84500000D03*
D11*
X73300000Y-84550000D03*
D12*
X75250000Y-90500000D03*
D13*
X79750000Y-95750000D03*
D14*
X79750000Y-85590000D03*
D15*
X91200000Y-58420000D03*
D16*
X91200000Y-60960000D03*
X91200000Y-63500000D03*
X91200000Y-66040000D03*
D15*
X53500000Y-89210000D03*
D16*
X53500000Y-91750000D03*
X53500000Y-94290000D03*
D15*
X58500000Y-65750000D03*
D16*
X58500000Y-68290000D03*
X58500000Y-70830000D03*
X58500000Y-73370000D03*
D17*
X97790000Y-58420000D03*
D18*
X95250000Y-58420000D03*
X97790000Y-60960000D03*
X95250000Y-60960000D03*
X97790000Y-63500000D03*
X95250000Y-63500000D03*
X97790000Y-66040000D03*
X95250000Y-66040000D03*
X97790000Y-68580000D03*
X95250000Y-68580000D03*
X97790000Y-71120000D03*
X95250000Y-71120000D03*
X97790000Y-73660000D03*
X95250000Y-73660000D03*
X97790000Y-76200000D03*
X95250000Y-76200000D03*
X97790000Y-78740000D03*
X95250000Y-78740000D03*
X97790000Y-81280000D03*
X95250000Y-81280000D03*
D17*
X54610000Y-58420000D03*
D18*
X52070000Y-58420000D03*
X54610000Y-60960000D03*
X52070000Y-60960000D03*
X54610000Y-63500000D03*
X52070000Y-63500000D03*
X54610000Y-66040000D03*
X52070000Y-66040000D03*
X54610000Y-68580000D03*
X52070000Y-68580000D03*
X54610000Y-71120000D03*
X52070000Y-71120000D03*
X54610000Y-73660000D03*
X52070000Y-73660000D03*
X54610000Y-76200000D03*
X52070000Y-76200000D03*
X54610000Y-78740000D03*
X52070000Y-78740000D03*
X54610000Y-81280000D03*
X52070000Y-81280000D03*
D15*
X65000000Y-57500000D03*
D16*
X65000000Y-54960000D03*
X65000000Y-52420000D03*
D13*
X72060000Y-68300000D03*
X61900000Y-68300000D03*
X79700000Y-81500000D03*
X79700000Y-71340000D03*
D19*
X69310000Y-78290000D03*
X69310000Y-73210000D03*
X61690000Y-78290000D03*
X61690000Y-73210000D03*
D20*
X52250000Y-54790000D03*
D21*
X52250000Y-52250000D03*
D22*
X74350000Y-76200000D03*
X71810000Y-76200000D03*
X76890000Y-76200000D03*
D23*
X91250000Y-61000000D02*
X92516000Y-61000000D01*
X96300000Y-59700000D02*
X97580000Y-58420000D01*
X92516000Y-61000000D02*
X93816000Y-59700000D01*
X93816000Y-59700000D02*
X96300000Y-59700000D01*
X97580000Y-58420000D02*
X97790000Y-58420000D01*
X89000000Y-64800000D02*
X86240000Y-64800000D01*
X86240000Y-64800000D02*
X79700000Y-71340000D01*
X89000000Y-59444000D02*
X89000000Y-64800000D01*
X91250000Y-58460000D02*
X89984000Y-58460000D01*
X89984000Y-58460000D02*
X89000000Y-59444000D01*
X71300000Y-66300000D02*
X74660000Y-66300000D01*
X74660000Y-66300000D02*
X79700000Y-71340000D01*
X69300000Y-68300000D02*
X71300000Y-66300000D01*
X69300000Y-72212172D02*
X69300000Y-68300000D01*
X69310000Y-73210000D02*
X69310000Y-72222172D01*
X69310000Y-72222172D02*
X69300000Y-72212172D01*
X73300000Y-96550000D02*
X78950000Y-96550000D01*
X78950000Y-96550000D02*
X79750000Y-95750000D01*
X65000000Y-57500000D02*
X65000000Y-76250000D01*
X65000000Y-76250000D02*
X73300000Y-84550000D01*
X73300000Y-84550000D02*
X78710000Y-84550000D01*
X78710000Y-84550000D02*
X79750000Y-85590000D01*
X93806000Y-62250000D02*
X96540000Y-62250000D01*
X96540000Y-62250000D02*
X97790000Y-63500000D01*
X91250000Y-63540000D02*
X92516000Y-63540000D01*
X92516000Y-63540000D02*
X93806000Y-62250000D01*
X93846000Y-64750000D02*
X96500000Y-64750000D01*
X96500000Y-64750000D02*
X97790000Y-66040000D01*
X91250000Y-66080000D02*
X92516000Y-66080000D01*
X92516000Y-66080000D02*
X93846000Y-64750000D01*
D24*
X61050000Y-84500000D02*
X56846400Y-84500000D01*
X56846400Y-84500000D02*
X53500000Y-87846400D01*
X53500000Y-87846400D02*
X53500000Y-89210000D01*
X53500000Y-91750000D02*
X74000000Y-91750000D01*
X74000000Y-91750000D02*
X75250000Y-90500000D01*
X53500000Y-94290000D02*
X53652400Y-94290000D01*
X53652400Y-94290000D02*
X55912400Y-96550000D01*
X55912400Y-96550000D02*
X61100000Y-96550000D01*
D23*
X58500000Y-68290000D02*
X56860000Y-68290000D01*
X56860000Y-68290000D02*
X54610000Y-66040000D01*
X58500000Y-70830000D02*
X56860000Y-70830000D01*
X56860000Y-70830000D02*
X54610000Y-68580000D01*
X58500000Y-73370000D02*
X56860000Y-73370000D01*
X56860000Y-73370000D02*
X54610000Y-71120000D01*
X54610000Y-58420000D02*
X55723600Y-58420000D01*
X55723600Y-58420000D02*
X61900000Y-64596400D01*
X61900000Y-64596400D02*
X61900000Y-66886508D01*
X61900000Y-66886508D02*
X61900000Y-68300000D01*
X53300000Y-74271928D02*
X53300000Y-69810000D01*
X53300000Y-69810000D02*
X52070000Y-68580000D01*
X56200000Y-74900000D02*
X53928072Y-74900000D01*
X53928072Y-74900000D02*
X53300000Y-74271928D01*
X59590000Y-78290000D02*
X56200000Y-74900000D01*
X61690000Y-78290000D02*
X59590000Y-78290000D01*
X74350000Y-76200000D02*
X74350000Y-70590000D01*
X74350000Y-70590000D02*
X74000000Y-70240000D01*
X72060000Y-68300000D02*
X74000000Y-70240000D01*
X76890000Y-76200000D02*
X76890000Y-78690000D01*
X76890000Y-78690000D02*
X79700000Y-81500000D01*
M02*
