G04 #@! TF.FileFunction,Copper,L1,Top,Signal*
%FSLAX46Y46*%
G04 Gerber Fmt 4.6, Leading zero omitted, Abs format (unit mm)*
G04 Created by KiCad (PCBNEW 4.0.2-stable) date Friday, 30 September 2016 16:59:30*
%MOMM*%
G01*
G04 APERTURE LIST*
%ADD10C,1.000000*%
%ADD11C,2.500000*%
%ADD12C,3.000000*%
%ADD13R,1.000000X1.600000*%
%ADD14C,1.998980*%
%ADD15R,1.998980X1.998980*%
%ADD16R,2.032000X1.727200*%
%ADD17O,2.032000X1.727200*%
%ADD18R,1.727200X1.727200*%
%ADD19O,1.727200X1.727200*%
%ADD20C,1.524000*%
%ADD21C,1.397000*%
%ADD22R,2.032000X2.032000*%
%ADD23O,2.032000X2.032000*%
%ADD24R,2.500000X2.500000*%
%ADD25R,1.000000X1.700000*%
%ADD26R,1.600000X2.600000*%
%ADD27R,1.300000X2.400000*%
%ADD28C,0.600000*%
%ADD29C,0.250000*%
%ADD30C,0.500000*%
G04 APERTURE END LIST*
D10*
D11*
X35050000Y-35550000D03*
D12*
X22850000Y-35550000D03*
X22800000Y-23500000D03*
D11*
X35050000Y-23550000D03*
D12*
X37000000Y-29500000D03*
D13*
X35000000Y-40000000D03*
X38000000Y-40000000D03*
D14*
X42160000Y-15002540D03*
D15*
X32000000Y-15002540D03*
D16*
X20400000Y-46980000D03*
D17*
X20400000Y-44440000D03*
X20400000Y-41900000D03*
X20400000Y-39360000D03*
D16*
X52800000Y-41880000D03*
D17*
X52800000Y-39340000D03*
X52800000Y-36800000D03*
X52800000Y-34260000D03*
D18*
X14000000Y-47000000D03*
D19*
X16540000Y-47000000D03*
X14000000Y-44460000D03*
X16540000Y-44460000D03*
X14000000Y-41920000D03*
X16540000Y-41920000D03*
X14000000Y-39380000D03*
X16540000Y-39380000D03*
X14000000Y-36840000D03*
X16540000Y-36840000D03*
X14000000Y-34300000D03*
X16540000Y-34300000D03*
X14000000Y-31760000D03*
X16540000Y-31760000D03*
X14000000Y-29220000D03*
X16540000Y-29220000D03*
X14000000Y-26680000D03*
X16540000Y-26680000D03*
X14000000Y-24140000D03*
X16540000Y-24140000D03*
D18*
X57000000Y-47000000D03*
D19*
X59540000Y-47000000D03*
X57000000Y-44460000D03*
X59540000Y-44460000D03*
X57000000Y-41920000D03*
X59540000Y-41920000D03*
X57000000Y-39380000D03*
X59540000Y-39380000D03*
X57000000Y-36840000D03*
X59540000Y-36840000D03*
X57000000Y-34300000D03*
X59540000Y-34300000D03*
X57000000Y-31760000D03*
X59540000Y-31760000D03*
X57000000Y-29220000D03*
X59540000Y-29220000D03*
X57000000Y-26680000D03*
X59540000Y-26680000D03*
X57000000Y-24140000D03*
X59540000Y-24140000D03*
D16*
X53000000Y-54000000D03*
D17*
X53000000Y-56540000D03*
X53000000Y-59080000D03*
D20*
X46600000Y-17800000D03*
X46600000Y-20340000D03*
X46600000Y-15260000D03*
D14*
X46600000Y-24400000D03*
X46600000Y-34560000D03*
D21*
X59420000Y-19700000D03*
X59420000Y-14620000D03*
X51800000Y-19700000D03*
X51800000Y-14620000D03*
D22*
X56600000Y-59100000D03*
D23*
X59140000Y-59100000D03*
D11*
X25000000Y-16000000D03*
D24*
X15000000Y-16000000D03*
D11*
X20000000Y-16000000D03*
D25*
X26900000Y-44100000D03*
X28500000Y-44100000D03*
X31100000Y-44100000D03*
X33600000Y-44100000D03*
X36200000Y-44100000D03*
X38700000Y-44100000D03*
X41200000Y-44100000D03*
X43700000Y-44100000D03*
D26*
X23100000Y-45900000D03*
X23150000Y-60450000D03*
X50500000Y-60400000D03*
D27*
X48500000Y-45950000D03*
D28*
X32500000Y-45500000D03*
X37250000Y-45500000D03*
X26500000Y-26750000D03*
X40000000Y-45500000D03*
X31500000Y-48500000D03*
X33750000Y-45500000D03*
X29000000Y-42500000D03*
X27500000Y-45750000D03*
D29*
X52600000Y-12800000D02*
X54841001Y-15041001D01*
X52800000Y-41880000D02*
X46880000Y-41880000D01*
X37000000Y-38000000D02*
X35000000Y-40000000D01*
X43000000Y-38000000D02*
X37000000Y-38000000D01*
X46880000Y-41880000D02*
X43000000Y-38000000D01*
X33600000Y-44100000D02*
X33600000Y-41400000D01*
X33600000Y-41400000D02*
X35000000Y-40000000D01*
X32500000Y-45500000D02*
X33600000Y-44400000D01*
X33600000Y-44400000D02*
X33600000Y-44100000D01*
X20400000Y-44440000D02*
X18579130Y-44440000D01*
X18579130Y-44440000D02*
X17310529Y-43171399D01*
X17310529Y-43171399D02*
X15869471Y-43171399D01*
X15869471Y-43171399D02*
X15288601Y-43752269D01*
X15288601Y-43752269D02*
X15288601Y-45924999D01*
X15288601Y-45924999D02*
X14213600Y-47000000D01*
X14213600Y-47000000D02*
X14000000Y-47000000D01*
X37250000Y-45500000D02*
X38650000Y-44100000D01*
X38650000Y-44100000D02*
X38700000Y-44100000D01*
X38700000Y-44100000D02*
X38700000Y-40700000D01*
X38700000Y-40700000D02*
X38000000Y-40000000D01*
X59420000Y-14620000D02*
X61028601Y-16228601D01*
X61028601Y-16228601D02*
X61028601Y-45511399D01*
X61028601Y-45511399D02*
X60403599Y-46136401D01*
X60403599Y-46136401D02*
X59540000Y-47000000D01*
X46600000Y-15260000D02*
X51160000Y-15260000D01*
X51160000Y-15260000D02*
X51800000Y-14620000D01*
X59140000Y-47400000D02*
X59540000Y-47000000D01*
X20400000Y-46980000D02*
X19060000Y-46980000D01*
X19060000Y-46980000D02*
X16540000Y-44460000D01*
X29700000Y-23550000D02*
X35050000Y-23550000D01*
X26500000Y-26750000D02*
X29700000Y-23550000D01*
X53000000Y-54000000D02*
X23540000Y-54000000D01*
X23540000Y-54000000D02*
X16540000Y-47000000D01*
X59540000Y-34300000D02*
X59540000Y-34290000D01*
X59540000Y-34290000D02*
X58250000Y-33000000D01*
X42600000Y-45500000D02*
X41200000Y-44100000D01*
X45000000Y-45500000D02*
X42600000Y-45500000D01*
X46750000Y-43750000D02*
X45000000Y-45500000D01*
X54250000Y-43750000D02*
X46750000Y-43750000D01*
X55000000Y-43000000D02*
X54250000Y-43750000D01*
X55000000Y-34250000D02*
X55000000Y-43000000D01*
X56250000Y-33000000D02*
X55000000Y-34250000D01*
X58250000Y-33000000D02*
X56250000Y-33000000D01*
X40000000Y-45500000D02*
X41200000Y-44300000D01*
X41200000Y-44300000D02*
X41200000Y-44100000D01*
X14000000Y-31760000D02*
X14010000Y-31760000D01*
X14010000Y-31760000D02*
X15250000Y-33000000D01*
X15250000Y-33000000D02*
X17250000Y-33000000D01*
X17250000Y-33000000D02*
X25500000Y-41250000D01*
X25500000Y-41250000D02*
X25500000Y-46750000D01*
X25500000Y-46750000D02*
X27250000Y-48500000D01*
X27250000Y-48500000D02*
X31500000Y-48500000D01*
X34750000Y-45500000D02*
X36150000Y-44100000D01*
X33750000Y-45500000D02*
X34750000Y-45500000D01*
X36150000Y-44100000D02*
X36200000Y-44100000D01*
X59540000Y-31760000D02*
X59510000Y-31760000D01*
X59510000Y-31760000D02*
X58250000Y-30500000D01*
X58250000Y-30500000D02*
X43750000Y-30500000D01*
X43750000Y-30500000D02*
X35750000Y-38500000D01*
X35750000Y-38500000D02*
X31500000Y-38500000D01*
X31500000Y-38500000D02*
X28500000Y-41500000D01*
X28500000Y-41500000D02*
X28500000Y-42500000D01*
X28500000Y-42500000D02*
X28500000Y-44100000D01*
X29000000Y-42500000D02*
X28500000Y-42500000D01*
X59540000Y-26680000D02*
X59540000Y-26710000D01*
X59540000Y-26710000D02*
X58250000Y-28000000D01*
X58250000Y-28000000D02*
X45500000Y-28000000D01*
X45500000Y-28000000D02*
X35500000Y-38000000D01*
X35500000Y-38000000D02*
X30250000Y-38000000D01*
X30250000Y-38000000D02*
X26900000Y-41350000D01*
X26900000Y-41350000D02*
X26900000Y-44100000D01*
X26900000Y-45150000D02*
X26900000Y-44100000D01*
X27500000Y-45750000D02*
X26900000Y-45150000D01*
X20400000Y-41900000D02*
X18479130Y-41900000D01*
X18479130Y-41900000D02*
X17210529Y-40631399D01*
X17210529Y-40631399D02*
X15288601Y-40631399D01*
X15288601Y-40631399D02*
X14863599Y-41056401D01*
X14863599Y-41056401D02*
X14000000Y-41920000D01*
X20400000Y-39360000D02*
X18579130Y-39360000D01*
X18579130Y-39360000D02*
X17310529Y-38091399D01*
X17310529Y-38091399D02*
X15288601Y-38091399D01*
X15288601Y-38091399D02*
X14863599Y-38516401D01*
X14863599Y-38516401D02*
X14000000Y-39380000D01*
D30*
X25000000Y-16000000D02*
X25000000Y-21500000D01*
X25000000Y-33400000D02*
X22850000Y-35550000D01*
X25000000Y-25750000D02*
X25000000Y-33400000D01*
X25750000Y-25000000D02*
X25000000Y-25750000D01*
X25750000Y-22250000D02*
X25750000Y-25000000D01*
X25000000Y-21500000D02*
X25750000Y-22250000D01*
D29*
X56960000Y-39340000D02*
X57000000Y-39380000D01*
X56960000Y-36800000D02*
X57000000Y-36840000D01*
X56960000Y-34260000D02*
X57000000Y-34300000D01*
X56440000Y-34860000D02*
X57000000Y-34300000D01*
X46600000Y-24400000D02*
X48787001Y-22212999D01*
X48787001Y-22212999D02*
X48787001Y-19987001D01*
X48787001Y-19987001D02*
X47361999Y-18561999D01*
X47361999Y-18561999D02*
X46600000Y-17800000D01*
M02*
