G04 #@! TF.FileFunction,Copper,L2,Bot,Signal*
%FSLAX46Y46*%
G04 Gerber Fmt 4.6, Leading zero omitted, Abs format (unit mm)*
G04 Created by KiCad (PCBNEW 4.0.2-stable) date Tuesday, 22 November 2016 17:19:33*
%MOMM*%
G01*
G04 APERTURE LIST*
%ADD10C,1.000000*%
%ADD11C,0.300000*%
%ADD12C,2.500000*%
%ADD13C,3.000000*%
%ADD14C,1.998980*%
%ADD15R,1.998980X1.998980*%
%ADD16R,2.032000X1.727200*%
%ADD17O,2.032000X1.727200*%
%ADD18R,1.727200X1.727200*%
%ADD19O,1.727200X1.727200*%
%ADD20C,1.524000*%
%ADD21C,1.397000*%
%ADD22R,2.032000X2.032000*%
%ADD23O,2.032000X2.032000*%
%ADD24R,0.899160X1.501140*%
%ADD25R,0.500000X1.250000*%
%ADD26R,1.000000X1.500000*%
%ADD27R,0.800000X1.500000*%
%ADD28R,1.200000X1.500000*%
%ADD29R,0.600000X1.000000*%
%ADD30R,2.500000X2.500000*%
%ADD31C,1.200000*%
%ADD32C,0.250000*%
%ADD33C,0.500000*%
%ADD34C,0.254000*%
G04 APERTURE END LIST*
D10*
D11*
X43235714Y-60678571D02*
X43950000Y-60678571D01*
X43950000Y-59178571D01*
X42735714Y-60678571D02*
X42735714Y-59178571D01*
X42735714Y-59892857D02*
X41878571Y-59892857D01*
X41878571Y-60678571D02*
X41878571Y-59178571D01*
X41235714Y-60607143D02*
X41021428Y-60678571D01*
X40664285Y-60678571D01*
X40521428Y-60607143D01*
X40449999Y-60535714D01*
X40378571Y-60392857D01*
X40378571Y-60250000D01*
X40449999Y-60107143D01*
X40521428Y-60035714D01*
X40664285Y-59964286D01*
X40949999Y-59892857D01*
X41092857Y-59821429D01*
X41164285Y-59750000D01*
X41235714Y-59607143D01*
X41235714Y-59464286D01*
X41164285Y-59321429D01*
X41092857Y-59250000D01*
X40949999Y-59178571D01*
X40592857Y-59178571D01*
X40378571Y-59250000D01*
D12*
X35050000Y-35550000D03*
D13*
X22850000Y-35550000D03*
X22800000Y-23500000D03*
D12*
X35050000Y-23550000D03*
D13*
X37000000Y-29500000D03*
D14*
X42160000Y-15002540D03*
D15*
X32000000Y-15002540D03*
D16*
X20400000Y-46980000D03*
D17*
X20400000Y-44440000D03*
X20400000Y-41900000D03*
X20400000Y-39360000D03*
D16*
X52800000Y-41880000D03*
D17*
X52800000Y-39340000D03*
X52800000Y-36800000D03*
X52800000Y-34260000D03*
D18*
X14000000Y-47000000D03*
D19*
X16540000Y-47000000D03*
X14000000Y-44460000D03*
X16540000Y-44460000D03*
X14000000Y-41920000D03*
X16540000Y-41920000D03*
X14000000Y-39380000D03*
X16540000Y-39380000D03*
X14000000Y-36840000D03*
X16540000Y-36840000D03*
X14000000Y-34300000D03*
X16540000Y-34300000D03*
X14000000Y-31760000D03*
X16540000Y-31760000D03*
X14000000Y-29220000D03*
X16540000Y-29220000D03*
X14000000Y-26680000D03*
X16540000Y-26680000D03*
X14000000Y-24140000D03*
X16540000Y-24140000D03*
D18*
X57000000Y-47000000D03*
D19*
X59540000Y-47000000D03*
X57000000Y-44460000D03*
X59540000Y-44460000D03*
X57000000Y-41920000D03*
X59540000Y-41920000D03*
X57000000Y-39380000D03*
X59540000Y-39380000D03*
X57000000Y-36840000D03*
X59540000Y-36840000D03*
X57000000Y-34300000D03*
X59540000Y-34300000D03*
X57000000Y-31760000D03*
X59540000Y-31760000D03*
X57000000Y-29220000D03*
X59540000Y-29220000D03*
X57000000Y-26680000D03*
X59540000Y-26680000D03*
X57000000Y-24140000D03*
X59540000Y-24140000D03*
D16*
X53000000Y-54000000D03*
D17*
X53000000Y-56540000D03*
X53000000Y-59080000D03*
D20*
X46600000Y-17800000D03*
X46600000Y-20340000D03*
X46600000Y-15260000D03*
D14*
X46600000Y-24400000D03*
X46600000Y-34560000D03*
D21*
X59420000Y-19700000D03*
X59420000Y-14620000D03*
X51800000Y-19700000D03*
X51800000Y-14620000D03*
D22*
X56600000Y-59100000D03*
D23*
X59140000Y-59100000D03*
D24*
X56399800Y-50750640D03*
X59600200Y-50750640D03*
X59600200Y-55749360D03*
X56399800Y-55749360D03*
D25*
X28350000Y-46900000D03*
X29450000Y-46900000D03*
X30550000Y-46900000D03*
X31650000Y-46900000D03*
X32750000Y-46900000D03*
X33850000Y-46900000D03*
X34950000Y-46900000D03*
X36050000Y-46900000D03*
D26*
X23750000Y-47900000D03*
D27*
X38500000Y-57350000D03*
D28*
X22700000Y-57350000D03*
D29*
X38400000Y-47800000D03*
D12*
X25000000Y-16000000D03*
D30*
X15000000Y-16000000D03*
D12*
X20000000Y-16000000D03*
D31*
X31600000Y-40000000D03*
X38000000Y-42500000D03*
X26500000Y-26750000D03*
X46750000Y-43750000D03*
X32800000Y-49300000D03*
X30600000Y-41200000D03*
X29450000Y-42350000D03*
D32*
X31650000Y-46900000D02*
X31650000Y-40050000D01*
X31650000Y-40050000D02*
X31600000Y-40000000D01*
X20400000Y-44440000D02*
X23860000Y-44440000D01*
X23860000Y-44440000D02*
X28300000Y-40000000D01*
X28300000Y-40000000D02*
X31600000Y-40000000D01*
X20400000Y-44440000D02*
X20560000Y-44440000D01*
X31650000Y-46900000D02*
X31650000Y-46350000D01*
X33850000Y-46900000D02*
X33850000Y-46400000D01*
X53000000Y-59080000D02*
X52580000Y-59080000D01*
X59140000Y-59100000D02*
X59140000Y-56209560D01*
X59140000Y-56209560D02*
X59600200Y-55749360D01*
X53000000Y-59080000D02*
X53670000Y-59080000D01*
X53670000Y-59080000D02*
X55500000Y-57250000D01*
X55500000Y-57250000D02*
X58099560Y-57250000D01*
X58099560Y-57250000D02*
X59600200Y-55749360D01*
X61000000Y-54250000D02*
X61000000Y-54349560D01*
X61000000Y-54349560D02*
X59600200Y-55749360D01*
X61000000Y-48460000D02*
X59540000Y-47000000D01*
X61000000Y-54250000D02*
X61000000Y-48460000D01*
X20400000Y-47300000D02*
X20400000Y-46980000D01*
X46600000Y-20340000D02*
X46600000Y-20400000D01*
X46600000Y-20400000D02*
X40500000Y-26500000D01*
X40500000Y-30100000D02*
X35050000Y-35550000D01*
X40500000Y-26500000D02*
X40500000Y-30100000D01*
X42160000Y-15002540D02*
X42160000Y-15900000D01*
X42160000Y-15900000D02*
X46600000Y-20340000D01*
X16540000Y-47000000D02*
X17250000Y-47000000D01*
X17250000Y-47000000D02*
X18750000Y-45500000D01*
X18750000Y-34500000D02*
X26500000Y-26750000D01*
X18750000Y-45500000D02*
X18750000Y-34500000D01*
X32000000Y-15002540D02*
X32000000Y-20500000D01*
X32000000Y-20500000D02*
X35050000Y-23550000D01*
X53000000Y-54000000D02*
X53150440Y-54000000D01*
X53150440Y-54000000D02*
X56399800Y-50750640D01*
X34950000Y-46900000D02*
X34950000Y-44800000D01*
X36000000Y-43750000D02*
X46750000Y-43750000D01*
X34950000Y-44800000D02*
X36000000Y-43750000D01*
X32750000Y-46900000D02*
X32750000Y-49250000D01*
X32750000Y-49250000D02*
X32800000Y-49300000D01*
X32750000Y-47250000D02*
X32750000Y-46900000D01*
X32750000Y-46900000D02*
X32750000Y-46500000D01*
X30550000Y-46900000D02*
X30550000Y-41250000D01*
X30550000Y-41250000D02*
X30600000Y-41200000D01*
X30550000Y-46450000D02*
X30550000Y-46900000D01*
X30550000Y-46900000D02*
X30550000Y-46450000D01*
X30550000Y-46900000D02*
X30550000Y-46400000D01*
X29450000Y-46900000D02*
X29450000Y-42350000D01*
X29450000Y-46900000D02*
X29450000Y-46400000D01*
D33*
X15000000Y-16000000D02*
X15300000Y-16000000D01*
X15300000Y-16000000D02*
X22800000Y-23500000D01*
X20000000Y-16000000D02*
X20000000Y-16500000D01*
X20000000Y-16500000D02*
X33000000Y-29500000D01*
X33000000Y-29500000D02*
X37000000Y-29500000D01*
D32*
X52800000Y-39340000D02*
X56960000Y-39340000D01*
X56960000Y-39340000D02*
X57000000Y-39380000D01*
X57000000Y-36840000D02*
X52840000Y-36840000D01*
X52840000Y-36840000D02*
X52800000Y-36800000D01*
X52800000Y-34260000D02*
X56960000Y-34260000D01*
X56960000Y-34260000D02*
X57000000Y-34300000D01*
X46600000Y-40800000D02*
X52800000Y-47000000D01*
X52800000Y-47000000D02*
X57000000Y-47000000D01*
X46600000Y-34560000D02*
X46600000Y-40800000D01*
X59540000Y-44460000D02*
X59960000Y-44460000D01*
X59960000Y-44460000D02*
X61500000Y-46000000D01*
X61500000Y-46000000D02*
X61500000Y-60250000D01*
X61500000Y-60250000D02*
X60500000Y-61250000D01*
X60500000Y-61250000D02*
X58750000Y-61250000D01*
X58750000Y-61250000D02*
X56600000Y-59100000D01*
X59540000Y-41920000D02*
X59540000Y-41960000D01*
X59540000Y-41960000D02*
X58250000Y-43250000D01*
X58250000Y-43250000D02*
X58250000Y-48000000D01*
X58250000Y-48000000D02*
X59500000Y-49250000D01*
X59500000Y-49250000D02*
X60250000Y-49250000D01*
X60250000Y-49250000D02*
X60500000Y-49500000D01*
X60500000Y-49500000D02*
X60500000Y-52500000D01*
X60500000Y-52500000D02*
X57250640Y-55749360D01*
X57250640Y-55749360D02*
X56399800Y-55749360D01*
X59420000Y-19700000D02*
X60728601Y-21008601D01*
X60728601Y-21008601D02*
X60728601Y-35651399D01*
X60728601Y-35651399D02*
X60403599Y-35976401D01*
X60403599Y-35976401D02*
X59540000Y-36840000D01*
X59600200Y-50750640D02*
X59600200Y-51899800D01*
X55290000Y-54250000D02*
X53000000Y-56540000D01*
X57250000Y-54250000D02*
X55290000Y-54250000D01*
X59600200Y-51899800D02*
X57250000Y-54250000D01*
D34*
G36*
X61315000Y-20544531D02*
X61266002Y-20471200D01*
X60753275Y-19958473D01*
X60753731Y-19435914D01*
X60551146Y-18945620D01*
X60176353Y-18570173D01*
X59686413Y-18366732D01*
X59155914Y-18366269D01*
X58665620Y-18568854D01*
X58290173Y-18943647D01*
X58086732Y-19433587D01*
X58086269Y-19964086D01*
X58288854Y-20454380D01*
X58663647Y-20829827D01*
X59153587Y-21033268D01*
X59678924Y-21033726D01*
X59968601Y-21323403D01*
X59968601Y-22697295D01*
X59540000Y-22612041D01*
X58966511Y-22726115D01*
X58480330Y-23050971D01*
X58270000Y-23365752D01*
X58059670Y-23050971D01*
X57573489Y-22726115D01*
X57000000Y-22612041D01*
X56426511Y-22726115D01*
X55940330Y-23050971D01*
X55615474Y-23537152D01*
X55501400Y-24110641D01*
X55501400Y-24169359D01*
X55615474Y-24742848D01*
X55940330Y-25229029D01*
X56211172Y-25410000D01*
X55940330Y-25590971D01*
X55615474Y-26077152D01*
X55501400Y-26650641D01*
X55501400Y-26709359D01*
X55615474Y-27282848D01*
X55940330Y-27769029D01*
X56211172Y-27950000D01*
X55940330Y-28130971D01*
X55615474Y-28617152D01*
X55501400Y-29190641D01*
X55501400Y-29249359D01*
X55615474Y-29822848D01*
X55940330Y-30309029D01*
X56211172Y-30490000D01*
X55940330Y-30670971D01*
X55615474Y-31157152D01*
X55501400Y-31730641D01*
X55501400Y-31789359D01*
X55615474Y-32362848D01*
X55940330Y-32849029D01*
X56211172Y-33030000D01*
X55940330Y-33210971D01*
X55747207Y-33500000D01*
X54244648Y-33500000D01*
X54044415Y-33200330D01*
X53558234Y-32875474D01*
X52984745Y-32761400D01*
X52615255Y-32761400D01*
X52041766Y-32875474D01*
X51555585Y-33200330D01*
X51230729Y-33686511D01*
X51116655Y-34260000D01*
X51230729Y-34833489D01*
X51555585Y-35319670D01*
X51870366Y-35530000D01*
X51555585Y-35740330D01*
X51230729Y-36226511D01*
X51116655Y-36800000D01*
X51230729Y-37373489D01*
X51555585Y-37859670D01*
X51870366Y-38070000D01*
X51555585Y-38280330D01*
X51230729Y-38766511D01*
X51116655Y-39340000D01*
X51230729Y-39913489D01*
X51555585Y-40399670D01*
X51569913Y-40409243D01*
X51548683Y-40413238D01*
X51332559Y-40552310D01*
X51187569Y-40764510D01*
X51136560Y-41016400D01*
X51136560Y-42743600D01*
X51180838Y-42978917D01*
X51319910Y-43195041D01*
X51532110Y-43340031D01*
X51784000Y-43391040D01*
X53816000Y-43391040D01*
X54051317Y-43346762D01*
X54267441Y-43207690D01*
X54412431Y-42995490D01*
X54463440Y-42743600D01*
X54463440Y-41016400D01*
X54419162Y-40781083D01*
X54280090Y-40564959D01*
X54067890Y-40419969D01*
X54026561Y-40411600D01*
X54044415Y-40399670D01*
X54244648Y-40100000D01*
X55693753Y-40100000D01*
X55940330Y-40469029D01*
X56211172Y-40650000D01*
X55940330Y-40830971D01*
X55615474Y-41317152D01*
X55501400Y-41890641D01*
X55501400Y-41949359D01*
X55615474Y-42522848D01*
X55940330Y-43009029D01*
X56211172Y-43190000D01*
X55940330Y-43370971D01*
X55615474Y-43857152D01*
X55501400Y-44430641D01*
X55501400Y-44489359D01*
X55615474Y-45062848D01*
X55926574Y-45528442D01*
X55901083Y-45533238D01*
X55684959Y-45672310D01*
X55539969Y-45884510D01*
X55488960Y-46136400D01*
X55488960Y-46240000D01*
X53114802Y-46240000D01*
X47360000Y-40485198D01*
X47360000Y-36014496D01*
X47524655Y-35946462D01*
X47984846Y-35487073D01*
X48234206Y-34886547D01*
X48234774Y-34236306D01*
X47986462Y-33635345D01*
X47527073Y-33175154D01*
X46926547Y-32925794D01*
X46276306Y-32925226D01*
X45675345Y-33173538D01*
X45215154Y-33632927D01*
X44965794Y-34233453D01*
X44965226Y-34883694D01*
X45213538Y-35484655D01*
X45672927Y-35944846D01*
X45840000Y-36014221D01*
X45840000Y-40800000D01*
X45897852Y-41090839D01*
X46062599Y-41337401D01*
X47413448Y-42688250D01*
X46996734Y-42515215D01*
X46505421Y-42514786D01*
X46051343Y-42702408D01*
X45763248Y-42990000D01*
X36000000Y-42990000D01*
X35709160Y-43047852D01*
X35462599Y-43212599D01*
X34412599Y-44262599D01*
X34247852Y-44509161D01*
X34190000Y-44800000D01*
X34190000Y-45640000D01*
X34133750Y-45640000D01*
X33975000Y-45798750D01*
X33975000Y-46773000D01*
X33997000Y-46773000D01*
X33997000Y-47027000D01*
X33975000Y-47027000D01*
X33975000Y-48001250D01*
X34133750Y-48160000D01*
X34226309Y-48160000D01*
X34399541Y-48088245D01*
X34448110Y-48121431D01*
X34700000Y-48172440D01*
X35200000Y-48172440D01*
X35435317Y-48128162D01*
X35498478Y-48087519D01*
X35548110Y-48121431D01*
X35800000Y-48172440D01*
X36300000Y-48172440D01*
X36535317Y-48128162D01*
X36751441Y-47989090D01*
X36896431Y-47776890D01*
X36947440Y-47525000D01*
X36947440Y-47300000D01*
X37452560Y-47300000D01*
X37452560Y-48300000D01*
X37496838Y-48535317D01*
X37635910Y-48751441D01*
X37848110Y-48896431D01*
X38100000Y-48947440D01*
X38700000Y-48947440D01*
X38935317Y-48903162D01*
X39151441Y-48764090D01*
X39296431Y-48551890D01*
X39347440Y-48300000D01*
X39347440Y-47300000D01*
X39303162Y-47064683D01*
X39164090Y-46848559D01*
X38951890Y-46703569D01*
X38700000Y-46652560D01*
X38100000Y-46652560D01*
X37864683Y-46696838D01*
X37648559Y-46835910D01*
X37503569Y-47048110D01*
X37452560Y-47300000D01*
X36947440Y-47300000D01*
X36947440Y-46275000D01*
X36903162Y-46039683D01*
X36764090Y-45823559D01*
X36551890Y-45678569D01*
X36300000Y-45627560D01*
X35800000Y-45627560D01*
X35710000Y-45644495D01*
X35710000Y-45114802D01*
X36314802Y-44510000D01*
X45763644Y-44510000D01*
X46049515Y-44796371D01*
X46503266Y-44984785D01*
X46994579Y-44985214D01*
X47448657Y-44797592D01*
X47796371Y-44450485D01*
X47984785Y-43996734D01*
X47985214Y-43505421D01*
X47812415Y-43087217D01*
X52262599Y-47537401D01*
X52509161Y-47702148D01*
X52800000Y-47760000D01*
X55488960Y-47760000D01*
X55488960Y-47863600D01*
X55533238Y-48098917D01*
X55672310Y-48315041D01*
X55884510Y-48460031D01*
X56136400Y-48511040D01*
X57694985Y-48511040D01*
X57712599Y-48537401D01*
X58706480Y-49531282D01*
X58699179Y-49535980D01*
X58554189Y-49748180D01*
X58503180Y-50000070D01*
X58503180Y-51501210D01*
X58547458Y-51736527D01*
X58602748Y-51822450D01*
X56935198Y-53490000D01*
X55290000Y-53490000D01*
X54999161Y-53547852D01*
X54752599Y-53712599D01*
X54663440Y-53801758D01*
X54663440Y-53561802D01*
X56076592Y-52148650D01*
X56849380Y-52148650D01*
X57084697Y-52104372D01*
X57300821Y-51965300D01*
X57445811Y-51753100D01*
X57496820Y-51501210D01*
X57496820Y-50000070D01*
X57452542Y-49764753D01*
X57313470Y-49548629D01*
X57101270Y-49403639D01*
X56849380Y-49352630D01*
X55950220Y-49352630D01*
X55714903Y-49396908D01*
X55498779Y-49535980D01*
X55353789Y-49748180D01*
X55302780Y-50000070D01*
X55302780Y-50772858D01*
X53586678Y-52488960D01*
X51984000Y-52488960D01*
X51748683Y-52533238D01*
X51532559Y-52672310D01*
X51387569Y-52884510D01*
X51336560Y-53136400D01*
X51336560Y-54863600D01*
X51380838Y-55098917D01*
X51519910Y-55315041D01*
X51732110Y-55460031D01*
X51773439Y-55468400D01*
X51755585Y-55480330D01*
X51430729Y-55966511D01*
X51316655Y-56540000D01*
X51430729Y-57113489D01*
X51755585Y-57599670D01*
X52065069Y-57806461D01*
X51649268Y-58177964D01*
X51395291Y-58705209D01*
X51392642Y-58720974D01*
X51513783Y-58953000D01*
X52873000Y-58953000D01*
X52873000Y-58933000D01*
X53127000Y-58933000D01*
X53127000Y-58953000D01*
X54486217Y-58953000D01*
X54607358Y-58720974D01*
X54604709Y-58705209D01*
X54350732Y-58177964D01*
X53934931Y-57806461D01*
X54244415Y-57599670D01*
X54569271Y-57113489D01*
X54683345Y-56540000D01*
X54582381Y-56032421D01*
X55302780Y-55312022D01*
X55302780Y-56499930D01*
X55347058Y-56735247D01*
X55486130Y-56951371D01*
X55698330Y-57096361D01*
X55950220Y-57147370D01*
X56849380Y-57147370D01*
X57084697Y-57103092D01*
X57300821Y-56964020D01*
X57445811Y-56751820D01*
X57496820Y-56499930D01*
X57496820Y-56460391D01*
X57541479Y-56451508D01*
X57788041Y-56286761D01*
X58039692Y-56035110D01*
X58515620Y-56035110D01*
X58515620Y-56626240D01*
X58612293Y-56859629D01*
X58790922Y-57038257D01*
X59024311Y-57134930D01*
X59314450Y-57134930D01*
X59473200Y-56976180D01*
X59473200Y-55876360D01*
X59727200Y-55876360D01*
X59727200Y-56976180D01*
X59885950Y-57134930D01*
X60176089Y-57134930D01*
X60409478Y-57038257D01*
X60588107Y-56859629D01*
X60684780Y-56626240D01*
X60684780Y-56035110D01*
X60526030Y-55876360D01*
X59727200Y-55876360D01*
X59473200Y-55876360D01*
X58674370Y-55876360D01*
X58515620Y-56035110D01*
X58039692Y-56035110D01*
X58563406Y-55511396D01*
X58674370Y-55622360D01*
X59473200Y-55622360D01*
X59473200Y-55602360D01*
X59727200Y-55602360D01*
X59727200Y-55622360D01*
X60526030Y-55622360D01*
X60684780Y-55463610D01*
X60684780Y-54872480D01*
X60588107Y-54639091D01*
X60409478Y-54460463D01*
X60176089Y-54363790D01*
X59885950Y-54363790D01*
X59727202Y-54522538D01*
X59727202Y-54363790D01*
X59711012Y-54363790D01*
X60740000Y-53334802D01*
X60740000Y-58702630D01*
X60546385Y-58235182D01*
X60108379Y-57762812D01*
X59522946Y-57494017D01*
X59267000Y-57612633D01*
X59267000Y-58973000D01*
X59287000Y-58973000D01*
X59287000Y-59227000D01*
X59267000Y-59227000D01*
X59267000Y-59247000D01*
X59013000Y-59247000D01*
X59013000Y-59227000D01*
X58993000Y-59227000D01*
X58993000Y-58973000D01*
X59013000Y-58973000D01*
X59013000Y-57612633D01*
X58757054Y-57494017D01*
X58171621Y-57762812D01*
X58167066Y-57767724D01*
X58080090Y-57632559D01*
X57867890Y-57487569D01*
X57616000Y-57436560D01*
X55584000Y-57436560D01*
X55348683Y-57480838D01*
X55132559Y-57619910D01*
X54987569Y-57832110D01*
X54936560Y-58084000D01*
X54936560Y-60116000D01*
X54980838Y-60351317D01*
X55119910Y-60567441D01*
X55332110Y-60712431D01*
X55584000Y-60763440D01*
X57188638Y-60763440D01*
X57740198Y-61315000D01*
X45092143Y-61315000D01*
X45092143Y-59439026D01*
X51392642Y-59439026D01*
X51395291Y-59454791D01*
X51649268Y-59982036D01*
X52085680Y-60371954D01*
X52638087Y-60565184D01*
X52873000Y-60420924D01*
X52873000Y-59207000D01*
X53127000Y-59207000D01*
X53127000Y-60420924D01*
X53361913Y-60565184D01*
X53914320Y-60371954D01*
X54350732Y-59982036D01*
X54604709Y-59454791D01*
X54607358Y-59439026D01*
X54486217Y-59207000D01*
X53127000Y-59207000D01*
X52873000Y-59207000D01*
X51513783Y-59207000D01*
X51392642Y-59439026D01*
X45092143Y-59439026D01*
X45092143Y-57865000D01*
X39547440Y-57865000D01*
X39547440Y-56600000D01*
X39503162Y-56364683D01*
X39364090Y-56148559D01*
X39151890Y-56003569D01*
X38900000Y-55952560D01*
X38100000Y-55952560D01*
X37864683Y-55996838D01*
X37648559Y-56135910D01*
X37503569Y-56348110D01*
X37452560Y-56600000D01*
X37452560Y-58100000D01*
X37496838Y-58335317D01*
X37635910Y-58551441D01*
X37848110Y-58696431D01*
X38100000Y-58747440D01*
X38900000Y-58747440D01*
X39135317Y-58703162D01*
X39307857Y-58592136D01*
X39307857Y-61315000D01*
X12685000Y-61315000D01*
X12685000Y-56600000D01*
X21452560Y-56600000D01*
X21452560Y-58100000D01*
X21496838Y-58335317D01*
X21635910Y-58551441D01*
X21848110Y-58696431D01*
X22100000Y-58747440D01*
X23300000Y-58747440D01*
X23535317Y-58703162D01*
X23751441Y-58564090D01*
X23896431Y-58351890D01*
X23947440Y-58100000D01*
X23947440Y-56600000D01*
X23903162Y-56364683D01*
X23764090Y-56148559D01*
X23551890Y-56003569D01*
X23300000Y-55952560D01*
X22100000Y-55952560D01*
X21864683Y-55996838D01*
X21648559Y-56135910D01*
X21503569Y-56348110D01*
X21452560Y-56600000D01*
X12685000Y-56600000D01*
X12685000Y-48323712D01*
X12884510Y-48460031D01*
X13136400Y-48511040D01*
X14863600Y-48511040D01*
X15098917Y-48466762D01*
X15315041Y-48327690D01*
X15460031Y-48115490D01*
X15468864Y-48071869D01*
X15480330Y-48089029D01*
X15966511Y-48413885D01*
X16540000Y-48527959D01*
X17113489Y-48413885D01*
X17599670Y-48089029D01*
X17924526Y-47602848D01*
X17974825Y-47349977D01*
X18059052Y-47265750D01*
X18749000Y-47265750D01*
X18749000Y-47969910D01*
X18845673Y-48203299D01*
X19024302Y-48381927D01*
X19257691Y-48478600D01*
X20114250Y-48478600D01*
X20273000Y-48319850D01*
X20273000Y-47107000D01*
X20527000Y-47107000D01*
X20527000Y-48319850D01*
X20685750Y-48478600D01*
X21542309Y-48478600D01*
X21775698Y-48381927D01*
X21954327Y-48203299D01*
X22051000Y-47969910D01*
X22051000Y-47265750D01*
X21935250Y-47150000D01*
X22602560Y-47150000D01*
X22602560Y-48650000D01*
X22646838Y-48885317D01*
X22785910Y-49101441D01*
X22998110Y-49246431D01*
X23250000Y-49297440D01*
X24250000Y-49297440D01*
X24485317Y-49253162D01*
X24701441Y-49114090D01*
X24846431Y-48901890D01*
X24897440Y-48650000D01*
X24897440Y-47150000D01*
X24853162Y-46914683D01*
X24714090Y-46698559D01*
X24501890Y-46553569D01*
X24250000Y-46502560D01*
X23250000Y-46502560D01*
X23014683Y-46546838D01*
X22798559Y-46685910D01*
X22653569Y-46898110D01*
X22602560Y-47150000D01*
X21935250Y-47150000D01*
X21892250Y-47107000D01*
X20527000Y-47107000D01*
X20273000Y-47107000D01*
X18907750Y-47107000D01*
X18749000Y-47265750D01*
X18059052Y-47265750D01*
X18749000Y-46575802D01*
X18749000Y-46694250D01*
X18907750Y-46853000D01*
X20273000Y-46853000D01*
X20273000Y-46833000D01*
X20527000Y-46833000D01*
X20527000Y-46853000D01*
X21892250Y-46853000D01*
X22051000Y-46694250D01*
X22051000Y-45990090D01*
X21954327Y-45756701D01*
X21775698Y-45578073D01*
X21622220Y-45514500D01*
X21644415Y-45499670D01*
X21844648Y-45200000D01*
X23860000Y-45200000D01*
X24150839Y-45142148D01*
X24397401Y-44977401D01*
X28614802Y-40760000D01*
X29445466Y-40760000D01*
X29365215Y-40953266D01*
X29365074Y-41114925D01*
X29205421Y-41114786D01*
X28751343Y-41302408D01*
X28403629Y-41649515D01*
X28215215Y-42103266D01*
X28214786Y-42594579D01*
X28402408Y-43048657D01*
X28690000Y-43336752D01*
X28690000Y-45645785D01*
X28600000Y-45627560D01*
X28100000Y-45627560D01*
X27864683Y-45671838D01*
X27648559Y-45810910D01*
X27503569Y-46023110D01*
X27452560Y-46275000D01*
X27452560Y-47525000D01*
X27496838Y-47760317D01*
X27635910Y-47976441D01*
X27848110Y-48121431D01*
X28100000Y-48172440D01*
X28600000Y-48172440D01*
X28835317Y-48128162D01*
X28898478Y-48087519D01*
X28948110Y-48121431D01*
X29200000Y-48172440D01*
X29700000Y-48172440D01*
X29935317Y-48128162D01*
X29998478Y-48087519D01*
X30048110Y-48121431D01*
X30300000Y-48172440D01*
X30800000Y-48172440D01*
X31035317Y-48128162D01*
X31098478Y-48087519D01*
X31148110Y-48121431D01*
X31400000Y-48172440D01*
X31900000Y-48172440D01*
X31990000Y-48155505D01*
X31990000Y-48363557D01*
X31753629Y-48599515D01*
X31565215Y-49053266D01*
X31564786Y-49544579D01*
X31752408Y-49998657D01*
X32099515Y-50346371D01*
X32553266Y-50534785D01*
X33044579Y-50535214D01*
X33498657Y-50347592D01*
X33846371Y-50000485D01*
X34034785Y-49546734D01*
X34035214Y-49055421D01*
X33847592Y-48601343D01*
X33510000Y-48263161D01*
X33510000Y-48160000D01*
X33566250Y-48160000D01*
X33725000Y-48001250D01*
X33725000Y-47027000D01*
X33703000Y-47027000D01*
X33703000Y-46773000D01*
X33725000Y-46773000D01*
X33725000Y-45798750D01*
X33566250Y-45640000D01*
X33473691Y-45640000D01*
X33300459Y-45711755D01*
X33251890Y-45678569D01*
X33000000Y-45627560D01*
X32500000Y-45627560D01*
X32410000Y-45644495D01*
X32410000Y-40936443D01*
X32646371Y-40700485D01*
X32834785Y-40246734D01*
X32835214Y-39755421D01*
X32647592Y-39301343D01*
X32300485Y-38953629D01*
X31846734Y-38765215D01*
X31355421Y-38764786D01*
X30901343Y-38952408D01*
X30613248Y-39240000D01*
X28300000Y-39240000D01*
X28009160Y-39297852D01*
X27762599Y-39462599D01*
X23545198Y-43680000D01*
X21844648Y-43680000D01*
X21644415Y-43380330D01*
X21329634Y-43170000D01*
X21644415Y-42959670D01*
X21969271Y-42473489D01*
X22083345Y-41900000D01*
X21969271Y-41326511D01*
X21644415Y-40840330D01*
X21329634Y-40630000D01*
X21644415Y-40419670D01*
X21969271Y-39933489D01*
X22083345Y-39360000D01*
X21969271Y-38786511D01*
X21644415Y-38300330D01*
X21158234Y-37975474D01*
X20584745Y-37861400D01*
X20215255Y-37861400D01*
X19641766Y-37975474D01*
X19510000Y-38063517D01*
X19510000Y-35972815D01*
X20714630Y-35972815D01*
X21038980Y-36757800D01*
X21639041Y-37358909D01*
X22423459Y-37684628D01*
X23272815Y-37685370D01*
X24057800Y-37361020D01*
X24658909Y-36760959D01*
X24984628Y-35976541D01*
X24984674Y-35923305D01*
X33164674Y-35923305D01*
X33451043Y-36616372D01*
X33980839Y-37147093D01*
X34673405Y-37434672D01*
X35423305Y-37435326D01*
X36116372Y-37148957D01*
X36647093Y-36619161D01*
X36934672Y-35926595D01*
X36935326Y-35176695D01*
X36807491Y-34867311D01*
X41037401Y-30637401D01*
X41202148Y-30390839D01*
X41260000Y-30100000D01*
X41260000Y-26814802D01*
X43351108Y-24723694D01*
X44965226Y-24723694D01*
X45213538Y-25324655D01*
X45672927Y-25784846D01*
X46273453Y-26034206D01*
X46923694Y-26034774D01*
X47524655Y-25786462D01*
X47984846Y-25327073D01*
X48234206Y-24726547D01*
X48234774Y-24076306D01*
X47986462Y-23475345D01*
X47527073Y-23015154D01*
X46926547Y-22765794D01*
X46276306Y-22765226D01*
X45675345Y-23013538D01*
X45215154Y-23472927D01*
X44965794Y-24073453D01*
X44965226Y-24723694D01*
X43351108Y-24723694D01*
X46338030Y-21736772D01*
X46876661Y-21737242D01*
X47390303Y-21525010D01*
X47783629Y-21132370D01*
X47996757Y-20619100D01*
X47997242Y-20063339D01*
X47956232Y-19964086D01*
X50466269Y-19964086D01*
X50668854Y-20454380D01*
X51043647Y-20829827D01*
X51533587Y-21033268D01*
X52064086Y-21033731D01*
X52554380Y-20831146D01*
X52929827Y-20456353D01*
X53133268Y-19966413D01*
X53133731Y-19435914D01*
X52931146Y-18945620D01*
X52556353Y-18570173D01*
X52066413Y-18366732D01*
X51535914Y-18366269D01*
X51045620Y-18568854D01*
X50670173Y-18943647D01*
X50466732Y-19433587D01*
X50466269Y-19964086D01*
X47956232Y-19964086D01*
X47785010Y-19549697D01*
X47392370Y-19156371D01*
X47184488Y-19070051D01*
X47390303Y-18985010D01*
X47783629Y-18592370D01*
X47996757Y-18079100D01*
X47997242Y-17523339D01*
X47785010Y-17009697D01*
X47392370Y-16616371D01*
X47200273Y-16536605D01*
X47331143Y-16482397D01*
X47400608Y-16240213D01*
X46600000Y-15439605D01*
X45799392Y-16240213D01*
X45868857Y-16482397D01*
X46009318Y-16532509D01*
X45809697Y-16614990D01*
X45416371Y-17007630D01*
X45203243Y-17520900D01*
X45202940Y-17868138D01*
X43404508Y-16069706D01*
X43544846Y-15929613D01*
X43794206Y-15329087D01*
X43794447Y-15052302D01*
X45190856Y-15052302D01*
X45218638Y-15607368D01*
X45377603Y-15991143D01*
X45619787Y-16060608D01*
X46420395Y-15260000D01*
X46779605Y-15260000D01*
X47580213Y-16060608D01*
X47822397Y-15991143D01*
X47978287Y-15554188D01*
X51045417Y-15554188D01*
X51107071Y-15789800D01*
X51607480Y-15965927D01*
X52137199Y-15937148D01*
X52492929Y-15789800D01*
X52554583Y-15554188D01*
X58665417Y-15554188D01*
X58727071Y-15789800D01*
X59227480Y-15965927D01*
X59757199Y-15937148D01*
X60112929Y-15789800D01*
X60174583Y-15554188D01*
X59420000Y-14799605D01*
X58665417Y-15554188D01*
X52554583Y-15554188D01*
X51800000Y-14799605D01*
X51045417Y-15554188D01*
X47978287Y-15554188D01*
X48009144Y-15467698D01*
X47981362Y-14912632D01*
X47822397Y-14528857D01*
X47580213Y-14459392D01*
X46779605Y-15260000D01*
X46420395Y-15260000D01*
X45619787Y-14459392D01*
X45377603Y-14528857D01*
X45190856Y-15052302D01*
X43794447Y-15052302D01*
X43794774Y-14678846D01*
X43629887Y-14279787D01*
X45799392Y-14279787D01*
X46600000Y-15080395D01*
X47252915Y-14427480D01*
X50454073Y-14427480D01*
X50482852Y-14957199D01*
X50630200Y-15312929D01*
X50865812Y-15374583D01*
X51620395Y-14620000D01*
X51979605Y-14620000D01*
X52734188Y-15374583D01*
X52969800Y-15312929D01*
X53145927Y-14812520D01*
X53125009Y-14427480D01*
X58074073Y-14427480D01*
X58102852Y-14957199D01*
X58250200Y-15312929D01*
X58485812Y-15374583D01*
X59240395Y-14620000D01*
X59599605Y-14620000D01*
X60354188Y-15374583D01*
X60589800Y-15312929D01*
X60765927Y-14812520D01*
X60737148Y-14282801D01*
X60589800Y-13927071D01*
X60354188Y-13865417D01*
X59599605Y-14620000D01*
X59240395Y-14620000D01*
X58485812Y-13865417D01*
X58250200Y-13927071D01*
X58074073Y-14427480D01*
X53125009Y-14427480D01*
X53117148Y-14282801D01*
X52969800Y-13927071D01*
X52734188Y-13865417D01*
X51979605Y-14620000D01*
X51620395Y-14620000D01*
X50865812Y-13865417D01*
X50630200Y-13927071D01*
X50454073Y-14427480D01*
X47252915Y-14427480D01*
X47400608Y-14279787D01*
X47331143Y-14037603D01*
X46807698Y-13850856D01*
X46252632Y-13878638D01*
X45868857Y-14037603D01*
X45799392Y-14279787D01*
X43629887Y-14279787D01*
X43546462Y-14077885D01*
X43155073Y-13685812D01*
X51045417Y-13685812D01*
X51800000Y-14440395D01*
X52554583Y-13685812D01*
X58665417Y-13685812D01*
X59420000Y-14440395D01*
X60174583Y-13685812D01*
X60112929Y-13450200D01*
X59612520Y-13274073D01*
X59082801Y-13302852D01*
X58727071Y-13450200D01*
X58665417Y-13685812D01*
X52554583Y-13685812D01*
X52492929Y-13450200D01*
X51992520Y-13274073D01*
X51462801Y-13302852D01*
X51107071Y-13450200D01*
X51045417Y-13685812D01*
X43155073Y-13685812D01*
X43087073Y-13617694D01*
X42486547Y-13368334D01*
X41836306Y-13367766D01*
X41235345Y-13616078D01*
X40775154Y-14075467D01*
X40525794Y-14675993D01*
X40525226Y-15326234D01*
X40773538Y-15927195D01*
X41232927Y-16387386D01*
X41813772Y-16628574D01*
X45215817Y-20030619D01*
X45203243Y-20060900D01*
X45202758Y-20616661D01*
X45233686Y-20691512D01*
X39962599Y-25962599D01*
X39797852Y-26209161D01*
X39740000Y-26500000D01*
X39740000Y-29785198D01*
X35732745Y-33792453D01*
X35426595Y-33665328D01*
X34676695Y-33664674D01*
X33983628Y-33951043D01*
X33452907Y-34480839D01*
X33165328Y-35173405D01*
X33164674Y-35923305D01*
X24984674Y-35923305D01*
X24985370Y-35127185D01*
X24661020Y-34342200D01*
X24060959Y-33741091D01*
X23276541Y-33415372D01*
X22427185Y-33414630D01*
X21642200Y-33738980D01*
X21041091Y-34339041D01*
X20715372Y-35123459D01*
X20714630Y-35972815D01*
X19510000Y-35972815D01*
X19510000Y-34814802D01*
X26339941Y-27984861D01*
X26744579Y-27985214D01*
X27198657Y-27797592D01*
X27546371Y-27450485D01*
X27734785Y-26996734D01*
X27735214Y-26505421D01*
X27547592Y-26051343D01*
X27200485Y-25703629D01*
X26746734Y-25515215D01*
X26255421Y-25514786D01*
X25801343Y-25702408D01*
X25453629Y-26049515D01*
X25265215Y-26503266D01*
X25264860Y-26910338D01*
X18212599Y-33962599D01*
X18047852Y-34209161D01*
X18037111Y-34263157D01*
X17924526Y-33697152D01*
X17599670Y-33210971D01*
X17328828Y-33030000D01*
X17599670Y-32849029D01*
X17924526Y-32362848D01*
X18038600Y-31789359D01*
X18038600Y-31730641D01*
X17924526Y-31157152D01*
X17599670Y-30670971D01*
X17328828Y-30490000D01*
X17599670Y-30309029D01*
X17924526Y-29822848D01*
X18038600Y-29249359D01*
X18038600Y-29190641D01*
X17924526Y-28617152D01*
X17599670Y-28130971D01*
X17328828Y-27950000D01*
X17599670Y-27769029D01*
X17924526Y-27282848D01*
X18038600Y-26709359D01*
X18038600Y-26650641D01*
X17924526Y-26077152D01*
X17599670Y-25590971D01*
X17328828Y-25410000D01*
X17599670Y-25229029D01*
X17924526Y-24742848D01*
X18038600Y-24169359D01*
X18038600Y-24110641D01*
X17924526Y-23537152D01*
X17599670Y-23050971D01*
X17113489Y-22726115D01*
X16540000Y-22612041D01*
X15966511Y-22726115D01*
X15480330Y-23050971D01*
X15270000Y-23365752D01*
X15059670Y-23050971D01*
X14573489Y-22726115D01*
X14000000Y-22612041D01*
X13426511Y-22726115D01*
X12940330Y-23050971D01*
X12685000Y-23433099D01*
X12685000Y-14750000D01*
X13102560Y-14750000D01*
X13102560Y-17250000D01*
X13146838Y-17485317D01*
X13285910Y-17701441D01*
X13498110Y-17846431D01*
X13750000Y-17897440D01*
X15945860Y-17897440D01*
X20799313Y-22750893D01*
X20665372Y-23073459D01*
X20664630Y-23922815D01*
X20988980Y-24707800D01*
X21589041Y-25308909D01*
X22373459Y-25634628D01*
X23222815Y-25635370D01*
X24007800Y-25311020D01*
X24608909Y-24710959D01*
X24934628Y-23926541D01*
X24935370Y-23077185D01*
X24660591Y-22412171D01*
X32374208Y-30125787D01*
X32374210Y-30125790D01*
X32533227Y-30232041D01*
X32661325Y-30317633D01*
X33000000Y-30385000D01*
X35055601Y-30385000D01*
X35188980Y-30707800D01*
X35789041Y-31308909D01*
X36573459Y-31634628D01*
X37422815Y-31635370D01*
X38207800Y-31311020D01*
X38808909Y-30710959D01*
X39134628Y-29926541D01*
X39135370Y-29077185D01*
X38811020Y-28292200D01*
X38210959Y-27691091D01*
X37426541Y-27365372D01*
X36577185Y-27364630D01*
X35792200Y-27688980D01*
X35191091Y-28289041D01*
X35055741Y-28615000D01*
X33366579Y-28615000D01*
X21662712Y-16911132D01*
X21884672Y-16376595D01*
X21884674Y-16373305D01*
X23114674Y-16373305D01*
X23401043Y-17066372D01*
X23930839Y-17597093D01*
X24623405Y-17884672D01*
X25373305Y-17885326D01*
X26066372Y-17598957D01*
X26597093Y-17069161D01*
X26884672Y-16376595D01*
X26885326Y-15626695D01*
X26598957Y-14933628D01*
X26069161Y-14402907D01*
X25376595Y-14115328D01*
X24626695Y-14114674D01*
X23933628Y-14401043D01*
X23402907Y-14930839D01*
X23115328Y-15623405D01*
X23114674Y-16373305D01*
X21884674Y-16373305D01*
X21885326Y-15626695D01*
X21598957Y-14933628D01*
X21069161Y-14402907D01*
X20376595Y-14115328D01*
X19626695Y-14114674D01*
X18933628Y-14401043D01*
X18402907Y-14930839D01*
X18115328Y-15623405D01*
X18114674Y-16373305D01*
X18401043Y-17066372D01*
X18930839Y-17597093D01*
X19623405Y-17884672D01*
X20133537Y-17885117D01*
X23888777Y-21640357D01*
X23226541Y-21365372D01*
X22377185Y-21364630D01*
X22050990Y-21499411D01*
X16897440Y-16345860D01*
X16897440Y-14750000D01*
X16853162Y-14514683D01*
X16714090Y-14298559D01*
X16501890Y-14153569D01*
X16250000Y-14102560D01*
X13750000Y-14102560D01*
X13514683Y-14146838D01*
X13298559Y-14285910D01*
X13153569Y-14498110D01*
X13102560Y-14750000D01*
X12685000Y-14750000D01*
X12685000Y-14003050D01*
X30353070Y-14003050D01*
X30353070Y-16002030D01*
X30397348Y-16237347D01*
X30536420Y-16453471D01*
X30748620Y-16598461D01*
X31000510Y-16649470D01*
X31240000Y-16649470D01*
X31240000Y-20500000D01*
X31297852Y-20790839D01*
X31462599Y-21037401D01*
X33292453Y-22867255D01*
X33165328Y-23173405D01*
X33164674Y-23923305D01*
X33451043Y-24616372D01*
X33980839Y-25147093D01*
X34673405Y-25434672D01*
X35423305Y-25435326D01*
X36116372Y-25148957D01*
X36647093Y-24619161D01*
X36934672Y-23926595D01*
X36935326Y-23176695D01*
X36648957Y-22483628D01*
X36119161Y-21952907D01*
X35426595Y-21665328D01*
X34676695Y-21664674D01*
X34367311Y-21792509D01*
X32760000Y-20185198D01*
X32760000Y-16649470D01*
X32999490Y-16649470D01*
X33234807Y-16605192D01*
X33450931Y-16466120D01*
X33595921Y-16253920D01*
X33646930Y-16002030D01*
X33646930Y-14003050D01*
X33602652Y-13767733D01*
X33463580Y-13551609D01*
X33251380Y-13406619D01*
X32999490Y-13355610D01*
X31000510Y-13355610D01*
X30765193Y-13399888D01*
X30549069Y-13538960D01*
X30404079Y-13751160D01*
X30353070Y-14003050D01*
X12685000Y-14003050D01*
X12685000Y-12685000D01*
X61315000Y-12685000D01*
X61315000Y-20544531D01*
X61315000Y-20544531D01*
G37*
X61315000Y-20544531D02*
X61266002Y-20471200D01*
X60753275Y-19958473D01*
X60753731Y-19435914D01*
X60551146Y-18945620D01*
X60176353Y-18570173D01*
X59686413Y-18366732D01*
X59155914Y-18366269D01*
X58665620Y-18568854D01*
X58290173Y-18943647D01*
X58086732Y-19433587D01*
X58086269Y-19964086D01*
X58288854Y-20454380D01*
X58663647Y-20829827D01*
X59153587Y-21033268D01*
X59678924Y-21033726D01*
X59968601Y-21323403D01*
X59968601Y-22697295D01*
X59540000Y-22612041D01*
X58966511Y-22726115D01*
X58480330Y-23050971D01*
X58270000Y-23365752D01*
X58059670Y-23050971D01*
X57573489Y-22726115D01*
X57000000Y-22612041D01*
X56426511Y-22726115D01*
X55940330Y-23050971D01*
X55615474Y-23537152D01*
X55501400Y-24110641D01*
X55501400Y-24169359D01*
X55615474Y-24742848D01*
X55940330Y-25229029D01*
X56211172Y-25410000D01*
X55940330Y-25590971D01*
X55615474Y-26077152D01*
X55501400Y-26650641D01*
X55501400Y-26709359D01*
X55615474Y-27282848D01*
X55940330Y-27769029D01*
X56211172Y-27950000D01*
X55940330Y-28130971D01*
X55615474Y-28617152D01*
X55501400Y-29190641D01*
X55501400Y-29249359D01*
X55615474Y-29822848D01*
X55940330Y-30309029D01*
X56211172Y-30490000D01*
X55940330Y-30670971D01*
X55615474Y-31157152D01*
X55501400Y-31730641D01*
X55501400Y-31789359D01*
X55615474Y-32362848D01*
X55940330Y-32849029D01*
X56211172Y-33030000D01*
X55940330Y-33210971D01*
X55747207Y-33500000D01*
X54244648Y-33500000D01*
X54044415Y-33200330D01*
X53558234Y-32875474D01*
X52984745Y-32761400D01*
X52615255Y-32761400D01*
X52041766Y-32875474D01*
X51555585Y-33200330D01*
X51230729Y-33686511D01*
X51116655Y-34260000D01*
X51230729Y-34833489D01*
X51555585Y-35319670D01*
X51870366Y-35530000D01*
X51555585Y-35740330D01*
X51230729Y-36226511D01*
X51116655Y-36800000D01*
X51230729Y-37373489D01*
X51555585Y-37859670D01*
X51870366Y-38070000D01*
X51555585Y-38280330D01*
X51230729Y-38766511D01*
X51116655Y-39340000D01*
X51230729Y-39913489D01*
X51555585Y-40399670D01*
X51569913Y-40409243D01*
X51548683Y-40413238D01*
X51332559Y-40552310D01*
X51187569Y-40764510D01*
X51136560Y-41016400D01*
X51136560Y-42743600D01*
X51180838Y-42978917D01*
X51319910Y-43195041D01*
X51532110Y-43340031D01*
X51784000Y-43391040D01*
X53816000Y-43391040D01*
X54051317Y-43346762D01*
X54267441Y-43207690D01*
X54412431Y-42995490D01*
X54463440Y-42743600D01*
X54463440Y-41016400D01*
X54419162Y-40781083D01*
X54280090Y-40564959D01*
X54067890Y-40419969D01*
X54026561Y-40411600D01*
X54044415Y-40399670D01*
X54244648Y-40100000D01*
X55693753Y-40100000D01*
X55940330Y-40469029D01*
X56211172Y-40650000D01*
X55940330Y-40830971D01*
X55615474Y-41317152D01*
X55501400Y-41890641D01*
X55501400Y-41949359D01*
X55615474Y-42522848D01*
X55940330Y-43009029D01*
X56211172Y-43190000D01*
X55940330Y-43370971D01*
X55615474Y-43857152D01*
X55501400Y-44430641D01*
X55501400Y-44489359D01*
X55615474Y-45062848D01*
X55926574Y-45528442D01*
X55901083Y-45533238D01*
X55684959Y-45672310D01*
X55539969Y-45884510D01*
X55488960Y-46136400D01*
X55488960Y-46240000D01*
X53114802Y-46240000D01*
X47360000Y-40485198D01*
X47360000Y-36014496D01*
X47524655Y-35946462D01*
X47984846Y-35487073D01*
X48234206Y-34886547D01*
X48234774Y-34236306D01*
X47986462Y-33635345D01*
X47527073Y-33175154D01*
X46926547Y-32925794D01*
X46276306Y-32925226D01*
X45675345Y-33173538D01*
X45215154Y-33632927D01*
X44965794Y-34233453D01*
X44965226Y-34883694D01*
X45213538Y-35484655D01*
X45672927Y-35944846D01*
X45840000Y-36014221D01*
X45840000Y-40800000D01*
X45897852Y-41090839D01*
X46062599Y-41337401D01*
X47413448Y-42688250D01*
X46996734Y-42515215D01*
X46505421Y-42514786D01*
X46051343Y-42702408D01*
X45763248Y-42990000D01*
X36000000Y-42990000D01*
X35709160Y-43047852D01*
X35462599Y-43212599D01*
X34412599Y-44262599D01*
X34247852Y-44509161D01*
X34190000Y-44800000D01*
X34190000Y-45640000D01*
X34133750Y-45640000D01*
X33975000Y-45798750D01*
X33975000Y-46773000D01*
X33997000Y-46773000D01*
X33997000Y-47027000D01*
X33975000Y-47027000D01*
X33975000Y-48001250D01*
X34133750Y-48160000D01*
X34226309Y-48160000D01*
X34399541Y-48088245D01*
X34448110Y-48121431D01*
X34700000Y-48172440D01*
X35200000Y-48172440D01*
X35435317Y-48128162D01*
X35498478Y-48087519D01*
X35548110Y-48121431D01*
X35800000Y-48172440D01*
X36300000Y-48172440D01*
X36535317Y-48128162D01*
X36751441Y-47989090D01*
X36896431Y-47776890D01*
X36947440Y-47525000D01*
X36947440Y-47300000D01*
X37452560Y-47300000D01*
X37452560Y-48300000D01*
X37496838Y-48535317D01*
X37635910Y-48751441D01*
X37848110Y-48896431D01*
X38100000Y-48947440D01*
X38700000Y-48947440D01*
X38935317Y-48903162D01*
X39151441Y-48764090D01*
X39296431Y-48551890D01*
X39347440Y-48300000D01*
X39347440Y-47300000D01*
X39303162Y-47064683D01*
X39164090Y-46848559D01*
X38951890Y-46703569D01*
X38700000Y-46652560D01*
X38100000Y-46652560D01*
X37864683Y-46696838D01*
X37648559Y-46835910D01*
X37503569Y-47048110D01*
X37452560Y-47300000D01*
X36947440Y-47300000D01*
X36947440Y-46275000D01*
X36903162Y-46039683D01*
X36764090Y-45823559D01*
X36551890Y-45678569D01*
X36300000Y-45627560D01*
X35800000Y-45627560D01*
X35710000Y-45644495D01*
X35710000Y-45114802D01*
X36314802Y-44510000D01*
X45763644Y-44510000D01*
X46049515Y-44796371D01*
X46503266Y-44984785D01*
X46994579Y-44985214D01*
X47448657Y-44797592D01*
X47796371Y-44450485D01*
X47984785Y-43996734D01*
X47985214Y-43505421D01*
X47812415Y-43087217D01*
X52262599Y-47537401D01*
X52509161Y-47702148D01*
X52800000Y-47760000D01*
X55488960Y-47760000D01*
X55488960Y-47863600D01*
X55533238Y-48098917D01*
X55672310Y-48315041D01*
X55884510Y-48460031D01*
X56136400Y-48511040D01*
X57694985Y-48511040D01*
X57712599Y-48537401D01*
X58706480Y-49531282D01*
X58699179Y-49535980D01*
X58554189Y-49748180D01*
X58503180Y-50000070D01*
X58503180Y-51501210D01*
X58547458Y-51736527D01*
X58602748Y-51822450D01*
X56935198Y-53490000D01*
X55290000Y-53490000D01*
X54999161Y-53547852D01*
X54752599Y-53712599D01*
X54663440Y-53801758D01*
X54663440Y-53561802D01*
X56076592Y-52148650D01*
X56849380Y-52148650D01*
X57084697Y-52104372D01*
X57300821Y-51965300D01*
X57445811Y-51753100D01*
X57496820Y-51501210D01*
X57496820Y-50000070D01*
X57452542Y-49764753D01*
X57313470Y-49548629D01*
X57101270Y-49403639D01*
X56849380Y-49352630D01*
X55950220Y-49352630D01*
X55714903Y-49396908D01*
X55498779Y-49535980D01*
X55353789Y-49748180D01*
X55302780Y-50000070D01*
X55302780Y-50772858D01*
X53586678Y-52488960D01*
X51984000Y-52488960D01*
X51748683Y-52533238D01*
X51532559Y-52672310D01*
X51387569Y-52884510D01*
X51336560Y-53136400D01*
X51336560Y-54863600D01*
X51380838Y-55098917D01*
X51519910Y-55315041D01*
X51732110Y-55460031D01*
X51773439Y-55468400D01*
X51755585Y-55480330D01*
X51430729Y-55966511D01*
X51316655Y-56540000D01*
X51430729Y-57113489D01*
X51755585Y-57599670D01*
X52065069Y-57806461D01*
X51649268Y-58177964D01*
X51395291Y-58705209D01*
X51392642Y-58720974D01*
X51513783Y-58953000D01*
X52873000Y-58953000D01*
X52873000Y-58933000D01*
X53127000Y-58933000D01*
X53127000Y-58953000D01*
X54486217Y-58953000D01*
X54607358Y-58720974D01*
X54604709Y-58705209D01*
X54350732Y-58177964D01*
X53934931Y-57806461D01*
X54244415Y-57599670D01*
X54569271Y-57113489D01*
X54683345Y-56540000D01*
X54582381Y-56032421D01*
X55302780Y-55312022D01*
X55302780Y-56499930D01*
X55347058Y-56735247D01*
X55486130Y-56951371D01*
X55698330Y-57096361D01*
X55950220Y-57147370D01*
X56849380Y-57147370D01*
X57084697Y-57103092D01*
X57300821Y-56964020D01*
X57445811Y-56751820D01*
X57496820Y-56499930D01*
X57496820Y-56460391D01*
X57541479Y-56451508D01*
X57788041Y-56286761D01*
X58039692Y-56035110D01*
X58515620Y-56035110D01*
X58515620Y-56626240D01*
X58612293Y-56859629D01*
X58790922Y-57038257D01*
X59024311Y-57134930D01*
X59314450Y-57134930D01*
X59473200Y-56976180D01*
X59473200Y-55876360D01*
X59727200Y-55876360D01*
X59727200Y-56976180D01*
X59885950Y-57134930D01*
X60176089Y-57134930D01*
X60409478Y-57038257D01*
X60588107Y-56859629D01*
X60684780Y-56626240D01*
X60684780Y-56035110D01*
X60526030Y-55876360D01*
X59727200Y-55876360D01*
X59473200Y-55876360D01*
X58674370Y-55876360D01*
X58515620Y-56035110D01*
X58039692Y-56035110D01*
X58563406Y-55511396D01*
X58674370Y-55622360D01*
X59473200Y-55622360D01*
X59473200Y-55602360D01*
X59727200Y-55602360D01*
X59727200Y-55622360D01*
X60526030Y-55622360D01*
X60684780Y-55463610D01*
X60684780Y-54872480D01*
X60588107Y-54639091D01*
X60409478Y-54460463D01*
X60176089Y-54363790D01*
X59885950Y-54363790D01*
X59727202Y-54522538D01*
X59727202Y-54363790D01*
X59711012Y-54363790D01*
X60740000Y-53334802D01*
X60740000Y-58702630D01*
X60546385Y-58235182D01*
X60108379Y-57762812D01*
X59522946Y-57494017D01*
X59267000Y-57612633D01*
X59267000Y-58973000D01*
X59287000Y-58973000D01*
X59287000Y-59227000D01*
X59267000Y-59227000D01*
X59267000Y-59247000D01*
X59013000Y-59247000D01*
X59013000Y-59227000D01*
X58993000Y-59227000D01*
X58993000Y-58973000D01*
X59013000Y-58973000D01*
X59013000Y-57612633D01*
X58757054Y-57494017D01*
X58171621Y-57762812D01*
X58167066Y-57767724D01*
X58080090Y-57632559D01*
X57867890Y-57487569D01*
X57616000Y-57436560D01*
X55584000Y-57436560D01*
X55348683Y-57480838D01*
X55132559Y-57619910D01*
X54987569Y-57832110D01*
X54936560Y-58084000D01*
X54936560Y-60116000D01*
X54980838Y-60351317D01*
X55119910Y-60567441D01*
X55332110Y-60712431D01*
X55584000Y-60763440D01*
X57188638Y-60763440D01*
X57740198Y-61315000D01*
X45092143Y-61315000D01*
X45092143Y-59439026D01*
X51392642Y-59439026D01*
X51395291Y-59454791D01*
X51649268Y-59982036D01*
X52085680Y-60371954D01*
X52638087Y-60565184D01*
X52873000Y-60420924D01*
X52873000Y-59207000D01*
X53127000Y-59207000D01*
X53127000Y-60420924D01*
X53361913Y-60565184D01*
X53914320Y-60371954D01*
X54350732Y-59982036D01*
X54604709Y-59454791D01*
X54607358Y-59439026D01*
X54486217Y-59207000D01*
X53127000Y-59207000D01*
X52873000Y-59207000D01*
X51513783Y-59207000D01*
X51392642Y-59439026D01*
X45092143Y-59439026D01*
X45092143Y-57865000D01*
X39547440Y-57865000D01*
X39547440Y-56600000D01*
X39503162Y-56364683D01*
X39364090Y-56148559D01*
X39151890Y-56003569D01*
X38900000Y-55952560D01*
X38100000Y-55952560D01*
X37864683Y-55996838D01*
X37648559Y-56135910D01*
X37503569Y-56348110D01*
X37452560Y-56600000D01*
X37452560Y-58100000D01*
X37496838Y-58335317D01*
X37635910Y-58551441D01*
X37848110Y-58696431D01*
X38100000Y-58747440D01*
X38900000Y-58747440D01*
X39135317Y-58703162D01*
X39307857Y-58592136D01*
X39307857Y-61315000D01*
X12685000Y-61315000D01*
X12685000Y-56600000D01*
X21452560Y-56600000D01*
X21452560Y-58100000D01*
X21496838Y-58335317D01*
X21635910Y-58551441D01*
X21848110Y-58696431D01*
X22100000Y-58747440D01*
X23300000Y-58747440D01*
X23535317Y-58703162D01*
X23751441Y-58564090D01*
X23896431Y-58351890D01*
X23947440Y-58100000D01*
X23947440Y-56600000D01*
X23903162Y-56364683D01*
X23764090Y-56148559D01*
X23551890Y-56003569D01*
X23300000Y-55952560D01*
X22100000Y-55952560D01*
X21864683Y-55996838D01*
X21648559Y-56135910D01*
X21503569Y-56348110D01*
X21452560Y-56600000D01*
X12685000Y-56600000D01*
X12685000Y-48323712D01*
X12884510Y-48460031D01*
X13136400Y-48511040D01*
X14863600Y-48511040D01*
X15098917Y-48466762D01*
X15315041Y-48327690D01*
X15460031Y-48115490D01*
X15468864Y-48071869D01*
X15480330Y-48089029D01*
X15966511Y-48413885D01*
X16540000Y-48527959D01*
X17113489Y-48413885D01*
X17599670Y-48089029D01*
X17924526Y-47602848D01*
X17974825Y-47349977D01*
X18059052Y-47265750D01*
X18749000Y-47265750D01*
X18749000Y-47969910D01*
X18845673Y-48203299D01*
X19024302Y-48381927D01*
X19257691Y-48478600D01*
X20114250Y-48478600D01*
X20273000Y-48319850D01*
X20273000Y-47107000D01*
X20527000Y-47107000D01*
X20527000Y-48319850D01*
X20685750Y-48478600D01*
X21542309Y-48478600D01*
X21775698Y-48381927D01*
X21954327Y-48203299D01*
X22051000Y-47969910D01*
X22051000Y-47265750D01*
X21935250Y-47150000D01*
X22602560Y-47150000D01*
X22602560Y-48650000D01*
X22646838Y-48885317D01*
X22785910Y-49101441D01*
X22998110Y-49246431D01*
X23250000Y-49297440D01*
X24250000Y-49297440D01*
X24485317Y-49253162D01*
X24701441Y-49114090D01*
X24846431Y-48901890D01*
X24897440Y-48650000D01*
X24897440Y-47150000D01*
X24853162Y-46914683D01*
X24714090Y-46698559D01*
X24501890Y-46553569D01*
X24250000Y-46502560D01*
X23250000Y-46502560D01*
X23014683Y-46546838D01*
X22798559Y-46685910D01*
X22653569Y-46898110D01*
X22602560Y-47150000D01*
X21935250Y-47150000D01*
X21892250Y-47107000D01*
X20527000Y-47107000D01*
X20273000Y-47107000D01*
X18907750Y-47107000D01*
X18749000Y-47265750D01*
X18059052Y-47265750D01*
X18749000Y-46575802D01*
X18749000Y-46694250D01*
X18907750Y-46853000D01*
X20273000Y-46853000D01*
X20273000Y-46833000D01*
X20527000Y-46833000D01*
X20527000Y-46853000D01*
X21892250Y-46853000D01*
X22051000Y-46694250D01*
X22051000Y-45990090D01*
X21954327Y-45756701D01*
X21775698Y-45578073D01*
X21622220Y-45514500D01*
X21644415Y-45499670D01*
X21844648Y-45200000D01*
X23860000Y-45200000D01*
X24150839Y-45142148D01*
X24397401Y-44977401D01*
X28614802Y-40760000D01*
X29445466Y-40760000D01*
X29365215Y-40953266D01*
X29365074Y-41114925D01*
X29205421Y-41114786D01*
X28751343Y-41302408D01*
X28403629Y-41649515D01*
X28215215Y-42103266D01*
X28214786Y-42594579D01*
X28402408Y-43048657D01*
X28690000Y-43336752D01*
X28690000Y-45645785D01*
X28600000Y-45627560D01*
X28100000Y-45627560D01*
X27864683Y-45671838D01*
X27648559Y-45810910D01*
X27503569Y-46023110D01*
X27452560Y-46275000D01*
X27452560Y-47525000D01*
X27496838Y-47760317D01*
X27635910Y-47976441D01*
X27848110Y-48121431D01*
X28100000Y-48172440D01*
X28600000Y-48172440D01*
X28835317Y-48128162D01*
X28898478Y-48087519D01*
X28948110Y-48121431D01*
X29200000Y-48172440D01*
X29700000Y-48172440D01*
X29935317Y-48128162D01*
X29998478Y-48087519D01*
X30048110Y-48121431D01*
X30300000Y-48172440D01*
X30800000Y-48172440D01*
X31035317Y-48128162D01*
X31098478Y-48087519D01*
X31148110Y-48121431D01*
X31400000Y-48172440D01*
X31900000Y-48172440D01*
X31990000Y-48155505D01*
X31990000Y-48363557D01*
X31753629Y-48599515D01*
X31565215Y-49053266D01*
X31564786Y-49544579D01*
X31752408Y-49998657D01*
X32099515Y-50346371D01*
X32553266Y-50534785D01*
X33044579Y-50535214D01*
X33498657Y-50347592D01*
X33846371Y-50000485D01*
X34034785Y-49546734D01*
X34035214Y-49055421D01*
X33847592Y-48601343D01*
X33510000Y-48263161D01*
X33510000Y-48160000D01*
X33566250Y-48160000D01*
X33725000Y-48001250D01*
X33725000Y-47027000D01*
X33703000Y-47027000D01*
X33703000Y-46773000D01*
X33725000Y-46773000D01*
X33725000Y-45798750D01*
X33566250Y-45640000D01*
X33473691Y-45640000D01*
X33300459Y-45711755D01*
X33251890Y-45678569D01*
X33000000Y-45627560D01*
X32500000Y-45627560D01*
X32410000Y-45644495D01*
X32410000Y-40936443D01*
X32646371Y-40700485D01*
X32834785Y-40246734D01*
X32835214Y-39755421D01*
X32647592Y-39301343D01*
X32300485Y-38953629D01*
X31846734Y-38765215D01*
X31355421Y-38764786D01*
X30901343Y-38952408D01*
X30613248Y-39240000D01*
X28300000Y-39240000D01*
X28009160Y-39297852D01*
X27762599Y-39462599D01*
X23545198Y-43680000D01*
X21844648Y-43680000D01*
X21644415Y-43380330D01*
X21329634Y-43170000D01*
X21644415Y-42959670D01*
X21969271Y-42473489D01*
X22083345Y-41900000D01*
X21969271Y-41326511D01*
X21644415Y-40840330D01*
X21329634Y-40630000D01*
X21644415Y-40419670D01*
X21969271Y-39933489D01*
X22083345Y-39360000D01*
X21969271Y-38786511D01*
X21644415Y-38300330D01*
X21158234Y-37975474D01*
X20584745Y-37861400D01*
X20215255Y-37861400D01*
X19641766Y-37975474D01*
X19510000Y-38063517D01*
X19510000Y-35972815D01*
X20714630Y-35972815D01*
X21038980Y-36757800D01*
X21639041Y-37358909D01*
X22423459Y-37684628D01*
X23272815Y-37685370D01*
X24057800Y-37361020D01*
X24658909Y-36760959D01*
X24984628Y-35976541D01*
X24984674Y-35923305D01*
X33164674Y-35923305D01*
X33451043Y-36616372D01*
X33980839Y-37147093D01*
X34673405Y-37434672D01*
X35423305Y-37435326D01*
X36116372Y-37148957D01*
X36647093Y-36619161D01*
X36934672Y-35926595D01*
X36935326Y-35176695D01*
X36807491Y-34867311D01*
X41037401Y-30637401D01*
X41202148Y-30390839D01*
X41260000Y-30100000D01*
X41260000Y-26814802D01*
X43351108Y-24723694D01*
X44965226Y-24723694D01*
X45213538Y-25324655D01*
X45672927Y-25784846D01*
X46273453Y-26034206D01*
X46923694Y-26034774D01*
X47524655Y-25786462D01*
X47984846Y-25327073D01*
X48234206Y-24726547D01*
X48234774Y-24076306D01*
X47986462Y-23475345D01*
X47527073Y-23015154D01*
X46926547Y-22765794D01*
X46276306Y-22765226D01*
X45675345Y-23013538D01*
X45215154Y-23472927D01*
X44965794Y-24073453D01*
X44965226Y-24723694D01*
X43351108Y-24723694D01*
X46338030Y-21736772D01*
X46876661Y-21737242D01*
X47390303Y-21525010D01*
X47783629Y-21132370D01*
X47996757Y-20619100D01*
X47997242Y-20063339D01*
X47956232Y-19964086D01*
X50466269Y-19964086D01*
X50668854Y-20454380D01*
X51043647Y-20829827D01*
X51533587Y-21033268D01*
X52064086Y-21033731D01*
X52554380Y-20831146D01*
X52929827Y-20456353D01*
X53133268Y-19966413D01*
X53133731Y-19435914D01*
X52931146Y-18945620D01*
X52556353Y-18570173D01*
X52066413Y-18366732D01*
X51535914Y-18366269D01*
X51045620Y-18568854D01*
X50670173Y-18943647D01*
X50466732Y-19433587D01*
X50466269Y-19964086D01*
X47956232Y-19964086D01*
X47785010Y-19549697D01*
X47392370Y-19156371D01*
X47184488Y-19070051D01*
X47390303Y-18985010D01*
X47783629Y-18592370D01*
X47996757Y-18079100D01*
X47997242Y-17523339D01*
X47785010Y-17009697D01*
X47392370Y-16616371D01*
X47200273Y-16536605D01*
X47331143Y-16482397D01*
X47400608Y-16240213D01*
X46600000Y-15439605D01*
X45799392Y-16240213D01*
X45868857Y-16482397D01*
X46009318Y-16532509D01*
X45809697Y-16614990D01*
X45416371Y-17007630D01*
X45203243Y-17520900D01*
X45202940Y-17868138D01*
X43404508Y-16069706D01*
X43544846Y-15929613D01*
X43794206Y-15329087D01*
X43794447Y-15052302D01*
X45190856Y-15052302D01*
X45218638Y-15607368D01*
X45377603Y-15991143D01*
X45619787Y-16060608D01*
X46420395Y-15260000D01*
X46779605Y-15260000D01*
X47580213Y-16060608D01*
X47822397Y-15991143D01*
X47978287Y-15554188D01*
X51045417Y-15554188D01*
X51107071Y-15789800D01*
X51607480Y-15965927D01*
X52137199Y-15937148D01*
X52492929Y-15789800D01*
X52554583Y-15554188D01*
X58665417Y-15554188D01*
X58727071Y-15789800D01*
X59227480Y-15965927D01*
X59757199Y-15937148D01*
X60112929Y-15789800D01*
X60174583Y-15554188D01*
X59420000Y-14799605D01*
X58665417Y-15554188D01*
X52554583Y-15554188D01*
X51800000Y-14799605D01*
X51045417Y-15554188D01*
X47978287Y-15554188D01*
X48009144Y-15467698D01*
X47981362Y-14912632D01*
X47822397Y-14528857D01*
X47580213Y-14459392D01*
X46779605Y-15260000D01*
X46420395Y-15260000D01*
X45619787Y-14459392D01*
X45377603Y-14528857D01*
X45190856Y-15052302D01*
X43794447Y-15052302D01*
X43794774Y-14678846D01*
X43629887Y-14279787D01*
X45799392Y-14279787D01*
X46600000Y-15080395D01*
X47252915Y-14427480D01*
X50454073Y-14427480D01*
X50482852Y-14957199D01*
X50630200Y-15312929D01*
X50865812Y-15374583D01*
X51620395Y-14620000D01*
X51979605Y-14620000D01*
X52734188Y-15374583D01*
X52969800Y-15312929D01*
X53145927Y-14812520D01*
X53125009Y-14427480D01*
X58074073Y-14427480D01*
X58102852Y-14957199D01*
X58250200Y-15312929D01*
X58485812Y-15374583D01*
X59240395Y-14620000D01*
X59599605Y-14620000D01*
X60354188Y-15374583D01*
X60589800Y-15312929D01*
X60765927Y-14812520D01*
X60737148Y-14282801D01*
X60589800Y-13927071D01*
X60354188Y-13865417D01*
X59599605Y-14620000D01*
X59240395Y-14620000D01*
X58485812Y-13865417D01*
X58250200Y-13927071D01*
X58074073Y-14427480D01*
X53125009Y-14427480D01*
X53117148Y-14282801D01*
X52969800Y-13927071D01*
X52734188Y-13865417D01*
X51979605Y-14620000D01*
X51620395Y-14620000D01*
X50865812Y-13865417D01*
X50630200Y-13927071D01*
X50454073Y-14427480D01*
X47252915Y-14427480D01*
X47400608Y-14279787D01*
X47331143Y-14037603D01*
X46807698Y-13850856D01*
X46252632Y-13878638D01*
X45868857Y-14037603D01*
X45799392Y-14279787D01*
X43629887Y-14279787D01*
X43546462Y-14077885D01*
X43155073Y-13685812D01*
X51045417Y-13685812D01*
X51800000Y-14440395D01*
X52554583Y-13685812D01*
X58665417Y-13685812D01*
X59420000Y-14440395D01*
X60174583Y-13685812D01*
X60112929Y-13450200D01*
X59612520Y-13274073D01*
X59082801Y-13302852D01*
X58727071Y-13450200D01*
X58665417Y-13685812D01*
X52554583Y-13685812D01*
X52492929Y-13450200D01*
X51992520Y-13274073D01*
X51462801Y-13302852D01*
X51107071Y-13450200D01*
X51045417Y-13685812D01*
X43155073Y-13685812D01*
X43087073Y-13617694D01*
X42486547Y-13368334D01*
X41836306Y-13367766D01*
X41235345Y-13616078D01*
X40775154Y-14075467D01*
X40525794Y-14675993D01*
X40525226Y-15326234D01*
X40773538Y-15927195D01*
X41232927Y-16387386D01*
X41813772Y-16628574D01*
X45215817Y-20030619D01*
X45203243Y-20060900D01*
X45202758Y-20616661D01*
X45233686Y-20691512D01*
X39962599Y-25962599D01*
X39797852Y-26209161D01*
X39740000Y-26500000D01*
X39740000Y-29785198D01*
X35732745Y-33792453D01*
X35426595Y-33665328D01*
X34676695Y-33664674D01*
X33983628Y-33951043D01*
X33452907Y-34480839D01*
X33165328Y-35173405D01*
X33164674Y-35923305D01*
X24984674Y-35923305D01*
X24985370Y-35127185D01*
X24661020Y-34342200D01*
X24060959Y-33741091D01*
X23276541Y-33415372D01*
X22427185Y-33414630D01*
X21642200Y-33738980D01*
X21041091Y-34339041D01*
X20715372Y-35123459D01*
X20714630Y-35972815D01*
X19510000Y-35972815D01*
X19510000Y-34814802D01*
X26339941Y-27984861D01*
X26744579Y-27985214D01*
X27198657Y-27797592D01*
X27546371Y-27450485D01*
X27734785Y-26996734D01*
X27735214Y-26505421D01*
X27547592Y-26051343D01*
X27200485Y-25703629D01*
X26746734Y-25515215D01*
X26255421Y-25514786D01*
X25801343Y-25702408D01*
X25453629Y-26049515D01*
X25265215Y-26503266D01*
X25264860Y-26910338D01*
X18212599Y-33962599D01*
X18047852Y-34209161D01*
X18037111Y-34263157D01*
X17924526Y-33697152D01*
X17599670Y-33210971D01*
X17328828Y-33030000D01*
X17599670Y-32849029D01*
X17924526Y-32362848D01*
X18038600Y-31789359D01*
X18038600Y-31730641D01*
X17924526Y-31157152D01*
X17599670Y-30670971D01*
X17328828Y-30490000D01*
X17599670Y-30309029D01*
X17924526Y-29822848D01*
X18038600Y-29249359D01*
X18038600Y-29190641D01*
X17924526Y-28617152D01*
X17599670Y-28130971D01*
X17328828Y-27950000D01*
X17599670Y-27769029D01*
X17924526Y-27282848D01*
X18038600Y-26709359D01*
X18038600Y-26650641D01*
X17924526Y-26077152D01*
X17599670Y-25590971D01*
X17328828Y-25410000D01*
X17599670Y-25229029D01*
X17924526Y-24742848D01*
X18038600Y-24169359D01*
X18038600Y-24110641D01*
X17924526Y-23537152D01*
X17599670Y-23050971D01*
X17113489Y-22726115D01*
X16540000Y-22612041D01*
X15966511Y-22726115D01*
X15480330Y-23050971D01*
X15270000Y-23365752D01*
X15059670Y-23050971D01*
X14573489Y-22726115D01*
X14000000Y-22612041D01*
X13426511Y-22726115D01*
X12940330Y-23050971D01*
X12685000Y-23433099D01*
X12685000Y-14750000D01*
X13102560Y-14750000D01*
X13102560Y-17250000D01*
X13146838Y-17485317D01*
X13285910Y-17701441D01*
X13498110Y-17846431D01*
X13750000Y-17897440D01*
X15945860Y-17897440D01*
X20799313Y-22750893D01*
X20665372Y-23073459D01*
X20664630Y-23922815D01*
X20988980Y-24707800D01*
X21589041Y-25308909D01*
X22373459Y-25634628D01*
X23222815Y-25635370D01*
X24007800Y-25311020D01*
X24608909Y-24710959D01*
X24934628Y-23926541D01*
X24935370Y-23077185D01*
X24660591Y-22412171D01*
X32374208Y-30125787D01*
X32374210Y-30125790D01*
X32533227Y-30232041D01*
X32661325Y-30317633D01*
X33000000Y-30385000D01*
X35055601Y-30385000D01*
X35188980Y-30707800D01*
X35789041Y-31308909D01*
X36573459Y-31634628D01*
X37422815Y-31635370D01*
X38207800Y-31311020D01*
X38808909Y-30710959D01*
X39134628Y-29926541D01*
X39135370Y-29077185D01*
X38811020Y-28292200D01*
X38210959Y-27691091D01*
X37426541Y-27365372D01*
X36577185Y-27364630D01*
X35792200Y-27688980D01*
X35191091Y-28289041D01*
X35055741Y-28615000D01*
X33366579Y-28615000D01*
X21662712Y-16911132D01*
X21884672Y-16376595D01*
X21884674Y-16373305D01*
X23114674Y-16373305D01*
X23401043Y-17066372D01*
X23930839Y-17597093D01*
X24623405Y-17884672D01*
X25373305Y-17885326D01*
X26066372Y-17598957D01*
X26597093Y-17069161D01*
X26884672Y-16376595D01*
X26885326Y-15626695D01*
X26598957Y-14933628D01*
X26069161Y-14402907D01*
X25376595Y-14115328D01*
X24626695Y-14114674D01*
X23933628Y-14401043D01*
X23402907Y-14930839D01*
X23115328Y-15623405D01*
X23114674Y-16373305D01*
X21884674Y-16373305D01*
X21885326Y-15626695D01*
X21598957Y-14933628D01*
X21069161Y-14402907D01*
X20376595Y-14115328D01*
X19626695Y-14114674D01*
X18933628Y-14401043D01*
X18402907Y-14930839D01*
X18115328Y-15623405D01*
X18114674Y-16373305D01*
X18401043Y-17066372D01*
X18930839Y-17597093D01*
X19623405Y-17884672D01*
X20133537Y-17885117D01*
X23888777Y-21640357D01*
X23226541Y-21365372D01*
X22377185Y-21364630D01*
X22050990Y-21499411D01*
X16897440Y-16345860D01*
X16897440Y-14750000D01*
X16853162Y-14514683D01*
X16714090Y-14298559D01*
X16501890Y-14153569D01*
X16250000Y-14102560D01*
X13750000Y-14102560D01*
X13514683Y-14146838D01*
X13298559Y-14285910D01*
X13153569Y-14498110D01*
X13102560Y-14750000D01*
X12685000Y-14750000D01*
X12685000Y-14003050D01*
X30353070Y-14003050D01*
X30353070Y-16002030D01*
X30397348Y-16237347D01*
X30536420Y-16453471D01*
X30748620Y-16598461D01*
X31000510Y-16649470D01*
X31240000Y-16649470D01*
X31240000Y-20500000D01*
X31297852Y-20790839D01*
X31462599Y-21037401D01*
X33292453Y-22867255D01*
X33165328Y-23173405D01*
X33164674Y-23923305D01*
X33451043Y-24616372D01*
X33980839Y-25147093D01*
X34673405Y-25434672D01*
X35423305Y-25435326D01*
X36116372Y-25148957D01*
X36647093Y-24619161D01*
X36934672Y-23926595D01*
X36935326Y-23176695D01*
X36648957Y-22483628D01*
X36119161Y-21952907D01*
X35426595Y-21665328D01*
X34676695Y-21664674D01*
X34367311Y-21792509D01*
X32760000Y-20185198D01*
X32760000Y-16649470D01*
X32999490Y-16649470D01*
X33234807Y-16605192D01*
X33450931Y-16466120D01*
X33595921Y-16253920D01*
X33646930Y-16002030D01*
X33646930Y-14003050D01*
X33602652Y-13767733D01*
X33463580Y-13551609D01*
X33251380Y-13406619D01*
X32999490Y-13355610D01*
X31000510Y-13355610D01*
X30765193Y-13399888D01*
X30549069Y-13538960D01*
X30404079Y-13751160D01*
X30353070Y-14003050D01*
X12685000Y-14003050D01*
X12685000Y-12685000D01*
X61315000Y-12685000D01*
X61315000Y-20544531D01*
G36*
X59667000Y-46873000D02*
X59687000Y-46873000D01*
X59687000Y-47127000D01*
X59667000Y-47127000D01*
X59667000Y-47147000D01*
X59413000Y-47147000D01*
X59413000Y-47127000D01*
X59393000Y-47127000D01*
X59393000Y-46873000D01*
X59413000Y-46873000D01*
X59413000Y-46853000D01*
X59667000Y-46853000D01*
X59667000Y-46873000D01*
X59667000Y-46873000D01*
G37*
X59667000Y-46873000D02*
X59687000Y-46873000D01*
X59687000Y-47127000D01*
X59667000Y-47127000D01*
X59667000Y-47147000D01*
X59413000Y-47147000D01*
X59413000Y-47127000D01*
X59393000Y-47127000D01*
X59393000Y-46873000D01*
X59413000Y-46873000D01*
X59413000Y-46853000D01*
X59667000Y-46853000D01*
X59667000Y-46873000D01*
G36*
X16667000Y-44333000D02*
X16687000Y-44333000D01*
X16687000Y-44587000D01*
X16667000Y-44587000D01*
X16667000Y-44607000D01*
X16413000Y-44607000D01*
X16413000Y-44587000D01*
X16393000Y-44587000D01*
X16393000Y-44333000D01*
X16413000Y-44333000D01*
X16413000Y-44313000D01*
X16667000Y-44313000D01*
X16667000Y-44333000D01*
X16667000Y-44333000D01*
G37*
X16667000Y-44333000D02*
X16687000Y-44333000D01*
X16687000Y-44587000D01*
X16667000Y-44587000D01*
X16667000Y-44607000D01*
X16413000Y-44607000D01*
X16413000Y-44587000D01*
X16393000Y-44587000D01*
X16393000Y-44333000D01*
X16413000Y-44333000D01*
X16413000Y-44313000D01*
X16667000Y-44313000D01*
X16667000Y-44333000D01*
M02*
