G04 #@! TF.FileFunction,Legend,Bot*
%FSLAX46Y46*%
G04 Gerber Fmt 4.6, Leading zero omitted, Abs format (unit mm)*
G04 Created by KiCad (PCBNEW 4.0.2-stable) date 2016 May 07, Saturday 23:02:04*
%MOMM*%
G01*
G04 APERTURE LIST*
%ADD10C,1.000000*%
%ADD11C,0.150000*%
%ADD12C,0.200000*%
%ADD13C,0.200660*%
%ADD14C,0.304800*%
G04 APERTURE END LIST*
D10*
D11*
X60250000Y-98200000D02*
X56950000Y-98200000D01*
X56950000Y-98200000D02*
X56950000Y-82800000D01*
X56950000Y-82800000D02*
X60300000Y-82800000D01*
X76550000Y-91850000D02*
X76550000Y-98200000D01*
X76550000Y-98200000D02*
X62000000Y-98200000D01*
X76550000Y-89100000D02*
X76550000Y-82800000D01*
X76550000Y-82800000D02*
X61800000Y-82800000D01*
X76550000Y-82850000D02*
X76550000Y-89100000D01*
X61100000Y-94700000D02*
X61100000Y-92250000D01*
X61100000Y-86300000D02*
X61100000Y-88800000D01*
X71700000Y-96550000D02*
X69200000Y-96550000D01*
X72600000Y-90550000D02*
X73400000Y-90550000D01*
X69200000Y-84550000D02*
X71700000Y-84550000D01*
X65800000Y-90550000D02*
X64300000Y-90550000D01*
X64300000Y-90550000D02*
X59700000Y-88050000D01*
X65800000Y-94150000D02*
X72600000Y-94150000D01*
X65800000Y-90550000D02*
X65800000Y-94150000D01*
X72600000Y-90550000D02*
X72600000Y-94150000D01*
X69200000Y-84550000D02*
X69200000Y-88750000D01*
X69200000Y-92350000D02*
X69200000Y-96550000D01*
X67200000Y-92350000D02*
X71200000Y-88750000D01*
X71200000Y-92350000D02*
X71200000Y-88750000D01*
X71200000Y-88750000D02*
X67200000Y-88750000D01*
X67200000Y-88750000D02*
X67200000Y-92350000D01*
X67200000Y-92350000D02*
X71200000Y-92350000D01*
X85525000Y-61000000D02*
X85525000Y-59000000D01*
X88475000Y-59000000D02*
X88475000Y-61000000D01*
X92470000Y-59690000D02*
X92470000Y-67310000D01*
X89930000Y-59690000D02*
X89930000Y-67310000D01*
X89650000Y-56870000D02*
X89650000Y-58420000D01*
X92470000Y-67310000D02*
X89930000Y-67310000D01*
X89930000Y-59690000D02*
X92470000Y-59690000D01*
X92750000Y-58420000D02*
X92750000Y-56870000D01*
X92750000Y-56870000D02*
X89650000Y-56870000D01*
X54770000Y-90480000D02*
X54770000Y-95560000D01*
X54770000Y-95560000D02*
X52230000Y-95560000D01*
X52230000Y-95560000D02*
X52230000Y-90480000D01*
X51950000Y-87660000D02*
X51950000Y-89210000D01*
X52230000Y-90480000D02*
X54770000Y-90480000D01*
X55050000Y-89210000D02*
X55050000Y-87660000D01*
X55050000Y-87660000D02*
X51950000Y-87660000D01*
X59770000Y-67020000D02*
X59770000Y-74640000D01*
X57230000Y-67020000D02*
X57230000Y-74640000D01*
X56950000Y-64200000D02*
X56950000Y-65750000D01*
X59770000Y-74640000D02*
X57230000Y-74640000D01*
X57230000Y-67020000D02*
X59770000Y-67020000D01*
X60050000Y-65750000D02*
X60050000Y-64200000D01*
X60050000Y-64200000D02*
X56950000Y-64200000D01*
X63730000Y-56230000D02*
X63730000Y-51150000D01*
X63730000Y-51150000D02*
X66270000Y-51150000D01*
X66270000Y-51150000D02*
X66270000Y-56230000D01*
X66550000Y-59050000D02*
X66550000Y-57500000D01*
X66270000Y-56230000D02*
X63730000Y-56230000D01*
X63450000Y-57500000D02*
X63450000Y-59050000D01*
X63450000Y-59050000D02*
X66550000Y-59050000D01*
X68040000Y-75750000D02*
G75*
G03X68040000Y-75750000I-2540000J0D01*
G01*
X61690000Y-79560000D02*
X69310000Y-79560000D01*
X69310000Y-79560000D02*
X69310000Y-71940000D01*
X69310000Y-71940000D02*
X61690000Y-71940000D01*
X61690000Y-79560000D02*
X61690000Y-71940000D01*
X50700000Y-56340000D02*
X50700000Y-54790000D01*
X50980000Y-50980000D02*
X50980000Y-53520000D01*
X50980000Y-53520000D02*
X53520000Y-53520000D01*
X53800000Y-54790000D02*
X53800000Y-56340000D01*
X53800000Y-56340000D02*
X50700000Y-56340000D01*
X53520000Y-53520000D02*
X53520000Y-50980000D01*
X53520000Y-50980000D02*
X50980000Y-50980000D01*
D12*
X61200000Y-51250000D02*
X56500000Y-51250000D01*
X61500000Y-51500000D02*
X61500000Y-56250000D01*
X61200000Y-51250000D02*
X61500000Y-51500000D01*
X56500000Y-56250000D02*
X61500000Y-56250000D01*
X56500640Y-51250640D02*
X56500640Y-56249360D01*
D13*
X69200420Y-50500000D02*
X69200420Y-63799440D01*
X69200420Y-63799440D02*
X82799580Y-63799440D01*
X82799580Y-63799440D02*
X82799580Y-50500000D01*
X82799580Y-50500000D02*
X69200420Y-50500000D01*
D11*
X67811905Y-96752381D02*
X67811905Y-97561905D01*
X67764286Y-97657143D01*
X67716667Y-97704762D01*
X67621429Y-97752381D01*
X67430952Y-97752381D01*
X67335714Y-97704762D01*
X67288095Y-97657143D01*
X67240476Y-97561905D01*
X67240476Y-96752381D01*
X66240476Y-97752381D02*
X66811905Y-97752381D01*
X66526191Y-97752381D02*
X66526191Y-96752381D01*
X66621429Y-96895238D01*
X66716667Y-96990476D01*
X66811905Y-97038095D01*
X84657143Y-59833334D02*
X84704762Y-59785715D01*
X84752381Y-59642858D01*
X84752381Y-59547620D01*
X84704762Y-59404762D01*
X84609524Y-59309524D01*
X84514286Y-59261905D01*
X84323810Y-59214286D01*
X84180952Y-59214286D01*
X83990476Y-59261905D01*
X83895238Y-59309524D01*
X83800000Y-59404762D01*
X83752381Y-59547620D01*
X83752381Y-59642858D01*
X83800000Y-59785715D01*
X83847619Y-59833334D01*
X84752381Y-60785715D02*
X84752381Y-60214286D01*
X84752381Y-60500000D02*
X83752381Y-60500000D01*
X83895238Y-60404762D01*
X83990476Y-60309524D01*
X84038095Y-60214286D01*
X91938095Y-53772381D02*
X91938095Y-52772381D01*
X91557142Y-52772381D01*
X91461904Y-52820000D01*
X91414285Y-52867619D01*
X91366666Y-52962857D01*
X91366666Y-53105714D01*
X91414285Y-53200952D01*
X91461904Y-53248571D01*
X91557142Y-53296190D01*
X91938095Y-53296190D01*
X90414285Y-53772381D02*
X90985714Y-53772381D01*
X90700000Y-53772381D02*
X90700000Y-52772381D01*
X90795238Y-52915238D01*
X90890476Y-53010476D01*
X90985714Y-53058095D01*
X51452381Y-87711905D02*
X50452381Y-87711905D01*
X50452381Y-88092858D01*
X50500000Y-88188096D01*
X50547619Y-88235715D01*
X50642857Y-88283334D01*
X50785714Y-88283334D01*
X50880952Y-88235715D01*
X50928571Y-88188096D01*
X50976190Y-88092858D01*
X50976190Y-87711905D01*
X50547619Y-88664286D02*
X50500000Y-88711905D01*
X50452381Y-88807143D01*
X50452381Y-89045239D01*
X50500000Y-89140477D01*
X50547619Y-89188096D01*
X50642857Y-89235715D01*
X50738095Y-89235715D01*
X50880952Y-89188096D01*
X51452381Y-88616667D01*
X51452381Y-89235715D01*
X56588095Y-66152381D02*
X56588095Y-65152381D01*
X56207142Y-65152381D01*
X56111904Y-65200000D01*
X56064285Y-65247619D01*
X56016666Y-65342857D01*
X56016666Y-65485714D01*
X56064285Y-65580952D01*
X56111904Y-65628571D01*
X56207142Y-65676190D01*
X56588095Y-65676190D01*
X55683333Y-65152381D02*
X55064285Y-65152381D01*
X55397619Y-65533333D01*
X55254761Y-65533333D01*
X55159523Y-65580952D01*
X55111904Y-65628571D01*
X55064285Y-65723810D01*
X55064285Y-65961905D01*
X55111904Y-66057143D01*
X55159523Y-66104762D01*
X55254761Y-66152381D01*
X55540476Y-66152381D01*
X55635714Y-66104762D01*
X55683333Y-66057143D01*
X62988095Y-58552381D02*
X62988095Y-57552381D01*
X62607142Y-57552381D01*
X62511904Y-57600000D01*
X62464285Y-57647619D01*
X62416666Y-57742857D01*
X62416666Y-57885714D01*
X62464285Y-57980952D01*
X62511904Y-58028571D01*
X62607142Y-58076190D01*
X62988095Y-58076190D01*
X61559523Y-57552381D02*
X61750000Y-57552381D01*
X61845238Y-57600000D01*
X61892857Y-57647619D01*
X61988095Y-57790476D01*
X62035714Y-57980952D01*
X62035714Y-58361905D01*
X61988095Y-58457143D01*
X61940476Y-58504762D01*
X61845238Y-58552381D01*
X61654761Y-58552381D01*
X61559523Y-58504762D01*
X61511904Y-58457143D01*
X61464285Y-58361905D01*
X61464285Y-58123810D01*
X61511904Y-58028571D01*
X61559523Y-57980952D01*
X61654761Y-57933333D01*
X61845238Y-57933333D01*
X61940476Y-57980952D01*
X61988095Y-58028571D01*
X62035714Y-58123810D01*
X66833333Y-76916762D02*
X66690476Y-76964381D01*
X66452380Y-76964381D01*
X66357142Y-76916762D01*
X66309523Y-76869143D01*
X66261904Y-76773905D01*
X66261904Y-76678667D01*
X66309523Y-76583429D01*
X66357142Y-76535810D01*
X66452380Y-76488190D01*
X66642857Y-76440571D01*
X66738095Y-76392952D01*
X66785714Y-76345333D01*
X66833333Y-76250095D01*
X66833333Y-76154857D01*
X66785714Y-76059619D01*
X66738095Y-76012000D01*
X66642857Y-75964381D01*
X66404761Y-75964381D01*
X66261904Y-76012000D01*
X65928571Y-75964381D02*
X65690476Y-76964381D01*
X65499999Y-76250095D01*
X65309523Y-76964381D01*
X65071428Y-75964381D01*
X64166666Y-76964381D02*
X64738095Y-76964381D01*
X64452381Y-76964381D02*
X64452381Y-75964381D01*
X64547619Y-76107238D01*
X64642857Y-76202476D01*
X64738095Y-76250095D01*
X57754762Y-53456667D02*
X57802381Y-53599524D01*
X57802381Y-53837620D01*
X57754762Y-53932858D01*
X57707143Y-53980477D01*
X57611905Y-54028096D01*
X57516667Y-54028096D01*
X57421429Y-53980477D01*
X57373810Y-53932858D01*
X57326190Y-53837620D01*
X57278571Y-53647143D01*
X57230952Y-53551905D01*
X57183333Y-53504286D01*
X57088095Y-53456667D01*
X56992857Y-53456667D01*
X56897619Y-53504286D01*
X56850000Y-53551905D01*
X56802381Y-53647143D01*
X56802381Y-53885239D01*
X56850000Y-54028096D01*
X56802381Y-54361429D02*
X57802381Y-54599524D01*
X57088095Y-54790001D01*
X57802381Y-54980477D01*
X56802381Y-55218572D01*
X56897619Y-55551905D02*
X56850000Y-55599524D01*
X56802381Y-55694762D01*
X56802381Y-55932858D01*
X56850000Y-56028096D01*
X56897619Y-56075715D01*
X56992857Y-56123334D01*
X57088095Y-56123334D01*
X57230952Y-56075715D01*
X57802381Y-55504286D01*
X57802381Y-56123334D01*
D12*
X54052381Y-52988095D02*
X54861905Y-52988095D01*
X54957143Y-53035714D01*
X55004762Y-53083333D01*
X55052381Y-53178571D01*
X55052381Y-53369048D01*
X55004762Y-53464286D01*
X54957143Y-53511905D01*
X54861905Y-53559524D01*
X54052381Y-53559524D01*
X54147619Y-53988095D02*
X54100000Y-54035714D01*
X54052381Y-54130952D01*
X54052381Y-54369048D01*
X54100000Y-54464286D01*
X54147619Y-54511905D01*
X54242857Y-54559524D01*
X54338095Y-54559524D01*
X54480952Y-54511905D01*
X55052381Y-53940476D01*
X55052381Y-54559524D01*
X63852381Y-50465476D02*
X64852381Y-50703571D01*
X64138095Y-50894048D01*
X64852381Y-51084524D01*
X63852381Y-51322619D01*
X64804762Y-51655952D02*
X64852381Y-51798809D01*
X64852381Y-52036905D01*
X64804762Y-52132143D01*
X64757143Y-52179762D01*
X64661905Y-52227381D01*
X64566667Y-52227381D01*
X64471429Y-52179762D01*
X64423810Y-52132143D01*
X64376190Y-52036905D01*
X64328571Y-51846428D01*
X64280952Y-51751190D01*
X64233333Y-51703571D01*
X64138095Y-51655952D01*
X64042857Y-51655952D01*
X63947619Y-51703571D01*
X63900000Y-51751190D01*
X63852381Y-51846428D01*
X63852381Y-52084524D01*
X63900000Y-52227381D01*
X63947619Y-52608333D02*
X63900000Y-52655952D01*
X63852381Y-52751190D01*
X63852381Y-52989286D01*
X63900000Y-53084524D01*
X63947619Y-53132143D01*
X64042857Y-53179762D01*
X64138095Y-53179762D01*
X64280952Y-53132143D01*
X64852381Y-52560714D01*
X64852381Y-53179762D01*
X64280952Y-53751190D02*
X64233333Y-53655952D01*
X64185714Y-53608333D01*
X64090476Y-53560714D01*
X64042857Y-53560714D01*
X63947619Y-53608333D01*
X63900000Y-53655952D01*
X63852381Y-53751190D01*
X63852381Y-53941667D01*
X63900000Y-54036905D01*
X63947619Y-54084524D01*
X64042857Y-54132143D01*
X64090476Y-54132143D01*
X64185714Y-54084524D01*
X64233333Y-54036905D01*
X64280952Y-53941667D01*
X64280952Y-53751190D01*
X64328571Y-53655952D01*
X64376190Y-53608333D01*
X64471429Y-53560714D01*
X64661905Y-53560714D01*
X64757143Y-53608333D01*
X64804762Y-53655952D01*
X64852381Y-53751190D01*
X64852381Y-53941667D01*
X64804762Y-54036905D01*
X64757143Y-54084524D01*
X64661905Y-54132143D01*
X64471429Y-54132143D01*
X64376190Y-54084524D01*
X64328571Y-54036905D01*
X64280952Y-53941667D01*
X64852381Y-55084524D02*
X64852381Y-54513095D01*
X64852381Y-54798809D02*
X63852381Y-54798809D01*
X63995238Y-54703571D01*
X64090476Y-54608333D01*
X64138095Y-54513095D01*
X63947619Y-55465476D02*
X63900000Y-55513095D01*
X63852381Y-55608333D01*
X63852381Y-55846429D01*
X63900000Y-55941667D01*
X63947619Y-55989286D01*
X64042857Y-56036905D01*
X64138095Y-56036905D01*
X64280952Y-55989286D01*
X64852381Y-55417857D01*
X64852381Y-56036905D01*
X64328571Y-56798810D02*
X64376190Y-56941667D01*
X64423810Y-56989286D01*
X64519048Y-57036905D01*
X64661905Y-57036905D01*
X64757143Y-56989286D01*
X64804762Y-56941667D01*
X64852381Y-56846429D01*
X64852381Y-56465476D01*
X63852381Y-56465476D01*
X63852381Y-56798810D01*
X63900000Y-56894048D01*
X63947619Y-56941667D01*
X64042857Y-56989286D01*
X64138095Y-56989286D01*
X64233333Y-56941667D01*
X64280952Y-56894048D01*
X64328571Y-56798810D01*
X64328571Y-56465476D01*
D14*
X76492760Y-55868109D02*
X76492760Y-56956680D01*
X76565332Y-57174394D01*
X76710475Y-57319537D01*
X76928189Y-57392109D01*
X77073332Y-57392109D01*
X74968760Y-57392109D02*
X75839617Y-57392109D01*
X75404189Y-57392109D02*
X75404189Y-55868109D01*
X75549332Y-56085823D01*
X75694474Y-56230966D01*
X75839617Y-56303537D01*
M02*
