G04 #@! TF.FileFunction,Copper,L2,Bot,Signal*
%FSLAX46Y46*%
G04 Gerber Fmt 4.6, Leading zero omitted, Abs format (unit mm)*
G04 Created by KiCad (PCBNEW 4.0.2-stable) date 2016 May 07, Saturday 23:02:04*
%MOMM*%
G01*
G04 APERTURE LIST*
%ADD10C,1.000000*%
%ADD11C,2.500000*%
%ADD12C,3.000000*%
%ADD13R,2.500000X2.000000*%
%ADD14C,1.998980*%
%ADD15R,1.998980X1.998980*%
%ADD16R,2.032000X1.727200*%
%ADD17O,2.032000X1.727200*%
%ADD18R,1.727200X1.727200*%
%ADD19O,1.727200X1.727200*%
%ADD20C,1.397000*%
%ADD21R,2.032000X2.032000*%
%ADD22O,2.032000X2.032000*%
%ADD23R,1.501140X0.899160*%
%ADD24R,0.599440X1.049020*%
%ADD25R,1.049020X1.501140*%
%ADD26C,1.524000*%
%ADD27C,0.250000*%
G04 APERTURE END LIST*
D10*
D11*
X73300000Y-96550000D03*
D12*
X61100000Y-96550000D03*
X61050000Y-84500000D03*
D11*
X73300000Y-84550000D03*
D12*
X75250000Y-90500000D03*
D13*
X87000000Y-58000000D03*
X87000000Y-62000000D03*
D14*
X79750000Y-95750000D03*
D15*
X79750000Y-85590000D03*
D16*
X91200000Y-58420000D03*
D17*
X91200000Y-60960000D03*
X91200000Y-63500000D03*
X91200000Y-66040000D03*
D16*
X53500000Y-89210000D03*
D17*
X53500000Y-91750000D03*
X53500000Y-94290000D03*
D16*
X58500000Y-65750000D03*
D17*
X58500000Y-68290000D03*
X58500000Y-70830000D03*
X58500000Y-73370000D03*
D18*
X97790000Y-58420000D03*
D19*
X95250000Y-58420000D03*
X97790000Y-60960000D03*
X95250000Y-60960000D03*
X97790000Y-63500000D03*
X95250000Y-63500000D03*
X97790000Y-66040000D03*
X95250000Y-66040000D03*
X97790000Y-68580000D03*
X95250000Y-68580000D03*
X97790000Y-71120000D03*
X95250000Y-71120000D03*
X97790000Y-73660000D03*
X95250000Y-73660000D03*
X97790000Y-76200000D03*
X95250000Y-76200000D03*
X97790000Y-78740000D03*
X95250000Y-78740000D03*
X97790000Y-81280000D03*
X95250000Y-81280000D03*
D18*
X54610000Y-58420000D03*
D19*
X52070000Y-58420000D03*
X54610000Y-60960000D03*
X52070000Y-60960000D03*
X54610000Y-63500000D03*
X52070000Y-63500000D03*
X54610000Y-66040000D03*
X52070000Y-66040000D03*
X54610000Y-68580000D03*
X52070000Y-68580000D03*
X54610000Y-71120000D03*
X52070000Y-71120000D03*
X54610000Y-73660000D03*
X52070000Y-73660000D03*
X54610000Y-76200000D03*
X52070000Y-76200000D03*
X54610000Y-78740000D03*
X52070000Y-78740000D03*
X54610000Y-81280000D03*
X52070000Y-81280000D03*
D16*
X65000000Y-57500000D03*
D17*
X65000000Y-54960000D03*
X65000000Y-52420000D03*
D14*
X72060000Y-68300000D03*
X61900000Y-68300000D03*
X79700000Y-81500000D03*
X79700000Y-71340000D03*
D20*
X69310000Y-78290000D03*
X69310000Y-73210000D03*
X61690000Y-78290000D03*
X61690000Y-73210000D03*
D21*
X52250000Y-54790000D03*
D22*
X52250000Y-52250000D03*
D23*
X56500640Y-55350200D03*
X56500640Y-52149800D03*
X61499360Y-52149800D03*
X61499360Y-55350200D03*
D24*
X72830080Y-59969120D03*
X73929900Y-59969120D03*
X75029720Y-59969120D03*
X76129540Y-59969120D03*
X77229360Y-59969120D03*
X78329180Y-59969120D03*
X79429000Y-59969120D03*
X80528820Y-59969120D03*
D25*
X69274080Y-62498960D03*
X82725920Y-62498960D03*
X69274080Y-54099180D03*
X82725920Y-54099180D03*
D26*
X74350000Y-76200000D03*
X71810000Y-76200000D03*
X76890000Y-76200000D03*
D27*
X76129540Y-59969120D02*
X76129540Y-59194610D01*
X77924150Y-57400000D02*
X83650000Y-57400000D01*
X76129540Y-59194610D02*
X77924150Y-57400000D01*
X83650000Y-57400000D02*
X84900000Y-58650000D01*
X84900000Y-58650000D02*
X84900000Y-61400000D01*
X84900000Y-61400000D02*
X85500000Y-62000000D01*
X85500000Y-62000000D02*
X87000000Y-62000000D01*
X87000000Y-62000000D02*
X90250000Y-62000000D01*
X90250000Y-62000000D02*
X91250000Y-61000000D01*
X75299990Y-58299990D02*
X76129540Y-59129540D01*
X76129540Y-59129540D02*
X76129540Y-59969120D01*
X58500000Y-65750000D02*
X58652400Y-65750000D01*
X58652400Y-65750000D02*
X65152400Y-59250000D01*
X71363590Y-59250000D02*
X72313600Y-58299990D01*
X65152400Y-59250000D02*
X71363590Y-59250000D01*
X72313600Y-58299990D02*
X75299990Y-58299990D01*
X91250000Y-58460000D02*
X92750000Y-58460000D01*
X92750000Y-58460000D02*
X95250000Y-60960000D01*
X82725920Y-62498960D02*
X82725920Y-68314080D01*
X82725920Y-68314080D02*
X79700000Y-71340000D01*
X87000000Y-58000000D02*
X90790000Y-58000000D01*
X90790000Y-58000000D02*
X91250000Y-58460000D01*
X82725920Y-54099180D02*
X82725920Y-54325240D01*
X82725920Y-54325240D02*
X86400680Y-58000000D01*
X86400680Y-58000000D02*
X87000000Y-58000000D01*
X78329180Y-59969120D02*
X78329180Y-59194610D01*
X78329180Y-59194610D02*
X78623790Y-58900000D01*
X78623790Y-58900000D02*
X82200000Y-58900000D01*
X82200000Y-58900000D02*
X82725920Y-59425920D01*
X82725920Y-59425920D02*
X82725920Y-62498960D01*
X69274080Y-54099180D02*
X78400000Y-54099180D01*
X78400000Y-54099180D02*
X82725920Y-54099180D01*
X78329180Y-54170000D02*
X78400000Y-54099180D01*
X65000000Y-52420000D02*
X67820960Y-52420000D01*
X67820960Y-52420000D02*
X69274080Y-53873120D01*
X69274080Y-53873120D02*
X69274080Y-54099180D01*
X60148570Y-51100000D02*
X54100000Y-51100000D01*
X54100000Y-51100000D02*
X53400000Y-51100000D01*
X54100000Y-54800000D02*
X54100000Y-51100000D01*
X53400000Y-51100000D02*
X52250000Y-52250000D01*
X61198370Y-52149800D02*
X60148570Y-51100000D01*
X54100000Y-54800000D02*
X54100000Y-56390000D01*
X54100000Y-56390000D02*
X52070000Y-58420000D01*
X61499360Y-52149800D02*
X61198370Y-52149800D01*
X65000000Y-52420000D02*
X61769560Y-52420000D01*
X61769560Y-52420000D02*
X61499360Y-52149800D01*
X52070000Y-78740000D02*
X53310000Y-77500000D01*
X53310000Y-77500000D02*
X60500000Y-77500000D01*
X60500000Y-77500000D02*
X73929900Y-64070100D01*
X73929900Y-64070100D02*
X73929900Y-60743630D01*
X73929900Y-60743630D02*
X73929900Y-59969120D01*
X52070000Y-73660000D02*
X53310000Y-74900000D01*
X61250000Y-70850000D02*
X63700000Y-70850000D01*
X53310000Y-74900000D02*
X56200000Y-74900000D01*
X71750000Y-62800000D02*
X71750000Y-59500000D01*
X71750000Y-59500000D02*
X72500000Y-58750000D01*
X72500000Y-58750000D02*
X74750000Y-58750000D01*
X56200000Y-74900000D02*
X56800000Y-75500000D01*
X56800000Y-75500000D02*
X59400000Y-75500000D01*
X59400000Y-75500000D02*
X60400000Y-74500000D01*
X60400000Y-74500000D02*
X60400000Y-71700000D01*
X60400000Y-71700000D02*
X61250000Y-70850000D01*
X63700000Y-70850000D02*
X71750000Y-62800000D01*
X74750000Y-58750000D02*
X75029720Y-59029720D01*
X75029720Y-59029720D02*
X75029720Y-59969120D01*
X92848601Y-74848601D02*
X92900000Y-74900000D01*
X92900000Y-74900000D02*
X93000000Y-75000000D01*
X97790000Y-73660000D02*
X96550000Y-74900000D01*
X96550000Y-74900000D02*
X92900000Y-74900000D01*
X84250000Y-66250000D02*
X92848601Y-74848601D01*
X84250000Y-59500000D02*
X84250000Y-66250000D01*
X83000000Y-58250000D02*
X84250000Y-59500000D01*
X78173970Y-58250000D02*
X83000000Y-58250000D01*
X77229360Y-59969120D02*
X77229360Y-59194610D01*
X77229360Y-59194610D02*
X78173970Y-58250000D01*
X65000000Y-80000000D02*
X79429000Y-65571000D01*
X79429000Y-65571000D02*
X79429000Y-59969120D01*
X50750000Y-80000000D02*
X65000000Y-80000000D01*
X50500000Y-79750000D02*
X50750000Y-80000000D01*
X52070000Y-71120000D02*
X50500000Y-72690000D01*
X50500000Y-72690000D02*
X50500000Y-79750000D01*
X71810000Y-76200000D02*
X71810000Y-77277630D01*
X71810000Y-77277630D02*
X70600000Y-78487630D01*
X70600000Y-78487630D02*
X70600000Y-93850000D01*
X70600000Y-93850000D02*
X73300000Y-96550000D01*
X99500000Y-84200000D02*
X98110000Y-85590000D01*
X98110000Y-85590000D02*
X79750000Y-85590000D01*
X99500000Y-57400000D02*
X99500000Y-84200000D01*
X98900000Y-56800000D02*
X99500000Y-57400000D01*
X96900000Y-56800000D02*
X98900000Y-56800000D01*
X96468601Y-57231399D02*
X96900000Y-56800000D01*
X95250000Y-58420000D02*
X96438601Y-57231399D01*
X96438601Y-57231399D02*
X96468601Y-57231399D01*
X63000000Y-54800000D02*
X63000000Y-55652400D01*
X63000000Y-55652400D02*
X64847600Y-57500000D01*
X64847600Y-57500000D02*
X65000000Y-57500000D01*
X62400000Y-54200000D02*
X63000000Y-54800000D01*
X58651410Y-54200000D02*
X62400000Y-54200000D01*
X56500640Y-55350200D02*
X57501210Y-55350200D01*
X57501210Y-55350200D02*
X58651410Y-54200000D01*
X50500000Y-57806000D02*
X50500000Y-59390000D01*
X50500000Y-59390000D02*
X52070000Y-60960000D01*
X52250000Y-54790000D02*
X52250000Y-56056000D01*
X52250000Y-56056000D02*
X50500000Y-57806000D01*
X56700000Y-62250000D02*
X61499360Y-57450640D01*
X61499360Y-57450640D02*
X61499360Y-55350200D01*
X53320000Y-62250000D02*
X56700000Y-62250000D01*
X52070000Y-63500000D02*
X53320000Y-62250000D01*
X58751410Y-53400000D02*
X63287600Y-53400000D01*
X63287600Y-53400000D02*
X64847600Y-54960000D01*
X64847600Y-54960000D02*
X65000000Y-54960000D01*
X56500640Y-52149800D02*
X57501210Y-52149800D01*
X57501210Y-52149800D02*
X58751410Y-53400000D01*
M02*
