G04 #@! TF.GenerationSoftware,KiCad,Pcbnew,(5.1.10-1-10_14)*
G04 #@! TF.CreationDate,2021-11-12T14:23:35+00:00*
G04 #@! TF.ProjectId,acnode-doorbot,61636e6f-6465-42d6-946f-6f72626f742e,rev?*
G04 #@! TF.SameCoordinates,Original*
G04 #@! TF.FileFunction,Copper,L1,Top*
G04 #@! TF.FilePolarity,Positive*
%FSLAX46Y46*%
G04 Gerber Fmt 4.6, Leading zero omitted, Abs format (unit mm)*
G04 Created by KiCad (PCBNEW (5.1.10-1-10_14)) date 2021-11-12 14:23:35*
%MOMM*%
%LPD*%
G01*
G04 APERTURE LIST*
G04 #@! TA.AperFunction,ComponentPad*
%ADD10C,1.600000*%
G04 #@! TD*
G04 #@! TA.AperFunction,ComponentPad*
%ADD11R,2.200000X2.200000*%
G04 #@! TD*
G04 #@! TA.AperFunction,ComponentPad*
%ADD12O,2.200000X2.200000*%
G04 #@! TD*
G04 #@! TA.AperFunction,ComponentPad*
%ADD13R,1.700000X1.700000*%
G04 #@! TD*
G04 #@! TA.AperFunction,ComponentPad*
%ADD14O,1.700000X1.700000*%
G04 #@! TD*
G04 #@! TA.AperFunction,ComponentPad*
%ADD15R,2.600000X2.600000*%
G04 #@! TD*
G04 #@! TA.AperFunction,ComponentPad*
%ADD16C,2.600000*%
G04 #@! TD*
G04 #@! TA.AperFunction,ComponentPad*
%ADD17C,2.200000*%
G04 #@! TD*
G04 #@! TA.AperFunction,ComponentPad*
%ADD18R,2.500000X2.500000*%
G04 #@! TD*
G04 #@! TA.AperFunction,ComponentPad*
%ADD19C,2.500000*%
G04 #@! TD*
G04 #@! TA.AperFunction,ComponentPad*
%ADD20R,1.500000X1.500000*%
G04 #@! TD*
G04 #@! TA.AperFunction,ComponentPad*
%ADD21C,1.500000*%
G04 #@! TD*
G04 #@! TA.AperFunction,ComponentPad*
%ADD22C,2.000000*%
G04 #@! TD*
G04 #@! TA.AperFunction,SMDPad,CuDef*
%ADD23R,1.450000X2.000000*%
G04 #@! TD*
G04 #@! TA.AperFunction,SMDPad,CuDef*
%ADD24R,0.800000X1.500000*%
G04 #@! TD*
G04 #@! TA.AperFunction,ComponentPad*
%ADD25R,2.100000X2.100000*%
G04 #@! TD*
G04 #@! TA.AperFunction,ComponentPad*
%ADD26C,2.100000*%
G04 #@! TD*
G04 #@! TA.AperFunction,ComponentPad*
%ADD27C,3.000000*%
G04 #@! TD*
G04 #@! TA.AperFunction,ComponentPad*
%ADD28O,1.050000X1.500000*%
G04 #@! TD*
G04 #@! TA.AperFunction,ComponentPad*
%ADD29R,1.050000X1.500000*%
G04 #@! TD*
G04 #@! TA.AperFunction,ComponentPad*
%ADD30O,1.600000X1.600000*%
G04 #@! TD*
G04 #@! TA.AperFunction,ComponentPad*
%ADD31R,1.905000X2.000000*%
G04 #@! TD*
G04 #@! TA.AperFunction,ComponentPad*
%ADD32O,1.905000X2.000000*%
G04 #@! TD*
G04 #@! TA.AperFunction,ViaPad*
%ADD33C,0.800000*%
G04 #@! TD*
G04 #@! TA.AperFunction,Conductor*
%ADD34C,0.250000*%
G04 #@! TD*
G04 #@! TA.AperFunction,Conductor*
%ADD35C,0.152400*%
G04 #@! TD*
G04 #@! TA.AperFunction,Conductor*
%ADD36C,0.406400*%
G04 #@! TD*
G04 #@! TA.AperFunction,Conductor*
%ADD37C,0.254000*%
G04 #@! TD*
G04 #@! TA.AperFunction,Conductor*
%ADD38C,0.100000*%
G04 #@! TD*
G04 APERTURE END LIST*
D10*
X76200000Y-144145000D03*
X78700000Y-144145000D03*
X83860000Y-144145000D03*
X86360000Y-144145000D03*
D11*
X92710000Y-154940000D03*
D12*
X92710000Y-144780000D03*
X86360000Y-151130000D03*
D11*
X76200000Y-151130000D03*
D13*
X52070000Y-41910000D03*
D14*
X54610000Y-41910000D03*
X52070000Y-44450000D03*
X54610000Y-44450000D03*
X52070000Y-46990000D03*
X54610000Y-46990000D03*
X52070000Y-49530000D03*
X54610000Y-49530000D03*
X52070000Y-52070000D03*
X54610000Y-52070000D03*
X52070000Y-54610000D03*
X54610000Y-54610000D03*
X52070000Y-57150000D03*
X54610000Y-57150000D03*
X52070000Y-59690000D03*
X54610000Y-59690000D03*
X52070000Y-62230000D03*
X54610000Y-62230000D03*
X52070000Y-64770000D03*
X54610000Y-64770000D03*
X54610000Y-128270000D03*
X52070000Y-128270000D03*
X54610000Y-125730000D03*
X52070000Y-125730000D03*
X54610000Y-123190000D03*
X52070000Y-123190000D03*
X54610000Y-120650000D03*
X52070000Y-120650000D03*
X54610000Y-118110000D03*
X52070000Y-118110000D03*
X54610000Y-115570000D03*
X52070000Y-115570000D03*
X54610000Y-113030000D03*
X52070000Y-113030000D03*
X54610000Y-110490000D03*
X52070000Y-110490000D03*
X54610000Y-107950000D03*
X52070000Y-107950000D03*
X54610000Y-105410000D03*
D13*
X52070000Y-105410000D03*
D15*
X78740000Y-160020000D03*
D16*
X83820000Y-160020000D03*
D13*
X95250000Y-41910000D03*
D14*
X97790000Y-41910000D03*
X95250000Y-44450000D03*
X97790000Y-44450000D03*
X95250000Y-46990000D03*
X97790000Y-46990000D03*
X95250000Y-49530000D03*
X97790000Y-49530000D03*
X95250000Y-52070000D03*
X97790000Y-52070000D03*
X95250000Y-54610000D03*
X97790000Y-54610000D03*
X95250000Y-57150000D03*
X97790000Y-57150000D03*
X95250000Y-59690000D03*
X97790000Y-59690000D03*
X95250000Y-62230000D03*
X97790000Y-62230000D03*
X95250000Y-64770000D03*
X97790000Y-64770000D03*
X97790000Y-128270000D03*
X95250000Y-128270000D03*
X97790000Y-125730000D03*
X95250000Y-125730000D03*
X97790000Y-123190000D03*
X95250000Y-123190000D03*
X97790000Y-120650000D03*
X95250000Y-120650000D03*
X97790000Y-118110000D03*
X95250000Y-118110000D03*
X97790000Y-115570000D03*
X95250000Y-115570000D03*
X97790000Y-113030000D03*
X95250000Y-113030000D03*
X97790000Y-110490000D03*
X95250000Y-110490000D03*
X97790000Y-107950000D03*
X95250000Y-107950000D03*
X97790000Y-105410000D03*
D13*
X95250000Y-105410000D03*
D11*
X102870000Y-151130000D03*
D17*
X102870000Y-148590000D03*
D18*
X101790000Y-86320000D03*
D19*
X101790000Y-91400000D03*
X101790000Y-96480000D03*
D20*
X64290000Y-156490000D03*
D21*
X62250000Y-156490000D03*
X60210000Y-156490000D03*
X58170000Y-156490000D03*
X63270000Y-154710000D03*
X61230000Y-154710000D03*
X59190000Y-154710000D03*
X57150000Y-154710000D03*
D22*
X52600000Y-155600000D03*
X68860000Y-155600000D03*
D23*
X84245000Y-41850000D03*
X70495000Y-41850000D03*
X70495000Y-50150000D03*
X84245000Y-50150000D03*
D24*
X81870000Y-44450000D03*
X80770000Y-44450000D03*
X79670000Y-44450000D03*
X78570000Y-44450000D03*
X77470000Y-44450000D03*
X76370000Y-44450000D03*
X75270000Y-44450000D03*
X74170000Y-44450000D03*
D25*
X102870000Y-140970000D03*
D26*
X102870000Y-138430000D03*
X102870000Y-135890000D03*
D19*
X71710000Y-97010000D03*
D27*
X83910000Y-97010000D03*
X83960000Y-84960000D03*
D19*
X71710000Y-85010000D03*
D27*
X69760000Y-90960000D03*
D28*
X68580000Y-110490000D03*
X67310000Y-110490000D03*
D29*
X69850000Y-110490000D03*
D10*
X76200000Y-110490000D03*
D30*
X86360000Y-110490000D03*
D31*
X77470000Y-132715000D03*
D32*
X80010000Y-132715000D03*
X82550000Y-132715000D03*
D33*
X58420000Y-163830000D03*
X72390000Y-163830000D03*
X68580000Y-120650000D03*
X63500000Y-120650000D03*
X91440000Y-54610000D03*
X91440000Y-57150000D03*
X80010000Y-68580000D03*
X80010000Y-74930000D03*
X60071000Y-119761000D03*
X57785000Y-119761000D03*
X72390000Y-43180000D03*
X78740000Y-41910000D03*
X83820000Y-125730000D03*
X64770000Y-124460000D03*
X62230000Y-124460000D03*
X72860000Y-127980000D03*
X81280000Y-41910000D03*
X65020000Y-131740000D03*
X78310000Y-129060000D03*
X73750000Y-125380000D03*
X73750000Y-121150000D03*
X88560000Y-163850000D03*
X88620000Y-126770000D03*
D34*
X80010000Y-68580000D02*
X80010000Y-74930000D01*
X60071000Y-119761000D02*
X57785000Y-119761000D01*
D35*
X67310000Y-101410000D02*
X71710000Y-97010000D01*
X67310000Y-110490000D02*
X67310000Y-101410000D01*
X77102400Y-43180000D02*
X72390000Y-43180000D01*
X77470000Y-44450000D02*
X77470000Y-43547600D01*
X77470000Y-43547600D02*
X77102400Y-43180000D01*
X78570000Y-44450000D02*
X78570000Y-42080000D01*
X78570000Y-42080000D02*
X78740000Y-41910000D01*
X52919999Y-58840001D02*
X52070000Y-59690000D01*
X53196201Y-58563799D02*
X52919999Y-58840001D01*
X57402979Y-58563799D02*
X53196201Y-58563799D01*
X67092979Y-48873799D02*
X57402979Y-58563799D01*
X71748601Y-48873799D02*
X67092979Y-48873799D01*
X75270000Y-45352400D02*
X71748601Y-48873799D01*
X75270000Y-44450000D02*
X75270000Y-45352400D01*
X83820000Y-125730000D02*
X82550000Y-124460000D01*
X82550000Y-124460000D02*
X64770000Y-124460000D01*
X53340000Y-124460000D02*
X52070000Y-123190000D01*
X62230000Y-124460000D02*
X53340000Y-124460000D01*
X62250000Y-156490000D02*
X62250000Y-161020000D01*
X62250000Y-161020000D02*
X62260000Y-161030000D01*
X72190000Y-134280000D02*
X63640000Y-125730000D01*
X63640000Y-125730000D02*
X63640000Y-123060000D01*
X63640000Y-123060000D02*
X61750000Y-121170000D01*
X61750000Y-121170000D02*
X61750000Y-117040000D01*
X53196201Y-111616201D02*
X52919999Y-111339999D01*
X56326201Y-111616201D02*
X53196201Y-111616201D01*
X52919999Y-111339999D02*
X52070000Y-110490000D01*
X61750000Y-117040000D02*
X56326201Y-111616201D01*
X62250000Y-161020000D02*
X62250000Y-161350000D01*
X62250000Y-161350000D02*
X72170000Y-161350000D01*
X72170000Y-161170000D02*
X72190000Y-161150000D01*
X72170000Y-161350000D02*
X72170000Y-161170000D01*
X72190000Y-161240000D02*
X72190000Y-161150000D01*
X72190000Y-161150000D02*
X72190000Y-134280000D01*
X60210000Y-156490000D02*
X60210000Y-161630000D01*
X60210000Y-161630000D02*
X60180000Y-161660000D01*
X60200000Y-161960000D02*
X72890000Y-161960000D01*
X72870000Y-161660000D02*
X72880000Y-161650000D01*
X72880000Y-161650000D02*
X72880000Y-128000000D01*
X72880000Y-128000000D02*
X72860000Y-127980000D01*
X72880000Y-161950000D02*
X72890000Y-161960000D01*
X72880000Y-161650000D02*
X72880000Y-161950000D01*
X60210000Y-161950000D02*
X60200000Y-161960000D01*
X60210000Y-161630000D02*
X60210000Y-161950000D01*
X96940001Y-55459999D02*
X97790000Y-54610000D01*
X96663799Y-55736201D02*
X96940001Y-55459999D01*
X86753801Y-55736201D02*
X96663799Y-55736201D01*
X76370000Y-45352400D02*
X86753801Y-55736201D01*
X76370000Y-44450000D02*
X76370000Y-45352400D01*
X81280000Y-43037600D02*
X81280000Y-41910000D01*
X80770000Y-44450000D02*
X80770000Y-43547600D01*
X80770000Y-43547600D02*
X81280000Y-43037600D01*
X97790000Y-128270000D02*
X97790000Y-138430000D01*
X100330000Y-140970000D02*
X102870000Y-140970000D01*
X97790000Y-138430000D02*
X100330000Y-140970000D01*
X57150000Y-154710000D02*
X57150000Y-139610000D01*
X57150000Y-139610000D02*
X65020000Y-131740000D01*
X84300000Y-129060000D02*
X95250000Y-118110000D01*
X78310000Y-129060000D02*
X84300000Y-129060000D01*
X58170000Y-156490000D02*
X58170000Y-162420000D01*
X58170000Y-162420000D02*
X73750000Y-162420000D01*
X73750000Y-162420000D02*
X73750000Y-128860000D01*
X73750000Y-128860000D02*
X73750000Y-125380000D01*
X73750000Y-121150000D02*
X73750000Y-117080000D01*
X75260000Y-115570000D02*
X95250000Y-115570000D01*
X73750000Y-117080000D02*
X75260000Y-115570000D01*
X88560000Y-163850000D02*
X88560000Y-126830000D01*
X88560000Y-126830000D02*
X88620000Y-126770000D01*
D34*
X86360000Y-110490000D02*
X87630000Y-110490000D01*
X92710000Y-105410000D02*
X95250000Y-105410000D01*
X87630000Y-110490000D02*
X92710000Y-105410000D01*
D36*
X100430000Y-84960000D02*
X101790000Y-86320000D01*
X83960000Y-84960000D02*
X100430000Y-84960000D01*
X101350000Y-90960000D02*
X101790000Y-91400000D01*
X69760000Y-90960000D02*
X101350000Y-90960000D01*
X84440000Y-96480000D02*
X83910000Y-97010000D01*
X101790000Y-96480000D02*
X84440000Y-96480000D01*
D34*
X68580000Y-110490000D02*
X68580000Y-107950000D01*
X68580000Y-107950000D02*
X76200000Y-107950000D01*
X76200000Y-107950000D02*
X76200000Y-110490000D01*
D37*
X105995000Y-76922976D02*
X99370575Y-76893001D01*
X99345787Y-76895329D01*
X99321931Y-76902449D01*
X99299921Y-76914085D01*
X99280605Y-76929792D01*
X99264724Y-76948965D01*
X99252888Y-76970869D01*
X99245554Y-76994660D01*
X99243000Y-77020000D01*
X99243000Y-83190000D01*
X99245440Y-83214776D01*
X99252667Y-83238601D01*
X99264403Y-83260557D01*
X99280197Y-83279803D01*
X99299443Y-83295597D01*
X99321399Y-83307333D01*
X99345224Y-83314560D01*
X99370577Y-83316999D01*
X105970577Y-83286999D01*
X105995000Y-83284481D01*
X105995001Y-147555697D01*
X105971308Y-147539866D01*
X105755652Y-147450539D01*
X105526712Y-147405000D01*
X105293288Y-147405000D01*
X105064348Y-147450539D01*
X104848692Y-147539866D01*
X104654606Y-147669550D01*
X104489550Y-147834606D01*
X104455910Y-147884952D01*
X104407537Y-147768169D01*
X104217663Y-147484002D01*
X103975998Y-147242337D01*
X103691831Y-147052463D01*
X103376081Y-146921675D01*
X103040883Y-146855000D01*
X102699117Y-146855000D01*
X102363919Y-146921675D01*
X102048169Y-147052463D01*
X101764002Y-147242337D01*
X101522337Y-147484002D01*
X101332463Y-147768169D01*
X101201675Y-148083919D01*
X101135000Y-148419117D01*
X101135000Y-148760883D01*
X101201675Y-149096081D01*
X101332463Y-149411831D01*
X101399690Y-149512443D01*
X101318815Y-149578815D01*
X101239463Y-149675506D01*
X101180498Y-149785820D01*
X101144188Y-149905518D01*
X101131928Y-150030000D01*
X101131928Y-152230000D01*
X101144188Y-152354482D01*
X101180498Y-152474180D01*
X101239463Y-152584494D01*
X101318815Y-152681185D01*
X101415506Y-152760537D01*
X101525820Y-152819502D01*
X101645518Y-152855812D01*
X101770000Y-152868072D01*
X103970000Y-152868072D01*
X104094482Y-152855812D01*
X104214180Y-152819502D01*
X104324494Y-152760537D01*
X104421185Y-152681185D01*
X104500537Y-152584494D01*
X104559502Y-152474180D01*
X104595812Y-152354482D01*
X104608072Y-152230000D01*
X104608072Y-152003916D01*
X104654606Y-152050450D01*
X104848692Y-152180134D01*
X105064348Y-152269461D01*
X105293288Y-152315000D01*
X105526712Y-152315000D01*
X105755652Y-152269461D01*
X105971308Y-152180134D01*
X105995001Y-152164303D01*
X105995001Y-164415000D01*
X89427263Y-164415000D01*
X89477205Y-164340256D01*
X89555226Y-164151898D01*
X89595000Y-163951939D01*
X89595000Y-163748061D01*
X89555226Y-163548102D01*
X89477205Y-163359744D01*
X89363937Y-163190226D01*
X89271200Y-163097489D01*
X89271200Y-153840000D01*
X90971928Y-153840000D01*
X90971928Y-156040000D01*
X90984188Y-156164482D01*
X91020498Y-156284180D01*
X91079463Y-156394494D01*
X91158815Y-156491185D01*
X91255506Y-156570537D01*
X91365820Y-156629502D01*
X91485518Y-156665812D01*
X91610000Y-156678072D01*
X93810000Y-156678072D01*
X93934482Y-156665812D01*
X94054180Y-156629502D01*
X94164494Y-156570537D01*
X94261185Y-156491185D01*
X94340537Y-156394494D01*
X94399502Y-156284180D01*
X94435812Y-156164482D01*
X94448072Y-156040000D01*
X94448072Y-153840000D01*
X94435812Y-153715518D01*
X94399502Y-153595820D01*
X94340537Y-153485506D01*
X94261185Y-153388815D01*
X94164494Y-153309463D01*
X94054180Y-153250498D01*
X93934482Y-153214188D01*
X93810000Y-153201928D01*
X91610000Y-153201928D01*
X91485518Y-153214188D01*
X91365820Y-153250498D01*
X91255506Y-153309463D01*
X91158815Y-153388815D01*
X91079463Y-153485506D01*
X91020498Y-153595820D01*
X90984188Y-153715518D01*
X90971928Y-153840000D01*
X89271200Y-153840000D01*
X89271200Y-144609117D01*
X90975000Y-144609117D01*
X90975000Y-144950883D01*
X91041675Y-145286081D01*
X91172463Y-145601831D01*
X91362337Y-145885998D01*
X91604002Y-146127663D01*
X91888169Y-146317537D01*
X92203919Y-146448325D01*
X92539117Y-146515000D01*
X92880883Y-146515000D01*
X93216081Y-146448325D01*
X93531831Y-146317537D01*
X93815998Y-146127663D01*
X94057663Y-145885998D01*
X94247537Y-145601831D01*
X94378325Y-145286081D01*
X94445000Y-144950883D01*
X94445000Y-144609117D01*
X94378325Y-144273919D01*
X94247537Y-143958169D01*
X94057663Y-143674002D01*
X93815998Y-143432337D01*
X93531831Y-143242463D01*
X93216081Y-143111675D01*
X92880883Y-143045000D01*
X92539117Y-143045000D01*
X92203919Y-143111675D01*
X91888169Y-143242463D01*
X91604002Y-143432337D01*
X91362337Y-143674002D01*
X91172463Y-143958169D01*
X91041675Y-144273919D01*
X90975000Y-144609117D01*
X89271200Y-144609117D01*
X89271200Y-127579666D01*
X89279774Y-127573937D01*
X89423937Y-127429774D01*
X89537205Y-127260256D01*
X89615226Y-127071898D01*
X89655000Y-126871939D01*
X89655000Y-126668061D01*
X89615226Y-126468102D01*
X89537205Y-126279744D01*
X89423937Y-126110226D01*
X89279774Y-125966063D01*
X89110256Y-125852795D01*
X88921898Y-125774774D01*
X88721939Y-125735000D01*
X88630788Y-125735000D01*
X93765000Y-120600789D01*
X93765000Y-120796260D01*
X93822068Y-121083158D01*
X93934010Y-121353411D01*
X94096525Y-121596632D01*
X94303368Y-121803475D01*
X94477760Y-121920000D01*
X94303368Y-122036525D01*
X94096525Y-122243368D01*
X93934010Y-122486589D01*
X93822068Y-122756842D01*
X93765000Y-123043740D01*
X93765000Y-123336260D01*
X93822068Y-123623158D01*
X93934010Y-123893411D01*
X94096525Y-124136632D01*
X94303368Y-124343475D01*
X94477760Y-124460000D01*
X94303368Y-124576525D01*
X94096525Y-124783368D01*
X93934010Y-125026589D01*
X93822068Y-125296842D01*
X93765000Y-125583740D01*
X93765000Y-125876260D01*
X93822068Y-126163158D01*
X93934010Y-126433411D01*
X94096525Y-126676632D01*
X94303368Y-126883475D01*
X94477760Y-127000000D01*
X94303368Y-127116525D01*
X94096525Y-127323368D01*
X93934010Y-127566589D01*
X93822068Y-127836842D01*
X93765000Y-128123740D01*
X93765000Y-128416260D01*
X93822068Y-128703158D01*
X93934010Y-128973411D01*
X94096525Y-129216632D01*
X94303368Y-129423475D01*
X94546589Y-129585990D01*
X94816842Y-129697932D01*
X95103740Y-129755000D01*
X95396260Y-129755000D01*
X95683158Y-129697932D01*
X95953411Y-129585990D01*
X96196632Y-129423475D01*
X96403475Y-129216632D01*
X96520000Y-129042240D01*
X96636525Y-129216632D01*
X96843368Y-129423475D01*
X97078800Y-129580786D01*
X97078801Y-138395064D01*
X97075360Y-138430000D01*
X97078801Y-138464936D01*
X97089092Y-138569420D01*
X97129759Y-138703481D01*
X97195799Y-138827033D01*
X97284674Y-138935327D01*
X97311810Y-138957597D01*
X99802407Y-141448196D01*
X99824673Y-141475327D01*
X99851804Y-141497593D01*
X99851808Y-141497597D01*
X99932967Y-141564202D01*
X100056519Y-141630242D01*
X100190580Y-141670909D01*
X100295064Y-141681200D01*
X100295081Y-141681200D01*
X100329999Y-141684639D01*
X100364917Y-141681200D01*
X101181928Y-141681200D01*
X101181928Y-142020000D01*
X101194188Y-142144482D01*
X101230498Y-142264180D01*
X101289463Y-142374494D01*
X101368815Y-142471185D01*
X101465506Y-142550537D01*
X101575820Y-142609502D01*
X101695518Y-142645812D01*
X101820000Y-142658072D01*
X103920000Y-142658072D01*
X104044482Y-142645812D01*
X104164180Y-142609502D01*
X104274494Y-142550537D01*
X104371185Y-142471185D01*
X104450537Y-142374494D01*
X104509502Y-142264180D01*
X104545812Y-142144482D01*
X104558072Y-142020000D01*
X104558072Y-139920000D01*
X104545812Y-139795518D01*
X104509502Y-139675820D01*
X104450537Y-139565506D01*
X104371185Y-139468815D01*
X104274494Y-139389463D01*
X104212918Y-139356549D01*
X104310579Y-139319661D01*
X104456463Y-139021523D01*
X104541380Y-138700654D01*
X104562066Y-138369383D01*
X104517728Y-138040443D01*
X104410069Y-137726473D01*
X104310579Y-137540339D01*
X104041066Y-137438539D01*
X103049605Y-138430000D01*
X103063748Y-138444143D01*
X102884143Y-138623748D01*
X102870000Y-138609605D01*
X102855858Y-138623748D01*
X102676253Y-138444143D01*
X102690395Y-138430000D01*
X101698934Y-137438539D01*
X101429421Y-137540339D01*
X101283537Y-137838477D01*
X101198620Y-138159346D01*
X101177934Y-138490617D01*
X101222272Y-138819557D01*
X101329931Y-139133527D01*
X101429421Y-139319661D01*
X101527082Y-139356549D01*
X101465506Y-139389463D01*
X101368815Y-139468815D01*
X101289463Y-139565506D01*
X101230498Y-139675820D01*
X101194188Y-139795518D01*
X101181928Y-139920000D01*
X101181928Y-140258800D01*
X100624589Y-140258800D01*
X98501200Y-138135413D01*
X98501200Y-135724042D01*
X101185000Y-135724042D01*
X101185000Y-136055958D01*
X101249754Y-136381496D01*
X101376772Y-136688147D01*
X101561175Y-136964125D01*
X101795875Y-137198825D01*
X101880009Y-137255042D01*
X101878539Y-137258934D01*
X102870000Y-138250395D01*
X103861461Y-137258934D01*
X103859991Y-137255042D01*
X103944125Y-137198825D01*
X104178825Y-136964125D01*
X104363228Y-136688147D01*
X104490246Y-136381496D01*
X104555000Y-136055958D01*
X104555000Y-135724042D01*
X104490246Y-135398504D01*
X104363228Y-135091853D01*
X104178825Y-134815875D01*
X103944125Y-134581175D01*
X103668147Y-134396772D01*
X103361496Y-134269754D01*
X103035958Y-134205000D01*
X102704042Y-134205000D01*
X102378504Y-134269754D01*
X102071853Y-134396772D01*
X101795875Y-134581175D01*
X101561175Y-134815875D01*
X101376772Y-135091853D01*
X101249754Y-135398504D01*
X101185000Y-135724042D01*
X98501200Y-135724042D01*
X98501200Y-129580786D01*
X98736632Y-129423475D01*
X98943475Y-129216632D01*
X99105990Y-128973411D01*
X99217932Y-128703158D01*
X99275000Y-128416260D01*
X99275000Y-128123740D01*
X99217932Y-127836842D01*
X99105990Y-127566589D01*
X98943475Y-127323368D01*
X98736632Y-127116525D01*
X98562240Y-127000000D01*
X98736632Y-126883475D01*
X98943475Y-126676632D01*
X99105990Y-126433411D01*
X99217932Y-126163158D01*
X99275000Y-125876260D01*
X99275000Y-125583740D01*
X99217932Y-125296842D01*
X99105990Y-125026589D01*
X98943475Y-124783368D01*
X98736632Y-124576525D01*
X98562240Y-124460000D01*
X98736632Y-124343475D01*
X98943475Y-124136632D01*
X99105990Y-123893411D01*
X99217932Y-123623158D01*
X99275000Y-123336260D01*
X99275000Y-123043740D01*
X99217932Y-122756842D01*
X99105990Y-122486589D01*
X98943475Y-122243368D01*
X98736632Y-122036525D01*
X98562240Y-121920000D01*
X98736632Y-121803475D01*
X98943475Y-121596632D01*
X99105990Y-121353411D01*
X99217932Y-121083158D01*
X99275000Y-120796260D01*
X99275000Y-120503740D01*
X99217932Y-120216842D01*
X99105990Y-119946589D01*
X98943475Y-119703368D01*
X98736632Y-119496525D01*
X98562240Y-119380000D01*
X98736632Y-119263475D01*
X98943475Y-119056632D01*
X99105990Y-118813411D01*
X99217932Y-118543158D01*
X99275000Y-118256260D01*
X99275000Y-117963740D01*
X99217932Y-117676842D01*
X99105990Y-117406589D01*
X98943475Y-117163368D01*
X98736632Y-116956525D01*
X98562240Y-116840000D01*
X98736632Y-116723475D01*
X98943475Y-116516632D01*
X99105990Y-116273411D01*
X99217932Y-116003158D01*
X99275000Y-115716260D01*
X99275000Y-115423740D01*
X99217932Y-115136842D01*
X99105990Y-114866589D01*
X98943475Y-114623368D01*
X98736632Y-114416525D01*
X98562240Y-114300000D01*
X98736632Y-114183475D01*
X98943475Y-113976632D01*
X99105990Y-113733411D01*
X99217932Y-113463158D01*
X99275000Y-113176260D01*
X99275000Y-112883740D01*
X99217932Y-112596842D01*
X99105990Y-112326589D01*
X98943475Y-112083368D01*
X98736632Y-111876525D01*
X98562240Y-111760000D01*
X98736632Y-111643475D01*
X98943475Y-111436632D01*
X99105990Y-111193411D01*
X99217932Y-110923158D01*
X99275000Y-110636260D01*
X99275000Y-110343740D01*
X99217932Y-110056842D01*
X99105990Y-109786589D01*
X98943475Y-109543368D01*
X98736632Y-109336525D01*
X98562240Y-109220000D01*
X98736632Y-109103475D01*
X98943475Y-108896632D01*
X99105990Y-108653411D01*
X99217932Y-108383158D01*
X99275000Y-108096260D01*
X99275000Y-107803740D01*
X99217932Y-107516842D01*
X99105990Y-107246589D01*
X98943475Y-107003368D01*
X98736632Y-106796525D01*
X98554466Y-106674805D01*
X98671355Y-106605178D01*
X98887588Y-106410269D01*
X99061641Y-106176920D01*
X99186825Y-105914099D01*
X99231476Y-105766890D01*
X99110155Y-105537000D01*
X97917000Y-105537000D01*
X97917000Y-105557000D01*
X97663000Y-105557000D01*
X97663000Y-105537000D01*
X97643000Y-105537000D01*
X97643000Y-105283000D01*
X97663000Y-105283000D01*
X97663000Y-104089186D01*
X97917000Y-104089186D01*
X97917000Y-105283000D01*
X99110155Y-105283000D01*
X99231476Y-105053110D01*
X99186825Y-104905901D01*
X99061641Y-104643080D01*
X98887588Y-104409731D01*
X98671355Y-104214822D01*
X98421252Y-104065843D01*
X98146891Y-103968519D01*
X97917000Y-104089186D01*
X97663000Y-104089186D01*
X97433109Y-103968519D01*
X97158748Y-104065843D01*
X96908645Y-104214822D01*
X96712498Y-104391626D01*
X96689502Y-104315820D01*
X96630537Y-104205506D01*
X96551185Y-104108815D01*
X96454494Y-104029463D01*
X96344180Y-103970498D01*
X96224482Y-103934188D01*
X96100000Y-103921928D01*
X94400000Y-103921928D01*
X94275518Y-103934188D01*
X94155820Y-103970498D01*
X94045506Y-104029463D01*
X93948815Y-104108815D01*
X93869463Y-104205506D01*
X93810498Y-104315820D01*
X93774188Y-104435518D01*
X93761928Y-104560000D01*
X93761928Y-104650000D01*
X92747323Y-104650000D01*
X92710000Y-104646324D01*
X92672677Y-104650000D01*
X92672667Y-104650000D01*
X92561014Y-104660997D01*
X92417753Y-104704454D01*
X92285723Y-104775026D01*
X92202083Y-104843668D01*
X92169999Y-104869999D01*
X92146201Y-104898997D01*
X87472297Y-109572901D01*
X87274759Y-109375363D01*
X87039727Y-109218320D01*
X86778574Y-109110147D01*
X86501335Y-109055000D01*
X86218665Y-109055000D01*
X85941426Y-109110147D01*
X85680273Y-109218320D01*
X85445241Y-109375363D01*
X85245363Y-109575241D01*
X85088320Y-109810273D01*
X84980147Y-110071426D01*
X84925000Y-110348665D01*
X84925000Y-110631335D01*
X84980147Y-110908574D01*
X85088320Y-111169727D01*
X85245363Y-111404759D01*
X85445241Y-111604637D01*
X85680273Y-111761680D01*
X85941426Y-111869853D01*
X86218665Y-111925000D01*
X86501335Y-111925000D01*
X86778574Y-111869853D01*
X87039727Y-111761680D01*
X87274759Y-111604637D01*
X87474637Y-111404759D01*
X87578043Y-111250000D01*
X87592678Y-111250000D01*
X87630000Y-111253676D01*
X87667322Y-111250000D01*
X87667333Y-111250000D01*
X87778986Y-111239003D01*
X87922247Y-111195546D01*
X88054276Y-111124974D01*
X88170001Y-111030001D01*
X88193804Y-111000997D01*
X93024802Y-106170000D01*
X93761928Y-106170000D01*
X93761928Y-106260000D01*
X93774188Y-106384482D01*
X93810498Y-106504180D01*
X93869463Y-106614494D01*
X93948815Y-106711185D01*
X94045506Y-106790537D01*
X94155820Y-106849502D01*
X94228380Y-106871513D01*
X94096525Y-107003368D01*
X93934010Y-107246589D01*
X93822068Y-107516842D01*
X93765000Y-107803740D01*
X93765000Y-108096260D01*
X93822068Y-108383158D01*
X93934010Y-108653411D01*
X94096525Y-108896632D01*
X94303368Y-109103475D01*
X94477760Y-109220000D01*
X94303368Y-109336525D01*
X94096525Y-109543368D01*
X93934010Y-109786589D01*
X93822068Y-110056842D01*
X93765000Y-110343740D01*
X93765000Y-110636260D01*
X93822068Y-110923158D01*
X93934010Y-111193411D01*
X94096525Y-111436632D01*
X94303368Y-111643475D01*
X94477760Y-111760000D01*
X94303368Y-111876525D01*
X94096525Y-112083368D01*
X93934010Y-112326589D01*
X93822068Y-112596842D01*
X93765000Y-112883740D01*
X93765000Y-113176260D01*
X93822068Y-113463158D01*
X93934010Y-113733411D01*
X94096525Y-113976632D01*
X94303368Y-114183475D01*
X94477760Y-114300000D01*
X94303368Y-114416525D01*
X94096525Y-114623368D01*
X93939214Y-114858800D01*
X75294917Y-114858800D01*
X75259999Y-114855361D01*
X75225081Y-114858800D01*
X75225064Y-114858800D01*
X75120580Y-114869091D01*
X74986519Y-114909758D01*
X74862967Y-114975798D01*
X74862965Y-114975799D01*
X74862966Y-114975799D01*
X74781808Y-115042403D01*
X74781804Y-115042407D01*
X74754673Y-115064673D01*
X74732407Y-115091804D01*
X73271810Y-116552403D01*
X73244674Y-116574673D01*
X73222404Y-116601809D01*
X73222403Y-116601810D01*
X73155798Y-116682968D01*
X73089759Y-116806519D01*
X73049092Y-116940581D01*
X73035360Y-117080000D01*
X73038801Y-117114936D01*
X73038800Y-120397489D01*
X72946063Y-120490226D01*
X72832795Y-120659744D01*
X72754774Y-120848102D01*
X72715000Y-121048061D01*
X72715000Y-121251939D01*
X72754774Y-121451898D01*
X72832795Y-121640256D01*
X72946063Y-121809774D01*
X73090226Y-121953937D01*
X73259744Y-122067205D01*
X73448102Y-122145226D01*
X73648061Y-122185000D01*
X73851939Y-122185000D01*
X74051898Y-122145226D01*
X74240256Y-122067205D01*
X74409774Y-121953937D01*
X74553937Y-121809774D01*
X74667205Y-121640256D01*
X74745226Y-121451898D01*
X74785000Y-121251939D01*
X74785000Y-121048061D01*
X74745226Y-120848102D01*
X74667205Y-120659744D01*
X74553937Y-120490226D01*
X74461200Y-120397489D01*
X74461200Y-117374587D01*
X75554589Y-116281200D01*
X93939214Y-116281200D01*
X94096525Y-116516632D01*
X94303368Y-116723475D01*
X94477760Y-116840000D01*
X94303368Y-116956525D01*
X94096525Y-117163368D01*
X93934010Y-117406589D01*
X93822068Y-117676842D01*
X93765000Y-117963740D01*
X93765000Y-118256260D01*
X93820241Y-118533971D01*
X84005413Y-128348800D01*
X79062511Y-128348800D01*
X78969774Y-128256063D01*
X78800256Y-128142795D01*
X78611898Y-128064774D01*
X78411939Y-128025000D01*
X78208061Y-128025000D01*
X78008102Y-128064774D01*
X77819744Y-128142795D01*
X77650226Y-128256063D01*
X77506063Y-128400226D01*
X77392795Y-128569744D01*
X77314774Y-128758102D01*
X77275000Y-128958061D01*
X77275000Y-129161939D01*
X77314774Y-129361898D01*
X77392795Y-129550256D01*
X77506063Y-129719774D01*
X77650226Y-129863937D01*
X77819744Y-129977205D01*
X78008102Y-130055226D01*
X78208061Y-130095000D01*
X78411939Y-130095000D01*
X78611898Y-130055226D01*
X78800256Y-129977205D01*
X78969774Y-129863937D01*
X79062511Y-129771200D01*
X84265074Y-129771200D01*
X84300000Y-129774640D01*
X84334926Y-129771200D01*
X84334936Y-129771200D01*
X84439420Y-129760909D01*
X84573481Y-129720242D01*
X84697033Y-129654202D01*
X84805327Y-129565327D01*
X84827602Y-129538185D01*
X87585000Y-126780788D01*
X87585000Y-126871939D01*
X87624774Y-127071898D01*
X87702795Y-127260256D01*
X87816063Y-127429774D01*
X87848801Y-127462512D01*
X87848801Y-137094038D01*
X81689403Y-137123001D01*
X81664638Y-137125558D01*
X81640848Y-137132897D01*
X81618947Y-137144736D01*
X81599776Y-137160621D01*
X81584073Y-137179940D01*
X81572440Y-137201951D01*
X81565325Y-137225810D01*
X81563000Y-137250000D01*
X81563000Y-142540000D01*
X81565440Y-142564776D01*
X81572667Y-142588601D01*
X81584403Y-142610557D01*
X81600197Y-142629803D01*
X81619443Y-142645597D01*
X81641399Y-142657333D01*
X81665224Y-142664560D01*
X81690991Y-142666996D01*
X87848800Y-142618963D01*
X87848800Y-150244699D01*
X87834531Y-150215671D01*
X87627822Y-149945573D01*
X87372391Y-149720992D01*
X87078054Y-149550558D01*
X86756123Y-149440821D01*
X86487000Y-149558400D01*
X86487000Y-151003000D01*
X86507000Y-151003000D01*
X86507000Y-151257000D01*
X86487000Y-151257000D01*
X86487000Y-152701600D01*
X86756123Y-152819179D01*
X87078054Y-152709442D01*
X87372391Y-152539008D01*
X87627822Y-152314427D01*
X87834531Y-152044329D01*
X87848800Y-152015301D01*
X87848800Y-163097489D01*
X87756063Y-163190226D01*
X87642795Y-163359744D01*
X87564774Y-163548102D01*
X87525000Y-163748061D01*
X87525000Y-163951939D01*
X87564774Y-164151898D01*
X87642795Y-164340256D01*
X87692737Y-164415000D01*
X51485000Y-164415000D01*
X51485000Y-156797239D01*
X51557748Y-156869987D01*
X51825537Y-157048918D01*
X52123088Y-157172168D01*
X52438967Y-157235000D01*
X52761033Y-157235000D01*
X53076912Y-157172168D01*
X53118056Y-157155125D01*
X52939334Y-157274544D01*
X52624544Y-157589334D01*
X52377214Y-157959489D01*
X52206851Y-158370782D01*
X52120000Y-158807409D01*
X52120000Y-159252591D01*
X52206851Y-159689218D01*
X52377214Y-160100511D01*
X52624544Y-160470666D01*
X52939334Y-160785456D01*
X53309489Y-161032786D01*
X53720782Y-161203149D01*
X54157409Y-161290000D01*
X54602591Y-161290000D01*
X55039218Y-161203149D01*
X55450511Y-161032786D01*
X55820666Y-160785456D01*
X56135456Y-160470666D01*
X56382786Y-160100511D01*
X56553149Y-159689218D01*
X56640000Y-159252591D01*
X56640000Y-158807409D01*
X56553149Y-158370782D01*
X56382786Y-157959489D01*
X56135456Y-157589334D01*
X55820666Y-157274544D01*
X55450511Y-157027214D01*
X55039218Y-156856851D01*
X54602591Y-156770000D01*
X54157409Y-156770000D01*
X53720782Y-156856851D01*
X53565895Y-156921007D01*
X53642252Y-156869987D01*
X53869987Y-156642252D01*
X54048918Y-156374463D01*
X54172168Y-156076912D01*
X54235000Y-155761033D01*
X54235000Y-155438967D01*
X54172168Y-155123088D01*
X54048918Y-154825537D01*
X53869987Y-154557748D01*
X53642252Y-154330013D01*
X53374463Y-154151082D01*
X53076912Y-154027832D01*
X52761033Y-153965000D01*
X52438967Y-153965000D01*
X52123088Y-154027832D01*
X51825537Y-154151082D01*
X51557748Y-154330013D01*
X51485000Y-154402761D01*
X51485000Y-129635037D01*
X51636842Y-129697932D01*
X51923740Y-129755000D01*
X52216260Y-129755000D01*
X52503158Y-129697932D01*
X52773411Y-129585990D01*
X53016632Y-129423475D01*
X53223475Y-129216632D01*
X53340000Y-129042240D01*
X53456525Y-129216632D01*
X53663368Y-129423475D01*
X53906589Y-129585990D01*
X54176842Y-129697932D01*
X54463740Y-129755000D01*
X54756260Y-129755000D01*
X55043158Y-129697932D01*
X55313411Y-129585990D01*
X55556632Y-129423475D01*
X55763475Y-129216632D01*
X55925990Y-128973411D01*
X56037932Y-128703158D01*
X56095000Y-128416260D01*
X56095000Y-128123740D01*
X56037932Y-127836842D01*
X55925990Y-127566589D01*
X55763475Y-127323368D01*
X55556632Y-127116525D01*
X55382240Y-127000000D01*
X55556632Y-126883475D01*
X55763475Y-126676632D01*
X55925990Y-126433411D01*
X56037932Y-126163158D01*
X56095000Y-125876260D01*
X56095000Y-125583740D01*
X56037932Y-125296842D01*
X55985890Y-125171200D01*
X61477489Y-125171200D01*
X61570226Y-125263937D01*
X61739744Y-125377205D01*
X61928102Y-125455226D01*
X62128061Y-125495000D01*
X62331939Y-125495000D01*
X62531898Y-125455226D01*
X62720256Y-125377205D01*
X62889774Y-125263937D01*
X62928800Y-125224911D01*
X62928800Y-125695074D01*
X62925360Y-125730000D01*
X62928800Y-125764926D01*
X62928800Y-125764935D01*
X62939091Y-125869419D01*
X62979758Y-126003480D01*
X63045798Y-126127032D01*
X63134673Y-126235326D01*
X63161810Y-126257597D01*
X71478801Y-134574589D01*
X71478800Y-160638800D01*
X68667322Y-160638800D01*
X68835456Y-160470666D01*
X69082786Y-160100511D01*
X69253149Y-159689218D01*
X69340000Y-159252591D01*
X69340000Y-158807409D01*
X69253149Y-158370782D01*
X69082786Y-157959489D01*
X68835456Y-157589334D01*
X68520666Y-157274544D01*
X68341944Y-157155125D01*
X68383088Y-157172168D01*
X68698967Y-157235000D01*
X69021033Y-157235000D01*
X69336912Y-157172168D01*
X69634463Y-157048918D01*
X69902252Y-156869987D01*
X70129987Y-156642252D01*
X70308918Y-156374463D01*
X70432168Y-156076912D01*
X70495000Y-155761033D01*
X70495000Y-155438967D01*
X70432168Y-155123088D01*
X70308918Y-154825537D01*
X70129987Y-154557748D01*
X69902252Y-154330013D01*
X69634463Y-154151082D01*
X69336912Y-154027832D01*
X69021033Y-153965000D01*
X68698967Y-153965000D01*
X68383088Y-154027832D01*
X68085537Y-154151082D01*
X67817748Y-154330013D01*
X67590013Y-154557748D01*
X67411082Y-154825537D01*
X67287832Y-155123088D01*
X67225000Y-155438967D01*
X67225000Y-155761033D01*
X67287832Y-156076912D01*
X67411082Y-156374463D01*
X67590013Y-156642252D01*
X67817748Y-156869987D01*
X67894105Y-156921007D01*
X67739218Y-156856851D01*
X67302591Y-156770000D01*
X66857409Y-156770000D01*
X66420782Y-156856851D01*
X66009489Y-157027214D01*
X65677159Y-157249270D01*
X65678072Y-157240000D01*
X65678072Y-155740000D01*
X65665812Y-155615518D01*
X65629502Y-155495820D01*
X65570537Y-155385506D01*
X65491185Y-155288815D01*
X65394494Y-155209463D01*
X65284180Y-155150498D01*
X65164482Y-155114188D01*
X65040000Y-155101928D01*
X64599800Y-155101928D01*
X64647250Y-154910040D01*
X64659812Y-154637508D01*
X64618965Y-154367762D01*
X64526277Y-154111168D01*
X64465860Y-153998137D01*
X64226993Y-153932612D01*
X63449605Y-154710000D01*
X63463748Y-154724143D01*
X63284143Y-154903748D01*
X63270000Y-154889605D01*
X63255858Y-154903748D01*
X63076253Y-154724143D01*
X63090395Y-154710000D01*
X62473648Y-154093253D01*
X62457371Y-154053957D01*
X62305799Y-153827114D01*
X62231692Y-153753007D01*
X62492612Y-153753007D01*
X63270000Y-154530395D01*
X64047388Y-153753007D01*
X63981863Y-153514140D01*
X63734884Y-153398240D01*
X63470040Y-153332750D01*
X63197508Y-153320188D01*
X62927762Y-153361035D01*
X62671168Y-153453723D01*
X62558137Y-153514140D01*
X62492612Y-153753007D01*
X62231692Y-153753007D01*
X62112886Y-153634201D01*
X61886043Y-153482629D01*
X61633989Y-153378225D01*
X61366411Y-153325000D01*
X61093589Y-153325000D01*
X60826011Y-153378225D01*
X60573957Y-153482629D01*
X60347114Y-153634201D01*
X60210000Y-153771315D01*
X60072886Y-153634201D01*
X59846043Y-153482629D01*
X59593989Y-153378225D01*
X59326411Y-153325000D01*
X59053589Y-153325000D01*
X58786011Y-153378225D01*
X58533957Y-153482629D01*
X58307114Y-153634201D01*
X58170000Y-153771315D01*
X58032886Y-153634201D01*
X57861200Y-153519484D01*
X57861200Y-139904587D01*
X64990789Y-132775000D01*
X65121939Y-132775000D01*
X65321898Y-132735226D01*
X65510256Y-132657205D01*
X65679774Y-132543937D01*
X65823937Y-132399774D01*
X65937205Y-132230256D01*
X66015226Y-132041898D01*
X66055000Y-131841939D01*
X66055000Y-131638061D01*
X66015226Y-131438102D01*
X65937205Y-131249744D01*
X65823937Y-131080226D01*
X65679774Y-130936063D01*
X65510256Y-130822795D01*
X65321898Y-130744774D01*
X65121939Y-130705000D01*
X64918061Y-130705000D01*
X64718102Y-130744774D01*
X64529744Y-130822795D01*
X64360226Y-130936063D01*
X64216063Y-131080226D01*
X64102795Y-131249744D01*
X64024774Y-131438102D01*
X63985000Y-131638061D01*
X63985000Y-131769211D01*
X56671810Y-139082403D01*
X56644674Y-139104673D01*
X56622404Y-139131809D01*
X56622403Y-139131810D01*
X56555798Y-139212968D01*
X56512385Y-139294188D01*
X56489759Y-139336519D01*
X56449628Y-139468815D01*
X56449092Y-139470581D01*
X56435360Y-139610000D01*
X56438801Y-139644936D01*
X56438800Y-153519484D01*
X56267114Y-153634201D01*
X56074201Y-153827114D01*
X55922629Y-154053957D01*
X55818225Y-154306011D01*
X55765000Y-154573589D01*
X55765000Y-154846411D01*
X55818225Y-155113989D01*
X55922629Y-155366043D01*
X56074201Y-155592886D01*
X56267114Y-155785799D01*
X56493957Y-155937371D01*
X56746011Y-156041775D01*
X56848134Y-156062089D01*
X56838225Y-156086011D01*
X56785000Y-156353589D01*
X56785000Y-156626411D01*
X56838225Y-156893989D01*
X56942629Y-157146043D01*
X57094201Y-157372886D01*
X57287114Y-157565799D01*
X57458800Y-157680516D01*
X57458801Y-162385054D01*
X57455359Y-162420000D01*
X57469091Y-162559420D01*
X57509758Y-162693481D01*
X57575798Y-162817033D01*
X57664673Y-162925327D01*
X57772967Y-163014202D01*
X57896519Y-163080242D01*
X58030580Y-163120909D01*
X58135064Y-163131200D01*
X58170000Y-163134641D01*
X58204936Y-163131200D01*
X73715064Y-163131200D01*
X73750000Y-163134641D01*
X73784936Y-163131200D01*
X73889420Y-163120909D01*
X74023481Y-163080242D01*
X74147033Y-163014202D01*
X74255327Y-162925327D01*
X74344202Y-162817033D01*
X74410242Y-162693481D01*
X74450909Y-162559420D01*
X74464641Y-162420000D01*
X74461200Y-162385064D01*
X74461200Y-158720000D01*
X76801928Y-158720000D01*
X76801928Y-161320000D01*
X76814188Y-161444482D01*
X76850498Y-161564180D01*
X76909463Y-161674494D01*
X76988815Y-161771185D01*
X77085506Y-161850537D01*
X77195820Y-161909502D01*
X77315518Y-161945812D01*
X77440000Y-161958072D01*
X80040000Y-161958072D01*
X80164482Y-161945812D01*
X80284180Y-161909502D01*
X80394494Y-161850537D01*
X80491185Y-161771185D01*
X80570537Y-161674494D01*
X80629502Y-161564180D01*
X80665812Y-161444482D01*
X80673224Y-161369224D01*
X82650381Y-161369224D01*
X82782317Y-161664312D01*
X83123045Y-161835159D01*
X83490557Y-161936250D01*
X83870729Y-161963701D01*
X84248951Y-161916457D01*
X84610690Y-161796333D01*
X84857683Y-161664312D01*
X84989619Y-161369224D01*
X83820000Y-160199605D01*
X82650381Y-161369224D01*
X80673224Y-161369224D01*
X80678072Y-161320000D01*
X80678072Y-160070729D01*
X81876299Y-160070729D01*
X81923543Y-160448951D01*
X82043667Y-160810690D01*
X82175688Y-161057683D01*
X82470776Y-161189619D01*
X83640395Y-160020000D01*
X83999605Y-160020000D01*
X85169224Y-161189619D01*
X85464312Y-161057683D01*
X85635159Y-160716955D01*
X85736250Y-160349443D01*
X85763701Y-159969271D01*
X85716457Y-159591049D01*
X85596333Y-159229310D01*
X85464312Y-158982317D01*
X85169224Y-158850381D01*
X83999605Y-160020000D01*
X83640395Y-160020000D01*
X82470776Y-158850381D01*
X82175688Y-158982317D01*
X82004841Y-159323045D01*
X81903750Y-159690557D01*
X81876299Y-160070729D01*
X80678072Y-160070729D01*
X80678072Y-158720000D01*
X80673225Y-158670776D01*
X82650381Y-158670776D01*
X83820000Y-159840395D01*
X84989619Y-158670776D01*
X84857683Y-158375688D01*
X84516955Y-158204841D01*
X84149443Y-158103750D01*
X83769271Y-158076299D01*
X83391049Y-158123543D01*
X83029310Y-158243667D01*
X82782317Y-158375688D01*
X82650381Y-158670776D01*
X80673225Y-158670776D01*
X80665812Y-158595518D01*
X80629502Y-158475820D01*
X80570537Y-158365506D01*
X80491185Y-158268815D01*
X80394494Y-158189463D01*
X80284180Y-158130498D01*
X80164482Y-158094188D01*
X80040000Y-158081928D01*
X77440000Y-158081928D01*
X77315518Y-158094188D01*
X77195820Y-158130498D01*
X77085506Y-158189463D01*
X76988815Y-158268815D01*
X76909463Y-158365506D01*
X76850498Y-158475820D01*
X76814188Y-158595518D01*
X76801928Y-158720000D01*
X74461200Y-158720000D01*
X74461200Y-150030000D01*
X74461928Y-150030000D01*
X74461928Y-152230000D01*
X74474188Y-152354482D01*
X74510498Y-152474180D01*
X74569463Y-152584494D01*
X74648815Y-152681185D01*
X74745506Y-152760537D01*
X74855820Y-152819502D01*
X74975518Y-152855812D01*
X75100000Y-152868072D01*
X77300000Y-152868072D01*
X77424482Y-152855812D01*
X77544180Y-152819502D01*
X77654494Y-152760537D01*
X77751185Y-152681185D01*
X77830537Y-152584494D01*
X77889502Y-152474180D01*
X77925812Y-152354482D01*
X77938072Y-152230000D01*
X77938072Y-151526122D01*
X84670825Y-151526122D01*
X84735425Y-151739094D01*
X84885469Y-152044329D01*
X85092178Y-152314427D01*
X85347609Y-152539008D01*
X85641946Y-152709442D01*
X85963877Y-152819179D01*
X86233000Y-152701600D01*
X86233000Y-151257000D01*
X84788875Y-151257000D01*
X84670825Y-151526122D01*
X77938072Y-151526122D01*
X77938072Y-150733878D01*
X84670825Y-150733878D01*
X84788875Y-151003000D01*
X86233000Y-151003000D01*
X86233000Y-149558400D01*
X85963877Y-149440821D01*
X85641946Y-149550558D01*
X85347609Y-149720992D01*
X85092178Y-149945573D01*
X84885469Y-150215671D01*
X84735425Y-150520906D01*
X84670825Y-150733878D01*
X77938072Y-150733878D01*
X77938072Y-150030000D01*
X77925812Y-149905518D01*
X77889502Y-149785820D01*
X77830537Y-149675506D01*
X77751185Y-149578815D01*
X77654494Y-149499463D01*
X77544180Y-149440498D01*
X77424482Y-149404188D01*
X77300000Y-149391928D01*
X75100000Y-149391928D01*
X74975518Y-149404188D01*
X74855820Y-149440498D01*
X74745506Y-149499463D01*
X74648815Y-149578815D01*
X74569463Y-149675506D01*
X74510498Y-149785820D01*
X74474188Y-149905518D01*
X74461928Y-150030000D01*
X74461200Y-150030000D01*
X74461200Y-144003665D01*
X74765000Y-144003665D01*
X74765000Y-144286335D01*
X74820147Y-144563574D01*
X74928320Y-144824727D01*
X75085363Y-145059759D01*
X75285241Y-145259637D01*
X75520273Y-145416680D01*
X75781426Y-145524853D01*
X76058665Y-145580000D01*
X76341335Y-145580000D01*
X76618574Y-145524853D01*
X76879727Y-145416680D01*
X77114759Y-145259637D01*
X77236694Y-145137702D01*
X77886903Y-145137702D01*
X77958486Y-145381671D01*
X78213996Y-145502571D01*
X78488184Y-145571300D01*
X78770512Y-145585217D01*
X79050130Y-145543787D01*
X79316292Y-145448603D01*
X79441514Y-145381671D01*
X79513097Y-145137702D01*
X83046903Y-145137702D01*
X83118486Y-145381671D01*
X83373996Y-145502571D01*
X83648184Y-145571300D01*
X83930512Y-145585217D01*
X84210130Y-145543787D01*
X84476292Y-145448603D01*
X84601514Y-145381671D01*
X84673097Y-145137702D01*
X83860000Y-144324605D01*
X83046903Y-145137702D01*
X79513097Y-145137702D01*
X78700000Y-144324605D01*
X77886903Y-145137702D01*
X77236694Y-145137702D01*
X77314637Y-145059759D01*
X77448692Y-144859131D01*
X77463329Y-144886514D01*
X77707298Y-144958097D01*
X78520395Y-144145000D01*
X78879605Y-144145000D01*
X79692702Y-144958097D01*
X79936671Y-144886514D01*
X80057571Y-144631004D01*
X80126300Y-144356816D01*
X80133265Y-144215512D01*
X82419783Y-144215512D01*
X82461213Y-144495130D01*
X82556397Y-144761292D01*
X82623329Y-144886514D01*
X82867298Y-144958097D01*
X83680395Y-144145000D01*
X84039605Y-144145000D01*
X84852702Y-144958097D01*
X85096671Y-144886514D01*
X85110324Y-144857659D01*
X85245363Y-145059759D01*
X85445241Y-145259637D01*
X85680273Y-145416680D01*
X85941426Y-145524853D01*
X86218665Y-145580000D01*
X86501335Y-145580000D01*
X86778574Y-145524853D01*
X87039727Y-145416680D01*
X87274759Y-145259637D01*
X87474637Y-145059759D01*
X87631680Y-144824727D01*
X87739853Y-144563574D01*
X87795000Y-144286335D01*
X87795000Y-144003665D01*
X87739853Y-143726426D01*
X87631680Y-143465273D01*
X87474637Y-143230241D01*
X87274759Y-143030363D01*
X87039727Y-142873320D01*
X86778574Y-142765147D01*
X86501335Y-142710000D01*
X86218665Y-142710000D01*
X85941426Y-142765147D01*
X85680273Y-142873320D01*
X85445241Y-143030363D01*
X85245363Y-143230241D01*
X85111308Y-143430869D01*
X85096671Y-143403486D01*
X84852702Y-143331903D01*
X84039605Y-144145000D01*
X83680395Y-144145000D01*
X82867298Y-143331903D01*
X82623329Y-143403486D01*
X82502429Y-143658996D01*
X82433700Y-143933184D01*
X82419783Y-144215512D01*
X80133265Y-144215512D01*
X80140217Y-144074488D01*
X80098787Y-143794870D01*
X80003603Y-143528708D01*
X79936671Y-143403486D01*
X79692702Y-143331903D01*
X78879605Y-144145000D01*
X78520395Y-144145000D01*
X77707298Y-143331903D01*
X77463329Y-143403486D01*
X77449676Y-143432341D01*
X77314637Y-143230241D01*
X77236694Y-143152298D01*
X77886903Y-143152298D01*
X78700000Y-143965395D01*
X79513097Y-143152298D01*
X83046903Y-143152298D01*
X83860000Y-143965395D01*
X84673097Y-143152298D01*
X84601514Y-142908329D01*
X84346004Y-142787429D01*
X84071816Y-142718700D01*
X83789488Y-142704783D01*
X83509870Y-142746213D01*
X83243708Y-142841397D01*
X83118486Y-142908329D01*
X83046903Y-143152298D01*
X79513097Y-143152298D01*
X79441514Y-142908329D01*
X79186004Y-142787429D01*
X78911816Y-142718700D01*
X78629488Y-142704783D01*
X78349870Y-142746213D01*
X78083708Y-142841397D01*
X77958486Y-142908329D01*
X77886903Y-143152298D01*
X77236694Y-143152298D01*
X77114759Y-143030363D01*
X76879727Y-142873320D01*
X76618574Y-142765147D01*
X76341335Y-142710000D01*
X76058665Y-142710000D01*
X75781426Y-142765147D01*
X75520273Y-142873320D01*
X75285241Y-143030363D01*
X75085363Y-143230241D01*
X74928320Y-143465273D01*
X74820147Y-143726426D01*
X74765000Y-144003665D01*
X74461200Y-144003665D01*
X74461200Y-131715000D01*
X75879428Y-131715000D01*
X75879428Y-133715000D01*
X75891688Y-133839482D01*
X75927998Y-133959180D01*
X75986963Y-134069494D01*
X76066315Y-134166185D01*
X76163006Y-134245537D01*
X76273320Y-134304502D01*
X76393018Y-134340812D01*
X76517500Y-134353072D01*
X78422500Y-134353072D01*
X78546982Y-134340812D01*
X78666680Y-134304502D01*
X78776994Y-134245537D01*
X78873685Y-134166185D01*
X78953037Y-134069494D01*
X79002059Y-133977781D01*
X79143077Y-134090969D01*
X79418906Y-134234571D01*
X79637020Y-134305563D01*
X79883000Y-134185594D01*
X79883000Y-132842000D01*
X79863000Y-132842000D01*
X79863000Y-132588000D01*
X79883000Y-132588000D01*
X79883000Y-131244406D01*
X80137000Y-131244406D01*
X80137000Y-132588000D01*
X80157000Y-132588000D01*
X80157000Y-132842000D01*
X80137000Y-132842000D01*
X80137000Y-134185594D01*
X80382980Y-134305563D01*
X80601094Y-134234571D01*
X80876923Y-134090969D01*
X81119437Y-133896315D01*
X81274837Y-133711101D01*
X81422037Y-133890463D01*
X81663766Y-134088845D01*
X81939552Y-134236255D01*
X82238797Y-134327030D01*
X82550000Y-134357681D01*
X82861204Y-134327030D01*
X83160449Y-134236255D01*
X83436235Y-134088845D01*
X83677963Y-133890463D01*
X83876345Y-133648734D01*
X84023755Y-133372948D01*
X84114530Y-133073703D01*
X84137500Y-132840485D01*
X84137500Y-132589514D01*
X84114530Y-132356296D01*
X84023755Y-132057051D01*
X83876345Y-131781265D01*
X83677963Y-131539537D01*
X83436234Y-131341155D01*
X83160448Y-131193745D01*
X82861203Y-131102970D01*
X82550000Y-131072319D01*
X82238796Y-131102970D01*
X81939551Y-131193745D01*
X81663765Y-131341155D01*
X81422037Y-131539537D01*
X81274838Y-131718900D01*
X81119437Y-131533685D01*
X80876923Y-131339031D01*
X80601094Y-131195429D01*
X80382980Y-131124437D01*
X80137000Y-131244406D01*
X79883000Y-131244406D01*
X79637020Y-131124437D01*
X79418906Y-131195429D01*
X79143077Y-131339031D01*
X79002059Y-131452219D01*
X78953037Y-131360506D01*
X78873685Y-131263815D01*
X78776994Y-131184463D01*
X78666680Y-131125498D01*
X78546982Y-131089188D01*
X78422500Y-131076928D01*
X76517500Y-131076928D01*
X76393018Y-131089188D01*
X76273320Y-131125498D01*
X76163006Y-131184463D01*
X76066315Y-131263815D01*
X75986963Y-131360506D01*
X75927998Y-131470820D01*
X75891688Y-131590518D01*
X75879428Y-131715000D01*
X74461200Y-131715000D01*
X74461200Y-126132511D01*
X74553937Y-126039774D01*
X74667205Y-125870256D01*
X74745226Y-125681898D01*
X74785000Y-125481939D01*
X74785000Y-125278061D01*
X74763744Y-125171200D01*
X82255413Y-125171200D01*
X82785000Y-125700788D01*
X82785000Y-125831939D01*
X82824774Y-126031898D01*
X82902795Y-126220256D01*
X83016063Y-126389774D01*
X83160226Y-126533937D01*
X83329744Y-126647205D01*
X83518102Y-126725226D01*
X83718061Y-126765000D01*
X83921939Y-126765000D01*
X84121898Y-126725226D01*
X84310256Y-126647205D01*
X84479774Y-126533937D01*
X84623937Y-126389774D01*
X84737205Y-126220256D01*
X84815226Y-126031898D01*
X84855000Y-125831939D01*
X84855000Y-125628061D01*
X84815226Y-125428102D01*
X84737205Y-125239744D01*
X84623937Y-125070226D01*
X84479774Y-124926063D01*
X84310256Y-124812795D01*
X84121898Y-124734774D01*
X83921939Y-124695000D01*
X83790788Y-124695000D01*
X83077601Y-123981814D01*
X83055327Y-123954673D01*
X82947033Y-123865798D01*
X82823481Y-123799758D01*
X82689420Y-123759091D01*
X82584936Y-123748800D01*
X82584926Y-123748800D01*
X82550000Y-123745360D01*
X82515074Y-123748800D01*
X65522511Y-123748800D01*
X65429774Y-123656063D01*
X65260256Y-123542795D01*
X65071898Y-123464774D01*
X64871939Y-123425000D01*
X64668061Y-123425000D01*
X64468102Y-123464774D01*
X64351200Y-123513197D01*
X64351200Y-123094928D01*
X64354640Y-123060000D01*
X64351200Y-123025071D01*
X64351200Y-123025064D01*
X64340909Y-122920580D01*
X64339677Y-122916519D01*
X64300242Y-122786518D01*
X64234202Y-122662967D01*
X64167598Y-122581809D01*
X64167593Y-122581804D01*
X64145327Y-122554673D01*
X64118196Y-122532407D01*
X62461200Y-120875413D01*
X62461200Y-117074925D01*
X62464640Y-117039999D01*
X62461200Y-117005073D01*
X62461200Y-117005064D01*
X62450909Y-116900580D01*
X62410242Y-116766519D01*
X62344202Y-116642967D01*
X62255327Y-116534673D01*
X62228191Y-116512403D01*
X56853803Y-111138016D01*
X56831528Y-111110874D01*
X56723234Y-111021999D01*
X56599682Y-110955959D01*
X56465621Y-110915292D01*
X56361137Y-110905001D01*
X56361127Y-110905001D01*
X56326201Y-110901561D01*
X56291275Y-110905001D01*
X56041544Y-110905001D01*
X56095000Y-110636260D01*
X56095000Y-110343740D01*
X56068004Y-110208021D01*
X66150000Y-110208021D01*
X66150000Y-110771978D01*
X66166785Y-110942399D01*
X66233115Y-111161059D01*
X66340829Y-111362578D01*
X66485788Y-111539212D01*
X66662421Y-111684171D01*
X66863940Y-111791885D01*
X67082600Y-111858215D01*
X67310000Y-111880612D01*
X67537399Y-111858215D01*
X67756059Y-111791885D01*
X67944999Y-111690894D01*
X68133940Y-111791885D01*
X68352600Y-111858215D01*
X68580000Y-111880612D01*
X68807399Y-111858215D01*
X69016098Y-111794907D01*
X69080820Y-111829502D01*
X69200518Y-111865812D01*
X69325000Y-111878072D01*
X69564250Y-111875000D01*
X69723000Y-111716250D01*
X69723000Y-110943109D01*
X69723215Y-110942400D01*
X69740000Y-110771979D01*
X69740000Y-110617000D01*
X69977000Y-110617000D01*
X69977000Y-111716250D01*
X70135750Y-111875000D01*
X70375000Y-111878072D01*
X70499482Y-111865812D01*
X70619180Y-111829502D01*
X70729494Y-111770537D01*
X70826185Y-111691185D01*
X70905537Y-111594494D01*
X70964502Y-111484180D01*
X71000812Y-111364482D01*
X71013072Y-111240000D01*
X71010000Y-110775750D01*
X70851250Y-110617000D01*
X69977000Y-110617000D01*
X69740000Y-110617000D01*
X69740000Y-110208022D01*
X69723215Y-110037601D01*
X69723000Y-110036892D01*
X69723000Y-109263750D01*
X69977000Y-109263750D01*
X69977000Y-110363000D01*
X70851250Y-110363000D01*
X71010000Y-110204250D01*
X71013072Y-109740000D01*
X71000812Y-109615518D01*
X70964502Y-109495820D01*
X70905537Y-109385506D01*
X70826185Y-109288815D01*
X70729494Y-109209463D01*
X70619180Y-109150498D01*
X70499482Y-109114188D01*
X70375000Y-109101928D01*
X70135750Y-109105000D01*
X69977000Y-109263750D01*
X69723000Y-109263750D01*
X69564250Y-109105000D01*
X69340000Y-109102121D01*
X69340000Y-108710000D01*
X75440000Y-108710000D01*
X75440001Y-109271956D01*
X75285241Y-109375363D01*
X75085363Y-109575241D01*
X74928320Y-109810273D01*
X74820147Y-110071426D01*
X74765000Y-110348665D01*
X74765000Y-110631335D01*
X74820147Y-110908574D01*
X74928320Y-111169727D01*
X75085363Y-111404759D01*
X75285241Y-111604637D01*
X75520273Y-111761680D01*
X75781426Y-111869853D01*
X76058665Y-111925000D01*
X76341335Y-111925000D01*
X76618574Y-111869853D01*
X76879727Y-111761680D01*
X77114759Y-111604637D01*
X77314637Y-111404759D01*
X77471680Y-111169727D01*
X77579853Y-110908574D01*
X77635000Y-110631335D01*
X77635000Y-110348665D01*
X77579853Y-110071426D01*
X77471680Y-109810273D01*
X77314637Y-109575241D01*
X77114759Y-109375363D01*
X76960000Y-109271957D01*
X76960000Y-107987333D01*
X76963677Y-107950000D01*
X76949003Y-107801014D01*
X76905546Y-107657753D01*
X76834974Y-107525724D01*
X76740001Y-107409999D01*
X76624276Y-107315026D01*
X76492247Y-107244454D01*
X76348986Y-107200997D01*
X76237333Y-107190000D01*
X76200000Y-107186323D01*
X76162667Y-107190000D01*
X68617333Y-107190000D01*
X68580000Y-107186323D01*
X68542667Y-107190000D01*
X68431014Y-107200997D01*
X68287753Y-107244454D01*
X68155724Y-107315026D01*
X68039999Y-107409999D01*
X68021200Y-107432906D01*
X68021200Y-101704587D01*
X70978483Y-98747305D01*
X71160166Y-98822561D01*
X71524344Y-98895000D01*
X71895656Y-98895000D01*
X72259834Y-98822561D01*
X72602882Y-98680466D01*
X72911618Y-98474175D01*
X73174175Y-98211618D01*
X73380466Y-97902882D01*
X73522561Y-97559834D01*
X73595000Y-97195656D01*
X73595000Y-96824344D01*
X73590103Y-96799721D01*
X81775000Y-96799721D01*
X81775000Y-97220279D01*
X81857047Y-97632756D01*
X82017988Y-98021302D01*
X82251637Y-98370983D01*
X82549017Y-98668363D01*
X82898698Y-98902012D01*
X83287244Y-99062953D01*
X83699721Y-99145000D01*
X84120279Y-99145000D01*
X84532756Y-99062953D01*
X84921302Y-98902012D01*
X85270983Y-98668363D01*
X85568363Y-98370983D01*
X85802012Y-98021302D01*
X85962953Y-97632756D01*
X86025522Y-97318200D01*
X100096884Y-97318200D01*
X100119534Y-97372882D01*
X100325825Y-97681618D01*
X100588382Y-97944175D01*
X100897118Y-98150466D01*
X101240166Y-98292561D01*
X101604344Y-98365000D01*
X101975656Y-98365000D01*
X102339834Y-98292561D01*
X102682882Y-98150466D01*
X102991618Y-97944175D01*
X103254175Y-97681618D01*
X103460466Y-97372882D01*
X103602561Y-97029834D01*
X103675000Y-96665656D01*
X103675000Y-96294344D01*
X103602561Y-95930166D01*
X103460466Y-95587118D01*
X103254175Y-95278382D01*
X102991618Y-95015825D01*
X102682882Y-94809534D01*
X102339834Y-94667439D01*
X101975656Y-94595000D01*
X101604344Y-94595000D01*
X101240166Y-94667439D01*
X100897118Y-94809534D01*
X100588382Y-95015825D01*
X100325825Y-95278382D01*
X100119534Y-95587118D01*
X100096884Y-95641800D01*
X85561146Y-95641800D01*
X85270983Y-95351637D01*
X84921302Y-95117988D01*
X84532756Y-94957047D01*
X84120279Y-94875000D01*
X83699721Y-94875000D01*
X83287244Y-94957047D01*
X82898698Y-95117988D01*
X82549017Y-95351637D01*
X82251637Y-95649017D01*
X82017988Y-95998698D01*
X81857047Y-96387244D01*
X81775000Y-96799721D01*
X73590103Y-96799721D01*
X73522561Y-96460166D01*
X73380466Y-96117118D01*
X73174175Y-95808382D01*
X72911618Y-95545825D01*
X72602882Y-95339534D01*
X72259834Y-95197439D01*
X71895656Y-95125000D01*
X71524344Y-95125000D01*
X71160166Y-95197439D01*
X70817118Y-95339534D01*
X70508382Y-95545825D01*
X70245825Y-95808382D01*
X70039534Y-96117118D01*
X69897439Y-96460166D01*
X69825000Y-96824344D01*
X69825000Y-97195656D01*
X69897439Y-97559834D01*
X69972695Y-97741517D01*
X66831810Y-100882403D01*
X66804674Y-100904673D01*
X66782404Y-100931809D01*
X66782403Y-100931810D01*
X66715798Y-101012968D01*
X66649759Y-101136519D01*
X66609092Y-101270581D01*
X66595360Y-101410000D01*
X66598801Y-101444936D01*
X66598800Y-109348042D01*
X66485789Y-109440788D01*
X66340830Y-109617421D01*
X66233115Y-109818940D01*
X66166785Y-110037600D01*
X66150000Y-110208021D01*
X56068004Y-110208021D01*
X56037932Y-110056842D01*
X55925990Y-109786589D01*
X55763475Y-109543368D01*
X55556632Y-109336525D01*
X55374466Y-109214805D01*
X55491355Y-109145178D01*
X55707588Y-108950269D01*
X55881641Y-108716920D01*
X56006825Y-108454099D01*
X56051476Y-108306890D01*
X55930155Y-108077000D01*
X54737000Y-108077000D01*
X54737000Y-108097000D01*
X54483000Y-108097000D01*
X54483000Y-108077000D01*
X54463000Y-108077000D01*
X54463000Y-107823000D01*
X54483000Y-107823000D01*
X54483000Y-107803000D01*
X54737000Y-107803000D01*
X54737000Y-107823000D01*
X55930155Y-107823000D01*
X56051476Y-107593110D01*
X56006825Y-107445901D01*
X55881641Y-107183080D01*
X55707588Y-106949731D01*
X55491355Y-106754822D01*
X55374466Y-106685195D01*
X55556632Y-106563475D01*
X55763475Y-106356632D01*
X55925990Y-106113411D01*
X56037932Y-105843158D01*
X56095000Y-105556260D01*
X56095000Y-105263740D01*
X56037932Y-104976842D01*
X55925990Y-104706589D01*
X55763475Y-104463368D01*
X55556632Y-104256525D01*
X55313411Y-104094010D01*
X55043158Y-103982068D01*
X54756260Y-103925000D01*
X54463740Y-103925000D01*
X54176842Y-103982068D01*
X53906589Y-104094010D01*
X53663368Y-104256525D01*
X53531513Y-104388380D01*
X53509502Y-104315820D01*
X53450537Y-104205506D01*
X53371185Y-104108815D01*
X53274494Y-104029463D01*
X53164180Y-103970498D01*
X53044482Y-103934188D01*
X52920000Y-103921928D01*
X51485000Y-103921928D01*
X51485000Y-90749721D01*
X67625000Y-90749721D01*
X67625000Y-91170279D01*
X67707047Y-91582756D01*
X67867988Y-91971302D01*
X68101637Y-92320983D01*
X68399017Y-92618363D01*
X68748698Y-92852012D01*
X69137244Y-93012953D01*
X69549721Y-93095000D01*
X69970279Y-93095000D01*
X70382756Y-93012953D01*
X70771302Y-92852012D01*
X71120983Y-92618363D01*
X71418363Y-92320983D01*
X71652012Y-91971302D01*
X71723713Y-91798200D01*
X99947277Y-91798200D01*
X99977439Y-91949834D01*
X100119534Y-92292882D01*
X100325825Y-92601618D01*
X100588382Y-92864175D01*
X100897118Y-93070466D01*
X101240166Y-93212561D01*
X101604344Y-93285000D01*
X101975656Y-93285000D01*
X102339834Y-93212561D01*
X102682882Y-93070466D01*
X102991618Y-92864175D01*
X103254175Y-92601618D01*
X103460466Y-92292882D01*
X103602561Y-91949834D01*
X103675000Y-91585656D01*
X103675000Y-91214344D01*
X103602561Y-90850166D01*
X103460466Y-90507118D01*
X103254175Y-90198382D01*
X102991618Y-89935825D01*
X102682882Y-89729534D01*
X102339834Y-89587439D01*
X101975656Y-89515000D01*
X101604344Y-89515000D01*
X101240166Y-89587439D01*
X100897118Y-89729534D01*
X100588382Y-89935825D01*
X100402407Y-90121800D01*
X71723713Y-90121800D01*
X71652012Y-89948698D01*
X71418363Y-89599017D01*
X71120983Y-89301637D01*
X70771302Y-89067988D01*
X70382756Y-88907047D01*
X69970279Y-88825000D01*
X69549721Y-88825000D01*
X69137244Y-88907047D01*
X68748698Y-89067988D01*
X68399017Y-89301637D01*
X68101637Y-89599017D01*
X67867988Y-89948698D01*
X67707047Y-90337244D01*
X67625000Y-90749721D01*
X51485000Y-90749721D01*
X51485000Y-82540000D01*
X59723000Y-82540000D01*
X59723000Y-88610000D01*
X59725440Y-88634776D01*
X59732667Y-88658601D01*
X59744403Y-88680557D01*
X59760197Y-88699803D01*
X59779443Y-88715597D01*
X59801399Y-88727333D01*
X59825224Y-88734560D01*
X59850397Y-88736999D01*
X66240397Y-88716999D01*
X66265166Y-88714482D01*
X66288968Y-88707180D01*
X66310888Y-88695375D01*
X66330083Y-88679521D01*
X66345817Y-88660227D01*
X66357484Y-88638233D01*
X66364637Y-88614386D01*
X66366999Y-88589580D01*
X66354552Y-84824344D01*
X69825000Y-84824344D01*
X69825000Y-85195656D01*
X69897439Y-85559834D01*
X70039534Y-85902882D01*
X70245825Y-86211618D01*
X70508382Y-86474175D01*
X70817118Y-86680466D01*
X71160166Y-86822561D01*
X71524344Y-86895000D01*
X71895656Y-86895000D01*
X72259834Y-86822561D01*
X72602882Y-86680466D01*
X72911618Y-86474175D01*
X73174175Y-86211618D01*
X73380466Y-85902882D01*
X73522561Y-85559834D01*
X73595000Y-85195656D01*
X73595000Y-84824344D01*
X73580157Y-84749721D01*
X81825000Y-84749721D01*
X81825000Y-85170279D01*
X81907047Y-85582756D01*
X82067988Y-85971302D01*
X82301637Y-86320983D01*
X82599017Y-86618363D01*
X82948698Y-86852012D01*
X83337244Y-87012953D01*
X83749721Y-87095000D01*
X84170279Y-87095000D01*
X84582756Y-87012953D01*
X84971302Y-86852012D01*
X85320983Y-86618363D01*
X85618363Y-86320983D01*
X85852012Y-85971302D01*
X85923713Y-85798200D01*
X99901928Y-85798200D01*
X99901928Y-87570000D01*
X99914188Y-87694482D01*
X99950498Y-87814180D01*
X100009463Y-87924494D01*
X100088815Y-88021185D01*
X100185506Y-88100537D01*
X100295820Y-88159502D01*
X100415518Y-88195812D01*
X100540000Y-88208072D01*
X103040000Y-88208072D01*
X103164482Y-88195812D01*
X103284180Y-88159502D01*
X103394494Y-88100537D01*
X103491185Y-88021185D01*
X103570537Y-87924494D01*
X103629502Y-87814180D01*
X103665812Y-87694482D01*
X103678072Y-87570000D01*
X103678072Y-85070000D01*
X103665812Y-84945518D01*
X103629502Y-84825820D01*
X103570537Y-84715506D01*
X103491185Y-84618815D01*
X103394494Y-84539463D01*
X103284180Y-84480498D01*
X103164482Y-84444188D01*
X103040000Y-84431928D01*
X101087321Y-84431928D01*
X101051811Y-84396418D01*
X101025564Y-84364436D01*
X100897932Y-84259691D01*
X100752317Y-84181858D01*
X100594316Y-84133929D01*
X100471170Y-84121800D01*
X100471163Y-84121800D01*
X100430000Y-84117746D01*
X100388837Y-84121800D01*
X85923713Y-84121800D01*
X85852012Y-83948698D01*
X85618363Y-83599017D01*
X85320983Y-83301637D01*
X84971302Y-83067988D01*
X84582756Y-82907047D01*
X84170279Y-82825000D01*
X83749721Y-82825000D01*
X83337244Y-82907047D01*
X82948698Y-83067988D01*
X82599017Y-83301637D01*
X82301637Y-83599017D01*
X82067988Y-83948698D01*
X81907047Y-84337244D01*
X81825000Y-84749721D01*
X73580157Y-84749721D01*
X73522561Y-84460166D01*
X73380466Y-84117118D01*
X73174175Y-83808382D01*
X72911618Y-83545825D01*
X72602882Y-83339534D01*
X72259834Y-83197439D01*
X71895656Y-83125000D01*
X71524344Y-83125000D01*
X71160166Y-83197439D01*
X70817118Y-83339534D01*
X70508382Y-83545825D01*
X70245825Y-83808382D01*
X70039534Y-84117118D01*
X69897439Y-84460166D01*
X69825000Y-84824344D01*
X66354552Y-84824344D01*
X66346999Y-82539580D01*
X66344477Y-82514812D01*
X66337171Y-82491012D01*
X66325363Y-82469094D01*
X66309505Y-82449901D01*
X66290208Y-82434171D01*
X66268213Y-82422507D01*
X66244365Y-82415359D01*
X66220000Y-82413000D01*
X59850000Y-82413000D01*
X59825224Y-82415440D01*
X59801399Y-82422667D01*
X59779443Y-82434403D01*
X59760197Y-82450197D01*
X59744403Y-82469443D01*
X59732667Y-82491399D01*
X59725440Y-82515224D01*
X59723000Y-82540000D01*
X51485000Y-82540000D01*
X51485000Y-68478061D01*
X78975000Y-68478061D01*
X78975000Y-68681939D01*
X79014774Y-68881898D01*
X79092795Y-69070256D01*
X79206063Y-69239774D01*
X79250000Y-69283711D01*
X79250001Y-74226288D01*
X79206063Y-74270226D01*
X79092795Y-74439744D01*
X79014774Y-74628102D01*
X78975000Y-74828061D01*
X78975000Y-75031939D01*
X79014774Y-75231898D01*
X79092795Y-75420256D01*
X79206063Y-75589774D01*
X79350226Y-75733937D01*
X79519744Y-75847205D01*
X79708102Y-75925226D01*
X79908061Y-75965000D01*
X80111939Y-75965000D01*
X80311898Y-75925226D01*
X80500256Y-75847205D01*
X80669774Y-75733937D01*
X80813937Y-75589774D01*
X80927205Y-75420256D01*
X81005226Y-75231898D01*
X81045000Y-75031939D01*
X81045000Y-74828061D01*
X81005226Y-74628102D01*
X80927205Y-74439744D01*
X80813937Y-74270226D01*
X80770000Y-74226289D01*
X80770000Y-69283711D01*
X80813937Y-69239774D01*
X80927205Y-69070256D01*
X81005226Y-68881898D01*
X81045000Y-68681939D01*
X81045000Y-68478061D01*
X81005226Y-68278102D01*
X80927205Y-68089744D01*
X80813937Y-67920226D01*
X80669774Y-67776063D01*
X80500256Y-67662795D01*
X80311898Y-67584774D01*
X80111939Y-67545000D01*
X79908061Y-67545000D01*
X79708102Y-67584774D01*
X79519744Y-67662795D01*
X79350226Y-67776063D01*
X79206063Y-67920226D01*
X79092795Y-68089744D01*
X79014774Y-68278102D01*
X78975000Y-68478061D01*
X51485000Y-68478061D01*
X51485000Y-66135037D01*
X51636842Y-66197932D01*
X51923740Y-66255000D01*
X52216260Y-66255000D01*
X52503158Y-66197932D01*
X52773411Y-66085990D01*
X53016632Y-65923475D01*
X53223475Y-65716632D01*
X53340000Y-65542240D01*
X53456525Y-65716632D01*
X53663368Y-65923475D01*
X53906589Y-66085990D01*
X54176842Y-66197932D01*
X54463740Y-66255000D01*
X54756260Y-66255000D01*
X55043158Y-66197932D01*
X55313411Y-66085990D01*
X55556632Y-65923475D01*
X55763475Y-65716632D01*
X55925990Y-65473411D01*
X56037932Y-65203158D01*
X56095000Y-64916260D01*
X56095000Y-64623740D01*
X56037932Y-64336842D01*
X55925990Y-64066589D01*
X55763475Y-63823368D01*
X55556632Y-63616525D01*
X55382240Y-63500000D01*
X55556632Y-63383475D01*
X55763475Y-63176632D01*
X55925990Y-62933411D01*
X56037932Y-62663158D01*
X56095000Y-62376260D01*
X56095000Y-62083740D01*
X56037932Y-61796842D01*
X55925990Y-61526589D01*
X55763475Y-61283368D01*
X55556632Y-61076525D01*
X55382240Y-60960000D01*
X55556632Y-60843475D01*
X55763475Y-60636632D01*
X55925990Y-60393411D01*
X56037932Y-60123158D01*
X56095000Y-59836260D01*
X56095000Y-59543740D01*
X56041544Y-59274999D01*
X57368053Y-59274999D01*
X57402979Y-59278439D01*
X57437905Y-59274999D01*
X57437915Y-59274999D01*
X57542399Y-59264708D01*
X57676460Y-59224041D01*
X57800012Y-59158001D01*
X57908306Y-59069126D01*
X57930581Y-59041984D01*
X67387568Y-49584999D01*
X69131928Y-49584999D01*
X69131928Y-51150000D01*
X69144188Y-51274482D01*
X69180498Y-51394180D01*
X69239463Y-51504494D01*
X69318815Y-51601185D01*
X69415506Y-51680537D01*
X69525820Y-51739502D01*
X69645518Y-51775812D01*
X69770000Y-51788072D01*
X71220000Y-51788072D01*
X71344482Y-51775812D01*
X71464180Y-51739502D01*
X71574494Y-51680537D01*
X71671185Y-51601185D01*
X71750537Y-51504494D01*
X71809502Y-51394180D01*
X71845812Y-51274482D01*
X71858072Y-51150000D01*
X71858072Y-49577658D01*
X71888021Y-49574708D01*
X72022082Y-49534041D01*
X72145634Y-49468001D01*
X72253928Y-49379126D01*
X72276203Y-49351984D01*
X75748196Y-45879993D01*
X75775327Y-45857727D01*
X75797593Y-45830596D01*
X75797597Y-45830592D01*
X75803853Y-45822969D01*
X75820000Y-45818071D01*
X75836150Y-45822970D01*
X75864674Y-45857727D01*
X75891810Y-45879997D01*
X86226208Y-56214397D01*
X86248474Y-56241528D01*
X86275605Y-56263794D01*
X86275609Y-56263798D01*
X86356768Y-56330403D01*
X86480320Y-56396443D01*
X86614381Y-56437110D01*
X86718865Y-56447401D01*
X86718874Y-56447401D01*
X86753800Y-56450841D01*
X86788726Y-56447401D01*
X93933674Y-56447401D01*
X93822068Y-56716842D01*
X93765000Y-57003740D01*
X93765000Y-57296260D01*
X93822068Y-57583158D01*
X93934010Y-57853411D01*
X94096525Y-58096632D01*
X94303368Y-58303475D01*
X94477760Y-58420000D01*
X94303368Y-58536525D01*
X94096525Y-58743368D01*
X93934010Y-58986589D01*
X93822068Y-59256842D01*
X93765000Y-59543740D01*
X93765000Y-59836260D01*
X93822068Y-60123158D01*
X93934010Y-60393411D01*
X94096525Y-60636632D01*
X94303368Y-60843475D01*
X94477760Y-60960000D01*
X94303368Y-61076525D01*
X94096525Y-61283368D01*
X93934010Y-61526589D01*
X93822068Y-61796842D01*
X93765000Y-62083740D01*
X93765000Y-62376260D01*
X93822068Y-62663158D01*
X93934010Y-62933411D01*
X94096525Y-63176632D01*
X94303368Y-63383475D01*
X94477760Y-63500000D01*
X94303368Y-63616525D01*
X94096525Y-63823368D01*
X93934010Y-64066589D01*
X93822068Y-64336842D01*
X93765000Y-64623740D01*
X93765000Y-64916260D01*
X93822068Y-65203158D01*
X93934010Y-65473411D01*
X94096525Y-65716632D01*
X94303368Y-65923475D01*
X94546589Y-66085990D01*
X94816842Y-66197932D01*
X95103740Y-66255000D01*
X95396260Y-66255000D01*
X95683158Y-66197932D01*
X95953411Y-66085990D01*
X96196632Y-65923475D01*
X96403475Y-65716632D01*
X96520000Y-65542240D01*
X96636525Y-65716632D01*
X96843368Y-65923475D01*
X97086589Y-66085990D01*
X97356842Y-66197932D01*
X97643740Y-66255000D01*
X97936260Y-66255000D01*
X98223158Y-66197932D01*
X98493411Y-66085990D01*
X98736632Y-65923475D01*
X98943475Y-65716632D01*
X99105990Y-65473411D01*
X99217932Y-65203158D01*
X99275000Y-64916260D01*
X99275000Y-64623740D01*
X99217932Y-64336842D01*
X99105990Y-64066589D01*
X98943475Y-63823368D01*
X98736632Y-63616525D01*
X98562240Y-63500000D01*
X98736632Y-63383475D01*
X98943475Y-63176632D01*
X99105990Y-62933411D01*
X99217932Y-62663158D01*
X99275000Y-62376260D01*
X99275000Y-62083740D01*
X99217932Y-61796842D01*
X99105990Y-61526589D01*
X98943475Y-61283368D01*
X98736632Y-61076525D01*
X98562240Y-60960000D01*
X98736632Y-60843475D01*
X98943475Y-60636632D01*
X99105990Y-60393411D01*
X99217932Y-60123158D01*
X99275000Y-59836260D01*
X99275000Y-59543740D01*
X99217932Y-59256842D01*
X99105990Y-58986589D01*
X98943475Y-58743368D01*
X98736632Y-58536525D01*
X98562240Y-58420000D01*
X98736632Y-58303475D01*
X98943475Y-58096632D01*
X99105990Y-57853411D01*
X99217932Y-57583158D01*
X99275000Y-57296260D01*
X99275000Y-57003740D01*
X99217932Y-56716842D01*
X99105990Y-56446589D01*
X98943475Y-56203368D01*
X98736632Y-55996525D01*
X98562240Y-55880000D01*
X98736632Y-55763475D01*
X98943475Y-55556632D01*
X99105990Y-55313411D01*
X99217932Y-55043158D01*
X99275000Y-54756260D01*
X99275000Y-54463740D01*
X99217932Y-54176842D01*
X99105990Y-53906589D01*
X98943475Y-53663368D01*
X98736632Y-53456525D01*
X98562240Y-53340000D01*
X98736632Y-53223475D01*
X98943475Y-53016632D01*
X99105990Y-52773411D01*
X99217932Y-52503158D01*
X99275000Y-52216260D01*
X99275000Y-51923740D01*
X99217932Y-51636842D01*
X99105990Y-51366589D01*
X98943475Y-51123368D01*
X98736632Y-50916525D01*
X98562240Y-50800000D01*
X98736632Y-50683475D01*
X98943475Y-50476632D01*
X99105990Y-50233411D01*
X99217932Y-49963158D01*
X99275000Y-49676260D01*
X99275000Y-49383740D01*
X99217932Y-49096842D01*
X99105990Y-48826589D01*
X98943475Y-48583368D01*
X98736632Y-48376525D01*
X98562240Y-48260000D01*
X98736632Y-48143475D01*
X98943475Y-47936632D01*
X99105990Y-47693411D01*
X99217932Y-47423158D01*
X99275000Y-47136260D01*
X99275000Y-46843740D01*
X99217932Y-46556842D01*
X99105990Y-46286589D01*
X98943475Y-46043368D01*
X98736632Y-45836525D01*
X98562240Y-45720000D01*
X98736632Y-45603475D01*
X98943475Y-45396632D01*
X99105990Y-45153411D01*
X99217932Y-44883158D01*
X99275000Y-44596260D01*
X99275000Y-44303740D01*
X99217932Y-44016842D01*
X99105990Y-43746589D01*
X98943475Y-43503368D01*
X98736632Y-43296525D01*
X98554466Y-43174805D01*
X98671355Y-43105178D01*
X98887588Y-42910269D01*
X99061641Y-42676920D01*
X99186825Y-42414099D01*
X99231476Y-42266890D01*
X99110155Y-42037000D01*
X97917000Y-42037000D01*
X97917000Y-42057000D01*
X97663000Y-42057000D01*
X97663000Y-42037000D01*
X97643000Y-42037000D01*
X97643000Y-41783000D01*
X97663000Y-41783000D01*
X97663000Y-41763000D01*
X97917000Y-41763000D01*
X97917000Y-41783000D01*
X99110155Y-41783000D01*
X99231476Y-41553110D01*
X99186825Y-41405901D01*
X99148291Y-41325000D01*
X105995000Y-41325000D01*
X105995000Y-76922976D01*
G04 #@! TA.AperFunction,Conductor*
D38*
G36*
X105995000Y-76922976D02*
G01*
X99370575Y-76893001D01*
X99345787Y-76895329D01*
X99321931Y-76902449D01*
X99299921Y-76914085D01*
X99280605Y-76929792D01*
X99264724Y-76948965D01*
X99252888Y-76970869D01*
X99245554Y-76994660D01*
X99243000Y-77020000D01*
X99243000Y-83190000D01*
X99245440Y-83214776D01*
X99252667Y-83238601D01*
X99264403Y-83260557D01*
X99280197Y-83279803D01*
X99299443Y-83295597D01*
X99321399Y-83307333D01*
X99345224Y-83314560D01*
X99370577Y-83316999D01*
X105970577Y-83286999D01*
X105995000Y-83284481D01*
X105995001Y-147555697D01*
X105971308Y-147539866D01*
X105755652Y-147450539D01*
X105526712Y-147405000D01*
X105293288Y-147405000D01*
X105064348Y-147450539D01*
X104848692Y-147539866D01*
X104654606Y-147669550D01*
X104489550Y-147834606D01*
X104455910Y-147884952D01*
X104407537Y-147768169D01*
X104217663Y-147484002D01*
X103975998Y-147242337D01*
X103691831Y-147052463D01*
X103376081Y-146921675D01*
X103040883Y-146855000D01*
X102699117Y-146855000D01*
X102363919Y-146921675D01*
X102048169Y-147052463D01*
X101764002Y-147242337D01*
X101522337Y-147484002D01*
X101332463Y-147768169D01*
X101201675Y-148083919D01*
X101135000Y-148419117D01*
X101135000Y-148760883D01*
X101201675Y-149096081D01*
X101332463Y-149411831D01*
X101399690Y-149512443D01*
X101318815Y-149578815D01*
X101239463Y-149675506D01*
X101180498Y-149785820D01*
X101144188Y-149905518D01*
X101131928Y-150030000D01*
X101131928Y-152230000D01*
X101144188Y-152354482D01*
X101180498Y-152474180D01*
X101239463Y-152584494D01*
X101318815Y-152681185D01*
X101415506Y-152760537D01*
X101525820Y-152819502D01*
X101645518Y-152855812D01*
X101770000Y-152868072D01*
X103970000Y-152868072D01*
X104094482Y-152855812D01*
X104214180Y-152819502D01*
X104324494Y-152760537D01*
X104421185Y-152681185D01*
X104500537Y-152584494D01*
X104559502Y-152474180D01*
X104595812Y-152354482D01*
X104608072Y-152230000D01*
X104608072Y-152003916D01*
X104654606Y-152050450D01*
X104848692Y-152180134D01*
X105064348Y-152269461D01*
X105293288Y-152315000D01*
X105526712Y-152315000D01*
X105755652Y-152269461D01*
X105971308Y-152180134D01*
X105995001Y-152164303D01*
X105995001Y-164415000D01*
X89427263Y-164415000D01*
X89477205Y-164340256D01*
X89555226Y-164151898D01*
X89595000Y-163951939D01*
X89595000Y-163748061D01*
X89555226Y-163548102D01*
X89477205Y-163359744D01*
X89363937Y-163190226D01*
X89271200Y-163097489D01*
X89271200Y-153840000D01*
X90971928Y-153840000D01*
X90971928Y-156040000D01*
X90984188Y-156164482D01*
X91020498Y-156284180D01*
X91079463Y-156394494D01*
X91158815Y-156491185D01*
X91255506Y-156570537D01*
X91365820Y-156629502D01*
X91485518Y-156665812D01*
X91610000Y-156678072D01*
X93810000Y-156678072D01*
X93934482Y-156665812D01*
X94054180Y-156629502D01*
X94164494Y-156570537D01*
X94261185Y-156491185D01*
X94340537Y-156394494D01*
X94399502Y-156284180D01*
X94435812Y-156164482D01*
X94448072Y-156040000D01*
X94448072Y-153840000D01*
X94435812Y-153715518D01*
X94399502Y-153595820D01*
X94340537Y-153485506D01*
X94261185Y-153388815D01*
X94164494Y-153309463D01*
X94054180Y-153250498D01*
X93934482Y-153214188D01*
X93810000Y-153201928D01*
X91610000Y-153201928D01*
X91485518Y-153214188D01*
X91365820Y-153250498D01*
X91255506Y-153309463D01*
X91158815Y-153388815D01*
X91079463Y-153485506D01*
X91020498Y-153595820D01*
X90984188Y-153715518D01*
X90971928Y-153840000D01*
X89271200Y-153840000D01*
X89271200Y-144609117D01*
X90975000Y-144609117D01*
X90975000Y-144950883D01*
X91041675Y-145286081D01*
X91172463Y-145601831D01*
X91362337Y-145885998D01*
X91604002Y-146127663D01*
X91888169Y-146317537D01*
X92203919Y-146448325D01*
X92539117Y-146515000D01*
X92880883Y-146515000D01*
X93216081Y-146448325D01*
X93531831Y-146317537D01*
X93815998Y-146127663D01*
X94057663Y-145885998D01*
X94247537Y-145601831D01*
X94378325Y-145286081D01*
X94445000Y-144950883D01*
X94445000Y-144609117D01*
X94378325Y-144273919D01*
X94247537Y-143958169D01*
X94057663Y-143674002D01*
X93815998Y-143432337D01*
X93531831Y-143242463D01*
X93216081Y-143111675D01*
X92880883Y-143045000D01*
X92539117Y-143045000D01*
X92203919Y-143111675D01*
X91888169Y-143242463D01*
X91604002Y-143432337D01*
X91362337Y-143674002D01*
X91172463Y-143958169D01*
X91041675Y-144273919D01*
X90975000Y-144609117D01*
X89271200Y-144609117D01*
X89271200Y-127579666D01*
X89279774Y-127573937D01*
X89423937Y-127429774D01*
X89537205Y-127260256D01*
X89615226Y-127071898D01*
X89655000Y-126871939D01*
X89655000Y-126668061D01*
X89615226Y-126468102D01*
X89537205Y-126279744D01*
X89423937Y-126110226D01*
X89279774Y-125966063D01*
X89110256Y-125852795D01*
X88921898Y-125774774D01*
X88721939Y-125735000D01*
X88630788Y-125735000D01*
X93765000Y-120600789D01*
X93765000Y-120796260D01*
X93822068Y-121083158D01*
X93934010Y-121353411D01*
X94096525Y-121596632D01*
X94303368Y-121803475D01*
X94477760Y-121920000D01*
X94303368Y-122036525D01*
X94096525Y-122243368D01*
X93934010Y-122486589D01*
X93822068Y-122756842D01*
X93765000Y-123043740D01*
X93765000Y-123336260D01*
X93822068Y-123623158D01*
X93934010Y-123893411D01*
X94096525Y-124136632D01*
X94303368Y-124343475D01*
X94477760Y-124460000D01*
X94303368Y-124576525D01*
X94096525Y-124783368D01*
X93934010Y-125026589D01*
X93822068Y-125296842D01*
X93765000Y-125583740D01*
X93765000Y-125876260D01*
X93822068Y-126163158D01*
X93934010Y-126433411D01*
X94096525Y-126676632D01*
X94303368Y-126883475D01*
X94477760Y-127000000D01*
X94303368Y-127116525D01*
X94096525Y-127323368D01*
X93934010Y-127566589D01*
X93822068Y-127836842D01*
X93765000Y-128123740D01*
X93765000Y-128416260D01*
X93822068Y-128703158D01*
X93934010Y-128973411D01*
X94096525Y-129216632D01*
X94303368Y-129423475D01*
X94546589Y-129585990D01*
X94816842Y-129697932D01*
X95103740Y-129755000D01*
X95396260Y-129755000D01*
X95683158Y-129697932D01*
X95953411Y-129585990D01*
X96196632Y-129423475D01*
X96403475Y-129216632D01*
X96520000Y-129042240D01*
X96636525Y-129216632D01*
X96843368Y-129423475D01*
X97078800Y-129580786D01*
X97078801Y-138395064D01*
X97075360Y-138430000D01*
X97078801Y-138464936D01*
X97089092Y-138569420D01*
X97129759Y-138703481D01*
X97195799Y-138827033D01*
X97284674Y-138935327D01*
X97311810Y-138957597D01*
X99802407Y-141448196D01*
X99824673Y-141475327D01*
X99851804Y-141497593D01*
X99851808Y-141497597D01*
X99932967Y-141564202D01*
X100056519Y-141630242D01*
X100190580Y-141670909D01*
X100295064Y-141681200D01*
X100295081Y-141681200D01*
X100329999Y-141684639D01*
X100364917Y-141681200D01*
X101181928Y-141681200D01*
X101181928Y-142020000D01*
X101194188Y-142144482D01*
X101230498Y-142264180D01*
X101289463Y-142374494D01*
X101368815Y-142471185D01*
X101465506Y-142550537D01*
X101575820Y-142609502D01*
X101695518Y-142645812D01*
X101820000Y-142658072D01*
X103920000Y-142658072D01*
X104044482Y-142645812D01*
X104164180Y-142609502D01*
X104274494Y-142550537D01*
X104371185Y-142471185D01*
X104450537Y-142374494D01*
X104509502Y-142264180D01*
X104545812Y-142144482D01*
X104558072Y-142020000D01*
X104558072Y-139920000D01*
X104545812Y-139795518D01*
X104509502Y-139675820D01*
X104450537Y-139565506D01*
X104371185Y-139468815D01*
X104274494Y-139389463D01*
X104212918Y-139356549D01*
X104310579Y-139319661D01*
X104456463Y-139021523D01*
X104541380Y-138700654D01*
X104562066Y-138369383D01*
X104517728Y-138040443D01*
X104410069Y-137726473D01*
X104310579Y-137540339D01*
X104041066Y-137438539D01*
X103049605Y-138430000D01*
X103063748Y-138444143D01*
X102884143Y-138623748D01*
X102870000Y-138609605D01*
X102855858Y-138623748D01*
X102676253Y-138444143D01*
X102690395Y-138430000D01*
X101698934Y-137438539D01*
X101429421Y-137540339D01*
X101283537Y-137838477D01*
X101198620Y-138159346D01*
X101177934Y-138490617D01*
X101222272Y-138819557D01*
X101329931Y-139133527D01*
X101429421Y-139319661D01*
X101527082Y-139356549D01*
X101465506Y-139389463D01*
X101368815Y-139468815D01*
X101289463Y-139565506D01*
X101230498Y-139675820D01*
X101194188Y-139795518D01*
X101181928Y-139920000D01*
X101181928Y-140258800D01*
X100624589Y-140258800D01*
X98501200Y-138135413D01*
X98501200Y-135724042D01*
X101185000Y-135724042D01*
X101185000Y-136055958D01*
X101249754Y-136381496D01*
X101376772Y-136688147D01*
X101561175Y-136964125D01*
X101795875Y-137198825D01*
X101880009Y-137255042D01*
X101878539Y-137258934D01*
X102870000Y-138250395D01*
X103861461Y-137258934D01*
X103859991Y-137255042D01*
X103944125Y-137198825D01*
X104178825Y-136964125D01*
X104363228Y-136688147D01*
X104490246Y-136381496D01*
X104555000Y-136055958D01*
X104555000Y-135724042D01*
X104490246Y-135398504D01*
X104363228Y-135091853D01*
X104178825Y-134815875D01*
X103944125Y-134581175D01*
X103668147Y-134396772D01*
X103361496Y-134269754D01*
X103035958Y-134205000D01*
X102704042Y-134205000D01*
X102378504Y-134269754D01*
X102071853Y-134396772D01*
X101795875Y-134581175D01*
X101561175Y-134815875D01*
X101376772Y-135091853D01*
X101249754Y-135398504D01*
X101185000Y-135724042D01*
X98501200Y-135724042D01*
X98501200Y-129580786D01*
X98736632Y-129423475D01*
X98943475Y-129216632D01*
X99105990Y-128973411D01*
X99217932Y-128703158D01*
X99275000Y-128416260D01*
X99275000Y-128123740D01*
X99217932Y-127836842D01*
X99105990Y-127566589D01*
X98943475Y-127323368D01*
X98736632Y-127116525D01*
X98562240Y-127000000D01*
X98736632Y-126883475D01*
X98943475Y-126676632D01*
X99105990Y-126433411D01*
X99217932Y-126163158D01*
X99275000Y-125876260D01*
X99275000Y-125583740D01*
X99217932Y-125296842D01*
X99105990Y-125026589D01*
X98943475Y-124783368D01*
X98736632Y-124576525D01*
X98562240Y-124460000D01*
X98736632Y-124343475D01*
X98943475Y-124136632D01*
X99105990Y-123893411D01*
X99217932Y-123623158D01*
X99275000Y-123336260D01*
X99275000Y-123043740D01*
X99217932Y-122756842D01*
X99105990Y-122486589D01*
X98943475Y-122243368D01*
X98736632Y-122036525D01*
X98562240Y-121920000D01*
X98736632Y-121803475D01*
X98943475Y-121596632D01*
X99105990Y-121353411D01*
X99217932Y-121083158D01*
X99275000Y-120796260D01*
X99275000Y-120503740D01*
X99217932Y-120216842D01*
X99105990Y-119946589D01*
X98943475Y-119703368D01*
X98736632Y-119496525D01*
X98562240Y-119380000D01*
X98736632Y-119263475D01*
X98943475Y-119056632D01*
X99105990Y-118813411D01*
X99217932Y-118543158D01*
X99275000Y-118256260D01*
X99275000Y-117963740D01*
X99217932Y-117676842D01*
X99105990Y-117406589D01*
X98943475Y-117163368D01*
X98736632Y-116956525D01*
X98562240Y-116840000D01*
X98736632Y-116723475D01*
X98943475Y-116516632D01*
X99105990Y-116273411D01*
X99217932Y-116003158D01*
X99275000Y-115716260D01*
X99275000Y-115423740D01*
X99217932Y-115136842D01*
X99105990Y-114866589D01*
X98943475Y-114623368D01*
X98736632Y-114416525D01*
X98562240Y-114300000D01*
X98736632Y-114183475D01*
X98943475Y-113976632D01*
X99105990Y-113733411D01*
X99217932Y-113463158D01*
X99275000Y-113176260D01*
X99275000Y-112883740D01*
X99217932Y-112596842D01*
X99105990Y-112326589D01*
X98943475Y-112083368D01*
X98736632Y-111876525D01*
X98562240Y-111760000D01*
X98736632Y-111643475D01*
X98943475Y-111436632D01*
X99105990Y-111193411D01*
X99217932Y-110923158D01*
X99275000Y-110636260D01*
X99275000Y-110343740D01*
X99217932Y-110056842D01*
X99105990Y-109786589D01*
X98943475Y-109543368D01*
X98736632Y-109336525D01*
X98562240Y-109220000D01*
X98736632Y-109103475D01*
X98943475Y-108896632D01*
X99105990Y-108653411D01*
X99217932Y-108383158D01*
X99275000Y-108096260D01*
X99275000Y-107803740D01*
X99217932Y-107516842D01*
X99105990Y-107246589D01*
X98943475Y-107003368D01*
X98736632Y-106796525D01*
X98554466Y-106674805D01*
X98671355Y-106605178D01*
X98887588Y-106410269D01*
X99061641Y-106176920D01*
X99186825Y-105914099D01*
X99231476Y-105766890D01*
X99110155Y-105537000D01*
X97917000Y-105537000D01*
X97917000Y-105557000D01*
X97663000Y-105557000D01*
X97663000Y-105537000D01*
X97643000Y-105537000D01*
X97643000Y-105283000D01*
X97663000Y-105283000D01*
X97663000Y-104089186D01*
X97917000Y-104089186D01*
X97917000Y-105283000D01*
X99110155Y-105283000D01*
X99231476Y-105053110D01*
X99186825Y-104905901D01*
X99061641Y-104643080D01*
X98887588Y-104409731D01*
X98671355Y-104214822D01*
X98421252Y-104065843D01*
X98146891Y-103968519D01*
X97917000Y-104089186D01*
X97663000Y-104089186D01*
X97433109Y-103968519D01*
X97158748Y-104065843D01*
X96908645Y-104214822D01*
X96712498Y-104391626D01*
X96689502Y-104315820D01*
X96630537Y-104205506D01*
X96551185Y-104108815D01*
X96454494Y-104029463D01*
X96344180Y-103970498D01*
X96224482Y-103934188D01*
X96100000Y-103921928D01*
X94400000Y-103921928D01*
X94275518Y-103934188D01*
X94155820Y-103970498D01*
X94045506Y-104029463D01*
X93948815Y-104108815D01*
X93869463Y-104205506D01*
X93810498Y-104315820D01*
X93774188Y-104435518D01*
X93761928Y-104560000D01*
X93761928Y-104650000D01*
X92747323Y-104650000D01*
X92710000Y-104646324D01*
X92672677Y-104650000D01*
X92672667Y-104650000D01*
X92561014Y-104660997D01*
X92417753Y-104704454D01*
X92285723Y-104775026D01*
X92202083Y-104843668D01*
X92169999Y-104869999D01*
X92146201Y-104898997D01*
X87472297Y-109572901D01*
X87274759Y-109375363D01*
X87039727Y-109218320D01*
X86778574Y-109110147D01*
X86501335Y-109055000D01*
X86218665Y-109055000D01*
X85941426Y-109110147D01*
X85680273Y-109218320D01*
X85445241Y-109375363D01*
X85245363Y-109575241D01*
X85088320Y-109810273D01*
X84980147Y-110071426D01*
X84925000Y-110348665D01*
X84925000Y-110631335D01*
X84980147Y-110908574D01*
X85088320Y-111169727D01*
X85245363Y-111404759D01*
X85445241Y-111604637D01*
X85680273Y-111761680D01*
X85941426Y-111869853D01*
X86218665Y-111925000D01*
X86501335Y-111925000D01*
X86778574Y-111869853D01*
X87039727Y-111761680D01*
X87274759Y-111604637D01*
X87474637Y-111404759D01*
X87578043Y-111250000D01*
X87592678Y-111250000D01*
X87630000Y-111253676D01*
X87667322Y-111250000D01*
X87667333Y-111250000D01*
X87778986Y-111239003D01*
X87922247Y-111195546D01*
X88054276Y-111124974D01*
X88170001Y-111030001D01*
X88193804Y-111000997D01*
X93024802Y-106170000D01*
X93761928Y-106170000D01*
X93761928Y-106260000D01*
X93774188Y-106384482D01*
X93810498Y-106504180D01*
X93869463Y-106614494D01*
X93948815Y-106711185D01*
X94045506Y-106790537D01*
X94155820Y-106849502D01*
X94228380Y-106871513D01*
X94096525Y-107003368D01*
X93934010Y-107246589D01*
X93822068Y-107516842D01*
X93765000Y-107803740D01*
X93765000Y-108096260D01*
X93822068Y-108383158D01*
X93934010Y-108653411D01*
X94096525Y-108896632D01*
X94303368Y-109103475D01*
X94477760Y-109220000D01*
X94303368Y-109336525D01*
X94096525Y-109543368D01*
X93934010Y-109786589D01*
X93822068Y-110056842D01*
X93765000Y-110343740D01*
X93765000Y-110636260D01*
X93822068Y-110923158D01*
X93934010Y-111193411D01*
X94096525Y-111436632D01*
X94303368Y-111643475D01*
X94477760Y-111760000D01*
X94303368Y-111876525D01*
X94096525Y-112083368D01*
X93934010Y-112326589D01*
X93822068Y-112596842D01*
X93765000Y-112883740D01*
X93765000Y-113176260D01*
X93822068Y-113463158D01*
X93934010Y-113733411D01*
X94096525Y-113976632D01*
X94303368Y-114183475D01*
X94477760Y-114300000D01*
X94303368Y-114416525D01*
X94096525Y-114623368D01*
X93939214Y-114858800D01*
X75294917Y-114858800D01*
X75259999Y-114855361D01*
X75225081Y-114858800D01*
X75225064Y-114858800D01*
X75120580Y-114869091D01*
X74986519Y-114909758D01*
X74862967Y-114975798D01*
X74862965Y-114975799D01*
X74862966Y-114975799D01*
X74781808Y-115042403D01*
X74781804Y-115042407D01*
X74754673Y-115064673D01*
X74732407Y-115091804D01*
X73271810Y-116552403D01*
X73244674Y-116574673D01*
X73222404Y-116601809D01*
X73222403Y-116601810D01*
X73155798Y-116682968D01*
X73089759Y-116806519D01*
X73049092Y-116940581D01*
X73035360Y-117080000D01*
X73038801Y-117114936D01*
X73038800Y-120397489D01*
X72946063Y-120490226D01*
X72832795Y-120659744D01*
X72754774Y-120848102D01*
X72715000Y-121048061D01*
X72715000Y-121251939D01*
X72754774Y-121451898D01*
X72832795Y-121640256D01*
X72946063Y-121809774D01*
X73090226Y-121953937D01*
X73259744Y-122067205D01*
X73448102Y-122145226D01*
X73648061Y-122185000D01*
X73851939Y-122185000D01*
X74051898Y-122145226D01*
X74240256Y-122067205D01*
X74409774Y-121953937D01*
X74553937Y-121809774D01*
X74667205Y-121640256D01*
X74745226Y-121451898D01*
X74785000Y-121251939D01*
X74785000Y-121048061D01*
X74745226Y-120848102D01*
X74667205Y-120659744D01*
X74553937Y-120490226D01*
X74461200Y-120397489D01*
X74461200Y-117374587D01*
X75554589Y-116281200D01*
X93939214Y-116281200D01*
X94096525Y-116516632D01*
X94303368Y-116723475D01*
X94477760Y-116840000D01*
X94303368Y-116956525D01*
X94096525Y-117163368D01*
X93934010Y-117406589D01*
X93822068Y-117676842D01*
X93765000Y-117963740D01*
X93765000Y-118256260D01*
X93820241Y-118533971D01*
X84005413Y-128348800D01*
X79062511Y-128348800D01*
X78969774Y-128256063D01*
X78800256Y-128142795D01*
X78611898Y-128064774D01*
X78411939Y-128025000D01*
X78208061Y-128025000D01*
X78008102Y-128064774D01*
X77819744Y-128142795D01*
X77650226Y-128256063D01*
X77506063Y-128400226D01*
X77392795Y-128569744D01*
X77314774Y-128758102D01*
X77275000Y-128958061D01*
X77275000Y-129161939D01*
X77314774Y-129361898D01*
X77392795Y-129550256D01*
X77506063Y-129719774D01*
X77650226Y-129863937D01*
X77819744Y-129977205D01*
X78008102Y-130055226D01*
X78208061Y-130095000D01*
X78411939Y-130095000D01*
X78611898Y-130055226D01*
X78800256Y-129977205D01*
X78969774Y-129863937D01*
X79062511Y-129771200D01*
X84265074Y-129771200D01*
X84300000Y-129774640D01*
X84334926Y-129771200D01*
X84334936Y-129771200D01*
X84439420Y-129760909D01*
X84573481Y-129720242D01*
X84697033Y-129654202D01*
X84805327Y-129565327D01*
X84827602Y-129538185D01*
X87585000Y-126780788D01*
X87585000Y-126871939D01*
X87624774Y-127071898D01*
X87702795Y-127260256D01*
X87816063Y-127429774D01*
X87848801Y-127462512D01*
X87848801Y-137094038D01*
X81689403Y-137123001D01*
X81664638Y-137125558D01*
X81640848Y-137132897D01*
X81618947Y-137144736D01*
X81599776Y-137160621D01*
X81584073Y-137179940D01*
X81572440Y-137201951D01*
X81565325Y-137225810D01*
X81563000Y-137250000D01*
X81563000Y-142540000D01*
X81565440Y-142564776D01*
X81572667Y-142588601D01*
X81584403Y-142610557D01*
X81600197Y-142629803D01*
X81619443Y-142645597D01*
X81641399Y-142657333D01*
X81665224Y-142664560D01*
X81690991Y-142666996D01*
X87848800Y-142618963D01*
X87848800Y-150244699D01*
X87834531Y-150215671D01*
X87627822Y-149945573D01*
X87372391Y-149720992D01*
X87078054Y-149550558D01*
X86756123Y-149440821D01*
X86487000Y-149558400D01*
X86487000Y-151003000D01*
X86507000Y-151003000D01*
X86507000Y-151257000D01*
X86487000Y-151257000D01*
X86487000Y-152701600D01*
X86756123Y-152819179D01*
X87078054Y-152709442D01*
X87372391Y-152539008D01*
X87627822Y-152314427D01*
X87834531Y-152044329D01*
X87848800Y-152015301D01*
X87848800Y-163097489D01*
X87756063Y-163190226D01*
X87642795Y-163359744D01*
X87564774Y-163548102D01*
X87525000Y-163748061D01*
X87525000Y-163951939D01*
X87564774Y-164151898D01*
X87642795Y-164340256D01*
X87692737Y-164415000D01*
X51485000Y-164415000D01*
X51485000Y-156797239D01*
X51557748Y-156869987D01*
X51825537Y-157048918D01*
X52123088Y-157172168D01*
X52438967Y-157235000D01*
X52761033Y-157235000D01*
X53076912Y-157172168D01*
X53118056Y-157155125D01*
X52939334Y-157274544D01*
X52624544Y-157589334D01*
X52377214Y-157959489D01*
X52206851Y-158370782D01*
X52120000Y-158807409D01*
X52120000Y-159252591D01*
X52206851Y-159689218D01*
X52377214Y-160100511D01*
X52624544Y-160470666D01*
X52939334Y-160785456D01*
X53309489Y-161032786D01*
X53720782Y-161203149D01*
X54157409Y-161290000D01*
X54602591Y-161290000D01*
X55039218Y-161203149D01*
X55450511Y-161032786D01*
X55820666Y-160785456D01*
X56135456Y-160470666D01*
X56382786Y-160100511D01*
X56553149Y-159689218D01*
X56640000Y-159252591D01*
X56640000Y-158807409D01*
X56553149Y-158370782D01*
X56382786Y-157959489D01*
X56135456Y-157589334D01*
X55820666Y-157274544D01*
X55450511Y-157027214D01*
X55039218Y-156856851D01*
X54602591Y-156770000D01*
X54157409Y-156770000D01*
X53720782Y-156856851D01*
X53565895Y-156921007D01*
X53642252Y-156869987D01*
X53869987Y-156642252D01*
X54048918Y-156374463D01*
X54172168Y-156076912D01*
X54235000Y-155761033D01*
X54235000Y-155438967D01*
X54172168Y-155123088D01*
X54048918Y-154825537D01*
X53869987Y-154557748D01*
X53642252Y-154330013D01*
X53374463Y-154151082D01*
X53076912Y-154027832D01*
X52761033Y-153965000D01*
X52438967Y-153965000D01*
X52123088Y-154027832D01*
X51825537Y-154151082D01*
X51557748Y-154330013D01*
X51485000Y-154402761D01*
X51485000Y-129635037D01*
X51636842Y-129697932D01*
X51923740Y-129755000D01*
X52216260Y-129755000D01*
X52503158Y-129697932D01*
X52773411Y-129585990D01*
X53016632Y-129423475D01*
X53223475Y-129216632D01*
X53340000Y-129042240D01*
X53456525Y-129216632D01*
X53663368Y-129423475D01*
X53906589Y-129585990D01*
X54176842Y-129697932D01*
X54463740Y-129755000D01*
X54756260Y-129755000D01*
X55043158Y-129697932D01*
X55313411Y-129585990D01*
X55556632Y-129423475D01*
X55763475Y-129216632D01*
X55925990Y-128973411D01*
X56037932Y-128703158D01*
X56095000Y-128416260D01*
X56095000Y-128123740D01*
X56037932Y-127836842D01*
X55925990Y-127566589D01*
X55763475Y-127323368D01*
X55556632Y-127116525D01*
X55382240Y-127000000D01*
X55556632Y-126883475D01*
X55763475Y-126676632D01*
X55925990Y-126433411D01*
X56037932Y-126163158D01*
X56095000Y-125876260D01*
X56095000Y-125583740D01*
X56037932Y-125296842D01*
X55985890Y-125171200D01*
X61477489Y-125171200D01*
X61570226Y-125263937D01*
X61739744Y-125377205D01*
X61928102Y-125455226D01*
X62128061Y-125495000D01*
X62331939Y-125495000D01*
X62531898Y-125455226D01*
X62720256Y-125377205D01*
X62889774Y-125263937D01*
X62928800Y-125224911D01*
X62928800Y-125695074D01*
X62925360Y-125730000D01*
X62928800Y-125764926D01*
X62928800Y-125764935D01*
X62939091Y-125869419D01*
X62979758Y-126003480D01*
X63045798Y-126127032D01*
X63134673Y-126235326D01*
X63161810Y-126257597D01*
X71478801Y-134574589D01*
X71478800Y-160638800D01*
X68667322Y-160638800D01*
X68835456Y-160470666D01*
X69082786Y-160100511D01*
X69253149Y-159689218D01*
X69340000Y-159252591D01*
X69340000Y-158807409D01*
X69253149Y-158370782D01*
X69082786Y-157959489D01*
X68835456Y-157589334D01*
X68520666Y-157274544D01*
X68341944Y-157155125D01*
X68383088Y-157172168D01*
X68698967Y-157235000D01*
X69021033Y-157235000D01*
X69336912Y-157172168D01*
X69634463Y-157048918D01*
X69902252Y-156869987D01*
X70129987Y-156642252D01*
X70308918Y-156374463D01*
X70432168Y-156076912D01*
X70495000Y-155761033D01*
X70495000Y-155438967D01*
X70432168Y-155123088D01*
X70308918Y-154825537D01*
X70129987Y-154557748D01*
X69902252Y-154330013D01*
X69634463Y-154151082D01*
X69336912Y-154027832D01*
X69021033Y-153965000D01*
X68698967Y-153965000D01*
X68383088Y-154027832D01*
X68085537Y-154151082D01*
X67817748Y-154330013D01*
X67590013Y-154557748D01*
X67411082Y-154825537D01*
X67287832Y-155123088D01*
X67225000Y-155438967D01*
X67225000Y-155761033D01*
X67287832Y-156076912D01*
X67411082Y-156374463D01*
X67590013Y-156642252D01*
X67817748Y-156869987D01*
X67894105Y-156921007D01*
X67739218Y-156856851D01*
X67302591Y-156770000D01*
X66857409Y-156770000D01*
X66420782Y-156856851D01*
X66009489Y-157027214D01*
X65677159Y-157249270D01*
X65678072Y-157240000D01*
X65678072Y-155740000D01*
X65665812Y-155615518D01*
X65629502Y-155495820D01*
X65570537Y-155385506D01*
X65491185Y-155288815D01*
X65394494Y-155209463D01*
X65284180Y-155150498D01*
X65164482Y-155114188D01*
X65040000Y-155101928D01*
X64599800Y-155101928D01*
X64647250Y-154910040D01*
X64659812Y-154637508D01*
X64618965Y-154367762D01*
X64526277Y-154111168D01*
X64465860Y-153998137D01*
X64226993Y-153932612D01*
X63449605Y-154710000D01*
X63463748Y-154724143D01*
X63284143Y-154903748D01*
X63270000Y-154889605D01*
X63255858Y-154903748D01*
X63076253Y-154724143D01*
X63090395Y-154710000D01*
X62473648Y-154093253D01*
X62457371Y-154053957D01*
X62305799Y-153827114D01*
X62231692Y-153753007D01*
X62492612Y-153753007D01*
X63270000Y-154530395D01*
X64047388Y-153753007D01*
X63981863Y-153514140D01*
X63734884Y-153398240D01*
X63470040Y-153332750D01*
X63197508Y-153320188D01*
X62927762Y-153361035D01*
X62671168Y-153453723D01*
X62558137Y-153514140D01*
X62492612Y-153753007D01*
X62231692Y-153753007D01*
X62112886Y-153634201D01*
X61886043Y-153482629D01*
X61633989Y-153378225D01*
X61366411Y-153325000D01*
X61093589Y-153325000D01*
X60826011Y-153378225D01*
X60573957Y-153482629D01*
X60347114Y-153634201D01*
X60210000Y-153771315D01*
X60072886Y-153634201D01*
X59846043Y-153482629D01*
X59593989Y-153378225D01*
X59326411Y-153325000D01*
X59053589Y-153325000D01*
X58786011Y-153378225D01*
X58533957Y-153482629D01*
X58307114Y-153634201D01*
X58170000Y-153771315D01*
X58032886Y-153634201D01*
X57861200Y-153519484D01*
X57861200Y-139904587D01*
X64990789Y-132775000D01*
X65121939Y-132775000D01*
X65321898Y-132735226D01*
X65510256Y-132657205D01*
X65679774Y-132543937D01*
X65823937Y-132399774D01*
X65937205Y-132230256D01*
X66015226Y-132041898D01*
X66055000Y-131841939D01*
X66055000Y-131638061D01*
X66015226Y-131438102D01*
X65937205Y-131249744D01*
X65823937Y-131080226D01*
X65679774Y-130936063D01*
X65510256Y-130822795D01*
X65321898Y-130744774D01*
X65121939Y-130705000D01*
X64918061Y-130705000D01*
X64718102Y-130744774D01*
X64529744Y-130822795D01*
X64360226Y-130936063D01*
X64216063Y-131080226D01*
X64102795Y-131249744D01*
X64024774Y-131438102D01*
X63985000Y-131638061D01*
X63985000Y-131769211D01*
X56671810Y-139082403D01*
X56644674Y-139104673D01*
X56622404Y-139131809D01*
X56622403Y-139131810D01*
X56555798Y-139212968D01*
X56512385Y-139294188D01*
X56489759Y-139336519D01*
X56449628Y-139468815D01*
X56449092Y-139470581D01*
X56435360Y-139610000D01*
X56438801Y-139644936D01*
X56438800Y-153519484D01*
X56267114Y-153634201D01*
X56074201Y-153827114D01*
X55922629Y-154053957D01*
X55818225Y-154306011D01*
X55765000Y-154573589D01*
X55765000Y-154846411D01*
X55818225Y-155113989D01*
X55922629Y-155366043D01*
X56074201Y-155592886D01*
X56267114Y-155785799D01*
X56493957Y-155937371D01*
X56746011Y-156041775D01*
X56848134Y-156062089D01*
X56838225Y-156086011D01*
X56785000Y-156353589D01*
X56785000Y-156626411D01*
X56838225Y-156893989D01*
X56942629Y-157146043D01*
X57094201Y-157372886D01*
X57287114Y-157565799D01*
X57458800Y-157680516D01*
X57458801Y-162385054D01*
X57455359Y-162420000D01*
X57469091Y-162559420D01*
X57509758Y-162693481D01*
X57575798Y-162817033D01*
X57664673Y-162925327D01*
X57772967Y-163014202D01*
X57896519Y-163080242D01*
X58030580Y-163120909D01*
X58135064Y-163131200D01*
X58170000Y-163134641D01*
X58204936Y-163131200D01*
X73715064Y-163131200D01*
X73750000Y-163134641D01*
X73784936Y-163131200D01*
X73889420Y-163120909D01*
X74023481Y-163080242D01*
X74147033Y-163014202D01*
X74255327Y-162925327D01*
X74344202Y-162817033D01*
X74410242Y-162693481D01*
X74450909Y-162559420D01*
X74464641Y-162420000D01*
X74461200Y-162385064D01*
X74461200Y-158720000D01*
X76801928Y-158720000D01*
X76801928Y-161320000D01*
X76814188Y-161444482D01*
X76850498Y-161564180D01*
X76909463Y-161674494D01*
X76988815Y-161771185D01*
X77085506Y-161850537D01*
X77195820Y-161909502D01*
X77315518Y-161945812D01*
X77440000Y-161958072D01*
X80040000Y-161958072D01*
X80164482Y-161945812D01*
X80284180Y-161909502D01*
X80394494Y-161850537D01*
X80491185Y-161771185D01*
X80570537Y-161674494D01*
X80629502Y-161564180D01*
X80665812Y-161444482D01*
X80673224Y-161369224D01*
X82650381Y-161369224D01*
X82782317Y-161664312D01*
X83123045Y-161835159D01*
X83490557Y-161936250D01*
X83870729Y-161963701D01*
X84248951Y-161916457D01*
X84610690Y-161796333D01*
X84857683Y-161664312D01*
X84989619Y-161369224D01*
X83820000Y-160199605D01*
X82650381Y-161369224D01*
X80673224Y-161369224D01*
X80678072Y-161320000D01*
X80678072Y-160070729D01*
X81876299Y-160070729D01*
X81923543Y-160448951D01*
X82043667Y-160810690D01*
X82175688Y-161057683D01*
X82470776Y-161189619D01*
X83640395Y-160020000D01*
X83999605Y-160020000D01*
X85169224Y-161189619D01*
X85464312Y-161057683D01*
X85635159Y-160716955D01*
X85736250Y-160349443D01*
X85763701Y-159969271D01*
X85716457Y-159591049D01*
X85596333Y-159229310D01*
X85464312Y-158982317D01*
X85169224Y-158850381D01*
X83999605Y-160020000D01*
X83640395Y-160020000D01*
X82470776Y-158850381D01*
X82175688Y-158982317D01*
X82004841Y-159323045D01*
X81903750Y-159690557D01*
X81876299Y-160070729D01*
X80678072Y-160070729D01*
X80678072Y-158720000D01*
X80673225Y-158670776D01*
X82650381Y-158670776D01*
X83820000Y-159840395D01*
X84989619Y-158670776D01*
X84857683Y-158375688D01*
X84516955Y-158204841D01*
X84149443Y-158103750D01*
X83769271Y-158076299D01*
X83391049Y-158123543D01*
X83029310Y-158243667D01*
X82782317Y-158375688D01*
X82650381Y-158670776D01*
X80673225Y-158670776D01*
X80665812Y-158595518D01*
X80629502Y-158475820D01*
X80570537Y-158365506D01*
X80491185Y-158268815D01*
X80394494Y-158189463D01*
X80284180Y-158130498D01*
X80164482Y-158094188D01*
X80040000Y-158081928D01*
X77440000Y-158081928D01*
X77315518Y-158094188D01*
X77195820Y-158130498D01*
X77085506Y-158189463D01*
X76988815Y-158268815D01*
X76909463Y-158365506D01*
X76850498Y-158475820D01*
X76814188Y-158595518D01*
X76801928Y-158720000D01*
X74461200Y-158720000D01*
X74461200Y-150030000D01*
X74461928Y-150030000D01*
X74461928Y-152230000D01*
X74474188Y-152354482D01*
X74510498Y-152474180D01*
X74569463Y-152584494D01*
X74648815Y-152681185D01*
X74745506Y-152760537D01*
X74855820Y-152819502D01*
X74975518Y-152855812D01*
X75100000Y-152868072D01*
X77300000Y-152868072D01*
X77424482Y-152855812D01*
X77544180Y-152819502D01*
X77654494Y-152760537D01*
X77751185Y-152681185D01*
X77830537Y-152584494D01*
X77889502Y-152474180D01*
X77925812Y-152354482D01*
X77938072Y-152230000D01*
X77938072Y-151526122D01*
X84670825Y-151526122D01*
X84735425Y-151739094D01*
X84885469Y-152044329D01*
X85092178Y-152314427D01*
X85347609Y-152539008D01*
X85641946Y-152709442D01*
X85963877Y-152819179D01*
X86233000Y-152701600D01*
X86233000Y-151257000D01*
X84788875Y-151257000D01*
X84670825Y-151526122D01*
X77938072Y-151526122D01*
X77938072Y-150733878D01*
X84670825Y-150733878D01*
X84788875Y-151003000D01*
X86233000Y-151003000D01*
X86233000Y-149558400D01*
X85963877Y-149440821D01*
X85641946Y-149550558D01*
X85347609Y-149720992D01*
X85092178Y-149945573D01*
X84885469Y-150215671D01*
X84735425Y-150520906D01*
X84670825Y-150733878D01*
X77938072Y-150733878D01*
X77938072Y-150030000D01*
X77925812Y-149905518D01*
X77889502Y-149785820D01*
X77830537Y-149675506D01*
X77751185Y-149578815D01*
X77654494Y-149499463D01*
X77544180Y-149440498D01*
X77424482Y-149404188D01*
X77300000Y-149391928D01*
X75100000Y-149391928D01*
X74975518Y-149404188D01*
X74855820Y-149440498D01*
X74745506Y-149499463D01*
X74648815Y-149578815D01*
X74569463Y-149675506D01*
X74510498Y-149785820D01*
X74474188Y-149905518D01*
X74461928Y-150030000D01*
X74461200Y-150030000D01*
X74461200Y-144003665D01*
X74765000Y-144003665D01*
X74765000Y-144286335D01*
X74820147Y-144563574D01*
X74928320Y-144824727D01*
X75085363Y-145059759D01*
X75285241Y-145259637D01*
X75520273Y-145416680D01*
X75781426Y-145524853D01*
X76058665Y-145580000D01*
X76341335Y-145580000D01*
X76618574Y-145524853D01*
X76879727Y-145416680D01*
X77114759Y-145259637D01*
X77236694Y-145137702D01*
X77886903Y-145137702D01*
X77958486Y-145381671D01*
X78213996Y-145502571D01*
X78488184Y-145571300D01*
X78770512Y-145585217D01*
X79050130Y-145543787D01*
X79316292Y-145448603D01*
X79441514Y-145381671D01*
X79513097Y-145137702D01*
X83046903Y-145137702D01*
X83118486Y-145381671D01*
X83373996Y-145502571D01*
X83648184Y-145571300D01*
X83930512Y-145585217D01*
X84210130Y-145543787D01*
X84476292Y-145448603D01*
X84601514Y-145381671D01*
X84673097Y-145137702D01*
X83860000Y-144324605D01*
X83046903Y-145137702D01*
X79513097Y-145137702D01*
X78700000Y-144324605D01*
X77886903Y-145137702D01*
X77236694Y-145137702D01*
X77314637Y-145059759D01*
X77448692Y-144859131D01*
X77463329Y-144886514D01*
X77707298Y-144958097D01*
X78520395Y-144145000D01*
X78879605Y-144145000D01*
X79692702Y-144958097D01*
X79936671Y-144886514D01*
X80057571Y-144631004D01*
X80126300Y-144356816D01*
X80133265Y-144215512D01*
X82419783Y-144215512D01*
X82461213Y-144495130D01*
X82556397Y-144761292D01*
X82623329Y-144886514D01*
X82867298Y-144958097D01*
X83680395Y-144145000D01*
X84039605Y-144145000D01*
X84852702Y-144958097D01*
X85096671Y-144886514D01*
X85110324Y-144857659D01*
X85245363Y-145059759D01*
X85445241Y-145259637D01*
X85680273Y-145416680D01*
X85941426Y-145524853D01*
X86218665Y-145580000D01*
X86501335Y-145580000D01*
X86778574Y-145524853D01*
X87039727Y-145416680D01*
X87274759Y-145259637D01*
X87474637Y-145059759D01*
X87631680Y-144824727D01*
X87739853Y-144563574D01*
X87795000Y-144286335D01*
X87795000Y-144003665D01*
X87739853Y-143726426D01*
X87631680Y-143465273D01*
X87474637Y-143230241D01*
X87274759Y-143030363D01*
X87039727Y-142873320D01*
X86778574Y-142765147D01*
X86501335Y-142710000D01*
X86218665Y-142710000D01*
X85941426Y-142765147D01*
X85680273Y-142873320D01*
X85445241Y-143030363D01*
X85245363Y-143230241D01*
X85111308Y-143430869D01*
X85096671Y-143403486D01*
X84852702Y-143331903D01*
X84039605Y-144145000D01*
X83680395Y-144145000D01*
X82867298Y-143331903D01*
X82623329Y-143403486D01*
X82502429Y-143658996D01*
X82433700Y-143933184D01*
X82419783Y-144215512D01*
X80133265Y-144215512D01*
X80140217Y-144074488D01*
X80098787Y-143794870D01*
X80003603Y-143528708D01*
X79936671Y-143403486D01*
X79692702Y-143331903D01*
X78879605Y-144145000D01*
X78520395Y-144145000D01*
X77707298Y-143331903D01*
X77463329Y-143403486D01*
X77449676Y-143432341D01*
X77314637Y-143230241D01*
X77236694Y-143152298D01*
X77886903Y-143152298D01*
X78700000Y-143965395D01*
X79513097Y-143152298D01*
X83046903Y-143152298D01*
X83860000Y-143965395D01*
X84673097Y-143152298D01*
X84601514Y-142908329D01*
X84346004Y-142787429D01*
X84071816Y-142718700D01*
X83789488Y-142704783D01*
X83509870Y-142746213D01*
X83243708Y-142841397D01*
X83118486Y-142908329D01*
X83046903Y-143152298D01*
X79513097Y-143152298D01*
X79441514Y-142908329D01*
X79186004Y-142787429D01*
X78911816Y-142718700D01*
X78629488Y-142704783D01*
X78349870Y-142746213D01*
X78083708Y-142841397D01*
X77958486Y-142908329D01*
X77886903Y-143152298D01*
X77236694Y-143152298D01*
X77114759Y-143030363D01*
X76879727Y-142873320D01*
X76618574Y-142765147D01*
X76341335Y-142710000D01*
X76058665Y-142710000D01*
X75781426Y-142765147D01*
X75520273Y-142873320D01*
X75285241Y-143030363D01*
X75085363Y-143230241D01*
X74928320Y-143465273D01*
X74820147Y-143726426D01*
X74765000Y-144003665D01*
X74461200Y-144003665D01*
X74461200Y-131715000D01*
X75879428Y-131715000D01*
X75879428Y-133715000D01*
X75891688Y-133839482D01*
X75927998Y-133959180D01*
X75986963Y-134069494D01*
X76066315Y-134166185D01*
X76163006Y-134245537D01*
X76273320Y-134304502D01*
X76393018Y-134340812D01*
X76517500Y-134353072D01*
X78422500Y-134353072D01*
X78546982Y-134340812D01*
X78666680Y-134304502D01*
X78776994Y-134245537D01*
X78873685Y-134166185D01*
X78953037Y-134069494D01*
X79002059Y-133977781D01*
X79143077Y-134090969D01*
X79418906Y-134234571D01*
X79637020Y-134305563D01*
X79883000Y-134185594D01*
X79883000Y-132842000D01*
X79863000Y-132842000D01*
X79863000Y-132588000D01*
X79883000Y-132588000D01*
X79883000Y-131244406D01*
X80137000Y-131244406D01*
X80137000Y-132588000D01*
X80157000Y-132588000D01*
X80157000Y-132842000D01*
X80137000Y-132842000D01*
X80137000Y-134185594D01*
X80382980Y-134305563D01*
X80601094Y-134234571D01*
X80876923Y-134090969D01*
X81119437Y-133896315D01*
X81274837Y-133711101D01*
X81422037Y-133890463D01*
X81663766Y-134088845D01*
X81939552Y-134236255D01*
X82238797Y-134327030D01*
X82550000Y-134357681D01*
X82861204Y-134327030D01*
X83160449Y-134236255D01*
X83436235Y-134088845D01*
X83677963Y-133890463D01*
X83876345Y-133648734D01*
X84023755Y-133372948D01*
X84114530Y-133073703D01*
X84137500Y-132840485D01*
X84137500Y-132589514D01*
X84114530Y-132356296D01*
X84023755Y-132057051D01*
X83876345Y-131781265D01*
X83677963Y-131539537D01*
X83436234Y-131341155D01*
X83160448Y-131193745D01*
X82861203Y-131102970D01*
X82550000Y-131072319D01*
X82238796Y-131102970D01*
X81939551Y-131193745D01*
X81663765Y-131341155D01*
X81422037Y-131539537D01*
X81274838Y-131718900D01*
X81119437Y-131533685D01*
X80876923Y-131339031D01*
X80601094Y-131195429D01*
X80382980Y-131124437D01*
X80137000Y-131244406D01*
X79883000Y-131244406D01*
X79637020Y-131124437D01*
X79418906Y-131195429D01*
X79143077Y-131339031D01*
X79002059Y-131452219D01*
X78953037Y-131360506D01*
X78873685Y-131263815D01*
X78776994Y-131184463D01*
X78666680Y-131125498D01*
X78546982Y-131089188D01*
X78422500Y-131076928D01*
X76517500Y-131076928D01*
X76393018Y-131089188D01*
X76273320Y-131125498D01*
X76163006Y-131184463D01*
X76066315Y-131263815D01*
X75986963Y-131360506D01*
X75927998Y-131470820D01*
X75891688Y-131590518D01*
X75879428Y-131715000D01*
X74461200Y-131715000D01*
X74461200Y-126132511D01*
X74553937Y-126039774D01*
X74667205Y-125870256D01*
X74745226Y-125681898D01*
X74785000Y-125481939D01*
X74785000Y-125278061D01*
X74763744Y-125171200D01*
X82255413Y-125171200D01*
X82785000Y-125700788D01*
X82785000Y-125831939D01*
X82824774Y-126031898D01*
X82902795Y-126220256D01*
X83016063Y-126389774D01*
X83160226Y-126533937D01*
X83329744Y-126647205D01*
X83518102Y-126725226D01*
X83718061Y-126765000D01*
X83921939Y-126765000D01*
X84121898Y-126725226D01*
X84310256Y-126647205D01*
X84479774Y-126533937D01*
X84623937Y-126389774D01*
X84737205Y-126220256D01*
X84815226Y-126031898D01*
X84855000Y-125831939D01*
X84855000Y-125628061D01*
X84815226Y-125428102D01*
X84737205Y-125239744D01*
X84623937Y-125070226D01*
X84479774Y-124926063D01*
X84310256Y-124812795D01*
X84121898Y-124734774D01*
X83921939Y-124695000D01*
X83790788Y-124695000D01*
X83077601Y-123981814D01*
X83055327Y-123954673D01*
X82947033Y-123865798D01*
X82823481Y-123799758D01*
X82689420Y-123759091D01*
X82584936Y-123748800D01*
X82584926Y-123748800D01*
X82550000Y-123745360D01*
X82515074Y-123748800D01*
X65522511Y-123748800D01*
X65429774Y-123656063D01*
X65260256Y-123542795D01*
X65071898Y-123464774D01*
X64871939Y-123425000D01*
X64668061Y-123425000D01*
X64468102Y-123464774D01*
X64351200Y-123513197D01*
X64351200Y-123094928D01*
X64354640Y-123060000D01*
X64351200Y-123025071D01*
X64351200Y-123025064D01*
X64340909Y-122920580D01*
X64339677Y-122916519D01*
X64300242Y-122786518D01*
X64234202Y-122662967D01*
X64167598Y-122581809D01*
X64167593Y-122581804D01*
X64145327Y-122554673D01*
X64118196Y-122532407D01*
X62461200Y-120875413D01*
X62461200Y-117074925D01*
X62464640Y-117039999D01*
X62461200Y-117005073D01*
X62461200Y-117005064D01*
X62450909Y-116900580D01*
X62410242Y-116766519D01*
X62344202Y-116642967D01*
X62255327Y-116534673D01*
X62228191Y-116512403D01*
X56853803Y-111138016D01*
X56831528Y-111110874D01*
X56723234Y-111021999D01*
X56599682Y-110955959D01*
X56465621Y-110915292D01*
X56361137Y-110905001D01*
X56361127Y-110905001D01*
X56326201Y-110901561D01*
X56291275Y-110905001D01*
X56041544Y-110905001D01*
X56095000Y-110636260D01*
X56095000Y-110343740D01*
X56068004Y-110208021D01*
X66150000Y-110208021D01*
X66150000Y-110771978D01*
X66166785Y-110942399D01*
X66233115Y-111161059D01*
X66340829Y-111362578D01*
X66485788Y-111539212D01*
X66662421Y-111684171D01*
X66863940Y-111791885D01*
X67082600Y-111858215D01*
X67310000Y-111880612D01*
X67537399Y-111858215D01*
X67756059Y-111791885D01*
X67944999Y-111690894D01*
X68133940Y-111791885D01*
X68352600Y-111858215D01*
X68580000Y-111880612D01*
X68807399Y-111858215D01*
X69016098Y-111794907D01*
X69080820Y-111829502D01*
X69200518Y-111865812D01*
X69325000Y-111878072D01*
X69564250Y-111875000D01*
X69723000Y-111716250D01*
X69723000Y-110943109D01*
X69723215Y-110942400D01*
X69740000Y-110771979D01*
X69740000Y-110617000D01*
X69977000Y-110617000D01*
X69977000Y-111716250D01*
X70135750Y-111875000D01*
X70375000Y-111878072D01*
X70499482Y-111865812D01*
X70619180Y-111829502D01*
X70729494Y-111770537D01*
X70826185Y-111691185D01*
X70905537Y-111594494D01*
X70964502Y-111484180D01*
X71000812Y-111364482D01*
X71013072Y-111240000D01*
X71010000Y-110775750D01*
X70851250Y-110617000D01*
X69977000Y-110617000D01*
X69740000Y-110617000D01*
X69740000Y-110208022D01*
X69723215Y-110037601D01*
X69723000Y-110036892D01*
X69723000Y-109263750D01*
X69977000Y-109263750D01*
X69977000Y-110363000D01*
X70851250Y-110363000D01*
X71010000Y-110204250D01*
X71013072Y-109740000D01*
X71000812Y-109615518D01*
X70964502Y-109495820D01*
X70905537Y-109385506D01*
X70826185Y-109288815D01*
X70729494Y-109209463D01*
X70619180Y-109150498D01*
X70499482Y-109114188D01*
X70375000Y-109101928D01*
X70135750Y-109105000D01*
X69977000Y-109263750D01*
X69723000Y-109263750D01*
X69564250Y-109105000D01*
X69340000Y-109102121D01*
X69340000Y-108710000D01*
X75440000Y-108710000D01*
X75440001Y-109271956D01*
X75285241Y-109375363D01*
X75085363Y-109575241D01*
X74928320Y-109810273D01*
X74820147Y-110071426D01*
X74765000Y-110348665D01*
X74765000Y-110631335D01*
X74820147Y-110908574D01*
X74928320Y-111169727D01*
X75085363Y-111404759D01*
X75285241Y-111604637D01*
X75520273Y-111761680D01*
X75781426Y-111869853D01*
X76058665Y-111925000D01*
X76341335Y-111925000D01*
X76618574Y-111869853D01*
X76879727Y-111761680D01*
X77114759Y-111604637D01*
X77314637Y-111404759D01*
X77471680Y-111169727D01*
X77579853Y-110908574D01*
X77635000Y-110631335D01*
X77635000Y-110348665D01*
X77579853Y-110071426D01*
X77471680Y-109810273D01*
X77314637Y-109575241D01*
X77114759Y-109375363D01*
X76960000Y-109271957D01*
X76960000Y-107987333D01*
X76963677Y-107950000D01*
X76949003Y-107801014D01*
X76905546Y-107657753D01*
X76834974Y-107525724D01*
X76740001Y-107409999D01*
X76624276Y-107315026D01*
X76492247Y-107244454D01*
X76348986Y-107200997D01*
X76237333Y-107190000D01*
X76200000Y-107186323D01*
X76162667Y-107190000D01*
X68617333Y-107190000D01*
X68580000Y-107186323D01*
X68542667Y-107190000D01*
X68431014Y-107200997D01*
X68287753Y-107244454D01*
X68155724Y-107315026D01*
X68039999Y-107409999D01*
X68021200Y-107432906D01*
X68021200Y-101704587D01*
X70978483Y-98747305D01*
X71160166Y-98822561D01*
X71524344Y-98895000D01*
X71895656Y-98895000D01*
X72259834Y-98822561D01*
X72602882Y-98680466D01*
X72911618Y-98474175D01*
X73174175Y-98211618D01*
X73380466Y-97902882D01*
X73522561Y-97559834D01*
X73595000Y-97195656D01*
X73595000Y-96824344D01*
X73590103Y-96799721D01*
X81775000Y-96799721D01*
X81775000Y-97220279D01*
X81857047Y-97632756D01*
X82017988Y-98021302D01*
X82251637Y-98370983D01*
X82549017Y-98668363D01*
X82898698Y-98902012D01*
X83287244Y-99062953D01*
X83699721Y-99145000D01*
X84120279Y-99145000D01*
X84532756Y-99062953D01*
X84921302Y-98902012D01*
X85270983Y-98668363D01*
X85568363Y-98370983D01*
X85802012Y-98021302D01*
X85962953Y-97632756D01*
X86025522Y-97318200D01*
X100096884Y-97318200D01*
X100119534Y-97372882D01*
X100325825Y-97681618D01*
X100588382Y-97944175D01*
X100897118Y-98150466D01*
X101240166Y-98292561D01*
X101604344Y-98365000D01*
X101975656Y-98365000D01*
X102339834Y-98292561D01*
X102682882Y-98150466D01*
X102991618Y-97944175D01*
X103254175Y-97681618D01*
X103460466Y-97372882D01*
X103602561Y-97029834D01*
X103675000Y-96665656D01*
X103675000Y-96294344D01*
X103602561Y-95930166D01*
X103460466Y-95587118D01*
X103254175Y-95278382D01*
X102991618Y-95015825D01*
X102682882Y-94809534D01*
X102339834Y-94667439D01*
X101975656Y-94595000D01*
X101604344Y-94595000D01*
X101240166Y-94667439D01*
X100897118Y-94809534D01*
X100588382Y-95015825D01*
X100325825Y-95278382D01*
X100119534Y-95587118D01*
X100096884Y-95641800D01*
X85561146Y-95641800D01*
X85270983Y-95351637D01*
X84921302Y-95117988D01*
X84532756Y-94957047D01*
X84120279Y-94875000D01*
X83699721Y-94875000D01*
X83287244Y-94957047D01*
X82898698Y-95117988D01*
X82549017Y-95351637D01*
X82251637Y-95649017D01*
X82017988Y-95998698D01*
X81857047Y-96387244D01*
X81775000Y-96799721D01*
X73590103Y-96799721D01*
X73522561Y-96460166D01*
X73380466Y-96117118D01*
X73174175Y-95808382D01*
X72911618Y-95545825D01*
X72602882Y-95339534D01*
X72259834Y-95197439D01*
X71895656Y-95125000D01*
X71524344Y-95125000D01*
X71160166Y-95197439D01*
X70817118Y-95339534D01*
X70508382Y-95545825D01*
X70245825Y-95808382D01*
X70039534Y-96117118D01*
X69897439Y-96460166D01*
X69825000Y-96824344D01*
X69825000Y-97195656D01*
X69897439Y-97559834D01*
X69972695Y-97741517D01*
X66831810Y-100882403D01*
X66804674Y-100904673D01*
X66782404Y-100931809D01*
X66782403Y-100931810D01*
X66715798Y-101012968D01*
X66649759Y-101136519D01*
X66609092Y-101270581D01*
X66595360Y-101410000D01*
X66598801Y-101444936D01*
X66598800Y-109348042D01*
X66485789Y-109440788D01*
X66340830Y-109617421D01*
X66233115Y-109818940D01*
X66166785Y-110037600D01*
X66150000Y-110208021D01*
X56068004Y-110208021D01*
X56037932Y-110056842D01*
X55925990Y-109786589D01*
X55763475Y-109543368D01*
X55556632Y-109336525D01*
X55374466Y-109214805D01*
X55491355Y-109145178D01*
X55707588Y-108950269D01*
X55881641Y-108716920D01*
X56006825Y-108454099D01*
X56051476Y-108306890D01*
X55930155Y-108077000D01*
X54737000Y-108077000D01*
X54737000Y-108097000D01*
X54483000Y-108097000D01*
X54483000Y-108077000D01*
X54463000Y-108077000D01*
X54463000Y-107823000D01*
X54483000Y-107823000D01*
X54483000Y-107803000D01*
X54737000Y-107803000D01*
X54737000Y-107823000D01*
X55930155Y-107823000D01*
X56051476Y-107593110D01*
X56006825Y-107445901D01*
X55881641Y-107183080D01*
X55707588Y-106949731D01*
X55491355Y-106754822D01*
X55374466Y-106685195D01*
X55556632Y-106563475D01*
X55763475Y-106356632D01*
X55925990Y-106113411D01*
X56037932Y-105843158D01*
X56095000Y-105556260D01*
X56095000Y-105263740D01*
X56037932Y-104976842D01*
X55925990Y-104706589D01*
X55763475Y-104463368D01*
X55556632Y-104256525D01*
X55313411Y-104094010D01*
X55043158Y-103982068D01*
X54756260Y-103925000D01*
X54463740Y-103925000D01*
X54176842Y-103982068D01*
X53906589Y-104094010D01*
X53663368Y-104256525D01*
X53531513Y-104388380D01*
X53509502Y-104315820D01*
X53450537Y-104205506D01*
X53371185Y-104108815D01*
X53274494Y-104029463D01*
X53164180Y-103970498D01*
X53044482Y-103934188D01*
X52920000Y-103921928D01*
X51485000Y-103921928D01*
X51485000Y-90749721D01*
X67625000Y-90749721D01*
X67625000Y-91170279D01*
X67707047Y-91582756D01*
X67867988Y-91971302D01*
X68101637Y-92320983D01*
X68399017Y-92618363D01*
X68748698Y-92852012D01*
X69137244Y-93012953D01*
X69549721Y-93095000D01*
X69970279Y-93095000D01*
X70382756Y-93012953D01*
X70771302Y-92852012D01*
X71120983Y-92618363D01*
X71418363Y-92320983D01*
X71652012Y-91971302D01*
X71723713Y-91798200D01*
X99947277Y-91798200D01*
X99977439Y-91949834D01*
X100119534Y-92292882D01*
X100325825Y-92601618D01*
X100588382Y-92864175D01*
X100897118Y-93070466D01*
X101240166Y-93212561D01*
X101604344Y-93285000D01*
X101975656Y-93285000D01*
X102339834Y-93212561D01*
X102682882Y-93070466D01*
X102991618Y-92864175D01*
X103254175Y-92601618D01*
X103460466Y-92292882D01*
X103602561Y-91949834D01*
X103675000Y-91585656D01*
X103675000Y-91214344D01*
X103602561Y-90850166D01*
X103460466Y-90507118D01*
X103254175Y-90198382D01*
X102991618Y-89935825D01*
X102682882Y-89729534D01*
X102339834Y-89587439D01*
X101975656Y-89515000D01*
X101604344Y-89515000D01*
X101240166Y-89587439D01*
X100897118Y-89729534D01*
X100588382Y-89935825D01*
X100402407Y-90121800D01*
X71723713Y-90121800D01*
X71652012Y-89948698D01*
X71418363Y-89599017D01*
X71120983Y-89301637D01*
X70771302Y-89067988D01*
X70382756Y-88907047D01*
X69970279Y-88825000D01*
X69549721Y-88825000D01*
X69137244Y-88907047D01*
X68748698Y-89067988D01*
X68399017Y-89301637D01*
X68101637Y-89599017D01*
X67867988Y-89948698D01*
X67707047Y-90337244D01*
X67625000Y-90749721D01*
X51485000Y-90749721D01*
X51485000Y-82540000D01*
X59723000Y-82540000D01*
X59723000Y-88610000D01*
X59725440Y-88634776D01*
X59732667Y-88658601D01*
X59744403Y-88680557D01*
X59760197Y-88699803D01*
X59779443Y-88715597D01*
X59801399Y-88727333D01*
X59825224Y-88734560D01*
X59850397Y-88736999D01*
X66240397Y-88716999D01*
X66265166Y-88714482D01*
X66288968Y-88707180D01*
X66310888Y-88695375D01*
X66330083Y-88679521D01*
X66345817Y-88660227D01*
X66357484Y-88638233D01*
X66364637Y-88614386D01*
X66366999Y-88589580D01*
X66354552Y-84824344D01*
X69825000Y-84824344D01*
X69825000Y-85195656D01*
X69897439Y-85559834D01*
X70039534Y-85902882D01*
X70245825Y-86211618D01*
X70508382Y-86474175D01*
X70817118Y-86680466D01*
X71160166Y-86822561D01*
X71524344Y-86895000D01*
X71895656Y-86895000D01*
X72259834Y-86822561D01*
X72602882Y-86680466D01*
X72911618Y-86474175D01*
X73174175Y-86211618D01*
X73380466Y-85902882D01*
X73522561Y-85559834D01*
X73595000Y-85195656D01*
X73595000Y-84824344D01*
X73580157Y-84749721D01*
X81825000Y-84749721D01*
X81825000Y-85170279D01*
X81907047Y-85582756D01*
X82067988Y-85971302D01*
X82301637Y-86320983D01*
X82599017Y-86618363D01*
X82948698Y-86852012D01*
X83337244Y-87012953D01*
X83749721Y-87095000D01*
X84170279Y-87095000D01*
X84582756Y-87012953D01*
X84971302Y-86852012D01*
X85320983Y-86618363D01*
X85618363Y-86320983D01*
X85852012Y-85971302D01*
X85923713Y-85798200D01*
X99901928Y-85798200D01*
X99901928Y-87570000D01*
X99914188Y-87694482D01*
X99950498Y-87814180D01*
X100009463Y-87924494D01*
X100088815Y-88021185D01*
X100185506Y-88100537D01*
X100295820Y-88159502D01*
X100415518Y-88195812D01*
X100540000Y-88208072D01*
X103040000Y-88208072D01*
X103164482Y-88195812D01*
X103284180Y-88159502D01*
X103394494Y-88100537D01*
X103491185Y-88021185D01*
X103570537Y-87924494D01*
X103629502Y-87814180D01*
X103665812Y-87694482D01*
X103678072Y-87570000D01*
X103678072Y-85070000D01*
X103665812Y-84945518D01*
X103629502Y-84825820D01*
X103570537Y-84715506D01*
X103491185Y-84618815D01*
X103394494Y-84539463D01*
X103284180Y-84480498D01*
X103164482Y-84444188D01*
X103040000Y-84431928D01*
X101087321Y-84431928D01*
X101051811Y-84396418D01*
X101025564Y-84364436D01*
X100897932Y-84259691D01*
X100752317Y-84181858D01*
X100594316Y-84133929D01*
X100471170Y-84121800D01*
X100471163Y-84121800D01*
X100430000Y-84117746D01*
X100388837Y-84121800D01*
X85923713Y-84121800D01*
X85852012Y-83948698D01*
X85618363Y-83599017D01*
X85320983Y-83301637D01*
X84971302Y-83067988D01*
X84582756Y-82907047D01*
X84170279Y-82825000D01*
X83749721Y-82825000D01*
X83337244Y-82907047D01*
X82948698Y-83067988D01*
X82599017Y-83301637D01*
X82301637Y-83599017D01*
X82067988Y-83948698D01*
X81907047Y-84337244D01*
X81825000Y-84749721D01*
X73580157Y-84749721D01*
X73522561Y-84460166D01*
X73380466Y-84117118D01*
X73174175Y-83808382D01*
X72911618Y-83545825D01*
X72602882Y-83339534D01*
X72259834Y-83197439D01*
X71895656Y-83125000D01*
X71524344Y-83125000D01*
X71160166Y-83197439D01*
X70817118Y-83339534D01*
X70508382Y-83545825D01*
X70245825Y-83808382D01*
X70039534Y-84117118D01*
X69897439Y-84460166D01*
X69825000Y-84824344D01*
X66354552Y-84824344D01*
X66346999Y-82539580D01*
X66344477Y-82514812D01*
X66337171Y-82491012D01*
X66325363Y-82469094D01*
X66309505Y-82449901D01*
X66290208Y-82434171D01*
X66268213Y-82422507D01*
X66244365Y-82415359D01*
X66220000Y-82413000D01*
X59850000Y-82413000D01*
X59825224Y-82415440D01*
X59801399Y-82422667D01*
X59779443Y-82434403D01*
X59760197Y-82450197D01*
X59744403Y-82469443D01*
X59732667Y-82491399D01*
X59725440Y-82515224D01*
X59723000Y-82540000D01*
X51485000Y-82540000D01*
X51485000Y-68478061D01*
X78975000Y-68478061D01*
X78975000Y-68681939D01*
X79014774Y-68881898D01*
X79092795Y-69070256D01*
X79206063Y-69239774D01*
X79250000Y-69283711D01*
X79250001Y-74226288D01*
X79206063Y-74270226D01*
X79092795Y-74439744D01*
X79014774Y-74628102D01*
X78975000Y-74828061D01*
X78975000Y-75031939D01*
X79014774Y-75231898D01*
X79092795Y-75420256D01*
X79206063Y-75589774D01*
X79350226Y-75733937D01*
X79519744Y-75847205D01*
X79708102Y-75925226D01*
X79908061Y-75965000D01*
X80111939Y-75965000D01*
X80311898Y-75925226D01*
X80500256Y-75847205D01*
X80669774Y-75733937D01*
X80813937Y-75589774D01*
X80927205Y-75420256D01*
X81005226Y-75231898D01*
X81045000Y-75031939D01*
X81045000Y-74828061D01*
X81005226Y-74628102D01*
X80927205Y-74439744D01*
X80813937Y-74270226D01*
X80770000Y-74226289D01*
X80770000Y-69283711D01*
X80813937Y-69239774D01*
X80927205Y-69070256D01*
X81005226Y-68881898D01*
X81045000Y-68681939D01*
X81045000Y-68478061D01*
X81005226Y-68278102D01*
X80927205Y-68089744D01*
X80813937Y-67920226D01*
X80669774Y-67776063D01*
X80500256Y-67662795D01*
X80311898Y-67584774D01*
X80111939Y-67545000D01*
X79908061Y-67545000D01*
X79708102Y-67584774D01*
X79519744Y-67662795D01*
X79350226Y-67776063D01*
X79206063Y-67920226D01*
X79092795Y-68089744D01*
X79014774Y-68278102D01*
X78975000Y-68478061D01*
X51485000Y-68478061D01*
X51485000Y-66135037D01*
X51636842Y-66197932D01*
X51923740Y-66255000D01*
X52216260Y-66255000D01*
X52503158Y-66197932D01*
X52773411Y-66085990D01*
X53016632Y-65923475D01*
X53223475Y-65716632D01*
X53340000Y-65542240D01*
X53456525Y-65716632D01*
X53663368Y-65923475D01*
X53906589Y-66085990D01*
X54176842Y-66197932D01*
X54463740Y-66255000D01*
X54756260Y-66255000D01*
X55043158Y-66197932D01*
X55313411Y-66085990D01*
X55556632Y-65923475D01*
X55763475Y-65716632D01*
X55925990Y-65473411D01*
X56037932Y-65203158D01*
X56095000Y-64916260D01*
X56095000Y-64623740D01*
X56037932Y-64336842D01*
X55925990Y-64066589D01*
X55763475Y-63823368D01*
X55556632Y-63616525D01*
X55382240Y-63500000D01*
X55556632Y-63383475D01*
X55763475Y-63176632D01*
X55925990Y-62933411D01*
X56037932Y-62663158D01*
X56095000Y-62376260D01*
X56095000Y-62083740D01*
X56037932Y-61796842D01*
X55925990Y-61526589D01*
X55763475Y-61283368D01*
X55556632Y-61076525D01*
X55382240Y-60960000D01*
X55556632Y-60843475D01*
X55763475Y-60636632D01*
X55925990Y-60393411D01*
X56037932Y-60123158D01*
X56095000Y-59836260D01*
X56095000Y-59543740D01*
X56041544Y-59274999D01*
X57368053Y-59274999D01*
X57402979Y-59278439D01*
X57437905Y-59274999D01*
X57437915Y-59274999D01*
X57542399Y-59264708D01*
X57676460Y-59224041D01*
X57800012Y-59158001D01*
X57908306Y-59069126D01*
X57930581Y-59041984D01*
X67387568Y-49584999D01*
X69131928Y-49584999D01*
X69131928Y-51150000D01*
X69144188Y-51274482D01*
X69180498Y-51394180D01*
X69239463Y-51504494D01*
X69318815Y-51601185D01*
X69415506Y-51680537D01*
X69525820Y-51739502D01*
X69645518Y-51775812D01*
X69770000Y-51788072D01*
X71220000Y-51788072D01*
X71344482Y-51775812D01*
X71464180Y-51739502D01*
X71574494Y-51680537D01*
X71671185Y-51601185D01*
X71750537Y-51504494D01*
X71809502Y-51394180D01*
X71845812Y-51274482D01*
X71858072Y-51150000D01*
X71858072Y-49577658D01*
X71888021Y-49574708D01*
X72022082Y-49534041D01*
X72145634Y-49468001D01*
X72253928Y-49379126D01*
X72276203Y-49351984D01*
X75748196Y-45879993D01*
X75775327Y-45857727D01*
X75797593Y-45830596D01*
X75797597Y-45830592D01*
X75803853Y-45822969D01*
X75820000Y-45818071D01*
X75836150Y-45822970D01*
X75864674Y-45857727D01*
X75891810Y-45879997D01*
X86226208Y-56214397D01*
X86248474Y-56241528D01*
X86275605Y-56263794D01*
X86275609Y-56263798D01*
X86356768Y-56330403D01*
X86480320Y-56396443D01*
X86614381Y-56437110D01*
X86718865Y-56447401D01*
X86718874Y-56447401D01*
X86753800Y-56450841D01*
X86788726Y-56447401D01*
X93933674Y-56447401D01*
X93822068Y-56716842D01*
X93765000Y-57003740D01*
X93765000Y-57296260D01*
X93822068Y-57583158D01*
X93934010Y-57853411D01*
X94096525Y-58096632D01*
X94303368Y-58303475D01*
X94477760Y-58420000D01*
X94303368Y-58536525D01*
X94096525Y-58743368D01*
X93934010Y-58986589D01*
X93822068Y-59256842D01*
X93765000Y-59543740D01*
X93765000Y-59836260D01*
X93822068Y-60123158D01*
X93934010Y-60393411D01*
X94096525Y-60636632D01*
X94303368Y-60843475D01*
X94477760Y-60960000D01*
X94303368Y-61076525D01*
X94096525Y-61283368D01*
X93934010Y-61526589D01*
X93822068Y-61796842D01*
X93765000Y-62083740D01*
X93765000Y-62376260D01*
X93822068Y-62663158D01*
X93934010Y-62933411D01*
X94096525Y-63176632D01*
X94303368Y-63383475D01*
X94477760Y-63500000D01*
X94303368Y-63616525D01*
X94096525Y-63823368D01*
X93934010Y-64066589D01*
X93822068Y-64336842D01*
X93765000Y-64623740D01*
X93765000Y-64916260D01*
X93822068Y-65203158D01*
X93934010Y-65473411D01*
X94096525Y-65716632D01*
X94303368Y-65923475D01*
X94546589Y-66085990D01*
X94816842Y-66197932D01*
X95103740Y-66255000D01*
X95396260Y-66255000D01*
X95683158Y-66197932D01*
X95953411Y-66085990D01*
X96196632Y-65923475D01*
X96403475Y-65716632D01*
X96520000Y-65542240D01*
X96636525Y-65716632D01*
X96843368Y-65923475D01*
X97086589Y-66085990D01*
X97356842Y-66197932D01*
X97643740Y-66255000D01*
X97936260Y-66255000D01*
X98223158Y-66197932D01*
X98493411Y-66085990D01*
X98736632Y-65923475D01*
X98943475Y-65716632D01*
X99105990Y-65473411D01*
X99217932Y-65203158D01*
X99275000Y-64916260D01*
X99275000Y-64623740D01*
X99217932Y-64336842D01*
X99105990Y-64066589D01*
X98943475Y-63823368D01*
X98736632Y-63616525D01*
X98562240Y-63500000D01*
X98736632Y-63383475D01*
X98943475Y-63176632D01*
X99105990Y-62933411D01*
X99217932Y-62663158D01*
X99275000Y-62376260D01*
X99275000Y-62083740D01*
X99217932Y-61796842D01*
X99105990Y-61526589D01*
X98943475Y-61283368D01*
X98736632Y-61076525D01*
X98562240Y-60960000D01*
X98736632Y-60843475D01*
X98943475Y-60636632D01*
X99105990Y-60393411D01*
X99217932Y-60123158D01*
X99275000Y-59836260D01*
X99275000Y-59543740D01*
X99217932Y-59256842D01*
X99105990Y-58986589D01*
X98943475Y-58743368D01*
X98736632Y-58536525D01*
X98562240Y-58420000D01*
X98736632Y-58303475D01*
X98943475Y-58096632D01*
X99105990Y-57853411D01*
X99217932Y-57583158D01*
X99275000Y-57296260D01*
X99275000Y-57003740D01*
X99217932Y-56716842D01*
X99105990Y-56446589D01*
X98943475Y-56203368D01*
X98736632Y-55996525D01*
X98562240Y-55880000D01*
X98736632Y-55763475D01*
X98943475Y-55556632D01*
X99105990Y-55313411D01*
X99217932Y-55043158D01*
X99275000Y-54756260D01*
X99275000Y-54463740D01*
X99217932Y-54176842D01*
X99105990Y-53906589D01*
X98943475Y-53663368D01*
X98736632Y-53456525D01*
X98562240Y-53340000D01*
X98736632Y-53223475D01*
X98943475Y-53016632D01*
X99105990Y-52773411D01*
X99217932Y-52503158D01*
X99275000Y-52216260D01*
X99275000Y-51923740D01*
X99217932Y-51636842D01*
X99105990Y-51366589D01*
X98943475Y-51123368D01*
X98736632Y-50916525D01*
X98562240Y-50800000D01*
X98736632Y-50683475D01*
X98943475Y-50476632D01*
X99105990Y-50233411D01*
X99217932Y-49963158D01*
X99275000Y-49676260D01*
X99275000Y-49383740D01*
X99217932Y-49096842D01*
X99105990Y-48826589D01*
X98943475Y-48583368D01*
X98736632Y-48376525D01*
X98562240Y-48260000D01*
X98736632Y-48143475D01*
X98943475Y-47936632D01*
X99105990Y-47693411D01*
X99217932Y-47423158D01*
X99275000Y-47136260D01*
X99275000Y-46843740D01*
X99217932Y-46556842D01*
X99105990Y-46286589D01*
X98943475Y-46043368D01*
X98736632Y-45836525D01*
X98562240Y-45720000D01*
X98736632Y-45603475D01*
X98943475Y-45396632D01*
X99105990Y-45153411D01*
X99217932Y-44883158D01*
X99275000Y-44596260D01*
X99275000Y-44303740D01*
X99217932Y-44016842D01*
X99105990Y-43746589D01*
X98943475Y-43503368D01*
X98736632Y-43296525D01*
X98554466Y-43174805D01*
X98671355Y-43105178D01*
X98887588Y-42910269D01*
X99061641Y-42676920D01*
X99186825Y-42414099D01*
X99231476Y-42266890D01*
X99110155Y-42037000D01*
X97917000Y-42037000D01*
X97917000Y-42057000D01*
X97663000Y-42057000D01*
X97663000Y-42037000D01*
X97643000Y-42037000D01*
X97643000Y-41783000D01*
X97663000Y-41783000D01*
X97663000Y-41763000D01*
X97917000Y-41763000D01*
X97917000Y-41783000D01*
X99110155Y-41783000D01*
X99231476Y-41553110D01*
X99186825Y-41405901D01*
X99148291Y-41325000D01*
X105995000Y-41325000D01*
X105995000Y-76922976D01*
G37*
G04 #@! TD.AperFunction*
D37*
X69131928Y-42850000D02*
X69144188Y-42974482D01*
X69180498Y-43094180D01*
X69239463Y-43204494D01*
X69318815Y-43301185D01*
X69415506Y-43380537D01*
X69525820Y-43439502D01*
X69645518Y-43475812D01*
X69770000Y-43488072D01*
X71220000Y-43488072D01*
X71344482Y-43475812D01*
X71390770Y-43461771D01*
X71394774Y-43481898D01*
X71472795Y-43670256D01*
X71586063Y-43839774D01*
X71730226Y-43983937D01*
X71899744Y-44097205D01*
X72088102Y-44175226D01*
X72288061Y-44215000D01*
X72491939Y-44215000D01*
X72691898Y-44175226D01*
X72880256Y-44097205D01*
X73049774Y-43983937D01*
X73131928Y-43901783D01*
X73131928Y-45200000D01*
X73144188Y-45324482D01*
X73180498Y-45444180D01*
X73239463Y-45554494D01*
X73318815Y-45651185D01*
X73415506Y-45730537D01*
X73525820Y-45789502D01*
X73645518Y-45825812D01*
X73770000Y-45838072D01*
X73778540Y-45838072D01*
X71454014Y-48162599D01*
X67127904Y-48162599D01*
X67092978Y-48159159D01*
X67058052Y-48162599D01*
X67058043Y-48162599D01*
X66953559Y-48172890D01*
X66819498Y-48213557D01*
X66695946Y-48279597D01*
X66614787Y-48346202D01*
X66614783Y-48346206D01*
X66587652Y-48368472D01*
X66565386Y-48395603D01*
X57108392Y-57852599D01*
X55926326Y-57852599D01*
X56037932Y-57583158D01*
X56095000Y-57296260D01*
X56095000Y-57003740D01*
X56037932Y-56716842D01*
X55925990Y-56446589D01*
X55763475Y-56203368D01*
X55556632Y-55996525D01*
X55382240Y-55880000D01*
X55556632Y-55763475D01*
X55763475Y-55556632D01*
X55925990Y-55313411D01*
X56037932Y-55043158D01*
X56095000Y-54756260D01*
X56095000Y-54463740D01*
X56037932Y-54176842D01*
X55925990Y-53906589D01*
X55763475Y-53663368D01*
X55556632Y-53456525D01*
X55382240Y-53340000D01*
X55556632Y-53223475D01*
X55763475Y-53016632D01*
X55925990Y-52773411D01*
X56037932Y-52503158D01*
X56095000Y-52216260D01*
X56095000Y-51923740D01*
X56037932Y-51636842D01*
X55925990Y-51366589D01*
X55763475Y-51123368D01*
X55556632Y-50916525D01*
X55382240Y-50800000D01*
X55556632Y-50683475D01*
X55763475Y-50476632D01*
X55925990Y-50233411D01*
X56037932Y-49963158D01*
X56095000Y-49676260D01*
X56095000Y-49383740D01*
X56037932Y-49096842D01*
X55925990Y-48826589D01*
X55763475Y-48583368D01*
X55556632Y-48376525D01*
X55382240Y-48260000D01*
X55556632Y-48143475D01*
X55763475Y-47936632D01*
X55925990Y-47693411D01*
X56037932Y-47423158D01*
X56095000Y-47136260D01*
X56095000Y-46843740D01*
X56037932Y-46556842D01*
X55925990Y-46286589D01*
X55763475Y-46043368D01*
X55556632Y-45836525D01*
X55374466Y-45714805D01*
X55491355Y-45645178D01*
X55707588Y-45450269D01*
X55881641Y-45216920D01*
X56006825Y-44954099D01*
X56051476Y-44806890D01*
X55930155Y-44577000D01*
X54737000Y-44577000D01*
X54737000Y-44597000D01*
X54483000Y-44597000D01*
X54483000Y-44577000D01*
X54463000Y-44577000D01*
X54463000Y-44323000D01*
X54483000Y-44323000D01*
X54483000Y-44303000D01*
X54737000Y-44303000D01*
X54737000Y-44323000D01*
X55930155Y-44323000D01*
X56051476Y-44093110D01*
X56006825Y-43945901D01*
X55881641Y-43683080D01*
X55707588Y-43449731D01*
X55491355Y-43254822D01*
X55374466Y-43185195D01*
X55556632Y-43063475D01*
X55763475Y-42856632D01*
X55925990Y-42613411D01*
X56037932Y-42343158D01*
X56095000Y-42056260D01*
X56095000Y-41763740D01*
X56037932Y-41476842D01*
X55975037Y-41325000D01*
X69131928Y-41325000D01*
X69131928Y-42850000D01*
G04 #@! TA.AperFunction,Conductor*
D38*
G36*
X69131928Y-42850000D02*
G01*
X69144188Y-42974482D01*
X69180498Y-43094180D01*
X69239463Y-43204494D01*
X69318815Y-43301185D01*
X69415506Y-43380537D01*
X69525820Y-43439502D01*
X69645518Y-43475812D01*
X69770000Y-43488072D01*
X71220000Y-43488072D01*
X71344482Y-43475812D01*
X71390770Y-43461771D01*
X71394774Y-43481898D01*
X71472795Y-43670256D01*
X71586063Y-43839774D01*
X71730226Y-43983937D01*
X71899744Y-44097205D01*
X72088102Y-44175226D01*
X72288061Y-44215000D01*
X72491939Y-44215000D01*
X72691898Y-44175226D01*
X72880256Y-44097205D01*
X73049774Y-43983937D01*
X73131928Y-43901783D01*
X73131928Y-45200000D01*
X73144188Y-45324482D01*
X73180498Y-45444180D01*
X73239463Y-45554494D01*
X73318815Y-45651185D01*
X73415506Y-45730537D01*
X73525820Y-45789502D01*
X73645518Y-45825812D01*
X73770000Y-45838072D01*
X73778540Y-45838072D01*
X71454014Y-48162599D01*
X67127904Y-48162599D01*
X67092978Y-48159159D01*
X67058052Y-48162599D01*
X67058043Y-48162599D01*
X66953559Y-48172890D01*
X66819498Y-48213557D01*
X66695946Y-48279597D01*
X66614787Y-48346202D01*
X66614783Y-48346206D01*
X66587652Y-48368472D01*
X66565386Y-48395603D01*
X57108392Y-57852599D01*
X55926326Y-57852599D01*
X56037932Y-57583158D01*
X56095000Y-57296260D01*
X56095000Y-57003740D01*
X56037932Y-56716842D01*
X55925990Y-56446589D01*
X55763475Y-56203368D01*
X55556632Y-55996525D01*
X55382240Y-55880000D01*
X55556632Y-55763475D01*
X55763475Y-55556632D01*
X55925990Y-55313411D01*
X56037932Y-55043158D01*
X56095000Y-54756260D01*
X56095000Y-54463740D01*
X56037932Y-54176842D01*
X55925990Y-53906589D01*
X55763475Y-53663368D01*
X55556632Y-53456525D01*
X55382240Y-53340000D01*
X55556632Y-53223475D01*
X55763475Y-53016632D01*
X55925990Y-52773411D01*
X56037932Y-52503158D01*
X56095000Y-52216260D01*
X56095000Y-51923740D01*
X56037932Y-51636842D01*
X55925990Y-51366589D01*
X55763475Y-51123368D01*
X55556632Y-50916525D01*
X55382240Y-50800000D01*
X55556632Y-50683475D01*
X55763475Y-50476632D01*
X55925990Y-50233411D01*
X56037932Y-49963158D01*
X56095000Y-49676260D01*
X56095000Y-49383740D01*
X56037932Y-49096842D01*
X55925990Y-48826589D01*
X55763475Y-48583368D01*
X55556632Y-48376525D01*
X55382240Y-48260000D01*
X55556632Y-48143475D01*
X55763475Y-47936632D01*
X55925990Y-47693411D01*
X56037932Y-47423158D01*
X56095000Y-47136260D01*
X56095000Y-46843740D01*
X56037932Y-46556842D01*
X55925990Y-46286589D01*
X55763475Y-46043368D01*
X55556632Y-45836525D01*
X55374466Y-45714805D01*
X55491355Y-45645178D01*
X55707588Y-45450269D01*
X55881641Y-45216920D01*
X56006825Y-44954099D01*
X56051476Y-44806890D01*
X55930155Y-44577000D01*
X54737000Y-44577000D01*
X54737000Y-44597000D01*
X54483000Y-44597000D01*
X54483000Y-44577000D01*
X54463000Y-44577000D01*
X54463000Y-44323000D01*
X54483000Y-44323000D01*
X54483000Y-44303000D01*
X54737000Y-44303000D01*
X54737000Y-44323000D01*
X55930155Y-44323000D01*
X56051476Y-44093110D01*
X56006825Y-43945901D01*
X55881641Y-43683080D01*
X55707588Y-43449731D01*
X55491355Y-43254822D01*
X55374466Y-43185195D01*
X55556632Y-43063475D01*
X55763475Y-42856632D01*
X55925990Y-42613411D01*
X56037932Y-42343158D01*
X56095000Y-42056260D01*
X56095000Y-41763740D01*
X56037932Y-41476842D01*
X55975037Y-41325000D01*
X69131928Y-41325000D01*
X69131928Y-42850000D01*
G37*
G04 #@! TD.AperFunction*
D37*
X80362795Y-41419744D02*
X80284774Y-41608102D01*
X80245000Y-41808061D01*
X80245000Y-42011939D01*
X80284774Y-42211898D01*
X80362795Y-42400256D01*
X80476063Y-42569774D01*
X80568800Y-42662511D01*
X80568800Y-42743012D01*
X80291810Y-43020003D01*
X80264674Y-43042273D01*
X80242404Y-43069409D01*
X80242403Y-43069410D01*
X80236149Y-43077030D01*
X80220000Y-43081929D01*
X80194482Y-43074188D01*
X80070000Y-43061928D01*
X79955750Y-43065000D01*
X79797000Y-43223750D01*
X79797000Y-43424947D01*
X79780498Y-43455820D01*
X79744188Y-43575518D01*
X79731928Y-43700000D01*
X79731928Y-45200000D01*
X79744188Y-45324482D01*
X79780498Y-45444180D01*
X79797000Y-45475053D01*
X79797000Y-45676250D01*
X79955750Y-45835000D01*
X80070000Y-45838072D01*
X80194482Y-45825812D01*
X80220000Y-45818071D01*
X80245518Y-45825812D01*
X80370000Y-45838072D01*
X81170000Y-45838072D01*
X81294482Y-45825812D01*
X81320000Y-45818071D01*
X81345518Y-45825812D01*
X81470000Y-45838072D01*
X82270000Y-45838072D01*
X82394482Y-45825812D01*
X82514180Y-45789502D01*
X82624494Y-45730537D01*
X82721185Y-45651185D01*
X82800537Y-45554494D01*
X82859502Y-45444180D01*
X82895812Y-45324482D01*
X82908072Y-45200000D01*
X82908072Y-43700000D01*
X82895812Y-43575518D01*
X82859502Y-43455820D01*
X82800537Y-43345506D01*
X82721185Y-43248815D01*
X82624494Y-43169463D01*
X82514180Y-43110498D01*
X82394482Y-43074188D01*
X82270000Y-43061928D01*
X81992244Y-43061928D01*
X81994640Y-43037600D01*
X81991200Y-43002672D01*
X81991200Y-42662511D01*
X82083937Y-42569774D01*
X82197205Y-42400256D01*
X82275226Y-42211898D01*
X82315000Y-42011939D01*
X82315000Y-41808061D01*
X82275226Y-41608102D01*
X82197205Y-41419744D01*
X82133899Y-41325000D01*
X82881928Y-41325000D01*
X82881928Y-42850000D01*
X82894188Y-42974482D01*
X82930498Y-43094180D01*
X82989463Y-43204494D01*
X83068815Y-43301185D01*
X83165506Y-43380537D01*
X83275820Y-43439502D01*
X83395518Y-43475812D01*
X83520000Y-43488072D01*
X84970000Y-43488072D01*
X85094482Y-43475812D01*
X85214180Y-43439502D01*
X85324494Y-43380537D01*
X85421185Y-43301185D01*
X85500537Y-43204494D01*
X85559502Y-43094180D01*
X85595812Y-42974482D01*
X85608072Y-42850000D01*
X85608072Y-41325000D01*
X93761928Y-41325000D01*
X93761928Y-42760000D01*
X93774188Y-42884482D01*
X93810498Y-43004180D01*
X93869463Y-43114494D01*
X93948815Y-43211185D01*
X94045506Y-43290537D01*
X94155820Y-43349502D01*
X94228380Y-43371513D01*
X94096525Y-43503368D01*
X93934010Y-43746589D01*
X93822068Y-44016842D01*
X93765000Y-44303740D01*
X93765000Y-44596260D01*
X93822068Y-44883158D01*
X93934010Y-45153411D01*
X94096525Y-45396632D01*
X94303368Y-45603475D01*
X94477760Y-45720000D01*
X94303368Y-45836525D01*
X94096525Y-46043368D01*
X93934010Y-46286589D01*
X93822068Y-46556842D01*
X93765000Y-46843740D01*
X93765000Y-47136260D01*
X93822068Y-47423158D01*
X93934010Y-47693411D01*
X94096525Y-47936632D01*
X94303368Y-48143475D01*
X94477760Y-48260000D01*
X94303368Y-48376525D01*
X94096525Y-48583368D01*
X93934010Y-48826589D01*
X93822068Y-49096842D01*
X93765000Y-49383740D01*
X93765000Y-49676260D01*
X93822068Y-49963158D01*
X93934010Y-50233411D01*
X94096525Y-50476632D01*
X94303368Y-50683475D01*
X94477760Y-50800000D01*
X94303368Y-50916525D01*
X94096525Y-51123368D01*
X93934010Y-51366589D01*
X93822068Y-51636842D01*
X93765000Y-51923740D01*
X93765000Y-52216260D01*
X93822068Y-52503158D01*
X93934010Y-52773411D01*
X94096525Y-53016632D01*
X94303368Y-53223475D01*
X94477760Y-53340000D01*
X94303368Y-53456525D01*
X94096525Y-53663368D01*
X93934010Y-53906589D01*
X93822068Y-54176842D01*
X93765000Y-54463740D01*
X93765000Y-54756260D01*
X93818456Y-55025001D01*
X87048390Y-55025001D01*
X83811460Y-51788072D01*
X84970000Y-51788072D01*
X85094482Y-51775812D01*
X85214180Y-51739502D01*
X85324494Y-51680537D01*
X85421185Y-51601185D01*
X85500537Y-51504494D01*
X85559502Y-51394180D01*
X85595812Y-51274482D01*
X85608072Y-51150000D01*
X85608072Y-49150000D01*
X85595812Y-49025518D01*
X85559502Y-48905820D01*
X85500537Y-48795506D01*
X85421185Y-48698815D01*
X85324494Y-48619463D01*
X85214180Y-48560498D01*
X85094482Y-48524188D01*
X84970000Y-48511928D01*
X83520000Y-48511928D01*
X83395518Y-48524188D01*
X83275820Y-48560498D01*
X83165506Y-48619463D01*
X83068815Y-48698815D01*
X82989463Y-48795506D01*
X82930498Y-48905820D01*
X82894188Y-49025518D01*
X82881928Y-49150000D01*
X82881928Y-50858540D01*
X77861459Y-45838072D01*
X77870000Y-45838072D01*
X77994482Y-45825812D01*
X78020000Y-45818071D01*
X78045518Y-45825812D01*
X78170000Y-45838072D01*
X78970000Y-45838072D01*
X79094482Y-45825812D01*
X79120000Y-45818071D01*
X79145518Y-45825812D01*
X79270000Y-45838072D01*
X79384250Y-45835000D01*
X79543000Y-45676250D01*
X79543000Y-45475053D01*
X79559502Y-45444180D01*
X79595812Y-45324482D01*
X79608072Y-45200000D01*
X79608072Y-43700000D01*
X79595812Y-43575518D01*
X79559502Y-43455820D01*
X79543000Y-43424947D01*
X79543000Y-43223750D01*
X79384250Y-43065000D01*
X79281200Y-43062229D01*
X79281200Y-42793165D01*
X79399774Y-42713937D01*
X79543937Y-42569774D01*
X79657205Y-42400256D01*
X79735226Y-42211898D01*
X79775000Y-42011939D01*
X79775000Y-41808061D01*
X79735226Y-41608102D01*
X79657205Y-41419744D01*
X79593899Y-41325000D01*
X80426101Y-41325000D01*
X80362795Y-41419744D01*
G04 #@! TA.AperFunction,Conductor*
D38*
G36*
X80362795Y-41419744D02*
G01*
X80284774Y-41608102D01*
X80245000Y-41808061D01*
X80245000Y-42011939D01*
X80284774Y-42211898D01*
X80362795Y-42400256D01*
X80476063Y-42569774D01*
X80568800Y-42662511D01*
X80568800Y-42743012D01*
X80291810Y-43020003D01*
X80264674Y-43042273D01*
X80242404Y-43069409D01*
X80242403Y-43069410D01*
X80236149Y-43077030D01*
X80220000Y-43081929D01*
X80194482Y-43074188D01*
X80070000Y-43061928D01*
X79955750Y-43065000D01*
X79797000Y-43223750D01*
X79797000Y-43424947D01*
X79780498Y-43455820D01*
X79744188Y-43575518D01*
X79731928Y-43700000D01*
X79731928Y-45200000D01*
X79744188Y-45324482D01*
X79780498Y-45444180D01*
X79797000Y-45475053D01*
X79797000Y-45676250D01*
X79955750Y-45835000D01*
X80070000Y-45838072D01*
X80194482Y-45825812D01*
X80220000Y-45818071D01*
X80245518Y-45825812D01*
X80370000Y-45838072D01*
X81170000Y-45838072D01*
X81294482Y-45825812D01*
X81320000Y-45818071D01*
X81345518Y-45825812D01*
X81470000Y-45838072D01*
X82270000Y-45838072D01*
X82394482Y-45825812D01*
X82514180Y-45789502D01*
X82624494Y-45730537D01*
X82721185Y-45651185D01*
X82800537Y-45554494D01*
X82859502Y-45444180D01*
X82895812Y-45324482D01*
X82908072Y-45200000D01*
X82908072Y-43700000D01*
X82895812Y-43575518D01*
X82859502Y-43455820D01*
X82800537Y-43345506D01*
X82721185Y-43248815D01*
X82624494Y-43169463D01*
X82514180Y-43110498D01*
X82394482Y-43074188D01*
X82270000Y-43061928D01*
X81992244Y-43061928D01*
X81994640Y-43037600D01*
X81991200Y-43002672D01*
X81991200Y-42662511D01*
X82083937Y-42569774D01*
X82197205Y-42400256D01*
X82275226Y-42211898D01*
X82315000Y-42011939D01*
X82315000Y-41808061D01*
X82275226Y-41608102D01*
X82197205Y-41419744D01*
X82133899Y-41325000D01*
X82881928Y-41325000D01*
X82881928Y-42850000D01*
X82894188Y-42974482D01*
X82930498Y-43094180D01*
X82989463Y-43204494D01*
X83068815Y-43301185D01*
X83165506Y-43380537D01*
X83275820Y-43439502D01*
X83395518Y-43475812D01*
X83520000Y-43488072D01*
X84970000Y-43488072D01*
X85094482Y-43475812D01*
X85214180Y-43439502D01*
X85324494Y-43380537D01*
X85421185Y-43301185D01*
X85500537Y-43204494D01*
X85559502Y-43094180D01*
X85595812Y-42974482D01*
X85608072Y-42850000D01*
X85608072Y-41325000D01*
X93761928Y-41325000D01*
X93761928Y-42760000D01*
X93774188Y-42884482D01*
X93810498Y-43004180D01*
X93869463Y-43114494D01*
X93948815Y-43211185D01*
X94045506Y-43290537D01*
X94155820Y-43349502D01*
X94228380Y-43371513D01*
X94096525Y-43503368D01*
X93934010Y-43746589D01*
X93822068Y-44016842D01*
X93765000Y-44303740D01*
X93765000Y-44596260D01*
X93822068Y-44883158D01*
X93934010Y-45153411D01*
X94096525Y-45396632D01*
X94303368Y-45603475D01*
X94477760Y-45720000D01*
X94303368Y-45836525D01*
X94096525Y-46043368D01*
X93934010Y-46286589D01*
X93822068Y-46556842D01*
X93765000Y-46843740D01*
X93765000Y-47136260D01*
X93822068Y-47423158D01*
X93934010Y-47693411D01*
X94096525Y-47936632D01*
X94303368Y-48143475D01*
X94477760Y-48260000D01*
X94303368Y-48376525D01*
X94096525Y-48583368D01*
X93934010Y-48826589D01*
X93822068Y-49096842D01*
X93765000Y-49383740D01*
X93765000Y-49676260D01*
X93822068Y-49963158D01*
X93934010Y-50233411D01*
X94096525Y-50476632D01*
X94303368Y-50683475D01*
X94477760Y-50800000D01*
X94303368Y-50916525D01*
X94096525Y-51123368D01*
X93934010Y-51366589D01*
X93822068Y-51636842D01*
X93765000Y-51923740D01*
X93765000Y-52216260D01*
X93822068Y-52503158D01*
X93934010Y-52773411D01*
X94096525Y-53016632D01*
X94303368Y-53223475D01*
X94477760Y-53340000D01*
X94303368Y-53456525D01*
X94096525Y-53663368D01*
X93934010Y-53906589D01*
X93822068Y-54176842D01*
X93765000Y-54463740D01*
X93765000Y-54756260D01*
X93818456Y-55025001D01*
X87048390Y-55025001D01*
X83811460Y-51788072D01*
X84970000Y-51788072D01*
X85094482Y-51775812D01*
X85214180Y-51739502D01*
X85324494Y-51680537D01*
X85421185Y-51601185D01*
X85500537Y-51504494D01*
X85559502Y-51394180D01*
X85595812Y-51274482D01*
X85608072Y-51150000D01*
X85608072Y-49150000D01*
X85595812Y-49025518D01*
X85559502Y-48905820D01*
X85500537Y-48795506D01*
X85421185Y-48698815D01*
X85324494Y-48619463D01*
X85214180Y-48560498D01*
X85094482Y-48524188D01*
X84970000Y-48511928D01*
X83520000Y-48511928D01*
X83395518Y-48524188D01*
X83275820Y-48560498D01*
X83165506Y-48619463D01*
X83068815Y-48698815D01*
X82989463Y-48795506D01*
X82930498Y-48905820D01*
X82894188Y-49025518D01*
X82881928Y-49150000D01*
X82881928Y-50858540D01*
X77861459Y-45838072D01*
X77870000Y-45838072D01*
X77994482Y-45825812D01*
X78020000Y-45818071D01*
X78045518Y-45825812D01*
X78170000Y-45838072D01*
X78970000Y-45838072D01*
X79094482Y-45825812D01*
X79120000Y-45818071D01*
X79145518Y-45825812D01*
X79270000Y-45838072D01*
X79384250Y-45835000D01*
X79543000Y-45676250D01*
X79543000Y-45475053D01*
X79559502Y-45444180D01*
X79595812Y-45324482D01*
X79608072Y-45200000D01*
X79608072Y-43700000D01*
X79595812Y-43575518D01*
X79559502Y-43455820D01*
X79543000Y-43424947D01*
X79543000Y-43223750D01*
X79384250Y-43065000D01*
X79281200Y-43062229D01*
X79281200Y-42793165D01*
X79399774Y-42713937D01*
X79543937Y-42569774D01*
X79657205Y-42400256D01*
X79735226Y-42211898D01*
X79775000Y-42011939D01*
X79775000Y-41808061D01*
X79735226Y-41608102D01*
X79657205Y-41419744D01*
X79593899Y-41325000D01*
X80426101Y-41325000D01*
X80362795Y-41419744D01*
G37*
G04 #@! TD.AperFunction*
M02*
