G04 #@! TF.GenerationSoftware,KiCad,Pcbnew,(5.1.10-1-10_14)*
G04 #@! TF.CreationDate,2021-11-12T14:23:35+00:00*
G04 #@! TF.ProjectId,acnode-doorbot,61636e6f-6465-42d6-946f-6f72626f742e,rev?*
G04 #@! TF.SameCoordinates,Original*
G04 #@! TF.FileFunction,Legend,Top*
G04 #@! TF.FilePolarity,Positive*
%FSLAX46Y46*%
G04 Gerber Fmt 4.6, Leading zero omitted, Abs format (unit mm)*
G04 Created by KiCad (PCBNEW (5.1.10-1-10_14)) date 2021-11-12 14:23:35*
%MOMM*%
%LPD*%
G01*
G04 APERTURE LIST*
%ADD10C,0.150000*%
%ADD11C,0.200000*%
%ADD12C,0.300000*%
%ADD13C,0.125000*%
%ADD14C,0.120000*%
%ADD15C,0.010000*%
%ADD16C,1.600000*%
%ADD17R,2.200000X2.200000*%
%ADD18O,2.200000X2.200000*%
%ADD19R,1.700000X1.700000*%
%ADD20O,1.700000X1.700000*%
%ADD21R,2.600000X2.600000*%
%ADD22C,2.600000*%
%ADD23C,1.100000*%
%ADD24C,2.200000*%
%ADD25R,2.500000X2.500000*%
%ADD26C,2.500000*%
%ADD27R,1.500000X1.500000*%
%ADD28C,1.500000*%
%ADD29C,3.250000*%
%ADD30C,2.000000*%
%ADD31R,1.450000X2.000000*%
%ADD32R,0.800000X1.500000*%
%ADD33R,2.100000X2.100000*%
%ADD34C,2.100000*%
%ADD35C,3.000000*%
%ADD36O,1.050000X1.500000*%
%ADD37R,1.050000X1.500000*%
%ADD38O,1.600000X1.600000*%
%ADD39R,1.905000X2.000000*%
%ADD40O,1.905000X2.000000*%
G04 APERTURE END LIST*
D10*
X70565238Y-81684761D02*
X70708095Y-81732380D01*
X70946190Y-81732380D01*
X71041428Y-81684761D01*
X71089047Y-81637142D01*
X71136666Y-81541904D01*
X71136666Y-81446666D01*
X71089047Y-81351428D01*
X71041428Y-81303809D01*
X70946190Y-81256190D01*
X70755714Y-81208571D01*
X70660476Y-81160952D01*
X70612857Y-81113333D01*
X70565238Y-81018095D01*
X70565238Y-80922857D01*
X70612857Y-80827619D01*
X70660476Y-80780000D01*
X70755714Y-80732380D01*
X70993809Y-80732380D01*
X71136666Y-80780000D01*
X72136666Y-81732380D02*
X71803333Y-81256190D01*
X71565238Y-81732380D02*
X71565238Y-80732380D01*
X71946190Y-80732380D01*
X72041428Y-80780000D01*
X72089047Y-80827619D01*
X72136666Y-80922857D01*
X72136666Y-81065714D01*
X72089047Y-81160952D01*
X72041428Y-81208571D01*
X71946190Y-81256190D01*
X71565238Y-81256190D01*
X72565238Y-81732380D02*
X72565238Y-80732380D01*
X72803333Y-80732380D01*
X72946190Y-80780000D01*
X73041428Y-80875238D01*
X73089047Y-80970476D01*
X73136666Y-81160952D01*
X73136666Y-81303809D01*
X73089047Y-81494285D01*
X73041428Y-81589523D01*
X72946190Y-81684761D01*
X72803333Y-81732380D01*
X72565238Y-81732380D01*
X73565238Y-81351428D02*
X74327142Y-81351428D01*
X74993809Y-80732380D02*
X75089047Y-80732380D01*
X75184285Y-80780000D01*
X75231904Y-80827619D01*
X75279523Y-80922857D01*
X75327142Y-81113333D01*
X75327142Y-81351428D01*
X75279523Y-81541904D01*
X75231904Y-81637142D01*
X75184285Y-81684761D01*
X75089047Y-81732380D01*
X74993809Y-81732380D01*
X74898571Y-81684761D01*
X74850952Y-81637142D01*
X74803333Y-81541904D01*
X74755714Y-81351428D01*
X74755714Y-81113333D01*
X74803333Y-80922857D01*
X74850952Y-80827619D01*
X74898571Y-80780000D01*
X74993809Y-80732380D01*
X76231904Y-80732380D02*
X75755714Y-80732380D01*
X75708095Y-81208571D01*
X75755714Y-81160952D01*
X75850952Y-81113333D01*
X76089047Y-81113333D01*
X76184285Y-81160952D01*
X76231904Y-81208571D01*
X76279523Y-81303809D01*
X76279523Y-81541904D01*
X76231904Y-81637142D01*
X76184285Y-81684761D01*
X76089047Y-81732380D01*
X75850952Y-81732380D01*
X75755714Y-81684761D01*
X75708095Y-81637142D01*
X76565238Y-80732380D02*
X76898571Y-81732380D01*
X77231904Y-80732380D01*
X77565238Y-81732380D02*
X77565238Y-80732380D01*
X77803333Y-80732380D01*
X77946190Y-80780000D01*
X78041428Y-80875238D01*
X78089047Y-80970476D01*
X78136666Y-81160952D01*
X78136666Y-81303809D01*
X78089047Y-81494285D01*
X78041428Y-81589523D01*
X77946190Y-81684761D01*
X77803333Y-81732380D01*
X77565238Y-81732380D01*
X79136666Y-81637142D02*
X79089047Y-81684761D01*
X78946190Y-81732380D01*
X78850952Y-81732380D01*
X78708095Y-81684761D01*
X78612857Y-81589523D01*
X78565238Y-81494285D01*
X78517619Y-81303809D01*
X78517619Y-81160952D01*
X78565238Y-80970476D01*
X78612857Y-80875238D01*
X78708095Y-80780000D01*
X78850952Y-80732380D01*
X78946190Y-80732380D01*
X79089047Y-80780000D01*
X79136666Y-80827619D01*
X79565238Y-81351428D02*
X80327142Y-81351428D01*
X80755714Y-81684761D02*
X80898571Y-81732380D01*
X81136666Y-81732380D01*
X81231904Y-81684761D01*
X81279523Y-81637142D01*
X81327142Y-81541904D01*
X81327142Y-81446666D01*
X81279523Y-81351428D01*
X81231904Y-81303809D01*
X81136666Y-81256190D01*
X80946190Y-81208571D01*
X80850952Y-81160952D01*
X80803333Y-81113333D01*
X80755714Y-81018095D01*
X80755714Y-80922857D01*
X80803333Y-80827619D01*
X80850952Y-80780000D01*
X80946190Y-80732380D01*
X81184285Y-80732380D01*
X81327142Y-80780000D01*
X82231904Y-81732380D02*
X81755714Y-81732380D01*
X81755714Y-80732380D01*
X82565238Y-81351428D02*
X83327142Y-81351428D01*
X84374761Y-81637142D02*
X84327142Y-81684761D01*
X84184285Y-81732380D01*
X84089047Y-81732380D01*
X83946190Y-81684761D01*
X83850952Y-81589523D01*
X83803333Y-81494285D01*
X83755714Y-81303809D01*
X83755714Y-81160952D01*
X83803333Y-80970476D01*
X83850952Y-80875238D01*
X83946190Y-80780000D01*
X84089047Y-80732380D01*
X84184285Y-80732380D01*
X84327142Y-80780000D01*
X84374761Y-80827619D01*
X90892380Y-126062380D02*
X91701904Y-126062380D01*
X91797142Y-126014761D01*
X91844761Y-125967142D01*
X91892380Y-125871904D01*
X91892380Y-125681428D01*
X91844761Y-125586190D01*
X91797142Y-125538571D01*
X91701904Y-125490952D01*
X90892380Y-125490952D01*
X91844761Y-125062380D02*
X91892380Y-124967142D01*
X91892380Y-124776666D01*
X91844761Y-124681428D01*
X91749523Y-124633809D01*
X91701904Y-124633809D01*
X91606666Y-124681428D01*
X91559047Y-124776666D01*
X91559047Y-124919523D01*
X91511428Y-125014761D01*
X91416190Y-125062380D01*
X91368571Y-125062380D01*
X91273333Y-125014761D01*
X91225714Y-124919523D01*
X91225714Y-124776666D01*
X91273333Y-124681428D01*
X91844761Y-123824285D02*
X91892380Y-123919523D01*
X91892380Y-124110000D01*
X91844761Y-124205238D01*
X91749523Y-124252857D01*
X91368571Y-124252857D01*
X91273333Y-124205238D01*
X91225714Y-124110000D01*
X91225714Y-123919523D01*
X91273333Y-123824285D01*
X91368571Y-123776666D01*
X91463809Y-123776666D01*
X91559047Y-124252857D01*
X91892380Y-122443333D02*
X91844761Y-122538571D01*
X91749523Y-122586190D01*
X90892380Y-122586190D01*
X91892380Y-121919523D02*
X91844761Y-122014761D01*
X91797142Y-122062380D01*
X91701904Y-122110000D01*
X91416190Y-122110000D01*
X91320952Y-122062380D01*
X91273333Y-122014761D01*
X91225714Y-121919523D01*
X91225714Y-121776666D01*
X91273333Y-121681428D01*
X91320952Y-121633809D01*
X91416190Y-121586190D01*
X91701904Y-121586190D01*
X91797142Y-121633809D01*
X91844761Y-121681428D01*
X91892380Y-121776666D01*
X91892380Y-121919523D01*
X91225714Y-121157619D02*
X91892380Y-121157619D01*
X91320952Y-121157619D02*
X91273333Y-121110000D01*
X91225714Y-121014761D01*
X91225714Y-120871904D01*
X91273333Y-120776666D01*
X91368571Y-120729047D01*
X91892380Y-120729047D01*
X91225714Y-119824285D02*
X92035238Y-119824285D01*
X92130476Y-119871904D01*
X92178095Y-119919523D01*
X92225714Y-120014761D01*
X92225714Y-120157619D01*
X92178095Y-120252857D01*
X91844761Y-119824285D02*
X91892380Y-119919523D01*
X91892380Y-120110000D01*
X91844761Y-120205238D01*
X91797142Y-120252857D01*
X91701904Y-120300476D01*
X91416190Y-120300476D01*
X91320952Y-120252857D01*
X91273333Y-120205238D01*
X91225714Y-120110000D01*
X91225714Y-119919523D01*
X91273333Y-119824285D01*
X91892380Y-118586190D02*
X90892380Y-118586190D01*
X91892380Y-118157619D02*
X91368571Y-118157619D01*
X91273333Y-118205238D01*
X91225714Y-118300476D01*
X91225714Y-118443333D01*
X91273333Y-118538571D01*
X91320952Y-118586190D01*
X91844761Y-117300476D02*
X91892380Y-117395714D01*
X91892380Y-117586190D01*
X91844761Y-117681428D01*
X91749523Y-117729047D01*
X91368571Y-117729047D01*
X91273333Y-117681428D01*
X91225714Y-117586190D01*
X91225714Y-117395714D01*
X91273333Y-117300476D01*
X91368571Y-117252857D01*
X91463809Y-117252857D01*
X91559047Y-117729047D01*
X91892380Y-116395714D02*
X91368571Y-116395714D01*
X91273333Y-116443333D01*
X91225714Y-116538571D01*
X91225714Y-116729047D01*
X91273333Y-116824285D01*
X91844761Y-116395714D02*
X91892380Y-116490952D01*
X91892380Y-116729047D01*
X91844761Y-116824285D01*
X91749523Y-116871904D01*
X91654285Y-116871904D01*
X91559047Y-116824285D01*
X91511428Y-116729047D01*
X91511428Y-116490952D01*
X91463809Y-116395714D01*
X91892380Y-115490952D02*
X90892380Y-115490952D01*
X91844761Y-115490952D02*
X91892380Y-115586190D01*
X91892380Y-115776666D01*
X91844761Y-115871904D01*
X91797142Y-115919523D01*
X91701904Y-115967142D01*
X91416190Y-115967142D01*
X91320952Y-115919523D01*
X91273333Y-115871904D01*
X91225714Y-115776666D01*
X91225714Y-115586190D01*
X91273333Y-115490952D01*
X91844761Y-114633809D02*
X91892380Y-114729047D01*
X91892380Y-114919523D01*
X91844761Y-115014761D01*
X91749523Y-115062380D01*
X91368571Y-115062380D01*
X91273333Y-115014761D01*
X91225714Y-114919523D01*
X91225714Y-114729047D01*
X91273333Y-114633809D01*
X91368571Y-114586190D01*
X91463809Y-114586190D01*
X91559047Y-115062380D01*
X91892380Y-114157619D02*
X91225714Y-114157619D01*
X91416190Y-114157619D02*
X91320952Y-114110000D01*
X91273333Y-114062380D01*
X91225714Y-113967142D01*
X91225714Y-113871904D01*
X91225714Y-112776666D02*
X92225714Y-112776666D01*
X91273333Y-112776666D02*
X91225714Y-112681428D01*
X91225714Y-112490952D01*
X91273333Y-112395714D01*
X91320952Y-112348095D01*
X91416190Y-112300476D01*
X91701904Y-112300476D01*
X91797142Y-112348095D01*
X91844761Y-112395714D01*
X91892380Y-112490952D01*
X91892380Y-112681428D01*
X91844761Y-112776666D01*
X91892380Y-111871904D02*
X91225714Y-111871904D01*
X90892380Y-111871904D02*
X90940000Y-111919523D01*
X90987619Y-111871904D01*
X90940000Y-111824285D01*
X90892380Y-111871904D01*
X90987619Y-111871904D01*
X91225714Y-111395714D02*
X91892380Y-111395714D01*
X91320952Y-111395714D02*
X91273333Y-111348095D01*
X91225714Y-111252857D01*
X91225714Y-111110000D01*
X91273333Y-111014761D01*
X91368571Y-110967142D01*
X91892380Y-110967142D01*
X91844761Y-110538571D02*
X91892380Y-110443333D01*
X91892380Y-110252857D01*
X91844761Y-110157619D01*
X91749523Y-110110000D01*
X91701904Y-110110000D01*
X91606666Y-110157619D01*
X91559047Y-110252857D01*
X91559047Y-110395714D01*
X91511428Y-110490952D01*
X91416190Y-110538571D01*
X91368571Y-110538571D01*
X91273333Y-110490952D01*
X91225714Y-110395714D01*
X91225714Y-110252857D01*
X91273333Y-110157619D01*
X90892380Y-63832380D02*
X91701904Y-63832380D01*
X91797142Y-63784761D01*
X91844761Y-63737142D01*
X91892380Y-63641904D01*
X91892380Y-63451428D01*
X91844761Y-63356190D01*
X91797142Y-63308571D01*
X91701904Y-63260952D01*
X90892380Y-63260952D01*
X91844761Y-62832380D02*
X91892380Y-62737142D01*
X91892380Y-62546666D01*
X91844761Y-62451428D01*
X91749523Y-62403809D01*
X91701904Y-62403809D01*
X91606666Y-62451428D01*
X91559047Y-62546666D01*
X91559047Y-62689523D01*
X91511428Y-62784761D01*
X91416190Y-62832380D01*
X91368571Y-62832380D01*
X91273333Y-62784761D01*
X91225714Y-62689523D01*
X91225714Y-62546666D01*
X91273333Y-62451428D01*
X91844761Y-61594285D02*
X91892380Y-61689523D01*
X91892380Y-61880000D01*
X91844761Y-61975238D01*
X91749523Y-62022857D01*
X91368571Y-62022857D01*
X91273333Y-61975238D01*
X91225714Y-61880000D01*
X91225714Y-61689523D01*
X91273333Y-61594285D01*
X91368571Y-61546666D01*
X91463809Y-61546666D01*
X91559047Y-62022857D01*
X91892380Y-60213333D02*
X91844761Y-60308571D01*
X91749523Y-60356190D01*
X90892380Y-60356190D01*
X91892380Y-59689523D02*
X91844761Y-59784761D01*
X91797142Y-59832380D01*
X91701904Y-59880000D01*
X91416190Y-59880000D01*
X91320952Y-59832380D01*
X91273333Y-59784761D01*
X91225714Y-59689523D01*
X91225714Y-59546666D01*
X91273333Y-59451428D01*
X91320952Y-59403809D01*
X91416190Y-59356190D01*
X91701904Y-59356190D01*
X91797142Y-59403809D01*
X91844761Y-59451428D01*
X91892380Y-59546666D01*
X91892380Y-59689523D01*
X91225714Y-58927619D02*
X91892380Y-58927619D01*
X91320952Y-58927619D02*
X91273333Y-58880000D01*
X91225714Y-58784761D01*
X91225714Y-58641904D01*
X91273333Y-58546666D01*
X91368571Y-58499047D01*
X91892380Y-58499047D01*
X91225714Y-57594285D02*
X92035238Y-57594285D01*
X92130476Y-57641904D01*
X92178095Y-57689523D01*
X92225714Y-57784761D01*
X92225714Y-57927619D01*
X92178095Y-58022857D01*
X91844761Y-57594285D02*
X91892380Y-57689523D01*
X91892380Y-57880000D01*
X91844761Y-57975238D01*
X91797142Y-58022857D01*
X91701904Y-58070476D01*
X91416190Y-58070476D01*
X91320952Y-58022857D01*
X91273333Y-57975238D01*
X91225714Y-57880000D01*
X91225714Y-57689523D01*
X91273333Y-57594285D01*
X91892380Y-56356190D02*
X90892380Y-56356190D01*
X91892380Y-55927619D02*
X91368571Y-55927619D01*
X91273333Y-55975238D01*
X91225714Y-56070476D01*
X91225714Y-56213333D01*
X91273333Y-56308571D01*
X91320952Y-56356190D01*
X91844761Y-55070476D02*
X91892380Y-55165714D01*
X91892380Y-55356190D01*
X91844761Y-55451428D01*
X91749523Y-55499047D01*
X91368571Y-55499047D01*
X91273333Y-55451428D01*
X91225714Y-55356190D01*
X91225714Y-55165714D01*
X91273333Y-55070476D01*
X91368571Y-55022857D01*
X91463809Y-55022857D01*
X91559047Y-55499047D01*
X91892380Y-54165714D02*
X91368571Y-54165714D01*
X91273333Y-54213333D01*
X91225714Y-54308571D01*
X91225714Y-54499047D01*
X91273333Y-54594285D01*
X91844761Y-54165714D02*
X91892380Y-54260952D01*
X91892380Y-54499047D01*
X91844761Y-54594285D01*
X91749523Y-54641904D01*
X91654285Y-54641904D01*
X91559047Y-54594285D01*
X91511428Y-54499047D01*
X91511428Y-54260952D01*
X91463809Y-54165714D01*
X91892380Y-53260952D02*
X90892380Y-53260952D01*
X91844761Y-53260952D02*
X91892380Y-53356190D01*
X91892380Y-53546666D01*
X91844761Y-53641904D01*
X91797142Y-53689523D01*
X91701904Y-53737142D01*
X91416190Y-53737142D01*
X91320952Y-53689523D01*
X91273333Y-53641904D01*
X91225714Y-53546666D01*
X91225714Y-53356190D01*
X91273333Y-53260952D01*
X91844761Y-52403809D02*
X91892380Y-52499047D01*
X91892380Y-52689523D01*
X91844761Y-52784761D01*
X91749523Y-52832380D01*
X91368571Y-52832380D01*
X91273333Y-52784761D01*
X91225714Y-52689523D01*
X91225714Y-52499047D01*
X91273333Y-52403809D01*
X91368571Y-52356190D01*
X91463809Y-52356190D01*
X91559047Y-52832380D01*
X91892380Y-51927619D02*
X91225714Y-51927619D01*
X91416190Y-51927619D02*
X91320952Y-51880000D01*
X91273333Y-51832380D01*
X91225714Y-51737142D01*
X91225714Y-51641904D01*
X91225714Y-50546666D02*
X92225714Y-50546666D01*
X91273333Y-50546666D02*
X91225714Y-50451428D01*
X91225714Y-50260952D01*
X91273333Y-50165714D01*
X91320952Y-50118095D01*
X91416190Y-50070476D01*
X91701904Y-50070476D01*
X91797142Y-50118095D01*
X91844761Y-50165714D01*
X91892380Y-50260952D01*
X91892380Y-50451428D01*
X91844761Y-50546666D01*
X91892380Y-49641904D02*
X91225714Y-49641904D01*
X90892380Y-49641904D02*
X90940000Y-49689523D01*
X90987619Y-49641904D01*
X90940000Y-49594285D01*
X90892380Y-49641904D01*
X90987619Y-49641904D01*
X91225714Y-49165714D02*
X91892380Y-49165714D01*
X91320952Y-49165714D02*
X91273333Y-49118095D01*
X91225714Y-49022857D01*
X91225714Y-48880000D01*
X91273333Y-48784761D01*
X91368571Y-48737142D01*
X91892380Y-48737142D01*
X91844761Y-48308571D02*
X91892380Y-48213333D01*
X91892380Y-48022857D01*
X91844761Y-47927619D01*
X91749523Y-47880000D01*
X91701904Y-47880000D01*
X91606666Y-47927619D01*
X91559047Y-48022857D01*
X91559047Y-48165714D01*
X91511428Y-48260952D01*
X91416190Y-48308571D01*
X91368571Y-48308571D01*
X91273333Y-48260952D01*
X91225714Y-48165714D01*
X91225714Y-48022857D01*
X91273333Y-47927619D01*
X57872380Y-62562380D02*
X58681904Y-62562380D01*
X58777142Y-62514761D01*
X58824761Y-62467142D01*
X58872380Y-62371904D01*
X58872380Y-62181428D01*
X58824761Y-62086190D01*
X58777142Y-62038571D01*
X58681904Y-61990952D01*
X57872380Y-61990952D01*
X58824761Y-61562380D02*
X58872380Y-61467142D01*
X58872380Y-61276666D01*
X58824761Y-61181428D01*
X58729523Y-61133809D01*
X58681904Y-61133809D01*
X58586666Y-61181428D01*
X58539047Y-61276666D01*
X58539047Y-61419523D01*
X58491428Y-61514761D01*
X58396190Y-61562380D01*
X58348571Y-61562380D01*
X58253333Y-61514761D01*
X58205714Y-61419523D01*
X58205714Y-61276666D01*
X58253333Y-61181428D01*
X58824761Y-60324285D02*
X58872380Y-60419523D01*
X58872380Y-60610000D01*
X58824761Y-60705238D01*
X58729523Y-60752857D01*
X58348571Y-60752857D01*
X58253333Y-60705238D01*
X58205714Y-60610000D01*
X58205714Y-60419523D01*
X58253333Y-60324285D01*
X58348571Y-60276666D01*
X58443809Y-60276666D01*
X58539047Y-60752857D01*
X58872380Y-58943333D02*
X58824761Y-59038571D01*
X58729523Y-59086190D01*
X57872380Y-59086190D01*
X58872380Y-58419523D02*
X58824761Y-58514761D01*
X58777142Y-58562380D01*
X58681904Y-58610000D01*
X58396190Y-58610000D01*
X58300952Y-58562380D01*
X58253333Y-58514761D01*
X58205714Y-58419523D01*
X58205714Y-58276666D01*
X58253333Y-58181428D01*
X58300952Y-58133809D01*
X58396190Y-58086190D01*
X58681904Y-58086190D01*
X58777142Y-58133809D01*
X58824761Y-58181428D01*
X58872380Y-58276666D01*
X58872380Y-58419523D01*
X58205714Y-57657619D02*
X58872380Y-57657619D01*
X58300952Y-57657619D02*
X58253333Y-57610000D01*
X58205714Y-57514761D01*
X58205714Y-57371904D01*
X58253333Y-57276666D01*
X58348571Y-57229047D01*
X58872380Y-57229047D01*
X58205714Y-56324285D02*
X59015238Y-56324285D01*
X59110476Y-56371904D01*
X59158095Y-56419523D01*
X59205714Y-56514761D01*
X59205714Y-56657619D01*
X59158095Y-56752857D01*
X58824761Y-56324285D02*
X58872380Y-56419523D01*
X58872380Y-56610000D01*
X58824761Y-56705238D01*
X58777142Y-56752857D01*
X58681904Y-56800476D01*
X58396190Y-56800476D01*
X58300952Y-56752857D01*
X58253333Y-56705238D01*
X58205714Y-56610000D01*
X58205714Y-56419523D01*
X58253333Y-56324285D01*
X58872380Y-55086190D02*
X57872380Y-55086190D01*
X58872380Y-54657619D02*
X58348571Y-54657619D01*
X58253333Y-54705238D01*
X58205714Y-54800476D01*
X58205714Y-54943333D01*
X58253333Y-55038571D01*
X58300952Y-55086190D01*
X58824761Y-53800476D02*
X58872380Y-53895714D01*
X58872380Y-54086190D01*
X58824761Y-54181428D01*
X58729523Y-54229047D01*
X58348571Y-54229047D01*
X58253333Y-54181428D01*
X58205714Y-54086190D01*
X58205714Y-53895714D01*
X58253333Y-53800476D01*
X58348571Y-53752857D01*
X58443809Y-53752857D01*
X58539047Y-54229047D01*
X58872380Y-52895714D02*
X58348571Y-52895714D01*
X58253333Y-52943333D01*
X58205714Y-53038571D01*
X58205714Y-53229047D01*
X58253333Y-53324285D01*
X58824761Y-52895714D02*
X58872380Y-52990952D01*
X58872380Y-53229047D01*
X58824761Y-53324285D01*
X58729523Y-53371904D01*
X58634285Y-53371904D01*
X58539047Y-53324285D01*
X58491428Y-53229047D01*
X58491428Y-52990952D01*
X58443809Y-52895714D01*
X58872380Y-51990952D02*
X57872380Y-51990952D01*
X58824761Y-51990952D02*
X58872380Y-52086190D01*
X58872380Y-52276666D01*
X58824761Y-52371904D01*
X58777142Y-52419523D01*
X58681904Y-52467142D01*
X58396190Y-52467142D01*
X58300952Y-52419523D01*
X58253333Y-52371904D01*
X58205714Y-52276666D01*
X58205714Y-52086190D01*
X58253333Y-51990952D01*
X58824761Y-51133809D02*
X58872380Y-51229047D01*
X58872380Y-51419523D01*
X58824761Y-51514761D01*
X58729523Y-51562380D01*
X58348571Y-51562380D01*
X58253333Y-51514761D01*
X58205714Y-51419523D01*
X58205714Y-51229047D01*
X58253333Y-51133809D01*
X58348571Y-51086190D01*
X58443809Y-51086190D01*
X58539047Y-51562380D01*
X58872380Y-50657619D02*
X58205714Y-50657619D01*
X58396190Y-50657619D02*
X58300952Y-50610000D01*
X58253333Y-50562380D01*
X58205714Y-50467142D01*
X58205714Y-50371904D01*
X58205714Y-49276666D02*
X59205714Y-49276666D01*
X58253333Y-49276666D02*
X58205714Y-49181428D01*
X58205714Y-48990952D01*
X58253333Y-48895714D01*
X58300952Y-48848095D01*
X58396190Y-48800476D01*
X58681904Y-48800476D01*
X58777142Y-48848095D01*
X58824761Y-48895714D01*
X58872380Y-48990952D01*
X58872380Y-49181428D01*
X58824761Y-49276666D01*
X58872380Y-48371904D02*
X58205714Y-48371904D01*
X57872380Y-48371904D02*
X57920000Y-48419523D01*
X57967619Y-48371904D01*
X57920000Y-48324285D01*
X57872380Y-48371904D01*
X57967619Y-48371904D01*
X58205714Y-47895714D02*
X58872380Y-47895714D01*
X58300952Y-47895714D02*
X58253333Y-47848095D01*
X58205714Y-47752857D01*
X58205714Y-47610000D01*
X58253333Y-47514761D01*
X58348571Y-47467142D01*
X58872380Y-47467142D01*
X58824761Y-47038571D02*
X58872380Y-46943333D01*
X58872380Y-46752857D01*
X58824761Y-46657619D01*
X58729523Y-46610000D01*
X58681904Y-46610000D01*
X58586666Y-46657619D01*
X58539047Y-46752857D01*
X58539047Y-46895714D01*
X58491428Y-46990952D01*
X58396190Y-47038571D01*
X58348571Y-47038571D01*
X58253333Y-46990952D01*
X58205714Y-46895714D01*
X58205714Y-46752857D01*
X58253333Y-46657619D01*
X57872380Y-126062380D02*
X58681904Y-126062380D01*
X58777142Y-126014761D01*
X58824761Y-125967142D01*
X58872380Y-125871904D01*
X58872380Y-125681428D01*
X58824761Y-125586190D01*
X58777142Y-125538571D01*
X58681904Y-125490952D01*
X57872380Y-125490952D01*
X58824761Y-125062380D02*
X58872380Y-124967142D01*
X58872380Y-124776666D01*
X58824761Y-124681428D01*
X58729523Y-124633809D01*
X58681904Y-124633809D01*
X58586666Y-124681428D01*
X58539047Y-124776666D01*
X58539047Y-124919523D01*
X58491428Y-125014761D01*
X58396190Y-125062380D01*
X58348571Y-125062380D01*
X58253333Y-125014761D01*
X58205714Y-124919523D01*
X58205714Y-124776666D01*
X58253333Y-124681428D01*
X58824761Y-123824285D02*
X58872380Y-123919523D01*
X58872380Y-124110000D01*
X58824761Y-124205238D01*
X58729523Y-124252857D01*
X58348571Y-124252857D01*
X58253333Y-124205238D01*
X58205714Y-124110000D01*
X58205714Y-123919523D01*
X58253333Y-123824285D01*
X58348571Y-123776666D01*
X58443809Y-123776666D01*
X58539047Y-124252857D01*
X58872380Y-122443333D02*
X58824761Y-122538571D01*
X58729523Y-122586190D01*
X57872380Y-122586190D01*
X58872380Y-121919523D02*
X58824761Y-122014761D01*
X58777142Y-122062380D01*
X58681904Y-122110000D01*
X58396190Y-122110000D01*
X58300952Y-122062380D01*
X58253333Y-122014761D01*
X58205714Y-121919523D01*
X58205714Y-121776666D01*
X58253333Y-121681428D01*
X58300952Y-121633809D01*
X58396190Y-121586190D01*
X58681904Y-121586190D01*
X58777142Y-121633809D01*
X58824761Y-121681428D01*
X58872380Y-121776666D01*
X58872380Y-121919523D01*
X58205714Y-121157619D02*
X58872380Y-121157619D01*
X58300952Y-121157619D02*
X58253333Y-121110000D01*
X58205714Y-121014761D01*
X58205714Y-120871904D01*
X58253333Y-120776666D01*
X58348571Y-120729047D01*
X58872380Y-120729047D01*
X58205714Y-119824285D02*
X59015238Y-119824285D01*
X59110476Y-119871904D01*
X59158095Y-119919523D01*
X59205714Y-120014761D01*
X59205714Y-120157619D01*
X59158095Y-120252857D01*
X58824761Y-119824285D02*
X58872380Y-119919523D01*
X58872380Y-120110000D01*
X58824761Y-120205238D01*
X58777142Y-120252857D01*
X58681904Y-120300476D01*
X58396190Y-120300476D01*
X58300952Y-120252857D01*
X58253333Y-120205238D01*
X58205714Y-120110000D01*
X58205714Y-119919523D01*
X58253333Y-119824285D01*
X58872380Y-118586190D02*
X57872380Y-118586190D01*
X58872380Y-118157619D02*
X58348571Y-118157619D01*
X58253333Y-118205238D01*
X58205714Y-118300476D01*
X58205714Y-118443333D01*
X58253333Y-118538571D01*
X58300952Y-118586190D01*
X58824761Y-117300476D02*
X58872380Y-117395714D01*
X58872380Y-117586190D01*
X58824761Y-117681428D01*
X58729523Y-117729047D01*
X58348571Y-117729047D01*
X58253333Y-117681428D01*
X58205714Y-117586190D01*
X58205714Y-117395714D01*
X58253333Y-117300476D01*
X58348571Y-117252857D01*
X58443809Y-117252857D01*
X58539047Y-117729047D01*
X58872380Y-116395714D02*
X58348571Y-116395714D01*
X58253333Y-116443333D01*
X58205714Y-116538571D01*
X58205714Y-116729047D01*
X58253333Y-116824285D01*
X58824761Y-116395714D02*
X58872380Y-116490952D01*
X58872380Y-116729047D01*
X58824761Y-116824285D01*
X58729523Y-116871904D01*
X58634285Y-116871904D01*
X58539047Y-116824285D01*
X58491428Y-116729047D01*
X58491428Y-116490952D01*
X58443809Y-116395714D01*
X58872380Y-115490952D02*
X57872380Y-115490952D01*
X58824761Y-115490952D02*
X58872380Y-115586190D01*
X58872380Y-115776666D01*
X58824761Y-115871904D01*
X58777142Y-115919523D01*
X58681904Y-115967142D01*
X58396190Y-115967142D01*
X58300952Y-115919523D01*
X58253333Y-115871904D01*
X58205714Y-115776666D01*
X58205714Y-115586190D01*
X58253333Y-115490952D01*
X58824761Y-114633809D02*
X58872380Y-114729047D01*
X58872380Y-114919523D01*
X58824761Y-115014761D01*
X58729523Y-115062380D01*
X58348571Y-115062380D01*
X58253333Y-115014761D01*
X58205714Y-114919523D01*
X58205714Y-114729047D01*
X58253333Y-114633809D01*
X58348571Y-114586190D01*
X58443809Y-114586190D01*
X58539047Y-115062380D01*
X58872380Y-114157619D02*
X58205714Y-114157619D01*
X58396190Y-114157619D02*
X58300952Y-114110000D01*
X58253333Y-114062380D01*
X58205714Y-113967142D01*
X58205714Y-113871904D01*
X58205714Y-112776666D02*
X59205714Y-112776666D01*
X58253333Y-112776666D02*
X58205714Y-112681428D01*
X58205714Y-112490952D01*
X58253333Y-112395714D01*
X58300952Y-112348095D01*
X58396190Y-112300476D01*
X58681904Y-112300476D01*
X58777142Y-112348095D01*
X58824761Y-112395714D01*
X58872380Y-112490952D01*
X58872380Y-112681428D01*
X58824761Y-112776666D01*
X58872380Y-111871904D02*
X58205714Y-111871904D01*
X57872380Y-111871904D02*
X57920000Y-111919523D01*
X57967619Y-111871904D01*
X57920000Y-111824285D01*
X57872380Y-111871904D01*
X57967619Y-111871904D01*
X58205714Y-111395714D02*
X58872380Y-111395714D01*
X58300952Y-111395714D02*
X58253333Y-111348095D01*
X58205714Y-111252857D01*
X58205714Y-111110000D01*
X58253333Y-111014761D01*
X58348571Y-110967142D01*
X58872380Y-110967142D01*
X58824761Y-110538571D02*
X58872380Y-110443333D01*
X58872380Y-110252857D01*
X58824761Y-110157619D01*
X58729523Y-110110000D01*
X58681904Y-110110000D01*
X58586666Y-110157619D01*
X58539047Y-110252857D01*
X58539047Y-110395714D01*
X58491428Y-110490952D01*
X58396190Y-110538571D01*
X58348571Y-110538571D01*
X58253333Y-110490952D01*
X58205714Y-110395714D01*
X58205714Y-110252857D01*
X58253333Y-110157619D01*
D11*
X90170000Y-44450000D02*
X91440000Y-46990000D01*
X90170000Y-44450000D02*
X88900000Y-46990000D01*
X90170000Y-62230000D02*
X90170000Y-44450000D01*
X60960000Y-44450000D02*
X62230000Y-46990000D01*
X60960000Y-44450000D02*
X59690000Y-46990000D01*
X60960000Y-60960000D02*
X60960000Y-44450000D01*
D12*
X91531428Y-91975714D02*
X91460000Y-92047142D01*
X91245714Y-92118571D01*
X91102857Y-92118571D01*
X90888571Y-92047142D01*
X90745714Y-91904285D01*
X90674285Y-91761428D01*
X90602857Y-91475714D01*
X90602857Y-91261428D01*
X90674285Y-90975714D01*
X90745714Y-90832857D01*
X90888571Y-90690000D01*
X91102857Y-90618571D01*
X91245714Y-90618571D01*
X91460000Y-90690000D01*
X91531428Y-90761428D01*
X92460000Y-90618571D02*
X92745714Y-90618571D01*
X92888571Y-90690000D01*
X93031428Y-90832857D01*
X93102857Y-91118571D01*
X93102857Y-91618571D01*
X93031428Y-91904285D01*
X92888571Y-92047142D01*
X92745714Y-92118571D01*
X92460000Y-92118571D01*
X92317142Y-92047142D01*
X92174285Y-91904285D01*
X92102857Y-91618571D01*
X92102857Y-91118571D01*
X92174285Y-90832857D01*
X92317142Y-90690000D01*
X92460000Y-90618571D01*
X93745714Y-92118571D02*
X93745714Y-90618571D01*
X94245714Y-91690000D01*
X94745714Y-90618571D01*
X94745714Y-92118571D01*
X92765714Y-85768571D02*
X92765714Y-84268571D01*
X93622857Y-85768571D01*
X93622857Y-84268571D01*
X94622857Y-84268571D02*
X94908571Y-84268571D01*
X95051428Y-84340000D01*
X95194285Y-84482857D01*
X95265714Y-84768571D01*
X95265714Y-85268571D01*
X95194285Y-85554285D01*
X95051428Y-85697142D01*
X94908571Y-85768571D01*
X94622857Y-85768571D01*
X94480000Y-85697142D01*
X94337142Y-85554285D01*
X94265714Y-85268571D01*
X94265714Y-84768571D01*
X94337142Y-84482857D01*
X94480000Y-84340000D01*
X94622857Y-84268571D01*
X92801428Y-97198571D02*
X92801428Y-95698571D01*
X93658571Y-97198571D01*
X93658571Y-95698571D01*
X95230000Y-97055714D02*
X95158571Y-97127142D01*
X94944285Y-97198571D01*
X94801428Y-97198571D01*
X94587142Y-97127142D01*
X94444285Y-96984285D01*
X94372857Y-96841428D01*
X94301428Y-96555714D01*
X94301428Y-96341428D01*
X94372857Y-96055714D01*
X94444285Y-95912857D01*
X94587142Y-95770000D01*
X94801428Y-95698571D01*
X94944285Y-95698571D01*
X95158571Y-95770000D01*
X95230000Y-95841428D01*
X55960000Y-145458571D02*
X55460000Y-144744285D01*
X55102857Y-145458571D02*
X55102857Y-143958571D01*
X55674285Y-143958571D01*
X55817142Y-144030000D01*
X55888571Y-144101428D01*
X55960000Y-144244285D01*
X55960000Y-144458571D01*
X55888571Y-144601428D01*
X55817142Y-144672857D01*
X55674285Y-144744285D01*
X55102857Y-144744285D01*
X57174285Y-145387142D02*
X57031428Y-145458571D01*
X56745714Y-145458571D01*
X56602857Y-145387142D01*
X56531428Y-145244285D01*
X56531428Y-144672857D01*
X56602857Y-144530000D01*
X56745714Y-144458571D01*
X57031428Y-144458571D01*
X57174285Y-144530000D01*
X57245714Y-144672857D01*
X57245714Y-144815714D01*
X56531428Y-144958571D01*
X58531428Y-145458571D02*
X58531428Y-144672857D01*
X58460000Y-144530000D01*
X58317142Y-144458571D01*
X58031428Y-144458571D01*
X57888571Y-144530000D01*
X58531428Y-145387142D02*
X58388571Y-145458571D01*
X58031428Y-145458571D01*
X57888571Y-145387142D01*
X57817142Y-145244285D01*
X57817142Y-145101428D01*
X57888571Y-144958571D01*
X58031428Y-144887142D01*
X58388571Y-144887142D01*
X58531428Y-144815714D01*
X59888571Y-145458571D02*
X59888571Y-143958571D01*
X59888571Y-145387142D02*
X59745714Y-145458571D01*
X59460000Y-145458571D01*
X59317142Y-145387142D01*
X59245714Y-145315714D01*
X59174285Y-145172857D01*
X59174285Y-144744285D01*
X59245714Y-144601428D01*
X59317142Y-144530000D01*
X59460000Y-144458571D01*
X59745714Y-144458571D01*
X59888571Y-144530000D01*
X61174285Y-145387142D02*
X61031428Y-145458571D01*
X60745714Y-145458571D01*
X60602857Y-145387142D01*
X60531428Y-145244285D01*
X60531428Y-144672857D01*
X60602857Y-144530000D01*
X60745714Y-144458571D01*
X61031428Y-144458571D01*
X61174285Y-144530000D01*
X61245714Y-144672857D01*
X61245714Y-144815714D01*
X60531428Y-144958571D01*
X61888571Y-145458571D02*
X61888571Y-144458571D01*
X61888571Y-144744285D02*
X61960000Y-144601428D01*
X62031428Y-144530000D01*
X62174285Y-144458571D01*
X62317142Y-144458571D01*
X63960000Y-145458571D02*
X63960000Y-143958571D01*
X65745714Y-143887142D02*
X64460000Y-145815714D01*
X66745714Y-144672857D02*
X66245714Y-144672857D01*
X66245714Y-145458571D02*
X66245714Y-143958571D01*
X66960000Y-143958571D01*
X87737142Y-164147142D02*
X87737142Y-163004285D01*
X86880000Y-161504285D02*
X86808571Y-161647142D01*
X86808571Y-161861428D01*
X86880000Y-162075714D01*
X87022857Y-162218571D01*
X87165714Y-162290000D01*
X87451428Y-162361428D01*
X87665714Y-162361428D01*
X87951428Y-162290000D01*
X88094285Y-162218571D01*
X88237142Y-162075714D01*
X88308571Y-161861428D01*
X88308571Y-161718571D01*
X88237142Y-161504285D01*
X88165714Y-161432857D01*
X87665714Y-161432857D01*
X87665714Y-161718571D01*
X88308571Y-160790000D02*
X86808571Y-160790000D01*
X88308571Y-159932857D01*
X86808571Y-159932857D01*
X88308571Y-159218571D02*
X86808571Y-159218571D01*
X86808571Y-158861428D01*
X86880000Y-158647142D01*
X87022857Y-158504285D01*
X87165714Y-158432857D01*
X87451428Y-158361428D01*
X87665714Y-158361428D01*
X87951428Y-158432857D01*
X88094285Y-158504285D01*
X88237142Y-158647142D01*
X88308571Y-158861428D01*
X88308571Y-159218571D01*
X75037142Y-163932857D02*
X75037142Y-162790000D01*
X75608571Y-163361428D02*
X74465714Y-163361428D01*
X75608571Y-161290000D02*
X75608571Y-162147142D01*
X75608571Y-161718571D02*
X74108571Y-161718571D01*
X74322857Y-161861428D01*
X74465714Y-162004285D01*
X74537142Y-162147142D01*
X74251428Y-160718571D02*
X74180000Y-160647142D01*
X74108571Y-160504285D01*
X74108571Y-160147142D01*
X74180000Y-160004285D01*
X74251428Y-159932857D01*
X74394285Y-159861428D01*
X74537142Y-159861428D01*
X74751428Y-159932857D01*
X75608571Y-160790000D01*
X75608571Y-159861428D01*
X74108571Y-159432857D02*
X75608571Y-158932857D01*
X74108571Y-158432857D01*
D13*
X98111904Y-133576190D02*
X98111904Y-133076190D01*
X98302380Y-133076190D01*
X98350000Y-133100000D01*
X98373809Y-133123809D01*
X98397619Y-133171428D01*
X98397619Y-133242857D01*
X98373809Y-133290476D01*
X98350000Y-133314285D01*
X98302380Y-133338095D01*
X98111904Y-133338095D01*
X98611904Y-133576190D02*
X98611904Y-133076190D01*
X98802380Y-133076190D01*
X98850000Y-133100000D01*
X98873809Y-133123809D01*
X98897619Y-133171428D01*
X98897619Y-133242857D01*
X98873809Y-133290476D01*
X98850000Y-133314285D01*
X98802380Y-133338095D01*
X98611904Y-133338095D01*
X98992857Y-133623809D02*
X99373809Y-133623809D01*
X99707142Y-133242857D02*
X99707142Y-133576190D01*
X99588095Y-133052380D02*
X99469047Y-133409523D01*
X99778571Y-133409523D01*
X99850000Y-133623809D02*
X100230952Y-133623809D01*
X100635714Y-133576190D02*
X100469047Y-133338095D01*
X100350000Y-133576190D02*
X100350000Y-133076190D01*
X100540476Y-133076190D01*
X100588095Y-133100000D01*
X100611904Y-133123809D01*
X100635714Y-133171428D01*
X100635714Y-133242857D01*
X100611904Y-133290476D01*
X100588095Y-133314285D01*
X100540476Y-133338095D01*
X100350000Y-133338095D01*
X100850000Y-133314285D02*
X101016666Y-133314285D01*
X101088095Y-133576190D02*
X100850000Y-133576190D01*
X100850000Y-133076190D01*
X101088095Y-133076190D01*
X101302380Y-133314285D02*
X101469047Y-133314285D01*
X101540476Y-133576190D02*
X101302380Y-133576190D01*
X101302380Y-133076190D01*
X101540476Y-133076190D01*
X101754761Y-133576190D02*
X101754761Y-133076190D01*
X101873809Y-133076190D01*
X101945238Y-133100000D01*
X101992857Y-133147619D01*
X102016666Y-133195238D01*
X102040476Y-133290476D01*
X102040476Y-133361904D01*
X102016666Y-133457142D01*
X101992857Y-133504761D01*
X101945238Y-133552380D01*
X101873809Y-133576190D01*
X101754761Y-133576190D01*
X102135714Y-133623809D02*
X102516666Y-133623809D01*
X102611904Y-133552380D02*
X102683333Y-133576190D01*
X102802380Y-133576190D01*
X102850000Y-133552380D01*
X102873809Y-133528571D01*
X102897619Y-133480952D01*
X102897619Y-133433333D01*
X102873809Y-133385714D01*
X102850000Y-133361904D01*
X102802380Y-133338095D01*
X102707142Y-133314285D01*
X102659523Y-133290476D01*
X102635714Y-133266666D01*
X102611904Y-133219047D01*
X102611904Y-133171428D01*
X102635714Y-133123809D01*
X102659523Y-133100000D01*
X102707142Y-133076190D01*
X102826190Y-133076190D01*
X102897619Y-133100000D01*
X103064285Y-133076190D02*
X103183333Y-133576190D01*
X103278571Y-133219047D01*
X103373809Y-133576190D01*
X103492857Y-133076190D01*
X103683333Y-133576190D02*
X103683333Y-133076190D01*
X103850000Y-133076190D02*
X104135714Y-133076190D01*
X103992857Y-133576190D02*
X103992857Y-133076190D01*
X104588095Y-133528571D02*
X104564285Y-133552380D01*
X104492857Y-133576190D01*
X104445238Y-133576190D01*
X104373809Y-133552380D01*
X104326190Y-133504761D01*
X104302380Y-133457142D01*
X104278571Y-133361904D01*
X104278571Y-133290476D01*
X104302380Y-133195238D01*
X104326190Y-133147619D01*
X104373809Y-133100000D01*
X104445238Y-133076190D01*
X104492857Y-133076190D01*
X104564285Y-133100000D01*
X104588095Y-133123809D01*
X104802380Y-133576190D02*
X104802380Y-133076190D01*
X104802380Y-133314285D02*
X105088095Y-133314285D01*
X105088095Y-133576190D02*
X105088095Y-133076190D01*
X97923988Y-143736190D02*
X97923988Y-143236190D01*
X98114464Y-143236190D01*
X98162083Y-143260000D01*
X98185892Y-143283809D01*
X98209702Y-143331428D01*
X98209702Y-143402857D01*
X98185892Y-143450476D01*
X98162083Y-143474285D01*
X98114464Y-143498095D01*
X97923988Y-143498095D01*
X98423988Y-143736190D02*
X98423988Y-143236190D01*
X98590654Y-143593333D01*
X98757321Y-143236190D01*
X98757321Y-143736190D01*
X99209702Y-143236190D02*
X99114464Y-143236190D01*
X99066845Y-143260000D01*
X99043035Y-143283809D01*
X98995416Y-143355238D01*
X98971607Y-143450476D01*
X98971607Y-143640952D01*
X98995416Y-143688571D01*
X99019226Y-143712380D01*
X99066845Y-143736190D01*
X99162083Y-143736190D01*
X99209702Y-143712380D01*
X99233511Y-143688571D01*
X99257321Y-143640952D01*
X99257321Y-143521904D01*
X99233511Y-143474285D01*
X99209702Y-143450476D01*
X99162083Y-143426666D01*
X99066845Y-143426666D01*
X99019226Y-143450476D01*
X98995416Y-143474285D01*
X98971607Y-143521904D01*
X99352559Y-143783809D02*
X99733511Y-143783809D01*
X99852559Y-143736190D02*
X99852559Y-143236190D01*
X99971607Y-143236190D01*
X100043035Y-143260000D01*
X100090654Y-143307619D01*
X100114464Y-143355238D01*
X100138273Y-143450476D01*
X100138273Y-143521904D01*
X100114464Y-143617142D01*
X100090654Y-143664761D01*
X100043035Y-143712380D01*
X99971607Y-143736190D01*
X99852559Y-143736190D01*
X100447797Y-143236190D02*
X100543035Y-143236190D01*
X100590654Y-143260000D01*
X100638273Y-143307619D01*
X100662083Y-143402857D01*
X100662083Y-143569523D01*
X100638273Y-143664761D01*
X100590654Y-143712380D01*
X100543035Y-143736190D01*
X100447797Y-143736190D01*
X100400178Y-143712380D01*
X100352559Y-143664761D01*
X100328750Y-143569523D01*
X100328750Y-143402857D01*
X100352559Y-143307619D01*
X100400178Y-143260000D01*
X100447797Y-143236190D01*
X100971607Y-143236190D02*
X101066845Y-143236190D01*
X101114464Y-143260000D01*
X101162083Y-143307619D01*
X101185892Y-143402857D01*
X101185892Y-143569523D01*
X101162083Y-143664761D01*
X101114464Y-143712380D01*
X101066845Y-143736190D01*
X100971607Y-143736190D01*
X100923988Y-143712380D01*
X100876369Y-143664761D01*
X100852559Y-143569523D01*
X100852559Y-143402857D01*
X100876369Y-143307619D01*
X100923988Y-143260000D01*
X100971607Y-143236190D01*
X101685892Y-143736190D02*
X101519226Y-143498095D01*
X101400178Y-143736190D02*
X101400178Y-143236190D01*
X101590654Y-143236190D01*
X101638273Y-143260000D01*
X101662083Y-143283809D01*
X101685892Y-143331428D01*
X101685892Y-143402857D01*
X101662083Y-143450476D01*
X101638273Y-143474285D01*
X101590654Y-143498095D01*
X101400178Y-143498095D01*
X101781130Y-143783809D02*
X102162083Y-143783809D01*
X102566845Y-143736190D02*
X102400178Y-143498095D01*
X102281130Y-143736190D02*
X102281130Y-143236190D01*
X102471607Y-143236190D01*
X102519226Y-143260000D01*
X102543035Y-143283809D01*
X102566845Y-143331428D01*
X102566845Y-143402857D01*
X102543035Y-143450476D01*
X102519226Y-143474285D01*
X102471607Y-143498095D01*
X102281130Y-143498095D01*
X102781130Y-143474285D02*
X102947797Y-143474285D01*
X103019226Y-143736190D02*
X102781130Y-143736190D01*
X102781130Y-143236190D01*
X103019226Y-143236190D01*
X103471607Y-143736190D02*
X103233511Y-143736190D01*
X103233511Y-143236190D01*
X103638273Y-143474285D02*
X103804940Y-143474285D01*
X103876369Y-143736190D02*
X103638273Y-143736190D01*
X103638273Y-143236190D01*
X103876369Y-143236190D01*
X104066845Y-143593333D02*
X104304940Y-143593333D01*
X104019226Y-143736190D02*
X104185892Y-143236190D01*
X104352559Y-143736190D01*
X104495416Y-143712380D02*
X104566845Y-143736190D01*
X104685892Y-143736190D01*
X104733511Y-143712380D01*
X104757321Y-143688571D01*
X104781130Y-143640952D01*
X104781130Y-143593333D01*
X104757321Y-143545714D01*
X104733511Y-143521904D01*
X104685892Y-143498095D01*
X104590654Y-143474285D01*
X104543035Y-143450476D01*
X104519226Y-143426666D01*
X104495416Y-143379047D01*
X104495416Y-143331428D01*
X104519226Y-143283809D01*
X104543035Y-143260000D01*
X104590654Y-143236190D01*
X104709702Y-143236190D01*
X104781130Y-143260000D01*
X104995416Y-143474285D02*
X105162083Y-143474285D01*
X105233511Y-143736190D02*
X104995416Y-143736190D01*
X104995416Y-143236190D01*
X105233511Y-143236190D01*
D11*
X64022192Y-84890000D02*
G75*
G03*
X64022192Y-84890000I-822192J0D01*
G01*
X104033539Y-80680000D02*
G75*
G03*
X104033539Y-80680000I-863539J0D01*
G01*
X85725000Y-139700000D02*
G75*
G03*
X85725000Y-139700000I-635000J0D01*
G01*
D12*
X80244285Y-64163571D02*
X79530000Y-64163571D01*
X79530000Y-62663571D01*
X80744285Y-64163571D02*
X80744285Y-62663571D01*
X80744285Y-63377857D02*
X81601428Y-63377857D01*
X81601428Y-64163571D02*
X81601428Y-62663571D01*
X82244285Y-64092142D02*
X82458571Y-64163571D01*
X82815714Y-64163571D01*
X82958571Y-64092142D01*
X83030000Y-64020714D01*
X83101428Y-63877857D01*
X83101428Y-63735000D01*
X83030000Y-63592142D01*
X82958571Y-63520714D01*
X82815714Y-63449285D01*
X82530000Y-63377857D01*
X82387142Y-63306428D01*
X82315714Y-63235000D01*
X82244285Y-63092142D01*
X82244285Y-62949285D01*
X82315714Y-62806428D01*
X82387142Y-62735000D01*
X82530000Y-62663571D01*
X82887142Y-62663571D01*
X83101428Y-62735000D01*
X76601428Y-66285000D02*
X77315714Y-66285000D01*
X76458571Y-66713571D02*
X76958571Y-65213571D01*
X77458571Y-66713571D01*
X78815714Y-66570714D02*
X78744285Y-66642142D01*
X78530000Y-66713571D01*
X78387142Y-66713571D01*
X78172857Y-66642142D01*
X78030000Y-66499285D01*
X77958571Y-66356428D01*
X77887142Y-66070714D01*
X77887142Y-65856428D01*
X77958571Y-65570714D01*
X78030000Y-65427857D01*
X78172857Y-65285000D01*
X78387142Y-65213571D01*
X78530000Y-65213571D01*
X78744285Y-65285000D01*
X78815714Y-65356428D01*
X79458571Y-66713571D02*
X79458571Y-65213571D01*
X80315714Y-66713571D01*
X80315714Y-65213571D01*
X81244285Y-66713571D02*
X81101428Y-66642142D01*
X81030000Y-66570714D01*
X80958571Y-66427857D01*
X80958571Y-65999285D01*
X81030000Y-65856428D01*
X81101428Y-65785000D01*
X81244285Y-65713571D01*
X81458571Y-65713571D01*
X81601428Y-65785000D01*
X81672857Y-65856428D01*
X81744285Y-65999285D01*
X81744285Y-66427857D01*
X81672857Y-66570714D01*
X81601428Y-66642142D01*
X81458571Y-66713571D01*
X81244285Y-66713571D01*
X83030000Y-66713571D02*
X83030000Y-65213571D01*
X83030000Y-66642142D02*
X82887142Y-66713571D01*
X82601428Y-66713571D01*
X82458571Y-66642142D01*
X82387142Y-66570714D01*
X82315714Y-66427857D01*
X82315714Y-65999285D01*
X82387142Y-65856428D01*
X82458571Y-65785000D01*
X82601428Y-65713571D01*
X82887142Y-65713571D01*
X83030000Y-65785000D01*
X84315714Y-66642142D02*
X84172857Y-66713571D01*
X83887142Y-66713571D01*
X83744285Y-66642142D01*
X83672857Y-66499285D01*
X83672857Y-65927857D01*
X83744285Y-65785000D01*
X83887142Y-65713571D01*
X84172857Y-65713571D01*
X84315714Y-65785000D01*
X84387142Y-65927857D01*
X84387142Y-66070714D01*
X83672857Y-66213571D01*
X86101428Y-65142142D02*
X84815714Y-67070714D01*
X74458571Y-69263571D02*
X74458571Y-67763571D01*
X74815714Y-67763571D01*
X75030000Y-67835000D01*
X75172857Y-67977857D01*
X75244285Y-68120714D01*
X75315714Y-68406428D01*
X75315714Y-68620714D01*
X75244285Y-68906428D01*
X75172857Y-69049285D01*
X75030000Y-69192142D01*
X74815714Y-69263571D01*
X74458571Y-69263571D01*
X76172857Y-69263571D02*
X76030000Y-69192142D01*
X75958571Y-69120714D01*
X75887142Y-68977857D01*
X75887142Y-68549285D01*
X75958571Y-68406428D01*
X76030000Y-68335000D01*
X76172857Y-68263571D01*
X76387142Y-68263571D01*
X76530000Y-68335000D01*
X76601428Y-68406428D01*
X76672857Y-68549285D01*
X76672857Y-68977857D01*
X76601428Y-69120714D01*
X76530000Y-69192142D01*
X76387142Y-69263571D01*
X76172857Y-69263571D01*
X77530000Y-69263571D02*
X77387142Y-69192142D01*
X77315714Y-69120714D01*
X77244285Y-68977857D01*
X77244285Y-68549285D01*
X77315714Y-68406428D01*
X77387142Y-68335000D01*
X77530000Y-68263571D01*
X77744285Y-68263571D01*
X77887142Y-68335000D01*
X77958571Y-68406428D01*
X78030000Y-68549285D01*
X78030000Y-68977857D01*
X77958571Y-69120714D01*
X77887142Y-69192142D01*
X77744285Y-69263571D01*
X77530000Y-69263571D01*
X78672857Y-69263571D02*
X78672857Y-68263571D01*
X78672857Y-68549285D02*
X78744285Y-68406428D01*
X78815714Y-68335000D01*
X78958571Y-68263571D01*
X79101428Y-68263571D01*
X79601428Y-69263571D02*
X79601428Y-67763571D01*
X79601428Y-68335000D02*
X79744285Y-68263571D01*
X80030000Y-68263571D01*
X80172857Y-68335000D01*
X80244285Y-68406428D01*
X80315714Y-68549285D01*
X80315714Y-68977857D01*
X80244285Y-69120714D01*
X80172857Y-69192142D01*
X80030000Y-69263571D01*
X79744285Y-69263571D01*
X79601428Y-69192142D01*
X81172857Y-69263571D02*
X81030000Y-69192142D01*
X80958571Y-69120714D01*
X80887142Y-68977857D01*
X80887142Y-68549285D01*
X80958571Y-68406428D01*
X81030000Y-68335000D01*
X81172857Y-68263571D01*
X81387142Y-68263571D01*
X81530000Y-68335000D01*
X81601428Y-68406428D01*
X81672857Y-68549285D01*
X81672857Y-68977857D01*
X81601428Y-69120714D01*
X81530000Y-69192142D01*
X81387142Y-69263571D01*
X81172857Y-69263571D01*
X82101428Y-68263571D02*
X82672857Y-68263571D01*
X82315714Y-67763571D02*
X82315714Y-69049285D01*
X82387142Y-69192142D01*
X82530000Y-69263571D01*
X82672857Y-69263571D01*
X84315714Y-69263571D02*
X84315714Y-67763571D01*
X84887142Y-67763571D01*
X85030000Y-67835000D01*
X85101428Y-67906428D01*
X85172857Y-68049285D01*
X85172857Y-68263571D01*
X85101428Y-68406428D01*
X85030000Y-68477857D01*
X84887142Y-68549285D01*
X84315714Y-68549285D01*
X86672857Y-69120714D02*
X86601428Y-69192142D01*
X86387142Y-69263571D01*
X86244285Y-69263571D01*
X86030000Y-69192142D01*
X85887142Y-69049285D01*
X85815714Y-68906428D01*
X85744285Y-68620714D01*
X85744285Y-68406428D01*
X85815714Y-68120714D01*
X85887142Y-67977857D01*
X86030000Y-67835000D01*
X86244285Y-67763571D01*
X86387142Y-67763571D01*
X86601428Y-67835000D01*
X86672857Y-67906428D01*
X87815714Y-68477857D02*
X88030000Y-68549285D01*
X88101428Y-68620714D01*
X88172857Y-68763571D01*
X88172857Y-68977857D01*
X88101428Y-69120714D01*
X88030000Y-69192142D01*
X87887142Y-69263571D01*
X87315714Y-69263571D01*
X87315714Y-67763571D01*
X87815714Y-67763571D01*
X87958571Y-67835000D01*
X88030000Y-67906428D01*
X88101428Y-68049285D01*
X88101428Y-68192142D01*
X88030000Y-68335000D01*
X87958571Y-68406428D01*
X87815714Y-68477857D01*
X87315714Y-68477857D01*
X77494285Y-71813571D02*
X76994285Y-71099285D01*
X76637142Y-71813571D02*
X76637142Y-70313571D01*
X77208571Y-70313571D01*
X77351428Y-70385000D01*
X77422857Y-70456428D01*
X77494285Y-70599285D01*
X77494285Y-70813571D01*
X77422857Y-70956428D01*
X77351428Y-71027857D01*
X77208571Y-71099285D01*
X76637142Y-71099285D01*
X78708571Y-71742142D02*
X78565714Y-71813571D01*
X78280000Y-71813571D01*
X78137142Y-71742142D01*
X78065714Y-71599285D01*
X78065714Y-71027857D01*
X78137142Y-70885000D01*
X78280000Y-70813571D01*
X78565714Y-70813571D01*
X78708571Y-70885000D01*
X78780000Y-71027857D01*
X78780000Y-71170714D01*
X78065714Y-71313571D01*
X79280000Y-70813571D02*
X79637142Y-71813571D01*
X79994285Y-70813571D01*
X82494285Y-71813571D02*
X81637142Y-71813571D01*
X82065714Y-71813571D02*
X82065714Y-70313571D01*
X81922857Y-70527857D01*
X81780000Y-70670714D01*
X81637142Y-70742142D01*
X83137142Y-71670714D02*
X83208571Y-71742142D01*
X83137142Y-71813571D01*
X83065714Y-71742142D01*
X83137142Y-71670714D01*
X83137142Y-71813571D01*
X84637142Y-71813571D02*
X83780000Y-71813571D01*
X84208571Y-71813571D02*
X84208571Y-70313571D01*
X84065714Y-70527857D01*
X83922857Y-70670714D01*
X83780000Y-70742142D01*
X85922857Y-71813571D02*
X85922857Y-71027857D01*
X85851428Y-70885000D01*
X85708571Y-70813571D01*
X85422857Y-70813571D01*
X85280000Y-70885000D01*
X85922857Y-71742142D02*
X85780000Y-71813571D01*
X85422857Y-71813571D01*
X85280000Y-71742142D01*
X85208571Y-71599285D01*
X85208571Y-71456428D01*
X85280000Y-71313571D01*
X85422857Y-71242142D01*
X85780000Y-71242142D01*
X85922857Y-71170714D01*
D14*
X74830000Y-142775000D02*
X80070000Y-142775000D01*
X74830000Y-145515000D02*
X80070000Y-145515000D01*
X74830000Y-142775000D02*
X74830000Y-145515000D01*
X80070000Y-142775000D02*
X80070000Y-145515000D01*
X82490000Y-145515000D02*
X82490000Y-142775000D01*
X87730000Y-145515000D02*
X87730000Y-142775000D01*
X87730000Y-142775000D02*
X82490000Y-142775000D01*
X87730000Y-145515000D02*
X82490000Y-145515000D01*
X91240000Y-152580000D02*
X94180000Y-152580000D01*
X94180000Y-152580000D02*
X94180000Y-147140000D01*
X94180000Y-147140000D02*
X91240000Y-147140000D01*
X91240000Y-147140000D02*
X91240000Y-152580000D01*
X92710000Y-153600000D02*
X92710000Y-152580000D01*
X92710000Y-146120000D02*
X92710000Y-147140000D01*
X91240000Y-151680000D02*
X94180000Y-151680000D01*
X91240000Y-151560000D02*
X94180000Y-151560000D01*
X91240000Y-151800000D02*
X94180000Y-151800000D01*
X79340000Y-149660000D02*
X79340000Y-152600000D01*
X79580000Y-149660000D02*
X79580000Y-152600000D01*
X79460000Y-149660000D02*
X79460000Y-152600000D01*
X85020000Y-151130000D02*
X84000000Y-151130000D01*
X77540000Y-151130000D02*
X78560000Y-151130000D01*
X84000000Y-149660000D02*
X78560000Y-149660000D01*
X84000000Y-152600000D02*
X84000000Y-149660000D01*
X78560000Y-152600000D02*
X84000000Y-152600000D01*
X78560000Y-149660000D02*
X78560000Y-152600000D01*
X50740000Y-66100000D02*
X55940000Y-66100000D01*
X50740000Y-43180000D02*
X50740000Y-66100000D01*
X55940000Y-40580000D02*
X55940000Y-66100000D01*
X50740000Y-43180000D02*
X53340000Y-43180000D01*
X53340000Y-43180000D02*
X53340000Y-40580000D01*
X53340000Y-40580000D02*
X55940000Y-40580000D01*
X50740000Y-41910000D02*
X50740000Y-40580000D01*
X50740000Y-40580000D02*
X52070000Y-40580000D01*
X50740000Y-104080000D02*
X52070000Y-104080000D01*
X50740000Y-105410000D02*
X50740000Y-104080000D01*
X53340000Y-104080000D02*
X55940000Y-104080000D01*
X53340000Y-106680000D02*
X53340000Y-104080000D01*
X50740000Y-106680000D02*
X53340000Y-106680000D01*
X55940000Y-104080000D02*
X55940000Y-129600000D01*
X50740000Y-106680000D02*
X50740000Y-129600000D01*
X50740000Y-129600000D02*
X55940000Y-129600000D01*
X80920000Y-160020000D02*
G75*
G03*
X80920000Y-160020000I-2180000J0D01*
G01*
X86000000Y-160020000D02*
G75*
G03*
X86000000Y-160020000I-2180000J0D01*
G01*
X76140000Y-164820000D02*
X86420000Y-164820000D01*
X76140000Y-162320000D02*
X86420000Y-162320000D01*
X76140000Y-156120000D02*
X86420000Y-156120000D01*
X76140000Y-154060000D02*
X86420000Y-154060000D01*
X76140000Y-165380000D02*
X86420000Y-165380000D01*
X76140000Y-154060000D02*
X76140000Y-165380000D01*
X86420000Y-154060000D02*
X86420000Y-165380000D01*
X80394000Y-158632000D02*
X80287000Y-158739000D01*
X77458000Y-161567000D02*
X77352000Y-161674000D01*
X80128000Y-158366000D02*
X80021000Y-158473000D01*
X77192000Y-161301000D02*
X77086000Y-161408000D01*
X85474000Y-158632000D02*
X85079000Y-159028000D01*
X82813000Y-161294000D02*
X82433000Y-161674000D01*
X85208000Y-158366000D02*
X84828000Y-158746000D01*
X82562000Y-161012000D02*
X82167000Y-161408000D01*
X75900000Y-164880000D02*
X75900000Y-165620000D01*
X75900000Y-165620000D02*
X76400000Y-165620000D01*
X93920000Y-66100000D02*
X99120000Y-66100000D01*
X93920000Y-43180000D02*
X93920000Y-66100000D01*
X99120000Y-40580000D02*
X99120000Y-66100000D01*
X93920000Y-43180000D02*
X96520000Y-43180000D01*
X96520000Y-43180000D02*
X96520000Y-40580000D01*
X96520000Y-40580000D02*
X99120000Y-40580000D01*
X93920000Y-41910000D02*
X93920000Y-40580000D01*
X93920000Y-40580000D02*
X95250000Y-40580000D01*
X93920000Y-104080000D02*
X95250000Y-104080000D01*
X93920000Y-105410000D02*
X93920000Y-104080000D01*
X96520000Y-104080000D02*
X99120000Y-104080000D01*
X96520000Y-106680000D02*
X96520000Y-104080000D01*
X93920000Y-106680000D02*
X96520000Y-106680000D01*
X99120000Y-104080000D02*
X99120000Y-129600000D01*
X93920000Y-106680000D02*
X93920000Y-129600000D01*
X93920000Y-129600000D02*
X99120000Y-129600000D01*
X105470000Y-152690000D02*
X105470000Y-151920000D01*
X105470000Y-150340000D02*
X105470000Y-149380000D01*
X105470000Y-147800000D02*
X105470000Y-147030000D01*
X100170000Y-152690000D02*
X100170000Y-147030000D01*
X99710000Y-152690000D02*
X99710000Y-147030000D01*
X106030000Y-152690000D02*
X106030000Y-151920000D01*
X106030000Y-150340000D02*
X106030000Y-149380000D01*
X106030000Y-147800000D02*
X106030000Y-147030000D01*
X99710000Y-152690000D02*
X106030000Y-152690000D01*
X99710000Y-147030000D02*
X106030000Y-147030000D01*
X105530000Y-152930000D02*
X106270000Y-152930000D01*
X106270000Y-152930000D02*
X106270000Y-152430000D01*
X103470000Y-91400000D02*
G75*
G03*
X103470000Y-91400000I-1680000J0D01*
G01*
X103470000Y-96480000D02*
G75*
G03*
X103470000Y-96480000I-1680000J0D01*
G01*
X97090000Y-83720000D02*
X97090000Y-99080000D01*
X99290000Y-83720000D02*
X99290000Y-99080000D01*
X105090000Y-83720000D02*
X105090000Y-99080000D01*
X107150000Y-83720000D02*
X107150000Y-99080000D01*
X96430000Y-83720000D02*
X96430000Y-99080000D01*
X107150000Y-83720000D02*
X96430000Y-83720000D01*
X107150000Y-99080000D02*
X96430000Y-99080000D01*
X106840000Y-85070000D02*
X106840000Y-87570000D01*
X106340000Y-85070000D02*
X106340000Y-87570000D01*
X106840000Y-85070000D02*
X106340000Y-85070000D01*
X106840000Y-87570000D02*
X106340000Y-87570000D01*
X102859000Y-92675000D02*
X102766000Y-92581000D01*
X100574000Y-90390000D02*
X100516000Y-90331000D01*
X103065000Y-92470000D02*
X103006000Y-92411000D01*
X100814000Y-90220000D02*
X100721000Y-90126000D01*
X106840000Y-90150000D02*
X106840000Y-92650000D01*
X106340000Y-90150000D02*
X106340000Y-92650000D01*
X106840000Y-90150000D02*
X106340000Y-90150000D01*
X106840000Y-92650000D02*
X106340000Y-92650000D01*
X102859000Y-97755000D02*
X102766000Y-97661000D01*
X100574000Y-95470000D02*
X100516000Y-95411000D01*
X103065000Y-97550000D02*
X103006000Y-97491000D01*
X100814000Y-95300000D02*
X100721000Y-95206000D01*
X106840000Y-95230000D02*
X106840000Y-97730000D01*
X106340000Y-95230000D02*
X106340000Y-97730000D01*
X106840000Y-95230000D02*
X106340000Y-95230000D01*
X106840000Y-97730000D02*
X106340000Y-97730000D01*
X97030000Y-83480000D02*
X96190000Y-83480000D01*
X96190000Y-83480000D02*
X96190000Y-84080000D01*
X100306648Y-87108712D02*
G75*
G02*
X100110000Y-86320000I1483352J788712D01*
G01*
X102579088Y-87803953D02*
G75*
G02*
X101001000Y-87804000I-789088J1483953D01*
G01*
X103273953Y-85530912D02*
G75*
G02*
X103274000Y-87109000I-1483953J-789088D01*
G01*
X101000912Y-84836047D02*
G75*
G02*
X102579000Y-84836000I789088J-1483953D01*
G01*
X100109550Y-86349383D02*
G75*
G02*
X100306000Y-85531000I1680450J29383D01*
G01*
X69050000Y-164555000D02*
X52410000Y-164555000D01*
X69050000Y-164555000D02*
X69050000Y-156850000D01*
X52410000Y-164555000D02*
X52410000Y-156850000D01*
X69050000Y-148675000D02*
X52410000Y-148675000D01*
X69050000Y-148675000D02*
X69050000Y-154350000D01*
X52410000Y-148675000D02*
X52410000Y-154350000D01*
X69290000Y-156990000D02*
X69790000Y-156490000D01*
X69790000Y-156490000D02*
X69790000Y-157490000D01*
X69790000Y-157490000D02*
X69290000Y-156990000D01*
X82370000Y-39390000D02*
X82870000Y-39290000D01*
X81070000Y-39690000D02*
X82370000Y-39390000D01*
X79570000Y-39890000D02*
X81070000Y-39690000D01*
X78270000Y-39990000D02*
X79570000Y-39890000D01*
X76470000Y-39990000D02*
X78270000Y-39990000D01*
X75170000Y-39890000D02*
X76470000Y-39990000D01*
X74370000Y-39790000D02*
X75170000Y-39890000D01*
X72670000Y-39490000D02*
X74370000Y-39790000D01*
X71870000Y-39290000D02*
X72670000Y-39490000D01*
X72370000Y-38690000D02*
X82370000Y-38690000D01*
X71870000Y-40190000D02*
X71870000Y-39190000D01*
X82870000Y-40190000D02*
X82870000Y-39190000D01*
X70460000Y-40190000D02*
X84280000Y-40190000D01*
X84280000Y-54110000D02*
X70460000Y-54110000D01*
X84280000Y-51410000D02*
X84280000Y-54110000D01*
X84280000Y-40190000D02*
X84280000Y-40590000D01*
X84280000Y-43110000D02*
X84280000Y-48890000D01*
X70460000Y-51410000D02*
X70460000Y-54110000D01*
X70460000Y-43110000D02*
X70460000Y-48890000D01*
X70460000Y-40190000D02*
X70460000Y-40590000D01*
X82870000Y-39190000D02*
G75*
G03*
X82370000Y-38690000I-500000J0D01*
G01*
X72370000Y-38690000D02*
G75*
G03*
X71870000Y-39190000I0J-500000D01*
G01*
X105720000Y-142590000D02*
X105720000Y-134270000D01*
X100620000Y-142590000D02*
X100620000Y-134270000D01*
X99500000Y-142590000D02*
X99500000Y-134270000D01*
X106240000Y-142590000D02*
X106240000Y-134270000D01*
X99500000Y-142590000D02*
X106240000Y-142590000D01*
X99500000Y-134270000D02*
X106240000Y-134270000D01*
X105840000Y-142830000D02*
X106480000Y-142830000D01*
X106480000Y-142830000D02*
X106480000Y-142430000D01*
X68360000Y-92160000D02*
X68360000Y-98760000D01*
X68360000Y-83160000D02*
X68360000Y-89760000D01*
X68360000Y-83160000D02*
X88160000Y-83160000D01*
X88160000Y-83160000D02*
X88160000Y-98760000D01*
X88160000Y-98760000D02*
X68360000Y-98760000D01*
X83910000Y-95160000D02*
X83910000Y-92710000D01*
X83910000Y-86760000D02*
X83910000Y-89260000D01*
X73310000Y-97010000D02*
X75810000Y-97010000D01*
X72410000Y-91010000D02*
X71610000Y-91010000D01*
X75810000Y-85010000D02*
X73310000Y-85010000D01*
X79210000Y-91010000D02*
X80710000Y-91010000D01*
X80710000Y-91010000D02*
X85310000Y-88510000D01*
X79210000Y-94610000D02*
X72410000Y-94610000D01*
X79210000Y-91010000D02*
X79210000Y-94610000D01*
X72410000Y-91010000D02*
X72410000Y-94610000D01*
X75810000Y-85010000D02*
X75810000Y-89210000D01*
X75810000Y-92810000D02*
X75810000Y-97010000D01*
X77810000Y-92810000D02*
X73810000Y-89210000D01*
X73810000Y-92810000D02*
X73810000Y-89210000D01*
X73810000Y-89210000D02*
X77810000Y-89210000D01*
X77810000Y-89210000D02*
X77810000Y-92810000D01*
X77810000Y-92810000D02*
X73810000Y-92810000D01*
X70380000Y-108640000D02*
X66780000Y-108640000D01*
X70418478Y-108651522D02*
G75*
G02*
X68580000Y-113090000I-1838478J-1838478D01*
G01*
X66741522Y-108651522D02*
G75*
G03*
X68580000Y-113090000I1838478J-1838478D01*
G01*
X78010000Y-109120000D02*
X78010000Y-111860000D01*
X78010000Y-111860000D02*
X84550000Y-111860000D01*
X84550000Y-111860000D02*
X84550000Y-109120000D01*
X84550000Y-109120000D02*
X78010000Y-109120000D01*
X77240000Y-110490000D02*
X78010000Y-110490000D01*
X85320000Y-110490000D02*
X84550000Y-110490000D01*
X74890000Y-129445000D02*
X85130000Y-129445000D01*
X74890000Y-134086000D02*
X85130000Y-134086000D01*
X74890000Y-129445000D02*
X74890000Y-134086000D01*
X85130000Y-129445000D02*
X85130000Y-134086000D01*
X74890000Y-130955000D02*
X85130000Y-130955000D01*
X78160000Y-129445000D02*
X78160000Y-130955000D01*
X81861000Y-129445000D02*
X81861000Y-130955000D01*
D15*
G36*
X67161055Y-60131258D02*
G01*
X67822778Y-60230104D01*
X67939241Y-60258368D01*
X69171148Y-60713989D01*
X70294016Y-61382811D01*
X71280563Y-62237552D01*
X72103508Y-63250932D01*
X72735571Y-64395668D01*
X73091631Y-65410758D01*
X73201782Y-66031237D01*
X73259684Y-66804982D01*
X73265337Y-67636689D01*
X73218741Y-68431055D01*
X73119895Y-69092778D01*
X73091631Y-69209241D01*
X72636010Y-70441148D01*
X71967188Y-71564016D01*
X71112447Y-72550563D01*
X70099067Y-73373508D01*
X68954331Y-74005571D01*
X67939241Y-74361631D01*
X67368886Y-74462240D01*
X66640449Y-74518428D01*
X65842795Y-74530330D01*
X65064790Y-74498082D01*
X64395300Y-74421823D01*
X64085223Y-74355703D01*
X62869594Y-73893820D01*
X61758056Y-73218382D01*
X60779337Y-72358397D01*
X59962165Y-71342871D01*
X59335267Y-70200812D01*
X58988368Y-69209241D01*
X58878217Y-68588762D01*
X58820315Y-67815017D01*
X58816863Y-67307132D01*
X60773995Y-67307132D01*
X61589361Y-68129811D01*
X62049846Y-68567315D01*
X62364849Y-68803010D01*
X62538784Y-68840140D01*
X62547129Y-68834307D01*
X62702555Y-68858715D01*
X63002567Y-69074939D01*
X63451848Y-69486606D01*
X63679470Y-69711905D01*
X64162566Y-70218988D01*
X64447990Y-70569752D01*
X64536991Y-70765825D01*
X64516398Y-70802253D01*
X64514129Y-70934372D01*
X64707048Y-71211459D01*
X65098266Y-71637844D01*
X65166273Y-71706910D01*
X65528997Y-72065576D01*
X65823240Y-72342887D01*
X66004970Y-72497964D01*
X66038839Y-72517000D01*
X66149150Y-72431969D01*
X66402508Y-72199030D01*
X66763902Y-71851413D01*
X67198320Y-71422348D01*
X67309418Y-71311084D01*
X68510320Y-70105168D01*
X66877192Y-68457394D01*
X66598994Y-68718748D01*
X66370175Y-68882803D01*
X66235195Y-68840784D01*
X66227715Y-68829495D01*
X66260750Y-68666796D01*
X66440174Y-68405720D01*
X66710376Y-68101874D01*
X67015747Y-67810871D01*
X67300676Y-67588320D01*
X67509553Y-67489830D01*
X67559495Y-67497715D01*
X67616700Y-67627109D01*
X67468684Y-67847483D01*
X67448748Y-67868994D01*
X67187394Y-68147192D01*
X68012130Y-68964598D01*
X68836867Y-69782004D01*
X70071435Y-68547435D01*
X71306004Y-67312867D01*
X70490638Y-66490188D01*
X70030153Y-66052684D01*
X69715150Y-65816989D01*
X69541215Y-65779859D01*
X69532870Y-65785692D01*
X69387260Y-65756254D01*
X69124833Y-65576831D01*
X68789480Y-65291443D01*
X68425092Y-64944110D01*
X68075559Y-64578852D01*
X67784773Y-64239689D01*
X67596625Y-63970641D01*
X67555006Y-63815729D01*
X67560888Y-63807911D01*
X67543044Y-63651384D01*
X67321962Y-63347852D01*
X66896686Y-62896017D01*
X66862719Y-62862244D01*
X66037132Y-62043995D01*
X64802564Y-63278564D01*
X63567995Y-64513132D01*
X64385401Y-65337869D01*
X65202807Y-66162605D01*
X65475342Y-65906572D01*
X65689897Y-65742614D01*
X65831971Y-65762597D01*
X65889982Y-65821765D01*
X65888045Y-65995457D01*
X65733650Y-66260255D01*
X65479499Y-66563792D01*
X65178295Y-66853704D01*
X64882741Y-67077625D01*
X64645539Y-67183190D01*
X64543459Y-67159659D01*
X64471412Y-67001828D01*
X64588936Y-66798181D01*
X64641691Y-66739892D01*
X64892605Y-66472807D01*
X64067869Y-65655401D01*
X63243132Y-64837995D01*
X62008564Y-66072564D01*
X60773995Y-67307132D01*
X58816863Y-67307132D01*
X58814662Y-66983310D01*
X58861258Y-66188944D01*
X58960104Y-65527221D01*
X58988368Y-65410758D01*
X59429439Y-64196832D01*
X60082462Y-63099070D01*
X60890354Y-62160354D01*
X61909346Y-61294824D01*
X63014828Y-60658611D01*
X64140758Y-60258368D01*
X64761237Y-60148217D01*
X65534982Y-60090315D01*
X66366689Y-60084662D01*
X67161055Y-60131258D01*
G37*
X67161055Y-60131258D02*
X67822778Y-60230104D01*
X67939241Y-60258368D01*
X69171148Y-60713989D01*
X70294016Y-61382811D01*
X71280563Y-62237552D01*
X72103508Y-63250932D01*
X72735571Y-64395668D01*
X73091631Y-65410758D01*
X73201782Y-66031237D01*
X73259684Y-66804982D01*
X73265337Y-67636689D01*
X73218741Y-68431055D01*
X73119895Y-69092778D01*
X73091631Y-69209241D01*
X72636010Y-70441148D01*
X71967188Y-71564016D01*
X71112447Y-72550563D01*
X70099067Y-73373508D01*
X68954331Y-74005571D01*
X67939241Y-74361631D01*
X67368886Y-74462240D01*
X66640449Y-74518428D01*
X65842795Y-74530330D01*
X65064790Y-74498082D01*
X64395300Y-74421823D01*
X64085223Y-74355703D01*
X62869594Y-73893820D01*
X61758056Y-73218382D01*
X60779337Y-72358397D01*
X59962165Y-71342871D01*
X59335267Y-70200812D01*
X58988368Y-69209241D01*
X58878217Y-68588762D01*
X58820315Y-67815017D01*
X58816863Y-67307132D01*
X60773995Y-67307132D01*
X61589361Y-68129811D01*
X62049846Y-68567315D01*
X62364849Y-68803010D01*
X62538784Y-68840140D01*
X62547129Y-68834307D01*
X62702555Y-68858715D01*
X63002567Y-69074939D01*
X63451848Y-69486606D01*
X63679470Y-69711905D01*
X64162566Y-70218988D01*
X64447990Y-70569752D01*
X64536991Y-70765825D01*
X64516398Y-70802253D01*
X64514129Y-70934372D01*
X64707048Y-71211459D01*
X65098266Y-71637844D01*
X65166273Y-71706910D01*
X65528997Y-72065576D01*
X65823240Y-72342887D01*
X66004970Y-72497964D01*
X66038839Y-72517000D01*
X66149150Y-72431969D01*
X66402508Y-72199030D01*
X66763902Y-71851413D01*
X67198320Y-71422348D01*
X67309418Y-71311084D01*
X68510320Y-70105168D01*
X66877192Y-68457394D01*
X66598994Y-68718748D01*
X66370175Y-68882803D01*
X66235195Y-68840784D01*
X66227715Y-68829495D01*
X66260750Y-68666796D01*
X66440174Y-68405720D01*
X66710376Y-68101874D01*
X67015747Y-67810871D01*
X67300676Y-67588320D01*
X67509553Y-67489830D01*
X67559495Y-67497715D01*
X67616700Y-67627109D01*
X67468684Y-67847483D01*
X67448748Y-67868994D01*
X67187394Y-68147192D01*
X68012130Y-68964598D01*
X68836867Y-69782004D01*
X70071435Y-68547435D01*
X71306004Y-67312867D01*
X70490638Y-66490188D01*
X70030153Y-66052684D01*
X69715150Y-65816989D01*
X69541215Y-65779859D01*
X69532870Y-65785692D01*
X69387260Y-65756254D01*
X69124833Y-65576831D01*
X68789480Y-65291443D01*
X68425092Y-64944110D01*
X68075559Y-64578852D01*
X67784773Y-64239689D01*
X67596625Y-63970641D01*
X67555006Y-63815729D01*
X67560888Y-63807911D01*
X67543044Y-63651384D01*
X67321962Y-63347852D01*
X66896686Y-62896017D01*
X66862719Y-62862244D01*
X66037132Y-62043995D01*
X64802564Y-63278564D01*
X63567995Y-64513132D01*
X64385401Y-65337869D01*
X65202807Y-66162605D01*
X65475342Y-65906572D01*
X65689897Y-65742614D01*
X65831971Y-65762597D01*
X65889982Y-65821765D01*
X65888045Y-65995457D01*
X65733650Y-66260255D01*
X65479499Y-66563792D01*
X65178295Y-66853704D01*
X64882741Y-67077625D01*
X64645539Y-67183190D01*
X64543459Y-67159659D01*
X64471412Y-67001828D01*
X64588936Y-66798181D01*
X64641691Y-66739892D01*
X64892605Y-66472807D01*
X64067869Y-65655401D01*
X63243132Y-64837995D01*
X62008564Y-66072564D01*
X60773995Y-67307132D01*
X58816863Y-67307132D01*
X58814662Y-66983310D01*
X58861258Y-66188944D01*
X58960104Y-65527221D01*
X58988368Y-65410758D01*
X59429439Y-64196832D01*
X60082462Y-63099070D01*
X60890354Y-62160354D01*
X61909346Y-61294824D01*
X63014828Y-60658611D01*
X64140758Y-60258368D01*
X64761237Y-60148217D01*
X65534982Y-60090315D01*
X66366689Y-60084662D01*
X67161055Y-60131258D01*
D10*
X77283333Y-142002142D02*
X77235714Y-142049761D01*
X77092857Y-142097380D01*
X76997619Y-142097380D01*
X76854761Y-142049761D01*
X76759523Y-141954523D01*
X76711904Y-141859285D01*
X76664285Y-141668809D01*
X76664285Y-141525952D01*
X76711904Y-141335476D01*
X76759523Y-141240238D01*
X76854761Y-141145000D01*
X76997619Y-141097380D01*
X77092857Y-141097380D01*
X77235714Y-141145000D01*
X77283333Y-141192619D01*
X78235714Y-142097380D02*
X77664285Y-142097380D01*
X77950000Y-142097380D02*
X77950000Y-141097380D01*
X77854761Y-141240238D01*
X77759523Y-141335476D01*
X77664285Y-141383095D01*
X75350952Y-146137380D02*
X75446190Y-146137380D01*
X75541428Y-146185000D01*
X75589047Y-146232619D01*
X75636666Y-146327857D01*
X75684285Y-146518333D01*
X75684285Y-146756428D01*
X75636666Y-146946904D01*
X75589047Y-147042142D01*
X75541428Y-147089761D01*
X75446190Y-147137380D01*
X75350952Y-147137380D01*
X75255714Y-147089761D01*
X75208095Y-147042142D01*
X75160476Y-146946904D01*
X75112857Y-146756428D01*
X75112857Y-146518333D01*
X75160476Y-146327857D01*
X75208095Y-146232619D01*
X75255714Y-146185000D01*
X75350952Y-146137380D01*
X76112857Y-147042142D02*
X76160476Y-147089761D01*
X76112857Y-147137380D01*
X76065238Y-147089761D01*
X76112857Y-147042142D01*
X76112857Y-147137380D01*
X76493809Y-146137380D02*
X77112857Y-146137380D01*
X76779523Y-146518333D01*
X76922380Y-146518333D01*
X77017619Y-146565952D01*
X77065238Y-146613571D01*
X77112857Y-146708809D01*
X77112857Y-146946904D01*
X77065238Y-147042142D01*
X77017619Y-147089761D01*
X76922380Y-147137380D01*
X76636666Y-147137380D01*
X76541428Y-147089761D01*
X76493809Y-147042142D01*
X77446190Y-146137380D02*
X78065238Y-146137380D01*
X77731904Y-146518333D01*
X77874761Y-146518333D01*
X77970000Y-146565952D01*
X78017619Y-146613571D01*
X78065238Y-146708809D01*
X78065238Y-146946904D01*
X78017619Y-147042142D01*
X77970000Y-147089761D01*
X77874761Y-147137380D01*
X77589047Y-147137380D01*
X77493809Y-147089761D01*
X77446190Y-147042142D01*
X78922380Y-146470714D02*
X78922380Y-147137380D01*
X78493809Y-146470714D02*
X78493809Y-146994523D01*
X78541428Y-147089761D01*
X78636666Y-147137380D01*
X78779523Y-147137380D01*
X78874761Y-147089761D01*
X78922380Y-147042142D01*
X79731904Y-146613571D02*
X79398571Y-146613571D01*
X79398571Y-147137380D02*
X79398571Y-146137380D01*
X79874761Y-146137380D01*
X84943333Y-147002142D02*
X84895714Y-147049761D01*
X84752857Y-147097380D01*
X84657619Y-147097380D01*
X84514761Y-147049761D01*
X84419523Y-146954523D01*
X84371904Y-146859285D01*
X84324285Y-146668809D01*
X84324285Y-146525952D01*
X84371904Y-146335476D01*
X84419523Y-146240238D01*
X84514761Y-146145000D01*
X84657619Y-146097380D01*
X84752857Y-146097380D01*
X84895714Y-146145000D01*
X84943333Y-146192619D01*
X85324285Y-146192619D02*
X85371904Y-146145000D01*
X85467142Y-146097380D01*
X85705238Y-146097380D01*
X85800476Y-146145000D01*
X85848095Y-146192619D01*
X85895714Y-146287857D01*
X85895714Y-146383095D01*
X85848095Y-146525952D01*
X85276666Y-147097380D01*
X85895714Y-147097380D01*
X83467142Y-141097380D02*
X83562380Y-141097380D01*
X83657619Y-141145000D01*
X83705238Y-141192619D01*
X83752857Y-141287857D01*
X83800476Y-141478333D01*
X83800476Y-141716428D01*
X83752857Y-141906904D01*
X83705238Y-142002142D01*
X83657619Y-142049761D01*
X83562380Y-142097380D01*
X83467142Y-142097380D01*
X83371904Y-142049761D01*
X83324285Y-142002142D01*
X83276666Y-141906904D01*
X83229047Y-141716428D01*
X83229047Y-141478333D01*
X83276666Y-141287857D01*
X83324285Y-141192619D01*
X83371904Y-141145000D01*
X83467142Y-141097380D01*
X84229047Y-142002142D02*
X84276666Y-142049761D01*
X84229047Y-142097380D01*
X84181428Y-142049761D01*
X84229047Y-142002142D01*
X84229047Y-142097380D01*
X85229047Y-142097380D02*
X84657619Y-142097380D01*
X84943333Y-142097380D02*
X84943333Y-141097380D01*
X84848095Y-141240238D01*
X84752857Y-141335476D01*
X84657619Y-141383095D01*
X86086190Y-141430714D02*
X86086190Y-142097380D01*
X85657619Y-141430714D02*
X85657619Y-141954523D01*
X85705238Y-142049761D01*
X85800476Y-142097380D01*
X85943333Y-142097380D01*
X86038571Y-142049761D01*
X86086190Y-142002142D01*
X86895714Y-141573571D02*
X86562380Y-141573571D01*
X86562380Y-142097380D02*
X86562380Y-141097380D01*
X87038571Y-141097380D01*
X90692380Y-150598095D02*
X89692380Y-150598095D01*
X89692380Y-150360000D01*
X89740000Y-150217142D01*
X89835238Y-150121904D01*
X89930476Y-150074285D01*
X90120952Y-150026666D01*
X90263809Y-150026666D01*
X90454285Y-150074285D01*
X90549523Y-150121904D01*
X90644761Y-150217142D01*
X90692380Y-150360000D01*
X90692380Y-150598095D01*
X90692380Y-149074285D02*
X90692380Y-149645714D01*
X90692380Y-149360000D02*
X89692380Y-149360000D01*
X89835238Y-149455238D01*
X89930476Y-149550476D01*
X89978095Y-149645714D01*
X95632380Y-152002857D02*
X95632380Y-152574285D01*
X95632380Y-152288571D02*
X94632380Y-152288571D01*
X94775238Y-152383809D01*
X94870476Y-152479047D01*
X94918095Y-152574285D01*
X95632380Y-151574285D02*
X94632380Y-151574285D01*
X95632380Y-151002857D01*
X94632380Y-151002857D01*
X94965714Y-150098095D02*
X95632380Y-150098095D01*
X94584761Y-150336190D02*
X95299047Y-150574285D01*
X95299047Y-149955238D01*
X94632380Y-149383809D02*
X94632380Y-149288571D01*
X94680000Y-149193333D01*
X94727619Y-149145714D01*
X94822857Y-149098095D01*
X95013333Y-149050476D01*
X95251428Y-149050476D01*
X95441904Y-149098095D01*
X95537142Y-149145714D01*
X95584761Y-149193333D01*
X95632380Y-149288571D01*
X95632380Y-149383809D01*
X95584761Y-149479047D01*
X95537142Y-149526666D01*
X95441904Y-149574285D01*
X95251428Y-149621904D01*
X95013333Y-149621904D01*
X94822857Y-149574285D01*
X94727619Y-149526666D01*
X94680000Y-149479047D01*
X94632380Y-149383809D01*
X94632380Y-148431428D02*
X94632380Y-148336190D01*
X94680000Y-148240952D01*
X94727619Y-148193333D01*
X94822857Y-148145714D01*
X95013333Y-148098095D01*
X95251428Y-148098095D01*
X95441904Y-148145714D01*
X95537142Y-148193333D01*
X95584761Y-148240952D01*
X95632380Y-148336190D01*
X95632380Y-148431428D01*
X95584761Y-148526666D01*
X95537142Y-148574285D01*
X95441904Y-148621904D01*
X95251428Y-148669523D01*
X95013333Y-148669523D01*
X94822857Y-148621904D01*
X94727619Y-148574285D01*
X94680000Y-148526666D01*
X94632380Y-148431428D01*
X94632380Y-147764761D02*
X94632380Y-147098095D01*
X95632380Y-147526666D01*
X91062380Y-155201904D02*
X90062380Y-155201904D01*
X91062380Y-154630476D02*
X90490952Y-155059047D01*
X90062380Y-154630476D02*
X90633809Y-155201904D01*
X80541904Y-149112380D02*
X80541904Y-148112380D01*
X80780000Y-148112380D01*
X80922857Y-148160000D01*
X81018095Y-148255238D01*
X81065714Y-148350476D01*
X81113333Y-148540952D01*
X81113333Y-148683809D01*
X81065714Y-148874285D01*
X81018095Y-148969523D01*
X80922857Y-149064761D01*
X80780000Y-149112380D01*
X80541904Y-149112380D01*
X81494285Y-148207619D02*
X81541904Y-148160000D01*
X81637142Y-148112380D01*
X81875238Y-148112380D01*
X81970476Y-148160000D01*
X82018095Y-148207619D01*
X82065714Y-148302857D01*
X82065714Y-148398095D01*
X82018095Y-148540952D01*
X81446666Y-149112380D01*
X82065714Y-149112380D01*
X79137142Y-154052380D02*
X78565714Y-154052380D01*
X78851428Y-154052380D02*
X78851428Y-153052380D01*
X78756190Y-153195238D01*
X78660952Y-153290476D01*
X78565714Y-153338095D01*
X79565714Y-154052380D02*
X79565714Y-153052380D01*
X80137142Y-154052380D01*
X80137142Y-153052380D01*
X81041904Y-153385714D02*
X81041904Y-154052380D01*
X80803809Y-153004761D02*
X80565714Y-153719047D01*
X81184761Y-153719047D01*
X81756190Y-153052380D02*
X81851428Y-153052380D01*
X81946666Y-153100000D01*
X81994285Y-153147619D01*
X82041904Y-153242857D01*
X82089523Y-153433333D01*
X82089523Y-153671428D01*
X82041904Y-153861904D01*
X81994285Y-153957142D01*
X81946666Y-154004761D01*
X81851428Y-154052380D01*
X81756190Y-154052380D01*
X81660952Y-154004761D01*
X81613333Y-153957142D01*
X81565714Y-153861904D01*
X81518095Y-153671428D01*
X81518095Y-153433333D01*
X81565714Y-153242857D01*
X81613333Y-153147619D01*
X81660952Y-153100000D01*
X81756190Y-153052380D01*
X82708571Y-153052380D02*
X82803809Y-153052380D01*
X82899047Y-153100000D01*
X82946666Y-153147619D01*
X82994285Y-153242857D01*
X83041904Y-153433333D01*
X83041904Y-153671428D01*
X82994285Y-153861904D01*
X82946666Y-153957142D01*
X82899047Y-154004761D01*
X82803809Y-154052380D01*
X82708571Y-154052380D01*
X82613333Y-154004761D01*
X82565714Y-153957142D01*
X82518095Y-153861904D01*
X82470476Y-153671428D01*
X82470476Y-153433333D01*
X82518095Y-153242857D01*
X82565714Y-153147619D01*
X82613333Y-153100000D01*
X82708571Y-153052380D01*
X83375238Y-153052380D02*
X84041904Y-153052380D01*
X83613333Y-154052380D01*
X75938095Y-149482380D02*
X75938095Y-148482380D01*
X76509523Y-149482380D02*
X76080952Y-148910952D01*
X76509523Y-148482380D02*
X75938095Y-149053809D01*
X53006666Y-39032380D02*
X53006666Y-39746666D01*
X52959047Y-39889523D01*
X52863809Y-39984761D01*
X52720952Y-40032380D01*
X52625714Y-40032380D01*
X54006666Y-40032380D02*
X53435238Y-40032380D01*
X53720952Y-40032380D02*
X53720952Y-39032380D01*
X53625714Y-39175238D01*
X53530476Y-39270476D01*
X53435238Y-39318095D01*
X53006666Y-102532380D02*
X53006666Y-103246666D01*
X52959047Y-103389523D01*
X52863809Y-103484761D01*
X52720952Y-103532380D01*
X52625714Y-103532380D01*
X53435238Y-102627619D02*
X53482857Y-102580000D01*
X53578095Y-102532380D01*
X53816190Y-102532380D01*
X53911428Y-102580000D01*
X53959047Y-102627619D01*
X54006666Y-102722857D01*
X54006666Y-102818095D01*
X53959047Y-102960952D01*
X53387619Y-103532380D01*
X54006666Y-103532380D01*
X80946666Y-152512380D02*
X80946666Y-153226666D01*
X80899047Y-153369523D01*
X80803809Y-153464761D01*
X80660952Y-153512380D01*
X80565714Y-153512380D01*
X81327619Y-152512380D02*
X81946666Y-152512380D01*
X81613333Y-152893333D01*
X81756190Y-152893333D01*
X81851428Y-152940952D01*
X81899047Y-152988571D01*
X81946666Y-153083809D01*
X81946666Y-153321904D01*
X81899047Y-153417142D01*
X81851428Y-153464761D01*
X81756190Y-153512380D01*
X81470476Y-153512380D01*
X81375238Y-153464761D01*
X81327619Y-153417142D01*
X96186666Y-39032380D02*
X96186666Y-39746666D01*
X96139047Y-39889523D01*
X96043809Y-39984761D01*
X95900952Y-40032380D01*
X95805714Y-40032380D01*
X97091428Y-39365714D02*
X97091428Y-40032380D01*
X96853333Y-38984761D02*
X96615238Y-39699047D01*
X97234285Y-39699047D01*
X96186666Y-102532380D02*
X96186666Y-103246666D01*
X96139047Y-103389523D01*
X96043809Y-103484761D01*
X95900952Y-103532380D01*
X95805714Y-103532380D01*
X97139047Y-102532380D02*
X96662857Y-102532380D01*
X96615238Y-103008571D01*
X96662857Y-102960952D01*
X96758095Y-102913333D01*
X96996190Y-102913333D01*
X97091428Y-102960952D01*
X97139047Y-103008571D01*
X97186666Y-103103809D01*
X97186666Y-103341904D01*
X97139047Y-103437142D01*
X97091428Y-103484761D01*
X96996190Y-103532380D01*
X96758095Y-103532380D01*
X96662857Y-103484761D01*
X96615238Y-103437142D01*
X98162380Y-150193333D02*
X98876666Y-150193333D01*
X99019523Y-150240952D01*
X99114761Y-150336190D01*
X99162380Y-150479047D01*
X99162380Y-150574285D01*
X98162380Y-149288571D02*
X98162380Y-149479047D01*
X98210000Y-149574285D01*
X98257619Y-149621904D01*
X98400476Y-149717142D01*
X98590952Y-149764761D01*
X98971904Y-149764761D01*
X99067142Y-149717142D01*
X99114761Y-149669523D01*
X99162380Y-149574285D01*
X99162380Y-149383809D01*
X99114761Y-149288571D01*
X99067142Y-149240952D01*
X98971904Y-149193333D01*
X98733809Y-149193333D01*
X98638571Y-149240952D01*
X98590952Y-149288571D01*
X98543333Y-149383809D01*
X98543333Y-149574285D01*
X98590952Y-149669523D01*
X98638571Y-149717142D01*
X98733809Y-149764761D01*
X107602380Y-91733333D02*
X108316666Y-91733333D01*
X108459523Y-91780952D01*
X108554761Y-91876190D01*
X108602380Y-92019047D01*
X108602380Y-92114285D01*
X107602380Y-91352380D02*
X107602380Y-90685714D01*
X108602380Y-91114285D01*
X60396666Y-165442380D02*
X60396666Y-166156666D01*
X60349047Y-166299523D01*
X60253809Y-166394761D01*
X60110952Y-166442380D01*
X60015714Y-166442380D01*
X61015714Y-165870952D02*
X60920476Y-165823333D01*
X60872857Y-165775714D01*
X60825238Y-165680476D01*
X60825238Y-165632857D01*
X60872857Y-165537619D01*
X60920476Y-165490000D01*
X61015714Y-165442380D01*
X61206190Y-165442380D01*
X61301428Y-165490000D01*
X61349047Y-165537619D01*
X61396666Y-165632857D01*
X61396666Y-165680476D01*
X61349047Y-165775714D01*
X61301428Y-165823333D01*
X61206190Y-165870952D01*
X61015714Y-165870952D01*
X60920476Y-165918571D01*
X60872857Y-165966190D01*
X60825238Y-166061428D01*
X60825238Y-166251904D01*
X60872857Y-166347142D01*
X60920476Y-166394761D01*
X61015714Y-166442380D01*
X61206190Y-166442380D01*
X61301428Y-166394761D01*
X61349047Y-166347142D01*
X61396666Y-166251904D01*
X61396666Y-166061428D01*
X61349047Y-165966190D01*
X61301428Y-165918571D01*
X61206190Y-165870952D01*
X59706190Y-147442380D02*
X59372857Y-146966190D01*
X59134761Y-147442380D02*
X59134761Y-146442380D01*
X59515714Y-146442380D01*
X59610952Y-146490000D01*
X59658571Y-146537619D01*
X59706190Y-146632857D01*
X59706190Y-146775714D01*
X59658571Y-146870952D01*
X59610952Y-146918571D01*
X59515714Y-146966190D01*
X59134761Y-146966190D01*
X60420476Y-146442380D02*
X60420476Y-147156666D01*
X60372857Y-147299523D01*
X60277619Y-147394761D01*
X60134761Y-147442380D01*
X60039523Y-147442380D01*
X61325238Y-146775714D02*
X61325238Y-147442380D01*
X61087142Y-146394761D02*
X60849047Y-147109047D01*
X61468095Y-147109047D01*
X62325238Y-146442380D02*
X61849047Y-146442380D01*
X61801428Y-146918571D01*
X61849047Y-146870952D01*
X61944285Y-146823333D01*
X62182380Y-146823333D01*
X62277619Y-146870952D01*
X62325238Y-146918571D01*
X62372857Y-147013809D01*
X62372857Y-147251904D01*
X62325238Y-147347142D01*
X62277619Y-147394761D01*
X62182380Y-147442380D01*
X61944285Y-147442380D01*
X61849047Y-147394761D01*
X61801428Y-147347142D01*
X77036666Y-37462380D02*
X77036666Y-38176666D01*
X76989047Y-38319523D01*
X76893809Y-38414761D01*
X76750952Y-38462380D01*
X76655714Y-38462380D01*
X77560476Y-38462380D02*
X77750952Y-38462380D01*
X77846190Y-38414761D01*
X77893809Y-38367142D01*
X77989047Y-38224285D01*
X78036666Y-38033809D01*
X78036666Y-37652857D01*
X77989047Y-37557619D01*
X77941428Y-37510000D01*
X77846190Y-37462380D01*
X77655714Y-37462380D01*
X77560476Y-37510000D01*
X77512857Y-37557619D01*
X77465238Y-37652857D01*
X77465238Y-37890952D01*
X77512857Y-37986190D01*
X77560476Y-38033809D01*
X77655714Y-38081428D01*
X77846190Y-38081428D01*
X77941428Y-38033809D01*
X77989047Y-37986190D01*
X78036666Y-37890952D01*
X72155714Y-55672380D02*
X72155714Y-54672380D01*
X72489047Y-55386666D01*
X72822380Y-54672380D01*
X72822380Y-55672380D01*
X73298571Y-55672380D02*
X73298571Y-55005714D01*
X73298571Y-54672380D02*
X73250952Y-54720000D01*
X73298571Y-54767619D01*
X73346190Y-54720000D01*
X73298571Y-54672380D01*
X73298571Y-54767619D01*
X74203333Y-55624761D02*
X74108095Y-55672380D01*
X73917619Y-55672380D01*
X73822380Y-55624761D01*
X73774761Y-55577142D01*
X73727142Y-55481904D01*
X73727142Y-55196190D01*
X73774761Y-55100952D01*
X73822380Y-55053333D01*
X73917619Y-55005714D01*
X74108095Y-55005714D01*
X74203333Y-55053333D01*
X74631904Y-55672380D02*
X74631904Y-55005714D01*
X74631904Y-55196190D02*
X74679523Y-55100952D01*
X74727142Y-55053333D01*
X74822380Y-55005714D01*
X74917619Y-55005714D01*
X75393809Y-55672380D02*
X75298571Y-55624761D01*
X75250952Y-55577142D01*
X75203333Y-55481904D01*
X75203333Y-55196190D01*
X75250952Y-55100952D01*
X75298571Y-55053333D01*
X75393809Y-55005714D01*
X75536666Y-55005714D01*
X75631904Y-55053333D01*
X75679523Y-55100952D01*
X75727142Y-55196190D01*
X75727142Y-55481904D01*
X75679523Y-55577142D01*
X75631904Y-55624761D01*
X75536666Y-55672380D01*
X75393809Y-55672380D01*
X75917619Y-55767619D02*
X76679523Y-55767619D01*
X76870000Y-55624761D02*
X77012857Y-55672380D01*
X77250952Y-55672380D01*
X77346190Y-55624761D01*
X77393809Y-55577142D01*
X77441428Y-55481904D01*
X77441428Y-55386666D01*
X77393809Y-55291428D01*
X77346190Y-55243809D01*
X77250952Y-55196190D01*
X77060476Y-55148571D01*
X76965238Y-55100952D01*
X76917619Y-55053333D01*
X76870000Y-54958095D01*
X76870000Y-54862857D01*
X76917619Y-54767619D01*
X76965238Y-54720000D01*
X77060476Y-54672380D01*
X77298571Y-54672380D01*
X77441428Y-54720000D01*
X77870000Y-55672380D02*
X77870000Y-54672380D01*
X78108095Y-54672380D01*
X78250952Y-54720000D01*
X78346190Y-54815238D01*
X78393809Y-54910476D01*
X78441428Y-55100952D01*
X78441428Y-55243809D01*
X78393809Y-55434285D01*
X78346190Y-55529523D01*
X78250952Y-55624761D01*
X78108095Y-55672380D01*
X77870000Y-55672380D01*
X78631904Y-55767619D02*
X79393809Y-55767619D01*
X80203333Y-55577142D02*
X80155714Y-55624761D01*
X80012857Y-55672380D01*
X79917619Y-55672380D01*
X79774761Y-55624761D01*
X79679523Y-55529523D01*
X79631904Y-55434285D01*
X79584285Y-55243809D01*
X79584285Y-55100952D01*
X79631904Y-54910476D01*
X79679523Y-54815238D01*
X79774761Y-54720000D01*
X79917619Y-54672380D01*
X80012857Y-54672380D01*
X80155714Y-54720000D01*
X80203333Y-54767619D01*
X81060476Y-55672380D02*
X81060476Y-55148571D01*
X81012857Y-55053333D01*
X80917619Y-55005714D01*
X80727142Y-55005714D01*
X80631904Y-55053333D01*
X81060476Y-55624761D02*
X80965238Y-55672380D01*
X80727142Y-55672380D01*
X80631904Y-55624761D01*
X80584285Y-55529523D01*
X80584285Y-55434285D01*
X80631904Y-55339047D01*
X80727142Y-55291428D01*
X80965238Y-55291428D01*
X81060476Y-55243809D01*
X81536666Y-55672380D02*
X81536666Y-55005714D01*
X81536666Y-55196190D02*
X81584285Y-55100952D01*
X81631904Y-55053333D01*
X81727142Y-55005714D01*
X81822380Y-55005714D01*
X82584285Y-55672380D02*
X82584285Y-54672380D01*
X82584285Y-55624761D02*
X82489047Y-55672380D01*
X82298571Y-55672380D01*
X82203333Y-55624761D01*
X82155714Y-55577142D01*
X82108095Y-55481904D01*
X82108095Y-55196190D01*
X82155714Y-55100952D01*
X82203333Y-55053333D01*
X82298571Y-55005714D01*
X82489047Y-55005714D01*
X82584285Y-55053333D01*
X97952380Y-139239523D02*
X98666666Y-139239523D01*
X98809523Y-139287142D01*
X98904761Y-139382380D01*
X98952380Y-139525238D01*
X98952380Y-139620476D01*
X98952380Y-138239523D02*
X98952380Y-138810952D01*
X98952380Y-138525238D02*
X97952380Y-138525238D01*
X98095238Y-138620476D01*
X98190476Y-138715714D01*
X98238095Y-138810952D01*
X97952380Y-137620476D02*
X97952380Y-137525238D01*
X98000000Y-137430000D01*
X98047619Y-137382380D01*
X98142857Y-137334761D01*
X98333333Y-137287142D01*
X98571428Y-137287142D01*
X98761904Y-137334761D01*
X98857142Y-137382380D01*
X98904761Y-137430000D01*
X98952380Y-137525238D01*
X98952380Y-137620476D01*
X98904761Y-137715714D01*
X98857142Y-137763333D01*
X98761904Y-137810952D01*
X98571428Y-137858571D01*
X98333333Y-137858571D01*
X98142857Y-137810952D01*
X98047619Y-137763333D01*
X98000000Y-137715714D01*
X97952380Y-137620476D01*
X77121904Y-100612380D02*
X77121904Y-99612380D01*
X77693333Y-100612380D02*
X77264761Y-100040952D01*
X77693333Y-99612380D02*
X77121904Y-100183809D01*
X78645714Y-100612380D02*
X78074285Y-100612380D01*
X78360000Y-100612380D02*
X78360000Y-99612380D01*
X78264761Y-99755238D01*
X78169523Y-99850476D01*
X78074285Y-99898095D01*
X68484761Y-114597619D02*
X68389523Y-114550000D01*
X68294285Y-114454761D01*
X68151428Y-114311904D01*
X68056190Y-114264285D01*
X67960952Y-114264285D01*
X68008571Y-114502380D02*
X67913333Y-114454761D01*
X67818095Y-114359523D01*
X67770476Y-114169047D01*
X67770476Y-113835714D01*
X67818095Y-113645238D01*
X67913333Y-113550000D01*
X68008571Y-113502380D01*
X68199047Y-113502380D01*
X68294285Y-113550000D01*
X68389523Y-113645238D01*
X68437142Y-113835714D01*
X68437142Y-114169047D01*
X68389523Y-114359523D01*
X68294285Y-114454761D01*
X68199047Y-114502380D01*
X68008571Y-114502380D01*
X69389523Y-114502380D02*
X68818095Y-114502380D01*
X69103809Y-114502380D02*
X69103809Y-113502380D01*
X69008571Y-113645238D01*
X68913333Y-113740476D01*
X68818095Y-113788095D01*
X65460952Y-108152380D02*
X65460952Y-107152380D01*
X65841904Y-107152380D01*
X65937142Y-107200000D01*
X65984761Y-107247619D01*
X66032380Y-107342857D01*
X66032380Y-107485714D01*
X65984761Y-107580952D01*
X65937142Y-107628571D01*
X65841904Y-107676190D01*
X65460952Y-107676190D01*
X66460952Y-108152380D02*
X66460952Y-107152380D01*
X67032380Y-108152380D01*
X67032380Y-107152380D01*
X67460952Y-107247619D02*
X67508571Y-107200000D01*
X67603809Y-107152380D01*
X67841904Y-107152380D01*
X67937142Y-107200000D01*
X67984761Y-107247619D01*
X68032380Y-107342857D01*
X68032380Y-107438095D01*
X67984761Y-107580952D01*
X67413333Y-108152380D01*
X68032380Y-108152380D01*
X68413333Y-107247619D02*
X68460952Y-107200000D01*
X68556190Y-107152380D01*
X68794285Y-107152380D01*
X68889523Y-107200000D01*
X68937142Y-107247619D01*
X68984761Y-107342857D01*
X68984761Y-107438095D01*
X68937142Y-107580952D01*
X68365714Y-108152380D01*
X68984761Y-108152380D01*
X69365714Y-107247619D02*
X69413333Y-107200000D01*
X69508571Y-107152380D01*
X69746666Y-107152380D01*
X69841904Y-107200000D01*
X69889523Y-107247619D01*
X69937142Y-107342857D01*
X69937142Y-107438095D01*
X69889523Y-107580952D01*
X69318095Y-108152380D01*
X69937142Y-108152380D01*
X70318095Y-107247619D02*
X70365714Y-107200000D01*
X70460952Y-107152380D01*
X70699047Y-107152380D01*
X70794285Y-107200000D01*
X70841904Y-107247619D01*
X70889523Y-107342857D01*
X70889523Y-107438095D01*
X70841904Y-107580952D01*
X70270476Y-108152380D01*
X70889523Y-108152380D01*
X71270476Y-107866666D02*
X71746666Y-107866666D01*
X71175238Y-108152380D02*
X71508571Y-107152380D01*
X71841904Y-108152380D01*
X81113333Y-108572380D02*
X80780000Y-108096190D01*
X80541904Y-108572380D02*
X80541904Y-107572380D01*
X80922857Y-107572380D01*
X81018095Y-107620000D01*
X81065714Y-107667619D01*
X81113333Y-107762857D01*
X81113333Y-107905714D01*
X81065714Y-108000952D01*
X81018095Y-108048571D01*
X80922857Y-108096190D01*
X80541904Y-108096190D01*
X82065714Y-108572380D02*
X81494285Y-108572380D01*
X81780000Y-108572380D02*
X81780000Y-107572380D01*
X81684761Y-107715238D01*
X81589523Y-107810476D01*
X81494285Y-107858095D01*
X81160952Y-113312380D02*
X80589523Y-113312380D01*
X80875238Y-113312380D02*
X80875238Y-112312380D01*
X80780000Y-112455238D01*
X80684761Y-112550476D01*
X80589523Y-112598095D01*
X81589523Y-113312380D02*
X81589523Y-112312380D01*
X81684761Y-112931428D02*
X81970476Y-113312380D01*
X81970476Y-112645714D02*
X81589523Y-113026666D01*
X79248095Y-127897380D02*
X79248095Y-128706904D01*
X79295714Y-128802142D01*
X79343333Y-128849761D01*
X79438571Y-128897380D01*
X79629047Y-128897380D01*
X79724285Y-128849761D01*
X79771904Y-128802142D01*
X79819523Y-128706904D01*
X79819523Y-127897380D01*
X80819523Y-128897380D02*
X80248095Y-128897380D01*
X80533809Y-128897380D02*
X80533809Y-127897380D01*
X80438571Y-128040238D01*
X80343333Y-128135476D01*
X80248095Y-128183095D01*
X75129047Y-135667380D02*
X74652857Y-135667380D01*
X74652857Y-134667380D01*
X75462380Y-135667380D02*
X75462380Y-134667380D01*
X75795714Y-135381666D01*
X76129047Y-134667380D01*
X76129047Y-135667380D01*
X76510000Y-134667380D02*
X77176666Y-134667380D01*
X76748095Y-135667380D01*
X77700476Y-135095952D02*
X77605238Y-135048333D01*
X77557619Y-135000714D01*
X77510000Y-134905476D01*
X77510000Y-134857857D01*
X77557619Y-134762619D01*
X77605238Y-134715000D01*
X77700476Y-134667380D01*
X77890952Y-134667380D01*
X77986190Y-134715000D01*
X78033809Y-134762619D01*
X78081428Y-134857857D01*
X78081428Y-134905476D01*
X78033809Y-135000714D01*
X77986190Y-135048333D01*
X77890952Y-135095952D01*
X77700476Y-135095952D01*
X77605238Y-135143571D01*
X77557619Y-135191190D01*
X77510000Y-135286428D01*
X77510000Y-135476904D01*
X77557619Y-135572142D01*
X77605238Y-135619761D01*
X77700476Y-135667380D01*
X77890952Y-135667380D01*
X77986190Y-135619761D01*
X78033809Y-135572142D01*
X78081428Y-135476904D01*
X78081428Y-135286428D01*
X78033809Y-135191190D01*
X77986190Y-135143571D01*
X77890952Y-135095952D01*
X78700476Y-134667380D02*
X78795714Y-134667380D01*
X78890952Y-134715000D01*
X78938571Y-134762619D01*
X78986190Y-134857857D01*
X79033809Y-135048333D01*
X79033809Y-135286428D01*
X78986190Y-135476904D01*
X78938571Y-135572142D01*
X78890952Y-135619761D01*
X78795714Y-135667380D01*
X78700476Y-135667380D01*
X78605238Y-135619761D01*
X78557619Y-135572142D01*
X78510000Y-135476904D01*
X78462380Y-135286428D01*
X78462380Y-135048333D01*
X78510000Y-134857857D01*
X78557619Y-134762619D01*
X78605238Y-134715000D01*
X78700476Y-134667380D01*
X79938571Y-134667380D02*
X79462380Y-134667380D01*
X79414761Y-135143571D01*
X79462380Y-135095952D01*
X79557619Y-135048333D01*
X79795714Y-135048333D01*
X79890952Y-135095952D01*
X79938571Y-135143571D01*
X79986190Y-135238809D01*
X79986190Y-135476904D01*
X79938571Y-135572142D01*
X79890952Y-135619761D01*
X79795714Y-135667380D01*
X79557619Y-135667380D01*
X79462380Y-135619761D01*
X79414761Y-135572142D01*
X80176666Y-135762619D02*
X80938571Y-135762619D01*
X81033809Y-134667380D02*
X81605238Y-134667380D01*
X81319523Y-135667380D02*
X81319523Y-134667380D01*
X82129047Y-134667380D02*
X82319523Y-134667380D01*
X82414761Y-134715000D01*
X82510000Y-134810238D01*
X82557619Y-135000714D01*
X82557619Y-135334047D01*
X82510000Y-135524523D01*
X82414761Y-135619761D01*
X82319523Y-135667380D01*
X82129047Y-135667380D01*
X82033809Y-135619761D01*
X81938571Y-135524523D01*
X81890952Y-135334047D01*
X81890952Y-135000714D01*
X81938571Y-134810238D01*
X82033809Y-134715000D01*
X82129047Y-134667380D01*
X82938571Y-134762619D02*
X82986190Y-134715000D01*
X83081428Y-134667380D01*
X83319523Y-134667380D01*
X83414761Y-134715000D01*
X83462380Y-134762619D01*
X83510000Y-134857857D01*
X83510000Y-134953095D01*
X83462380Y-135095952D01*
X82890952Y-135667380D01*
X83510000Y-135667380D01*
X83890952Y-134762619D02*
X83938571Y-134715000D01*
X84033809Y-134667380D01*
X84271904Y-134667380D01*
X84367142Y-134715000D01*
X84414761Y-134762619D01*
X84462380Y-134857857D01*
X84462380Y-134953095D01*
X84414761Y-135095952D01*
X83843333Y-135667380D01*
X84462380Y-135667380D01*
X85081428Y-134667380D02*
X85176666Y-134667380D01*
X85271904Y-134715000D01*
X85319523Y-134762619D01*
X85367142Y-134857857D01*
X85414761Y-135048333D01*
X85414761Y-135286428D01*
X85367142Y-135476904D01*
X85319523Y-135572142D01*
X85271904Y-135619761D01*
X85176666Y-135667380D01*
X85081428Y-135667380D01*
X84986190Y-135619761D01*
X84938571Y-135572142D01*
X84890952Y-135476904D01*
X84843333Y-135286428D01*
X84843333Y-135048333D01*
X84890952Y-134857857D01*
X84938571Y-134762619D01*
X84986190Y-134715000D01*
X85081428Y-134667380D01*
%LPC*%
D16*
X76200000Y-144145000D03*
X78700000Y-144145000D03*
X83860000Y-144145000D03*
X86360000Y-144145000D03*
D17*
X92710000Y-154940000D03*
D18*
X92710000Y-144780000D03*
X86360000Y-151130000D03*
D17*
X76200000Y-151130000D03*
D19*
X52070000Y-41910000D03*
D20*
X54610000Y-41910000D03*
X52070000Y-44450000D03*
X54610000Y-44450000D03*
X52070000Y-46990000D03*
X54610000Y-46990000D03*
X52070000Y-49530000D03*
X54610000Y-49530000D03*
X52070000Y-52070000D03*
X54610000Y-52070000D03*
X52070000Y-54610000D03*
X54610000Y-54610000D03*
X52070000Y-57150000D03*
X54610000Y-57150000D03*
X52070000Y-59690000D03*
X54610000Y-59690000D03*
X52070000Y-62230000D03*
X54610000Y-62230000D03*
X52070000Y-64770000D03*
X54610000Y-64770000D03*
X54610000Y-128270000D03*
X52070000Y-128270000D03*
X54610000Y-125730000D03*
X52070000Y-125730000D03*
X54610000Y-123190000D03*
X52070000Y-123190000D03*
X54610000Y-120650000D03*
X52070000Y-120650000D03*
X54610000Y-118110000D03*
X52070000Y-118110000D03*
X54610000Y-115570000D03*
X52070000Y-115570000D03*
X54610000Y-113030000D03*
X52070000Y-113030000D03*
X54610000Y-110490000D03*
X52070000Y-110490000D03*
X54610000Y-107950000D03*
X52070000Y-107950000D03*
X54610000Y-105410000D03*
D19*
X52070000Y-105410000D03*
D21*
X78740000Y-160020000D03*
D22*
X83820000Y-160020000D03*
D19*
X95250000Y-41910000D03*
D20*
X97790000Y-41910000D03*
X95250000Y-44450000D03*
X97790000Y-44450000D03*
X95250000Y-46990000D03*
X97790000Y-46990000D03*
X95250000Y-49530000D03*
X97790000Y-49530000D03*
X95250000Y-52070000D03*
X97790000Y-52070000D03*
X95250000Y-54610000D03*
X97790000Y-54610000D03*
X95250000Y-57150000D03*
X97790000Y-57150000D03*
X95250000Y-59690000D03*
X97790000Y-59690000D03*
X95250000Y-62230000D03*
X97790000Y-62230000D03*
X95250000Y-64770000D03*
X97790000Y-64770000D03*
X97790000Y-128270000D03*
X95250000Y-128270000D03*
X97790000Y-125730000D03*
X95250000Y-125730000D03*
X97790000Y-123190000D03*
X95250000Y-123190000D03*
X97790000Y-120650000D03*
X95250000Y-120650000D03*
X97790000Y-118110000D03*
X95250000Y-118110000D03*
X97790000Y-115570000D03*
X95250000Y-115570000D03*
X97790000Y-113030000D03*
X95250000Y-113030000D03*
X97790000Y-110490000D03*
X95250000Y-110490000D03*
X97790000Y-107950000D03*
X95250000Y-107950000D03*
X97790000Y-105410000D03*
D19*
X95250000Y-105410000D03*
D17*
X102870000Y-151130000D03*
D23*
X105410000Y-151130000D03*
D24*
X102870000Y-148590000D03*
D23*
X105410000Y-148590000D03*
D25*
X101790000Y-86320000D03*
D26*
X101790000Y-91400000D03*
X101790000Y-96480000D03*
D27*
X64290000Y-156490000D03*
D28*
X62250000Y-156490000D03*
X60210000Y-156490000D03*
X58170000Y-156490000D03*
X63270000Y-154710000D03*
X61230000Y-154710000D03*
X59190000Y-154710000D03*
X57150000Y-154710000D03*
D29*
X67080000Y-159030000D03*
X54380000Y-159030000D03*
D30*
X52600000Y-155600000D03*
X68860000Y-155600000D03*
D31*
X84245000Y-41850000D03*
X70495000Y-41850000D03*
X70495000Y-50150000D03*
X84245000Y-50150000D03*
D32*
X81870000Y-44450000D03*
X80770000Y-44450000D03*
X79670000Y-44450000D03*
X78570000Y-44450000D03*
X77470000Y-44450000D03*
X76370000Y-44450000D03*
X75270000Y-44450000D03*
X74170000Y-44450000D03*
D33*
X102870000Y-140970000D03*
D34*
X102870000Y-138430000D03*
X102870000Y-135890000D03*
D26*
X71710000Y-97010000D03*
D35*
X83910000Y-97010000D03*
X83960000Y-84960000D03*
D26*
X71710000Y-85010000D03*
D35*
X69760000Y-90960000D03*
D36*
X68580000Y-110490000D03*
X67310000Y-110490000D03*
D37*
X69850000Y-110490000D03*
D16*
X76200000Y-110490000D03*
D38*
X86360000Y-110490000D03*
D39*
X77470000Y-132715000D03*
D40*
X80010000Y-132715000D03*
X82550000Y-132715000D03*
M02*
