M48
;DRILL file {KiCad 5.0.1} date Sun Dec  2 07:33:00 2018
;FORMAT={-:-/ absolute / inch / decimal}
FMAT,2
INCH,TZ
T1C0.0157
T2C0.0295
T3C0.0315
T4C0.0350
T5C0.0394
T6C0.0433
T7C0.0512
T8C0.0618
T9C0.0433
T10C0.1280
%
G90
G05
M72
T1
X2.275Y-4.715
X2.3Y-6.45
X2.365Y-4.715
X2.45Y-4.9
X2.5Y-4.75
X2.55Y-4.9
X2.5598Y-5.1866
X2.7Y-4.75
X2.85Y-1.7
X2.85Y-6.45
X2.8685Y-5.0386
X2.9035Y-4.7697
X2.9035Y-4.9362
X3.0831Y-5.0811
X3.1Y-1.65
X3.15Y-2.7
X3.15Y-2.95
X3.2Y-1.65
X3.3Y-4.95
X3.4866Y-6.4508
X3.489Y-4.9909
X3.6Y-2.15
X3.6Y-2.25
T2
X2.65Y-4.35
X2.7Y-4.35
X2.75Y-4.35
T3
X3.Y-4.35
X3.4Y-4.35
X3.Y-5.675
X3.0984Y-5.675
X3.3016Y-5.675
X3.4Y-5.675
T4
X2.25Y-6.0909
X2.2902Y-6.161
X2.3303Y-6.0909
X2.3705Y-6.161
X2.4106Y-6.0909
X2.4508Y-6.161
X2.4909Y-6.0909
X2.5311Y-6.161
T5
X2.8232Y-3.3469
X2.8232Y-3.8193
X2.05Y-1.65
X2.05Y-1.75
X2.05Y-1.85
X2.05Y-1.95
X2.05Y-2.05
X2.05Y-2.15
X2.05Y-2.25
X2.05Y-2.35
X2.05Y-2.45
X2.05Y-2.55
X2.15Y-1.65
X2.15Y-1.75
X2.15Y-1.85
X2.15Y-1.95
X2.15Y-2.05
X2.15Y-2.15
X2.15Y-2.25
X2.15Y-2.35
X2.15Y-2.45
X2.15Y-2.55
X3.75Y-4.15
X3.75Y-4.25
X3.75Y-4.35
X3.75Y-4.45
X3.75Y-4.55
X3.75Y-4.65
X3.75Y-4.75
X3.75Y-4.85
X3.75Y-4.95
X3.75Y-5.05
X3.85Y-4.15
X3.85Y-4.25
X3.85Y-4.35
X3.85Y-4.45
X3.85Y-4.55
X3.85Y-4.65
X3.85Y-4.75
X3.85Y-4.85
X3.85Y-4.95
X3.85Y-5.05
X3.75Y-1.65
X3.75Y-1.75
X3.75Y-1.85
X3.75Y-1.95
X3.75Y-2.05
X3.75Y-2.15
X3.75Y-2.25
X3.75Y-2.35
X3.75Y-2.45
X3.75Y-2.55
X3.85Y-1.65
X3.85Y-1.75
X3.85Y-1.85
X3.85Y-1.95
X3.85Y-2.05
X3.85Y-2.15
X3.85Y-2.25
X3.85Y-2.35
X3.85Y-2.45
X3.85Y-2.55
X2.05Y-4.15
X2.05Y-4.25
X2.05Y-4.35
X2.05Y-4.45
X2.05Y-4.55
X2.05Y-4.65
X2.05Y-4.75
X2.05Y-4.85
X2.05Y-4.95
X2.05Y-5.05
X2.15Y-4.15
X2.15Y-4.25
X2.15Y-4.35
X2.15Y-4.45
X2.15Y-4.55
X2.15Y-4.65
X2.15Y-4.75
X2.15Y-4.85
X2.15Y-4.95
X2.15Y-5.05
T6
X3.05Y-5.225
X3.15Y-5.225
X3.25Y-5.225
X4.05Y-5.85
X4.05Y-5.95
X3.65Y-5.7
X3.65Y-6.1
X4.05Y-5.35
X4.05Y-5.45
X4.05Y-5.55
X3.Y-5.95
X3.4Y-5.95
T7
X4.0075Y-3.3984
X4.0075Y-3.5984
X4.0075Y-3.7984
X3.1Y-6.3
X3.3Y-6.3
X2.7465Y-3.5811
X3.3035Y-3.8193
X3.3055Y-3.3449
T8
X2.0709Y-6.126
X2.711Y-6.126
T9
X4.15Y-5.85
X4.15Y-5.95
T10
X2.1409Y-6.261
X2.6409Y-6.261
T0
M30
