G04 #@! TF.GenerationSoftware,KiCad,Pcbnew,5.0.1*
G04 #@! TF.CreationDate,2018-12-02T07:32:58+00:00*
G04 #@! TF.ProjectId,acnode-doorbot,61636E6F64652D646F6F72626F742E6B,rev?*
G04 #@! TF.SameCoordinates,Original*
G04 #@! TF.FileFunction,Legend,Top*
G04 #@! TF.FilePolarity,Positive*
%FSLAX46Y46*%
G04 Gerber Fmt 4.6, Leading zero omitted, Abs format (unit mm)*
G04 Created by KiCad (PCBNEW 5.0.1) date Sun Dec  2 07:32:58 2018*
%MOMM*%
%LPD*%
G01*
G04 APERTURE LIST*
%ADD10C,0.200000*%
%ADD11C,0.300000*%
%ADD12C,0.120000*%
%ADD13C,0.010000*%
%ADD14C,0.150000*%
G04 APERTURE END LIST*
D10*
X64022192Y-84890000D02*
G75*
G03X64022192Y-84890000I-822192J0D01*
G01*
X104033539Y-80680000D02*
G75*
G03X104033539Y-80680000I-863539J0D01*
G01*
X85725000Y-139700000D02*
G75*
G03X85725000Y-139700000I-635000J0D01*
G01*
D11*
X80694285Y-65683571D02*
X79980000Y-65683571D01*
X79980000Y-64183571D01*
X81194285Y-65683571D02*
X81194285Y-64183571D01*
X81194285Y-64897857D02*
X82051428Y-64897857D01*
X82051428Y-65683571D02*
X82051428Y-64183571D01*
X82694285Y-65612142D02*
X82908571Y-65683571D01*
X83265714Y-65683571D01*
X83408571Y-65612142D01*
X83480000Y-65540714D01*
X83551428Y-65397857D01*
X83551428Y-65255000D01*
X83480000Y-65112142D01*
X83408571Y-65040714D01*
X83265714Y-64969285D01*
X82980000Y-64897857D01*
X82837142Y-64826428D01*
X82765714Y-64755000D01*
X82694285Y-64612142D01*
X82694285Y-64469285D01*
X82765714Y-64326428D01*
X82837142Y-64255000D01*
X82980000Y-64183571D01*
X83337142Y-64183571D01*
X83551428Y-64255000D01*
X77051428Y-67805000D02*
X77765714Y-67805000D01*
X76908571Y-68233571D02*
X77408571Y-66733571D01*
X77908571Y-68233571D01*
X79265714Y-68090714D02*
X79194285Y-68162142D01*
X78980000Y-68233571D01*
X78837142Y-68233571D01*
X78622857Y-68162142D01*
X78480000Y-68019285D01*
X78408571Y-67876428D01*
X78337142Y-67590714D01*
X78337142Y-67376428D01*
X78408571Y-67090714D01*
X78480000Y-66947857D01*
X78622857Y-66805000D01*
X78837142Y-66733571D01*
X78980000Y-66733571D01*
X79194285Y-66805000D01*
X79265714Y-66876428D01*
X79908571Y-68233571D02*
X79908571Y-66733571D01*
X80765714Y-68233571D01*
X80765714Y-66733571D01*
X81694285Y-68233571D02*
X81551428Y-68162142D01*
X81480000Y-68090714D01*
X81408571Y-67947857D01*
X81408571Y-67519285D01*
X81480000Y-67376428D01*
X81551428Y-67305000D01*
X81694285Y-67233571D01*
X81908571Y-67233571D01*
X82051428Y-67305000D01*
X82122857Y-67376428D01*
X82194285Y-67519285D01*
X82194285Y-67947857D01*
X82122857Y-68090714D01*
X82051428Y-68162142D01*
X81908571Y-68233571D01*
X81694285Y-68233571D01*
X83480000Y-68233571D02*
X83480000Y-66733571D01*
X83480000Y-68162142D02*
X83337142Y-68233571D01*
X83051428Y-68233571D01*
X82908571Y-68162142D01*
X82837142Y-68090714D01*
X82765714Y-67947857D01*
X82765714Y-67519285D01*
X82837142Y-67376428D01*
X82908571Y-67305000D01*
X83051428Y-67233571D01*
X83337142Y-67233571D01*
X83480000Y-67305000D01*
X84765714Y-68162142D02*
X84622857Y-68233571D01*
X84337142Y-68233571D01*
X84194285Y-68162142D01*
X84122857Y-68019285D01*
X84122857Y-67447857D01*
X84194285Y-67305000D01*
X84337142Y-67233571D01*
X84622857Y-67233571D01*
X84765714Y-67305000D01*
X84837142Y-67447857D01*
X84837142Y-67590714D01*
X84122857Y-67733571D01*
X86551428Y-66662142D02*
X85265714Y-68590714D01*
X74908571Y-70783571D02*
X74908571Y-69283571D01*
X75265714Y-69283571D01*
X75480000Y-69355000D01*
X75622857Y-69497857D01*
X75694285Y-69640714D01*
X75765714Y-69926428D01*
X75765714Y-70140714D01*
X75694285Y-70426428D01*
X75622857Y-70569285D01*
X75480000Y-70712142D01*
X75265714Y-70783571D01*
X74908571Y-70783571D01*
X76622857Y-70783571D02*
X76480000Y-70712142D01*
X76408571Y-70640714D01*
X76337142Y-70497857D01*
X76337142Y-70069285D01*
X76408571Y-69926428D01*
X76480000Y-69855000D01*
X76622857Y-69783571D01*
X76837142Y-69783571D01*
X76980000Y-69855000D01*
X77051428Y-69926428D01*
X77122857Y-70069285D01*
X77122857Y-70497857D01*
X77051428Y-70640714D01*
X76980000Y-70712142D01*
X76837142Y-70783571D01*
X76622857Y-70783571D01*
X77980000Y-70783571D02*
X77837142Y-70712142D01*
X77765714Y-70640714D01*
X77694285Y-70497857D01*
X77694285Y-70069285D01*
X77765714Y-69926428D01*
X77837142Y-69855000D01*
X77980000Y-69783571D01*
X78194285Y-69783571D01*
X78337142Y-69855000D01*
X78408571Y-69926428D01*
X78480000Y-70069285D01*
X78480000Y-70497857D01*
X78408571Y-70640714D01*
X78337142Y-70712142D01*
X78194285Y-70783571D01*
X77980000Y-70783571D01*
X79122857Y-70783571D02*
X79122857Y-69783571D01*
X79122857Y-70069285D02*
X79194285Y-69926428D01*
X79265714Y-69855000D01*
X79408571Y-69783571D01*
X79551428Y-69783571D01*
X80051428Y-70783571D02*
X80051428Y-69283571D01*
X80051428Y-69855000D02*
X80194285Y-69783571D01*
X80480000Y-69783571D01*
X80622857Y-69855000D01*
X80694285Y-69926428D01*
X80765714Y-70069285D01*
X80765714Y-70497857D01*
X80694285Y-70640714D01*
X80622857Y-70712142D01*
X80480000Y-70783571D01*
X80194285Y-70783571D01*
X80051428Y-70712142D01*
X81622857Y-70783571D02*
X81480000Y-70712142D01*
X81408571Y-70640714D01*
X81337142Y-70497857D01*
X81337142Y-70069285D01*
X81408571Y-69926428D01*
X81480000Y-69855000D01*
X81622857Y-69783571D01*
X81837142Y-69783571D01*
X81980000Y-69855000D01*
X82051428Y-69926428D01*
X82122857Y-70069285D01*
X82122857Y-70497857D01*
X82051428Y-70640714D01*
X81980000Y-70712142D01*
X81837142Y-70783571D01*
X81622857Y-70783571D01*
X82551428Y-69783571D02*
X83122857Y-69783571D01*
X82765714Y-69283571D02*
X82765714Y-70569285D01*
X82837142Y-70712142D01*
X82980000Y-70783571D01*
X83122857Y-70783571D01*
X84765714Y-70783571D02*
X84765714Y-69283571D01*
X85337142Y-69283571D01*
X85480000Y-69355000D01*
X85551428Y-69426428D01*
X85622857Y-69569285D01*
X85622857Y-69783571D01*
X85551428Y-69926428D01*
X85480000Y-69997857D01*
X85337142Y-70069285D01*
X84765714Y-70069285D01*
X87122857Y-70640714D02*
X87051428Y-70712142D01*
X86837142Y-70783571D01*
X86694285Y-70783571D01*
X86480000Y-70712142D01*
X86337142Y-70569285D01*
X86265714Y-70426428D01*
X86194285Y-70140714D01*
X86194285Y-69926428D01*
X86265714Y-69640714D01*
X86337142Y-69497857D01*
X86480000Y-69355000D01*
X86694285Y-69283571D01*
X86837142Y-69283571D01*
X87051428Y-69355000D01*
X87122857Y-69426428D01*
X88265714Y-69997857D02*
X88480000Y-70069285D01*
X88551428Y-70140714D01*
X88622857Y-70283571D01*
X88622857Y-70497857D01*
X88551428Y-70640714D01*
X88480000Y-70712142D01*
X88337142Y-70783571D01*
X87765714Y-70783571D01*
X87765714Y-69283571D01*
X88265714Y-69283571D01*
X88408571Y-69355000D01*
X88480000Y-69426428D01*
X88551428Y-69569285D01*
X88551428Y-69712142D01*
X88480000Y-69855000D01*
X88408571Y-69926428D01*
X88265714Y-69997857D01*
X87765714Y-69997857D01*
X78622857Y-73333571D02*
X78122857Y-72619285D01*
X77765714Y-73333571D02*
X77765714Y-71833571D01*
X78337142Y-71833571D01*
X78480000Y-71905000D01*
X78551428Y-71976428D01*
X78622857Y-72119285D01*
X78622857Y-72333571D01*
X78551428Y-72476428D01*
X78480000Y-72547857D01*
X78337142Y-72619285D01*
X77765714Y-72619285D01*
X79837142Y-73262142D02*
X79694285Y-73333571D01*
X79408571Y-73333571D01*
X79265714Y-73262142D01*
X79194285Y-73119285D01*
X79194285Y-72547857D01*
X79265714Y-72405000D01*
X79408571Y-72333571D01*
X79694285Y-72333571D01*
X79837142Y-72405000D01*
X79908571Y-72547857D01*
X79908571Y-72690714D01*
X79194285Y-72833571D01*
X80408571Y-72333571D02*
X80765714Y-73333571D01*
X81122857Y-72333571D01*
X83622857Y-73333571D02*
X82765714Y-73333571D01*
X83194285Y-73333571D02*
X83194285Y-71833571D01*
X83051428Y-72047857D01*
X82908571Y-72190714D01*
X82765714Y-72262142D01*
X84265714Y-73190714D02*
X84337142Y-73262142D01*
X84265714Y-73333571D01*
X84194285Y-73262142D01*
X84265714Y-73190714D01*
X84265714Y-73333571D01*
X85765714Y-73333571D02*
X84908571Y-73333571D01*
X85337142Y-73333571D02*
X85337142Y-71833571D01*
X85194285Y-72047857D01*
X85051428Y-72190714D01*
X84908571Y-72262142D01*
D12*
G04 #@! TO.C,C1*
X74830000Y-142775000D02*
X80070000Y-142775000D01*
X74830000Y-145515000D02*
X80070000Y-145515000D01*
X74830000Y-142775000D02*
X74830000Y-145515000D01*
X80070000Y-142775000D02*
X80070000Y-145515000D01*
G04 #@! TO.C,C2*
X82490000Y-145515000D02*
X82490000Y-142775000D01*
X87730000Y-145515000D02*
X87730000Y-142775000D01*
X87730000Y-142775000D02*
X82490000Y-142775000D01*
X87730000Y-145515000D02*
X82490000Y-145515000D01*
G04 #@! TO.C,D1*
X91240000Y-152580000D02*
X94180000Y-152580000D01*
X94180000Y-152580000D02*
X94180000Y-147140000D01*
X94180000Y-147140000D02*
X91240000Y-147140000D01*
X91240000Y-147140000D02*
X91240000Y-152580000D01*
X92710000Y-153600000D02*
X92710000Y-152580000D01*
X92710000Y-146120000D02*
X92710000Y-147140000D01*
X91240000Y-151680000D02*
X94180000Y-151680000D01*
X91240000Y-151560000D02*
X94180000Y-151560000D01*
X91240000Y-151800000D02*
X94180000Y-151800000D01*
G04 #@! TO.C,D2*
X79340000Y-149660000D02*
X79340000Y-152600000D01*
X79580000Y-149660000D02*
X79580000Y-152600000D01*
X79460000Y-149660000D02*
X79460000Y-152600000D01*
X85020000Y-151130000D02*
X84000000Y-151130000D01*
X77540000Y-151130000D02*
X78560000Y-151130000D01*
X84000000Y-149660000D02*
X78560000Y-149660000D01*
X84000000Y-152600000D02*
X84000000Y-149660000D01*
X78560000Y-152600000D02*
X84000000Y-152600000D01*
X78560000Y-149660000D02*
X78560000Y-152600000D01*
G04 #@! TO.C,J1*
X50740000Y-66100000D02*
X55940000Y-66100000D01*
X50740000Y-43180000D02*
X50740000Y-66100000D01*
X55940000Y-40580000D02*
X55940000Y-66100000D01*
X50740000Y-43180000D02*
X53340000Y-43180000D01*
X53340000Y-43180000D02*
X53340000Y-40580000D01*
X53340000Y-40580000D02*
X55940000Y-40580000D01*
X50740000Y-41910000D02*
X50740000Y-40580000D01*
X50740000Y-40580000D02*
X52070000Y-40580000D01*
G04 #@! TO.C,J2*
X50740000Y-104080000D02*
X52070000Y-104080000D01*
X50740000Y-105410000D02*
X50740000Y-104080000D01*
X53340000Y-104080000D02*
X55940000Y-104080000D01*
X53340000Y-106680000D02*
X53340000Y-104080000D01*
X50740000Y-106680000D02*
X53340000Y-106680000D01*
X55940000Y-104080000D02*
X55940000Y-129600000D01*
X50740000Y-106680000D02*
X50740000Y-129600000D01*
X50740000Y-129600000D02*
X55940000Y-129600000D01*
G04 #@! TO.C,J3*
X80920000Y-160020000D02*
G75*
G03X80920000Y-160020000I-2180000J0D01*
G01*
X86000000Y-160020000D02*
G75*
G03X86000000Y-160020000I-2180000J0D01*
G01*
X76140000Y-164820000D02*
X86420000Y-164820000D01*
X76140000Y-162320000D02*
X86420000Y-162320000D01*
X76140000Y-156120000D02*
X86420000Y-156120000D01*
X76140000Y-154060000D02*
X86420000Y-154060000D01*
X76140000Y-165380000D02*
X86420000Y-165380000D01*
X76140000Y-154060000D02*
X76140000Y-165380000D01*
X86420000Y-154060000D02*
X86420000Y-165380000D01*
X80394000Y-158632000D02*
X80287000Y-158739000D01*
X77458000Y-161567000D02*
X77352000Y-161674000D01*
X80128000Y-158366000D02*
X80021000Y-158473000D01*
X77192000Y-161301000D02*
X77086000Y-161408000D01*
X85474000Y-158632000D02*
X85079000Y-159028000D01*
X82813000Y-161294000D02*
X82433000Y-161674000D01*
X85208000Y-158366000D02*
X84828000Y-158746000D01*
X82562000Y-161012000D02*
X82167000Y-161408000D01*
X75900000Y-164880000D02*
X75900000Y-165620000D01*
X75900000Y-165620000D02*
X76400000Y-165620000D01*
G04 #@! TO.C,J4*
X93920000Y-66100000D02*
X99120000Y-66100000D01*
X93920000Y-43180000D02*
X93920000Y-66100000D01*
X99120000Y-40580000D02*
X99120000Y-66100000D01*
X93920000Y-43180000D02*
X96520000Y-43180000D01*
X96520000Y-43180000D02*
X96520000Y-40580000D01*
X96520000Y-40580000D02*
X99120000Y-40580000D01*
X93920000Y-41910000D02*
X93920000Y-40580000D01*
X93920000Y-40580000D02*
X95250000Y-40580000D01*
G04 #@! TO.C,J5*
X93920000Y-104080000D02*
X95250000Y-104080000D01*
X93920000Y-105410000D02*
X93920000Y-104080000D01*
X96520000Y-104080000D02*
X99120000Y-104080000D01*
X96520000Y-106680000D02*
X96520000Y-104080000D01*
X93920000Y-106680000D02*
X96520000Y-106680000D01*
X99120000Y-104080000D02*
X99120000Y-129600000D01*
X93920000Y-106680000D02*
X93920000Y-129600000D01*
X93920000Y-129600000D02*
X99120000Y-129600000D01*
G04 #@! TO.C,J6*
X105470000Y-152690000D02*
X105470000Y-151920000D01*
X105470000Y-150340000D02*
X105470000Y-149380000D01*
X105470000Y-147800000D02*
X105470000Y-147030000D01*
X100170000Y-152690000D02*
X100170000Y-147030000D01*
X99710000Y-152690000D02*
X99710000Y-147030000D01*
X106030000Y-152690000D02*
X106030000Y-151920000D01*
X106030000Y-150340000D02*
X106030000Y-149380000D01*
X106030000Y-147800000D02*
X106030000Y-147030000D01*
X99710000Y-152690000D02*
X106030000Y-152690000D01*
X99710000Y-147030000D02*
X106030000Y-147030000D01*
X105530000Y-152930000D02*
X106270000Y-152930000D01*
X106270000Y-152930000D02*
X106270000Y-152430000D01*
G04 #@! TO.C,J7*
X100306648Y-87108712D02*
G75*
G02X100110000Y-86320000I1483352J788712D01*
G01*
X102579088Y-87803953D02*
G75*
G02X101001000Y-87804000I-789088J1483953D01*
G01*
X103273953Y-85530912D02*
G75*
G02X103274000Y-87109000I-1483953J-789088D01*
G01*
X101000912Y-84836047D02*
G75*
G02X102579000Y-84836000I789088J-1483953D01*
G01*
X100109550Y-86349383D02*
G75*
G02X100306000Y-85531000I1680450J29383D01*
G01*
X103470000Y-91400000D02*
G75*
G03X103470000Y-91400000I-1680000J0D01*
G01*
X103470000Y-96480000D02*
G75*
G03X103470000Y-96480000I-1680000J0D01*
G01*
X97090000Y-83720000D02*
X97090000Y-99080000D01*
X99290000Y-83720000D02*
X99290000Y-99080000D01*
X105090000Y-83720000D02*
X105090000Y-99080000D01*
X107150000Y-83720000D02*
X107150000Y-99080000D01*
X96430000Y-83720000D02*
X96430000Y-99080000D01*
X107150000Y-83720000D02*
X96430000Y-83720000D01*
X107150000Y-99080000D02*
X96430000Y-99080000D01*
X106840000Y-85070000D02*
X106840000Y-87570000D01*
X106340000Y-85070000D02*
X106340000Y-87570000D01*
X106840000Y-85070000D02*
X106340000Y-85070000D01*
X106840000Y-87570000D02*
X106340000Y-87570000D01*
X102859000Y-92675000D02*
X102766000Y-92581000D01*
X100574000Y-90390000D02*
X100516000Y-90331000D01*
X103065000Y-92470000D02*
X103006000Y-92411000D01*
X100814000Y-90220000D02*
X100721000Y-90126000D01*
X106840000Y-90150000D02*
X106840000Y-92650000D01*
X106340000Y-90150000D02*
X106340000Y-92650000D01*
X106840000Y-90150000D02*
X106340000Y-90150000D01*
X106840000Y-92650000D02*
X106340000Y-92650000D01*
X102859000Y-97755000D02*
X102766000Y-97661000D01*
X100574000Y-95470000D02*
X100516000Y-95411000D01*
X103065000Y-97550000D02*
X103006000Y-97491000D01*
X100814000Y-95300000D02*
X100721000Y-95206000D01*
X106840000Y-95230000D02*
X106840000Y-97730000D01*
X106340000Y-95230000D02*
X106340000Y-97730000D01*
X106840000Y-95230000D02*
X106340000Y-95230000D01*
X106840000Y-97730000D02*
X106340000Y-97730000D01*
X97030000Y-83480000D02*
X96190000Y-83480000D01*
X96190000Y-83480000D02*
X96190000Y-84080000D01*
G04 #@! TO.C,J8*
X69050000Y-164555000D02*
X52410000Y-164555000D01*
X69050000Y-164555000D02*
X69050000Y-156850000D01*
X52410000Y-164555000D02*
X52410000Y-156850000D01*
X69050000Y-148675000D02*
X52410000Y-148675000D01*
X69050000Y-148675000D02*
X69050000Y-154350000D01*
X52410000Y-148675000D02*
X52410000Y-154350000D01*
X69290000Y-156990000D02*
X69790000Y-156490000D01*
X69790000Y-156490000D02*
X69790000Y-157490000D01*
X69790000Y-157490000D02*
X69290000Y-156990000D01*
G04 #@! TO.C,J9*
X82370000Y-39390000D02*
X82870000Y-39290000D01*
X81070000Y-39690000D02*
X82370000Y-39390000D01*
X79570000Y-39890000D02*
X81070000Y-39690000D01*
X78270000Y-39990000D02*
X79570000Y-39890000D01*
X76470000Y-39990000D02*
X78270000Y-39990000D01*
X75170000Y-39890000D02*
X76470000Y-39990000D01*
X74370000Y-39790000D02*
X75170000Y-39890000D01*
X72670000Y-39490000D02*
X74370000Y-39790000D01*
X71870000Y-39290000D02*
X72670000Y-39490000D01*
X72370000Y-38690000D02*
X82370000Y-38690000D01*
X71870000Y-40190000D02*
X71870000Y-39190000D01*
X82870000Y-40190000D02*
X82870000Y-39190000D01*
X70460000Y-40190000D02*
X84280000Y-40190000D01*
X84280000Y-54110000D02*
X70460000Y-54110000D01*
X84280000Y-51410000D02*
X84280000Y-54110000D01*
X84280000Y-40190000D02*
X84280000Y-40590000D01*
X84280000Y-43110000D02*
X84280000Y-48890000D01*
X70460000Y-51410000D02*
X70460000Y-54110000D01*
X70460000Y-43110000D02*
X70460000Y-48890000D01*
X70460000Y-40190000D02*
X70460000Y-40590000D01*
X82870000Y-39190000D02*
G75*
G03X82370000Y-38690000I-500000J0D01*
G01*
X72370000Y-38690000D02*
G75*
G03X71870000Y-39190000I0J-500000D01*
G01*
G04 #@! TO.C,J10*
X105720000Y-142590000D02*
X105720000Y-134270000D01*
X100620000Y-142590000D02*
X100620000Y-134270000D01*
X99500000Y-142590000D02*
X99500000Y-134270000D01*
X106240000Y-142590000D02*
X106240000Y-134270000D01*
X99500000Y-142590000D02*
X106240000Y-142590000D01*
X99500000Y-134270000D02*
X106240000Y-134270000D01*
X105840000Y-142830000D02*
X106480000Y-142830000D01*
X106480000Y-142830000D02*
X106480000Y-142430000D01*
G04 #@! TO.C,K1*
X68360000Y-92160000D02*
X68360000Y-98760000D01*
X68360000Y-83160000D02*
X68360000Y-89760000D01*
X68360000Y-83160000D02*
X88160000Y-83160000D01*
X88160000Y-83160000D02*
X88160000Y-98760000D01*
X88160000Y-98760000D02*
X68360000Y-98760000D01*
X83910000Y-95160000D02*
X83910000Y-92710000D01*
X83910000Y-86760000D02*
X83910000Y-89260000D01*
X73310000Y-97010000D02*
X75810000Y-97010000D01*
X72410000Y-91010000D02*
X71610000Y-91010000D01*
X75810000Y-85010000D02*
X73310000Y-85010000D01*
X79210000Y-91010000D02*
X80710000Y-91010000D01*
X80710000Y-91010000D02*
X85310000Y-88510000D01*
X79210000Y-94610000D02*
X72410000Y-94610000D01*
X79210000Y-91010000D02*
X79210000Y-94610000D01*
X72410000Y-91010000D02*
X72410000Y-94610000D01*
X75810000Y-85010000D02*
X75810000Y-89210000D01*
X75810000Y-92810000D02*
X75810000Y-97010000D01*
X77810000Y-92810000D02*
X73810000Y-89210000D01*
X73810000Y-92810000D02*
X73810000Y-89210000D01*
X73810000Y-89210000D02*
X77810000Y-89210000D01*
X77810000Y-89210000D02*
X77810000Y-92810000D01*
X77810000Y-92810000D02*
X73810000Y-92810000D01*
G04 #@! TO.C,Q1*
X70380000Y-108640000D02*
X66780000Y-108640000D01*
X70418478Y-108651522D02*
G75*
G02X68580000Y-113090000I-1838478J-1838478D01*
G01*
X66741522Y-108651522D02*
G75*
G03X68580000Y-113090000I1838478J-1838478D01*
G01*
G04 #@! TO.C,R1*
X78010000Y-109120000D02*
X78010000Y-111860000D01*
X78010000Y-111860000D02*
X84550000Y-111860000D01*
X84550000Y-111860000D02*
X84550000Y-109120000D01*
X84550000Y-109120000D02*
X78010000Y-109120000D01*
X77240000Y-110490000D02*
X78010000Y-110490000D01*
X85320000Y-110490000D02*
X84550000Y-110490000D01*
G04 #@! TO.C,U1*
X74890000Y-129445000D02*
X85130000Y-129445000D01*
X74890000Y-134086000D02*
X85130000Y-134086000D01*
X74890000Y-129445000D02*
X74890000Y-134086000D01*
X85130000Y-129445000D02*
X85130000Y-134086000D01*
X74890000Y-130955000D02*
X85130000Y-130955000D01*
X78160000Y-129445000D02*
X78160000Y-130955000D01*
X81861000Y-129445000D02*
X81861000Y-130955000D01*
D13*
G04 #@! TO.C,G\002A\002A\002A*
G36*
X67161055Y-63306258D02*
X67822778Y-63405104D01*
X67939241Y-63433368D01*
X69171148Y-63888989D01*
X70294016Y-64557811D01*
X71280563Y-65412552D01*
X72103508Y-66425932D01*
X72735571Y-67570668D01*
X73091631Y-68585758D01*
X73201782Y-69206237D01*
X73259684Y-69979982D01*
X73265337Y-70811689D01*
X73218741Y-71606055D01*
X73119895Y-72267778D01*
X73091631Y-72384241D01*
X72636010Y-73616148D01*
X71967188Y-74739016D01*
X71112447Y-75725563D01*
X70099067Y-76548508D01*
X68954331Y-77180571D01*
X67939241Y-77536631D01*
X67368886Y-77637240D01*
X66640449Y-77693428D01*
X65842795Y-77705330D01*
X65064790Y-77673082D01*
X64395300Y-77596823D01*
X64085223Y-77530703D01*
X62869594Y-77068820D01*
X61758056Y-76393382D01*
X60779337Y-75533397D01*
X59962165Y-74517871D01*
X59335267Y-73375812D01*
X58988368Y-72384241D01*
X58878217Y-71763762D01*
X58820315Y-70990017D01*
X58816863Y-70482132D01*
X60773995Y-70482132D01*
X61589361Y-71304811D01*
X62049846Y-71742315D01*
X62364849Y-71978010D01*
X62538784Y-72015140D01*
X62547129Y-72009307D01*
X62702555Y-72033715D01*
X63002567Y-72249939D01*
X63451848Y-72661606D01*
X63679470Y-72886905D01*
X64162566Y-73393988D01*
X64447990Y-73744752D01*
X64536991Y-73940825D01*
X64516398Y-73977253D01*
X64514129Y-74109372D01*
X64707048Y-74386459D01*
X65098266Y-74812844D01*
X65166273Y-74881910D01*
X65528997Y-75240576D01*
X65823240Y-75517887D01*
X66004970Y-75672964D01*
X66038839Y-75692000D01*
X66149150Y-75606969D01*
X66402508Y-75374030D01*
X66763902Y-75026413D01*
X67198320Y-74597348D01*
X67309418Y-74486084D01*
X68510320Y-73280168D01*
X66877192Y-71632394D01*
X66598994Y-71893748D01*
X66370175Y-72057803D01*
X66235195Y-72015784D01*
X66227715Y-72004495D01*
X66260750Y-71841796D01*
X66440174Y-71580720D01*
X66710376Y-71276874D01*
X67015747Y-70985871D01*
X67300676Y-70763320D01*
X67509553Y-70664830D01*
X67559495Y-70672715D01*
X67616700Y-70802109D01*
X67468684Y-71022483D01*
X67448748Y-71043994D01*
X67187394Y-71322192D01*
X68012130Y-72139598D01*
X68836867Y-72957004D01*
X70071435Y-71722435D01*
X71306004Y-70487867D01*
X70490638Y-69665188D01*
X70030153Y-69227684D01*
X69715150Y-68991989D01*
X69541215Y-68954859D01*
X69532870Y-68960692D01*
X69387260Y-68931254D01*
X69124833Y-68751831D01*
X68789480Y-68466443D01*
X68425092Y-68119110D01*
X68075559Y-67753852D01*
X67784773Y-67414689D01*
X67596625Y-67145641D01*
X67555006Y-66990729D01*
X67560888Y-66982911D01*
X67543044Y-66826384D01*
X67321962Y-66522852D01*
X66896686Y-66071017D01*
X66862719Y-66037244D01*
X66037132Y-65218995D01*
X64802564Y-66453564D01*
X63567995Y-67688132D01*
X64385401Y-68512869D01*
X65202807Y-69337605D01*
X65475342Y-69081572D01*
X65689897Y-68917614D01*
X65831971Y-68937597D01*
X65889982Y-68996765D01*
X65888045Y-69170457D01*
X65733650Y-69435255D01*
X65479499Y-69738792D01*
X65178295Y-70028704D01*
X64882741Y-70252625D01*
X64645539Y-70358190D01*
X64543459Y-70334659D01*
X64471412Y-70176828D01*
X64588936Y-69973181D01*
X64641691Y-69914892D01*
X64892605Y-69647807D01*
X64067869Y-68830401D01*
X63243132Y-68012995D01*
X62008564Y-69247564D01*
X60773995Y-70482132D01*
X58816863Y-70482132D01*
X58814662Y-70158310D01*
X58861258Y-69363944D01*
X58960104Y-68702221D01*
X58988368Y-68585758D01*
X59429439Y-67371832D01*
X60082462Y-66274070D01*
X60890354Y-65335354D01*
X61909346Y-64469824D01*
X63014828Y-63833611D01*
X64140758Y-63433368D01*
X64761237Y-63323217D01*
X65534982Y-63265315D01*
X66366689Y-63259662D01*
X67161055Y-63306258D01*
X67161055Y-63306258D01*
G37*
X67161055Y-63306258D02*
X67822778Y-63405104D01*
X67939241Y-63433368D01*
X69171148Y-63888989D01*
X70294016Y-64557811D01*
X71280563Y-65412552D01*
X72103508Y-66425932D01*
X72735571Y-67570668D01*
X73091631Y-68585758D01*
X73201782Y-69206237D01*
X73259684Y-69979982D01*
X73265337Y-70811689D01*
X73218741Y-71606055D01*
X73119895Y-72267778D01*
X73091631Y-72384241D01*
X72636010Y-73616148D01*
X71967188Y-74739016D01*
X71112447Y-75725563D01*
X70099067Y-76548508D01*
X68954331Y-77180571D01*
X67939241Y-77536631D01*
X67368886Y-77637240D01*
X66640449Y-77693428D01*
X65842795Y-77705330D01*
X65064790Y-77673082D01*
X64395300Y-77596823D01*
X64085223Y-77530703D01*
X62869594Y-77068820D01*
X61758056Y-76393382D01*
X60779337Y-75533397D01*
X59962165Y-74517871D01*
X59335267Y-73375812D01*
X58988368Y-72384241D01*
X58878217Y-71763762D01*
X58820315Y-70990017D01*
X58816863Y-70482132D01*
X60773995Y-70482132D01*
X61589361Y-71304811D01*
X62049846Y-71742315D01*
X62364849Y-71978010D01*
X62538784Y-72015140D01*
X62547129Y-72009307D01*
X62702555Y-72033715D01*
X63002567Y-72249939D01*
X63451848Y-72661606D01*
X63679470Y-72886905D01*
X64162566Y-73393988D01*
X64447990Y-73744752D01*
X64536991Y-73940825D01*
X64516398Y-73977253D01*
X64514129Y-74109372D01*
X64707048Y-74386459D01*
X65098266Y-74812844D01*
X65166273Y-74881910D01*
X65528997Y-75240576D01*
X65823240Y-75517887D01*
X66004970Y-75672964D01*
X66038839Y-75692000D01*
X66149150Y-75606969D01*
X66402508Y-75374030D01*
X66763902Y-75026413D01*
X67198320Y-74597348D01*
X67309418Y-74486084D01*
X68510320Y-73280168D01*
X66877192Y-71632394D01*
X66598994Y-71893748D01*
X66370175Y-72057803D01*
X66235195Y-72015784D01*
X66227715Y-72004495D01*
X66260750Y-71841796D01*
X66440174Y-71580720D01*
X66710376Y-71276874D01*
X67015747Y-70985871D01*
X67300676Y-70763320D01*
X67509553Y-70664830D01*
X67559495Y-70672715D01*
X67616700Y-70802109D01*
X67468684Y-71022483D01*
X67448748Y-71043994D01*
X67187394Y-71322192D01*
X68012130Y-72139598D01*
X68836867Y-72957004D01*
X70071435Y-71722435D01*
X71306004Y-70487867D01*
X70490638Y-69665188D01*
X70030153Y-69227684D01*
X69715150Y-68991989D01*
X69541215Y-68954859D01*
X69532870Y-68960692D01*
X69387260Y-68931254D01*
X69124833Y-68751831D01*
X68789480Y-68466443D01*
X68425092Y-68119110D01*
X68075559Y-67753852D01*
X67784773Y-67414689D01*
X67596625Y-67145641D01*
X67555006Y-66990729D01*
X67560888Y-66982911D01*
X67543044Y-66826384D01*
X67321962Y-66522852D01*
X66896686Y-66071017D01*
X66862719Y-66037244D01*
X66037132Y-65218995D01*
X64802564Y-66453564D01*
X63567995Y-67688132D01*
X64385401Y-68512869D01*
X65202807Y-69337605D01*
X65475342Y-69081572D01*
X65689897Y-68917614D01*
X65831971Y-68937597D01*
X65889982Y-68996765D01*
X65888045Y-69170457D01*
X65733650Y-69435255D01*
X65479499Y-69738792D01*
X65178295Y-70028704D01*
X64882741Y-70252625D01*
X64645539Y-70358190D01*
X64543459Y-70334659D01*
X64471412Y-70176828D01*
X64588936Y-69973181D01*
X64641691Y-69914892D01*
X64892605Y-69647807D01*
X64067869Y-68830401D01*
X63243132Y-68012995D01*
X62008564Y-69247564D01*
X60773995Y-70482132D01*
X58816863Y-70482132D01*
X58814662Y-70158310D01*
X58861258Y-69363944D01*
X58960104Y-68702221D01*
X58988368Y-68585758D01*
X59429439Y-67371832D01*
X60082462Y-66274070D01*
X60890354Y-65335354D01*
X61909346Y-64469824D01*
X63014828Y-63833611D01*
X64140758Y-63433368D01*
X64761237Y-63323217D01*
X65534982Y-63265315D01*
X66366689Y-63259662D01*
X67161055Y-63306258D01*
G04 #@! TO.C,C1*
D14*
X77283333Y-142002142D02*
X77235714Y-142049761D01*
X77092857Y-142097380D01*
X76997619Y-142097380D01*
X76854761Y-142049761D01*
X76759523Y-141954523D01*
X76711904Y-141859285D01*
X76664285Y-141668809D01*
X76664285Y-141525952D01*
X76711904Y-141335476D01*
X76759523Y-141240238D01*
X76854761Y-141145000D01*
X76997619Y-141097380D01*
X77092857Y-141097380D01*
X77235714Y-141145000D01*
X77283333Y-141192619D01*
X78235714Y-142097380D02*
X77664285Y-142097380D01*
X77950000Y-142097380D02*
X77950000Y-141097380D01*
X77854761Y-141240238D01*
X77759523Y-141335476D01*
X77664285Y-141383095D01*
G04 #@! TO.C,C2*
X84943333Y-147002142D02*
X84895714Y-147049761D01*
X84752857Y-147097380D01*
X84657619Y-147097380D01*
X84514761Y-147049761D01*
X84419523Y-146954523D01*
X84371904Y-146859285D01*
X84324285Y-146668809D01*
X84324285Y-146525952D01*
X84371904Y-146335476D01*
X84419523Y-146240238D01*
X84514761Y-146145000D01*
X84657619Y-146097380D01*
X84752857Y-146097380D01*
X84895714Y-146145000D01*
X84943333Y-146192619D01*
X85324285Y-146192619D02*
X85371904Y-146145000D01*
X85467142Y-146097380D01*
X85705238Y-146097380D01*
X85800476Y-146145000D01*
X85848095Y-146192619D01*
X85895714Y-146287857D01*
X85895714Y-146383095D01*
X85848095Y-146525952D01*
X85276666Y-147097380D01*
X85895714Y-147097380D01*
G04 #@! TO.C,D1*
X90692380Y-150598095D02*
X89692380Y-150598095D01*
X89692380Y-150360000D01*
X89740000Y-150217142D01*
X89835238Y-150121904D01*
X89930476Y-150074285D01*
X90120952Y-150026666D01*
X90263809Y-150026666D01*
X90454285Y-150074285D01*
X90549523Y-150121904D01*
X90644761Y-150217142D01*
X90692380Y-150360000D01*
X90692380Y-150598095D01*
X90692380Y-149074285D02*
X90692380Y-149645714D01*
X90692380Y-149360000D02*
X89692380Y-149360000D01*
X89835238Y-149455238D01*
X89930476Y-149550476D01*
X89978095Y-149645714D01*
X91062380Y-155201904D02*
X90062380Y-155201904D01*
X91062380Y-154630476D02*
X90490952Y-155059047D01*
X90062380Y-154630476D02*
X90633809Y-155201904D01*
G04 #@! TO.C,D2*
X80541904Y-149112380D02*
X80541904Y-148112380D01*
X80780000Y-148112380D01*
X80922857Y-148160000D01*
X81018095Y-148255238D01*
X81065714Y-148350476D01*
X81113333Y-148540952D01*
X81113333Y-148683809D01*
X81065714Y-148874285D01*
X81018095Y-148969523D01*
X80922857Y-149064761D01*
X80780000Y-149112380D01*
X80541904Y-149112380D01*
X81494285Y-148207619D02*
X81541904Y-148160000D01*
X81637142Y-148112380D01*
X81875238Y-148112380D01*
X81970476Y-148160000D01*
X82018095Y-148207619D01*
X82065714Y-148302857D01*
X82065714Y-148398095D01*
X82018095Y-148540952D01*
X81446666Y-149112380D01*
X82065714Y-149112380D01*
X75938095Y-149482380D02*
X75938095Y-148482380D01*
X76509523Y-149482380D02*
X76080952Y-148910952D01*
X76509523Y-148482380D02*
X75938095Y-149053809D01*
G04 #@! TO.C,J1*
X53006666Y-39032380D02*
X53006666Y-39746666D01*
X52959047Y-39889523D01*
X52863809Y-39984761D01*
X52720952Y-40032380D01*
X52625714Y-40032380D01*
X54006666Y-40032380D02*
X53435238Y-40032380D01*
X53720952Y-40032380D02*
X53720952Y-39032380D01*
X53625714Y-39175238D01*
X53530476Y-39270476D01*
X53435238Y-39318095D01*
G04 #@! TO.C,J2*
X53006666Y-102532380D02*
X53006666Y-103246666D01*
X52959047Y-103389523D01*
X52863809Y-103484761D01*
X52720952Y-103532380D01*
X52625714Y-103532380D01*
X53435238Y-102627619D02*
X53482857Y-102580000D01*
X53578095Y-102532380D01*
X53816190Y-102532380D01*
X53911428Y-102580000D01*
X53959047Y-102627619D01*
X54006666Y-102722857D01*
X54006666Y-102818095D01*
X53959047Y-102960952D01*
X53387619Y-103532380D01*
X54006666Y-103532380D01*
G04 #@! TO.C,J3*
X80946666Y-152512380D02*
X80946666Y-153226666D01*
X80899047Y-153369523D01*
X80803809Y-153464761D01*
X80660952Y-153512380D01*
X80565714Y-153512380D01*
X81327619Y-152512380D02*
X81946666Y-152512380D01*
X81613333Y-152893333D01*
X81756190Y-152893333D01*
X81851428Y-152940952D01*
X81899047Y-152988571D01*
X81946666Y-153083809D01*
X81946666Y-153321904D01*
X81899047Y-153417142D01*
X81851428Y-153464761D01*
X81756190Y-153512380D01*
X81470476Y-153512380D01*
X81375238Y-153464761D01*
X81327619Y-153417142D01*
G04 #@! TO.C,J4*
X96186666Y-39032380D02*
X96186666Y-39746666D01*
X96139047Y-39889523D01*
X96043809Y-39984761D01*
X95900952Y-40032380D01*
X95805714Y-40032380D01*
X97091428Y-39365714D02*
X97091428Y-40032380D01*
X96853333Y-38984761D02*
X96615238Y-39699047D01*
X97234285Y-39699047D01*
G04 #@! TO.C,J5*
X96186666Y-102532380D02*
X96186666Y-103246666D01*
X96139047Y-103389523D01*
X96043809Y-103484761D01*
X95900952Y-103532380D01*
X95805714Y-103532380D01*
X97139047Y-102532380D02*
X96662857Y-102532380D01*
X96615238Y-103008571D01*
X96662857Y-102960952D01*
X96758095Y-102913333D01*
X96996190Y-102913333D01*
X97091428Y-102960952D01*
X97139047Y-103008571D01*
X97186666Y-103103809D01*
X97186666Y-103341904D01*
X97139047Y-103437142D01*
X97091428Y-103484761D01*
X96996190Y-103532380D01*
X96758095Y-103532380D01*
X96662857Y-103484761D01*
X96615238Y-103437142D01*
G04 #@! TO.C,J6*
X98162380Y-150193333D02*
X98876666Y-150193333D01*
X99019523Y-150240952D01*
X99114761Y-150336190D01*
X99162380Y-150479047D01*
X99162380Y-150574285D01*
X98162380Y-149288571D02*
X98162380Y-149479047D01*
X98210000Y-149574285D01*
X98257619Y-149621904D01*
X98400476Y-149717142D01*
X98590952Y-149764761D01*
X98971904Y-149764761D01*
X99067142Y-149717142D01*
X99114761Y-149669523D01*
X99162380Y-149574285D01*
X99162380Y-149383809D01*
X99114761Y-149288571D01*
X99067142Y-149240952D01*
X98971904Y-149193333D01*
X98733809Y-149193333D01*
X98638571Y-149240952D01*
X98590952Y-149288571D01*
X98543333Y-149383809D01*
X98543333Y-149574285D01*
X98590952Y-149669523D01*
X98638571Y-149717142D01*
X98733809Y-149764761D01*
G04 #@! TO.C,J7*
X107602380Y-91733333D02*
X108316666Y-91733333D01*
X108459523Y-91780952D01*
X108554761Y-91876190D01*
X108602380Y-92019047D01*
X108602380Y-92114285D01*
X107602380Y-91352380D02*
X107602380Y-90685714D01*
X108602380Y-91114285D01*
G04 #@! TO.C,J8*
X60396666Y-165442380D02*
X60396666Y-166156666D01*
X60349047Y-166299523D01*
X60253809Y-166394761D01*
X60110952Y-166442380D01*
X60015714Y-166442380D01*
X61015714Y-165870952D02*
X60920476Y-165823333D01*
X60872857Y-165775714D01*
X60825238Y-165680476D01*
X60825238Y-165632857D01*
X60872857Y-165537619D01*
X60920476Y-165490000D01*
X61015714Y-165442380D01*
X61206190Y-165442380D01*
X61301428Y-165490000D01*
X61349047Y-165537619D01*
X61396666Y-165632857D01*
X61396666Y-165680476D01*
X61349047Y-165775714D01*
X61301428Y-165823333D01*
X61206190Y-165870952D01*
X61015714Y-165870952D01*
X60920476Y-165918571D01*
X60872857Y-165966190D01*
X60825238Y-166061428D01*
X60825238Y-166251904D01*
X60872857Y-166347142D01*
X60920476Y-166394761D01*
X61015714Y-166442380D01*
X61206190Y-166442380D01*
X61301428Y-166394761D01*
X61349047Y-166347142D01*
X61396666Y-166251904D01*
X61396666Y-166061428D01*
X61349047Y-165966190D01*
X61301428Y-165918571D01*
X61206190Y-165870952D01*
G04 #@! TO.C,J9*
X77036666Y-37462380D02*
X77036666Y-38176666D01*
X76989047Y-38319523D01*
X76893809Y-38414761D01*
X76750952Y-38462380D01*
X76655714Y-38462380D01*
X77560476Y-38462380D02*
X77750952Y-38462380D01*
X77846190Y-38414761D01*
X77893809Y-38367142D01*
X77989047Y-38224285D01*
X78036666Y-38033809D01*
X78036666Y-37652857D01*
X77989047Y-37557619D01*
X77941428Y-37510000D01*
X77846190Y-37462380D01*
X77655714Y-37462380D01*
X77560476Y-37510000D01*
X77512857Y-37557619D01*
X77465238Y-37652857D01*
X77465238Y-37890952D01*
X77512857Y-37986190D01*
X77560476Y-38033809D01*
X77655714Y-38081428D01*
X77846190Y-38081428D01*
X77941428Y-38033809D01*
X77989047Y-37986190D01*
X78036666Y-37890952D01*
G04 #@! TO.C,J10*
X97952380Y-139239523D02*
X98666666Y-139239523D01*
X98809523Y-139287142D01*
X98904761Y-139382380D01*
X98952380Y-139525238D01*
X98952380Y-139620476D01*
X98952380Y-138239523D02*
X98952380Y-138810952D01*
X98952380Y-138525238D02*
X97952380Y-138525238D01*
X98095238Y-138620476D01*
X98190476Y-138715714D01*
X98238095Y-138810952D01*
X97952380Y-137620476D02*
X97952380Y-137525238D01*
X98000000Y-137430000D01*
X98047619Y-137382380D01*
X98142857Y-137334761D01*
X98333333Y-137287142D01*
X98571428Y-137287142D01*
X98761904Y-137334761D01*
X98857142Y-137382380D01*
X98904761Y-137430000D01*
X98952380Y-137525238D01*
X98952380Y-137620476D01*
X98904761Y-137715714D01*
X98857142Y-137763333D01*
X98761904Y-137810952D01*
X98571428Y-137858571D01*
X98333333Y-137858571D01*
X98142857Y-137810952D01*
X98047619Y-137763333D01*
X98000000Y-137715714D01*
X97952380Y-137620476D01*
G04 #@! TO.C,K1*
X77121904Y-100612380D02*
X77121904Y-99612380D01*
X77693333Y-100612380D02*
X77264761Y-100040952D01*
X77693333Y-99612380D02*
X77121904Y-100183809D01*
X78645714Y-100612380D02*
X78074285Y-100612380D01*
X78360000Y-100612380D02*
X78360000Y-99612380D01*
X78264761Y-99755238D01*
X78169523Y-99850476D01*
X78074285Y-99898095D01*
G04 #@! TO.C,Q1*
X68484761Y-114597619D02*
X68389523Y-114550000D01*
X68294285Y-114454761D01*
X68151428Y-114311904D01*
X68056190Y-114264285D01*
X67960952Y-114264285D01*
X68008571Y-114502380D02*
X67913333Y-114454761D01*
X67818095Y-114359523D01*
X67770476Y-114169047D01*
X67770476Y-113835714D01*
X67818095Y-113645238D01*
X67913333Y-113550000D01*
X68008571Y-113502380D01*
X68199047Y-113502380D01*
X68294285Y-113550000D01*
X68389523Y-113645238D01*
X68437142Y-113835714D01*
X68437142Y-114169047D01*
X68389523Y-114359523D01*
X68294285Y-114454761D01*
X68199047Y-114502380D01*
X68008571Y-114502380D01*
X69389523Y-114502380D02*
X68818095Y-114502380D01*
X69103809Y-114502380D02*
X69103809Y-113502380D01*
X69008571Y-113645238D01*
X68913333Y-113740476D01*
X68818095Y-113788095D01*
G04 #@! TO.C,R1*
X81113333Y-108572380D02*
X80780000Y-108096190D01*
X80541904Y-108572380D02*
X80541904Y-107572380D01*
X80922857Y-107572380D01*
X81018095Y-107620000D01*
X81065714Y-107667619D01*
X81113333Y-107762857D01*
X81113333Y-107905714D01*
X81065714Y-108000952D01*
X81018095Y-108048571D01*
X80922857Y-108096190D01*
X80541904Y-108096190D01*
X82065714Y-108572380D02*
X81494285Y-108572380D01*
X81780000Y-108572380D02*
X81780000Y-107572380D01*
X81684761Y-107715238D01*
X81589523Y-107810476D01*
X81494285Y-107858095D01*
G04 #@! TO.C,U1*
X79248095Y-127897380D02*
X79248095Y-128706904D01*
X79295714Y-128802142D01*
X79343333Y-128849761D01*
X79438571Y-128897380D01*
X79629047Y-128897380D01*
X79724285Y-128849761D01*
X79771904Y-128802142D01*
X79819523Y-128706904D01*
X79819523Y-127897380D01*
X80819523Y-128897380D02*
X80248095Y-128897380D01*
X80533809Y-128897380D02*
X80533809Y-127897380D01*
X80438571Y-128040238D01*
X80343333Y-128135476D01*
X80248095Y-128183095D01*
G04 #@! TD*
M02*
