G04 #@! TF.GenerationSoftware,KiCad,Pcbnew,(5.1.12-1-10_14)*
G04 #@! TF.CreationDate,2021-11-28T16:28:55+00:00*
G04 #@! TF.ProjectId,acnode-doorbot,61636e6f-6465-42d6-946f-6f72626f742e,rev?*
G04 #@! TF.SameCoordinates,Original*
G04 #@! TF.FileFunction,Soldermask,Bot*
G04 #@! TF.FilePolarity,Negative*
%FSLAX46Y46*%
G04 Gerber Fmt 4.6, Leading zero omitted, Abs format (unit mm)*
G04 Created by KiCad (PCBNEW (5.1.12-1-10_14)) date 2021-11-28 16:28:55*
%MOMM*%
%LPD*%
G01*
G04 APERTURE LIST*
%ADD10C,1.600000*%
%ADD11R,2.200000X2.200000*%
%ADD12O,2.200000X2.200000*%
%ADD13R,1.700000X1.700000*%
%ADD14O,1.700000X1.700000*%
%ADD15R,2.600000X2.600000*%
%ADD16C,2.600000*%
%ADD17C,1.100000*%
%ADD18C,2.200000*%
%ADD19R,2.500000X2.500000*%
%ADD20C,2.500000*%
%ADD21R,1.500000X1.500000*%
%ADD22C,1.500000*%
%ADD23C,3.250000*%
%ADD24C,2.000000*%
%ADD25R,2.100000X2.100000*%
%ADD26C,2.100000*%
%ADD27C,3.000000*%
%ADD28O,1.050000X1.500000*%
%ADD29R,1.050000X1.500000*%
%ADD30O,1.600000X1.600000*%
%ADD31R,1.905000X2.000000*%
%ADD32O,1.905000X2.000000*%
%ADD33C,0.100000*%
G04 APERTURE END LIST*
D10*
X76200000Y-144145000D03*
X78700000Y-144145000D03*
X83860000Y-144145000D03*
X86360000Y-144145000D03*
D11*
X92710000Y-154940000D03*
D12*
X92710000Y-144780000D03*
X86360000Y-151130000D03*
D11*
X76200000Y-151130000D03*
D13*
X52070000Y-41910000D03*
D14*
X54610000Y-41910000D03*
X52070000Y-44450000D03*
X54610000Y-44450000D03*
X52070000Y-46990000D03*
X54610000Y-46990000D03*
X52070000Y-49530000D03*
X54610000Y-49530000D03*
X52070000Y-52070000D03*
X54610000Y-52070000D03*
X52070000Y-54610000D03*
X54610000Y-54610000D03*
X52070000Y-57150000D03*
X54610000Y-57150000D03*
X52070000Y-59690000D03*
X54610000Y-59690000D03*
X52070000Y-62230000D03*
X54610000Y-62230000D03*
X52070000Y-64770000D03*
X54610000Y-64770000D03*
X54610000Y-128270000D03*
X52070000Y-128270000D03*
X54610000Y-125730000D03*
X52070000Y-125730000D03*
X54610000Y-123190000D03*
X52070000Y-123190000D03*
X54610000Y-120650000D03*
X52070000Y-120650000D03*
X54610000Y-118110000D03*
X52070000Y-118110000D03*
X54610000Y-115570000D03*
X52070000Y-115570000D03*
X54610000Y-113030000D03*
X52070000Y-113030000D03*
X54610000Y-110490000D03*
X52070000Y-110490000D03*
X54610000Y-107950000D03*
X52070000Y-107950000D03*
X54610000Y-105410000D03*
D13*
X52070000Y-105410000D03*
D15*
X78740000Y-160020000D03*
D16*
X83820000Y-160020000D03*
D13*
X95250000Y-41910000D03*
D14*
X97790000Y-41910000D03*
X95250000Y-44450000D03*
X97790000Y-44450000D03*
X95250000Y-46990000D03*
X97790000Y-46990000D03*
X95250000Y-49530000D03*
X97790000Y-49530000D03*
X95250000Y-52070000D03*
X97790000Y-52070000D03*
X95250000Y-54610000D03*
X97790000Y-54610000D03*
X95250000Y-57150000D03*
X97790000Y-57150000D03*
X95250000Y-59690000D03*
X97790000Y-59690000D03*
X95250000Y-62230000D03*
X97790000Y-62230000D03*
X95250000Y-64770000D03*
X97790000Y-64770000D03*
X97790000Y-128270000D03*
X95250000Y-128270000D03*
X97790000Y-125730000D03*
X95250000Y-125730000D03*
X97790000Y-123190000D03*
X95250000Y-123190000D03*
X97790000Y-120650000D03*
X95250000Y-120650000D03*
X97790000Y-118110000D03*
X95250000Y-118110000D03*
X97790000Y-115570000D03*
X95250000Y-115570000D03*
X97790000Y-113030000D03*
X95250000Y-113030000D03*
X97790000Y-110490000D03*
X95250000Y-110490000D03*
X97790000Y-107950000D03*
X95250000Y-107950000D03*
X97790000Y-105410000D03*
D13*
X95250000Y-105410000D03*
D11*
X102870000Y-151130000D03*
D17*
X105410000Y-151130000D03*
D18*
X102870000Y-148590000D03*
D17*
X105410000Y-148590000D03*
D19*
X101790000Y-86320000D03*
D20*
X101790000Y-91400000D03*
X101790000Y-96480000D03*
D21*
X64290000Y-156490000D03*
D22*
X62250000Y-156490000D03*
X60210000Y-156490000D03*
X58170000Y-156490000D03*
X63270000Y-154710000D03*
X61230000Y-154710000D03*
X59190000Y-154710000D03*
X57150000Y-154710000D03*
D23*
X67080000Y-159030000D03*
X54380000Y-159030000D03*
D24*
X52600000Y-155600000D03*
X68860000Y-155600000D03*
D25*
X102870000Y-140970000D03*
D26*
X102870000Y-138430000D03*
X102870000Y-135890000D03*
D20*
X71710000Y-97010000D03*
D27*
X83910000Y-97010000D03*
X83960000Y-84960000D03*
D20*
X71710000Y-85010000D03*
D27*
X69760000Y-90960000D03*
D28*
X68580000Y-110490000D03*
X67310000Y-110490000D03*
D29*
X69850000Y-110490000D03*
D10*
X76200000Y-110490000D03*
D30*
X86360000Y-110490000D03*
D31*
X77470000Y-132715000D03*
D32*
X80010000Y-132715000D03*
X82550000Y-132715000D03*
D33*
G36*
X69326084Y-110078793D02*
G01*
X69327000Y-110080474D01*
X69327000Y-110899526D01*
X69326000Y-110901258D01*
X69324000Y-110901258D01*
X69323010Y-110899722D01*
X69320628Y-110875535D01*
X69313628Y-110852460D01*
X69302263Y-110831196D01*
X69286968Y-110812559D01*
X69268331Y-110797264D01*
X69247067Y-110785899D01*
X69223992Y-110778899D01*
X69200001Y-110776536D01*
X69176010Y-110778899D01*
X69152935Y-110785899D01*
X69131671Y-110797264D01*
X69113034Y-110812559D01*
X69097739Y-110831196D01*
X69086281Y-110852634D01*
X69084582Y-110853690D01*
X69082819Y-110852747D01*
X69082603Y-110851110D01*
X69092942Y-110817027D01*
X69103000Y-110714906D01*
X69103000Y-110265095D01*
X69092942Y-110162973D01*
X69080821Y-110123017D01*
X69081275Y-110121069D01*
X69083189Y-110120488D01*
X69084583Y-110121671D01*
X69091534Y-110138451D01*
X69104929Y-110158498D01*
X69121976Y-110175545D01*
X69142023Y-110188940D01*
X69164297Y-110198166D01*
X69187947Y-110202871D01*
X69212053Y-110202871D01*
X69235704Y-110198167D01*
X69257978Y-110188941D01*
X69278025Y-110175546D01*
X69295072Y-110158499D01*
X69308467Y-110138452D01*
X69317693Y-110116178D01*
X69322407Y-110092482D01*
X69323002Y-110080376D01*
X69324086Y-110078695D01*
X69326084Y-110078793D01*
G37*
G36*
X68066247Y-110164278D02*
G01*
X68066777Y-110165841D01*
X68057000Y-110265094D01*
X68057000Y-110714906D01*
X68066776Y-110814154D01*
X68065951Y-110815976D01*
X68063961Y-110816172D01*
X68062873Y-110814933D01*
X68062733Y-110814473D01*
X68053466Y-110792103D01*
X68040072Y-110772056D01*
X68023025Y-110755009D01*
X68002977Y-110741614D01*
X67980704Y-110732388D01*
X67957053Y-110727683D01*
X67932947Y-110727683D01*
X67909297Y-110732387D01*
X67887023Y-110741614D01*
X67866976Y-110755008D01*
X67849929Y-110772055D01*
X67836534Y-110792103D01*
X67827267Y-110814473D01*
X67827129Y-110814929D01*
X67825670Y-110816297D01*
X67823756Y-110815718D01*
X67823225Y-110814154D01*
X67833000Y-110714906D01*
X67833000Y-110265095D01*
X67823225Y-110165846D01*
X67824050Y-110164024D01*
X67826040Y-110163828D01*
X67827129Y-110165071D01*
X67827267Y-110165527D01*
X67836533Y-110187897D01*
X67849928Y-110207944D01*
X67866975Y-110224991D01*
X67887022Y-110238386D01*
X67909296Y-110247612D01*
X67932946Y-110252317D01*
X67957052Y-110252317D01*
X67980703Y-110247613D01*
X68002977Y-110238387D01*
X68023024Y-110224992D01*
X68040071Y-110207945D01*
X68053466Y-110187898D01*
X68062731Y-110165532D01*
X68062873Y-110165064D01*
X68064333Y-110163697D01*
X68066247Y-110164278D01*
G37*
M02*
