M48
; DRILL file {KiCad (5.1.12-1-10_14)} date Sunday, 28 November 2021 at 16:29:20
; FORMAT={-:-/ absolute / metric / decimal}
; #@! TF.CreationDate,2021-11-28T16:29:20+00:00
; #@! TF.GenerationSoftware,Kicad,Pcbnew,(5.1.12-1-10_14)
; #@! TF.FileFunction,Plated,1,2,PTH
FMAT,2
METRIC
T1C0.400
T2C0.750
T3C0.800
T4C0.890
T5C1.000
T6C1.100
T7C1.300
T8C1.570
%
G90
G05
T1
X57.785Y-119.761
X58.42Y-163.83
X60.071Y-119.761
X62.23Y-124.46
X63.5Y-120.65
X64.77Y-124.46
X65.02Y-131.74
X68.58Y-120.65
X72.39Y-43.18
X72.39Y-163.83
X72.86Y-127.98
X73.75Y-121.15
X73.75Y-125.38
X78.31Y-129.06
X78.74Y-41.91
X80.01Y-68.58
X80.01Y-74.93
X81.28Y-41.91
X83.82Y-125.73
X88.56Y-163.85
X88.62Y-126.77
X91.44Y-54.61
X91.44Y-57.15
T2
X67.31Y-110.49
X68.58Y-110.49
X69.85Y-110.49
T3
X76.2Y-110.49
X76.2Y-144.145
X78.7Y-144.145
X83.86Y-144.145
X86.36Y-110.49
X86.36Y-144.145
T4
X57.15Y-154.71
X58.17Y-156.49
X59.19Y-154.71
X60.21Y-156.49
X61.23Y-154.71
X62.25Y-156.49
X63.27Y-154.71
X64.29Y-156.49
T5
X52.07Y-41.91
X52.07Y-44.45
X52.07Y-46.99
X52.07Y-49.53
X52.07Y-52.07
X52.07Y-54.61
X52.07Y-57.15
X52.07Y-59.69
X52.07Y-62.23
X52.07Y-64.77
X52.07Y-105.41
X52.07Y-107.95
X52.07Y-110.49
X52.07Y-113.03
X52.07Y-115.57
X52.07Y-118.11
X52.07Y-120.65
X52.07Y-123.19
X52.07Y-125.73
X52.07Y-128.27
X54.61Y-41.91
X54.61Y-44.45
X54.61Y-46.99
X54.61Y-49.53
X54.61Y-52.07
X54.61Y-54.61
X54.61Y-57.15
X54.61Y-59.69
X54.61Y-62.23
X54.61Y-64.77
X54.61Y-105.41
X54.61Y-107.95
X54.61Y-110.49
X54.61Y-113.03
X54.61Y-115.57
X54.61Y-118.11
X54.61Y-120.65
X54.61Y-123.19
X54.61Y-125.73
X54.61Y-128.27
X71.71Y-85.01
X71.71Y-97.01
X95.25Y-41.91
X95.25Y-44.45
X95.25Y-46.99
X95.25Y-49.53
X95.25Y-52.07
X95.25Y-54.61
X95.25Y-57.15
X95.25Y-59.69
X95.25Y-62.23
X95.25Y-64.77
X95.25Y-105.41
X95.25Y-107.95
X95.25Y-110.49
X95.25Y-113.03
X95.25Y-115.57
X95.25Y-118.11
X95.25Y-120.65
X95.25Y-123.19
X95.25Y-125.73
X95.25Y-128.27
X97.79Y-41.91
X97.79Y-44.45
X97.79Y-46.99
X97.79Y-49.53
X97.79Y-52.07
X97.79Y-54.61
X97.79Y-57.15
X97.79Y-59.69
X97.79Y-62.23
X97.79Y-64.77
X97.79Y-105.41
X97.79Y-107.95
X97.79Y-110.49
X97.79Y-113.03
X97.79Y-115.57
X97.79Y-118.11
X97.79Y-120.65
X97.79Y-123.19
X97.79Y-125.73
X97.79Y-128.27
T6
X76.2Y-151.13
X77.47Y-132.715
X80.01Y-132.715
X82.55Y-132.715
X86.36Y-151.13
X92.71Y-144.78
X92.71Y-154.94
X102.87Y-135.89
X102.87Y-138.43
X102.87Y-140.97
X102.87Y-148.59
X102.87Y-151.13
T7
X69.76Y-90.96
X78.74Y-160.02
X83.82Y-160.02
X83.91Y-97.01
X83.96Y-84.96
X101.79Y-86.32
X101.79Y-91.4
X101.79Y-96.48
T8
X52.6Y-155.6
X68.86Y-155.6
T0
M30
