%TF.GenerationSoftware,KiCad,Pcbnew,5.1.6-1.fc32*%
%TF.CreationDate,2021-02-06T17:56:30+01:00*%
%TF.ProjectId,New-New-ACNode-Shield,4e65772d-4e65-4772-9d41-434e6f64652d,rev?*%
%TF.SameCoordinates,Original*%
%TF.FileFunction,Copper,L1,Top*%
%TF.FilePolarity,Positive*%
%FSLAX46Y46*%
G04 Gerber Fmt 4.6, Leading zero omitted, Abs format (unit mm)*
G04 Created by KiCad (PCBNEW 5.1.6-1.fc32) date 2021-02-06 17:56:30*
%MOMM*%
%LPD*%
G01*
G04 APERTURE LIST*
%TA.AperFunction,ComponentPad*%
%ADD10C,1.524000*%
%TD*%
%TA.AperFunction,ComponentPad*%
%ADD11C,3.000000*%
%TD*%
%TA.AperFunction,ComponentPad*%
%ADD12C,2.500000*%
%TD*%
%TA.AperFunction,SMDPad,CuDef*%
%ADD13R,1.500000X2.000000*%
%TD*%
%TA.AperFunction,SMDPad,CuDef*%
%ADD14R,3.800000X2.000000*%
%TD*%
%TA.AperFunction,SMDPad,CuDef*%
%ADD15R,1.000000X0.800000*%
%TD*%
%TA.AperFunction,ComponentPad*%
%ADD16C,2.000000*%
%TD*%
%TA.AperFunction,SMDPad,CuDef*%
%ADD17R,0.800000X0.900000*%
%TD*%
%TA.AperFunction,SMDPad,CuDef*%
%ADD18R,0.900000X0.800000*%
%TD*%
%TA.AperFunction,ComponentPad*%
%ADD19C,1.900000*%
%TD*%
%TA.AperFunction,ComponentPad*%
%ADD20O,1.700000X1.700000*%
%TD*%
%TA.AperFunction,ComponentPad*%
%ADD21R,1.700000X1.700000*%
%TD*%
%TA.AperFunction,ComponentPad*%
%ADD22C,2.540000*%
%TD*%
%TA.AperFunction,ComponentPad*%
%ADD23C,1.500000*%
%TD*%
%TA.AperFunction,ComponentPad*%
%ADD24R,1.500000X1.500000*%
%TD*%
%TA.AperFunction,ComponentPad*%
%ADD25O,1.600000X1.600000*%
%TD*%
%TA.AperFunction,ComponentPad*%
%ADD26R,1.600000X1.600000*%
%TD*%
%TA.AperFunction,SMDPad,CuDef*%
%ADD27R,0.900000X1.500000*%
%TD*%
%TA.AperFunction,ViaPad*%
%ADD28C,0.800000*%
%TD*%
%TA.AperFunction,Conductor*%
%ADD29C,1.000000*%
%TD*%
%TA.AperFunction,Conductor*%
%ADD30C,0.500000*%
%TD*%
%TA.AperFunction,Conductor*%
%ADD31C,0.250000*%
%TD*%
%TA.AperFunction,Conductor*%
%ADD32C,2.000000*%
%TD*%
%TA.AperFunction,Conductor*%
%ADD33C,0.200000*%
%TD*%
%TA.AperFunction,Conductor*%
%ADD34C,0.254000*%
%TD*%
G04 APERTURE END LIST*
D10*
%TO.P,U2,80*%
%TO.N,/~DoorRelease*%
X170180000Y-132080000D03*
%TO.P,U2,79*%
%TO.N,N/C*%
X167640000Y-132080000D03*
%TO.P,U2,40*%
X127000000Y-132080000D03*
%TO.P,U2,39*%
X124460000Y-132080000D03*
%TO.P,U2,78*%
X170180000Y-129540000D03*
%TO.P,U2,77*%
X167640000Y-129540000D03*
%TO.P,U2,76*%
X170180000Y-127000000D03*
%TO.P,U2,75*%
X167640000Y-127000000D03*
%TO.P,U2,74*%
X170180000Y-124460000D03*
%TO.P,U2,73*%
X167640000Y-124460000D03*
%TO.P,U2,72*%
X170180000Y-121920000D03*
%TO.P,U2,71*%
%TO.N,/LED_B_Trigger*%
X167640000Y-121920000D03*
%TO.P,U2,70*%
%TO.N,N/C*%
X170180000Y-119380000D03*
%TO.P,U2,69*%
%TO.N,/LED_G_Trigger*%
X167640000Y-119380000D03*
%TO.P,U2,68*%
%TO.N,N/C*%
X170180000Y-116840000D03*
%TO.P,U2,67*%
%TO.N,/LED_R_Trigger*%
X167640000Y-116840000D03*
%TO.P,U2,66*%
%TO.N,N/C*%
X170180000Y-114300000D03*
%TO.P,U2,65*%
X167640000Y-114300000D03*
%TO.P,U2,64*%
X170180000Y-111760000D03*
%TO.P,U2,63*%
X167640000Y-111760000D03*
%TO.P,U2,62*%
X170180000Y-109220000D03*
%TO.P,U2,61*%
%TO.N,/ToolEnable*%
X167640000Y-109220000D03*
%TO.P,U2,60*%
%TO.N,N/C*%
X170180000Y-68580000D03*
%TO.P,U2,59*%
X167640000Y-68580000D03*
%TO.P,U2,58*%
X170180000Y-66040000D03*
%TO.P,U2,57*%
X167640000Y-66040000D03*
%TO.P,U2,56*%
X170180000Y-63500000D03*
%TO.P,U2,55*%
X167640000Y-63500000D03*
%TO.P,U2,54*%
%TO.N,/SPI_MISO*%
X170180000Y-60960000D03*
%TO.P,U2,53*%
%TO.N,N/C*%
X167640000Y-60960000D03*
%TO.P,U2,52*%
%TO.N,/SPI_MOSI*%
X170180000Y-58420000D03*
%TO.P,U2,51*%
%TO.N,N/C*%
X167640000Y-58420000D03*
%TO.P,U2,50*%
%TO.N,~Reset*%
X170180000Y-55880000D03*
%TO.P,U2,49*%
%TO.N,N/C*%
X167640000Y-55880000D03*
%TO.P,U2,48*%
X170180000Y-53340000D03*
%TO.P,U2,47*%
X167640000Y-53340000D03*
%TO.P,U2,46*%
X170180000Y-50800000D03*
%TO.P,U2,45*%
X167640000Y-50800000D03*
%TO.P,U2,44*%
X170180000Y-48260000D03*
%TO.P,U2,43*%
X167640000Y-48260000D03*
%TO.P,U2,42*%
%TO.N,GND*%
X170180000Y-45720000D03*
%TO.P,U2,41*%
%TO.N,BigButton*%
X167640000Y-45720000D03*
%TO.P,U2,38*%
%TO.N,N/C*%
X127000000Y-129540000D03*
%TO.P,U2,37*%
X124460000Y-129540000D03*
%TO.P,U2,36*%
X127000000Y-127000000D03*
%TO.P,U2,35*%
X124460000Y-127000000D03*
%TO.P,U2,34*%
X127000000Y-124460000D03*
%TO.P,U2,33*%
X124460000Y-124460000D03*
%TO.P,U2,32*%
X127000000Y-121920000D03*
%TO.P,U2,31*%
X124460000Y-121920000D03*
%TO.P,U2,30*%
X127000000Y-119380000D03*
%TO.P,U2,29*%
X124460000Y-119380000D03*
%TO.P,U2,28*%
X127000000Y-116840000D03*
%TO.P,U2,27*%
%TO.N,/Reader_SerialTx*%
X124460000Y-116840000D03*
%TO.P,U2,26*%
%TO.N,N/C*%
X127000000Y-114300000D03*
%TO.P,U2,25*%
%TO.N,/Reader_SerialRx*%
X124460000Y-114300000D03*
%TO.P,U2,24*%
%TO.N,GND*%
X127000000Y-111760000D03*
%TO.P,U2,23*%
%TO.N,N/C*%
X124460000Y-111760000D03*
%TO.P,U2,22*%
%TO.N,+5V*%
X127000000Y-109220000D03*
%TO.P,U2,21*%
%TO.N,+3V3*%
X124460000Y-109220000D03*
%TO.P,U2,20*%
%TO.N,N/C*%
X127000000Y-68580000D03*
%TO.P,U2,19*%
%TO.N,I2C_SDA*%
X124460000Y-68580000D03*
%TO.P,U2,18*%
%TO.N,N/C*%
X127000000Y-66040000D03*
%TO.P,U2,17*%
%TO.N,I2C_SCL*%
X124460000Y-66040000D03*
%TO.P,U2,16*%
%TO.N,N/C*%
X127000000Y-63500000D03*
%TO.P,U2,15*%
X124460000Y-63500000D03*
%TO.P,U2,14*%
%TO.N,/SPIFlash_CS*%
X127000000Y-60960000D03*
%TO.P,U2,13*%
%TO.N,/SPI_Clk*%
X124460000Y-60960000D03*
%TO.P,U2,12*%
%TO.N,N/C*%
X127000000Y-58420000D03*
%TO.P,U2,11*%
X124460000Y-58420000D03*
%TO.P,U2,10*%
X127000000Y-55880000D03*
%TO.P,U2,9*%
X124460000Y-55880000D03*
%TO.P,U2,8*%
X127000000Y-53340000D03*
%TO.P,U2,7*%
X124460000Y-53340000D03*
%TO.P,U2,6*%
X127000000Y-50800000D03*
%TO.P,U2,5*%
X124460000Y-50800000D03*
%TO.P,U2,4*%
%TO.N,GND*%
X127000000Y-48260000D03*
%TO.P,U2,3*%
%TO.N,/~ToolOn*%
X124460000Y-48260000D03*
%TO.P,U2,2*%
%TO.N,+5V*%
X127000000Y-45720000D03*
%TO.P,U2,1*%
%TO.N,+3V3*%
X124460000Y-45720000D03*
%TD*%
D11*
%TO.P,K1,1*%
%TO.N,Net-(J4-Pad2)*%
X154940000Y-146558000D03*
D12*
%TO.P,K1,5*%
%TO.N,+5V*%
X152990000Y-152508000D03*
D11*
%TO.P,K1,4*%
%TO.N,Net-(J4-Pad3)*%
X140740000Y-152558000D03*
%TO.P,K1,3*%
%TO.N,Net-(J4-Pad1)*%
X140790000Y-140508000D03*
D12*
%TO.P,K1,2*%
%TO.N,Net-(D2-Pad2)*%
X152990000Y-140508000D03*
%TD*%
D13*
%TO.P,U5,1*%
%TO.N,GND*%
X153430000Y-95656000D03*
%TO.P,U5,3*%
%TO.N,+12V*%
X148830000Y-95656000D03*
%TO.P,U5,2*%
%TO.N,+5V*%
X151130000Y-95656000D03*
D14*
X151130000Y-101956000D03*
%TD*%
D15*
%TO.P,U4,2*%
%TO.N,Net-(J5-Pad2)*%
X136450000Y-163830000D03*
%TO.P,U4,3*%
%TO.N,/~ToolOn*%
X142950000Y-163830000D03*
%TO.P,U4,4*%
%TO.N,GND*%
X142950000Y-161290000D03*
%TO.P,U4,1*%
%TO.N,Net-(R11-Pad1)*%
X136450000Y-161290000D03*
%TD*%
%TO.P,U3,8*%
%TO.N,+3V3*%
%TA.AperFunction,SMDPad,CuDef*%
G36*
G01*
X139452000Y-54887000D02*
X139452000Y-54587000D01*
G75*
G02*
X139602000Y-54437000I150000J0D01*
G01*
X140902000Y-54437000D01*
G75*
G02*
X141052000Y-54587000I0J-150000D01*
G01*
X141052000Y-54887000D01*
G75*
G02*
X140902000Y-55037000I-150000J0D01*
G01*
X139602000Y-55037000D01*
G75*
G02*
X139452000Y-54887000I0J150000D01*
G01*
G37*
%TD.AperFunction*%
%TO.P,U3,7*%
%TA.AperFunction,SMDPad,CuDef*%
G36*
G01*
X139452000Y-56157000D02*
X139452000Y-55857000D01*
G75*
G02*
X139602000Y-55707000I150000J0D01*
G01*
X140902000Y-55707000D01*
G75*
G02*
X141052000Y-55857000I0J-150000D01*
G01*
X141052000Y-56157000D01*
G75*
G02*
X140902000Y-56307000I-150000J0D01*
G01*
X139602000Y-56307000D01*
G75*
G02*
X139452000Y-56157000I0J150000D01*
G01*
G37*
%TD.AperFunction*%
%TO.P,U3,6*%
%TO.N,/SPI_Clk*%
%TA.AperFunction,SMDPad,CuDef*%
G36*
G01*
X139452000Y-57427000D02*
X139452000Y-57127000D01*
G75*
G02*
X139602000Y-56977000I150000J0D01*
G01*
X140902000Y-56977000D01*
G75*
G02*
X141052000Y-57127000I0J-150000D01*
G01*
X141052000Y-57427000D01*
G75*
G02*
X140902000Y-57577000I-150000J0D01*
G01*
X139602000Y-57577000D01*
G75*
G02*
X139452000Y-57427000I0J150000D01*
G01*
G37*
%TD.AperFunction*%
%TO.P,U3,5*%
%TO.N,/SPI_MOSI*%
%TA.AperFunction,SMDPad,CuDef*%
G36*
G01*
X139452000Y-58697000D02*
X139452000Y-58397000D01*
G75*
G02*
X139602000Y-58247000I150000J0D01*
G01*
X140902000Y-58247000D01*
G75*
G02*
X141052000Y-58397000I0J-150000D01*
G01*
X141052000Y-58697000D01*
G75*
G02*
X140902000Y-58847000I-150000J0D01*
G01*
X139602000Y-58847000D01*
G75*
G02*
X139452000Y-58697000I0J150000D01*
G01*
G37*
%TD.AperFunction*%
%TO.P,U3,4*%
%TO.N,GND*%
%TA.AperFunction,SMDPad,CuDef*%
G36*
G01*
X132252000Y-58697000D02*
X132252000Y-58397000D01*
G75*
G02*
X132402000Y-58247000I150000J0D01*
G01*
X133702000Y-58247000D01*
G75*
G02*
X133852000Y-58397000I0J-150000D01*
G01*
X133852000Y-58697000D01*
G75*
G02*
X133702000Y-58847000I-150000J0D01*
G01*
X132402000Y-58847000D01*
G75*
G02*
X132252000Y-58697000I0J150000D01*
G01*
G37*
%TD.AperFunction*%
%TO.P,U3,3*%
%TO.N,+3V3*%
%TA.AperFunction,SMDPad,CuDef*%
G36*
G01*
X132252000Y-57427000D02*
X132252000Y-57127000D01*
G75*
G02*
X132402000Y-56977000I150000J0D01*
G01*
X133702000Y-56977000D01*
G75*
G02*
X133852000Y-57127000I0J-150000D01*
G01*
X133852000Y-57427000D01*
G75*
G02*
X133702000Y-57577000I-150000J0D01*
G01*
X132402000Y-57577000D01*
G75*
G02*
X132252000Y-57427000I0J150000D01*
G01*
G37*
%TD.AperFunction*%
%TO.P,U3,2*%
%TO.N,/SPI_MISO*%
%TA.AperFunction,SMDPad,CuDef*%
G36*
G01*
X132252000Y-56157000D02*
X132252000Y-55857000D01*
G75*
G02*
X132402000Y-55707000I150000J0D01*
G01*
X133702000Y-55707000D01*
G75*
G02*
X133852000Y-55857000I0J-150000D01*
G01*
X133852000Y-56157000D01*
G75*
G02*
X133702000Y-56307000I-150000J0D01*
G01*
X132402000Y-56307000D01*
G75*
G02*
X132252000Y-56157000I0J150000D01*
G01*
G37*
%TD.AperFunction*%
%TO.P,U3,1*%
%TO.N,/SPIFlash_CS*%
%TA.AperFunction,SMDPad,CuDef*%
G36*
G01*
X132252000Y-54887000D02*
X132252000Y-54587000D01*
G75*
G02*
X132402000Y-54437000I150000J0D01*
G01*
X133702000Y-54437000D01*
G75*
G02*
X133852000Y-54587000I0J-150000D01*
G01*
X133852000Y-54887000D01*
G75*
G02*
X133702000Y-55037000I-150000J0D01*
G01*
X132402000Y-55037000D01*
G75*
G02*
X132252000Y-54887000I0J150000D01*
G01*
G37*
%TD.AperFunction*%
%TD*%
%TO.P,U1,14*%
%TO.N,+3V3*%
%TA.AperFunction,SMDPad,CuDef*%
G36*
G01*
X147852000Y-85448000D02*
X147852000Y-85748000D01*
G75*
G02*
X147702000Y-85898000I-150000J0D01*
G01*
X146052000Y-85898000D01*
G75*
G02*
X145902000Y-85748000I0J150000D01*
G01*
X145902000Y-85448000D01*
G75*
G02*
X146052000Y-85298000I150000J0D01*
G01*
X147702000Y-85298000D01*
G75*
G02*
X147852000Y-85448000I0J-150000D01*
G01*
G37*
%TD.AperFunction*%
%TO.P,U1,13*%
%TO.N,N/C*%
%TA.AperFunction,SMDPad,CuDef*%
G36*
G01*
X147852000Y-84178000D02*
X147852000Y-84478000D01*
G75*
G02*
X147702000Y-84628000I-150000J0D01*
G01*
X146052000Y-84628000D01*
G75*
G02*
X145902000Y-84478000I0J150000D01*
G01*
X145902000Y-84178000D01*
G75*
G02*
X146052000Y-84028000I150000J0D01*
G01*
X147702000Y-84028000D01*
G75*
G02*
X147852000Y-84178000I0J-150000D01*
G01*
G37*
%TD.AperFunction*%
%TO.P,U1,12*%
%TO.N,/422_RX+*%
%TA.AperFunction,SMDPad,CuDef*%
G36*
G01*
X147852000Y-82908000D02*
X147852000Y-83208000D01*
G75*
G02*
X147702000Y-83358000I-150000J0D01*
G01*
X146052000Y-83358000D01*
G75*
G02*
X145902000Y-83208000I0J150000D01*
G01*
X145902000Y-82908000D01*
G75*
G02*
X146052000Y-82758000I150000J0D01*
G01*
X147702000Y-82758000D01*
G75*
G02*
X147852000Y-82908000I0J-150000D01*
G01*
G37*
%TD.AperFunction*%
%TO.P,U1,11*%
%TO.N,/422_RX-*%
%TA.AperFunction,SMDPad,CuDef*%
G36*
G01*
X147852000Y-81638000D02*
X147852000Y-81938000D01*
G75*
G02*
X147702000Y-82088000I-150000J0D01*
G01*
X146052000Y-82088000D01*
G75*
G02*
X145902000Y-81938000I0J150000D01*
G01*
X145902000Y-81638000D01*
G75*
G02*
X146052000Y-81488000I150000J0D01*
G01*
X147702000Y-81488000D01*
G75*
G02*
X147852000Y-81638000I0J-150000D01*
G01*
G37*
%TD.AperFunction*%
%TO.P,U1,10*%
%TO.N,/422_TX-*%
%TA.AperFunction,SMDPad,CuDef*%
G36*
G01*
X147852000Y-80368000D02*
X147852000Y-80668000D01*
G75*
G02*
X147702000Y-80818000I-150000J0D01*
G01*
X146052000Y-80818000D01*
G75*
G02*
X145902000Y-80668000I0J150000D01*
G01*
X145902000Y-80368000D01*
G75*
G02*
X146052000Y-80218000I150000J0D01*
G01*
X147702000Y-80218000D01*
G75*
G02*
X147852000Y-80368000I0J-150000D01*
G01*
G37*
%TD.AperFunction*%
%TO.P,U1,9*%
%TO.N,/422_TX+*%
%TA.AperFunction,SMDPad,CuDef*%
G36*
G01*
X147852000Y-79098000D02*
X147852000Y-79398000D01*
G75*
G02*
X147702000Y-79548000I-150000J0D01*
G01*
X146052000Y-79548000D01*
G75*
G02*
X145902000Y-79398000I0J150000D01*
G01*
X145902000Y-79098000D01*
G75*
G02*
X146052000Y-78948000I150000J0D01*
G01*
X147702000Y-78948000D01*
G75*
G02*
X147852000Y-79098000I0J-150000D01*
G01*
G37*
%TD.AperFunction*%
%TO.P,U1,8*%
%TO.N,N/C*%
%TA.AperFunction,SMDPad,CuDef*%
G36*
G01*
X147852000Y-77828000D02*
X147852000Y-78128000D01*
G75*
G02*
X147702000Y-78278000I-150000J0D01*
G01*
X146052000Y-78278000D01*
G75*
G02*
X145902000Y-78128000I0J150000D01*
G01*
X145902000Y-77828000D01*
G75*
G02*
X146052000Y-77678000I150000J0D01*
G01*
X147702000Y-77678000D01*
G75*
G02*
X147852000Y-77828000I0J-150000D01*
G01*
G37*
%TD.AperFunction*%
%TO.P,U1,7*%
%TO.N,GND*%
%TA.AperFunction,SMDPad,CuDef*%
G36*
G01*
X152802000Y-77828000D02*
X152802000Y-78128000D01*
G75*
G02*
X152652000Y-78278000I-150000J0D01*
G01*
X151002000Y-78278000D01*
G75*
G02*
X150852000Y-78128000I0J150000D01*
G01*
X150852000Y-77828000D01*
G75*
G02*
X151002000Y-77678000I150000J0D01*
G01*
X152652000Y-77678000D01*
G75*
G02*
X152802000Y-77828000I0J-150000D01*
G01*
G37*
%TD.AperFunction*%
%TO.P,U1,6*%
%TA.AperFunction,SMDPad,CuDef*%
G36*
G01*
X152802000Y-79098000D02*
X152802000Y-79398000D01*
G75*
G02*
X152652000Y-79548000I-150000J0D01*
G01*
X151002000Y-79548000D01*
G75*
G02*
X150852000Y-79398000I0J150000D01*
G01*
X150852000Y-79098000D01*
G75*
G02*
X151002000Y-78948000I150000J0D01*
G01*
X152652000Y-78948000D01*
G75*
G02*
X152802000Y-79098000I0J-150000D01*
G01*
G37*
%TD.AperFunction*%
%TO.P,U1,5*%
%TO.N,/Reader_SerialTx*%
%TA.AperFunction,SMDPad,CuDef*%
G36*
G01*
X152802000Y-80368000D02*
X152802000Y-80668000D01*
G75*
G02*
X152652000Y-80818000I-150000J0D01*
G01*
X151002000Y-80818000D01*
G75*
G02*
X150852000Y-80668000I0J150000D01*
G01*
X150852000Y-80368000D01*
G75*
G02*
X151002000Y-80218000I150000J0D01*
G01*
X152652000Y-80218000D01*
G75*
G02*
X152802000Y-80368000I0J-150000D01*
G01*
G37*
%TD.AperFunction*%
%TO.P,U1,4*%
%TO.N,+3V3*%
%TA.AperFunction,SMDPad,CuDef*%
G36*
G01*
X152802000Y-81638000D02*
X152802000Y-81938000D01*
G75*
G02*
X152652000Y-82088000I-150000J0D01*
G01*
X151002000Y-82088000D01*
G75*
G02*
X150852000Y-81938000I0J150000D01*
G01*
X150852000Y-81638000D01*
G75*
G02*
X151002000Y-81488000I150000J0D01*
G01*
X152652000Y-81488000D01*
G75*
G02*
X152802000Y-81638000I0J-150000D01*
G01*
G37*
%TD.AperFunction*%
%TO.P,U1,3*%
%TO.N,GND*%
%TA.AperFunction,SMDPad,CuDef*%
G36*
G01*
X152802000Y-82908000D02*
X152802000Y-83208000D01*
G75*
G02*
X152652000Y-83358000I-150000J0D01*
G01*
X151002000Y-83358000D01*
G75*
G02*
X150852000Y-83208000I0J150000D01*
G01*
X150852000Y-82908000D01*
G75*
G02*
X151002000Y-82758000I150000J0D01*
G01*
X152652000Y-82758000D01*
G75*
G02*
X152802000Y-82908000I0J-150000D01*
G01*
G37*
%TD.AperFunction*%
%TO.P,U1,2*%
%TO.N,/Reader_SerialRx*%
%TA.AperFunction,SMDPad,CuDef*%
G36*
G01*
X152802000Y-84178000D02*
X152802000Y-84478000D01*
G75*
G02*
X152652000Y-84628000I-150000J0D01*
G01*
X151002000Y-84628000D01*
G75*
G02*
X150852000Y-84478000I0J150000D01*
G01*
X150852000Y-84178000D01*
G75*
G02*
X151002000Y-84028000I150000J0D01*
G01*
X152652000Y-84028000D01*
G75*
G02*
X152802000Y-84178000I0J-150000D01*
G01*
G37*
%TD.AperFunction*%
%TO.P,U1,1*%
%TO.N,N/C*%
%TA.AperFunction,SMDPad,CuDef*%
G36*
G01*
X152802000Y-85448000D02*
X152802000Y-85748000D01*
G75*
G02*
X152652000Y-85898000I-150000J0D01*
G01*
X151002000Y-85898000D01*
G75*
G02*
X150852000Y-85748000I0J150000D01*
G01*
X150852000Y-85448000D01*
G75*
G02*
X151002000Y-85298000I150000J0D01*
G01*
X152652000Y-85298000D01*
G75*
G02*
X152802000Y-85448000I0J-150000D01*
G01*
G37*
%TD.AperFunction*%
%TD*%
D16*
%TO.P,SW2,1*%
%TO.N,GND*%
X130556000Y-123802000D03*
%TO.P,SW2,2*%
%TO.N,BigButton*%
X135056000Y-123802000D03*
%TO.P,SW2,1*%
%TO.N,GND*%
X130556000Y-130302000D03*
%TO.P,SW2,2*%
%TO.N,BigButton*%
X135056000Y-130302000D03*
%TD*%
%TO.P,SW1,1*%
%TO.N,GND*%
X169400000Y-78000000D03*
%TO.P,SW1,2*%
%TO.N,~Reset*%
X169400000Y-82500000D03*
%TO.P,SW1,1*%
%TO.N,GND*%
X162900000Y-78000000D03*
%TO.P,SW1,2*%
%TO.N,~Reset*%
X162900000Y-82500000D03*
%TD*%
%TO.P,R16,2*%
%TO.N,GND*%
%TA.AperFunction,SMDPad,CuDef*%
G36*
G01*
X161702000Y-98041750D02*
X161702000Y-98554250D01*
G75*
G02*
X161483250Y-98773000I-218750J0D01*
G01*
X161045750Y-98773000D01*
G75*
G02*
X160827000Y-98554250I0J218750D01*
G01*
X160827000Y-98041750D01*
G75*
G02*
X161045750Y-97823000I218750J0D01*
G01*
X161483250Y-97823000D01*
G75*
G02*
X161702000Y-98041750I0J-218750D01*
G01*
G37*
%TD.AperFunction*%
%TO.P,R16,1*%
%TO.N,Net-(FB2-Pad1)*%
%TA.AperFunction,SMDPad,CuDef*%
G36*
G01*
X163277000Y-98041750D02*
X163277000Y-98554250D01*
G75*
G02*
X163058250Y-98773000I-218750J0D01*
G01*
X162620750Y-98773000D01*
G75*
G02*
X162402000Y-98554250I0J218750D01*
G01*
X162402000Y-98041750D01*
G75*
G02*
X162620750Y-97823000I218750J0D01*
G01*
X163058250Y-97823000D01*
G75*
G02*
X163277000Y-98041750I0J-218750D01*
G01*
G37*
%TD.AperFunction*%
%TD*%
%TO.P,R15,2*%
%TO.N,/~DoorRelease*%
%TA.AperFunction,SMDPad,CuDef*%
G36*
G01*
X162718000Y-103883750D02*
X162718000Y-104396250D01*
G75*
G02*
X162499250Y-104615000I-218750J0D01*
G01*
X162061750Y-104615000D01*
G75*
G02*
X161843000Y-104396250I0J218750D01*
G01*
X161843000Y-103883750D01*
G75*
G02*
X162061750Y-103665000I218750J0D01*
G01*
X162499250Y-103665000D01*
G75*
G02*
X162718000Y-103883750I0J-218750D01*
G01*
G37*
%TD.AperFunction*%
%TO.P,R15,1*%
%TO.N,+3V3*%
%TA.AperFunction,SMDPad,CuDef*%
G36*
G01*
X164293000Y-103883750D02*
X164293000Y-104396250D01*
G75*
G02*
X164074250Y-104615000I-218750J0D01*
G01*
X163636750Y-104615000D01*
G75*
G02*
X163418000Y-104396250I0J218750D01*
G01*
X163418000Y-103883750D01*
G75*
G02*
X163636750Y-103665000I218750J0D01*
G01*
X164074250Y-103665000D01*
G75*
G02*
X164293000Y-103883750I0J-218750D01*
G01*
G37*
%TD.AperFunction*%
%TD*%
%TO.P,R14,2*%
%TO.N,BigButton*%
%TA.AperFunction,SMDPad,CuDef*%
G36*
G01*
X133192000Y-133606250D02*
X133192000Y-133093750D01*
G75*
G02*
X133410750Y-132875000I218750J0D01*
G01*
X133848250Y-132875000D01*
G75*
G02*
X134067000Y-133093750I0J-218750D01*
G01*
X134067000Y-133606250D01*
G75*
G02*
X133848250Y-133825000I-218750J0D01*
G01*
X133410750Y-133825000D01*
G75*
G02*
X133192000Y-133606250I0J218750D01*
G01*
G37*
%TD.AperFunction*%
%TO.P,R14,1*%
%TO.N,+3V3*%
%TA.AperFunction,SMDPad,CuDef*%
G36*
G01*
X131617000Y-133606250D02*
X131617000Y-133093750D01*
G75*
G02*
X131835750Y-132875000I218750J0D01*
G01*
X132273250Y-132875000D01*
G75*
G02*
X132492000Y-133093750I0J-218750D01*
G01*
X132492000Y-133606250D01*
G75*
G02*
X132273250Y-133825000I-218750J0D01*
G01*
X131835750Y-133825000D01*
G75*
G02*
X131617000Y-133606250I0J218750D01*
G01*
G37*
%TD.AperFunction*%
%TD*%
%TO.P,R13,2*%
%TO.N,I2C_SDA*%
%TA.AperFunction,SMDPad,CuDef*%
G36*
G01*
X155704250Y-112680000D02*
X155191750Y-112680000D01*
G75*
G02*
X154973000Y-112461250I0J218750D01*
G01*
X154973000Y-112023750D01*
G75*
G02*
X155191750Y-111805000I218750J0D01*
G01*
X155704250Y-111805000D01*
G75*
G02*
X155923000Y-112023750I0J-218750D01*
G01*
X155923000Y-112461250D01*
G75*
G02*
X155704250Y-112680000I-218750J0D01*
G01*
G37*
%TD.AperFunction*%
%TO.P,R13,1*%
%TO.N,+3V3*%
%TA.AperFunction,SMDPad,CuDef*%
G36*
G01*
X155704250Y-114255000D02*
X155191750Y-114255000D01*
G75*
G02*
X154973000Y-114036250I0J218750D01*
G01*
X154973000Y-113598750D01*
G75*
G02*
X155191750Y-113380000I218750J0D01*
G01*
X155704250Y-113380000D01*
G75*
G02*
X155923000Y-113598750I0J-218750D01*
G01*
X155923000Y-114036250D01*
G75*
G02*
X155704250Y-114255000I-218750J0D01*
G01*
G37*
%TD.AperFunction*%
%TD*%
%TO.P,R12,2*%
%TO.N,I2C_SCL*%
%TA.AperFunction,SMDPad,CuDef*%
G36*
G01*
X152910250Y-112680000D02*
X152397750Y-112680000D01*
G75*
G02*
X152179000Y-112461250I0J218750D01*
G01*
X152179000Y-112023750D01*
G75*
G02*
X152397750Y-111805000I218750J0D01*
G01*
X152910250Y-111805000D01*
G75*
G02*
X153129000Y-112023750I0J-218750D01*
G01*
X153129000Y-112461250D01*
G75*
G02*
X152910250Y-112680000I-218750J0D01*
G01*
G37*
%TD.AperFunction*%
%TO.P,R12,1*%
%TO.N,+3V3*%
%TA.AperFunction,SMDPad,CuDef*%
G36*
G01*
X152910250Y-114255000D02*
X152397750Y-114255000D01*
G75*
G02*
X152179000Y-114036250I0J218750D01*
G01*
X152179000Y-113598750D01*
G75*
G02*
X152397750Y-113380000I218750J0D01*
G01*
X152910250Y-113380000D01*
G75*
G02*
X153129000Y-113598750I0J-218750D01*
G01*
X153129000Y-114036250D01*
G75*
G02*
X152910250Y-114255000I-218750J0D01*
G01*
G37*
%TD.AperFunction*%
%TD*%
%TO.P,R11,2*%
%TO.N,Net-(J5-Pad1)*%
%TA.AperFunction,SMDPad,CuDef*%
G36*
G01*
X135286000Y-159255750D02*
X135286000Y-159768250D01*
G75*
G02*
X135067250Y-159987000I-218750J0D01*
G01*
X134629750Y-159987000D01*
G75*
G02*
X134411000Y-159768250I0J218750D01*
G01*
X134411000Y-159255750D01*
G75*
G02*
X134629750Y-159037000I218750J0D01*
G01*
X135067250Y-159037000D01*
G75*
G02*
X135286000Y-159255750I0J-218750D01*
G01*
G37*
%TD.AperFunction*%
%TO.P,R11,1*%
%TO.N,Net-(R11-Pad1)*%
%TA.AperFunction,SMDPad,CuDef*%
G36*
G01*
X136861000Y-159255750D02*
X136861000Y-159768250D01*
G75*
G02*
X136642250Y-159987000I-218750J0D01*
G01*
X136204750Y-159987000D01*
G75*
G02*
X135986000Y-159768250I0J218750D01*
G01*
X135986000Y-159255750D01*
G75*
G02*
X136204750Y-159037000I218750J0D01*
G01*
X136642250Y-159037000D01*
G75*
G02*
X136861000Y-159255750I0J-218750D01*
G01*
G37*
%TD.AperFunction*%
%TD*%
%TO.P,R10,2*%
%TO.N,/~ToolOn*%
%TA.AperFunction,SMDPad,CuDef*%
G36*
G01*
X129843750Y-48450000D02*
X130356250Y-48450000D01*
G75*
G02*
X130575000Y-48668750I0J-218750D01*
G01*
X130575000Y-49106250D01*
G75*
G02*
X130356250Y-49325000I-218750J0D01*
G01*
X129843750Y-49325000D01*
G75*
G02*
X129625000Y-49106250I0J218750D01*
G01*
X129625000Y-48668750D01*
G75*
G02*
X129843750Y-48450000I218750J0D01*
G01*
G37*
%TD.AperFunction*%
%TO.P,R10,1*%
%TO.N,+3V3*%
%TA.AperFunction,SMDPad,CuDef*%
G36*
G01*
X129843750Y-46875000D02*
X130356250Y-46875000D01*
G75*
G02*
X130575000Y-47093750I0J-218750D01*
G01*
X130575000Y-47531250D01*
G75*
G02*
X130356250Y-47750000I-218750J0D01*
G01*
X129843750Y-47750000D01*
G75*
G02*
X129625000Y-47531250I0J218750D01*
G01*
X129625000Y-47093750D01*
G75*
G02*
X129843750Y-46875000I218750J0D01*
G01*
G37*
%TD.AperFunction*%
%TD*%
%TO.P,R9,2*%
%TO.N,GND*%
%TA.AperFunction,SMDPad,CuDef*%
G36*
G01*
X165766000Y-136903750D02*
X165766000Y-137416250D01*
G75*
G02*
X165547250Y-137635000I-218750J0D01*
G01*
X165109750Y-137635000D01*
G75*
G02*
X164891000Y-137416250I0J218750D01*
G01*
X164891000Y-136903750D01*
G75*
G02*
X165109750Y-136685000I218750J0D01*
G01*
X165547250Y-136685000D01*
G75*
G02*
X165766000Y-136903750I0J-218750D01*
G01*
G37*
%TD.AperFunction*%
%TO.P,R9,1*%
%TO.N,/ToolEnable*%
%TA.AperFunction,SMDPad,CuDef*%
G36*
G01*
X167341000Y-136903750D02*
X167341000Y-137416250D01*
G75*
G02*
X167122250Y-137635000I-218750J0D01*
G01*
X166684750Y-137635000D01*
G75*
G02*
X166466000Y-137416250I0J218750D01*
G01*
X166466000Y-136903750D01*
G75*
G02*
X166684750Y-136685000I218750J0D01*
G01*
X167122250Y-136685000D01*
G75*
G02*
X167341000Y-136903750I0J-218750D01*
G01*
G37*
%TD.AperFunction*%
%TD*%
%TO.P,R8,2*%
%TO.N,GND*%
%TA.AperFunction,SMDPad,CuDef*%
G36*
G01*
X142496250Y-121062000D02*
X141983750Y-121062000D01*
G75*
G02*
X141765000Y-120843250I0J218750D01*
G01*
X141765000Y-120405750D01*
G75*
G02*
X141983750Y-120187000I218750J0D01*
G01*
X142496250Y-120187000D01*
G75*
G02*
X142715000Y-120405750I0J-218750D01*
G01*
X142715000Y-120843250D01*
G75*
G02*
X142496250Y-121062000I-218750J0D01*
G01*
G37*
%TD.AperFunction*%
%TO.P,R8,1*%
%TO.N,/LED_B_Trigger*%
%TA.AperFunction,SMDPad,CuDef*%
G36*
G01*
X142496250Y-122637000D02*
X141983750Y-122637000D01*
G75*
G02*
X141765000Y-122418250I0J218750D01*
G01*
X141765000Y-121980750D01*
G75*
G02*
X141983750Y-121762000I218750J0D01*
G01*
X142496250Y-121762000D01*
G75*
G02*
X142715000Y-121980750I0J-218750D01*
G01*
X142715000Y-122418250D01*
G75*
G02*
X142496250Y-122637000I-218750J0D01*
G01*
G37*
%TD.AperFunction*%
%TD*%
%TO.P,R7,2*%
%TO.N,GND*%
%TA.AperFunction,SMDPad,CuDef*%
G36*
G01*
X142496250Y-115220000D02*
X141983750Y-115220000D01*
G75*
G02*
X141765000Y-115001250I0J218750D01*
G01*
X141765000Y-114563750D01*
G75*
G02*
X141983750Y-114345000I218750J0D01*
G01*
X142496250Y-114345000D01*
G75*
G02*
X142715000Y-114563750I0J-218750D01*
G01*
X142715000Y-115001250D01*
G75*
G02*
X142496250Y-115220000I-218750J0D01*
G01*
G37*
%TD.AperFunction*%
%TO.P,R7,1*%
%TO.N,/LED_G_Trigger*%
%TA.AperFunction,SMDPad,CuDef*%
G36*
G01*
X142496250Y-116795000D02*
X141983750Y-116795000D01*
G75*
G02*
X141765000Y-116576250I0J218750D01*
G01*
X141765000Y-116138750D01*
G75*
G02*
X141983750Y-115920000I218750J0D01*
G01*
X142496250Y-115920000D01*
G75*
G02*
X142715000Y-116138750I0J-218750D01*
G01*
X142715000Y-116576250D01*
G75*
G02*
X142496250Y-116795000I-218750J0D01*
G01*
G37*
%TD.AperFunction*%
%TD*%
%TO.P,R6,2*%
%TO.N,GND*%
%TA.AperFunction,SMDPad,CuDef*%
G36*
G01*
X142496250Y-110140000D02*
X141983750Y-110140000D01*
G75*
G02*
X141765000Y-109921250I0J218750D01*
G01*
X141765000Y-109483750D01*
G75*
G02*
X141983750Y-109265000I218750J0D01*
G01*
X142496250Y-109265000D01*
G75*
G02*
X142715000Y-109483750I0J-218750D01*
G01*
X142715000Y-109921250D01*
G75*
G02*
X142496250Y-110140000I-218750J0D01*
G01*
G37*
%TD.AperFunction*%
%TO.P,R6,1*%
%TO.N,/LED_R_Trigger*%
%TA.AperFunction,SMDPad,CuDef*%
G36*
G01*
X142496250Y-111715000D02*
X141983750Y-111715000D01*
G75*
G02*
X141765000Y-111496250I0J218750D01*
G01*
X141765000Y-111058750D01*
G75*
G02*
X141983750Y-110840000I218750J0D01*
G01*
X142496250Y-110840000D01*
G75*
G02*
X142715000Y-111058750I0J-218750D01*
G01*
X142715000Y-111496250D01*
G75*
G02*
X142496250Y-111715000I-218750J0D01*
G01*
G37*
%TD.AperFunction*%
%TD*%
%TO.P,R5,2*%
%TO.N,Net-(Q6-Pad3)*%
%TA.AperFunction,SMDPad,CuDef*%
G36*
G01*
X133446000Y-119636250D02*
X133446000Y-119123750D01*
G75*
G02*
X133664750Y-118905000I218750J0D01*
G01*
X134102250Y-118905000D01*
G75*
G02*
X134321000Y-119123750I0J-218750D01*
G01*
X134321000Y-119636250D01*
G75*
G02*
X134102250Y-119855000I-218750J0D01*
G01*
X133664750Y-119855000D01*
G75*
G02*
X133446000Y-119636250I0J218750D01*
G01*
G37*
%TD.AperFunction*%
%TO.P,R5,1*%
%TO.N,Net-(D1-Pad2)*%
%TA.AperFunction,SMDPad,CuDef*%
G36*
G01*
X131871000Y-119636250D02*
X131871000Y-119123750D01*
G75*
G02*
X132089750Y-118905000I218750J0D01*
G01*
X132527250Y-118905000D01*
G75*
G02*
X132746000Y-119123750I0J-218750D01*
G01*
X132746000Y-119636250D01*
G75*
G02*
X132527250Y-119855000I-218750J0D01*
G01*
X132089750Y-119855000D01*
G75*
G02*
X131871000Y-119636250I0J218750D01*
G01*
G37*
%TD.AperFunction*%
%TD*%
%TO.P,R4,2*%
%TO.N,Net-(Q5-Pad3)*%
%TA.AperFunction,SMDPad,CuDef*%
G36*
G01*
X132336250Y-110394000D02*
X131823750Y-110394000D01*
G75*
G02*
X131605000Y-110175250I0J218750D01*
G01*
X131605000Y-109737750D01*
G75*
G02*
X131823750Y-109519000I218750J0D01*
G01*
X132336250Y-109519000D01*
G75*
G02*
X132555000Y-109737750I0J-218750D01*
G01*
X132555000Y-110175250D01*
G75*
G02*
X132336250Y-110394000I-218750J0D01*
G01*
G37*
%TD.AperFunction*%
%TO.P,R4,1*%
%TO.N,Net-(D1-Pad4)*%
%TA.AperFunction,SMDPad,CuDef*%
G36*
G01*
X132336250Y-111969000D02*
X131823750Y-111969000D01*
G75*
G02*
X131605000Y-111750250I0J218750D01*
G01*
X131605000Y-111312750D01*
G75*
G02*
X131823750Y-111094000I218750J0D01*
G01*
X132336250Y-111094000D01*
G75*
G02*
X132555000Y-111312750I0J-218750D01*
G01*
X132555000Y-111750250D01*
G75*
G02*
X132336250Y-111969000I-218750J0D01*
G01*
G37*
%TD.AperFunction*%
%TD*%
%TO.P,R3,2*%
%TO.N,Net-(Q4-Pad3)*%
%TA.AperFunction,SMDPad,CuDef*%
G36*
G01*
X134970000Y-110492250D02*
X134970000Y-109979750D01*
G75*
G02*
X135188750Y-109761000I218750J0D01*
G01*
X135626250Y-109761000D01*
G75*
G02*
X135845000Y-109979750I0J-218750D01*
G01*
X135845000Y-110492250D01*
G75*
G02*
X135626250Y-110711000I-218750J0D01*
G01*
X135188750Y-110711000D01*
G75*
G02*
X134970000Y-110492250I0J218750D01*
G01*
G37*
%TD.AperFunction*%
%TO.P,R3,1*%
%TO.N,Net-(D1-Pad3)*%
%TA.AperFunction,SMDPad,CuDef*%
G36*
G01*
X133395000Y-110492250D02*
X133395000Y-109979750D01*
G75*
G02*
X133613750Y-109761000I218750J0D01*
G01*
X134051250Y-109761000D01*
G75*
G02*
X134270000Y-109979750I0J-218750D01*
G01*
X134270000Y-110492250D01*
G75*
G02*
X134051250Y-110711000I-218750J0D01*
G01*
X133613750Y-110711000D01*
G75*
G02*
X133395000Y-110492250I0J218750D01*
G01*
G37*
%TD.AperFunction*%
%TD*%
%TO.P,R2,2*%
%TO.N,/SPIFlash_CS*%
%TA.AperFunction,SMDPad,CuDef*%
G36*
G01*
X130558250Y-55022000D02*
X130045750Y-55022000D01*
G75*
G02*
X129827000Y-54803250I0J218750D01*
G01*
X129827000Y-54365750D01*
G75*
G02*
X130045750Y-54147000I218750J0D01*
G01*
X130558250Y-54147000D01*
G75*
G02*
X130777000Y-54365750I0J-218750D01*
G01*
X130777000Y-54803250D01*
G75*
G02*
X130558250Y-55022000I-218750J0D01*
G01*
G37*
%TD.AperFunction*%
%TO.P,R2,1*%
%TO.N,+3V3*%
%TA.AperFunction,SMDPad,CuDef*%
G36*
G01*
X130558250Y-56597000D02*
X130045750Y-56597000D01*
G75*
G02*
X129827000Y-56378250I0J218750D01*
G01*
X129827000Y-55940750D01*
G75*
G02*
X130045750Y-55722000I218750J0D01*
G01*
X130558250Y-55722000D01*
G75*
G02*
X130777000Y-55940750I0J-218750D01*
G01*
X130777000Y-56378250D01*
G75*
G02*
X130558250Y-56597000I-218750J0D01*
G01*
G37*
%TD.AperFunction*%
%TD*%
%TO.P,R1,2*%
%TO.N,/422_RX+*%
%TA.AperFunction,SMDPad,CuDef*%
G36*
G01*
X144523750Y-82646000D02*
X145036250Y-82646000D01*
G75*
G02*
X145255000Y-82864750I0J-218750D01*
G01*
X145255000Y-83302250D01*
G75*
G02*
X145036250Y-83521000I-218750J0D01*
G01*
X144523750Y-83521000D01*
G75*
G02*
X144305000Y-83302250I0J218750D01*
G01*
X144305000Y-82864750D01*
G75*
G02*
X144523750Y-82646000I218750J0D01*
G01*
G37*
%TD.AperFunction*%
%TO.P,R1,1*%
%TO.N,/422_RX-*%
%TA.AperFunction,SMDPad,CuDef*%
G36*
G01*
X144523750Y-81071000D02*
X145036250Y-81071000D01*
G75*
G02*
X145255000Y-81289750I0J-218750D01*
G01*
X145255000Y-81727250D01*
G75*
G02*
X145036250Y-81946000I-218750J0D01*
G01*
X144523750Y-81946000D01*
G75*
G02*
X144305000Y-81727250I0J218750D01*
G01*
X144305000Y-81289750D01*
G75*
G02*
X144523750Y-81071000I218750J0D01*
G01*
G37*
%TD.AperFunction*%
%TD*%
D17*
%TO.P,Q9,3*%
%TO.N,/~DoorRelease*%
X162052000Y-102092000D03*
%TO.P,Q9,2*%
%TO.N,GND*%
X161102000Y-100092000D03*
%TO.P,Q9,1*%
%TO.N,Net-(FB2-Pad1)*%
X163002000Y-100092000D03*
%TD*%
%TO.P,Q8,3*%
%TO.N,Net-(D2-Pad2)*%
X166116000Y-141970000D03*
%TO.P,Q8,2*%
%TO.N,GND*%
X165166000Y-139970000D03*
%TO.P,Q8,1*%
%TO.N,/ToolEnable*%
X167066000Y-139970000D03*
%TD*%
D13*
%TO.P,Q7,1*%
%TO.N,GND*%
X144540000Y-95656000D03*
%TO.P,Q7,3*%
%TO.N,+12V*%
X139940000Y-95656000D03*
%TO.P,Q7,2*%
%TO.N,Net-(J3-Pad2)*%
X142240000Y-95656000D03*
D14*
%TO.P,Q7,4*%
X142240000Y-101956000D03*
%TD*%
D18*
%TO.P,Q6,3*%
%TO.N,Net-(Q6-Pad3)*%
X138446000Y-121412000D03*
%TO.P,Q6,2*%
%TO.N,GND*%
X140446000Y-120462000D03*
%TO.P,Q6,1*%
%TO.N,/LED_B_Trigger*%
X140446000Y-122362000D03*
%TD*%
%TO.P,Q5,3*%
%TO.N,Net-(Q5-Pad3)*%
X138446000Y-115570000D03*
%TO.P,Q5,2*%
%TO.N,GND*%
X140446000Y-114620000D03*
%TO.P,Q5,1*%
%TO.N,/LED_G_Trigger*%
X140446000Y-116520000D03*
%TD*%
%TO.P,Q4,3*%
%TO.N,Net-(Q4-Pad3)*%
X138192000Y-110490000D03*
%TO.P,Q4,2*%
%TO.N,GND*%
X140192000Y-109540000D03*
%TO.P,Q4,1*%
%TO.N,/LED_R_Trigger*%
X140192000Y-111440000D03*
%TD*%
D17*
%TO.P,Q3,3*%
%TO.N,/LED_Blue_Cathode*%
X155194000Y-65802000D03*
%TO.P,Q3,2*%
%TO.N,GND*%
X156144000Y-67802000D03*
%TO.P,Q3,1*%
%TO.N,/LED_B_Trigger*%
X154244000Y-67802000D03*
%TD*%
%TO.P,Q2,3*%
%TO.N,/LED_Green_Cathode*%
X149606000Y-65548000D03*
%TO.P,Q2,2*%
%TO.N,GND*%
X150556000Y-67548000D03*
%TO.P,Q2,1*%
%TO.N,/LED_G_Trigger*%
X148656000Y-67548000D03*
%TD*%
%TO.P,Q1,3*%
%TO.N,/LED_Red_Cathode*%
X160274000Y-65802000D03*
%TO.P,Q1,2*%
%TO.N,GND*%
X161224000Y-67802000D03*
%TO.P,Q1,1*%
%TO.N,/LED_R_Trigger*%
X159324000Y-67802000D03*
%TD*%
D19*
%TO.P,J7,2*%
%TO.N,Net-(FB2-Pad2)*%
X170844000Y-100198000D03*
%TO.P,J7,1*%
%TO.N,Net-(FB1-Pad1)*%
X170844000Y-104008000D03*
%TD*%
D20*
%TO.P,J6,4*%
%TO.N,I2C_SDA*%
X155194000Y-109474000D03*
%TO.P,J6,3*%
%TO.N,I2C_SCL*%
X152654000Y-109474000D03*
%TO.P,J6,2*%
%TO.N,GND*%
X150114000Y-109474000D03*
D21*
%TO.P,J6,1*%
%TO.N,+5V*%
X147574000Y-109474000D03*
%TD*%
D19*
%TO.P,J5,2*%
%TO.N,Net-(J5-Pad2)*%
X131670000Y-164470000D03*
%TO.P,J5,1*%
%TO.N,Net-(J5-Pad1)*%
X131670000Y-160660000D03*
%TD*%
D16*
%TO.P,J4,3*%
%TO.N,Net-(J4-Pad3)*%
X131670000Y-150368000D03*
%TO.P,J4,2*%
%TO.N,Net-(J4-Pad2)*%
X131670000Y-146558000D03*
%TO.P,J4,1*%
%TO.N,Net-(J4-Pad1)*%
X131670000Y-142748000D03*
%TD*%
D22*
%TO.P,J3,2*%
%TO.N,Net-(J3-Pad2)*%
X133490000Y-102088000D03*
%TO.P,J3,1*%
%TO.N,GND*%
X133490000Y-97008000D03*
%TD*%
D23*
%TO.P,J2,6*%
%TO.N,/Reader_SerialTx*%
X153162000Y-61468000D03*
%TO.P,J2,8*%
%TO.N,/LED_Blue_Cathode*%
X150622000Y-61468000D03*
D11*
%TO.P,J2,SH*%
%TO.N,GND*%
X162837000Y-49528000D03*
D23*
%TO.P,J2,2*%
X158242000Y-61468000D03*
D24*
%TO.P,J2,1*%
%TO.N,+5V*%
X159512000Y-58928000D03*
D23*
%TO.P,J2,7*%
%TO.N,/LED_Green_Cathode*%
X151892000Y-58928000D03*
%TO.P,J2,4*%
%TO.N,/LED_Red_Cathode*%
X155702000Y-61468000D03*
%TO.P,J2,5*%
%TO.N,BigButton*%
X154432000Y-58928000D03*
%TO.P,J2,3*%
%TO.N,/Reader_SerialRx*%
X156972000Y-58928000D03*
D11*
%TO.P,J2,SH*%
%TO.N,GND*%
X147297000Y-49528000D03*
%TD*%
D23*
%TO.P,J1,6*%
%TO.N,/422_RX+*%
X140208000Y-83566000D03*
%TO.P,J1,8*%
%TO.N,/422_TX+*%
X140208000Y-86106000D03*
D11*
%TO.P,J1,SH*%
%TO.N,GND*%
X128268000Y-73891000D03*
D23*
%TO.P,J1,2*%
X140208000Y-78486000D03*
D24*
%TO.P,J1,1*%
X137668000Y-77216000D03*
D23*
%TO.P,J1,7*%
%TO.N,/422_TX-*%
X137668000Y-84836000D03*
%TO.P,J1,4*%
%TO.N,+12V*%
X140208000Y-81026000D03*
%TO.P,J1,5*%
X137668000Y-82296000D03*
%TO.P,J1,3*%
%TO.N,/422_RX-*%
X137668000Y-79756000D03*
D11*
%TO.P,J1,SH*%
%TO.N,GND*%
X128268000Y-89431000D03*
%TD*%
%TO.P,FB2,2*%
%TO.N,Net-(FB2-Pad2)*%
%TA.AperFunction,SMDPad,CuDef*%
G36*
G01*
X167328000Y-100532250D02*
X167328000Y-99619750D01*
G75*
G02*
X167571750Y-99376000I243750J0D01*
G01*
X168059250Y-99376000D01*
G75*
G02*
X168303000Y-99619750I0J-243750D01*
G01*
X168303000Y-100532250D01*
G75*
G02*
X168059250Y-100776000I-243750J0D01*
G01*
X167571750Y-100776000D01*
G75*
G02*
X167328000Y-100532250I0J243750D01*
G01*
G37*
%TD.AperFunction*%
%TO.P,FB2,1*%
%TO.N,Net-(FB2-Pad1)*%
%TA.AperFunction,SMDPad,CuDef*%
G36*
G01*
X165453000Y-100532250D02*
X165453000Y-99619750D01*
G75*
G02*
X165696750Y-99376000I243750J0D01*
G01*
X166184250Y-99376000D01*
G75*
G02*
X166428000Y-99619750I0J-243750D01*
G01*
X166428000Y-100532250D01*
G75*
G02*
X166184250Y-100776000I-243750J0D01*
G01*
X165696750Y-100776000D01*
G75*
G02*
X165453000Y-100532250I0J243750D01*
G01*
G37*
%TD.AperFunction*%
%TD*%
%TO.P,FB1,2*%
%TO.N,+3V3*%
%TA.AperFunction,SMDPad,CuDef*%
G36*
G01*
X166428000Y-103683750D02*
X166428000Y-104596250D01*
G75*
G02*
X166184250Y-104840000I-243750J0D01*
G01*
X165696750Y-104840000D01*
G75*
G02*
X165453000Y-104596250I0J243750D01*
G01*
X165453000Y-103683750D01*
G75*
G02*
X165696750Y-103440000I243750J0D01*
G01*
X166184250Y-103440000D01*
G75*
G02*
X166428000Y-103683750I0J-243750D01*
G01*
G37*
%TD.AperFunction*%
%TO.P,FB1,1*%
%TO.N,Net-(FB1-Pad1)*%
%TA.AperFunction,SMDPad,CuDef*%
G36*
G01*
X168303000Y-103683750D02*
X168303000Y-104596250D01*
G75*
G02*
X168059250Y-104840000I-243750J0D01*
G01*
X167571750Y-104840000D01*
G75*
G02*
X167328000Y-104596250I0J243750D01*
G01*
X167328000Y-103683750D01*
G75*
G02*
X167571750Y-103440000I243750J0D01*
G01*
X168059250Y-103440000D01*
G75*
G02*
X168303000Y-103683750I0J-243750D01*
G01*
G37*
%TD.AperFunction*%
%TD*%
D25*
%TO.P,D2,2*%
%TO.N,Net-(D2-Pad2)*%
X162560000Y-142240000D03*
D26*
%TO.P,D2,1*%
%TO.N,+5V*%
X162560000Y-149860000D03*
%TD*%
D27*
%TO.P,D1,2*%
%TO.N,Net-(D1-Pad2)*%
X132396000Y-116866000D03*
%TO.P,D1,1*%
%TO.N,+3V3*%
X133796000Y-116866000D03*
%TO.P,D1,4*%
%TO.N,Net-(D1-Pad4)*%
X132396000Y-113766000D03*
%TO.P,D1,3*%
%TO.N,Net-(D1-Pad3)*%
X133796000Y-113766000D03*
%TD*%
%TO.P,C4,2*%
%TO.N,GND*%
%TA.AperFunction,SMDPad,CuDef*%
G36*
G01*
X153104000Y-92912250D02*
X153104000Y-91999750D01*
G75*
G02*
X153347750Y-91756000I243750J0D01*
G01*
X153835250Y-91756000D01*
G75*
G02*
X154079000Y-91999750I0J-243750D01*
G01*
X154079000Y-92912250D01*
G75*
G02*
X153835250Y-93156000I-243750J0D01*
G01*
X153347750Y-93156000D01*
G75*
G02*
X153104000Y-92912250I0J243750D01*
G01*
G37*
%TD.AperFunction*%
%TO.P,C4,1*%
%TO.N,+5V*%
%TA.AperFunction,SMDPad,CuDef*%
G36*
G01*
X151229000Y-92912250D02*
X151229000Y-91999750D01*
G75*
G02*
X151472750Y-91756000I243750J0D01*
G01*
X151960250Y-91756000D01*
G75*
G02*
X152204000Y-91999750I0J-243750D01*
G01*
X152204000Y-92912250D01*
G75*
G02*
X151960250Y-93156000I-243750J0D01*
G01*
X151472750Y-93156000D01*
G75*
G02*
X151229000Y-92912250I0J243750D01*
G01*
G37*
%TD.AperFunction*%
%TD*%
%TO.P,C3,2*%
%TO.N,GND*%
%TA.AperFunction,SMDPad,CuDef*%
G36*
G01*
X149300250Y-90990000D02*
X148387750Y-90990000D01*
G75*
G02*
X148144000Y-90746250I0J243750D01*
G01*
X148144000Y-90258750D01*
G75*
G02*
X148387750Y-90015000I243750J0D01*
G01*
X149300250Y-90015000D01*
G75*
G02*
X149544000Y-90258750I0J-243750D01*
G01*
X149544000Y-90746250D01*
G75*
G02*
X149300250Y-90990000I-243750J0D01*
G01*
G37*
%TD.AperFunction*%
%TO.P,C3,1*%
%TO.N,+12V*%
%TA.AperFunction,SMDPad,CuDef*%
G36*
G01*
X149300250Y-92865000D02*
X148387750Y-92865000D01*
G75*
G02*
X148144000Y-92621250I0J243750D01*
G01*
X148144000Y-92133750D01*
G75*
G02*
X148387750Y-91890000I243750J0D01*
G01*
X149300250Y-91890000D01*
G75*
G02*
X149544000Y-92133750I0J-243750D01*
G01*
X149544000Y-92621250D01*
G75*
G02*
X149300250Y-92865000I-243750J0D01*
G01*
G37*
%TD.AperFunction*%
%TD*%
%TO.P,C2,2*%
%TO.N,+3V3*%
%TA.AperFunction,SMDPad,CuDef*%
G36*
G01*
X142906000Y-54607750D02*
X142906000Y-55120250D01*
G75*
G02*
X142687250Y-55339000I-218750J0D01*
G01*
X142249750Y-55339000D01*
G75*
G02*
X142031000Y-55120250I0J218750D01*
G01*
X142031000Y-54607750D01*
G75*
G02*
X142249750Y-54389000I218750J0D01*
G01*
X142687250Y-54389000D01*
G75*
G02*
X142906000Y-54607750I0J-218750D01*
G01*
G37*
%TD.AperFunction*%
%TO.P,C2,1*%
%TO.N,GND*%
%TA.AperFunction,SMDPad,CuDef*%
G36*
G01*
X144481000Y-54607750D02*
X144481000Y-55120250D01*
G75*
G02*
X144262250Y-55339000I-218750J0D01*
G01*
X143824750Y-55339000D01*
G75*
G02*
X143606000Y-55120250I0J218750D01*
G01*
X143606000Y-54607750D01*
G75*
G02*
X143824750Y-54389000I218750J0D01*
G01*
X144262250Y-54389000D01*
G75*
G02*
X144481000Y-54607750I0J-218750D01*
G01*
G37*
%TD.AperFunction*%
%TD*%
%TO.P,C1,2*%
%TO.N,GND*%
%TA.AperFunction,SMDPad,CuDef*%
G36*
G01*
X146301750Y-88488000D02*
X146814250Y-88488000D01*
G75*
G02*
X147033000Y-88706750I0J-218750D01*
G01*
X147033000Y-89144250D01*
G75*
G02*
X146814250Y-89363000I-218750J0D01*
G01*
X146301750Y-89363000D01*
G75*
G02*
X146083000Y-89144250I0J218750D01*
G01*
X146083000Y-88706750D01*
G75*
G02*
X146301750Y-88488000I218750J0D01*
G01*
G37*
%TD.AperFunction*%
%TO.P,C1,1*%
%TO.N,+3V3*%
%TA.AperFunction,SMDPad,CuDef*%
G36*
G01*
X146301750Y-86913000D02*
X146814250Y-86913000D01*
G75*
G02*
X147033000Y-87131750I0J-218750D01*
G01*
X147033000Y-87569250D01*
G75*
G02*
X146814250Y-87788000I-218750J0D01*
G01*
X146301750Y-87788000D01*
G75*
G02*
X146083000Y-87569250I0J218750D01*
G01*
X146083000Y-87131750D01*
G75*
G02*
X146301750Y-86913000I218750J0D01*
G01*
G37*
%TD.AperFunction*%
%TD*%
D28*
%TO.N,GND*%
X140208000Y-108077000D03*
X142240000Y-113411000D03*
X140462000Y-113030000D03*
X140462000Y-119189500D03*
X144399000Y-161290000D03*
X163830000Y-137160000D03*
X163703000Y-139954000D03*
X155194000Y-92456000D03*
X155194000Y-93726000D03*
X155194000Y-94869000D03*
X155194000Y-95885000D03*
X153543000Y-93980000D03*
X144399000Y-98044000D03*
X145542000Y-98044000D03*
X145542000Y-99060000D03*
X144399000Y-99060000D03*
X160020000Y-98298000D03*
X159639000Y-100076000D03*
X154178000Y-77978000D03*
X154178000Y-79248000D03*
X148844000Y-89027000D03*
X146558000Y-90170000D03*
X131191000Y-58547000D03*
X144145000Y-56261000D03*
X161290000Y-69215000D03*
X156210000Y-69215000D03*
X150622000Y-69215000D03*
X142240000Y-119253000D03*
X142240000Y-106574990D03*
X153700000Y-83100000D03*
%TO.N,+3V3*%
X142600000Y-57700000D03*
X142400000Y-60499964D03*
X126700000Y-71000000D03*
X138400000Y-71000000D03*
X140200000Y-70000000D03*
%TO.N,+5V*%
X176500000Y-96300000D03*
X177500000Y-96300000D03*
X176600000Y-70600000D03*
X176600000Y-71600000D03*
X158300000Y-54700000D03*
X176900000Y-149800000D03*
%TO.N,/422_TX+*%
X134864232Y-79130768D03*
%TO.N,/422_TX-*%
X134121768Y-79873232D03*
%TO.N,/Reader_SerialTx*%
X128300000Y-100500000D03*
X135400000Y-90900000D03*
X139200000Y-89700000D03*
X130100000Y-108900000D03*
X129700004Y-117000000D03*
X155322439Y-78820760D03*
X157400000Y-75800000D03*
%TO.N,BigButton*%
X154500000Y-56200000D03*
X172100000Y-94000000D03*
X172700000Y-98200000D03*
%TO.N,/Reader_SerialRx*%
X129300000Y-109700000D03*
X127500000Y-99500000D03*
X134400000Y-90000000D03*
X139000000Y-88400000D03*
X144600000Y-85900000D03*
X149700000Y-86300000D03*
X129600000Y-115899996D03*
X156320190Y-79479810D03*
X155325000Y-84400000D03*
X153700000Y-84400000D03*
X158000000Y-76700002D03*
%TO.N,I2C_SDA*%
X127800000Y-103200000D03*
%TO.N,I2C_SCL*%
X128600000Y-103925010D03*
%TO.N,/LED_R_Trigger*%
X153800000Y-115400000D03*
X151500000Y-114900000D03*
X158625000Y-99300000D03*
X161699998Y-115000000D03*
X161700000Y-112900000D03*
X159626188Y-93500868D03*
%TO.N,/LED_G_Trigger*%
X153700000Y-116900000D03*
X151000000Y-116600000D03*
X149900000Y-114000000D03*
X157083486Y-100091195D03*
X158154275Y-92028955D03*
%TO.N,/LED_B_Trigger*%
X157900000Y-112700000D03*
X159400000Y-117700000D03*
X157000000Y-101400000D03*
X158919073Y-92793754D03*
%TO.N,/~DoorRelease*%
X165200000Y-106300000D03*
X162600000Y-106200000D03*
%TO.N,/~ToolOn*%
X174300000Y-138100000D03*
X174200000Y-135500000D03*
X173800000Y-111500000D03*
X128675000Y-58900000D03*
X130400000Y-61400000D03*
X171300000Y-98300000D03*
X173600000Y-108100000D03*
X170200000Y-94100002D03*
X149000000Y-74300000D03*
X150800000Y-74200000D03*
%TO.N,/SPI_MISO*%
X137541000Y-56261000D03*
X138176000Y-59626500D03*
%TD*%
D29*
%TO.N,GND*%
X142240000Y-114782500D02*
X142240000Y-113411000D01*
X140446000Y-113046000D02*
X140462000Y-113030000D01*
X140446000Y-114620000D02*
X140446000Y-113046000D01*
X144399000Y-161290000D02*
X142950000Y-161290000D01*
X165328500Y-137160000D02*
X163830000Y-137160000D01*
X165150000Y-139954000D02*
X165166000Y-139970000D01*
X163703000Y-139954000D02*
X165150000Y-139954000D01*
X160020000Y-98298000D02*
X161264500Y-98298000D01*
X159655000Y-100092000D02*
X159639000Y-100076000D01*
X161102000Y-100092000D02*
X159655000Y-100092000D01*
X154178000Y-77978000D02*
X151827000Y-77978000D01*
X151827000Y-79248000D02*
X154178000Y-79248000D01*
X148844000Y-89027000D02*
X148844000Y-90502500D01*
X146558000Y-90170000D02*
X146558000Y-88925500D01*
X133052000Y-58547000D02*
X131191000Y-58547000D01*
X144145000Y-54965500D02*
X144043500Y-54864000D01*
X144145000Y-56261000D02*
X144145000Y-54965500D01*
X150622000Y-67614000D02*
X150556000Y-67548000D01*
X150622000Y-69215000D02*
X150622000Y-67614000D01*
X156210000Y-67868000D02*
X156144000Y-67802000D01*
X156210000Y-69215000D02*
X156210000Y-67868000D01*
X161290000Y-67868000D02*
X161224000Y-67802000D01*
X161290000Y-69215000D02*
X161290000Y-67868000D01*
D30*
X142240000Y-120624500D02*
X142240000Y-119253000D01*
X140446000Y-119205500D02*
X140462000Y-119189500D01*
X140446000Y-120462000D02*
X140446000Y-119205500D01*
D29*
X142240000Y-109702500D02*
X142240000Y-106574990D01*
D30*
X140208000Y-109524000D02*
X140192000Y-109540000D01*
X140208000Y-108077000D02*
X140208000Y-109524000D01*
D31*
X153658000Y-83058000D02*
X153700000Y-83100000D01*
X151827000Y-83058000D02*
X153658000Y-83058000D01*
%TO.N,+3V3*%
X140252000Y-56007000D02*
X141986000Y-56007000D01*
X142468500Y-55524500D02*
X142468500Y-54864000D01*
X141986000Y-56007000D02*
X142468500Y-55524500D01*
X131419500Y-57277000D02*
X133052000Y-57277000D01*
X130302000Y-56159500D02*
X131419500Y-57277000D01*
X138182000Y-57277000D02*
X133052000Y-57277000D01*
X139452000Y-56007000D02*
X138182000Y-57277000D01*
X140252000Y-56007000D02*
X139452000Y-56007000D01*
D30*
X134300001Y-117370001D02*
X136674001Y-117370001D01*
X133796000Y-116866000D02*
X134300001Y-117370001D01*
X136674001Y-117370001D02*
X137350500Y-118046500D01*
X137350500Y-118046500D02*
X151892000Y-118046500D01*
X152654000Y-117284500D02*
X152654000Y-113817500D01*
X151892000Y-118046500D02*
X152654000Y-117284500D01*
X152654000Y-113817500D02*
X155448000Y-113817500D01*
X155448000Y-113817500D02*
X163169500Y-113817500D01*
X163855500Y-113131500D02*
X163855500Y-104140000D01*
X163169500Y-113817500D02*
X163855500Y-113131500D01*
X163855500Y-104140000D02*
X165940500Y-104140000D01*
X130212500Y-47200000D02*
X130100000Y-47312500D01*
X125787999Y-47047999D02*
X124460000Y-45720000D01*
X129835499Y-47047999D02*
X125787999Y-47047999D01*
X130100000Y-47312500D02*
X129835499Y-47047999D01*
X142468500Y-57568500D02*
X142600000Y-57700000D01*
D29*
X141100000Y-47200000D02*
X130212500Y-47200000D01*
X142468500Y-48568500D02*
X141100000Y-47200000D01*
X142468500Y-54864000D02*
X142468500Y-48568500D01*
D30*
X165940500Y-104140000D02*
X165940500Y-104840500D01*
X130400000Y-120700000D02*
X132054500Y-122354500D01*
X132054500Y-122354500D02*
X132054500Y-133350000D01*
X129900000Y-118000000D02*
X129900000Y-118300000D01*
X130400000Y-118800000D02*
X130400000Y-120700000D01*
X129900000Y-118300000D02*
X130400000Y-118800000D01*
X133796000Y-115616000D02*
X133796000Y-116866000D01*
X131034002Y-115616000D02*
X133796000Y-115616000D01*
X130158004Y-118000000D02*
X131034002Y-117124002D01*
X129900000Y-118000000D02*
X130158004Y-118000000D01*
X131034002Y-117124002D02*
X131034002Y-115616000D01*
X124460000Y-109220000D02*
X125672001Y-110432001D01*
X128649998Y-114108000D02*
X128649998Y-117308002D01*
X128649998Y-117308002D02*
X129341996Y-118000000D01*
X125672001Y-110432001D02*
X125672001Y-112225763D01*
X129341996Y-118000000D02*
X129900000Y-118000000D01*
X127541998Y-113000000D02*
X128649998Y-114108000D01*
X126446238Y-113000000D02*
X127541998Y-113000000D01*
X125672001Y-112225763D02*
X126446238Y-113000000D01*
D29*
X126700000Y-71000000D02*
X138400000Y-71000000D01*
X140200000Y-62699964D02*
X142400000Y-60499964D01*
X140200000Y-70000000D02*
X140200000Y-62699964D01*
X142468500Y-54864000D02*
X142468500Y-57568500D01*
D30*
X150852000Y-81788000D02*
X151827000Y-81788000D01*
X150852000Y-81452000D02*
X150852000Y-81788000D01*
X149949999Y-80549999D02*
X150852000Y-81452000D01*
X149949999Y-73849999D02*
X149949999Y-80549999D01*
X149900000Y-73800000D02*
X149949999Y-73849999D01*
X149900000Y-73600000D02*
X149900000Y-73800000D01*
X148750000Y-72450000D02*
X149900000Y-73600000D01*
X142650000Y-72450000D02*
X148750000Y-72450000D01*
X140200000Y-70000000D02*
X142650000Y-72450000D01*
X147749500Y-87350500D02*
X146558000Y-87350500D01*
X148700000Y-86400000D02*
X147749500Y-87350500D01*
X148700000Y-83940000D02*
X148700000Y-86400000D01*
X150852000Y-81788000D02*
X148700000Y-83940000D01*
D32*
%TO.N,+12V*%
X135971999Y-89108999D02*
X139446000Y-92583000D01*
X135128000Y-88265000D02*
X135971999Y-89108999D01*
X135128000Y-83312000D02*
X135128000Y-88265000D01*
X136144000Y-82296000D02*
X135128000Y-83312000D01*
X137668000Y-82296000D02*
X136144000Y-82296000D01*
%TO.N,+5V*%
X177500000Y-96300000D02*
X176500000Y-96300000D01*
D29*
X159912000Y-152508000D02*
X162560000Y-149860000D01*
X152990000Y-152508000D02*
X159912000Y-152508000D01*
D32*
X147574000Y-109474000D02*
X147574000Y-105918000D01*
D30*
X151701500Y-92441000D02*
X151716500Y-92456000D01*
D29*
X176600000Y-71600000D02*
X176600000Y-70600000D01*
D30*
X127000000Y-45720000D02*
X149320000Y-45720000D01*
X149320000Y-45720000D02*
X158300000Y-54700000D01*
X176840000Y-149860000D02*
X176900000Y-149800000D01*
X162560000Y-149860000D02*
X176840000Y-149860000D01*
D29*
X163428000Y-58928000D02*
X165300000Y-60800000D01*
X159512000Y-58928000D02*
X163428000Y-58928000D01*
X165300000Y-60800000D02*
X165300000Y-68403762D01*
X165300000Y-68403762D02*
X167496238Y-70600000D01*
X167496238Y-70600000D02*
X176600000Y-70600000D01*
D32*
X176500000Y-96300000D02*
X158606677Y-96300000D01*
X154900000Y-100006677D02*
X154900000Y-100300000D01*
X158606677Y-96300000D02*
X154900000Y-100006677D01*
D29*
%TO.N,Net-(D1-Pad2)*%
X132400000Y-116870000D02*
X132396000Y-116866000D01*
X132400000Y-119288500D02*
X132400000Y-116870000D01*
X132308500Y-119380000D02*
X132400000Y-119288500D01*
%TO.N,Net-(D1-Pad4)*%
X132396000Y-111847500D02*
X132080000Y-111531500D01*
X132396000Y-113766000D02*
X132396000Y-111847500D01*
%TO.N,Net-(D1-Pad3)*%
X133796000Y-110272500D02*
X133832500Y-110236000D01*
X133796000Y-113766000D02*
X133796000Y-110272500D01*
%TO.N,Net-(D2-Pad2)*%
X160828000Y-140508000D02*
X162560000Y-142240000D01*
X152990000Y-140508000D02*
X160828000Y-140508000D01*
X165846000Y-142240000D02*
X166116000Y-141970000D01*
X162560000Y-142240000D02*
X165846000Y-142240000D01*
%TO.N,Net-(FB1-Pad1)*%
X170712000Y-104140000D02*
X170844000Y-104008000D01*
X167815500Y-104140000D02*
X170712000Y-104140000D01*
%TO.N,Net-(FB2-Pad2)*%
X170722000Y-100076000D02*
X170844000Y-100198000D01*
X167815500Y-100076000D02*
X170722000Y-100076000D01*
%TO.N,Net-(FB2-Pad1)*%
X163018000Y-100076000D02*
X163002000Y-100092000D01*
X165940500Y-100076000D02*
X163018000Y-100076000D01*
D30*
X163002000Y-98460500D02*
X162839500Y-98298000D01*
X163002000Y-100092000D02*
X163002000Y-98460500D01*
D29*
%TO.N,/422_RX+*%
X144805500Y-83058000D02*
X144780000Y-83083500D01*
X146877000Y-83058000D02*
X144805500Y-83058000D01*
D33*
X141138786Y-83566000D02*
X140208000Y-83566000D01*
X141982965Y-83595710D02*
X141919556Y-83573522D01*
X142087349Y-83678954D02*
X142039846Y-83631451D01*
X142752800Y-83866000D02*
X142752800Y-84266000D01*
X143841397Y-83083500D02*
X143358897Y-83566000D01*
X142745278Y-84332757D02*
X142723090Y-84396166D01*
X142865753Y-83631451D02*
X142818250Y-83678954D01*
X144780000Y-83083500D02*
X143841397Y-83083500D01*
X142782509Y-83735835D02*
X142760321Y-83799244D01*
X141852800Y-83566000D02*
X141138786Y-83566000D01*
X142123090Y-83735835D02*
X142087349Y-83678954D01*
X142322634Y-84536291D02*
X142265753Y-84500550D01*
X142218250Y-84453047D02*
X142182509Y-84396166D01*
X142582965Y-84536291D02*
X142519556Y-84558479D01*
X142922634Y-83595710D02*
X142865753Y-83631451D01*
X142039846Y-83631451D02*
X141982965Y-83595710D01*
X142182509Y-84396166D02*
X142160321Y-84332757D01*
X143052800Y-83566000D02*
X142986043Y-83573522D01*
X141919556Y-83573522D02*
X141852800Y-83566000D01*
X142760321Y-83799244D02*
X142752800Y-83866000D01*
X142723090Y-84396166D02*
X142687349Y-84453047D01*
X142752800Y-84266000D02*
X142745278Y-84332757D01*
X142687349Y-84453047D02*
X142639846Y-84500550D01*
X142818250Y-83678954D02*
X142782509Y-83735835D01*
X142639846Y-84500550D02*
X142582965Y-84536291D01*
X142160321Y-84332757D02*
X142152800Y-84266000D01*
X142519556Y-84558479D02*
X142452800Y-84566000D01*
X142386043Y-84558479D02*
X142322634Y-84536291D01*
X143358897Y-83566000D02*
X143052800Y-83566000D01*
X142152800Y-84266000D02*
X142152800Y-83866000D01*
X142452800Y-84566000D02*
X142386043Y-84558479D01*
X142986043Y-83573522D02*
X142922634Y-83595710D01*
X142265753Y-84500550D02*
X142218250Y-84453047D01*
X142152800Y-83866000D02*
X142145278Y-83799244D01*
X142145278Y-83799244D02*
X142123090Y-83735835D01*
%TO.N,/422_TX+*%
X147510603Y-79248000D02*
X146910603Y-79248000D01*
X148619000Y-78139603D02*
X147510603Y-79248000D01*
X148619000Y-76547200D02*
X148619000Y-78139603D01*
X147353800Y-75282000D02*
X148619000Y-76547200D01*
X145043434Y-75282000D02*
X147353800Y-75282000D01*
X144992873Y-75287696D02*
X145043434Y-75282000D01*
X144944848Y-75304501D02*
X144992873Y-75287696D01*
X144221913Y-75559777D02*
X144238718Y-75607802D01*
X144265788Y-75650884D02*
X144301766Y-75686862D01*
X144301766Y-75686862D02*
X144344848Y-75713932D01*
X144130667Y-75331571D02*
X144166645Y-75367549D01*
X144793715Y-75607802D02*
X144810520Y-75559777D01*
X144166645Y-75367549D02*
X144193715Y-75410631D01*
X144039560Y-75287696D02*
X144087585Y-75304501D01*
X143989000Y-75282000D02*
X144039560Y-75287696D01*
X144865788Y-75367549D02*
X144901766Y-75331571D01*
X144193715Y-75410631D02*
X144210520Y-75458656D01*
X144238718Y-75607802D02*
X144265788Y-75650884D01*
X144392873Y-75730737D02*
X144443434Y-75736434D01*
X134571768Y-76566432D02*
X135856200Y-75282000D01*
X134571768Y-78838304D02*
X134571768Y-76566432D01*
X134864232Y-79130768D02*
X134571768Y-78838304D01*
X144344848Y-75713932D02*
X144392873Y-75730737D01*
X144087585Y-75304501D02*
X144130667Y-75331571D01*
X144589000Y-75736434D02*
X144639560Y-75730737D01*
X144443434Y-75736434D02*
X144589000Y-75736434D01*
X144766645Y-75650884D02*
X144793715Y-75607802D01*
X144639560Y-75730737D02*
X144687585Y-75713932D01*
X144901766Y-75331571D02*
X144944848Y-75304501D01*
X144210520Y-75458656D02*
X144221913Y-75559777D01*
X144687585Y-75713932D02*
X144730667Y-75686862D01*
X144730667Y-75686862D02*
X144766645Y-75650884D01*
X146910603Y-79248000D02*
X146877000Y-79248000D01*
X144810520Y-75559777D02*
X144821913Y-75458656D01*
X135856200Y-75282000D02*
X143989000Y-75282000D01*
X144821913Y-75458656D02*
X144838718Y-75410631D01*
X144838718Y-75410631D02*
X144865788Y-75367549D01*
%TO.N,/422_TX-*%
X134121768Y-76380032D02*
X135669800Y-74832000D01*
X134121768Y-79873232D02*
X134121768Y-76380032D01*
X135669800Y-74832000D02*
X147540200Y-74832000D01*
X147540200Y-74832000D02*
X149069000Y-76360800D01*
X147546990Y-79848010D02*
X146877000Y-80518000D01*
X148152010Y-79584402D02*
X147888402Y-79848010D01*
X148152010Y-79242990D02*
X148152010Y-79584402D01*
X147888402Y-79848010D02*
X147546990Y-79848010D01*
X149069000Y-78326000D02*
X148152010Y-79242990D01*
X149069000Y-76360800D02*
X149069000Y-78326000D01*
D29*
%TO.N,/422_RX-*%
X145059500Y-81788000D02*
X144780000Y-81508500D01*
X146877000Y-81788000D02*
X145059500Y-81788000D01*
D33*
X143172500Y-83116000D02*
X143523198Y-82765302D01*
X141815400Y-83116000D02*
X143172500Y-83116000D01*
X141020800Y-82321400D02*
X141815400Y-83116000D01*
X143523198Y-82765302D02*
X144780000Y-81508500D01*
X139949398Y-82321400D02*
X141020800Y-82321400D01*
X137668000Y-80040002D02*
X139949398Y-82321400D01*
X137668000Y-79756000D02*
X137668000Y-80040002D01*
D31*
%TO.N,/Reader_SerialTx*%
X128300000Y-98000000D02*
X135400000Y-90900000D01*
X128300000Y-100500000D02*
X128300000Y-98000000D01*
X139200000Y-89700000D02*
X140900000Y-91400000D01*
X140900000Y-91400000D02*
X146494740Y-91400000D01*
X146494740Y-91400000D02*
X147818990Y-90075750D01*
X147818990Y-90075750D02*
X147818990Y-88885270D01*
X149504260Y-87200000D02*
X154200000Y-87200000D01*
X147818990Y-88885270D02*
X149504260Y-87200000D01*
X154200000Y-87200000D02*
X154600000Y-86800000D01*
X154600000Y-86800000D02*
X154600000Y-81200000D01*
X154600000Y-81200000D02*
X153918000Y-80518000D01*
X153918000Y-80518000D02*
X151827000Y-80518000D01*
X130425002Y-113851998D02*
X130425002Y-116275002D01*
X130100000Y-113526996D02*
X130425002Y-113851998D01*
X130425002Y-116275002D02*
X129700004Y-117000000D01*
X130100000Y-108900000D02*
X130100000Y-113526996D01*
X154600000Y-81200000D02*
X155322439Y-80477561D01*
X155322439Y-80477561D02*
X155322439Y-78820760D01*
X153162000Y-61468000D02*
X154237001Y-60392999D01*
X157166999Y-63766999D02*
X157966999Y-64566999D01*
X157166999Y-61341997D02*
X157166999Y-63766999D01*
X154237001Y-60392999D02*
X156218001Y-60392999D01*
X162115008Y-66251418D02*
X162115008Y-71084992D01*
X156218001Y-60392999D02*
X157166999Y-61341997D01*
X157966999Y-64566999D02*
X160430589Y-64566999D01*
X162115008Y-71084992D02*
X157400000Y-75800000D01*
X160430589Y-64566999D02*
X162115008Y-66251418D01*
%TO.N,/LED_Blue_Cathode*%
X151781000Y-65802000D02*
X150622000Y-64643000D01*
X150622000Y-64643000D02*
X150622000Y-61468000D01*
X155194000Y-65802000D02*
X151781000Y-65802000D01*
%TO.N,/LED_Green_Cathode*%
X148971000Y-60788340D02*
X150831340Y-58928000D01*
X148971000Y-64913000D02*
X148971000Y-60788340D01*
X150831340Y-58928000D02*
X151892000Y-58928000D01*
X149606000Y-65548000D02*
X148971000Y-64913000D01*
%TO.N,/LED_Red_Cathode*%
X155702000Y-64198500D02*
X155702000Y-61468000D01*
X157305500Y-65802000D02*
X155702000Y-64198500D01*
X160274000Y-65802000D02*
X157305500Y-65802000D01*
D30*
%TO.N,BigButton*%
X133629500Y-133350000D02*
X134650000Y-133350000D01*
X135056000Y-132944000D02*
X135056000Y-130302000D01*
X134650000Y-133350000D02*
X135056000Y-132944000D01*
X135056000Y-123802000D02*
X135056000Y-130302000D01*
D31*
X167640000Y-45720000D02*
X166280000Y-45720000D01*
X166280000Y-45720000D02*
X165100000Y-46900000D01*
X165100000Y-46900000D02*
X165100000Y-55300000D01*
X164200000Y-56200000D02*
X154500000Y-56200000D01*
X165100000Y-55300000D02*
X164200000Y-56200000D01*
X169292241Y-49347001D02*
X170483411Y-49347001D01*
X168727001Y-48781761D02*
X169292241Y-49347001D01*
X168727001Y-46807001D02*
X168727001Y-48781761D01*
X170483411Y-49347001D02*
X178500000Y-57363590D01*
X167640000Y-45720000D02*
X168727001Y-46807001D01*
X178500000Y-87600000D02*
X172100000Y-94000000D01*
X178500000Y-57363590D02*
X178500000Y-87600000D01*
X171150000Y-133350000D02*
X133629500Y-133350000D01*
X172700000Y-98200000D02*
X174525009Y-100025009D01*
X174525009Y-100025009D02*
X174525009Y-108274991D01*
X174525009Y-108274991D02*
X173800000Y-109000000D01*
X172250009Y-132249991D02*
X171150000Y-133350000D01*
X171000000Y-113000000D02*
X172250009Y-114250009D01*
X172700000Y-109000000D02*
X171300000Y-107600000D01*
X166100000Y-108700000D02*
X166100000Y-112100000D01*
X166100000Y-112100000D02*
X167000000Y-113000000D01*
X171300000Y-107600000D02*
X167200000Y-107600000D01*
X167200000Y-107600000D02*
X166100000Y-108700000D01*
X167000000Y-113000000D02*
X171000000Y-113000000D01*
X173800000Y-109000000D02*
X172700000Y-109000000D01*
X172250009Y-114250009D02*
X172250009Y-132249991D01*
%TO.N,/Reader_SerialRx*%
X127500000Y-96900000D02*
X134400000Y-90000000D01*
X127500000Y-99500000D02*
X127500000Y-96900000D01*
X142100000Y-88400000D02*
X144600000Y-85900000D01*
X139000000Y-88400000D02*
X142100000Y-88400000D01*
X151106315Y-84328000D02*
X151827000Y-84328000D01*
X149700000Y-85734315D02*
X151106315Y-84328000D01*
X149700000Y-86300000D02*
X149700000Y-85734315D01*
X129300000Y-115599996D02*
X129600000Y-115899996D01*
X129300000Y-109700000D02*
X129300000Y-115599996D01*
X156320190Y-79479810D02*
X156320190Y-80579810D01*
X155325000Y-81575000D02*
X155325000Y-84400000D01*
X156320190Y-80579810D02*
X155325000Y-81575000D01*
X151899000Y-84400000D02*
X151827000Y-84328000D01*
X153700000Y-84400000D02*
X151899000Y-84400000D01*
X160328000Y-60128000D02*
X162700000Y-62500000D01*
X156972000Y-58928000D02*
X158172000Y-60128000D01*
X158172000Y-60128000D02*
X160328000Y-60128000D01*
X162700000Y-62500000D02*
X162700000Y-72000002D01*
X162700000Y-72000002D02*
X158000000Y-76700002D01*
D32*
%TO.N,Net-(J4-Pad2)*%
X154940000Y-146558000D02*
X131670000Y-146558000D01*
%TO.N,Net-(J5-Pad2)*%
X135810000Y-164470000D02*
X136450000Y-163830000D01*
X131670000Y-164470000D02*
X135810000Y-164470000D01*
%TO.N,Net-(J5-Pad1)*%
X133637990Y-160660000D02*
X134785990Y-159512000D01*
X131670000Y-160660000D02*
X133637990Y-160660000D01*
D31*
%TO.N,I2C_SDA*%
X155448000Y-109728000D02*
X155194000Y-109474000D01*
X155448000Y-112242500D02*
X155448000Y-109728000D01*
X124460000Y-68580000D02*
X124460000Y-99860000D01*
X124460000Y-99860000D02*
X127800000Y-103200000D01*
%TO.N,I2C_SCL*%
X152654000Y-112242500D02*
X152654000Y-109474000D01*
X124460000Y-66040000D02*
X125547001Y-67127001D01*
X128600000Y-102200000D02*
X128600000Y-103925010D01*
X125547001Y-99147001D02*
X128600000Y-102200000D01*
X125547001Y-67127001D02*
X125547001Y-99147001D01*
%TO.N,/LED_R_Trigger*%
X142077500Y-111440000D02*
X142240000Y-111277500D01*
X140192000Y-111440000D02*
X142077500Y-111440000D01*
X155240000Y-116840000D02*
X153800000Y-115400000D01*
X145462500Y-114500000D02*
X142240000Y-111277500D01*
X145500000Y-114500000D02*
X145462500Y-114500000D01*
X145900000Y-114900000D02*
X145500000Y-114500000D01*
X151500000Y-114900000D02*
X145900000Y-114900000D01*
X160860000Y-116840000D02*
X161700000Y-116000000D01*
X155240000Y-116840000D02*
X160860000Y-116840000D01*
X162540000Y-116840000D02*
X167640000Y-116840000D01*
X161700000Y-116000000D02*
X162540000Y-116840000D01*
X161700000Y-116000000D02*
X161700000Y-115000002D01*
X161700000Y-115000002D02*
X161699998Y-115000000D01*
X158625000Y-99300000D02*
X158625000Y-109825000D01*
X158625000Y-109825000D02*
X161700000Y-112900000D01*
X159324000Y-72602994D02*
X156674996Y-75251998D01*
X160026187Y-93100869D02*
X159626188Y-93500868D01*
X156674996Y-76547998D02*
X160026187Y-79899189D01*
X156674996Y-75251998D02*
X156674996Y-76547998D01*
X160026187Y-79899189D02*
X160026187Y-93100869D01*
X159324000Y-67802000D02*
X159324000Y-72602994D01*
%TO.N,/LED_G_Trigger*%
X142077500Y-116520000D02*
X142240000Y-116357500D01*
X140446000Y-116520000D02*
X142077500Y-116520000D01*
X156180000Y-119380000D02*
X153700000Y-116900000D01*
X167640000Y-119380000D02*
X156180000Y-119380000D01*
X142482500Y-116600000D02*
X142240000Y-116357500D01*
X151000000Y-116600000D02*
X142482500Y-116600000D01*
X148938999Y-113038999D02*
X148938999Y-108235682D01*
X149900000Y-114000000D02*
X148938999Y-113038999D01*
X148938999Y-108235682D02*
X157083486Y-100091195D01*
X158154275Y-79354275D02*
X158154275Y-92028955D01*
X148656000Y-69856000D02*
X158154275Y-79354275D01*
X148656000Y-67548000D02*
X148656000Y-69856000D01*
%TO.N,/LED_B_Trigger*%
X142077500Y-122362000D02*
X142240000Y-122199500D01*
X140446000Y-122362000D02*
X142077500Y-122362000D01*
X167360500Y-122199500D02*
X167640000Y-121920000D01*
X142240000Y-122199500D02*
X167360500Y-122199500D01*
X168727001Y-118492241D02*
X168727001Y-120832999D01*
X168727001Y-120832999D02*
X167640000Y-121920000D01*
X168334759Y-118099999D02*
X168727001Y-118492241D01*
X159799999Y-118099999D02*
X168334759Y-118099999D01*
X159400000Y-117700000D02*
X159799999Y-118099999D01*
X157900000Y-112700000D02*
X157900000Y-102300000D01*
X157900000Y-102300000D02*
X157000000Y-101400000D01*
X158919073Y-79482663D02*
X158919073Y-92793754D01*
X154244000Y-74807590D02*
X158919073Y-79482663D01*
X154244000Y-67802000D02*
X154244000Y-74807590D01*
%TO.N,Net-(Q4-Pad3)*%
X135661500Y-110490000D02*
X135407500Y-110236000D01*
X138192000Y-110490000D02*
X135661500Y-110490000D01*
%TO.N,Net-(Q5-Pad3)*%
X137717001Y-114841001D02*
X131685999Y-114841001D01*
X138446000Y-115570000D02*
X137717001Y-114841001D01*
X131685999Y-114841001D02*
X130875013Y-114030015D01*
X130875013Y-111161487D02*
X132080000Y-109956500D01*
X130875013Y-114030015D02*
X130875013Y-111161487D01*
%TO.N,Net-(Q6-Pad3)*%
X136842500Y-121412000D02*
X138446000Y-121412000D01*
X134810500Y-119380000D02*
X136842500Y-121412000D01*
X133883500Y-119380000D02*
X134810500Y-119380000D01*
%TO.N,/ToolEnable*%
X168727001Y-110307001D02*
X175707001Y-110307001D01*
X167640000Y-109220000D02*
X168727001Y-110307001D01*
X175707001Y-110307001D02*
X177700000Y-112300000D01*
X177700000Y-112300000D02*
X177700000Y-136100000D01*
X176640000Y-137160000D02*
X166903500Y-137160000D01*
X177700000Y-136100000D02*
X176640000Y-137160000D01*
X167066000Y-137322500D02*
X166903500Y-137160000D01*
X167066000Y-139970000D02*
X167066000Y-137322500D01*
%TO.N,/~DoorRelease*%
X162600000Y-104459500D02*
X162280500Y-104140000D01*
X162600000Y-106200000D02*
X162600000Y-104459500D01*
X171800000Y-116600000D02*
X171800000Y-131400000D01*
X171800000Y-131400000D02*
X171120000Y-132080000D01*
X166700000Y-115600000D02*
X170800000Y-115600000D01*
X171120000Y-132080000D02*
X170180000Y-132080000D01*
X165200000Y-114100000D02*
X166700000Y-115600000D01*
X170800000Y-115600000D02*
X171800000Y-116600000D01*
X165200000Y-106300000D02*
X165200000Y-114100000D01*
%TO.N,/SPIFlash_CS*%
X132899500Y-54584500D02*
X133052000Y-54737000D01*
X130302000Y-54584500D02*
X132899500Y-54584500D01*
X129400000Y-55486500D02*
X130302000Y-54584500D01*
X129400000Y-60084000D02*
X129400000Y-55486500D01*
X128524000Y-60960000D02*
X129400000Y-60084000D01*
X127000000Y-60960000D02*
X128524000Y-60960000D01*
%TO.N,/~ToolOn*%
X129463800Y-49530000D02*
X130048000Y-48945800D01*
X124460000Y-48260000D02*
X125730000Y-49530000D01*
X142950000Y-163830000D02*
X171670000Y-163830000D01*
X177750001Y-157749999D02*
X177750001Y-141850001D01*
X171670000Y-163830000D02*
X177750001Y-157749999D01*
D30*
X174300000Y-138400000D02*
X174300000Y-138100000D01*
D31*
X177750001Y-141850001D02*
X174300000Y-138400000D01*
X173800000Y-135100000D02*
X173800000Y-111500000D01*
X174200000Y-135500000D02*
X173800000Y-135100000D01*
X128675000Y-50375000D02*
X127830000Y-49530000D01*
X128675000Y-58900000D02*
X128675000Y-50375000D01*
X127830000Y-49530000D02*
X129463800Y-49530000D01*
X125730000Y-49530000D02*
X127830000Y-49530000D01*
X171300000Y-98300000D02*
X173600000Y-100600000D01*
X173600000Y-100600000D02*
X173600000Y-108100000D01*
X130400000Y-61400000D02*
X143300000Y-74300000D01*
X143300000Y-74300000D02*
X149000000Y-74300000D01*
X152065685Y-74200000D02*
X150800000Y-74200000D01*
X170200000Y-94100002D02*
X169464186Y-94835816D01*
X169464186Y-94835816D02*
X159935816Y-94835816D01*
X159935816Y-94835816D02*
X157400000Y-92300000D01*
X157400000Y-92300000D02*
X157400000Y-79534315D01*
X157400000Y-79534315D02*
X152065685Y-74200000D01*
D32*
%TO.N,Net-(R11-Pad1)*%
X136985998Y-160423274D02*
X136985998Y-159512000D01*
X136985998Y-160754002D02*
X136985998Y-160423274D01*
X136450000Y-161290000D02*
X136985998Y-160754002D01*
D31*
%TO.N,~Reset*%
X162900000Y-82500000D02*
X169400000Y-82500000D01*
X176380000Y-55880000D02*
X170180000Y-55880000D01*
X177800000Y-57300000D02*
X176380000Y-55880000D01*
X177800000Y-81800000D02*
X177800000Y-57300000D01*
X177100000Y-82500000D02*
X177800000Y-81800000D01*
X169400000Y-82500000D02*
X177100000Y-82500000D01*
%TO.N,/SPI_MISO*%
X137287000Y-56007000D02*
X137541000Y-56261000D01*
X133052000Y-56007000D02*
X137287000Y-56007000D01*
X166814500Y-59690000D02*
X168910000Y-59690000D01*
X164655500Y-57531000D02*
X166814500Y-59690000D01*
X150304500Y-57531000D02*
X164655500Y-57531000D01*
X148209000Y-59626500D02*
X150304500Y-57531000D01*
X168910000Y-59690000D02*
X170180000Y-60960000D01*
X138176000Y-59626500D02*
X148209000Y-59626500D01*
%TO.N,/SPI_MOSI*%
X168783000Y-57023000D02*
X170180000Y-58420000D01*
X147193000Y-57023000D02*
X168783000Y-57023000D01*
X145669000Y-58547000D02*
X147193000Y-57023000D01*
X140252000Y-58547000D02*
X145669000Y-58547000D01*
%TO.N,/SPI_Clk*%
X139452000Y-57277000D02*
X140252000Y-57277000D01*
X138563000Y-58166000D02*
X139452000Y-57277000D01*
X137029500Y-58166000D02*
X138563000Y-58166000D01*
X130200000Y-60400000D02*
X134795500Y-60400000D01*
X134795500Y-60400000D02*
X137029500Y-58166000D01*
X128306500Y-62293500D02*
X130200000Y-60400000D01*
X125793500Y-62293500D02*
X128306500Y-62293500D01*
X124460000Y-60960000D02*
X125793500Y-62293500D01*
%TD*%
D34*
%TO.N,Net-(J4-Pad1)*%
G36*
X143129000Y-144653000D02*
G01*
X129159000Y-144653000D01*
X129159000Y-143883413D01*
X130714192Y-143883413D01*
X130809956Y-144147814D01*
X131099571Y-144288704D01*
X131411108Y-144370384D01*
X131732595Y-144389718D01*
X132051675Y-144345961D01*
X132356088Y-144240795D01*
X132530044Y-144147814D01*
X132625808Y-143883413D01*
X131670000Y-142927605D01*
X130714192Y-143883413D01*
X129159000Y-143883413D01*
X129159000Y-142810595D01*
X130028282Y-142810595D01*
X130072039Y-143129675D01*
X130177205Y-143434088D01*
X130270186Y-143608044D01*
X130534587Y-143703808D01*
X131490395Y-142748000D01*
X131849605Y-142748000D01*
X132805413Y-143703808D01*
X133069814Y-143608044D01*
X133210704Y-143318429D01*
X133292384Y-143006892D01*
X133311718Y-142685405D01*
X133267961Y-142366325D01*
X133162795Y-142061912D01*
X133129518Y-141999653D01*
X139477952Y-141999653D01*
X139633962Y-142315214D01*
X140008745Y-142506020D01*
X140413551Y-142620044D01*
X140832824Y-142652902D01*
X141250451Y-142603334D01*
X141650383Y-142473243D01*
X141946038Y-142315214D01*
X142102048Y-141999653D01*
X140790000Y-140687605D01*
X139477952Y-141999653D01*
X133129518Y-141999653D01*
X133069814Y-141887956D01*
X132805413Y-141792192D01*
X131849605Y-142748000D01*
X131490395Y-142748000D01*
X130534587Y-141792192D01*
X130270186Y-141887956D01*
X130129296Y-142177571D01*
X130047616Y-142489108D01*
X130028282Y-142810595D01*
X129159000Y-142810595D01*
X129159000Y-141612587D01*
X130714192Y-141612587D01*
X131670000Y-142568395D01*
X132625808Y-141612587D01*
X132530044Y-141348186D01*
X132240429Y-141207296D01*
X131928892Y-141125616D01*
X131607405Y-141106282D01*
X131288325Y-141150039D01*
X130983912Y-141255205D01*
X130809956Y-141348186D01*
X130714192Y-141612587D01*
X129159000Y-141612587D01*
X129159000Y-140550824D01*
X138645098Y-140550824D01*
X138694666Y-140968451D01*
X138824757Y-141368383D01*
X138982786Y-141664038D01*
X139298347Y-141820048D01*
X140610395Y-140508000D01*
X140969605Y-140508000D01*
X142281653Y-141820048D01*
X142597214Y-141664038D01*
X142788020Y-141289255D01*
X142902044Y-140884449D01*
X142934902Y-140465176D01*
X142885334Y-140047549D01*
X142755243Y-139647617D01*
X142597214Y-139351962D01*
X142281653Y-139195952D01*
X140969605Y-140508000D01*
X140610395Y-140508000D01*
X139298347Y-139195952D01*
X138982786Y-139351962D01*
X138791980Y-139726745D01*
X138677956Y-140131551D01*
X138645098Y-140550824D01*
X129159000Y-140550824D01*
X129159000Y-139016347D01*
X139477952Y-139016347D01*
X140790000Y-140328395D01*
X142102048Y-139016347D01*
X141946038Y-138700786D01*
X141571255Y-138509980D01*
X141166449Y-138395956D01*
X140747176Y-138363098D01*
X140329549Y-138412666D01*
X139929617Y-138542757D01*
X139633962Y-138700786D01*
X139477952Y-139016347D01*
X129159000Y-139016347D01*
X129159000Y-136804000D01*
X143129000Y-136804000D01*
X143129000Y-144653000D01*
G37*
X143129000Y-144653000D02*
X129159000Y-144653000D01*
X129159000Y-143883413D01*
X130714192Y-143883413D01*
X130809956Y-144147814D01*
X131099571Y-144288704D01*
X131411108Y-144370384D01*
X131732595Y-144389718D01*
X132051675Y-144345961D01*
X132356088Y-144240795D01*
X132530044Y-144147814D01*
X132625808Y-143883413D01*
X131670000Y-142927605D01*
X130714192Y-143883413D01*
X129159000Y-143883413D01*
X129159000Y-142810595D01*
X130028282Y-142810595D01*
X130072039Y-143129675D01*
X130177205Y-143434088D01*
X130270186Y-143608044D01*
X130534587Y-143703808D01*
X131490395Y-142748000D01*
X131849605Y-142748000D01*
X132805413Y-143703808D01*
X133069814Y-143608044D01*
X133210704Y-143318429D01*
X133292384Y-143006892D01*
X133311718Y-142685405D01*
X133267961Y-142366325D01*
X133162795Y-142061912D01*
X133129518Y-141999653D01*
X139477952Y-141999653D01*
X139633962Y-142315214D01*
X140008745Y-142506020D01*
X140413551Y-142620044D01*
X140832824Y-142652902D01*
X141250451Y-142603334D01*
X141650383Y-142473243D01*
X141946038Y-142315214D01*
X142102048Y-141999653D01*
X140790000Y-140687605D01*
X139477952Y-141999653D01*
X133129518Y-141999653D01*
X133069814Y-141887956D01*
X132805413Y-141792192D01*
X131849605Y-142748000D01*
X131490395Y-142748000D01*
X130534587Y-141792192D01*
X130270186Y-141887956D01*
X130129296Y-142177571D01*
X130047616Y-142489108D01*
X130028282Y-142810595D01*
X129159000Y-142810595D01*
X129159000Y-141612587D01*
X130714192Y-141612587D01*
X131670000Y-142568395D01*
X132625808Y-141612587D01*
X132530044Y-141348186D01*
X132240429Y-141207296D01*
X131928892Y-141125616D01*
X131607405Y-141106282D01*
X131288325Y-141150039D01*
X130983912Y-141255205D01*
X130809956Y-141348186D01*
X130714192Y-141612587D01*
X129159000Y-141612587D01*
X129159000Y-140550824D01*
X138645098Y-140550824D01*
X138694666Y-140968451D01*
X138824757Y-141368383D01*
X138982786Y-141664038D01*
X139298347Y-141820048D01*
X140610395Y-140508000D01*
X140969605Y-140508000D01*
X142281653Y-141820048D01*
X142597214Y-141664038D01*
X142788020Y-141289255D01*
X142902044Y-140884449D01*
X142934902Y-140465176D01*
X142885334Y-140047549D01*
X142755243Y-139647617D01*
X142597214Y-139351962D01*
X142281653Y-139195952D01*
X140969605Y-140508000D01*
X140610395Y-140508000D01*
X139298347Y-139195952D01*
X138982786Y-139351962D01*
X138791980Y-139726745D01*
X138677956Y-140131551D01*
X138645098Y-140550824D01*
X129159000Y-140550824D01*
X129159000Y-139016347D01*
X139477952Y-139016347D01*
X140790000Y-140328395D01*
X142102048Y-139016347D01*
X141946038Y-138700786D01*
X141571255Y-138509980D01*
X141166449Y-138395956D01*
X140747176Y-138363098D01*
X140329549Y-138412666D01*
X139929617Y-138542757D01*
X139633962Y-138700786D01*
X139477952Y-139016347D01*
X129159000Y-139016347D01*
X129159000Y-136804000D01*
X143129000Y-136804000D01*
X143129000Y-144653000D01*
%TO.N,Net-(J4-Pad3)*%
G36*
X143129000Y-154813000D02*
G01*
X129159000Y-154813000D01*
X129159000Y-154049653D01*
X139427952Y-154049653D01*
X139583962Y-154365214D01*
X139958745Y-154556020D01*
X140363551Y-154670044D01*
X140782824Y-154702902D01*
X141200451Y-154653334D01*
X141600383Y-154523243D01*
X141896038Y-154365214D01*
X142052048Y-154049653D01*
X140740000Y-152737605D01*
X139427952Y-154049653D01*
X129159000Y-154049653D01*
X129159000Y-152600824D01*
X138595098Y-152600824D01*
X138644666Y-153018451D01*
X138774757Y-153418383D01*
X138932786Y-153714038D01*
X139248347Y-153870048D01*
X140560395Y-152558000D01*
X140919605Y-152558000D01*
X142231653Y-153870048D01*
X142547214Y-153714038D01*
X142738020Y-153339255D01*
X142852044Y-152934449D01*
X142884902Y-152515176D01*
X142835334Y-152097549D01*
X142705243Y-151697617D01*
X142547214Y-151401962D01*
X142231653Y-151245952D01*
X140919605Y-152558000D01*
X140560395Y-152558000D01*
X139248347Y-151245952D01*
X138932786Y-151401962D01*
X138741980Y-151776745D01*
X138627956Y-152181551D01*
X138595098Y-152600824D01*
X129159000Y-152600824D01*
X129159000Y-151503413D01*
X130714192Y-151503413D01*
X130809956Y-151767814D01*
X131099571Y-151908704D01*
X131411108Y-151990384D01*
X131732595Y-152009718D01*
X132051675Y-151965961D01*
X132356088Y-151860795D01*
X132530044Y-151767814D01*
X132625808Y-151503413D01*
X131670000Y-150547605D01*
X130714192Y-151503413D01*
X129159000Y-151503413D01*
X129159000Y-150430595D01*
X130028282Y-150430595D01*
X130072039Y-150749675D01*
X130177205Y-151054088D01*
X130270186Y-151228044D01*
X130534587Y-151323808D01*
X131490395Y-150368000D01*
X131849605Y-150368000D01*
X132805413Y-151323808D01*
X133069814Y-151228044D01*
X133148475Y-151066347D01*
X139427952Y-151066347D01*
X140740000Y-152378395D01*
X142052048Y-151066347D01*
X141896038Y-150750786D01*
X141521255Y-150559980D01*
X141116449Y-150445956D01*
X140697176Y-150413098D01*
X140279549Y-150462666D01*
X139879617Y-150592757D01*
X139583962Y-150750786D01*
X139427952Y-151066347D01*
X133148475Y-151066347D01*
X133210704Y-150938429D01*
X133292384Y-150626892D01*
X133311718Y-150305405D01*
X133267961Y-149986325D01*
X133162795Y-149681912D01*
X133069814Y-149507956D01*
X132805413Y-149412192D01*
X131849605Y-150368000D01*
X131490395Y-150368000D01*
X130534587Y-149412192D01*
X130270186Y-149507956D01*
X130129296Y-149797571D01*
X130047616Y-150109108D01*
X130028282Y-150430595D01*
X129159000Y-150430595D01*
X129159000Y-149232587D01*
X130714192Y-149232587D01*
X131670000Y-150188395D01*
X132625808Y-149232587D01*
X132530044Y-148968186D01*
X132240429Y-148827296D01*
X131928892Y-148745616D01*
X131607405Y-148726282D01*
X131288325Y-148770039D01*
X130983912Y-148875205D01*
X130809956Y-148968186D01*
X130714192Y-149232587D01*
X129159000Y-149232587D01*
X129159000Y-148463000D01*
X143129000Y-148463000D01*
X143129000Y-154813000D01*
G37*
X143129000Y-154813000D02*
X129159000Y-154813000D01*
X129159000Y-154049653D01*
X139427952Y-154049653D01*
X139583962Y-154365214D01*
X139958745Y-154556020D01*
X140363551Y-154670044D01*
X140782824Y-154702902D01*
X141200451Y-154653334D01*
X141600383Y-154523243D01*
X141896038Y-154365214D01*
X142052048Y-154049653D01*
X140740000Y-152737605D01*
X139427952Y-154049653D01*
X129159000Y-154049653D01*
X129159000Y-152600824D01*
X138595098Y-152600824D01*
X138644666Y-153018451D01*
X138774757Y-153418383D01*
X138932786Y-153714038D01*
X139248347Y-153870048D01*
X140560395Y-152558000D01*
X140919605Y-152558000D01*
X142231653Y-153870048D01*
X142547214Y-153714038D01*
X142738020Y-153339255D01*
X142852044Y-152934449D01*
X142884902Y-152515176D01*
X142835334Y-152097549D01*
X142705243Y-151697617D01*
X142547214Y-151401962D01*
X142231653Y-151245952D01*
X140919605Y-152558000D01*
X140560395Y-152558000D01*
X139248347Y-151245952D01*
X138932786Y-151401962D01*
X138741980Y-151776745D01*
X138627956Y-152181551D01*
X138595098Y-152600824D01*
X129159000Y-152600824D01*
X129159000Y-151503413D01*
X130714192Y-151503413D01*
X130809956Y-151767814D01*
X131099571Y-151908704D01*
X131411108Y-151990384D01*
X131732595Y-152009718D01*
X132051675Y-151965961D01*
X132356088Y-151860795D01*
X132530044Y-151767814D01*
X132625808Y-151503413D01*
X131670000Y-150547605D01*
X130714192Y-151503413D01*
X129159000Y-151503413D01*
X129159000Y-150430595D01*
X130028282Y-150430595D01*
X130072039Y-150749675D01*
X130177205Y-151054088D01*
X130270186Y-151228044D01*
X130534587Y-151323808D01*
X131490395Y-150368000D01*
X131849605Y-150368000D01*
X132805413Y-151323808D01*
X133069814Y-151228044D01*
X133148475Y-151066347D01*
X139427952Y-151066347D01*
X140740000Y-152378395D01*
X142052048Y-151066347D01*
X141896038Y-150750786D01*
X141521255Y-150559980D01*
X141116449Y-150445956D01*
X140697176Y-150413098D01*
X140279549Y-150462666D01*
X139879617Y-150592757D01*
X139583962Y-150750786D01*
X139427952Y-151066347D01*
X133148475Y-151066347D01*
X133210704Y-150938429D01*
X133292384Y-150626892D01*
X133311718Y-150305405D01*
X133267961Y-149986325D01*
X133162795Y-149681912D01*
X133069814Y-149507956D01*
X132805413Y-149412192D01*
X131849605Y-150368000D01*
X131490395Y-150368000D01*
X130534587Y-149412192D01*
X130270186Y-149507956D01*
X130129296Y-149797571D01*
X130047616Y-150109108D01*
X130028282Y-150430595D01*
X129159000Y-150430595D01*
X129159000Y-149232587D01*
X130714192Y-149232587D01*
X131670000Y-150188395D01*
X132625808Y-149232587D01*
X132530044Y-148968186D01*
X132240429Y-148827296D01*
X131928892Y-148745616D01*
X131607405Y-148726282D01*
X131288325Y-148770039D01*
X130983912Y-148875205D01*
X130809956Y-148968186D01*
X130714192Y-149232587D01*
X129159000Y-149232587D01*
X129159000Y-148463000D01*
X143129000Y-148463000D01*
X143129000Y-154813000D01*
%TO.N,Net-(J3-Pad2)*%
G36*
X143129000Y-99949000D02*
G01*
X143131440Y-99973776D01*
X143138667Y-99997601D01*
X143150403Y-100019557D01*
X143166197Y-100038803D01*
X143185443Y-100054597D01*
X143207399Y-100066333D01*
X143231224Y-100073560D01*
X143256000Y-100076000D01*
X144201541Y-100076000D01*
X144297061Y-100095000D01*
X144500939Y-100095000D01*
X144596459Y-100076000D01*
X145344541Y-100076000D01*
X145415000Y-100090015D01*
X145415000Y-104013000D01*
X130683000Y-104013000D01*
X130683000Y-103415852D01*
X132341753Y-103415852D01*
X132470076Y-103707871D01*
X132805695Y-103875723D01*
X133167611Y-103974874D01*
X133541916Y-104001514D01*
X133914227Y-103954618D01*
X134270235Y-103835988D01*
X134509924Y-103707871D01*
X134638247Y-103415852D01*
X133490000Y-102267605D01*
X132341753Y-103415852D01*
X130683000Y-103415852D01*
X130683000Y-102139916D01*
X131576486Y-102139916D01*
X131623382Y-102512227D01*
X131742012Y-102868235D01*
X131870129Y-103107924D01*
X132162148Y-103236247D01*
X133310395Y-102088000D01*
X133669605Y-102088000D01*
X134817852Y-103236247D01*
X135109871Y-103107924D01*
X135277723Y-102772305D01*
X135376874Y-102410389D01*
X135403514Y-102036084D01*
X135356618Y-101663773D01*
X135237988Y-101307765D01*
X135109871Y-101068076D01*
X134817852Y-100939753D01*
X133669605Y-102088000D01*
X133310395Y-102088000D01*
X132162148Y-100939753D01*
X131870129Y-101068076D01*
X131702277Y-101403695D01*
X131603126Y-101765611D01*
X131576486Y-102139916D01*
X130683000Y-102139916D01*
X130683000Y-100760148D01*
X132341753Y-100760148D01*
X133490000Y-101908395D01*
X134638247Y-100760148D01*
X134509924Y-100468129D01*
X134174305Y-100300277D01*
X133812389Y-100201126D01*
X133438084Y-100174486D01*
X133065773Y-100221382D01*
X132709765Y-100340012D01*
X132470076Y-100468129D01*
X132341753Y-100760148D01*
X130683000Y-100760148D01*
X130683000Y-99695000D01*
X141097000Y-99695000D01*
X141121776Y-99692560D01*
X141145601Y-99685333D01*
X141167557Y-99673597D01*
X141186803Y-99657803D01*
X141202597Y-99638557D01*
X141214333Y-99616601D01*
X141221560Y-99592776D01*
X141224000Y-99568000D01*
X141224000Y-98157853D01*
X141340004Y-98122664D01*
X141449787Y-98063983D01*
X141546013Y-97985013D01*
X141624983Y-97888787D01*
X141683664Y-97779004D01*
X141719799Y-97659882D01*
X141732000Y-97536000D01*
X141732000Y-94615000D01*
X143129000Y-94615000D01*
X143129000Y-99949000D01*
G37*
X143129000Y-99949000D02*
X143131440Y-99973776D01*
X143138667Y-99997601D01*
X143150403Y-100019557D01*
X143166197Y-100038803D01*
X143185443Y-100054597D01*
X143207399Y-100066333D01*
X143231224Y-100073560D01*
X143256000Y-100076000D01*
X144201541Y-100076000D01*
X144297061Y-100095000D01*
X144500939Y-100095000D01*
X144596459Y-100076000D01*
X145344541Y-100076000D01*
X145415000Y-100090015D01*
X145415000Y-104013000D01*
X130683000Y-104013000D01*
X130683000Y-103415852D01*
X132341753Y-103415852D01*
X132470076Y-103707871D01*
X132805695Y-103875723D01*
X133167611Y-103974874D01*
X133541916Y-104001514D01*
X133914227Y-103954618D01*
X134270235Y-103835988D01*
X134509924Y-103707871D01*
X134638247Y-103415852D01*
X133490000Y-102267605D01*
X132341753Y-103415852D01*
X130683000Y-103415852D01*
X130683000Y-102139916D01*
X131576486Y-102139916D01*
X131623382Y-102512227D01*
X131742012Y-102868235D01*
X131870129Y-103107924D01*
X132162148Y-103236247D01*
X133310395Y-102088000D01*
X133669605Y-102088000D01*
X134817852Y-103236247D01*
X135109871Y-103107924D01*
X135277723Y-102772305D01*
X135376874Y-102410389D01*
X135403514Y-102036084D01*
X135356618Y-101663773D01*
X135237988Y-101307765D01*
X135109871Y-101068076D01*
X134817852Y-100939753D01*
X133669605Y-102088000D01*
X133310395Y-102088000D01*
X132162148Y-100939753D01*
X131870129Y-101068076D01*
X131702277Y-101403695D01*
X131603126Y-101765611D01*
X131576486Y-102139916D01*
X130683000Y-102139916D01*
X130683000Y-100760148D01*
X132341753Y-100760148D01*
X133490000Y-101908395D01*
X134638247Y-100760148D01*
X134509924Y-100468129D01*
X134174305Y-100300277D01*
X133812389Y-100201126D01*
X133438084Y-100174486D01*
X133065773Y-100221382D01*
X132709765Y-100340012D01*
X132470076Y-100468129D01*
X132341753Y-100760148D01*
X130683000Y-100760148D01*
X130683000Y-99695000D01*
X141097000Y-99695000D01*
X141121776Y-99692560D01*
X141145601Y-99685333D01*
X141167557Y-99673597D01*
X141186803Y-99657803D01*
X141202597Y-99638557D01*
X141214333Y-99616601D01*
X141221560Y-99592776D01*
X141224000Y-99568000D01*
X141224000Y-98157853D01*
X141340004Y-98122664D01*
X141449787Y-98063983D01*
X141546013Y-97985013D01*
X141624983Y-97888787D01*
X141683664Y-97779004D01*
X141719799Y-97659882D01*
X141732000Y-97536000D01*
X141732000Y-94615000D01*
X143129000Y-94615000D01*
X143129000Y-99949000D01*
%TO.N,+12V*%
G36*
X140336201Y-91911003D02*
G01*
X140359999Y-91940001D01*
X140388997Y-91963799D01*
X140475723Y-92034974D01*
X140607753Y-92105546D01*
X140751014Y-92149003D01*
X140862667Y-92160000D01*
X140862676Y-92160000D01*
X140899999Y-92163676D01*
X140937322Y-92160000D01*
X146457418Y-92160000D01*
X146494740Y-92163676D01*
X146532062Y-92160000D01*
X146532073Y-92160000D01*
X146643726Y-92149003D01*
X146786987Y-92105546D01*
X146919016Y-92034974D01*
X147034741Y-91940001D01*
X147058544Y-91910997D01*
X147148541Y-91821000D01*
X149733000Y-91821000D01*
X149733000Y-97409000D01*
X146939000Y-97409000D01*
X146939000Y-93726000D01*
X146936560Y-93701224D01*
X146929333Y-93677399D01*
X146917597Y-93655443D01*
X146901803Y-93636197D01*
X146882557Y-93620403D01*
X146860601Y-93608667D01*
X146836776Y-93601440D01*
X146812000Y-93599000D01*
X141097000Y-93599000D01*
X141072224Y-93601440D01*
X141048399Y-93608667D01*
X141026443Y-93620403D01*
X141007197Y-93636197D01*
X140991403Y-93655443D01*
X140979667Y-93677399D01*
X140972440Y-93701224D01*
X140970000Y-93726000D01*
X140970000Y-94288667D01*
X140959463Y-94301506D01*
X140900498Y-94411820D01*
X140864188Y-94531518D01*
X140851928Y-94656000D01*
X140851928Y-96656000D01*
X140864188Y-96780482D01*
X140900498Y-96900180D01*
X140959463Y-97010494D01*
X140970000Y-97023333D01*
X140970000Y-97409000D01*
X138557000Y-97409000D01*
X138557000Y-91821000D01*
X140246198Y-91821000D01*
X140336201Y-91911003D01*
G37*
X140336201Y-91911003D02*
X140359999Y-91940001D01*
X140388997Y-91963799D01*
X140475723Y-92034974D01*
X140607753Y-92105546D01*
X140751014Y-92149003D01*
X140862667Y-92160000D01*
X140862676Y-92160000D01*
X140899999Y-92163676D01*
X140937322Y-92160000D01*
X146457418Y-92160000D01*
X146494740Y-92163676D01*
X146532062Y-92160000D01*
X146532073Y-92160000D01*
X146643726Y-92149003D01*
X146786987Y-92105546D01*
X146919016Y-92034974D01*
X147034741Y-91940001D01*
X147058544Y-91910997D01*
X147148541Y-91821000D01*
X149733000Y-91821000D01*
X149733000Y-97409000D01*
X146939000Y-97409000D01*
X146939000Y-93726000D01*
X146936560Y-93701224D01*
X146929333Y-93677399D01*
X146917597Y-93655443D01*
X146901803Y-93636197D01*
X146882557Y-93620403D01*
X146860601Y-93608667D01*
X146836776Y-93601440D01*
X146812000Y-93599000D01*
X141097000Y-93599000D01*
X141072224Y-93601440D01*
X141048399Y-93608667D01*
X141026443Y-93620403D01*
X141007197Y-93636197D01*
X140991403Y-93655443D01*
X140979667Y-93677399D01*
X140972440Y-93701224D01*
X140970000Y-93726000D01*
X140970000Y-94288667D01*
X140959463Y-94301506D01*
X140900498Y-94411820D01*
X140864188Y-94531518D01*
X140851928Y-94656000D01*
X140851928Y-96656000D01*
X140864188Y-96780482D01*
X140900498Y-96900180D01*
X140959463Y-97010494D01*
X140970000Y-97023333D01*
X140970000Y-97409000D01*
X138557000Y-97409000D01*
X138557000Y-91821000D01*
X140246198Y-91821000D01*
X140336201Y-91911003D01*
%TO.N,GND*%
G36*
X155697113Y-96673000D02*
G01*
X153124613Y-96673000D01*
X153129387Y-91313000D01*
X155701887Y-91313000D01*
X155697113Y-96673000D01*
G37*
X155697113Y-96673000D02*
X153124613Y-96673000D01*
X153129387Y-91313000D01*
X155701887Y-91313000D01*
X155697113Y-96673000D01*
G36*
X146046787Y-94487945D02*
G01*
X145926137Y-99313945D01*
X143927000Y-99313056D01*
X143927000Y-94487053D01*
X146046787Y-94487945D01*
G37*
X146046787Y-94487945D02*
X145926137Y-99313945D01*
X143927000Y-99313056D01*
X143927000Y-94487053D01*
X146046787Y-94487945D01*
%TO.N,/~DoorRelease*%
G36*
X162941000Y-103387411D02*
G01*
X162924329Y-103407725D01*
X162845150Y-103555858D01*
X162796392Y-103716592D01*
X162779928Y-103883750D01*
X162779928Y-104396250D01*
X162796392Y-104563408D01*
X162845150Y-104724142D01*
X162872334Y-104775000D01*
X161163000Y-104775000D01*
X161163000Y-101473000D01*
X162941000Y-101473000D01*
X162941000Y-103387411D01*
G37*
X162941000Y-103387411D02*
X162924329Y-103407725D01*
X162845150Y-103555858D01*
X162796392Y-103716592D01*
X162779928Y-103883750D01*
X162779928Y-104396250D01*
X162796392Y-104563408D01*
X162845150Y-104724142D01*
X162872334Y-104775000D01*
X161163000Y-104775000D01*
X161163000Y-101473000D01*
X162941000Y-101473000D01*
X162941000Y-103387411D01*
%TO.N,+3V3*%
G36*
X143002000Y-54382546D02*
G01*
X142984392Y-54440592D01*
X142983682Y-54447802D01*
X142924923Y-54641502D01*
X142903009Y-54864000D01*
X142924923Y-55086498D01*
X142973005Y-55245000D01*
X139065000Y-55245000D01*
X139065000Y-54229000D01*
X143002000Y-54229000D01*
X143002000Y-54382546D01*
G37*
X143002000Y-54382546D02*
X142984392Y-54440592D01*
X142983682Y-54447802D01*
X142924923Y-54641502D01*
X142903009Y-54864000D01*
X142924923Y-55086498D01*
X142973005Y-55245000D01*
X139065000Y-55245000D01*
X139065000Y-54229000D01*
X143002000Y-54229000D01*
X143002000Y-54382546D01*
G36*
X147828000Y-87801459D02*
G01*
X147618459Y-88011000D01*
X147310589Y-88011000D01*
X147290275Y-87994329D01*
X147142142Y-87915150D01*
X146981408Y-87866392D01*
X146974200Y-87865682D01*
X146780499Y-87806923D01*
X146558000Y-87785009D01*
X146335502Y-87806923D01*
X146141802Y-87865682D01*
X146134592Y-87866392D01*
X146050000Y-87892053D01*
X146050000Y-85265875D01*
X146052000Y-85266072D01*
X147702000Y-85266072D01*
X147828000Y-85253662D01*
X147828000Y-87801459D01*
G37*
X147828000Y-87801459D02*
X147618459Y-88011000D01*
X147310589Y-88011000D01*
X147290275Y-87994329D01*
X147142142Y-87915150D01*
X146981408Y-87866392D01*
X146974200Y-87865682D01*
X146780499Y-87806923D01*
X146558000Y-87785009D01*
X146335502Y-87806923D01*
X146141802Y-87865682D01*
X146134592Y-87866392D01*
X146050000Y-87892053D01*
X146050000Y-85265875D01*
X146052000Y-85266072D01*
X147702000Y-85266072D01*
X147828000Y-85253662D01*
X147828000Y-87801459D01*
%TO.N,+5V*%
G36*
X152137050Y-91428071D02*
G01*
X152149845Y-94301041D01*
X152149463Y-94301506D01*
X152090498Y-94411820D01*
X152054188Y-94531518D01*
X152041928Y-94656000D01*
X152041928Y-96656000D01*
X152054188Y-96780482D01*
X152090498Y-96900180D01*
X152149463Y-97010494D01*
X152161979Y-97025745D01*
X152173001Y-99500566D01*
X152175552Y-99525331D01*
X152182885Y-99549123D01*
X152194719Y-99571027D01*
X152210598Y-99590202D01*
X152229914Y-99605910D01*
X152251922Y-99617548D01*
X152275778Y-99624669D01*
X152302288Y-99626979D01*
X155448000Y-99570308D01*
X155448000Y-100651879D01*
X149483380Y-106616500D01*
X143375000Y-106616500D01*
X143375000Y-106519238D01*
X143358577Y-106352491D01*
X143293676Y-106138543D01*
X143188284Y-105941367D01*
X143046449Y-105768541D01*
X142873623Y-105626706D01*
X142676447Y-105521314D01*
X142462499Y-105456413D01*
X142240000Y-105434499D01*
X142017502Y-105456413D01*
X141803554Y-105521314D01*
X141606378Y-105626706D01*
X141433552Y-105768541D01*
X141291717Y-105941367D01*
X141186325Y-106138543D01*
X141121424Y-106352491D01*
X141105001Y-106519238D01*
X141105001Y-106616500D01*
X139255500Y-106616500D01*
X139230724Y-106618940D01*
X139206899Y-106626167D01*
X139184943Y-106637903D01*
X139165697Y-106653697D01*
X139149903Y-106672943D01*
X139138167Y-106694899D01*
X139130940Y-106718724D01*
X139128676Y-106736825D01*
X139071509Y-107823000D01*
X128651000Y-107823000D01*
X128626224Y-107825440D01*
X128602399Y-107832667D01*
X128580443Y-107844403D01*
X128561197Y-107860197D01*
X128545403Y-107879443D01*
X128533667Y-107901399D01*
X128526440Y-107925224D01*
X128524000Y-107950000D01*
X128524000Y-109012289D01*
X128496063Y-109040226D01*
X128400238Y-109183638D01*
X128401910Y-109147983D01*
X128360922Y-108875867D01*
X128267636Y-108616977D01*
X128205656Y-108501020D01*
X127965565Y-108434040D01*
X127179605Y-109220000D01*
X127965565Y-110005960D01*
X128205656Y-109938980D01*
X128266515Y-109809556D01*
X128304774Y-110001898D01*
X128382795Y-110190256D01*
X128413360Y-110236000D01*
X127771890Y-110236000D01*
X127785960Y-110185565D01*
X127000000Y-109399605D01*
X126985858Y-109413748D01*
X126806253Y-109234143D01*
X126820395Y-109220000D01*
X126034435Y-108434040D01*
X125857000Y-108483540D01*
X125857000Y-108254435D01*
X126214040Y-108254435D01*
X127000000Y-109040395D01*
X127785960Y-108254435D01*
X127718980Y-108014344D01*
X127469952Y-107897244D01*
X127202865Y-107830977D01*
X126927983Y-107818090D01*
X126655867Y-107859078D01*
X126396977Y-107952364D01*
X126281020Y-108014344D01*
X126214040Y-108254435D01*
X125857000Y-108254435D01*
X125857000Y-104775000D01*
X128009149Y-104775000D01*
X128109744Y-104842215D01*
X128298102Y-104920236D01*
X128498061Y-104960010D01*
X128701939Y-104960010D01*
X128901898Y-104920236D01*
X129090256Y-104842215D01*
X129190851Y-104775000D01*
X148653500Y-104775000D01*
X148678276Y-104772560D01*
X148702101Y-104765333D01*
X148724057Y-104753597D01*
X148743303Y-104737803D01*
X148759097Y-104718557D01*
X148770833Y-104696601D01*
X148778060Y-104672776D01*
X148780500Y-104648000D01*
X148780500Y-99631500D01*
X150177500Y-99631500D01*
X150202276Y-99629060D01*
X150226101Y-99621833D01*
X150248057Y-99610097D01*
X150267303Y-99594303D01*
X150283097Y-99575057D01*
X150294833Y-99553101D01*
X150302060Y-99529276D01*
X150304496Y-99503523D01*
X150292917Y-97998223D01*
X150309013Y-97985013D01*
X150387983Y-97888787D01*
X150446664Y-97779004D01*
X150482799Y-97659882D01*
X150495000Y-97536000D01*
X150495000Y-91694000D01*
X150482799Y-91570118D01*
X150446664Y-91450996D01*
X150410909Y-91384104D01*
X152137050Y-91428071D01*
G37*
X152137050Y-91428071D02*
X152149845Y-94301041D01*
X152149463Y-94301506D01*
X152090498Y-94411820D01*
X152054188Y-94531518D01*
X152041928Y-94656000D01*
X152041928Y-96656000D01*
X152054188Y-96780482D01*
X152090498Y-96900180D01*
X152149463Y-97010494D01*
X152161979Y-97025745D01*
X152173001Y-99500566D01*
X152175552Y-99525331D01*
X152182885Y-99549123D01*
X152194719Y-99571027D01*
X152210598Y-99590202D01*
X152229914Y-99605910D01*
X152251922Y-99617548D01*
X152275778Y-99624669D01*
X152302288Y-99626979D01*
X155448000Y-99570308D01*
X155448000Y-100651879D01*
X149483380Y-106616500D01*
X143375000Y-106616500D01*
X143375000Y-106519238D01*
X143358577Y-106352491D01*
X143293676Y-106138543D01*
X143188284Y-105941367D01*
X143046449Y-105768541D01*
X142873623Y-105626706D01*
X142676447Y-105521314D01*
X142462499Y-105456413D01*
X142240000Y-105434499D01*
X142017502Y-105456413D01*
X141803554Y-105521314D01*
X141606378Y-105626706D01*
X141433552Y-105768541D01*
X141291717Y-105941367D01*
X141186325Y-106138543D01*
X141121424Y-106352491D01*
X141105001Y-106519238D01*
X141105001Y-106616500D01*
X139255500Y-106616500D01*
X139230724Y-106618940D01*
X139206899Y-106626167D01*
X139184943Y-106637903D01*
X139165697Y-106653697D01*
X139149903Y-106672943D01*
X139138167Y-106694899D01*
X139130940Y-106718724D01*
X139128676Y-106736825D01*
X139071509Y-107823000D01*
X128651000Y-107823000D01*
X128626224Y-107825440D01*
X128602399Y-107832667D01*
X128580443Y-107844403D01*
X128561197Y-107860197D01*
X128545403Y-107879443D01*
X128533667Y-107901399D01*
X128526440Y-107925224D01*
X128524000Y-107950000D01*
X128524000Y-109012289D01*
X128496063Y-109040226D01*
X128400238Y-109183638D01*
X128401910Y-109147983D01*
X128360922Y-108875867D01*
X128267636Y-108616977D01*
X128205656Y-108501020D01*
X127965565Y-108434040D01*
X127179605Y-109220000D01*
X127965565Y-110005960D01*
X128205656Y-109938980D01*
X128266515Y-109809556D01*
X128304774Y-110001898D01*
X128382795Y-110190256D01*
X128413360Y-110236000D01*
X127771890Y-110236000D01*
X127785960Y-110185565D01*
X127000000Y-109399605D01*
X126985858Y-109413748D01*
X126806253Y-109234143D01*
X126820395Y-109220000D01*
X126034435Y-108434040D01*
X125857000Y-108483540D01*
X125857000Y-108254435D01*
X126214040Y-108254435D01*
X127000000Y-109040395D01*
X127785960Y-108254435D01*
X127718980Y-108014344D01*
X127469952Y-107897244D01*
X127202865Y-107830977D01*
X126927983Y-107818090D01*
X126655867Y-107859078D01*
X126396977Y-107952364D01*
X126281020Y-108014344D01*
X126214040Y-108254435D01*
X125857000Y-108254435D01*
X125857000Y-104775000D01*
X128009149Y-104775000D01*
X128109744Y-104842215D01*
X128298102Y-104920236D01*
X128498061Y-104960010D01*
X128701939Y-104960010D01*
X128901898Y-104920236D01*
X129090256Y-104842215D01*
X129190851Y-104775000D01*
X148653500Y-104775000D01*
X148678276Y-104772560D01*
X148702101Y-104765333D01*
X148724057Y-104753597D01*
X148743303Y-104737803D01*
X148759097Y-104718557D01*
X148770833Y-104696601D01*
X148778060Y-104672776D01*
X148780500Y-104648000D01*
X148780500Y-99631500D01*
X150177500Y-99631500D01*
X150202276Y-99629060D01*
X150226101Y-99621833D01*
X150248057Y-99610097D01*
X150267303Y-99594303D01*
X150283097Y-99575057D01*
X150294833Y-99553101D01*
X150302060Y-99529276D01*
X150304496Y-99503523D01*
X150292917Y-97998223D01*
X150309013Y-97985013D01*
X150387983Y-97888787D01*
X150446664Y-97779004D01*
X150482799Y-97659882D01*
X150495000Y-97536000D01*
X150495000Y-91694000D01*
X150482799Y-91570118D01*
X150446664Y-91450996D01*
X150410909Y-91384104D01*
X152137050Y-91428071D01*
%TD*%
M02*
