%FSLAX45Y45*%
G04 Gerber Fmt 4.5, Leading zero omitted, Abs format (unit mm)*
G04 Created by KiCad (PCBNEW (5.1.10-1-10_14)) date 2021-11-12 15:28:32*
%MOMM*%
%LPD*%
G01*
G04 APERTURE LIST*
%TA.AperFunction,Profile*%
%ADD10C,0.050000*%
%TD*%
%ADD11C,0.200000*%
%ADD12C,0.300000*%
G04 APERTURE END LIST*
D10*
X15060000Y-15400000D02*
X12319000Y-15400000D01*
X15060000Y-16891000D02*
X15060000Y-15400000D01*
X16390000Y-15920000D02*
G75*
G02*
X16390000Y-15720000I0J100000D01*
G01*
X16390000Y-15920000D02*
X17500000Y-15920000D01*
X17500000Y-15720000D02*
X16390000Y-15720000D01*
X17500000Y-15720000D02*
G75*
G02*
X17500000Y-15920000I0J-100000D01*
G01*
X16090000Y-16030000D02*
X16090000Y-16390000D01*
X16290000Y-16390000D02*
X16290000Y-16030000D01*
X16290000Y-16390000D02*
G75*
G02*
X16090000Y-16390000I-100000J0D01*
G01*
X16090000Y-16030000D02*
G75*
G02*
X16290000Y-16030000I100000J0D01*
G01*
X14976000Y-13626800D02*
X14976000Y-14185600D01*
X15077600Y-14084000D02*
X15077600Y-13626800D01*
X14976000Y-13626800D02*
G75*
G02*
X15077600Y-13626800I50800J0D01*
G01*
X12446000Y-13614400D02*
X14880000Y-13614400D01*
X14880000Y-13512800D02*
X12446000Y-13512800D01*
X12446000Y-13614400D02*
G75*
G02*
X12446000Y-13512800I0J50800D01*
G01*
X14880000Y-13512800D02*
G75*
G02*
X14880000Y-13614400I0J-50800D01*
G01*
X15890400Y-14134800D02*
X15128400Y-14134800D01*
X15128400Y-14134800D02*
G75*
G02*
X15077600Y-14084000I0J50800D01*
G01*
X15941200Y-14846000D02*
X15941200Y-14185600D01*
X15890400Y-14134800D02*
G75*
G02*
X15941200Y-14185600I0J-50800D01*
G01*
X15890400Y-14896800D02*
X15128400Y-14896800D01*
X15941200Y-14846000D02*
G75*
G02*
X15890400Y-14896800I-50800J0D01*
G01*
X15077600Y-15240000D02*
G75*
G02*
X14976000Y-15240000I-50800J0D01*
G01*
X15077600Y-14947600D02*
X15077600Y-15240000D01*
X14976000Y-14846000D02*
X14976000Y-15240000D01*
X15077600Y-14947600D02*
G75*
G02*
X15128400Y-14896800I50800J0D01*
G01*
X14976000Y-14846000D02*
G75*
G02*
X15026800Y-14795200I50800J0D01*
G01*
X15788800Y-14795200D02*
X15026800Y-14795200D01*
X15788800Y-14236400D02*
X15026800Y-14236400D01*
X15026800Y-14236400D02*
G75*
G02*
X14976000Y-14185600I0J50800D01*
G01*
X15839600Y-14744400D02*
X15839600Y-14287200D01*
X15788800Y-14236400D02*
G75*
G02*
X15839600Y-14287200I0J-50800D01*
G01*
X15839600Y-14744400D02*
G75*
G02*
X15788800Y-14795200I-50800J0D01*
G01*
X12319000Y-15400000D02*
X12319000Y-4445000D01*
X17907000Y-16891000D02*
X15060000Y-16891000D01*
X17907000Y-4445000D02*
X17907000Y-16891000D01*
X12319000Y-4445000D02*
X17907000Y-4445000D01*
D11*
X12650000Y-7080000D02*
X12690000Y-7120000D01*
X12690000Y-7080000D02*
X12650000Y-7120000D01*
X12730000Y-9930000D02*
X12770000Y-9970000D01*
X12770000Y-9930000D02*
X12730000Y-9970000D01*
X12760000Y-10300000D02*
X12800000Y-10340000D01*
X12800000Y-10300000D02*
X12760000Y-10340000D01*
X12810000Y-10030000D02*
X12850000Y-10070000D01*
X12850000Y-10030000D02*
X12810000Y-10070000D01*
X12840000Y-10372501D02*
X12880000Y-10412501D01*
X12880000Y-10372501D02*
X12840000Y-10412501D01*
X12847500Y-5870000D02*
X12887500Y-5910000D01*
X12887500Y-5870000D02*
X12847500Y-5910000D01*
X12940000Y-10960000D02*
X12980000Y-11000000D01*
X12980000Y-10960000D02*
X12940000Y-11000000D01*
X12940000Y-11570000D02*
X12980000Y-11610000D01*
X12980000Y-11570000D02*
X12940000Y-11610000D01*
X12950000Y-11680000D02*
X12990000Y-11720000D01*
X12990000Y-11680000D02*
X12950000Y-11720000D01*
X13020000Y-6120000D02*
X13060000Y-6160000D01*
X13060000Y-6120000D02*
X13020000Y-6160000D01*
X13020000Y-10870000D02*
X13060000Y-10910000D01*
X13060000Y-10870000D02*
X13020000Y-10910000D01*
X13099100Y-5834700D02*
X13139100Y-5874700D01*
X13139100Y-5834700D02*
X13099100Y-5874700D01*
X13392177Y-7967323D02*
X13432177Y-8007323D01*
X13432177Y-7967323D02*
X13392177Y-8007323D01*
X13420000Y-8980000D02*
X13460000Y-9020000D01*
X13460000Y-8980000D02*
X13420000Y-9020000D01*
X13466423Y-7893077D02*
X13506423Y-7933077D01*
X13506423Y-7893077D02*
X13466423Y-7933077D01*
X13520000Y-9070000D02*
X13560000Y-9110000D01*
X13560000Y-9070000D02*
X13520000Y-9110000D01*
X13734100Y-5606100D02*
X13774100Y-5646100D01*
X13774100Y-5606100D02*
X13734100Y-5646100D01*
X13797600Y-5942650D02*
X13837600Y-5982650D01*
X13837600Y-5942650D02*
X13797600Y-5982650D01*
X13820000Y-7080000D02*
X13860000Y-7120000D01*
X13860000Y-7080000D02*
X13820000Y-7120000D01*
X13880000Y-8820000D02*
X13920000Y-8860000D01*
X13920000Y-8820000D02*
X13880000Y-8860000D01*
X13900000Y-8950000D02*
X13940000Y-8990000D01*
X13940000Y-8950000D02*
X13900000Y-8990000D01*
X14000000Y-6980000D02*
X14040000Y-7020000D01*
X14040000Y-6980000D02*
X14000000Y-7020000D01*
X14000800Y-10787700D02*
X14040800Y-10827700D01*
X14040800Y-10787700D02*
X14000800Y-10827700D01*
X14026200Y-11283000D02*
X14066200Y-11323000D01*
X14066200Y-11283000D02*
X14026200Y-11323000D01*
X14026200Y-11898950D02*
X14066200Y-11938950D01*
X14066200Y-11898950D02*
X14026200Y-11938950D01*
X14204000Y-10756000D02*
X14244000Y-10796000D01*
X14244000Y-10756000D02*
X14204000Y-10796000D01*
X14204000Y-11321100D02*
X14244000Y-11361100D01*
X14244000Y-11321100D02*
X14204000Y-11361100D01*
X14204000Y-11905300D02*
X14244000Y-11945300D01*
X14244000Y-11905300D02*
X14204000Y-11945300D01*
X14220000Y-6029996D02*
X14260000Y-6069996D01*
X14260000Y-6029996D02*
X14220000Y-6069996D01*
X14240000Y-5750000D02*
X14280000Y-5790000D01*
X14280000Y-5750000D02*
X14240000Y-5790000D01*
X14394500Y-5606100D02*
X14434500Y-5646100D01*
X14434500Y-5606100D02*
X14394500Y-5646100D01*
X14419900Y-9784400D02*
X14459900Y-9824400D01*
X14459900Y-9784400D02*
X14419900Y-9824400D01*
X14419900Y-9886000D02*
X14459900Y-9926000D01*
X14459900Y-9886000D02*
X14419900Y-9926000D01*
X14440000Y-8570000D02*
X14480000Y-8610000D01*
X14480000Y-8570000D02*
X14440000Y-8610000D01*
X14534200Y-9784400D02*
X14574200Y-9824400D01*
X14574200Y-9784400D02*
X14534200Y-9824400D01*
X14534200Y-9886000D02*
X14574200Y-9926000D01*
X14574200Y-9886000D02*
X14534200Y-9926000D01*
X14635800Y-8997000D02*
X14675800Y-9037000D01*
X14675800Y-8997000D02*
X14635800Y-9037000D01*
X14864400Y-8882700D02*
X14904400Y-8922700D01*
X14904400Y-8882700D02*
X14864400Y-8922700D01*
X14880000Y-7410000D02*
X14920000Y-7450000D01*
X14920000Y-7410000D02*
X14880000Y-7450000D01*
X14950000Y-8610000D02*
X14990000Y-8650000D01*
X14990000Y-8610000D02*
X14950000Y-8650000D01*
X14970000Y-11380000D02*
X15010000Y-11420000D01*
X15010000Y-11380000D02*
X14970000Y-11420000D01*
X15042200Y-6901500D02*
X15082200Y-6941500D01*
X15082200Y-6901500D02*
X15042200Y-6941500D01*
X15060000Y-7400000D02*
X15100000Y-7440000D01*
X15100000Y-7400000D02*
X15060000Y-7440000D01*
X15080000Y-11640000D02*
X15120000Y-11680000D01*
X15120000Y-11640000D02*
X15080000Y-11680000D01*
X15130000Y-11470000D02*
X15170000Y-11510000D01*
X15170000Y-11470000D02*
X15130000Y-11510000D01*
X15334300Y-9378000D02*
X15374300Y-9418000D01*
X15374300Y-9378000D02*
X15334300Y-9418000D01*
X15350000Y-11670000D02*
X15390000Y-11710000D01*
X15390000Y-11670000D02*
X15350000Y-11710000D01*
X15360000Y-8380000D02*
X15400000Y-8420000D01*
X15400000Y-8380000D02*
X15360000Y-8420000D01*
X15360000Y-11520000D02*
X15400000Y-11560000D01*
X15400000Y-11520000D02*
X15360000Y-11560000D01*
X15397800Y-7777800D02*
X15437800Y-7817800D01*
X15437800Y-7777800D02*
X15397800Y-7817800D01*
X15397800Y-7904800D02*
X15437800Y-7944800D01*
X15437800Y-7904800D02*
X15397800Y-7944800D01*
X15400000Y-8630000D02*
X15440000Y-8670000D01*
X15440000Y-8630000D02*
X15400000Y-8670000D01*
X15430000Y-5600000D02*
X15470000Y-5640000D01*
X15470000Y-5600000D02*
X15430000Y-5640000D01*
X15499400Y-9225600D02*
X15539400Y-9265600D01*
X15539400Y-9225600D02*
X15499400Y-9265600D01*
X15499400Y-9352600D02*
X15539400Y-9392600D01*
X15539400Y-9352600D02*
X15499400Y-9392600D01*
X15499400Y-9466900D02*
X15539400Y-9506900D01*
X15539400Y-9466900D02*
X15499400Y-9506900D01*
X15499400Y-9568500D02*
X15539400Y-9608500D01*
X15539400Y-9568500D02*
X15499400Y-9608500D01*
X15512244Y-7862076D02*
X15552244Y-7902076D01*
X15552244Y-7862076D02*
X15512244Y-7902076D01*
X15601000Y-6901500D02*
X15641000Y-6941500D01*
X15641000Y-6901500D02*
X15601000Y-6941500D01*
X15610000Y-8420000D02*
X15650000Y-8460000D01*
X15650000Y-8420000D02*
X15610000Y-8460000D01*
X15612019Y-7927981D02*
X15652019Y-7967981D01*
X15652019Y-7927981D02*
X15612019Y-7967981D01*
X15670000Y-16280000D02*
X15710000Y-16320000D01*
X15710000Y-16280000D02*
X15670000Y-16320000D01*
X15680000Y-10120000D02*
X15720000Y-10160000D01*
X15720000Y-10120000D02*
X15680000Y-10160000D01*
X15688349Y-9989120D02*
X15728349Y-10029120D01*
X15728349Y-9989120D02*
X15688349Y-10029120D01*
X15720000Y-7560000D02*
X15760000Y-7600000D01*
X15760000Y-7560000D02*
X15720000Y-7600000D01*
X15770000Y-11250000D02*
X15810000Y-11290000D01*
X15810000Y-11250000D02*
X15770000Y-11290000D01*
X15780000Y-7650000D02*
X15820000Y-7690000D01*
X15820000Y-7650000D02*
X15780000Y-7690000D01*
X15810000Y-5450000D02*
X15850000Y-5490000D01*
X15850000Y-5450000D02*
X15810000Y-5490000D01*
X15842500Y-9910000D02*
X15882500Y-9950000D01*
X15882500Y-9910000D02*
X15842500Y-9950000D01*
X15882501Y-9122501D02*
X15922501Y-9162501D01*
X15922501Y-9122501D02*
X15882501Y-9162501D01*
X15890307Y-9277775D02*
X15930307Y-9317775D01*
X15930307Y-9277775D02*
X15890307Y-9317775D01*
X15920000Y-11750000D02*
X15960000Y-11790000D01*
X15960000Y-11750000D02*
X15920000Y-11790000D01*
X15943900Y-9987600D02*
X15983900Y-10027600D01*
X15983900Y-9987600D02*
X15943900Y-10027600D01*
X15982000Y-9809800D02*
X16022000Y-9849800D01*
X16022000Y-9809800D02*
X15982000Y-9849800D01*
X16020000Y-9360000D02*
X16060000Y-9400000D01*
X16060000Y-9360000D02*
X16020000Y-9400000D01*
X16109000Y-6901500D02*
X16149000Y-6941500D01*
X16149000Y-6901500D02*
X16109000Y-6941500D01*
X16150000Y-11480000D02*
X16190000Y-11520000D01*
X16190000Y-11480000D02*
X16150000Y-11520000D01*
X16150000Y-11270000D02*
X16190000Y-11310000D01*
X16190000Y-11270000D02*
X16150000Y-11310000D01*
X16240000Y-10600000D02*
X16280000Y-10640000D01*
X16280000Y-10600000D02*
X16240000Y-10640000D01*
X16350300Y-13975400D02*
X16390300Y-14015400D01*
X16390300Y-13975400D02*
X16350300Y-14015400D01*
X16363000Y-13696000D02*
X16403000Y-13736000D01*
X16403000Y-13696000D02*
X16363000Y-13736000D01*
X16500000Y-10610000D02*
X16540000Y-10650000D01*
X16540000Y-10610000D02*
X16500000Y-10650000D01*
X17000000Y-9390000D02*
X17040000Y-9430000D01*
X17040000Y-9390000D02*
X17000000Y-9430000D01*
X17110000Y-9810000D02*
X17150000Y-9850000D01*
X17150000Y-9810000D02*
X17110000Y-9850000D01*
X17190000Y-9380000D02*
X17230000Y-9420000D01*
X17230000Y-9380000D02*
X17190000Y-9420000D01*
X17250000Y-9800000D02*
X17290000Y-9840000D01*
X17290000Y-9800000D02*
X17250000Y-9840000D01*
X17340000Y-10790000D02*
X17380000Y-10830000D01*
X17380000Y-10790000D02*
X17340000Y-10830000D01*
X17360000Y-11130000D02*
X17400000Y-11170000D01*
X17400000Y-11130000D02*
X17360000Y-11170000D01*
X17400000Y-13530000D02*
X17440000Y-13570000D01*
X17440000Y-13530000D02*
X17400000Y-13570000D01*
X17410000Y-13790000D02*
X17450000Y-13830000D01*
X17450000Y-13790000D02*
X17410000Y-13830000D01*
X17630000Y-9610000D02*
X17670000Y-9650000D01*
X17670000Y-9610000D02*
X17630000Y-9650000D01*
X17640000Y-7040000D02*
X17680000Y-7080000D01*
X17680000Y-7040000D02*
X17640000Y-7080000D01*
X17640000Y-7140000D02*
X17680000Y-7180000D01*
X17680000Y-7140000D02*
X17640000Y-7180000D01*
X17670000Y-14960000D02*
X17710000Y-15000000D01*
X17710000Y-14960000D02*
X17670000Y-15000000D01*
X17730000Y-9610000D02*
X17770000Y-9650000D01*
X17770000Y-9610000D02*
X17730000Y-9650000D01*
X12484100Y-4572000D02*
G75*
G03*
X12484100Y-4572000I-38100J0D01*
G01*
X12484100Y-4826000D02*
G75*
G03*
X12484100Y-4826000I-38100J0D01*
G01*
X12484100Y-5080000D02*
G75*
G03*
X12484100Y-5080000I-38100J0D01*
G01*
X12484100Y-5334000D02*
G75*
G03*
X12484100Y-5334000I-38100J0D01*
G01*
X12484100Y-5588000D02*
G75*
G03*
X12484100Y-5588000I-38100J0D01*
G01*
X12484100Y-5842000D02*
G75*
G03*
X12484100Y-5842000I-38100J0D01*
G01*
X12484100Y-6096000D02*
G75*
G03*
X12484100Y-6096000I-38100J0D01*
G01*
X12484100Y-6350000D02*
G75*
G03*
X12484100Y-6350000I-38100J0D01*
G01*
X12484100Y-6604000D02*
G75*
G03*
X12484100Y-6604000I-38100J0D01*
G01*
X12484100Y-6858000D02*
G75*
G03*
X12484100Y-6858000I-38100J0D01*
G01*
X12484100Y-10922000D02*
G75*
G03*
X12484100Y-10922000I-38100J0D01*
G01*
X12484100Y-11176000D02*
G75*
G03*
X12484100Y-11176000I-38100J0D01*
G01*
X12484100Y-11430000D02*
G75*
G03*
X12484100Y-11430000I-38100J0D01*
G01*
X12484100Y-11684000D02*
G75*
G03*
X12484100Y-11684000I-38100J0D01*
G01*
X12484100Y-11938000D02*
G75*
G03*
X12484100Y-11938000I-38100J0D01*
G01*
X12484100Y-12192000D02*
G75*
G03*
X12484100Y-12192000I-38100J0D01*
G01*
X12484100Y-12446000D02*
G75*
G03*
X12484100Y-12446000I-38100J0D01*
G01*
X12484100Y-12700000D02*
G75*
G03*
X12484100Y-12700000I-38100J0D01*
G01*
X12484100Y-12954000D02*
G75*
G03*
X12484100Y-12954000I-38100J0D01*
G01*
X12484100Y-13208000D02*
G75*
G03*
X12484100Y-13208000I-38100J0D01*
G01*
X12738100Y-4572000D02*
G75*
G03*
X12738100Y-4572000I-38100J0D01*
G01*
X12738100Y-4826000D02*
G75*
G03*
X12738100Y-4826000I-38100J0D01*
G01*
X12738100Y-5080000D02*
G75*
G03*
X12738100Y-5080000I-38100J0D01*
G01*
X12738100Y-5334000D02*
G75*
G03*
X12738100Y-5334000I-38100J0D01*
G01*
X12738100Y-5588000D02*
G75*
G03*
X12738100Y-5588000I-38100J0D01*
G01*
X12738100Y-5842000D02*
G75*
G03*
X12738100Y-5842000I-38100J0D01*
G01*
X12738100Y-6096000D02*
G75*
G03*
X12738100Y-6096000I-38100J0D01*
G01*
X12738100Y-6350000D02*
G75*
G03*
X12738100Y-6350000I-38100J0D01*
G01*
X12738100Y-6604000D02*
G75*
G03*
X12738100Y-6604000I-38100J0D01*
G01*
X12738100Y-6858000D02*
G75*
G03*
X12738100Y-6858000I-38100J0D01*
G01*
X12738100Y-10922000D02*
G75*
G03*
X12738100Y-10922000I-38100J0D01*
G01*
X12738100Y-11176000D02*
G75*
G03*
X12738100Y-11176000I-38100J0D01*
G01*
X12738100Y-11430000D02*
G75*
G03*
X12738100Y-11430000I-38100J0D01*
G01*
X12738100Y-11684000D02*
G75*
G03*
X12738100Y-11684000I-38100J0D01*
G01*
X12738100Y-11938000D02*
G75*
G03*
X12738100Y-11938000I-38100J0D01*
G01*
X12738100Y-12192000D02*
G75*
G03*
X12738100Y-12192000I-38100J0D01*
G01*
X12738100Y-12446000D02*
G75*
G03*
X12738100Y-12446000I-38100J0D01*
G01*
X12738100Y-12700000D02*
G75*
G03*
X12738100Y-12700000I-38100J0D01*
G01*
X12738100Y-12954000D02*
G75*
G03*
X12738100Y-12954000I-38100J0D01*
G01*
X12738100Y-13208000D02*
G75*
G03*
X12738100Y-13208000I-38100J0D01*
G01*
X16802100Y-4572000D02*
G75*
G03*
X16802100Y-4572000I-38100J0D01*
G01*
X16802100Y-4826000D02*
G75*
G03*
X16802100Y-4826000I-38100J0D01*
G01*
X16802100Y-5080000D02*
G75*
G03*
X16802100Y-5080000I-38100J0D01*
G01*
X16802100Y-5334000D02*
G75*
G03*
X16802100Y-5334000I-38100J0D01*
G01*
X16802100Y-5588000D02*
G75*
G03*
X16802100Y-5588000I-38100J0D01*
G01*
X16802100Y-5842000D02*
G75*
G03*
X16802100Y-5842000I-38100J0D01*
G01*
X16802100Y-6096000D02*
G75*
G03*
X16802100Y-6096000I-38100J0D01*
G01*
X16802100Y-6350000D02*
G75*
G03*
X16802100Y-6350000I-38100J0D01*
G01*
X16802100Y-6604000D02*
G75*
G03*
X16802100Y-6604000I-38100J0D01*
G01*
X16802100Y-6858000D02*
G75*
G03*
X16802100Y-6858000I-38100J0D01*
G01*
X16802100Y-10922000D02*
G75*
G03*
X16802100Y-10922000I-38100J0D01*
G01*
X16802100Y-11176000D02*
G75*
G03*
X16802100Y-11176000I-38100J0D01*
G01*
X16802100Y-11430000D02*
G75*
G03*
X16802100Y-11430000I-38100J0D01*
G01*
X16802100Y-11684000D02*
G75*
G03*
X16802100Y-11684000I-38100J0D01*
G01*
X16802100Y-11938000D02*
G75*
G03*
X16802100Y-11938000I-38100J0D01*
G01*
X16802100Y-12192000D02*
G75*
G03*
X16802100Y-12192000I-38100J0D01*
G01*
X16802100Y-12446000D02*
G75*
G03*
X16802100Y-12446000I-38100J0D01*
G01*
X16802100Y-12700000D02*
G75*
G03*
X16802100Y-12700000I-38100J0D01*
G01*
X16802100Y-12954000D02*
G75*
G03*
X16802100Y-12954000I-38100J0D01*
G01*
X16802100Y-13208000D02*
G75*
G03*
X16802100Y-13208000I-38100J0D01*
G01*
X17056100Y-4572000D02*
G75*
G03*
X17056100Y-4572000I-38100J0D01*
G01*
X17056100Y-4826000D02*
G75*
G03*
X17056100Y-4826000I-38100J0D01*
G01*
X17056100Y-5080000D02*
G75*
G03*
X17056100Y-5080000I-38100J0D01*
G01*
X17056100Y-5334000D02*
G75*
G03*
X17056100Y-5334000I-38100J0D01*
G01*
X17056100Y-5588000D02*
G75*
G03*
X17056100Y-5588000I-38100J0D01*
G01*
X17056100Y-5842000D02*
G75*
G03*
X17056100Y-5842000I-38100J0D01*
G01*
X17056100Y-6096000D02*
G75*
G03*
X17056100Y-6096000I-38100J0D01*
G01*
X17056100Y-6350000D02*
G75*
G03*
X17056100Y-6350000I-38100J0D01*
G01*
X17056100Y-6604000D02*
G75*
G03*
X17056100Y-6604000I-38100J0D01*
G01*
X17056100Y-6858000D02*
G75*
G03*
X17056100Y-6858000I-38100J0D01*
G01*
X17056100Y-10922000D02*
G75*
G03*
X17056100Y-10922000I-38100J0D01*
G01*
X17056100Y-11176000D02*
G75*
G03*
X17056100Y-11176000I-38100J0D01*
G01*
X17056100Y-11430000D02*
G75*
G03*
X17056100Y-11430000I-38100J0D01*
G01*
X17056100Y-11684000D02*
G75*
G03*
X17056100Y-11684000I-38100J0D01*
G01*
X17056100Y-11938000D02*
G75*
G03*
X17056100Y-11938000I-38100J0D01*
G01*
X17056100Y-12192000D02*
G75*
G03*
X17056100Y-12192000I-38100J0D01*
G01*
X17056100Y-12446000D02*
G75*
G03*
X17056100Y-12446000I-38100J0D01*
G01*
X17056100Y-12700000D02*
G75*
G03*
X17056100Y-12700000I-38100J0D01*
G01*
X17056100Y-12954000D02*
G75*
G03*
X17056100Y-12954000I-38100J0D01*
G01*
X17056100Y-13208000D02*
G75*
G03*
X17056100Y-13208000I-38100J0D01*
G01*
X16256000Y-14184000D02*
X16256000Y-14264000D01*
X16216000Y-14224000D02*
X16296000Y-14224000D01*
X16256000Y-14946000D02*
X16256000Y-15026000D01*
X16216000Y-14986000D02*
X16296000Y-14986000D01*
X13798620Y-7753420D02*
X13798620Y-7689780D01*
X13734980Y-7689780D01*
X13734980Y-7753420D01*
X13798620Y-7753420D01*
X13798620Y-8007420D02*
X13798620Y-7943780D01*
X13734980Y-7943780D01*
X13734980Y-8007420D01*
X13798620Y-8007420D01*
X13798620Y-8261420D02*
X13798620Y-8197780D01*
X13734980Y-8197780D01*
X13734980Y-8261420D01*
X13798620Y-8261420D01*
X13798620Y-8515420D02*
X13798620Y-8451780D01*
X13734980Y-8451780D01*
X13734980Y-8515420D01*
X13798620Y-8515420D01*
X14052620Y-7880420D02*
X14052620Y-7816780D01*
X13988980Y-7816780D01*
X13988980Y-7880420D01*
X14052620Y-7880420D01*
X14052620Y-8134420D02*
X14052620Y-8070780D01*
X13988980Y-8070780D01*
X13988980Y-8134420D01*
X14052620Y-8134420D01*
X14052620Y-8388420D02*
X14052620Y-8324780D01*
X13988980Y-8324780D01*
X13988980Y-8388420D01*
X14052620Y-8388420D01*
X14052620Y-8642420D02*
X14052620Y-8578780D01*
X13988980Y-8578780D01*
X13988980Y-8642420D01*
X14052620Y-8642420D01*
X15094020Y-6178620D02*
X15094020Y-6114980D01*
X15030380Y-6114980D01*
X15030380Y-6178620D01*
X15094020Y-6178620D01*
X15221020Y-5924620D02*
X15221020Y-5860980D01*
X15157380Y-5860980D01*
X15157380Y-5924620D01*
X15221020Y-5924620D01*
X15348020Y-6178620D02*
X15348020Y-6114980D01*
X15284380Y-6114980D01*
X15284380Y-6178620D01*
X15348020Y-6178620D01*
X15475020Y-5924620D02*
X15475020Y-5860980D01*
X15411380Y-5860980D01*
X15411380Y-5924620D01*
X15475020Y-5924620D01*
X15602020Y-6178620D02*
X15602020Y-6114980D01*
X15538380Y-6114980D01*
X15538380Y-6178620D01*
X15602020Y-6178620D01*
X15729020Y-5924620D02*
X15729020Y-5860980D01*
X15665380Y-5860980D01*
X15665380Y-5924620D01*
X15729020Y-5924620D01*
X15856020Y-6178620D02*
X15856020Y-6114980D01*
X15792380Y-6114980D01*
X15792380Y-6178620D01*
X15856020Y-6178620D01*
X15983020Y-5924620D02*
X15983020Y-5860980D01*
X15919380Y-5860980D01*
X15919380Y-5924620D01*
X15983020Y-5924620D01*
X14757400Y-10997400D02*
X14807400Y-10947400D01*
X14757400Y-10897400D01*
X14707400Y-10947400D01*
X14757400Y-10997400D01*
X15011400Y-10997400D02*
X15061400Y-10947400D01*
X15011400Y-10897400D01*
X14961400Y-10947400D01*
X15011400Y-10997400D01*
X15162000Y-8920000D02*
X15212000Y-8870000D01*
X15162000Y-8820000D01*
X15112000Y-8870000D01*
X15162000Y-8920000D01*
X15265400Y-10997400D02*
X15315400Y-10947400D01*
X15265400Y-10897400D01*
X15215400Y-10947400D01*
X15265400Y-10997400D01*
X15299000Y-13955000D02*
X15349000Y-13905000D01*
X15299000Y-13855000D01*
X15249000Y-13905000D01*
X15299000Y-13955000D01*
X15299000Y-15155000D02*
X15349000Y-15105000D01*
X15299000Y-15055000D01*
X15249000Y-15105000D01*
X15299000Y-15155000D01*
X15416000Y-8920000D02*
X15466000Y-8870000D01*
X15416000Y-8820000D01*
X15366000Y-8870000D01*
X15416000Y-8920000D01*
X15519400Y-10997400D02*
X15569400Y-10947400D01*
X15519400Y-10897400D01*
X15469400Y-10947400D01*
X15519400Y-10997400D01*
X15670000Y-8920000D02*
X15720000Y-8870000D01*
X15670000Y-8820000D01*
X15620000Y-8870000D01*
X15670000Y-8920000D01*
X13000600Y-12325200D02*
X13110600Y-12435200D01*
X13110600Y-12325200D02*
X13000600Y-12435200D01*
X13110600Y-12380200D02*
G75*
G03*
X13110600Y-12380200I-55000J0D01*
G01*
X13000600Y-12975200D02*
X13110600Y-13085200D01*
X13110600Y-12975200D02*
X13000600Y-13085200D01*
X13110600Y-13030200D02*
G75*
G03*
X13110600Y-13030200I-55000J0D01*
G01*
X13450600Y-12325200D02*
X13560600Y-12435200D01*
X13560600Y-12325200D02*
X13450600Y-12435200D01*
X13560600Y-12380200D02*
G75*
G03*
X13560600Y-12380200I-55000J0D01*
G01*
X13450600Y-12975200D02*
X13560600Y-13085200D01*
X13560600Y-12975200D02*
X13450600Y-13085200D01*
X13560600Y-13030200D02*
G75*
G03*
X13560600Y-13030200I-55000J0D01*
G01*
X16235000Y-7745000D02*
X16345000Y-7855000D01*
X16345000Y-7745000D02*
X16235000Y-7855000D01*
X16345000Y-7800000D02*
G75*
G03*
X16345000Y-7800000I-55000J0D01*
G01*
X16235000Y-8195000D02*
X16345000Y-8305000D01*
X16345000Y-8195000D02*
X16235000Y-8305000D01*
X16345000Y-8250000D02*
G75*
G03*
X16345000Y-8250000I-55000J0D01*
G01*
X16885000Y-7745000D02*
X16995000Y-7855000D01*
X16995000Y-7745000D02*
X16885000Y-7855000D01*
X16995000Y-7800000D02*
G75*
G03*
X16995000Y-7800000I-55000J0D01*
G01*
X16885000Y-8195000D02*
X16995000Y-8305000D01*
X16995000Y-8195000D02*
X16885000Y-8305000D01*
X16995000Y-8250000D02*
G75*
G03*
X16995000Y-8250000I-55000J0D01*
G01*
X13010000Y-14069000D02*
X13130000Y-14189000D01*
X13130000Y-14069000D02*
X13010000Y-14189000D01*
X13070000Y-14069000D02*
X13070000Y-14189000D01*
X13010000Y-14129000D02*
X13130000Y-14129000D01*
X13010000Y-14450000D02*
X13130000Y-14570000D01*
X13130000Y-14450000D02*
X13010000Y-14570000D01*
X13070000Y-14450000D02*
X13070000Y-14570000D01*
X13010000Y-14510000D02*
X13130000Y-14510000D01*
X13010000Y-14831000D02*
X13130000Y-14951000D01*
X13130000Y-14831000D02*
X13010000Y-14951000D01*
X13070000Y-14831000D02*
X13070000Y-14951000D01*
X13010000Y-14891000D02*
X13130000Y-14891000D01*
X17024400Y-9959800D02*
X17144400Y-10079800D01*
X17144400Y-9959800D02*
X17024400Y-10079800D01*
X17084400Y-9959800D02*
X17084400Y-10079800D01*
X17024400Y-10019800D02*
X17144400Y-10019800D01*
X17024400Y-10340800D02*
X17144400Y-10460800D01*
X17144400Y-10340800D02*
X17024400Y-10460800D01*
X17084400Y-10340800D02*
X17084400Y-10460800D01*
X17024400Y-10400800D02*
X17144400Y-10400800D01*
X17030000Y-15999000D02*
X17150000Y-16119000D01*
X17150000Y-15999000D02*
X17030000Y-16119000D01*
X17090000Y-15999000D02*
X17090000Y-16119000D01*
X17030000Y-16059000D02*
X17150000Y-16059000D01*
X17030000Y-16380000D02*
X17150000Y-16500000D01*
X17150000Y-16380000D02*
X17030000Y-16500000D01*
X17090000Y-16380000D02*
X17090000Y-16500000D01*
X17030000Y-16440000D02*
X17150000Y-16440000D01*
X14009000Y-15045000D02*
X14139000Y-15175000D01*
X14139000Y-15045000D02*
X14009000Y-15175000D01*
X14119962Y-15155962D02*
X14119962Y-15064038D01*
X14028038Y-15064038D01*
X14028038Y-15155962D01*
X14119962Y-15155962D01*
X14014000Y-13840000D02*
X14144000Y-13970000D01*
X14144000Y-13840000D02*
X14014000Y-13970000D01*
X14124962Y-13950962D02*
X14124962Y-13859038D01*
X14033038Y-13859038D01*
X14033038Y-13950962D01*
X14124962Y-13950962D01*
X15429000Y-14445000D02*
X15559000Y-14575000D01*
X15559000Y-14445000D02*
X15429000Y-14575000D01*
X15539962Y-14555962D02*
X15539962Y-14464038D01*
X15448038Y-14464038D01*
X15448038Y-14555962D01*
X15539962Y-14555962D01*
X12746800Y-7309100D02*
X12906800Y-7469100D01*
X12906800Y-7309100D02*
X12746800Y-7469100D01*
X12826800Y-7469100D02*
X12906800Y-7389100D01*
X12826800Y-7309100D01*
X12746800Y-7389100D01*
X12826800Y-7469100D01*
X12746800Y-8863100D02*
X12906800Y-9023100D01*
X12906800Y-8863100D02*
X12746800Y-9023100D01*
X12826800Y-9023100D02*
X12906800Y-8943100D01*
X12826800Y-8863100D01*
X12746800Y-8943100D01*
X12826800Y-9023100D01*
X14649700Y-4872800D02*
X14809700Y-5032800D01*
X14809700Y-4872800D02*
X14649700Y-5032800D01*
X14729700Y-5032800D02*
X14809700Y-4952800D01*
X14729700Y-4872800D01*
X14649700Y-4952800D01*
X14729700Y-5032800D01*
X16203700Y-4872800D02*
X16363700Y-5032800D01*
X16363700Y-4872800D02*
X16203700Y-5032800D01*
X16283700Y-5032800D02*
X16363700Y-4952800D01*
X16283700Y-4872800D01*
X16203700Y-4952800D01*
X16283700Y-5032800D01*
X13349000Y-9615800D02*
X13349000Y-9785800D01*
X13264000Y-9700800D02*
X13434000Y-9700800D01*
X13434000Y-9700800D02*
G75*
G03*
X13434000Y-9700800I-85000J0D01*
G01*
X13349000Y-10123800D02*
X13349000Y-10293800D01*
X13264000Y-10208800D02*
X13434000Y-10208800D01*
X13434000Y-10208800D02*
G75*
G03*
X13434000Y-10208800I-85000J0D01*
G01*
D12*
X12602928Y-17359214D02*
X12602928Y-17059214D01*
X12674357Y-17059214D01*
X12717214Y-17073500D01*
X12745786Y-17102072D01*
X12760071Y-17130643D01*
X12774357Y-17187786D01*
X12774357Y-17230643D01*
X12760071Y-17287786D01*
X12745786Y-17316357D01*
X12717214Y-17344929D01*
X12674357Y-17359214D01*
X12602928Y-17359214D01*
X12902928Y-17359214D02*
X12902928Y-17159214D01*
X12902928Y-17216357D02*
X12917214Y-17187786D01*
X12931500Y-17173500D01*
X12960071Y-17159214D01*
X12988643Y-17159214D01*
X13088643Y-17359214D02*
X13088643Y-17159214D01*
X13088643Y-17059214D02*
X13074357Y-17073500D01*
X13088643Y-17087786D01*
X13102928Y-17073500D01*
X13088643Y-17059214D01*
X13088643Y-17087786D01*
X13274357Y-17359214D02*
X13245786Y-17344929D01*
X13231500Y-17316357D01*
X13231500Y-17059214D01*
X13431500Y-17359214D02*
X13402928Y-17344929D01*
X13388643Y-17316357D01*
X13388643Y-17059214D01*
X13774357Y-17359214D02*
X13774357Y-17059214D01*
X13874357Y-17273500D01*
X13974357Y-17059214D01*
X13974357Y-17359214D01*
X14245786Y-17359214D02*
X14245786Y-17202072D01*
X14231500Y-17173500D01*
X14202928Y-17159214D01*
X14145786Y-17159214D01*
X14117214Y-17173500D01*
X14245786Y-17344929D02*
X14217214Y-17359214D01*
X14145786Y-17359214D01*
X14117214Y-17344929D01*
X14102928Y-17316357D01*
X14102928Y-17287786D01*
X14117214Y-17259214D01*
X14145786Y-17244929D01*
X14217214Y-17244929D01*
X14245786Y-17230643D01*
X14388643Y-17159214D02*
X14388643Y-17459214D01*
X14388643Y-17173500D02*
X14417214Y-17159214D01*
X14474357Y-17159214D01*
X14502928Y-17173500D01*
X14517214Y-17187786D01*
X14531500Y-17216357D01*
X14531500Y-17302072D01*
X14517214Y-17330643D01*
X14502928Y-17344929D01*
X14474357Y-17359214D01*
X14417214Y-17359214D01*
X14388643Y-17344929D01*
X14660071Y-17330643D02*
X14674357Y-17344929D01*
X14660071Y-17359214D01*
X14645786Y-17344929D01*
X14660071Y-17330643D01*
X14660071Y-17359214D01*
X14660071Y-17173500D02*
X14674357Y-17187786D01*
X14660071Y-17202072D01*
X14645786Y-17187786D01*
X14660071Y-17173500D01*
X14660071Y-17202072D01*
X12276500Y-17833500D02*
X12316500Y-17873500D01*
X12316500Y-17833500D02*
X12276500Y-17873500D01*
X12660071Y-17689214D02*
X12688643Y-17689214D01*
X12717214Y-17703500D01*
X12731500Y-17717786D01*
X12745786Y-17746357D01*
X12760071Y-17803500D01*
X12760071Y-17874929D01*
X12745786Y-17932072D01*
X12731500Y-17960643D01*
X12717214Y-17974929D01*
X12688643Y-17989214D01*
X12660071Y-17989214D01*
X12631500Y-17974929D01*
X12617214Y-17960643D01*
X12602928Y-17932072D01*
X12588643Y-17874929D01*
X12588643Y-17803500D01*
X12602928Y-17746357D01*
X12617214Y-17717786D01*
X12631500Y-17703500D01*
X12660071Y-17689214D01*
X12888643Y-17960643D02*
X12902928Y-17974929D01*
X12888643Y-17989214D01*
X12874357Y-17974929D01*
X12888643Y-17960643D01*
X12888643Y-17989214D01*
X13160071Y-17789214D02*
X13160071Y-17989214D01*
X13088643Y-17674929D02*
X13017214Y-17889214D01*
X13202928Y-17889214D01*
X13374357Y-17689214D02*
X13402928Y-17689214D01*
X13431500Y-17703500D01*
X13445786Y-17717786D01*
X13460071Y-17746357D01*
X13474357Y-17803500D01*
X13474357Y-17874929D01*
X13460071Y-17932072D01*
X13445786Y-17960643D01*
X13431500Y-17974929D01*
X13402928Y-17989214D01*
X13374357Y-17989214D01*
X13345786Y-17974929D01*
X13331500Y-17960643D01*
X13317214Y-17932072D01*
X13302928Y-17874929D01*
X13302928Y-17803500D01*
X13317214Y-17746357D01*
X13331500Y-17717786D01*
X13345786Y-17703500D01*
X13374357Y-17689214D01*
X13660071Y-17689214D02*
X13688643Y-17689214D01*
X13717214Y-17703500D01*
X13731500Y-17717786D01*
X13745786Y-17746357D01*
X13760071Y-17803500D01*
X13760071Y-17874929D01*
X13745786Y-17932072D01*
X13731500Y-17960643D01*
X13717214Y-17974929D01*
X13688643Y-17989214D01*
X13660071Y-17989214D01*
X13631500Y-17974929D01*
X13617214Y-17960643D01*
X13602928Y-17932072D01*
X13588643Y-17874929D01*
X13588643Y-17803500D01*
X13602928Y-17746357D01*
X13617214Y-17717786D01*
X13631500Y-17703500D01*
X13660071Y-17689214D01*
X13888643Y-17989214D02*
X13888643Y-17789214D01*
X13888643Y-17817786D02*
X13902928Y-17803500D01*
X13931500Y-17789214D01*
X13974357Y-17789214D01*
X14002928Y-17803500D01*
X14017214Y-17832072D01*
X14017214Y-17989214D01*
X14017214Y-17832072D02*
X14031500Y-17803500D01*
X14060071Y-17789214D01*
X14102928Y-17789214D01*
X14131500Y-17803500D01*
X14145786Y-17832072D01*
X14145786Y-17989214D01*
X14288643Y-17989214D02*
X14288643Y-17789214D01*
X14288643Y-17817786D02*
X14302928Y-17803500D01*
X14331500Y-17789214D01*
X14374357Y-17789214D01*
X14402928Y-17803500D01*
X14417214Y-17832072D01*
X14417214Y-17989214D01*
X14417214Y-17832072D02*
X14431500Y-17803500D01*
X14460071Y-17789214D01*
X14502928Y-17789214D01*
X14531500Y-17803500D01*
X14545786Y-17832072D01*
X14545786Y-17989214D01*
X15131500Y-17674929D02*
X14874357Y-18060643D01*
X15517214Y-17689214D02*
X15545786Y-17689214D01*
X15574357Y-17703500D01*
X15588643Y-17717786D01*
X15602928Y-17746357D01*
X15617214Y-17803500D01*
X15617214Y-17874929D01*
X15602928Y-17932072D01*
X15588643Y-17960643D01*
X15574357Y-17974929D01*
X15545786Y-17989214D01*
X15517214Y-17989214D01*
X15488643Y-17974929D01*
X15474357Y-17960643D01*
X15460071Y-17932072D01*
X15445786Y-17874929D01*
X15445786Y-17803500D01*
X15460071Y-17746357D01*
X15474357Y-17717786D01*
X15488643Y-17703500D01*
X15517214Y-17689214D01*
X15745786Y-17960643D02*
X15760071Y-17974929D01*
X15745786Y-17989214D01*
X15731500Y-17974929D01*
X15745786Y-17960643D01*
X15745786Y-17989214D01*
X15945786Y-17689214D02*
X15974357Y-17689214D01*
X16002928Y-17703500D01*
X16017214Y-17717786D01*
X16031500Y-17746357D01*
X16045786Y-17803500D01*
X16045786Y-17874929D01*
X16031500Y-17932072D01*
X16017214Y-17960643D01*
X16002928Y-17974929D01*
X15974357Y-17989214D01*
X15945786Y-17989214D01*
X15917214Y-17974929D01*
X15902928Y-17960643D01*
X15888643Y-17932072D01*
X15874357Y-17874929D01*
X15874357Y-17803500D01*
X15888643Y-17746357D01*
X15902928Y-17717786D01*
X15917214Y-17703500D01*
X15945786Y-17689214D01*
X16331500Y-17989214D02*
X16160071Y-17989214D01*
X16245786Y-17989214D02*
X16245786Y-17689214D01*
X16217214Y-17732072D01*
X16188643Y-17760643D01*
X16160071Y-17774929D01*
X16602928Y-17689214D02*
X16460071Y-17689214D01*
X16445786Y-17832072D01*
X16460071Y-17817786D01*
X16488643Y-17803500D01*
X16560071Y-17803500D01*
X16588643Y-17817786D01*
X16602928Y-17832072D01*
X16617214Y-17860643D01*
X16617214Y-17932072D01*
X16602928Y-17960643D01*
X16588643Y-17974929D01*
X16560071Y-17989214D01*
X16488643Y-17989214D01*
X16460071Y-17974929D01*
X16445786Y-17960643D01*
X16717214Y-17689214D02*
X16917214Y-17689214D01*
X16788643Y-17989214D01*
X17017214Y-17689214D02*
X17017214Y-17746357D01*
X17131500Y-17689214D02*
X17131500Y-17746357D01*
X17574357Y-18103500D02*
X17560071Y-18089214D01*
X17531500Y-18046357D01*
X17517214Y-18017786D01*
X17502928Y-17974929D01*
X17488643Y-17903500D01*
X17488643Y-17846357D01*
X17502928Y-17774929D01*
X17517214Y-17732072D01*
X17531500Y-17703500D01*
X17560071Y-17660643D01*
X17574357Y-17646357D01*
X17702928Y-17989214D02*
X17760071Y-17989214D01*
X17788643Y-17974929D01*
X17802928Y-17960643D01*
X17831500Y-17917786D01*
X17845786Y-17860643D01*
X17845786Y-17746357D01*
X17831500Y-17717786D01*
X17817214Y-17703500D01*
X17788643Y-17689214D01*
X17731500Y-17689214D01*
X17702928Y-17703500D01*
X17688643Y-17717786D01*
X17674357Y-17746357D01*
X17674357Y-17817786D01*
X17688643Y-17846357D01*
X17702928Y-17860643D01*
X17731500Y-17874929D01*
X17788643Y-17874929D01*
X17817214Y-17860643D01*
X17831500Y-17846357D01*
X17845786Y-17817786D01*
X18117214Y-17689214D02*
X17974357Y-17689214D01*
X17960071Y-17832072D01*
X17974357Y-17817786D01*
X18002928Y-17803500D01*
X18074357Y-17803500D01*
X18102928Y-17817786D01*
X18117214Y-17832072D01*
X18131500Y-17860643D01*
X18131500Y-17932072D01*
X18117214Y-17960643D01*
X18102928Y-17974929D01*
X18074357Y-17989214D01*
X18002928Y-17989214D01*
X17974357Y-17974929D01*
X17960071Y-17960643D01*
X18488643Y-17989214D02*
X18488643Y-17689214D01*
X18617214Y-17989214D02*
X18617214Y-17832072D01*
X18602928Y-17803500D01*
X18574357Y-17789214D01*
X18531500Y-17789214D01*
X18502928Y-17803500D01*
X18488643Y-17817786D01*
X18802928Y-17989214D02*
X18774357Y-17974929D01*
X18760071Y-17960643D01*
X18745786Y-17932072D01*
X18745786Y-17846357D01*
X18760071Y-17817786D01*
X18774357Y-17803500D01*
X18802928Y-17789214D01*
X18845786Y-17789214D01*
X18874357Y-17803500D01*
X18888643Y-17817786D01*
X18902928Y-17846357D01*
X18902928Y-17932072D01*
X18888643Y-17960643D01*
X18874357Y-17974929D01*
X18845786Y-17989214D01*
X18802928Y-17989214D01*
X19074357Y-17989214D02*
X19045786Y-17974929D01*
X19031500Y-17946357D01*
X19031500Y-17689214D01*
X19302928Y-17974929D02*
X19274357Y-17989214D01*
X19217214Y-17989214D01*
X19188643Y-17974929D01*
X19174357Y-17946357D01*
X19174357Y-17832072D01*
X19188643Y-17803500D01*
X19217214Y-17789214D01*
X19274357Y-17789214D01*
X19302928Y-17803500D01*
X19317214Y-17832072D01*
X19317214Y-17860643D01*
X19174357Y-17889214D01*
X19431500Y-17974929D02*
X19460071Y-17989214D01*
X19517214Y-17989214D01*
X19545786Y-17974929D01*
X19560071Y-17946357D01*
X19560071Y-17932072D01*
X19545786Y-17903500D01*
X19517214Y-17889214D01*
X19474357Y-17889214D01*
X19445786Y-17874929D01*
X19431500Y-17846357D01*
X19431500Y-17832072D01*
X19445786Y-17803500D01*
X19474357Y-17789214D01*
X19517214Y-17789214D01*
X19545786Y-17803500D01*
X19660071Y-18103500D02*
X19674357Y-18089214D01*
X19702928Y-18046357D01*
X19717214Y-18017786D01*
X19731500Y-17974929D01*
X19745786Y-17903500D01*
X19745786Y-17846357D01*
X19731500Y-17774929D01*
X19717214Y-17732072D01*
X19702928Y-17703500D01*
X19674357Y-17660643D01*
X19660071Y-17646357D01*
X12316500Y-18249500D02*
G75*
G03*
X12316500Y-18249500I-38100J0D01*
G01*
X12660071Y-18085214D02*
X12688643Y-18085214D01*
X12717214Y-18099500D01*
X12731500Y-18113786D01*
X12745786Y-18142357D01*
X12760071Y-18199500D01*
X12760071Y-18270929D01*
X12745786Y-18328072D01*
X12731500Y-18356643D01*
X12717214Y-18370929D01*
X12688643Y-18385214D01*
X12660071Y-18385214D01*
X12631500Y-18370929D01*
X12617214Y-18356643D01*
X12602928Y-18328072D01*
X12588643Y-18270929D01*
X12588643Y-18199500D01*
X12602928Y-18142357D01*
X12617214Y-18113786D01*
X12631500Y-18099500D01*
X12660071Y-18085214D01*
X12888643Y-18356643D02*
X12902928Y-18370929D01*
X12888643Y-18385214D01*
X12874357Y-18370929D01*
X12888643Y-18356643D01*
X12888643Y-18385214D01*
X13002928Y-18085214D02*
X13202928Y-18085214D01*
X13074357Y-18385214D01*
X13445786Y-18085214D02*
X13388643Y-18085214D01*
X13360071Y-18099500D01*
X13345786Y-18113786D01*
X13317214Y-18156643D01*
X13302928Y-18213786D01*
X13302928Y-18328072D01*
X13317214Y-18356643D01*
X13331500Y-18370929D01*
X13360071Y-18385214D01*
X13417214Y-18385214D01*
X13445786Y-18370929D01*
X13460071Y-18356643D01*
X13474357Y-18328072D01*
X13474357Y-18256643D01*
X13460071Y-18228072D01*
X13445786Y-18213786D01*
X13417214Y-18199500D01*
X13360071Y-18199500D01*
X13331500Y-18213786D01*
X13317214Y-18228072D01*
X13302928Y-18256643D01*
X13588643Y-18113786D02*
X13602928Y-18099500D01*
X13631500Y-18085214D01*
X13702928Y-18085214D01*
X13731500Y-18099500D01*
X13745786Y-18113786D01*
X13760071Y-18142357D01*
X13760071Y-18170929D01*
X13745786Y-18213786D01*
X13574357Y-18385214D01*
X13760071Y-18385214D01*
X13888643Y-18385214D02*
X13888643Y-18185214D01*
X13888643Y-18213786D02*
X13902928Y-18199500D01*
X13931500Y-18185214D01*
X13974357Y-18185214D01*
X14002928Y-18199500D01*
X14017214Y-18228072D01*
X14017214Y-18385214D01*
X14017214Y-18228072D02*
X14031500Y-18199500D01*
X14060071Y-18185214D01*
X14102928Y-18185214D01*
X14131500Y-18199500D01*
X14145786Y-18228072D01*
X14145786Y-18385214D01*
X14288643Y-18385214D02*
X14288643Y-18185214D01*
X14288643Y-18213786D02*
X14302928Y-18199500D01*
X14331500Y-18185214D01*
X14374357Y-18185214D01*
X14402928Y-18199500D01*
X14417214Y-18228072D01*
X14417214Y-18385214D01*
X14417214Y-18228072D02*
X14431500Y-18199500D01*
X14460071Y-18185214D01*
X14502928Y-18185214D01*
X14531500Y-18199500D01*
X14545786Y-18228072D01*
X14545786Y-18385214D01*
X15131500Y-18070929D02*
X14874357Y-18456643D01*
X15517214Y-18085214D02*
X15545786Y-18085214D01*
X15574357Y-18099500D01*
X15588643Y-18113786D01*
X15602928Y-18142357D01*
X15617214Y-18199500D01*
X15617214Y-18270929D01*
X15602928Y-18328072D01*
X15588643Y-18356643D01*
X15574357Y-18370929D01*
X15545786Y-18385214D01*
X15517214Y-18385214D01*
X15488643Y-18370929D01*
X15474357Y-18356643D01*
X15460071Y-18328072D01*
X15445786Y-18270929D01*
X15445786Y-18199500D01*
X15460071Y-18142357D01*
X15474357Y-18113786D01*
X15488643Y-18099500D01*
X15517214Y-18085214D01*
X15745786Y-18356643D02*
X15760071Y-18370929D01*
X15745786Y-18385214D01*
X15731500Y-18370929D01*
X15745786Y-18356643D01*
X15745786Y-18385214D01*
X15945786Y-18085214D02*
X15974357Y-18085214D01*
X16002928Y-18099500D01*
X16017214Y-18113786D01*
X16031500Y-18142357D01*
X16045786Y-18199500D01*
X16045786Y-18270929D01*
X16031500Y-18328072D01*
X16017214Y-18356643D01*
X16002928Y-18370929D01*
X15974357Y-18385214D01*
X15945786Y-18385214D01*
X15917214Y-18370929D01*
X15902928Y-18356643D01*
X15888643Y-18328072D01*
X15874357Y-18270929D01*
X15874357Y-18199500D01*
X15888643Y-18142357D01*
X15902928Y-18113786D01*
X15917214Y-18099500D01*
X15945786Y-18085214D01*
X16145786Y-18085214D02*
X16331500Y-18085214D01*
X16231500Y-18199500D01*
X16274357Y-18199500D01*
X16302928Y-18213786D01*
X16317214Y-18228072D01*
X16331500Y-18256643D01*
X16331500Y-18328072D01*
X16317214Y-18356643D01*
X16302928Y-18370929D01*
X16274357Y-18385214D01*
X16188643Y-18385214D01*
X16160071Y-18370929D01*
X16145786Y-18356643D01*
X16517214Y-18085214D02*
X16545786Y-18085214D01*
X16574357Y-18099500D01*
X16588643Y-18113786D01*
X16602928Y-18142357D01*
X16617214Y-18199500D01*
X16617214Y-18270929D01*
X16602928Y-18328072D01*
X16588643Y-18356643D01*
X16574357Y-18370929D01*
X16545786Y-18385214D01*
X16517214Y-18385214D01*
X16488643Y-18370929D01*
X16474357Y-18356643D01*
X16460071Y-18328072D01*
X16445786Y-18270929D01*
X16445786Y-18199500D01*
X16460071Y-18142357D01*
X16474357Y-18113786D01*
X16488643Y-18099500D01*
X16517214Y-18085214D01*
X16802928Y-18085214D02*
X16831500Y-18085214D01*
X16860071Y-18099500D01*
X16874357Y-18113786D01*
X16888643Y-18142357D01*
X16902928Y-18199500D01*
X16902928Y-18270929D01*
X16888643Y-18328072D01*
X16874357Y-18356643D01*
X16860071Y-18370929D01*
X16831500Y-18385214D01*
X16802928Y-18385214D01*
X16774357Y-18370929D01*
X16760071Y-18356643D01*
X16745786Y-18328072D01*
X16731500Y-18270929D01*
X16731500Y-18199500D01*
X16745786Y-18142357D01*
X16760071Y-18113786D01*
X16774357Y-18099500D01*
X16802928Y-18085214D01*
X17017214Y-18085214D02*
X17017214Y-18142357D01*
X17131500Y-18085214D02*
X17131500Y-18142357D01*
X17574357Y-18499500D02*
X17560071Y-18485214D01*
X17531500Y-18442357D01*
X17517214Y-18413786D01*
X17502928Y-18370929D01*
X17488643Y-18299500D01*
X17488643Y-18242357D01*
X17502928Y-18170929D01*
X17517214Y-18128072D01*
X17531500Y-18099500D01*
X17560071Y-18056643D01*
X17574357Y-18042357D01*
X17731500Y-18213786D02*
X17702928Y-18199500D01*
X17688643Y-18185214D01*
X17674357Y-18156643D01*
X17674357Y-18142357D01*
X17688643Y-18113786D01*
X17702928Y-18099500D01*
X17731500Y-18085214D01*
X17788643Y-18085214D01*
X17817214Y-18099500D01*
X17831500Y-18113786D01*
X17845786Y-18142357D01*
X17845786Y-18156643D01*
X17831500Y-18185214D01*
X17817214Y-18199500D01*
X17788643Y-18213786D01*
X17731500Y-18213786D01*
X17702928Y-18228072D01*
X17688643Y-18242357D01*
X17674357Y-18270929D01*
X17674357Y-18328072D01*
X17688643Y-18356643D01*
X17702928Y-18370929D01*
X17731500Y-18385214D01*
X17788643Y-18385214D01*
X17817214Y-18370929D01*
X17831500Y-18356643D01*
X17845786Y-18328072D01*
X17845786Y-18270929D01*
X17831500Y-18242357D01*
X17817214Y-18228072D01*
X17788643Y-18213786D01*
X18031500Y-18085214D02*
X18060071Y-18085214D01*
X18088643Y-18099500D01*
X18102928Y-18113786D01*
X18117214Y-18142357D01*
X18131500Y-18199500D01*
X18131500Y-18270929D01*
X18117214Y-18328072D01*
X18102928Y-18356643D01*
X18088643Y-18370929D01*
X18060071Y-18385214D01*
X18031500Y-18385214D01*
X18002928Y-18370929D01*
X17988643Y-18356643D01*
X17974357Y-18328072D01*
X17960071Y-18270929D01*
X17960071Y-18199500D01*
X17974357Y-18142357D01*
X17988643Y-18113786D01*
X18002928Y-18099500D01*
X18031500Y-18085214D01*
X18488643Y-18385214D02*
X18488643Y-18085214D01*
X18617214Y-18385214D02*
X18617214Y-18228072D01*
X18602928Y-18199500D01*
X18574357Y-18185214D01*
X18531500Y-18185214D01*
X18502928Y-18199500D01*
X18488643Y-18213786D01*
X18802928Y-18385214D02*
X18774357Y-18370929D01*
X18760071Y-18356643D01*
X18745786Y-18328072D01*
X18745786Y-18242357D01*
X18760071Y-18213786D01*
X18774357Y-18199500D01*
X18802928Y-18185214D01*
X18845786Y-18185214D01*
X18874357Y-18199500D01*
X18888643Y-18213786D01*
X18902928Y-18242357D01*
X18902928Y-18328072D01*
X18888643Y-18356643D01*
X18874357Y-18370929D01*
X18845786Y-18385214D01*
X18802928Y-18385214D01*
X19074357Y-18385214D02*
X19045786Y-18370929D01*
X19031500Y-18342357D01*
X19031500Y-18085214D01*
X19302928Y-18370929D02*
X19274357Y-18385214D01*
X19217214Y-18385214D01*
X19188643Y-18370929D01*
X19174357Y-18342357D01*
X19174357Y-18228072D01*
X19188643Y-18199500D01*
X19217214Y-18185214D01*
X19274357Y-18185214D01*
X19302928Y-18199500D01*
X19317214Y-18228072D01*
X19317214Y-18256643D01*
X19174357Y-18285214D01*
X19431500Y-18370929D02*
X19460071Y-18385214D01*
X19517214Y-18385214D01*
X19545786Y-18370929D01*
X19560071Y-18342357D01*
X19560071Y-18328072D01*
X19545786Y-18299500D01*
X19517214Y-18285214D01*
X19474357Y-18285214D01*
X19445786Y-18270929D01*
X19431500Y-18242357D01*
X19431500Y-18228072D01*
X19445786Y-18199500D01*
X19474357Y-18185214D01*
X19517214Y-18185214D01*
X19545786Y-18199500D01*
X19660071Y-18499500D02*
X19674357Y-18485214D01*
X19702928Y-18442357D01*
X19717214Y-18413786D01*
X19731500Y-18370929D01*
X19745786Y-18299500D01*
X19745786Y-18242357D01*
X19731500Y-18170929D01*
X19717214Y-18128072D01*
X19702928Y-18099500D01*
X19674357Y-18056643D01*
X19660071Y-18042357D01*
X12276500Y-18605500D02*
X12276500Y-18685500D01*
X12236500Y-18645500D02*
X12316500Y-18645500D01*
X12660071Y-18481214D02*
X12688643Y-18481214D01*
X12717214Y-18495500D01*
X12731500Y-18509786D01*
X12745786Y-18538357D01*
X12760071Y-18595500D01*
X12760071Y-18666929D01*
X12745786Y-18724072D01*
X12731500Y-18752643D01*
X12717214Y-18766929D01*
X12688643Y-18781214D01*
X12660071Y-18781214D01*
X12631500Y-18766929D01*
X12617214Y-18752643D01*
X12602928Y-18724072D01*
X12588643Y-18666929D01*
X12588643Y-18595500D01*
X12602928Y-18538357D01*
X12617214Y-18509786D01*
X12631500Y-18495500D01*
X12660071Y-18481214D01*
X12888643Y-18752643D02*
X12902928Y-18766929D01*
X12888643Y-18781214D01*
X12874357Y-18766929D01*
X12888643Y-18752643D01*
X12888643Y-18781214D01*
X13074357Y-18609786D02*
X13045786Y-18595500D01*
X13031500Y-18581214D01*
X13017214Y-18552643D01*
X13017214Y-18538357D01*
X13031500Y-18509786D01*
X13045786Y-18495500D01*
X13074357Y-18481214D01*
X13131500Y-18481214D01*
X13160071Y-18495500D01*
X13174357Y-18509786D01*
X13188643Y-18538357D01*
X13188643Y-18552643D01*
X13174357Y-18581214D01*
X13160071Y-18595500D01*
X13131500Y-18609786D01*
X13074357Y-18609786D01*
X13045786Y-18624072D01*
X13031500Y-18638357D01*
X13017214Y-18666929D01*
X13017214Y-18724072D01*
X13031500Y-18752643D01*
X13045786Y-18766929D01*
X13074357Y-18781214D01*
X13131500Y-18781214D01*
X13160071Y-18766929D01*
X13174357Y-18752643D01*
X13188643Y-18724072D01*
X13188643Y-18666929D01*
X13174357Y-18638357D01*
X13160071Y-18624072D01*
X13131500Y-18609786D01*
X13374357Y-18481214D02*
X13402928Y-18481214D01*
X13431500Y-18495500D01*
X13445786Y-18509786D01*
X13460071Y-18538357D01*
X13474357Y-18595500D01*
X13474357Y-18666929D01*
X13460071Y-18724072D01*
X13445786Y-18752643D01*
X13431500Y-18766929D01*
X13402928Y-18781214D01*
X13374357Y-18781214D01*
X13345786Y-18766929D01*
X13331500Y-18752643D01*
X13317214Y-18724072D01*
X13302928Y-18666929D01*
X13302928Y-18595500D01*
X13317214Y-18538357D01*
X13331500Y-18509786D01*
X13345786Y-18495500D01*
X13374357Y-18481214D01*
X13660071Y-18481214D02*
X13688643Y-18481214D01*
X13717214Y-18495500D01*
X13731500Y-18509786D01*
X13745786Y-18538357D01*
X13760071Y-18595500D01*
X13760071Y-18666929D01*
X13745786Y-18724072D01*
X13731500Y-18752643D01*
X13717214Y-18766929D01*
X13688643Y-18781214D01*
X13660071Y-18781214D01*
X13631500Y-18766929D01*
X13617214Y-18752643D01*
X13602928Y-18724072D01*
X13588643Y-18666929D01*
X13588643Y-18595500D01*
X13602928Y-18538357D01*
X13617214Y-18509786D01*
X13631500Y-18495500D01*
X13660071Y-18481214D01*
X13888643Y-18781214D02*
X13888643Y-18581214D01*
X13888643Y-18609786D02*
X13902928Y-18595500D01*
X13931500Y-18581214D01*
X13974357Y-18581214D01*
X14002928Y-18595500D01*
X14017214Y-18624072D01*
X14017214Y-18781214D01*
X14017214Y-18624072D02*
X14031500Y-18595500D01*
X14060071Y-18581214D01*
X14102928Y-18581214D01*
X14131500Y-18595500D01*
X14145786Y-18624072D01*
X14145786Y-18781214D01*
X14288643Y-18781214D02*
X14288643Y-18581214D01*
X14288643Y-18609786D02*
X14302928Y-18595500D01*
X14331500Y-18581214D01*
X14374357Y-18581214D01*
X14402928Y-18595500D01*
X14417214Y-18624072D01*
X14417214Y-18781214D01*
X14417214Y-18624072D02*
X14431500Y-18595500D01*
X14460071Y-18581214D01*
X14502928Y-18581214D01*
X14531500Y-18595500D01*
X14545786Y-18624072D01*
X14545786Y-18781214D01*
X15131500Y-18466929D02*
X14874357Y-18852643D01*
X15517214Y-18481214D02*
X15545786Y-18481214D01*
X15574357Y-18495500D01*
X15588643Y-18509786D01*
X15602928Y-18538357D01*
X15617214Y-18595500D01*
X15617214Y-18666929D01*
X15602928Y-18724072D01*
X15588643Y-18752643D01*
X15574357Y-18766929D01*
X15545786Y-18781214D01*
X15517214Y-18781214D01*
X15488643Y-18766929D01*
X15474357Y-18752643D01*
X15460071Y-18724072D01*
X15445786Y-18666929D01*
X15445786Y-18595500D01*
X15460071Y-18538357D01*
X15474357Y-18509786D01*
X15488643Y-18495500D01*
X15517214Y-18481214D01*
X15745786Y-18752643D02*
X15760071Y-18766929D01*
X15745786Y-18781214D01*
X15731500Y-18766929D01*
X15745786Y-18752643D01*
X15745786Y-18781214D01*
X15945786Y-18481214D02*
X15974357Y-18481214D01*
X16002928Y-18495500D01*
X16017214Y-18509786D01*
X16031500Y-18538357D01*
X16045786Y-18595500D01*
X16045786Y-18666929D01*
X16031500Y-18724072D01*
X16017214Y-18752643D01*
X16002928Y-18766929D01*
X15974357Y-18781214D01*
X15945786Y-18781214D01*
X15917214Y-18766929D01*
X15902928Y-18752643D01*
X15888643Y-18724072D01*
X15874357Y-18666929D01*
X15874357Y-18595500D01*
X15888643Y-18538357D01*
X15902928Y-18509786D01*
X15917214Y-18495500D01*
X15945786Y-18481214D01*
X16145786Y-18481214D02*
X16331500Y-18481214D01*
X16231500Y-18595500D01*
X16274357Y-18595500D01*
X16302928Y-18609786D01*
X16317214Y-18624072D01*
X16331500Y-18652643D01*
X16331500Y-18724072D01*
X16317214Y-18752643D01*
X16302928Y-18766929D01*
X16274357Y-18781214D01*
X16188643Y-18781214D01*
X16160071Y-18766929D01*
X16145786Y-18752643D01*
X16617214Y-18781214D02*
X16445786Y-18781214D01*
X16531500Y-18781214D02*
X16531500Y-18481214D01*
X16502928Y-18524072D01*
X16474357Y-18552643D01*
X16445786Y-18566929D01*
X16888643Y-18481214D02*
X16745786Y-18481214D01*
X16731500Y-18624072D01*
X16745786Y-18609786D01*
X16774357Y-18595500D01*
X16845786Y-18595500D01*
X16874357Y-18609786D01*
X16888643Y-18624072D01*
X16902928Y-18652643D01*
X16902928Y-18724072D01*
X16888643Y-18752643D01*
X16874357Y-18766929D01*
X16845786Y-18781214D01*
X16774357Y-18781214D01*
X16745786Y-18766929D01*
X16731500Y-18752643D01*
X17017214Y-18481214D02*
X17017214Y-18538357D01*
X17131500Y-18481214D02*
X17131500Y-18538357D01*
X17574357Y-18895500D02*
X17560071Y-18881214D01*
X17531500Y-18838357D01*
X17517214Y-18809786D01*
X17502928Y-18766929D01*
X17488643Y-18695500D01*
X17488643Y-18638357D01*
X17502928Y-18566929D01*
X17517214Y-18524072D01*
X17531500Y-18495500D01*
X17560071Y-18452643D01*
X17574357Y-18438357D01*
X17674357Y-18509786D02*
X17688643Y-18495500D01*
X17717214Y-18481214D01*
X17788643Y-18481214D01*
X17817214Y-18495500D01*
X17831500Y-18509786D01*
X17845786Y-18538357D01*
X17845786Y-18566929D01*
X17831500Y-18609786D01*
X17660071Y-18781214D01*
X17845786Y-18781214D01*
X18202928Y-18781214D02*
X18202928Y-18481214D01*
X18331500Y-18781214D02*
X18331500Y-18624072D01*
X18317214Y-18595500D01*
X18288643Y-18581214D01*
X18245786Y-18581214D01*
X18217214Y-18595500D01*
X18202928Y-18609786D01*
X18517214Y-18781214D02*
X18488643Y-18766929D01*
X18474357Y-18752643D01*
X18460071Y-18724072D01*
X18460071Y-18638357D01*
X18474357Y-18609786D01*
X18488643Y-18595500D01*
X18517214Y-18581214D01*
X18560071Y-18581214D01*
X18588643Y-18595500D01*
X18602928Y-18609786D01*
X18617214Y-18638357D01*
X18617214Y-18724072D01*
X18602928Y-18752643D01*
X18588643Y-18766929D01*
X18560071Y-18781214D01*
X18517214Y-18781214D01*
X18788643Y-18781214D02*
X18760071Y-18766929D01*
X18745786Y-18738357D01*
X18745786Y-18481214D01*
X19017214Y-18766929D02*
X18988643Y-18781214D01*
X18931500Y-18781214D01*
X18902928Y-18766929D01*
X18888643Y-18738357D01*
X18888643Y-18624072D01*
X18902928Y-18595500D01*
X18931500Y-18581214D01*
X18988643Y-18581214D01*
X19017214Y-18595500D01*
X19031500Y-18624072D01*
X19031500Y-18652643D01*
X18888643Y-18681214D01*
X19145786Y-18766929D02*
X19174357Y-18781214D01*
X19231500Y-18781214D01*
X19260071Y-18766929D01*
X19274357Y-18738357D01*
X19274357Y-18724072D01*
X19260071Y-18695500D01*
X19231500Y-18681214D01*
X19188643Y-18681214D01*
X19160071Y-18666929D01*
X19145786Y-18638357D01*
X19145786Y-18624072D01*
X19160071Y-18595500D01*
X19188643Y-18581214D01*
X19231500Y-18581214D01*
X19260071Y-18595500D01*
X19374357Y-18895500D02*
X19388643Y-18881214D01*
X19417214Y-18838357D01*
X19431500Y-18809786D01*
X19445786Y-18766929D01*
X19460071Y-18695500D01*
X19460071Y-18638357D01*
X19445786Y-18566929D01*
X19431500Y-18524072D01*
X19417214Y-18495500D01*
X19388643Y-18452643D01*
X19374357Y-18438357D01*
X12303320Y-19073320D02*
X12303320Y-19009680D01*
X12239680Y-19009680D01*
X12239680Y-19073320D01*
X12303320Y-19073320D01*
X12660071Y-18877214D02*
X12688643Y-18877214D01*
X12717214Y-18891500D01*
X12731500Y-18905786D01*
X12745786Y-18934357D01*
X12760071Y-18991500D01*
X12760071Y-19062929D01*
X12745786Y-19120072D01*
X12731500Y-19148643D01*
X12717214Y-19162929D01*
X12688643Y-19177214D01*
X12660071Y-19177214D01*
X12631500Y-19162929D01*
X12617214Y-19148643D01*
X12602928Y-19120072D01*
X12588643Y-19062929D01*
X12588643Y-18991500D01*
X12602928Y-18934357D01*
X12617214Y-18905786D01*
X12631500Y-18891500D01*
X12660071Y-18877214D01*
X12888643Y-19148643D02*
X12902928Y-19162929D01*
X12888643Y-19177214D01*
X12874357Y-19162929D01*
X12888643Y-19148643D01*
X12888643Y-19177214D01*
X13045786Y-19177214D02*
X13102928Y-19177214D01*
X13131500Y-19162929D01*
X13145786Y-19148643D01*
X13174357Y-19105786D01*
X13188643Y-19048643D01*
X13188643Y-18934357D01*
X13174357Y-18905786D01*
X13160071Y-18891500D01*
X13131500Y-18877214D01*
X13074357Y-18877214D01*
X13045786Y-18891500D01*
X13031500Y-18905786D01*
X13017214Y-18934357D01*
X13017214Y-19005786D01*
X13031500Y-19034357D01*
X13045786Y-19048643D01*
X13074357Y-19062929D01*
X13131500Y-19062929D01*
X13160071Y-19048643D01*
X13174357Y-19034357D01*
X13188643Y-19005786D01*
X13374357Y-18877214D02*
X13402928Y-18877214D01*
X13431500Y-18891500D01*
X13445786Y-18905786D01*
X13460071Y-18934357D01*
X13474357Y-18991500D01*
X13474357Y-19062929D01*
X13460071Y-19120072D01*
X13445786Y-19148643D01*
X13431500Y-19162929D01*
X13402928Y-19177214D01*
X13374357Y-19177214D01*
X13345786Y-19162929D01*
X13331500Y-19148643D01*
X13317214Y-19120072D01*
X13302928Y-19062929D01*
X13302928Y-18991500D01*
X13317214Y-18934357D01*
X13331500Y-18905786D01*
X13345786Y-18891500D01*
X13374357Y-18877214D01*
X13660071Y-18877214D02*
X13688643Y-18877214D01*
X13717214Y-18891500D01*
X13731500Y-18905786D01*
X13745786Y-18934357D01*
X13760071Y-18991500D01*
X13760071Y-19062929D01*
X13745786Y-19120072D01*
X13731500Y-19148643D01*
X13717214Y-19162929D01*
X13688643Y-19177214D01*
X13660071Y-19177214D01*
X13631500Y-19162929D01*
X13617214Y-19148643D01*
X13602928Y-19120072D01*
X13588643Y-19062929D01*
X13588643Y-18991500D01*
X13602928Y-18934357D01*
X13617214Y-18905786D01*
X13631500Y-18891500D01*
X13660071Y-18877214D01*
X13888643Y-19177214D02*
X13888643Y-18977214D01*
X13888643Y-19005786D02*
X13902928Y-18991500D01*
X13931500Y-18977214D01*
X13974357Y-18977214D01*
X14002928Y-18991500D01*
X14017214Y-19020072D01*
X14017214Y-19177214D01*
X14017214Y-19020072D02*
X14031500Y-18991500D01*
X14060071Y-18977214D01*
X14102928Y-18977214D01*
X14131500Y-18991500D01*
X14145786Y-19020072D01*
X14145786Y-19177214D01*
X14288643Y-19177214D02*
X14288643Y-18977214D01*
X14288643Y-19005786D02*
X14302928Y-18991500D01*
X14331500Y-18977214D01*
X14374357Y-18977214D01*
X14402928Y-18991500D01*
X14417214Y-19020072D01*
X14417214Y-19177214D01*
X14417214Y-19020072D02*
X14431500Y-18991500D01*
X14460071Y-18977214D01*
X14502928Y-18977214D01*
X14531500Y-18991500D01*
X14545786Y-19020072D01*
X14545786Y-19177214D01*
X15131500Y-18862929D02*
X14874357Y-19248643D01*
X15517214Y-18877214D02*
X15545786Y-18877214D01*
X15574357Y-18891500D01*
X15588643Y-18905786D01*
X15602928Y-18934357D01*
X15617214Y-18991500D01*
X15617214Y-19062929D01*
X15602928Y-19120072D01*
X15588643Y-19148643D01*
X15574357Y-19162929D01*
X15545786Y-19177214D01*
X15517214Y-19177214D01*
X15488643Y-19162929D01*
X15474357Y-19148643D01*
X15460071Y-19120072D01*
X15445786Y-19062929D01*
X15445786Y-18991500D01*
X15460071Y-18934357D01*
X15474357Y-18905786D01*
X15488643Y-18891500D01*
X15517214Y-18877214D01*
X15745786Y-19148643D02*
X15760071Y-19162929D01*
X15745786Y-19177214D01*
X15731500Y-19162929D01*
X15745786Y-19148643D01*
X15745786Y-19177214D01*
X15945786Y-18877214D02*
X15974357Y-18877214D01*
X16002928Y-18891500D01*
X16017214Y-18905786D01*
X16031500Y-18934357D01*
X16045786Y-18991500D01*
X16045786Y-19062929D01*
X16031500Y-19120072D01*
X16017214Y-19148643D01*
X16002928Y-19162929D01*
X15974357Y-19177214D01*
X15945786Y-19177214D01*
X15917214Y-19162929D01*
X15902928Y-19148643D01*
X15888643Y-19120072D01*
X15874357Y-19062929D01*
X15874357Y-18991500D01*
X15888643Y-18934357D01*
X15902928Y-18905786D01*
X15917214Y-18891500D01*
X15945786Y-18877214D01*
X16145786Y-18877214D02*
X16331500Y-18877214D01*
X16231500Y-18991500D01*
X16274357Y-18991500D01*
X16302928Y-19005786D01*
X16317214Y-19020072D01*
X16331500Y-19048643D01*
X16331500Y-19120072D01*
X16317214Y-19148643D01*
X16302928Y-19162929D01*
X16274357Y-19177214D01*
X16188643Y-19177214D01*
X16160071Y-19162929D01*
X16145786Y-19148643D01*
X16602928Y-18877214D02*
X16460071Y-18877214D01*
X16445786Y-19020072D01*
X16460071Y-19005786D01*
X16488643Y-18991500D01*
X16560071Y-18991500D01*
X16588643Y-19005786D01*
X16602928Y-19020072D01*
X16617214Y-19048643D01*
X16617214Y-19120072D01*
X16602928Y-19148643D01*
X16588643Y-19162929D01*
X16560071Y-19177214D01*
X16488643Y-19177214D01*
X16460071Y-19162929D01*
X16445786Y-19148643D01*
X16874357Y-18977214D02*
X16874357Y-19177214D01*
X16802928Y-18862929D02*
X16731500Y-19077214D01*
X16917214Y-19077214D01*
X17017214Y-18877214D02*
X17017214Y-18934357D01*
X17131500Y-18877214D02*
X17131500Y-18934357D01*
X17574357Y-19291500D02*
X17560071Y-19277214D01*
X17531500Y-19234357D01*
X17517214Y-19205786D01*
X17502928Y-19162929D01*
X17488643Y-19091500D01*
X17488643Y-19034357D01*
X17502928Y-18962929D01*
X17517214Y-18920072D01*
X17531500Y-18891500D01*
X17560071Y-18848643D01*
X17574357Y-18834357D01*
X17845786Y-19177214D02*
X17674357Y-19177214D01*
X17760071Y-19177214D02*
X17760071Y-18877214D01*
X17731500Y-18920072D01*
X17702928Y-18948643D01*
X17674357Y-18962929D01*
X18102928Y-18877214D02*
X18045786Y-18877214D01*
X18017214Y-18891500D01*
X18002928Y-18905786D01*
X17974357Y-18948643D01*
X17960071Y-19005786D01*
X17960071Y-19120072D01*
X17974357Y-19148643D01*
X17988643Y-19162929D01*
X18017214Y-19177214D01*
X18074357Y-19177214D01*
X18102928Y-19162929D01*
X18117214Y-19148643D01*
X18131500Y-19120072D01*
X18131500Y-19048643D01*
X18117214Y-19020072D01*
X18102928Y-19005786D01*
X18074357Y-18991500D01*
X18017214Y-18991500D01*
X17988643Y-19005786D01*
X17974357Y-19020072D01*
X17960071Y-19048643D01*
X18488643Y-19177214D02*
X18488643Y-18877214D01*
X18617214Y-19177214D02*
X18617214Y-19020072D01*
X18602928Y-18991500D01*
X18574357Y-18977214D01*
X18531500Y-18977214D01*
X18502928Y-18991500D01*
X18488643Y-19005786D01*
X18802928Y-19177214D02*
X18774357Y-19162929D01*
X18760071Y-19148643D01*
X18745786Y-19120072D01*
X18745786Y-19034357D01*
X18760071Y-19005786D01*
X18774357Y-18991500D01*
X18802928Y-18977214D01*
X18845786Y-18977214D01*
X18874357Y-18991500D01*
X18888643Y-19005786D01*
X18902928Y-19034357D01*
X18902928Y-19120072D01*
X18888643Y-19148643D01*
X18874357Y-19162929D01*
X18845786Y-19177214D01*
X18802928Y-19177214D01*
X19074357Y-19177214D02*
X19045786Y-19162929D01*
X19031500Y-19134357D01*
X19031500Y-18877214D01*
X19302928Y-19162929D02*
X19274357Y-19177214D01*
X19217214Y-19177214D01*
X19188643Y-19162929D01*
X19174357Y-19134357D01*
X19174357Y-19020072D01*
X19188643Y-18991500D01*
X19217214Y-18977214D01*
X19274357Y-18977214D01*
X19302928Y-18991500D01*
X19317214Y-19020072D01*
X19317214Y-19048643D01*
X19174357Y-19077214D01*
X19431500Y-19162929D02*
X19460071Y-19177214D01*
X19517214Y-19177214D01*
X19545786Y-19162929D01*
X19560071Y-19134357D01*
X19560071Y-19120072D01*
X19545786Y-19091500D01*
X19517214Y-19077214D01*
X19474357Y-19077214D01*
X19445786Y-19062929D01*
X19431500Y-19034357D01*
X19431500Y-19020072D01*
X19445786Y-18991500D01*
X19474357Y-18977214D01*
X19517214Y-18977214D01*
X19545786Y-18991500D01*
X19660071Y-19291500D02*
X19674357Y-19277214D01*
X19702928Y-19234357D01*
X19717214Y-19205786D01*
X19731500Y-19162929D01*
X19745786Y-19091500D01*
X19745786Y-19034357D01*
X19731500Y-18962929D01*
X19717214Y-18920072D01*
X19702928Y-18891500D01*
X19674357Y-18848643D01*
X19660071Y-18834357D01*
X12266500Y-19487500D02*
X12316500Y-19437500D01*
X12266500Y-19387500D01*
X12216500Y-19437500D01*
X12266500Y-19487500D01*
X12760071Y-19573214D02*
X12588643Y-19573214D01*
X12674357Y-19573214D02*
X12674357Y-19273214D01*
X12645786Y-19316072D01*
X12617214Y-19344643D01*
X12588643Y-19358929D01*
X12888643Y-19544643D02*
X12902928Y-19558929D01*
X12888643Y-19573214D01*
X12874357Y-19558929D01*
X12888643Y-19544643D01*
X12888643Y-19573214D01*
X13088643Y-19273214D02*
X13117214Y-19273214D01*
X13145786Y-19287500D01*
X13160071Y-19301786D01*
X13174357Y-19330357D01*
X13188643Y-19387500D01*
X13188643Y-19458929D01*
X13174357Y-19516072D01*
X13160071Y-19544643D01*
X13145786Y-19558929D01*
X13117214Y-19573214D01*
X13088643Y-19573214D01*
X13060071Y-19558929D01*
X13045786Y-19544643D01*
X13031500Y-19516072D01*
X13017214Y-19458929D01*
X13017214Y-19387500D01*
X13031500Y-19330357D01*
X13045786Y-19301786D01*
X13060071Y-19287500D01*
X13088643Y-19273214D01*
X13374357Y-19273214D02*
X13402928Y-19273214D01*
X13431500Y-19287500D01*
X13445786Y-19301786D01*
X13460071Y-19330357D01*
X13474357Y-19387500D01*
X13474357Y-19458929D01*
X13460071Y-19516072D01*
X13445786Y-19544643D01*
X13431500Y-19558929D01*
X13402928Y-19573214D01*
X13374357Y-19573214D01*
X13345786Y-19558929D01*
X13331500Y-19544643D01*
X13317214Y-19516072D01*
X13302928Y-19458929D01*
X13302928Y-19387500D01*
X13317214Y-19330357D01*
X13331500Y-19301786D01*
X13345786Y-19287500D01*
X13374357Y-19273214D01*
X13660071Y-19273214D02*
X13688643Y-19273214D01*
X13717214Y-19287500D01*
X13731500Y-19301786D01*
X13745786Y-19330357D01*
X13760071Y-19387500D01*
X13760071Y-19458929D01*
X13745786Y-19516072D01*
X13731500Y-19544643D01*
X13717214Y-19558929D01*
X13688643Y-19573214D01*
X13660071Y-19573214D01*
X13631500Y-19558929D01*
X13617214Y-19544643D01*
X13602928Y-19516072D01*
X13588643Y-19458929D01*
X13588643Y-19387500D01*
X13602928Y-19330357D01*
X13617214Y-19301786D01*
X13631500Y-19287500D01*
X13660071Y-19273214D01*
X13888643Y-19573214D02*
X13888643Y-19373214D01*
X13888643Y-19401786D02*
X13902928Y-19387500D01*
X13931500Y-19373214D01*
X13974357Y-19373214D01*
X14002928Y-19387500D01*
X14017214Y-19416072D01*
X14017214Y-19573214D01*
X14017214Y-19416072D02*
X14031500Y-19387500D01*
X14060071Y-19373214D01*
X14102928Y-19373214D01*
X14131500Y-19387500D01*
X14145786Y-19416072D01*
X14145786Y-19573214D01*
X14288643Y-19573214D02*
X14288643Y-19373214D01*
X14288643Y-19401786D02*
X14302928Y-19387500D01*
X14331500Y-19373214D01*
X14374357Y-19373214D01*
X14402928Y-19387500D01*
X14417214Y-19416072D01*
X14417214Y-19573214D01*
X14417214Y-19416072D02*
X14431500Y-19387500D01*
X14460071Y-19373214D01*
X14502928Y-19373214D01*
X14531500Y-19387500D01*
X14545786Y-19416072D01*
X14545786Y-19573214D01*
X15131500Y-19258929D02*
X14874357Y-19644643D01*
X15517214Y-19273214D02*
X15545786Y-19273214D01*
X15574357Y-19287500D01*
X15588643Y-19301786D01*
X15602928Y-19330357D01*
X15617214Y-19387500D01*
X15617214Y-19458929D01*
X15602928Y-19516072D01*
X15588643Y-19544643D01*
X15574357Y-19558929D01*
X15545786Y-19573214D01*
X15517214Y-19573214D01*
X15488643Y-19558929D01*
X15474357Y-19544643D01*
X15460071Y-19516072D01*
X15445786Y-19458929D01*
X15445786Y-19387500D01*
X15460071Y-19330357D01*
X15474357Y-19301786D01*
X15488643Y-19287500D01*
X15517214Y-19273214D01*
X15745786Y-19544643D02*
X15760071Y-19558929D01*
X15745786Y-19573214D01*
X15731500Y-19558929D01*
X15745786Y-19544643D01*
X15745786Y-19573214D01*
X15945786Y-19273214D02*
X15974357Y-19273214D01*
X16002928Y-19287500D01*
X16017214Y-19301786D01*
X16031500Y-19330357D01*
X16045786Y-19387500D01*
X16045786Y-19458929D01*
X16031500Y-19516072D01*
X16017214Y-19544643D01*
X16002928Y-19558929D01*
X15974357Y-19573214D01*
X15945786Y-19573214D01*
X15917214Y-19558929D01*
X15902928Y-19544643D01*
X15888643Y-19516072D01*
X15874357Y-19458929D01*
X15874357Y-19387500D01*
X15888643Y-19330357D01*
X15902928Y-19301786D01*
X15917214Y-19287500D01*
X15945786Y-19273214D01*
X16145786Y-19273214D02*
X16331500Y-19273214D01*
X16231500Y-19387500D01*
X16274357Y-19387500D01*
X16302928Y-19401786D01*
X16317214Y-19416072D01*
X16331500Y-19444643D01*
X16331500Y-19516072D01*
X16317214Y-19544643D01*
X16302928Y-19558929D01*
X16274357Y-19573214D01*
X16188643Y-19573214D01*
X16160071Y-19558929D01*
X16145786Y-19544643D01*
X16474357Y-19573214D02*
X16531500Y-19573214D01*
X16560071Y-19558929D01*
X16574357Y-19544643D01*
X16602928Y-19501786D01*
X16617214Y-19444643D01*
X16617214Y-19330357D01*
X16602928Y-19301786D01*
X16588643Y-19287500D01*
X16560071Y-19273214D01*
X16502928Y-19273214D01*
X16474357Y-19287500D01*
X16460071Y-19301786D01*
X16445786Y-19330357D01*
X16445786Y-19401786D01*
X16460071Y-19430357D01*
X16474357Y-19444643D01*
X16502928Y-19458929D01*
X16560071Y-19458929D01*
X16588643Y-19444643D01*
X16602928Y-19430357D01*
X16617214Y-19401786D01*
X16874357Y-19373214D02*
X16874357Y-19573214D01*
X16802928Y-19258929D02*
X16731500Y-19473214D01*
X16917214Y-19473214D01*
X17017214Y-19273214D02*
X17017214Y-19330357D01*
X17131500Y-19273214D02*
X17131500Y-19330357D01*
X17574357Y-19687500D02*
X17560071Y-19673214D01*
X17531500Y-19630357D01*
X17517214Y-19601786D01*
X17502928Y-19558929D01*
X17488643Y-19487500D01*
X17488643Y-19430357D01*
X17502928Y-19358929D01*
X17517214Y-19316072D01*
X17531500Y-19287500D01*
X17560071Y-19244643D01*
X17574357Y-19230357D01*
X17702928Y-19573214D02*
X17760071Y-19573214D01*
X17788643Y-19558929D01*
X17802928Y-19544643D01*
X17831500Y-19501786D01*
X17845786Y-19444643D01*
X17845786Y-19330357D01*
X17831500Y-19301786D01*
X17817214Y-19287500D01*
X17788643Y-19273214D01*
X17731500Y-19273214D01*
X17702928Y-19287500D01*
X17688643Y-19301786D01*
X17674357Y-19330357D01*
X17674357Y-19401786D01*
X17688643Y-19430357D01*
X17702928Y-19444643D01*
X17731500Y-19458929D01*
X17788643Y-19458929D01*
X17817214Y-19444643D01*
X17831500Y-19430357D01*
X17845786Y-19401786D01*
X18202928Y-19573214D02*
X18202928Y-19273214D01*
X18331500Y-19573214D02*
X18331500Y-19416072D01*
X18317214Y-19387500D01*
X18288643Y-19373214D01*
X18245786Y-19373214D01*
X18217214Y-19387500D01*
X18202928Y-19401786D01*
X18517214Y-19573214D02*
X18488643Y-19558929D01*
X18474357Y-19544643D01*
X18460071Y-19516072D01*
X18460071Y-19430357D01*
X18474357Y-19401786D01*
X18488643Y-19387500D01*
X18517214Y-19373214D01*
X18560071Y-19373214D01*
X18588643Y-19387500D01*
X18602928Y-19401786D01*
X18617214Y-19430357D01*
X18617214Y-19516072D01*
X18602928Y-19544643D01*
X18588643Y-19558929D01*
X18560071Y-19573214D01*
X18517214Y-19573214D01*
X18788643Y-19573214D02*
X18760071Y-19558929D01*
X18745786Y-19530357D01*
X18745786Y-19273214D01*
X19017214Y-19558929D02*
X18988643Y-19573214D01*
X18931500Y-19573214D01*
X18902928Y-19558929D01*
X18888643Y-19530357D01*
X18888643Y-19416072D01*
X18902928Y-19387500D01*
X18931500Y-19373214D01*
X18988643Y-19373214D01*
X19017214Y-19387500D01*
X19031500Y-19416072D01*
X19031500Y-19444643D01*
X18888643Y-19473214D01*
X19145786Y-19558929D02*
X19174357Y-19573214D01*
X19231500Y-19573214D01*
X19260071Y-19558929D01*
X19274357Y-19530357D01*
X19274357Y-19516072D01*
X19260071Y-19487500D01*
X19231500Y-19473214D01*
X19188643Y-19473214D01*
X19160071Y-19458929D01*
X19145786Y-19430357D01*
X19145786Y-19416072D01*
X19160071Y-19387500D01*
X19188643Y-19373214D01*
X19231500Y-19373214D01*
X19260071Y-19387500D01*
X19374357Y-19687500D02*
X19388643Y-19673214D01*
X19417214Y-19630357D01*
X19431500Y-19601786D01*
X19445786Y-19558929D01*
X19460071Y-19487500D01*
X19460071Y-19430357D01*
X19445786Y-19358929D01*
X19431500Y-19316072D01*
X19417214Y-19287500D01*
X19388643Y-19244643D01*
X19374357Y-19230357D01*
X12206500Y-19778500D02*
X12316500Y-19888500D01*
X12316500Y-19778500D02*
X12206500Y-19888500D01*
X12316500Y-19833500D02*
G75*
G03*
X12316500Y-19833500I-55000J0D01*
G01*
X12760071Y-19969214D02*
X12588643Y-19969214D01*
X12674357Y-19969214D02*
X12674357Y-19669214D01*
X12645786Y-19712072D01*
X12617214Y-19740643D01*
X12588643Y-19754929D01*
X12888643Y-19940643D02*
X12902928Y-19954929D01*
X12888643Y-19969214D01*
X12874357Y-19954929D01*
X12888643Y-19940643D01*
X12888643Y-19969214D01*
X13188643Y-19969214D02*
X13017214Y-19969214D01*
X13102928Y-19969214D02*
X13102928Y-19669214D01*
X13074357Y-19712072D01*
X13045786Y-19740643D01*
X13017214Y-19754929D01*
X13374357Y-19669214D02*
X13402928Y-19669214D01*
X13431500Y-19683500D01*
X13445786Y-19697786D01*
X13460071Y-19726357D01*
X13474357Y-19783500D01*
X13474357Y-19854929D01*
X13460071Y-19912072D01*
X13445786Y-19940643D01*
X13431500Y-19954929D01*
X13402928Y-19969214D01*
X13374357Y-19969214D01*
X13345786Y-19954929D01*
X13331500Y-19940643D01*
X13317214Y-19912072D01*
X13302928Y-19854929D01*
X13302928Y-19783500D01*
X13317214Y-19726357D01*
X13331500Y-19697786D01*
X13345786Y-19683500D01*
X13374357Y-19669214D01*
X13660071Y-19669214D02*
X13688643Y-19669214D01*
X13717214Y-19683500D01*
X13731500Y-19697786D01*
X13745786Y-19726357D01*
X13760071Y-19783500D01*
X13760071Y-19854929D01*
X13745786Y-19912072D01*
X13731500Y-19940643D01*
X13717214Y-19954929D01*
X13688643Y-19969214D01*
X13660071Y-19969214D01*
X13631500Y-19954929D01*
X13617214Y-19940643D01*
X13602928Y-19912072D01*
X13588643Y-19854929D01*
X13588643Y-19783500D01*
X13602928Y-19726357D01*
X13617214Y-19697786D01*
X13631500Y-19683500D01*
X13660071Y-19669214D01*
X13888643Y-19969214D02*
X13888643Y-19769214D01*
X13888643Y-19797786D02*
X13902928Y-19783500D01*
X13931500Y-19769214D01*
X13974357Y-19769214D01*
X14002928Y-19783500D01*
X14017214Y-19812072D01*
X14017214Y-19969214D01*
X14017214Y-19812072D02*
X14031500Y-19783500D01*
X14060071Y-19769214D01*
X14102928Y-19769214D01*
X14131500Y-19783500D01*
X14145786Y-19812072D01*
X14145786Y-19969214D01*
X14288643Y-19969214D02*
X14288643Y-19769214D01*
X14288643Y-19797786D02*
X14302928Y-19783500D01*
X14331500Y-19769214D01*
X14374357Y-19769214D01*
X14402928Y-19783500D01*
X14417214Y-19812072D01*
X14417214Y-19969214D01*
X14417214Y-19812072D02*
X14431500Y-19783500D01*
X14460071Y-19769214D01*
X14502928Y-19769214D01*
X14531500Y-19783500D01*
X14545786Y-19812072D01*
X14545786Y-19969214D01*
X15131500Y-19654929D02*
X14874357Y-20040643D01*
X15517214Y-19669214D02*
X15545786Y-19669214D01*
X15574357Y-19683500D01*
X15588643Y-19697786D01*
X15602928Y-19726357D01*
X15617214Y-19783500D01*
X15617214Y-19854929D01*
X15602928Y-19912072D01*
X15588643Y-19940643D01*
X15574357Y-19954929D01*
X15545786Y-19969214D01*
X15517214Y-19969214D01*
X15488643Y-19954929D01*
X15474357Y-19940643D01*
X15460071Y-19912072D01*
X15445786Y-19854929D01*
X15445786Y-19783500D01*
X15460071Y-19726357D01*
X15474357Y-19697786D01*
X15488643Y-19683500D01*
X15517214Y-19669214D01*
X15745786Y-19940643D02*
X15760071Y-19954929D01*
X15745786Y-19969214D01*
X15731500Y-19954929D01*
X15745786Y-19940643D01*
X15745786Y-19969214D01*
X15945786Y-19669214D02*
X15974357Y-19669214D01*
X16002928Y-19683500D01*
X16017214Y-19697786D01*
X16031500Y-19726357D01*
X16045786Y-19783500D01*
X16045786Y-19854929D01*
X16031500Y-19912072D01*
X16017214Y-19940643D01*
X16002928Y-19954929D01*
X15974357Y-19969214D01*
X15945786Y-19969214D01*
X15917214Y-19954929D01*
X15902928Y-19940643D01*
X15888643Y-19912072D01*
X15874357Y-19854929D01*
X15874357Y-19783500D01*
X15888643Y-19726357D01*
X15902928Y-19697786D01*
X15917214Y-19683500D01*
X15945786Y-19669214D01*
X16302928Y-19769214D02*
X16302928Y-19969214D01*
X16231500Y-19654929D02*
X16160071Y-19869214D01*
X16345786Y-19869214D01*
X16431500Y-19669214D02*
X16617214Y-19669214D01*
X16517214Y-19783500D01*
X16560071Y-19783500D01*
X16588643Y-19797786D01*
X16602928Y-19812072D01*
X16617214Y-19840643D01*
X16617214Y-19912072D01*
X16602928Y-19940643D01*
X16588643Y-19954929D01*
X16560071Y-19969214D01*
X16474357Y-19969214D01*
X16445786Y-19954929D01*
X16431500Y-19940643D01*
X16717214Y-19669214D02*
X16902928Y-19669214D01*
X16802928Y-19783500D01*
X16845786Y-19783500D01*
X16874357Y-19797786D01*
X16888643Y-19812072D01*
X16902928Y-19840643D01*
X16902928Y-19912072D01*
X16888643Y-19940643D01*
X16874357Y-19954929D01*
X16845786Y-19969214D01*
X16760071Y-19969214D01*
X16731500Y-19954929D01*
X16717214Y-19940643D01*
X17017214Y-19669214D02*
X17017214Y-19726357D01*
X17131500Y-19669214D02*
X17131500Y-19726357D01*
X17574357Y-20083500D02*
X17560071Y-20069214D01*
X17531500Y-20026357D01*
X17517214Y-19997786D01*
X17502928Y-19954929D01*
X17488643Y-19883500D01*
X17488643Y-19826357D01*
X17502928Y-19754929D01*
X17517214Y-19712072D01*
X17531500Y-19683500D01*
X17560071Y-19640643D01*
X17574357Y-19626357D01*
X17731500Y-19797786D02*
X17702928Y-19783500D01*
X17688643Y-19769214D01*
X17674357Y-19740643D01*
X17674357Y-19726357D01*
X17688643Y-19697786D01*
X17702928Y-19683500D01*
X17731500Y-19669214D01*
X17788643Y-19669214D01*
X17817214Y-19683500D01*
X17831500Y-19697786D01*
X17845786Y-19726357D01*
X17845786Y-19740643D01*
X17831500Y-19769214D01*
X17817214Y-19783500D01*
X17788643Y-19797786D01*
X17731500Y-19797786D01*
X17702928Y-19812072D01*
X17688643Y-19826357D01*
X17674357Y-19854929D01*
X17674357Y-19912072D01*
X17688643Y-19940643D01*
X17702928Y-19954929D01*
X17731500Y-19969214D01*
X17788643Y-19969214D01*
X17817214Y-19954929D01*
X17831500Y-19940643D01*
X17845786Y-19912072D01*
X17845786Y-19854929D01*
X17831500Y-19826357D01*
X17817214Y-19812072D01*
X17788643Y-19797786D01*
X18202928Y-19969214D02*
X18202928Y-19669214D01*
X18331500Y-19969214D02*
X18331500Y-19812072D01*
X18317214Y-19783500D01*
X18288643Y-19769214D01*
X18245786Y-19769214D01*
X18217214Y-19783500D01*
X18202928Y-19797786D01*
X18517214Y-19969214D02*
X18488643Y-19954929D01*
X18474357Y-19940643D01*
X18460071Y-19912072D01*
X18460071Y-19826357D01*
X18474357Y-19797786D01*
X18488643Y-19783500D01*
X18517214Y-19769214D01*
X18560071Y-19769214D01*
X18588643Y-19783500D01*
X18602928Y-19797786D01*
X18617214Y-19826357D01*
X18617214Y-19912072D01*
X18602928Y-19940643D01*
X18588643Y-19954929D01*
X18560071Y-19969214D01*
X18517214Y-19969214D01*
X18788643Y-19969214D02*
X18760071Y-19954929D01*
X18745786Y-19926357D01*
X18745786Y-19669214D01*
X19017214Y-19954929D02*
X18988643Y-19969214D01*
X18931500Y-19969214D01*
X18902928Y-19954929D01*
X18888643Y-19926357D01*
X18888643Y-19812072D01*
X18902928Y-19783500D01*
X18931500Y-19769214D01*
X18988643Y-19769214D01*
X19017214Y-19783500D01*
X19031500Y-19812072D01*
X19031500Y-19840643D01*
X18888643Y-19869214D01*
X19145786Y-19954929D02*
X19174357Y-19969214D01*
X19231500Y-19969214D01*
X19260071Y-19954929D01*
X19274357Y-19926357D01*
X19274357Y-19912072D01*
X19260071Y-19883500D01*
X19231500Y-19869214D01*
X19188643Y-19869214D01*
X19160071Y-19854929D01*
X19145786Y-19826357D01*
X19145786Y-19812072D01*
X19160071Y-19783500D01*
X19188643Y-19769214D01*
X19231500Y-19769214D01*
X19260071Y-19783500D01*
X19374357Y-20083500D02*
X19388643Y-20069214D01*
X19417214Y-20026357D01*
X19431500Y-19997786D01*
X19445786Y-19954929D01*
X19460071Y-19883500D01*
X19460071Y-19826357D01*
X19445786Y-19754929D01*
X19431500Y-19712072D01*
X19417214Y-19683500D01*
X19388643Y-19640643D01*
X19374357Y-19626357D01*
X12196500Y-20169500D02*
X12316500Y-20289500D01*
X12316500Y-20169500D02*
X12196500Y-20289500D01*
X12256500Y-20169500D02*
X12256500Y-20289500D01*
X12196500Y-20229500D02*
X12316500Y-20229500D01*
X12760071Y-20365214D02*
X12588643Y-20365214D01*
X12674357Y-20365214D02*
X12674357Y-20065214D01*
X12645786Y-20108072D01*
X12617214Y-20136643D01*
X12588643Y-20150929D01*
X12888643Y-20336643D02*
X12902928Y-20350929D01*
X12888643Y-20365214D01*
X12874357Y-20350929D01*
X12888643Y-20336643D01*
X12888643Y-20365214D01*
X13017214Y-20093786D02*
X13031500Y-20079500D01*
X13060071Y-20065214D01*
X13131500Y-20065214D01*
X13160071Y-20079500D01*
X13174357Y-20093786D01*
X13188643Y-20122357D01*
X13188643Y-20150929D01*
X13174357Y-20193786D01*
X13002928Y-20365214D01*
X13188643Y-20365214D01*
X13374357Y-20065214D02*
X13402928Y-20065214D01*
X13431500Y-20079500D01*
X13445786Y-20093786D01*
X13460071Y-20122357D01*
X13474357Y-20179500D01*
X13474357Y-20250929D01*
X13460071Y-20308072D01*
X13445786Y-20336643D01*
X13431500Y-20350929D01*
X13402928Y-20365214D01*
X13374357Y-20365214D01*
X13345786Y-20350929D01*
X13331500Y-20336643D01*
X13317214Y-20308072D01*
X13302928Y-20250929D01*
X13302928Y-20179500D01*
X13317214Y-20122357D01*
X13331500Y-20093786D01*
X13345786Y-20079500D01*
X13374357Y-20065214D01*
X13660071Y-20065214D02*
X13688643Y-20065214D01*
X13717214Y-20079500D01*
X13731500Y-20093786D01*
X13745786Y-20122357D01*
X13760071Y-20179500D01*
X13760071Y-20250929D01*
X13745786Y-20308072D01*
X13731500Y-20336643D01*
X13717214Y-20350929D01*
X13688643Y-20365214D01*
X13660071Y-20365214D01*
X13631500Y-20350929D01*
X13617214Y-20336643D01*
X13602928Y-20308072D01*
X13588643Y-20250929D01*
X13588643Y-20179500D01*
X13602928Y-20122357D01*
X13617214Y-20093786D01*
X13631500Y-20079500D01*
X13660071Y-20065214D01*
X13888643Y-20365214D02*
X13888643Y-20165214D01*
X13888643Y-20193786D02*
X13902928Y-20179500D01*
X13931500Y-20165214D01*
X13974357Y-20165214D01*
X14002928Y-20179500D01*
X14017214Y-20208072D01*
X14017214Y-20365214D01*
X14017214Y-20208072D02*
X14031500Y-20179500D01*
X14060071Y-20165214D01*
X14102928Y-20165214D01*
X14131500Y-20179500D01*
X14145786Y-20208072D01*
X14145786Y-20365214D01*
X14288643Y-20365214D02*
X14288643Y-20165214D01*
X14288643Y-20193786D02*
X14302928Y-20179500D01*
X14331500Y-20165214D01*
X14374357Y-20165214D01*
X14402928Y-20179500D01*
X14417214Y-20208072D01*
X14417214Y-20365214D01*
X14417214Y-20208072D02*
X14431500Y-20179500D01*
X14460071Y-20165214D01*
X14502928Y-20165214D01*
X14531500Y-20179500D01*
X14545786Y-20208072D01*
X14545786Y-20365214D01*
X15131500Y-20050929D02*
X14874357Y-20436643D01*
X15517214Y-20065214D02*
X15545786Y-20065214D01*
X15574357Y-20079500D01*
X15588643Y-20093786D01*
X15602928Y-20122357D01*
X15617214Y-20179500D01*
X15617214Y-20250929D01*
X15602928Y-20308072D01*
X15588643Y-20336643D01*
X15574357Y-20350929D01*
X15545786Y-20365214D01*
X15517214Y-20365214D01*
X15488643Y-20350929D01*
X15474357Y-20336643D01*
X15460071Y-20308072D01*
X15445786Y-20250929D01*
X15445786Y-20179500D01*
X15460071Y-20122357D01*
X15474357Y-20093786D01*
X15488643Y-20079500D01*
X15517214Y-20065214D01*
X15745786Y-20336643D02*
X15760071Y-20350929D01*
X15745786Y-20365214D01*
X15731500Y-20350929D01*
X15745786Y-20336643D01*
X15745786Y-20365214D01*
X15945786Y-20065214D02*
X15974357Y-20065214D01*
X16002928Y-20079500D01*
X16017214Y-20093786D01*
X16031500Y-20122357D01*
X16045786Y-20179500D01*
X16045786Y-20250929D01*
X16031500Y-20308072D01*
X16017214Y-20336643D01*
X16002928Y-20350929D01*
X15974357Y-20365214D01*
X15945786Y-20365214D01*
X15917214Y-20350929D01*
X15902928Y-20336643D01*
X15888643Y-20308072D01*
X15874357Y-20250929D01*
X15874357Y-20179500D01*
X15888643Y-20122357D01*
X15902928Y-20093786D01*
X15917214Y-20079500D01*
X15945786Y-20065214D01*
X16302928Y-20165214D02*
X16302928Y-20365214D01*
X16231500Y-20050929D02*
X16160071Y-20265214D01*
X16345786Y-20265214D01*
X16431500Y-20065214D02*
X16631500Y-20065214D01*
X16502928Y-20365214D01*
X16731500Y-20093786D02*
X16745786Y-20079500D01*
X16774357Y-20065214D01*
X16845786Y-20065214D01*
X16874357Y-20079500D01*
X16888643Y-20093786D01*
X16902928Y-20122357D01*
X16902928Y-20150929D01*
X16888643Y-20193786D01*
X16717214Y-20365214D01*
X16902928Y-20365214D01*
X17017214Y-20065214D02*
X17017214Y-20122357D01*
X17131500Y-20065214D02*
X17131500Y-20122357D01*
X17574357Y-20479500D02*
X17560071Y-20465214D01*
X17531500Y-20422357D01*
X17517214Y-20393786D01*
X17502928Y-20350929D01*
X17488643Y-20279500D01*
X17488643Y-20222357D01*
X17502928Y-20150929D01*
X17517214Y-20108072D01*
X17531500Y-20079500D01*
X17560071Y-20036643D01*
X17574357Y-20022357D01*
X17660071Y-20065214D02*
X17860071Y-20065214D01*
X17731500Y-20365214D01*
X18202928Y-20365214D02*
X18202928Y-20065214D01*
X18331500Y-20365214D02*
X18331500Y-20208072D01*
X18317214Y-20179500D01*
X18288643Y-20165214D01*
X18245786Y-20165214D01*
X18217214Y-20179500D01*
X18202928Y-20193786D01*
X18517214Y-20365214D02*
X18488643Y-20350929D01*
X18474357Y-20336643D01*
X18460071Y-20308072D01*
X18460071Y-20222357D01*
X18474357Y-20193786D01*
X18488643Y-20179500D01*
X18517214Y-20165214D01*
X18560071Y-20165214D01*
X18588643Y-20179500D01*
X18602928Y-20193786D01*
X18617214Y-20222357D01*
X18617214Y-20308072D01*
X18602928Y-20336643D01*
X18588643Y-20350929D01*
X18560071Y-20365214D01*
X18517214Y-20365214D01*
X18788643Y-20365214D02*
X18760071Y-20350929D01*
X18745786Y-20322357D01*
X18745786Y-20065214D01*
X19017214Y-20350929D02*
X18988643Y-20365214D01*
X18931500Y-20365214D01*
X18902928Y-20350929D01*
X18888643Y-20322357D01*
X18888643Y-20208072D01*
X18902928Y-20179500D01*
X18931500Y-20165214D01*
X18988643Y-20165214D01*
X19017214Y-20179500D01*
X19031500Y-20208072D01*
X19031500Y-20236643D01*
X18888643Y-20265214D01*
X19145786Y-20350929D02*
X19174357Y-20365214D01*
X19231500Y-20365214D01*
X19260071Y-20350929D01*
X19274357Y-20322357D01*
X19274357Y-20308072D01*
X19260071Y-20279500D01*
X19231500Y-20265214D01*
X19188643Y-20265214D01*
X19160071Y-20250929D01*
X19145786Y-20222357D01*
X19145786Y-20208072D01*
X19160071Y-20179500D01*
X19188643Y-20165214D01*
X19231500Y-20165214D01*
X19260071Y-20179500D01*
X19374357Y-20479500D02*
X19388643Y-20465214D01*
X19417214Y-20422357D01*
X19431500Y-20393786D01*
X19445786Y-20350929D01*
X19460071Y-20279500D01*
X19460071Y-20222357D01*
X19445786Y-20150929D01*
X19431500Y-20108072D01*
X19417214Y-20079500D01*
X19388643Y-20036643D01*
X19374357Y-20022357D01*
X12186500Y-20560500D02*
X12316500Y-20690500D01*
X12316500Y-20560500D02*
X12186500Y-20690500D01*
X12297462Y-20671463D02*
X12297462Y-20579538D01*
X12205537Y-20579538D01*
X12205537Y-20671463D01*
X12297462Y-20671463D01*
X12760071Y-20761214D02*
X12588643Y-20761214D01*
X12674357Y-20761214D02*
X12674357Y-20461214D01*
X12645786Y-20504072D01*
X12617214Y-20532643D01*
X12588643Y-20546929D01*
X12888643Y-20732643D02*
X12902928Y-20746929D01*
X12888643Y-20761214D01*
X12874357Y-20746929D01*
X12888643Y-20732643D01*
X12888643Y-20761214D01*
X13002928Y-20461214D02*
X13188643Y-20461214D01*
X13088643Y-20575500D01*
X13131500Y-20575500D01*
X13160071Y-20589786D01*
X13174357Y-20604072D01*
X13188643Y-20632643D01*
X13188643Y-20704072D01*
X13174357Y-20732643D01*
X13160071Y-20746929D01*
X13131500Y-20761214D01*
X13045786Y-20761214D01*
X13017214Y-20746929D01*
X13002928Y-20732643D01*
X13374357Y-20461214D02*
X13402928Y-20461214D01*
X13431500Y-20475500D01*
X13445786Y-20489786D01*
X13460071Y-20518357D01*
X13474357Y-20575500D01*
X13474357Y-20646929D01*
X13460071Y-20704072D01*
X13445786Y-20732643D01*
X13431500Y-20746929D01*
X13402928Y-20761214D01*
X13374357Y-20761214D01*
X13345786Y-20746929D01*
X13331500Y-20732643D01*
X13317214Y-20704072D01*
X13302928Y-20646929D01*
X13302928Y-20575500D01*
X13317214Y-20518357D01*
X13331500Y-20489786D01*
X13345786Y-20475500D01*
X13374357Y-20461214D01*
X13660071Y-20461214D02*
X13688643Y-20461214D01*
X13717214Y-20475500D01*
X13731500Y-20489786D01*
X13745786Y-20518357D01*
X13760071Y-20575500D01*
X13760071Y-20646929D01*
X13745786Y-20704072D01*
X13731500Y-20732643D01*
X13717214Y-20746929D01*
X13688643Y-20761214D01*
X13660071Y-20761214D01*
X13631500Y-20746929D01*
X13617214Y-20732643D01*
X13602928Y-20704072D01*
X13588643Y-20646929D01*
X13588643Y-20575500D01*
X13602928Y-20518357D01*
X13617214Y-20489786D01*
X13631500Y-20475500D01*
X13660071Y-20461214D01*
X13888643Y-20761214D02*
X13888643Y-20561214D01*
X13888643Y-20589786D02*
X13902928Y-20575500D01*
X13931500Y-20561214D01*
X13974357Y-20561214D01*
X14002928Y-20575500D01*
X14017214Y-20604072D01*
X14017214Y-20761214D01*
X14017214Y-20604072D02*
X14031500Y-20575500D01*
X14060071Y-20561214D01*
X14102928Y-20561214D01*
X14131500Y-20575500D01*
X14145786Y-20604072D01*
X14145786Y-20761214D01*
X14288643Y-20761214D02*
X14288643Y-20561214D01*
X14288643Y-20589786D02*
X14302928Y-20575500D01*
X14331500Y-20561214D01*
X14374357Y-20561214D01*
X14402928Y-20575500D01*
X14417214Y-20604072D01*
X14417214Y-20761214D01*
X14417214Y-20604072D02*
X14431500Y-20575500D01*
X14460071Y-20561214D01*
X14502928Y-20561214D01*
X14531500Y-20575500D01*
X14545786Y-20604072D01*
X14545786Y-20761214D01*
X15131500Y-20446929D02*
X14874357Y-20832643D01*
X15517214Y-20461214D02*
X15545786Y-20461214D01*
X15574357Y-20475500D01*
X15588643Y-20489786D01*
X15602928Y-20518357D01*
X15617214Y-20575500D01*
X15617214Y-20646929D01*
X15602928Y-20704072D01*
X15588643Y-20732643D01*
X15574357Y-20746929D01*
X15545786Y-20761214D01*
X15517214Y-20761214D01*
X15488643Y-20746929D01*
X15474357Y-20732643D01*
X15460071Y-20704072D01*
X15445786Y-20646929D01*
X15445786Y-20575500D01*
X15460071Y-20518357D01*
X15474357Y-20489786D01*
X15488643Y-20475500D01*
X15517214Y-20461214D01*
X15745786Y-20732643D02*
X15760071Y-20746929D01*
X15745786Y-20761214D01*
X15731500Y-20746929D01*
X15745786Y-20732643D01*
X15745786Y-20761214D01*
X15945786Y-20461214D02*
X15974357Y-20461214D01*
X16002928Y-20475500D01*
X16017214Y-20489786D01*
X16031500Y-20518357D01*
X16045786Y-20575500D01*
X16045786Y-20646929D01*
X16031500Y-20704072D01*
X16017214Y-20732643D01*
X16002928Y-20746929D01*
X15974357Y-20761214D01*
X15945786Y-20761214D01*
X15917214Y-20746929D01*
X15902928Y-20732643D01*
X15888643Y-20704072D01*
X15874357Y-20646929D01*
X15874357Y-20575500D01*
X15888643Y-20518357D01*
X15902928Y-20489786D01*
X15917214Y-20475500D01*
X15945786Y-20461214D01*
X16317214Y-20461214D02*
X16174357Y-20461214D01*
X16160071Y-20604072D01*
X16174357Y-20589786D01*
X16202928Y-20575500D01*
X16274357Y-20575500D01*
X16302928Y-20589786D01*
X16317214Y-20604072D01*
X16331500Y-20632643D01*
X16331500Y-20704072D01*
X16317214Y-20732643D01*
X16302928Y-20746929D01*
X16274357Y-20761214D01*
X16202928Y-20761214D01*
X16174357Y-20746929D01*
X16160071Y-20732643D01*
X16617214Y-20761214D02*
X16445786Y-20761214D01*
X16531500Y-20761214D02*
X16531500Y-20461214D01*
X16502928Y-20504072D01*
X16474357Y-20532643D01*
X16445786Y-20546929D01*
X16731500Y-20489786D02*
X16745786Y-20475500D01*
X16774357Y-20461214D01*
X16845786Y-20461214D01*
X16874357Y-20475500D01*
X16888643Y-20489786D01*
X16902928Y-20518357D01*
X16902928Y-20546929D01*
X16888643Y-20589786D01*
X16717214Y-20761214D01*
X16902928Y-20761214D01*
X17017214Y-20461214D02*
X17017214Y-20518357D01*
X17131500Y-20461214D02*
X17131500Y-20518357D01*
X17574357Y-20875500D02*
X17560071Y-20861214D01*
X17531500Y-20818357D01*
X17517214Y-20789786D01*
X17502928Y-20746929D01*
X17488643Y-20675500D01*
X17488643Y-20618357D01*
X17502928Y-20546929D01*
X17517214Y-20504072D01*
X17531500Y-20475500D01*
X17560071Y-20432643D01*
X17574357Y-20418357D01*
X17660071Y-20461214D02*
X17845786Y-20461214D01*
X17745786Y-20575500D01*
X17788643Y-20575500D01*
X17817214Y-20589786D01*
X17831500Y-20604072D01*
X17845786Y-20632643D01*
X17845786Y-20704072D01*
X17831500Y-20732643D01*
X17817214Y-20746929D01*
X17788643Y-20761214D01*
X17702928Y-20761214D01*
X17674357Y-20746929D01*
X17660071Y-20732643D01*
X18202928Y-20761214D02*
X18202928Y-20461214D01*
X18331500Y-20761214D02*
X18331500Y-20604072D01*
X18317214Y-20575500D01*
X18288643Y-20561214D01*
X18245786Y-20561214D01*
X18217214Y-20575500D01*
X18202928Y-20589786D01*
X18517214Y-20761214D02*
X18488643Y-20746929D01*
X18474357Y-20732643D01*
X18460071Y-20704072D01*
X18460071Y-20618357D01*
X18474357Y-20589786D01*
X18488643Y-20575500D01*
X18517214Y-20561214D01*
X18560071Y-20561214D01*
X18588643Y-20575500D01*
X18602928Y-20589786D01*
X18617214Y-20618357D01*
X18617214Y-20704072D01*
X18602928Y-20732643D01*
X18588643Y-20746929D01*
X18560071Y-20761214D01*
X18517214Y-20761214D01*
X18788643Y-20761214D02*
X18760071Y-20746929D01*
X18745786Y-20718357D01*
X18745786Y-20461214D01*
X19017214Y-20746929D02*
X18988643Y-20761214D01*
X18931500Y-20761214D01*
X18902928Y-20746929D01*
X18888643Y-20718357D01*
X18888643Y-20604072D01*
X18902928Y-20575500D01*
X18931500Y-20561214D01*
X18988643Y-20561214D01*
X19017214Y-20575500D01*
X19031500Y-20604072D01*
X19031500Y-20632643D01*
X18888643Y-20661214D01*
X19145786Y-20746929D02*
X19174357Y-20761214D01*
X19231500Y-20761214D01*
X19260071Y-20746929D01*
X19274357Y-20718357D01*
X19274357Y-20704072D01*
X19260071Y-20675500D01*
X19231500Y-20661214D01*
X19188643Y-20661214D01*
X19160071Y-20646929D01*
X19145786Y-20618357D01*
X19145786Y-20604072D01*
X19160071Y-20575500D01*
X19188643Y-20561214D01*
X19231500Y-20561214D01*
X19260071Y-20575500D01*
X19374357Y-20875500D02*
X19388643Y-20861214D01*
X19417214Y-20818357D01*
X19431500Y-20789786D01*
X19445786Y-20746929D01*
X19460071Y-20675500D01*
X19460071Y-20618357D01*
X19445786Y-20546929D01*
X19431500Y-20504072D01*
X19417214Y-20475500D01*
X19388643Y-20432643D01*
X19374357Y-20418357D01*
X12156500Y-20941500D02*
X12316500Y-21101500D01*
X12316500Y-20941500D02*
X12156500Y-21101500D01*
X12236500Y-21101500D02*
X12316500Y-21021500D01*
X12236500Y-20941500D01*
X12156500Y-21021500D01*
X12236500Y-21101500D01*
X12760071Y-21157214D02*
X12588643Y-21157214D01*
X12674357Y-21157214D02*
X12674357Y-20857214D01*
X12645786Y-20900072D01*
X12617214Y-20928643D01*
X12588643Y-20942929D01*
X12888643Y-21128643D02*
X12902928Y-21142929D01*
X12888643Y-21157214D01*
X12874357Y-21142929D01*
X12888643Y-21128643D01*
X12888643Y-21157214D01*
X13160071Y-20857214D02*
X13102928Y-20857214D01*
X13074357Y-20871500D01*
X13060071Y-20885786D01*
X13031500Y-20928643D01*
X13017214Y-20985786D01*
X13017214Y-21100072D01*
X13031500Y-21128643D01*
X13045786Y-21142929D01*
X13074357Y-21157214D01*
X13131500Y-21157214D01*
X13160071Y-21142929D01*
X13174357Y-21128643D01*
X13188643Y-21100072D01*
X13188643Y-21028643D01*
X13174357Y-21000072D01*
X13160071Y-20985786D01*
X13131500Y-20971500D01*
X13074357Y-20971500D01*
X13045786Y-20985786D01*
X13031500Y-21000072D01*
X13017214Y-21028643D01*
X13374357Y-20857214D02*
X13402928Y-20857214D01*
X13431500Y-20871500D01*
X13445786Y-20885786D01*
X13460071Y-20914357D01*
X13474357Y-20971500D01*
X13474357Y-21042929D01*
X13460071Y-21100072D01*
X13445786Y-21128643D01*
X13431500Y-21142929D01*
X13402928Y-21157214D01*
X13374357Y-21157214D01*
X13345786Y-21142929D01*
X13331500Y-21128643D01*
X13317214Y-21100072D01*
X13302928Y-21042929D01*
X13302928Y-20971500D01*
X13317214Y-20914357D01*
X13331500Y-20885786D01*
X13345786Y-20871500D01*
X13374357Y-20857214D01*
X13660071Y-20857214D02*
X13688643Y-20857214D01*
X13717214Y-20871500D01*
X13731500Y-20885786D01*
X13745786Y-20914357D01*
X13760071Y-20971500D01*
X13760071Y-21042929D01*
X13745786Y-21100072D01*
X13731500Y-21128643D01*
X13717214Y-21142929D01*
X13688643Y-21157214D01*
X13660071Y-21157214D01*
X13631500Y-21142929D01*
X13617214Y-21128643D01*
X13602928Y-21100072D01*
X13588643Y-21042929D01*
X13588643Y-20971500D01*
X13602928Y-20914357D01*
X13617214Y-20885786D01*
X13631500Y-20871500D01*
X13660071Y-20857214D01*
X13888643Y-21157214D02*
X13888643Y-20957214D01*
X13888643Y-20985786D02*
X13902928Y-20971500D01*
X13931500Y-20957214D01*
X13974357Y-20957214D01*
X14002928Y-20971500D01*
X14017214Y-21000072D01*
X14017214Y-21157214D01*
X14017214Y-21000072D02*
X14031500Y-20971500D01*
X14060071Y-20957214D01*
X14102928Y-20957214D01*
X14131500Y-20971500D01*
X14145786Y-21000072D01*
X14145786Y-21157214D01*
X14288643Y-21157214D02*
X14288643Y-20957214D01*
X14288643Y-20985786D02*
X14302928Y-20971500D01*
X14331500Y-20957214D01*
X14374357Y-20957214D01*
X14402928Y-20971500D01*
X14417214Y-21000072D01*
X14417214Y-21157214D01*
X14417214Y-21000072D02*
X14431500Y-20971500D01*
X14460071Y-20957214D01*
X14502928Y-20957214D01*
X14531500Y-20971500D01*
X14545786Y-21000072D01*
X14545786Y-21157214D01*
X15131500Y-20842929D02*
X14874357Y-21228643D01*
X15517214Y-20857214D02*
X15545786Y-20857214D01*
X15574357Y-20871500D01*
X15588643Y-20885786D01*
X15602928Y-20914357D01*
X15617214Y-20971500D01*
X15617214Y-21042929D01*
X15602928Y-21100072D01*
X15588643Y-21128643D01*
X15574357Y-21142929D01*
X15545786Y-21157214D01*
X15517214Y-21157214D01*
X15488643Y-21142929D01*
X15474357Y-21128643D01*
X15460071Y-21100072D01*
X15445786Y-21042929D01*
X15445786Y-20971500D01*
X15460071Y-20914357D01*
X15474357Y-20885786D01*
X15488643Y-20871500D01*
X15517214Y-20857214D01*
X15745786Y-21128643D02*
X15760071Y-21142929D01*
X15745786Y-21157214D01*
X15731500Y-21142929D01*
X15745786Y-21128643D01*
X15745786Y-21157214D01*
X15945786Y-20857214D02*
X15974357Y-20857214D01*
X16002928Y-20871500D01*
X16017214Y-20885786D01*
X16031500Y-20914357D01*
X16045786Y-20971500D01*
X16045786Y-21042929D01*
X16031500Y-21100072D01*
X16017214Y-21128643D01*
X16002928Y-21142929D01*
X15974357Y-21157214D01*
X15945786Y-21157214D01*
X15917214Y-21142929D01*
X15902928Y-21128643D01*
X15888643Y-21100072D01*
X15874357Y-21042929D01*
X15874357Y-20971500D01*
X15888643Y-20914357D01*
X15902928Y-20885786D01*
X15917214Y-20871500D01*
X15945786Y-20857214D01*
X16302928Y-20857214D02*
X16245786Y-20857214D01*
X16217214Y-20871500D01*
X16202928Y-20885786D01*
X16174357Y-20928643D01*
X16160071Y-20985786D01*
X16160071Y-21100072D01*
X16174357Y-21128643D01*
X16188643Y-21142929D01*
X16217214Y-21157214D01*
X16274357Y-21157214D01*
X16302928Y-21142929D01*
X16317214Y-21128643D01*
X16331500Y-21100072D01*
X16331500Y-21028643D01*
X16317214Y-21000072D01*
X16302928Y-20985786D01*
X16274357Y-20971500D01*
X16217214Y-20971500D01*
X16188643Y-20985786D01*
X16174357Y-21000072D01*
X16160071Y-21028643D01*
X16431500Y-20857214D02*
X16617214Y-20857214D01*
X16517214Y-20971500D01*
X16560071Y-20971500D01*
X16588643Y-20985786D01*
X16602928Y-21000072D01*
X16617214Y-21028643D01*
X16617214Y-21100072D01*
X16602928Y-21128643D01*
X16588643Y-21142929D01*
X16560071Y-21157214D01*
X16474357Y-21157214D01*
X16445786Y-21142929D01*
X16431500Y-21128643D01*
X16802928Y-20857214D02*
X16831500Y-20857214D01*
X16860071Y-20871500D01*
X16874357Y-20885786D01*
X16888643Y-20914357D01*
X16902928Y-20971500D01*
X16902928Y-21042929D01*
X16888643Y-21100072D01*
X16874357Y-21128643D01*
X16860071Y-21142929D01*
X16831500Y-21157214D01*
X16802928Y-21157214D01*
X16774357Y-21142929D01*
X16760071Y-21128643D01*
X16745786Y-21100072D01*
X16731500Y-21042929D01*
X16731500Y-20971500D01*
X16745786Y-20914357D01*
X16760071Y-20885786D01*
X16774357Y-20871500D01*
X16802928Y-20857214D01*
X17017214Y-20857214D02*
X17017214Y-20914357D01*
X17131500Y-20857214D02*
X17131500Y-20914357D01*
X17574357Y-21271500D02*
X17560071Y-21257214D01*
X17531500Y-21214357D01*
X17517214Y-21185786D01*
X17502928Y-21142929D01*
X17488643Y-21071500D01*
X17488643Y-21014357D01*
X17502928Y-20942929D01*
X17517214Y-20900072D01*
X17531500Y-20871500D01*
X17560071Y-20828643D01*
X17574357Y-20814357D01*
X17817214Y-20957214D02*
X17817214Y-21157214D01*
X17745786Y-20842929D02*
X17674357Y-21057214D01*
X17860071Y-21057214D01*
X18202928Y-21157214D02*
X18202928Y-20857214D01*
X18331500Y-21157214D02*
X18331500Y-21000072D01*
X18317214Y-20971500D01*
X18288643Y-20957214D01*
X18245786Y-20957214D01*
X18217214Y-20971500D01*
X18202928Y-20985786D01*
X18517214Y-21157214D02*
X18488643Y-21142929D01*
X18474357Y-21128643D01*
X18460071Y-21100072D01*
X18460071Y-21014357D01*
X18474357Y-20985786D01*
X18488643Y-20971500D01*
X18517214Y-20957214D01*
X18560071Y-20957214D01*
X18588643Y-20971500D01*
X18602928Y-20985786D01*
X18617214Y-21014357D01*
X18617214Y-21100072D01*
X18602928Y-21128643D01*
X18588643Y-21142929D01*
X18560071Y-21157214D01*
X18517214Y-21157214D01*
X18788643Y-21157214D02*
X18760071Y-21142929D01*
X18745786Y-21114357D01*
X18745786Y-20857214D01*
X19017214Y-21142929D02*
X18988643Y-21157214D01*
X18931500Y-21157214D01*
X18902928Y-21142929D01*
X18888643Y-21114357D01*
X18888643Y-21000072D01*
X18902928Y-20971500D01*
X18931500Y-20957214D01*
X18988643Y-20957214D01*
X19017214Y-20971500D01*
X19031500Y-21000072D01*
X19031500Y-21028643D01*
X18888643Y-21057214D01*
X19145786Y-21142929D02*
X19174357Y-21157214D01*
X19231500Y-21157214D01*
X19260071Y-21142929D01*
X19274357Y-21114357D01*
X19274357Y-21100072D01*
X19260071Y-21071500D01*
X19231500Y-21057214D01*
X19188643Y-21057214D01*
X19160071Y-21042929D01*
X19145786Y-21014357D01*
X19145786Y-21000072D01*
X19160071Y-20971500D01*
X19188643Y-20957214D01*
X19231500Y-20957214D01*
X19260071Y-20971500D01*
X19374357Y-21271500D02*
X19388643Y-21257214D01*
X19417214Y-21214357D01*
X19431500Y-21185786D01*
X19445786Y-21142929D01*
X19460071Y-21071500D01*
X19460071Y-21014357D01*
X19445786Y-20942929D01*
X19431500Y-20900072D01*
X19417214Y-20871500D01*
X19388643Y-20828643D01*
X19374357Y-20814357D01*
X12231500Y-21332500D02*
X12231500Y-21502500D01*
X12146500Y-21417500D02*
X12316500Y-21417500D01*
X12316500Y-21417500D02*
G75*
G03*
X12316500Y-21417500I-85000J0D01*
G01*
X12760071Y-21553214D02*
X12588643Y-21553214D01*
X12674357Y-21553214D02*
X12674357Y-21253214D01*
X12645786Y-21296072D01*
X12617214Y-21324643D01*
X12588643Y-21338929D01*
X12888643Y-21524643D02*
X12902928Y-21538929D01*
X12888643Y-21553214D01*
X12874357Y-21538929D01*
X12888643Y-21524643D01*
X12888643Y-21553214D01*
X13002928Y-21253214D02*
X13202928Y-21253214D01*
X13074357Y-21553214D01*
X13374357Y-21253214D02*
X13402928Y-21253214D01*
X13431500Y-21267500D01*
X13445786Y-21281786D01*
X13460071Y-21310357D01*
X13474357Y-21367500D01*
X13474357Y-21438929D01*
X13460071Y-21496072D01*
X13445786Y-21524643D01*
X13431500Y-21538929D01*
X13402928Y-21553214D01*
X13374357Y-21553214D01*
X13345786Y-21538929D01*
X13331500Y-21524643D01*
X13317214Y-21496072D01*
X13302928Y-21438929D01*
X13302928Y-21367500D01*
X13317214Y-21310357D01*
X13331500Y-21281786D01*
X13345786Y-21267500D01*
X13374357Y-21253214D01*
X13660071Y-21253214D02*
X13688643Y-21253214D01*
X13717214Y-21267500D01*
X13731500Y-21281786D01*
X13745786Y-21310357D01*
X13760071Y-21367500D01*
X13760071Y-21438929D01*
X13745786Y-21496072D01*
X13731500Y-21524643D01*
X13717214Y-21538929D01*
X13688643Y-21553214D01*
X13660071Y-21553214D01*
X13631500Y-21538929D01*
X13617214Y-21524643D01*
X13602928Y-21496072D01*
X13588643Y-21438929D01*
X13588643Y-21367500D01*
X13602928Y-21310357D01*
X13617214Y-21281786D01*
X13631500Y-21267500D01*
X13660071Y-21253214D01*
X13888643Y-21553214D02*
X13888643Y-21353214D01*
X13888643Y-21381786D02*
X13902928Y-21367500D01*
X13931500Y-21353214D01*
X13974357Y-21353214D01*
X14002928Y-21367500D01*
X14017214Y-21396072D01*
X14017214Y-21553214D01*
X14017214Y-21396072D02*
X14031500Y-21367500D01*
X14060071Y-21353214D01*
X14102928Y-21353214D01*
X14131500Y-21367500D01*
X14145786Y-21396072D01*
X14145786Y-21553214D01*
X14288643Y-21553214D02*
X14288643Y-21353214D01*
X14288643Y-21381786D02*
X14302928Y-21367500D01*
X14331500Y-21353214D01*
X14374357Y-21353214D01*
X14402928Y-21367500D01*
X14417214Y-21396072D01*
X14417214Y-21553214D01*
X14417214Y-21396072D02*
X14431500Y-21367500D01*
X14460071Y-21353214D01*
X14502928Y-21353214D01*
X14531500Y-21367500D01*
X14545786Y-21396072D01*
X14545786Y-21553214D01*
X15131500Y-21238929D02*
X14874357Y-21624643D01*
X15517214Y-21253214D02*
X15545786Y-21253214D01*
X15574357Y-21267500D01*
X15588643Y-21281786D01*
X15602928Y-21310357D01*
X15617214Y-21367500D01*
X15617214Y-21438929D01*
X15602928Y-21496072D01*
X15588643Y-21524643D01*
X15574357Y-21538929D01*
X15545786Y-21553214D01*
X15517214Y-21553214D01*
X15488643Y-21538929D01*
X15474357Y-21524643D01*
X15460071Y-21496072D01*
X15445786Y-21438929D01*
X15445786Y-21367500D01*
X15460071Y-21310357D01*
X15474357Y-21281786D01*
X15488643Y-21267500D01*
X15517214Y-21253214D01*
X15745786Y-21524643D02*
X15760071Y-21538929D01*
X15745786Y-21553214D01*
X15731500Y-21538929D01*
X15745786Y-21524643D01*
X15745786Y-21553214D01*
X15945786Y-21253214D02*
X15974357Y-21253214D01*
X16002928Y-21267500D01*
X16017214Y-21281786D01*
X16031500Y-21310357D01*
X16045786Y-21367500D01*
X16045786Y-21438929D01*
X16031500Y-21496072D01*
X16017214Y-21524643D01*
X16002928Y-21538929D01*
X15974357Y-21553214D01*
X15945786Y-21553214D01*
X15917214Y-21538929D01*
X15902928Y-21524643D01*
X15888643Y-21496072D01*
X15874357Y-21438929D01*
X15874357Y-21367500D01*
X15888643Y-21310357D01*
X15902928Y-21281786D01*
X15917214Y-21267500D01*
X15945786Y-21253214D01*
X16302928Y-21253214D02*
X16245786Y-21253214D01*
X16217214Y-21267500D01*
X16202928Y-21281786D01*
X16174357Y-21324643D01*
X16160071Y-21381786D01*
X16160071Y-21496072D01*
X16174357Y-21524643D01*
X16188643Y-21538929D01*
X16217214Y-21553214D01*
X16274357Y-21553214D01*
X16302928Y-21538929D01*
X16317214Y-21524643D01*
X16331500Y-21496072D01*
X16331500Y-21424643D01*
X16317214Y-21396072D01*
X16302928Y-21381786D01*
X16274357Y-21367500D01*
X16217214Y-21367500D01*
X16188643Y-21381786D01*
X16174357Y-21396072D01*
X16160071Y-21424643D01*
X16588643Y-21253214D02*
X16531500Y-21253214D01*
X16502928Y-21267500D01*
X16488643Y-21281786D01*
X16460071Y-21324643D01*
X16445786Y-21381786D01*
X16445786Y-21496072D01*
X16460071Y-21524643D01*
X16474357Y-21538929D01*
X16502928Y-21553214D01*
X16560071Y-21553214D01*
X16588643Y-21538929D01*
X16602928Y-21524643D01*
X16617214Y-21496072D01*
X16617214Y-21424643D01*
X16602928Y-21396072D01*
X16588643Y-21381786D01*
X16560071Y-21367500D01*
X16502928Y-21367500D01*
X16474357Y-21381786D01*
X16460071Y-21396072D01*
X16445786Y-21424643D01*
X16760071Y-21553214D02*
X16817214Y-21553214D01*
X16845786Y-21538929D01*
X16860071Y-21524643D01*
X16888643Y-21481786D01*
X16902928Y-21424643D01*
X16902928Y-21310357D01*
X16888643Y-21281786D01*
X16874357Y-21267500D01*
X16845786Y-21253214D01*
X16788643Y-21253214D01*
X16760071Y-21267500D01*
X16745786Y-21281786D01*
X16731500Y-21310357D01*
X16731500Y-21381786D01*
X16745786Y-21410357D01*
X16760071Y-21424643D01*
X16788643Y-21438929D01*
X16845786Y-21438929D01*
X16874357Y-21424643D01*
X16888643Y-21410357D01*
X16902928Y-21381786D01*
X17017214Y-21253214D02*
X17017214Y-21310357D01*
X17131500Y-21253214D02*
X17131500Y-21310357D01*
X17574357Y-21667500D02*
X17560071Y-21653214D01*
X17531500Y-21610357D01*
X17517214Y-21581786D01*
X17502928Y-21538929D01*
X17488643Y-21467500D01*
X17488643Y-21410357D01*
X17502928Y-21338929D01*
X17517214Y-21296072D01*
X17531500Y-21267500D01*
X17560071Y-21224643D01*
X17574357Y-21210357D01*
X17674357Y-21281786D02*
X17688643Y-21267500D01*
X17717214Y-21253214D01*
X17788643Y-21253214D01*
X17817214Y-21267500D01*
X17831500Y-21281786D01*
X17845786Y-21310357D01*
X17845786Y-21338929D01*
X17831500Y-21381786D01*
X17660071Y-21553214D01*
X17845786Y-21553214D01*
X18202928Y-21553214D02*
X18202928Y-21253214D01*
X18331500Y-21553214D02*
X18331500Y-21396072D01*
X18317214Y-21367500D01*
X18288643Y-21353214D01*
X18245786Y-21353214D01*
X18217214Y-21367500D01*
X18202928Y-21381786D01*
X18517214Y-21553214D02*
X18488643Y-21538929D01*
X18474357Y-21524643D01*
X18460071Y-21496072D01*
X18460071Y-21410357D01*
X18474357Y-21381786D01*
X18488643Y-21367500D01*
X18517214Y-21353214D01*
X18560071Y-21353214D01*
X18588643Y-21367500D01*
X18602928Y-21381786D01*
X18617214Y-21410357D01*
X18617214Y-21496072D01*
X18602928Y-21524643D01*
X18588643Y-21538929D01*
X18560071Y-21553214D01*
X18517214Y-21553214D01*
X18788643Y-21553214D02*
X18760071Y-21538929D01*
X18745786Y-21510357D01*
X18745786Y-21253214D01*
X19017214Y-21538929D02*
X18988643Y-21553214D01*
X18931500Y-21553214D01*
X18902928Y-21538929D01*
X18888643Y-21510357D01*
X18888643Y-21396072D01*
X18902928Y-21367500D01*
X18931500Y-21353214D01*
X18988643Y-21353214D01*
X19017214Y-21367500D01*
X19031500Y-21396072D01*
X19031500Y-21424643D01*
X18888643Y-21453214D01*
X19145786Y-21538929D02*
X19174357Y-21553214D01*
X19231500Y-21553214D01*
X19260071Y-21538929D01*
X19274357Y-21510357D01*
X19274357Y-21496072D01*
X19260071Y-21467500D01*
X19231500Y-21453214D01*
X19188643Y-21453214D01*
X19160071Y-21438929D01*
X19145786Y-21410357D01*
X19145786Y-21396072D01*
X19160071Y-21367500D01*
X19188643Y-21353214D01*
X19231500Y-21353214D01*
X19260071Y-21367500D01*
X19374357Y-21667500D02*
X19388643Y-21653214D01*
X19417214Y-21610357D01*
X19431500Y-21581786D01*
X19445786Y-21538929D01*
X19460071Y-21467500D01*
X19460071Y-21410357D01*
X19445786Y-21338929D01*
X19431500Y-21296072D01*
X19417214Y-21267500D01*
X19388643Y-21224643D01*
X19374357Y-21210357D01*
M02*
