%TF.GenerationSoftware,KiCad,Pcbnew,5.1.6-1.fc32*%
%TF.CreationDate,2021-02-06T17:56:30+01:00*%
%TF.ProjectId,New-New-ACNode-Shield,4e65772d-4e65-4772-9d41-434e6f64652d,rev?*%
%TF.SameCoordinates,Original*%
%TF.FileFunction,Legend,Top*%
%TF.FilePolarity,Positive*%
%FSLAX46Y46*%
G04 Gerber Fmt 4.6, Leading zero omitted, Abs format (unit mm)*
G04 Created by KiCad (PCBNEW 5.1.6-1.fc32) date 2021-02-06 17:56:30*
%MOMM*%
%LPD*%
G01*
G04 APERTURE LIST*
%ADD10C,0.250000*%
%ADD11C,0.150000*%
%ADD12C,0.120000*%
%ADD13C,0.300000*%
%ADD14C,0.500000*%
G04 APERTURE END LIST*
D10*
X142400000Y-159283333D02*
X143352380Y-159283333D01*
X142209523Y-159854761D02*
X142876190Y-157854761D01*
X143542857Y-159854761D01*
X145352380Y-159664285D02*
X145257142Y-159759523D01*
X144971428Y-159854761D01*
X144780952Y-159854761D01*
X144495238Y-159759523D01*
X144304761Y-159569047D01*
X144209523Y-159378571D01*
X144114285Y-158997619D01*
X144114285Y-158711904D01*
X144209523Y-158330952D01*
X144304761Y-158140476D01*
X144495238Y-157950000D01*
X144780952Y-157854761D01*
X144971428Y-157854761D01*
X145257142Y-157950000D01*
X145352380Y-158045238D01*
X146209523Y-159854761D02*
X146209523Y-157854761D01*
X147352380Y-159854761D01*
X147352380Y-157854761D01*
X148590476Y-159854761D02*
X148400000Y-159759523D01*
X148304761Y-159664285D01*
X148209523Y-159473809D01*
X148209523Y-158902380D01*
X148304761Y-158711904D01*
X148400000Y-158616666D01*
X148590476Y-158521428D01*
X148876190Y-158521428D01*
X149066666Y-158616666D01*
X149161904Y-158711904D01*
X149257142Y-158902380D01*
X149257142Y-159473809D01*
X149161904Y-159664285D01*
X149066666Y-159759523D01*
X148876190Y-159854761D01*
X148590476Y-159854761D01*
X150971428Y-159854761D02*
X150971428Y-157854761D01*
X150971428Y-159759523D02*
X150780952Y-159854761D01*
X150400000Y-159854761D01*
X150209523Y-159759523D01*
X150114285Y-159664285D01*
X150019047Y-159473809D01*
X150019047Y-158902380D01*
X150114285Y-158711904D01*
X150209523Y-158616666D01*
X150400000Y-158521428D01*
X150780952Y-158521428D01*
X150971428Y-158616666D01*
X152685714Y-159759523D02*
X152495238Y-159854761D01*
X152114285Y-159854761D01*
X151923809Y-159759523D01*
X151828571Y-159569047D01*
X151828571Y-158807142D01*
X151923809Y-158616666D01*
X152114285Y-158521428D01*
X152495238Y-158521428D01*
X152685714Y-158616666D01*
X152780952Y-158807142D01*
X152780952Y-158997619D01*
X151828571Y-159188095D01*
X155161904Y-159854761D02*
X155161904Y-157854761D01*
X156304761Y-159854761D01*
X156304761Y-157854761D01*
X158019047Y-159759523D02*
X157828571Y-159854761D01*
X157447619Y-159854761D01*
X157257142Y-159759523D01*
X157161904Y-159569047D01*
X157161904Y-158807142D01*
X157257142Y-158616666D01*
X157447619Y-158521428D01*
X157828571Y-158521428D01*
X158019047Y-158616666D01*
X158114285Y-158807142D01*
X158114285Y-158997619D01*
X157161904Y-159188095D01*
X158780952Y-158521428D02*
X159161904Y-159854761D01*
X159542857Y-158902380D01*
X159923809Y-159854761D01*
X160304761Y-158521428D01*
X162590476Y-159854761D02*
X162590476Y-157854761D01*
X163733333Y-159854761D01*
X163733333Y-157854761D01*
X165447619Y-159759523D02*
X165257142Y-159854761D01*
X164876190Y-159854761D01*
X164685714Y-159759523D01*
X164590476Y-159569047D01*
X164590476Y-158807142D01*
X164685714Y-158616666D01*
X164876190Y-158521428D01*
X165257142Y-158521428D01*
X165447619Y-158616666D01*
X165542857Y-158807142D01*
X165542857Y-158997619D01*
X164590476Y-159188095D01*
X166209523Y-158521428D02*
X166590476Y-159854761D01*
X166971428Y-158902380D01*
X167352380Y-159854761D01*
X167733333Y-158521428D01*
X169923809Y-159759523D02*
X170209523Y-159854761D01*
X170685714Y-159854761D01*
X170876190Y-159759523D01*
X170971428Y-159664285D01*
X171066666Y-159473809D01*
X171066666Y-159283333D01*
X170971428Y-159092857D01*
X170876190Y-158997619D01*
X170685714Y-158902380D01*
X170304761Y-158807142D01*
X170114285Y-158711904D01*
X170019047Y-158616666D01*
X169923809Y-158426190D01*
X169923809Y-158235714D01*
X170019047Y-158045238D01*
X170114285Y-157950000D01*
X170304761Y-157854761D01*
X170780952Y-157854761D01*
X171066666Y-157950000D01*
X171923809Y-159854761D02*
X171923809Y-157854761D01*
X172780952Y-159854761D02*
X172780952Y-158807142D01*
X172685714Y-158616666D01*
X172495238Y-158521428D01*
X172209523Y-158521428D01*
X172019047Y-158616666D01*
X171923809Y-158711904D01*
X173733333Y-159854761D02*
X173733333Y-158521428D01*
X173733333Y-157854761D02*
X173638095Y-157950000D01*
X173733333Y-158045238D01*
X173828571Y-157950000D01*
X173733333Y-157854761D01*
X173733333Y-158045238D01*
X175447619Y-159759523D02*
X175257142Y-159854761D01*
X174876190Y-159854761D01*
X174685714Y-159759523D01*
X174590476Y-159569047D01*
X174590476Y-158807142D01*
X174685714Y-158616666D01*
X174876190Y-158521428D01*
X175257142Y-158521428D01*
X175447619Y-158616666D01*
X175542857Y-158807142D01*
X175542857Y-158997619D01*
X174590476Y-159188095D01*
X176685714Y-159854761D02*
X176495238Y-159759523D01*
X176400000Y-159569047D01*
X176400000Y-157854761D01*
X178304761Y-159854761D02*
X178304761Y-157854761D01*
X178304761Y-159759523D02*
X178114285Y-159854761D01*
X177733333Y-159854761D01*
X177542857Y-159759523D01*
X177447619Y-159664285D01*
X177352380Y-159473809D01*
X177352380Y-158902380D01*
X177447619Y-158711904D01*
X177542857Y-158616666D01*
X177733333Y-158521428D01*
X178114285Y-158521428D01*
X178304761Y-158616666D01*
X154352380Y-162057142D02*
X153685714Y-162057142D01*
X153685714Y-163104761D02*
X153685714Y-161104761D01*
X154638095Y-161104761D01*
X156161904Y-163009523D02*
X155971428Y-163104761D01*
X155590476Y-163104761D01*
X155400000Y-163009523D01*
X155304761Y-162819047D01*
X155304761Y-162057142D01*
X155400000Y-161866666D01*
X155590476Y-161771428D01*
X155971428Y-161771428D01*
X156161904Y-161866666D01*
X156257142Y-162057142D01*
X156257142Y-162247619D01*
X155304761Y-162438095D01*
X157114285Y-163104761D02*
X157114285Y-161104761D01*
X157114285Y-161866666D02*
X157304761Y-161771428D01*
X157685714Y-161771428D01*
X157876190Y-161866666D01*
X157971428Y-161961904D01*
X158066666Y-162152380D01*
X158066666Y-162723809D01*
X157971428Y-162914285D01*
X157876190Y-163009523D01*
X157685714Y-163104761D01*
X157304761Y-163104761D01*
X157114285Y-163009523D01*
X160352380Y-161295238D02*
X160447619Y-161200000D01*
X160638095Y-161104761D01*
X161114285Y-161104761D01*
X161304761Y-161200000D01*
X161400000Y-161295238D01*
X161495238Y-161485714D01*
X161495238Y-161676190D01*
X161400000Y-161961904D01*
X160257142Y-163104761D01*
X161495238Y-163104761D01*
X162733333Y-161104761D02*
X162923809Y-161104761D01*
X163114285Y-161200000D01*
X163209523Y-161295238D01*
X163304761Y-161485714D01*
X163400000Y-161866666D01*
X163400000Y-162342857D01*
X163304761Y-162723809D01*
X163209523Y-162914285D01*
X163114285Y-163009523D01*
X162923809Y-163104761D01*
X162733333Y-163104761D01*
X162542857Y-163009523D01*
X162447619Y-162914285D01*
X162352380Y-162723809D01*
X162257142Y-162342857D01*
X162257142Y-161866666D01*
X162352380Y-161485714D01*
X162447619Y-161295238D01*
X162542857Y-161200000D01*
X162733333Y-161104761D01*
X164161904Y-161295238D02*
X164257142Y-161200000D01*
X164447619Y-161104761D01*
X164923809Y-161104761D01*
X165114285Y-161200000D01*
X165209523Y-161295238D01*
X165304761Y-161485714D01*
X165304761Y-161676190D01*
X165209523Y-161961904D01*
X164066666Y-163104761D01*
X165304761Y-163104761D01*
X167209523Y-163104761D02*
X166066666Y-163104761D01*
X166638095Y-163104761D02*
X166638095Y-161104761D01*
X166447619Y-161390476D01*
X166257142Y-161580952D01*
X166066666Y-161676190D01*
X149733333Y-166354761D02*
X149733333Y-164354761D01*
X150400000Y-165783333D01*
X151066666Y-164354761D01*
X151066666Y-166354761D01*
X152019047Y-166354761D02*
X152019047Y-165021428D01*
X152019047Y-164354761D02*
X151923809Y-164450000D01*
X152019047Y-164545238D01*
X152114285Y-164450000D01*
X152019047Y-164354761D01*
X152019047Y-164545238D01*
X153828571Y-166259523D02*
X153638095Y-166354761D01*
X153257142Y-166354761D01*
X153066666Y-166259523D01*
X152971428Y-166164285D01*
X152876190Y-165973809D01*
X152876190Y-165402380D01*
X152971428Y-165211904D01*
X153066666Y-165116666D01*
X153257142Y-165021428D01*
X153638095Y-165021428D01*
X153828571Y-165116666D01*
X154685714Y-166354761D02*
X154685714Y-164354761D01*
X155542857Y-166354761D02*
X155542857Y-165307142D01*
X155447619Y-165116666D01*
X155257142Y-165021428D01*
X154971428Y-165021428D01*
X154780952Y-165116666D01*
X154685714Y-165211904D01*
X157352380Y-166354761D02*
X157352380Y-165307142D01*
X157257142Y-165116666D01*
X157066666Y-165021428D01*
X156685714Y-165021428D01*
X156495238Y-165116666D01*
X157352380Y-166259523D02*
X157161904Y-166354761D01*
X156685714Y-166354761D01*
X156495238Y-166259523D01*
X156400000Y-166069047D01*
X156400000Y-165878571D01*
X156495238Y-165688095D01*
X156685714Y-165592857D01*
X157161904Y-165592857D01*
X157352380Y-165497619D01*
X159066666Y-166259523D02*
X158876190Y-166354761D01*
X158495238Y-166354761D01*
X158304761Y-166259523D01*
X158209523Y-166069047D01*
X158209523Y-165307142D01*
X158304761Y-165116666D01*
X158495238Y-165021428D01*
X158876190Y-165021428D01*
X159066666Y-165116666D01*
X159161904Y-165307142D01*
X159161904Y-165497619D01*
X158209523Y-165688095D01*
X160304761Y-166354761D02*
X160114285Y-166259523D01*
X160019047Y-166069047D01*
X160019047Y-164354761D01*
X163733333Y-166164285D02*
X163638095Y-166259523D01*
X163352380Y-166354761D01*
X163161904Y-166354761D01*
X162876190Y-166259523D01*
X162685714Y-166069047D01*
X162590476Y-165878571D01*
X162495238Y-165497619D01*
X162495238Y-165211904D01*
X162590476Y-164830952D01*
X162685714Y-164640476D01*
X162876190Y-164450000D01*
X163161904Y-164354761D01*
X163352380Y-164354761D01*
X163638095Y-164450000D01*
X163733333Y-164545238D01*
X165447619Y-165021428D02*
X165447619Y-166354761D01*
X164590476Y-165021428D02*
X164590476Y-166069047D01*
X164685714Y-166259523D01*
X164876190Y-166354761D01*
X165161904Y-166354761D01*
X165352380Y-166259523D01*
X165447619Y-166164285D01*
X166685714Y-166354761D02*
X166495238Y-166259523D01*
X166400000Y-166069047D01*
X166400000Y-164354761D01*
X167733333Y-166354761D02*
X167542857Y-166259523D01*
X167447619Y-166069047D01*
X167447619Y-164354761D01*
X169257142Y-166259523D02*
X169066666Y-166354761D01*
X168685714Y-166354761D01*
X168495238Y-166259523D01*
X168400000Y-166069047D01*
X168400000Y-165307142D01*
X168495238Y-165116666D01*
X168685714Y-165021428D01*
X169066666Y-165021428D01*
X169257142Y-165116666D01*
X169352380Y-165307142D01*
X169352380Y-165497619D01*
X168400000Y-165688095D01*
X170209523Y-165021428D02*
X170209523Y-166354761D01*
X170209523Y-165211904D02*
X170304761Y-165116666D01*
X170495238Y-165021428D01*
X170780952Y-165021428D01*
X170971428Y-165116666D01*
X171066666Y-165307142D01*
X171066666Y-166354761D01*
D11*
X168938095Y-107552380D02*
X168938095Y-106552380D01*
X169176190Y-106552380D01*
X169319047Y-106600000D01*
X169414285Y-106695238D01*
X169461904Y-106790476D01*
X169509523Y-106980952D01*
X169509523Y-107123809D01*
X169461904Y-107314285D01*
X169414285Y-107409523D01*
X169319047Y-107504761D01*
X169176190Y-107552380D01*
X168938095Y-107552380D01*
X170080952Y-107552380D02*
X169985714Y-107504761D01*
X169938095Y-107457142D01*
X169890476Y-107361904D01*
X169890476Y-107076190D01*
X169938095Y-106980952D01*
X169985714Y-106933333D01*
X170080952Y-106885714D01*
X170223809Y-106885714D01*
X170319047Y-106933333D01*
X170366666Y-106980952D01*
X170414285Y-107076190D01*
X170414285Y-107361904D01*
X170366666Y-107457142D01*
X170319047Y-107504761D01*
X170223809Y-107552380D01*
X170080952Y-107552380D01*
X170985714Y-107552380D02*
X170890476Y-107504761D01*
X170842857Y-107457142D01*
X170795238Y-107361904D01*
X170795238Y-107076190D01*
X170842857Y-106980952D01*
X170890476Y-106933333D01*
X170985714Y-106885714D01*
X171128571Y-106885714D01*
X171223809Y-106933333D01*
X171271428Y-106980952D01*
X171319047Y-107076190D01*
X171319047Y-107361904D01*
X171271428Y-107457142D01*
X171223809Y-107504761D01*
X171128571Y-107552380D01*
X170985714Y-107552380D01*
X171747619Y-107552380D02*
X171747619Y-106885714D01*
X171747619Y-107076190D02*
X171795238Y-106980952D01*
X171842857Y-106933333D01*
X171938095Y-106885714D01*
X172033333Y-106885714D01*
X173700000Y-107552380D02*
X173366666Y-107076190D01*
X173128571Y-107552380D02*
X173128571Y-106552380D01*
X173509523Y-106552380D01*
X173604761Y-106600000D01*
X173652380Y-106647619D01*
X173700000Y-106742857D01*
X173700000Y-106885714D01*
X173652380Y-106980952D01*
X173604761Y-107028571D01*
X173509523Y-107076190D01*
X173128571Y-107076190D01*
X174509523Y-107504761D02*
X174414285Y-107552380D01*
X174223809Y-107552380D01*
X174128571Y-107504761D01*
X174080952Y-107409523D01*
X174080952Y-107028571D01*
X174128571Y-106933333D01*
X174223809Y-106885714D01*
X174414285Y-106885714D01*
X174509523Y-106933333D01*
X174557142Y-107028571D01*
X174557142Y-107123809D01*
X174080952Y-107219047D01*
X175128571Y-107552380D02*
X175033333Y-107504761D01*
X174985714Y-107409523D01*
X174985714Y-106552380D01*
X175890476Y-107504761D02*
X175795238Y-107552380D01*
X175604761Y-107552380D01*
X175509523Y-107504761D01*
X175461904Y-107409523D01*
X175461904Y-107028571D01*
X175509523Y-106933333D01*
X175604761Y-106885714D01*
X175795238Y-106885714D01*
X175890476Y-106933333D01*
X175938095Y-107028571D01*
X175938095Y-107123809D01*
X175461904Y-107219047D01*
X176795238Y-107552380D02*
X176795238Y-107028571D01*
X176747619Y-106933333D01*
X176652380Y-106885714D01*
X176461904Y-106885714D01*
X176366666Y-106933333D01*
X176795238Y-107504761D02*
X176700000Y-107552380D01*
X176461904Y-107552380D01*
X176366666Y-107504761D01*
X176319047Y-107409523D01*
X176319047Y-107314285D01*
X176366666Y-107219047D01*
X176461904Y-107171428D01*
X176700000Y-107171428D01*
X176795238Y-107123809D01*
X177223809Y-107504761D02*
X177319047Y-107552380D01*
X177509523Y-107552380D01*
X177604761Y-107504761D01*
X177652380Y-107409523D01*
X177652380Y-107361904D01*
X177604761Y-107266666D01*
X177509523Y-107219047D01*
X177366666Y-107219047D01*
X177271428Y-107171428D01*
X177223809Y-107076190D01*
X177223809Y-107028571D01*
X177271428Y-106933333D01*
X177366666Y-106885714D01*
X177509523Y-106885714D01*
X177604761Y-106933333D01*
X178461904Y-107504761D02*
X178366666Y-107552380D01*
X178176190Y-107552380D01*
X178080952Y-107504761D01*
X178033333Y-107409523D01*
X178033333Y-107028571D01*
X178080952Y-106933333D01*
X178176190Y-106885714D01*
X178366666Y-106885714D01*
X178461904Y-106933333D01*
X178509523Y-107028571D01*
X178509523Y-107123809D01*
X178033333Y-107219047D01*
X143552380Y-87566666D02*
X143076190Y-87900000D01*
X143552380Y-88138095D02*
X142552380Y-88138095D01*
X142552380Y-87757142D01*
X142600000Y-87661904D01*
X142647619Y-87614285D01*
X142742857Y-87566666D01*
X142885714Y-87566666D01*
X142980952Y-87614285D01*
X143028571Y-87661904D01*
X143076190Y-87757142D01*
X143076190Y-88138095D01*
X143504761Y-87185714D02*
X143552380Y-87042857D01*
X143552380Y-86804761D01*
X143504761Y-86709523D01*
X143457142Y-86661904D01*
X143361904Y-86614285D01*
X143266666Y-86614285D01*
X143171428Y-86661904D01*
X143123809Y-86709523D01*
X143076190Y-86804761D01*
X143028571Y-86995238D01*
X142980952Y-87090476D01*
X142933333Y-87138095D01*
X142838095Y-87185714D01*
X142742857Y-87185714D01*
X142647619Y-87138095D01*
X142600000Y-87090476D01*
X142552380Y-86995238D01*
X142552380Y-86757142D01*
X142600000Y-86614285D01*
X143171428Y-86185714D02*
X143171428Y-85423809D01*
X142885714Y-84519047D02*
X143552380Y-84519047D01*
X142504761Y-84757142D02*
X143219047Y-84995238D01*
X143219047Y-84376190D01*
X142647619Y-84042857D02*
X142600000Y-83995238D01*
X142552380Y-83900000D01*
X142552380Y-83661904D01*
X142600000Y-83566666D01*
X142647619Y-83519047D01*
X142742857Y-83471428D01*
X142838095Y-83471428D01*
X142980952Y-83519047D01*
X143552380Y-84090476D01*
X143552380Y-83471428D01*
X142647619Y-83090476D02*
X142600000Y-83042857D01*
X142552380Y-82947619D01*
X142552380Y-82709523D01*
X142600000Y-82614285D01*
X142647619Y-82566666D01*
X142742857Y-82519047D01*
X142838095Y-82519047D01*
X142980952Y-82566666D01*
X143552380Y-83138095D01*
X143552380Y-82519047D01*
X143552380Y-80757142D02*
X143076190Y-81090476D01*
X143552380Y-81328571D02*
X142552380Y-81328571D01*
X142552380Y-80947619D01*
X142600000Y-80852380D01*
X142647619Y-80804761D01*
X142742857Y-80757142D01*
X142885714Y-80757142D01*
X142980952Y-80804761D01*
X143028571Y-80852380D01*
X143076190Y-80947619D01*
X143076190Y-81328571D01*
X143504761Y-79947619D02*
X143552380Y-80042857D01*
X143552380Y-80233333D01*
X143504761Y-80328571D01*
X143409523Y-80376190D01*
X143028571Y-80376190D01*
X142933333Y-80328571D01*
X142885714Y-80233333D01*
X142885714Y-80042857D01*
X142933333Y-79947619D01*
X143028571Y-79900000D01*
X143123809Y-79900000D01*
X143219047Y-80376190D01*
X143552380Y-79042857D02*
X143028571Y-79042857D01*
X142933333Y-79090476D01*
X142885714Y-79185714D01*
X142885714Y-79376190D01*
X142933333Y-79471428D01*
X143504761Y-79042857D02*
X143552380Y-79138095D01*
X143552380Y-79376190D01*
X143504761Y-79471428D01*
X143409523Y-79519047D01*
X143314285Y-79519047D01*
X143219047Y-79471428D01*
X143171428Y-79376190D01*
X143171428Y-79138095D01*
X143123809Y-79042857D01*
X143552380Y-78138095D02*
X142552380Y-78138095D01*
X143504761Y-78138095D02*
X143552380Y-78233333D01*
X143552380Y-78423809D01*
X143504761Y-78519047D01*
X143457142Y-78566666D01*
X143361904Y-78614285D01*
X143076190Y-78614285D01*
X142980952Y-78566666D01*
X142933333Y-78519047D01*
X142885714Y-78423809D01*
X142885714Y-78233333D01*
X142933333Y-78138095D01*
X143504761Y-77280952D02*
X143552380Y-77376190D01*
X143552380Y-77566666D01*
X143504761Y-77661904D01*
X143409523Y-77709523D01*
X143028571Y-77709523D01*
X142933333Y-77661904D01*
X142885714Y-77566666D01*
X142885714Y-77376190D01*
X142933333Y-77280952D01*
X143028571Y-77233333D01*
X143123809Y-77233333D01*
X143219047Y-77709523D01*
X143552380Y-76804761D02*
X142885714Y-76804761D01*
X143076190Y-76804761D02*
X142980952Y-76757142D01*
X142933333Y-76709523D01*
X142885714Y-76614285D01*
X142885714Y-76519047D01*
X150495238Y-64652380D02*
X150495238Y-63652380D01*
X150733333Y-63652380D01*
X150876190Y-63700000D01*
X150971428Y-63795238D01*
X151019047Y-63890476D01*
X151066666Y-64080952D01*
X151066666Y-64223809D01*
X151019047Y-64414285D01*
X150971428Y-64509523D01*
X150876190Y-64604761D01*
X150733333Y-64652380D01*
X150495238Y-64652380D01*
X151495238Y-64652380D02*
X151495238Y-63985714D01*
X151495238Y-63652380D02*
X151447619Y-63700000D01*
X151495238Y-63747619D01*
X151542857Y-63700000D01*
X151495238Y-63652380D01*
X151495238Y-63747619D01*
X151971428Y-64652380D02*
X151971428Y-63985714D01*
X151971428Y-64176190D02*
X152019047Y-64080952D01*
X152066666Y-64033333D01*
X152161904Y-63985714D01*
X152257142Y-63985714D01*
X152971428Y-64604761D02*
X152876190Y-64652380D01*
X152685714Y-64652380D01*
X152590476Y-64604761D01*
X152542857Y-64509523D01*
X152542857Y-64128571D01*
X152590476Y-64033333D01*
X152685714Y-63985714D01*
X152876190Y-63985714D01*
X152971428Y-64033333D01*
X153019047Y-64128571D01*
X153019047Y-64223809D01*
X152542857Y-64319047D01*
X153876190Y-64604761D02*
X153780952Y-64652380D01*
X153590476Y-64652380D01*
X153495238Y-64604761D01*
X153447619Y-64557142D01*
X153400000Y-64461904D01*
X153400000Y-64176190D01*
X153447619Y-64080952D01*
X153495238Y-64033333D01*
X153590476Y-63985714D01*
X153780952Y-63985714D01*
X153876190Y-64033333D01*
X154161904Y-63985714D02*
X154542857Y-63985714D01*
X154304761Y-63652380D02*
X154304761Y-64509523D01*
X154352380Y-64604761D01*
X154447619Y-64652380D01*
X154542857Y-64652380D01*
X156209523Y-64652380D02*
X155876190Y-64176190D01*
X155638095Y-64652380D02*
X155638095Y-63652380D01*
X156019047Y-63652380D01*
X156114285Y-63700000D01*
X156161904Y-63747619D01*
X156209523Y-63842857D01*
X156209523Y-63985714D01*
X156161904Y-64080952D01*
X156114285Y-64128571D01*
X156019047Y-64176190D01*
X155638095Y-64176190D01*
X157019047Y-64604761D02*
X156923809Y-64652380D01*
X156733333Y-64652380D01*
X156638095Y-64604761D01*
X156590476Y-64509523D01*
X156590476Y-64128571D01*
X156638095Y-64033333D01*
X156733333Y-63985714D01*
X156923809Y-63985714D01*
X157019047Y-64033333D01*
X157066666Y-64128571D01*
X157066666Y-64223809D01*
X156590476Y-64319047D01*
X157923809Y-64652380D02*
X157923809Y-64128571D01*
X157876190Y-64033333D01*
X157780952Y-63985714D01*
X157590476Y-63985714D01*
X157495238Y-64033333D01*
X157923809Y-64604761D02*
X157828571Y-64652380D01*
X157590476Y-64652380D01*
X157495238Y-64604761D01*
X157447619Y-64509523D01*
X157447619Y-64414285D01*
X157495238Y-64319047D01*
X157590476Y-64271428D01*
X157828571Y-64271428D01*
X157923809Y-64223809D01*
X158828571Y-64652380D02*
X158828571Y-63652380D01*
X158828571Y-64604761D02*
X158733333Y-64652380D01*
X158542857Y-64652380D01*
X158447619Y-64604761D01*
X158400000Y-64557142D01*
X158352380Y-64461904D01*
X158352380Y-64176190D01*
X158400000Y-64080952D01*
X158447619Y-64033333D01*
X158542857Y-63985714D01*
X158733333Y-63985714D01*
X158828571Y-64033333D01*
X159685714Y-64604761D02*
X159590476Y-64652380D01*
X159400000Y-64652380D01*
X159304761Y-64604761D01*
X159257142Y-64509523D01*
X159257142Y-64128571D01*
X159304761Y-64033333D01*
X159400000Y-63985714D01*
X159590476Y-63985714D01*
X159685714Y-64033333D01*
X159733333Y-64128571D01*
X159733333Y-64223809D01*
X159257142Y-64319047D01*
X160161904Y-64652380D02*
X160161904Y-63985714D01*
X160161904Y-64176190D02*
X160209523Y-64080952D01*
X160257142Y-64033333D01*
X160352380Y-63985714D01*
X160447619Y-63985714D01*
X164861904Y-75852380D02*
X164528571Y-75376190D01*
X164290476Y-75852380D02*
X164290476Y-74852380D01*
X164671428Y-74852380D01*
X164766666Y-74900000D01*
X164814285Y-74947619D01*
X164861904Y-75042857D01*
X164861904Y-75185714D01*
X164814285Y-75280952D01*
X164766666Y-75328571D01*
X164671428Y-75376190D01*
X164290476Y-75376190D01*
X165671428Y-75804761D02*
X165576190Y-75852380D01*
X165385714Y-75852380D01*
X165290476Y-75804761D01*
X165242857Y-75709523D01*
X165242857Y-75328571D01*
X165290476Y-75233333D01*
X165385714Y-75185714D01*
X165576190Y-75185714D01*
X165671428Y-75233333D01*
X165719047Y-75328571D01*
X165719047Y-75423809D01*
X165242857Y-75519047D01*
X166100000Y-75804761D02*
X166195238Y-75852380D01*
X166385714Y-75852380D01*
X166480952Y-75804761D01*
X166528571Y-75709523D01*
X166528571Y-75661904D01*
X166480952Y-75566666D01*
X166385714Y-75519047D01*
X166242857Y-75519047D01*
X166147619Y-75471428D01*
X166100000Y-75376190D01*
X166100000Y-75328571D01*
X166147619Y-75233333D01*
X166242857Y-75185714D01*
X166385714Y-75185714D01*
X166480952Y-75233333D01*
X167338095Y-75804761D02*
X167242857Y-75852380D01*
X167052380Y-75852380D01*
X166957142Y-75804761D01*
X166909523Y-75709523D01*
X166909523Y-75328571D01*
X166957142Y-75233333D01*
X167052380Y-75185714D01*
X167242857Y-75185714D01*
X167338095Y-75233333D01*
X167385714Y-75328571D01*
X167385714Y-75423809D01*
X166909523Y-75519047D01*
X167671428Y-75185714D02*
X168052380Y-75185714D01*
X167814285Y-74852380D02*
X167814285Y-75709523D01*
X167861904Y-75804761D01*
X167957142Y-75852380D01*
X168052380Y-75852380D01*
X129028571Y-121052380D02*
X129600000Y-121052380D01*
X129314285Y-122052380D02*
X129314285Y-121052380D01*
X129933333Y-122052380D02*
X129933333Y-121052380D01*
X129933333Y-121528571D02*
X130504761Y-121528571D01*
X130504761Y-122052380D02*
X130504761Y-121052380D01*
X130980952Y-121528571D02*
X131314285Y-121528571D01*
X131457142Y-122052380D02*
X130980952Y-122052380D01*
X130980952Y-121052380D01*
X131457142Y-121052380D01*
X132980952Y-121528571D02*
X133123809Y-121576190D01*
X133171428Y-121623809D01*
X133219047Y-121719047D01*
X133219047Y-121861904D01*
X133171428Y-121957142D01*
X133123809Y-122004761D01*
X133028571Y-122052380D01*
X132647619Y-122052380D01*
X132647619Y-121052380D01*
X132980952Y-121052380D01*
X133076190Y-121100000D01*
X133123809Y-121147619D01*
X133171428Y-121242857D01*
X133171428Y-121338095D01*
X133123809Y-121433333D01*
X133076190Y-121480952D01*
X132980952Y-121528571D01*
X132647619Y-121528571D01*
X134076190Y-121385714D02*
X134076190Y-122052380D01*
X133647619Y-121385714D02*
X133647619Y-121909523D01*
X133695238Y-122004761D01*
X133790476Y-122052380D01*
X133933333Y-122052380D01*
X134028571Y-122004761D01*
X134076190Y-121957142D01*
X134409523Y-121385714D02*
X134790476Y-121385714D01*
X134552380Y-121052380D02*
X134552380Y-121909523D01*
X134600000Y-122004761D01*
X134695238Y-122052380D01*
X134790476Y-122052380D01*
X134980952Y-121385714D02*
X135361904Y-121385714D01*
X135123809Y-121052380D02*
X135123809Y-121909523D01*
X135171428Y-122004761D01*
X135266666Y-122052380D01*
X135361904Y-122052380D01*
X135838095Y-122052380D02*
X135742857Y-122004761D01*
X135695238Y-121957142D01*
X135647619Y-121861904D01*
X135647619Y-121576190D01*
X135695238Y-121480952D01*
X135742857Y-121433333D01*
X135838095Y-121385714D01*
X135980952Y-121385714D01*
X136076190Y-121433333D01*
X136123809Y-121480952D01*
X136171428Y-121576190D01*
X136171428Y-121861904D01*
X136123809Y-121957142D01*
X136076190Y-122004761D01*
X135980952Y-122052380D01*
X135838095Y-122052380D01*
X136600000Y-121385714D02*
X136600000Y-122052380D01*
X136600000Y-121480952D02*
X136647619Y-121433333D01*
X136742857Y-121385714D01*
X136885714Y-121385714D01*
X136980952Y-121433333D01*
X137028571Y-121528571D01*
X137028571Y-122052380D01*
X135347619Y-160190476D02*
X135347619Y-160761904D01*
X134347619Y-160476190D02*
X135347619Y-160476190D01*
X134347619Y-161238095D02*
X134395238Y-161142857D01*
X134442857Y-161095238D01*
X134538095Y-161047619D01*
X134823809Y-161047619D01*
X134919047Y-161095238D01*
X134966666Y-161142857D01*
X135014285Y-161238095D01*
X135014285Y-161380952D01*
X134966666Y-161476190D01*
X134919047Y-161523809D01*
X134823809Y-161571428D01*
X134538095Y-161571428D01*
X134442857Y-161523809D01*
X134395238Y-161476190D01*
X134347619Y-161380952D01*
X134347619Y-161238095D01*
X134347619Y-162142857D02*
X134395238Y-162047619D01*
X134442857Y-162000000D01*
X134538095Y-161952380D01*
X134823809Y-161952380D01*
X134919047Y-162000000D01*
X134966666Y-162047619D01*
X135014285Y-162142857D01*
X135014285Y-162285714D01*
X134966666Y-162380952D01*
X134919047Y-162428571D01*
X134823809Y-162476190D01*
X134538095Y-162476190D01*
X134442857Y-162428571D01*
X134395238Y-162380952D01*
X134347619Y-162285714D01*
X134347619Y-162142857D01*
X134347619Y-163047619D02*
X134395238Y-162952380D01*
X134490476Y-162904761D01*
X135347619Y-162904761D01*
X135347619Y-164380952D02*
X135347619Y-164571428D01*
X135300000Y-164666666D01*
X135204761Y-164761904D01*
X135014285Y-164809523D01*
X134680952Y-164809523D01*
X134490476Y-164761904D01*
X134395238Y-164666666D01*
X134347619Y-164571428D01*
X134347619Y-164380952D01*
X134395238Y-164285714D01*
X134490476Y-164190476D01*
X134680952Y-164142857D01*
X135014285Y-164142857D01*
X135204761Y-164190476D01*
X135300000Y-164285714D01*
X135347619Y-164380952D01*
X135014285Y-165238095D02*
X134347619Y-165238095D01*
X134919047Y-165238095D02*
X134966666Y-165285714D01*
X135014285Y-165380952D01*
X135014285Y-165523809D01*
X134966666Y-165619047D01*
X134871428Y-165666666D01*
X134347619Y-165666666D01*
X133119047Y-164471428D02*
X133880952Y-164471428D01*
X133119047Y-160671428D02*
X133880952Y-160671428D01*
X133500000Y-161052380D02*
X133500000Y-160290476D01*
X133714285Y-150852380D02*
X133714285Y-149852380D01*
X134285714Y-150852380D01*
X134285714Y-149852380D01*
X135333333Y-150757142D02*
X135285714Y-150804761D01*
X135142857Y-150852380D01*
X135047619Y-150852380D01*
X134904761Y-150804761D01*
X134809523Y-150709523D01*
X134761904Y-150614285D01*
X134714285Y-150423809D01*
X134714285Y-150280952D01*
X134761904Y-150090476D01*
X134809523Y-149995238D01*
X134904761Y-149900000D01*
X135047619Y-149852380D01*
X135142857Y-149852380D01*
X135285714Y-149900000D01*
X135333333Y-149947619D01*
X133814285Y-147057142D02*
X133766666Y-147104761D01*
X133623809Y-147152380D01*
X133528571Y-147152380D01*
X133385714Y-147104761D01*
X133290476Y-147009523D01*
X133242857Y-146914285D01*
X133195238Y-146723809D01*
X133195238Y-146580952D01*
X133242857Y-146390476D01*
X133290476Y-146295238D01*
X133385714Y-146200000D01*
X133528571Y-146152380D01*
X133623809Y-146152380D01*
X133766666Y-146200000D01*
X133814285Y-146247619D01*
X134433333Y-146152380D02*
X134623809Y-146152380D01*
X134719047Y-146200000D01*
X134814285Y-146295238D01*
X134861904Y-146485714D01*
X134861904Y-146819047D01*
X134814285Y-147009523D01*
X134719047Y-147104761D01*
X134623809Y-147152380D01*
X134433333Y-147152380D01*
X134338095Y-147104761D01*
X134242857Y-147009523D01*
X134195238Y-146819047D01*
X134195238Y-146485714D01*
X134242857Y-146295238D01*
X134338095Y-146200000D01*
X134433333Y-146152380D01*
X135290476Y-147152380D02*
X135290476Y-146152380D01*
X135623809Y-146866666D01*
X135957142Y-146152380D01*
X135957142Y-147152380D01*
X133690476Y-143352380D02*
X133690476Y-142352380D01*
X134261904Y-143352380D01*
X134261904Y-142352380D01*
X134928571Y-142352380D02*
X135119047Y-142352380D01*
X135214285Y-142400000D01*
X135309523Y-142495238D01*
X135357142Y-142685714D01*
X135357142Y-143019047D01*
X135309523Y-143209523D01*
X135214285Y-143304761D01*
X135119047Y-143352380D01*
X134928571Y-143352380D01*
X134833333Y-143304761D01*
X134738095Y-143209523D01*
X134690476Y-143019047D01*
X134690476Y-142685714D01*
X134738095Y-142495238D01*
X134833333Y-142400000D01*
X134928571Y-142352380D01*
X136977428Y-103869904D02*
X136977428Y-103108000D01*
X137358380Y-103488952D02*
X136596476Y-103488952D01*
X137358380Y-102108000D02*
X137358380Y-102679428D01*
X137358380Y-102393714D02*
X136358380Y-102393714D01*
X136501238Y-102488952D01*
X136596476Y-102584190D01*
X136644095Y-102679428D01*
X136453619Y-101727047D02*
X136406000Y-101679428D01*
X136358380Y-101584190D01*
X136358380Y-101346095D01*
X136406000Y-101250857D01*
X136453619Y-101203238D01*
X136548857Y-101155619D01*
X136644095Y-101155619D01*
X136786952Y-101203238D01*
X137358380Y-101774666D01*
X137358380Y-101155619D01*
X136358380Y-100869904D02*
X137358380Y-100536571D01*
X136358380Y-100203238D01*
X136406000Y-97789904D02*
X136358380Y-97885142D01*
X136358380Y-98028000D01*
X136406000Y-98170857D01*
X136501238Y-98266095D01*
X136596476Y-98313714D01*
X136786952Y-98361333D01*
X136929809Y-98361333D01*
X137120285Y-98313714D01*
X137215523Y-98266095D01*
X137310761Y-98170857D01*
X137358380Y-98028000D01*
X137358380Y-97932761D01*
X137310761Y-97789904D01*
X137263142Y-97742285D01*
X136929809Y-97742285D01*
X136929809Y-97932761D01*
X137358380Y-97313714D02*
X136358380Y-97313714D01*
X137358380Y-96742285D01*
X136358380Y-96742285D01*
X137358380Y-96266095D02*
X136358380Y-96266095D01*
X136358380Y-96028000D01*
X136406000Y-95885142D01*
X136501238Y-95789904D01*
X136596476Y-95742285D01*
X136786952Y-95694666D01*
X136929809Y-95694666D01*
X137120285Y-95742285D01*
X137215523Y-95789904D01*
X137310761Y-95885142D01*
X137358380Y-96028000D01*
X137358380Y-96266095D01*
D12*
%TO.C,K1*%
X156340000Y-145358000D02*
X156340000Y-138758000D01*
X156340000Y-154358000D02*
X156340000Y-147758000D01*
X156340000Y-154358000D02*
X136540000Y-154358000D01*
X136540000Y-154358000D02*
X136540000Y-138758000D01*
X136540000Y-138758000D02*
X156340000Y-138758000D01*
X140790000Y-142358000D02*
X140790000Y-144808000D01*
X140790000Y-150758000D02*
X140790000Y-148258000D01*
X151390000Y-140508000D02*
X148890000Y-140508000D01*
X152290000Y-146508000D02*
X153090000Y-146508000D01*
X148890000Y-152508000D02*
X151390000Y-152508000D01*
X145490000Y-146508000D02*
X143990000Y-146508000D01*
X143990000Y-146508000D02*
X139390000Y-149008000D01*
X145490000Y-142908000D02*
X152290000Y-142908000D01*
X145490000Y-146508000D02*
X145490000Y-142908000D01*
X152290000Y-146508000D02*
X152290000Y-142908000D01*
X148890000Y-152508000D02*
X148890000Y-148308000D01*
X148890000Y-144708000D02*
X148890000Y-140508000D01*
X146890000Y-144708000D02*
X150890000Y-148308000D01*
X150890000Y-144708000D02*
X150890000Y-148308000D01*
X150890000Y-148308000D02*
X146890000Y-148308000D01*
X146890000Y-148308000D02*
X146890000Y-144708000D01*
X146890000Y-144708000D02*
X150890000Y-144708000D01*
%TO.C,U5*%
X147720000Y-100716000D02*
X148980000Y-100716000D01*
X154540000Y-100716000D02*
X153280000Y-100716000D01*
X147720000Y-96956000D02*
X147720000Y-100716000D01*
X154540000Y-94706000D02*
X154540000Y-100716000D01*
D13*
%TO.C,U4*%
X138065139Y-161185000D02*
G75*
G03*
X138065139Y-161185000I-90139J0D01*
G01*
D12*
X137500000Y-164485000D02*
X137500000Y-160635000D01*
X141900000Y-164485000D02*
X137500000Y-164485000D01*
X141900000Y-160635000D02*
X141900000Y-164485000D01*
X137500000Y-160635000D02*
X141900000Y-160635000D01*
%TO.C,U3*%
X136652000Y-59367000D02*
X139377000Y-59367000D01*
X139377000Y-59367000D02*
X139377000Y-59107000D01*
X136652000Y-59367000D02*
X133927000Y-59367000D01*
X133927000Y-59367000D02*
X133927000Y-59107000D01*
X136652000Y-53917000D02*
X139377000Y-53917000D01*
X139377000Y-53917000D02*
X139377000Y-54177000D01*
X136652000Y-53917000D02*
X133927000Y-53917000D01*
X133927000Y-53917000D02*
X133927000Y-54177000D01*
X133927000Y-54177000D02*
X132252000Y-54177000D01*
%TO.C,U1*%
X149352000Y-77353000D02*
X147402000Y-77353000D01*
X149352000Y-77353000D02*
X151302000Y-77353000D01*
X149352000Y-86223000D02*
X147402000Y-86223000D01*
X149352000Y-86223000D02*
X152802000Y-86223000D01*
%TO.C,SW2*%
X136056000Y-129302000D02*
X136056000Y-124802000D01*
X132056000Y-130552000D02*
X133556000Y-130552000D01*
X129556000Y-124802000D02*
X129556000Y-129302000D01*
X133556000Y-123552000D02*
X132056000Y-123552000D01*
%TO.C,SW1*%
X163900000Y-83500000D02*
X168400000Y-83500000D01*
X162650000Y-79500000D02*
X162650000Y-81000000D01*
X168400000Y-77000000D02*
X163900000Y-77000000D01*
X169650000Y-81000000D02*
X169650000Y-79500000D01*
%TO.C,R16*%
X162214779Y-98808000D02*
X161889221Y-98808000D01*
X162214779Y-97788000D02*
X161889221Y-97788000D01*
%TO.C,R15*%
X163230779Y-104650000D02*
X162905221Y-104650000D01*
X163230779Y-103630000D02*
X162905221Y-103630000D01*
%TO.C,R14*%
X132679221Y-132840000D02*
X133004779Y-132840000D01*
X132679221Y-133860000D02*
X133004779Y-133860000D01*
%TO.C,R13*%
X154938000Y-113192779D02*
X154938000Y-112867221D01*
X155958000Y-113192779D02*
X155958000Y-112867221D01*
%TO.C,R12*%
X152144000Y-113192779D02*
X152144000Y-112867221D01*
X153164000Y-113192779D02*
X153164000Y-112867221D01*
%TO.C,R11*%
X135798779Y-160022000D02*
X135473221Y-160022000D01*
X135798779Y-159002000D02*
X135473221Y-159002000D01*
%TO.C,R10*%
X130610000Y-47937221D02*
X130610000Y-48262779D01*
X129590000Y-47937221D02*
X129590000Y-48262779D01*
%TO.C,R9*%
X166278779Y-137670000D02*
X165953221Y-137670000D01*
X166278779Y-136650000D02*
X165953221Y-136650000D01*
%TO.C,R8*%
X141730000Y-121574779D02*
X141730000Y-121249221D01*
X142750000Y-121574779D02*
X142750000Y-121249221D01*
%TO.C,R7*%
X141730000Y-115732779D02*
X141730000Y-115407221D01*
X142750000Y-115732779D02*
X142750000Y-115407221D01*
%TO.C,R6*%
X141730000Y-110652779D02*
X141730000Y-110327221D01*
X142750000Y-110652779D02*
X142750000Y-110327221D01*
%TO.C,R5*%
X132933221Y-118870000D02*
X133258779Y-118870000D01*
X132933221Y-119890000D02*
X133258779Y-119890000D01*
%TO.C,R4*%
X131570000Y-110906779D02*
X131570000Y-110581221D01*
X132590000Y-110906779D02*
X132590000Y-110581221D01*
%TO.C,R3*%
X134457221Y-109726000D02*
X134782779Y-109726000D01*
X134457221Y-110746000D02*
X134782779Y-110746000D01*
%TO.C,R2*%
X129792000Y-55534779D02*
X129792000Y-55209221D01*
X130812000Y-55534779D02*
X130812000Y-55209221D01*
%TO.C,R1*%
X145290000Y-82133221D02*
X145290000Y-82458779D01*
X144270000Y-82133221D02*
X144270000Y-82458779D01*
%TO.C,Q9*%
X160472000Y-101852000D02*
X161402000Y-101852000D01*
X163632000Y-101852000D02*
X162702000Y-101852000D01*
X163632000Y-101852000D02*
X163632000Y-99692000D01*
X160472000Y-101852000D02*
X160472000Y-100392000D01*
%TO.C,Q8*%
X164536000Y-141730000D02*
X165466000Y-141730000D01*
X167696000Y-141730000D02*
X166766000Y-141730000D01*
X167696000Y-141730000D02*
X167696000Y-139570000D01*
X164536000Y-141730000D02*
X164536000Y-140270000D01*
%TO.C,Q7*%
X138830000Y-100716000D02*
X140090000Y-100716000D01*
X145650000Y-100716000D02*
X144390000Y-100716000D01*
X138830000Y-96956000D02*
X138830000Y-100716000D01*
X145650000Y-94706000D02*
X145650000Y-100716000D01*
%TO.C,Q6*%
X138686000Y-119832000D02*
X138686000Y-120762000D01*
X138686000Y-122992000D02*
X138686000Y-122062000D01*
X138686000Y-122992000D02*
X140846000Y-122992000D01*
X138686000Y-119832000D02*
X140146000Y-119832000D01*
%TO.C,Q5*%
X138686000Y-113990000D02*
X138686000Y-114920000D01*
X138686000Y-117150000D02*
X138686000Y-116220000D01*
X138686000Y-117150000D02*
X140846000Y-117150000D01*
X138686000Y-113990000D02*
X140146000Y-113990000D01*
%TO.C,Q4*%
X138432000Y-108910000D02*
X138432000Y-109840000D01*
X138432000Y-112070000D02*
X138432000Y-111140000D01*
X138432000Y-112070000D02*
X140592000Y-112070000D01*
X138432000Y-108910000D02*
X139892000Y-108910000D01*
%TO.C,Q3*%
X156774000Y-66042000D02*
X155844000Y-66042000D01*
X153614000Y-66042000D02*
X154544000Y-66042000D01*
X153614000Y-66042000D02*
X153614000Y-68202000D01*
X156774000Y-66042000D02*
X156774000Y-67502000D01*
%TO.C,Q2*%
X151186000Y-65788000D02*
X150256000Y-65788000D01*
X148026000Y-65788000D02*
X148956000Y-65788000D01*
X148026000Y-65788000D02*
X148026000Y-67948000D01*
X151186000Y-65788000D02*
X151186000Y-67248000D01*
%TO.C,Q1*%
X161854000Y-66042000D02*
X160924000Y-66042000D01*
X158694000Y-66042000D02*
X159624000Y-66042000D01*
X158694000Y-66042000D02*
X158694000Y-68202000D01*
X161854000Y-66042000D02*
X161854000Y-67502000D01*
%TO.C,J7*%
X169644000Y-106308000D02*
X169644000Y-97908000D01*
X169644000Y-97908000D02*
X178844000Y-97908000D01*
X178844000Y-97908000D02*
X178844000Y-106308000D01*
X178844000Y-106308000D02*
X169644000Y-106308000D01*
%TO.C,J6*%
X156524000Y-110804000D02*
X156524000Y-108144000D01*
X148844000Y-110804000D02*
X156524000Y-110804000D01*
X148844000Y-108144000D02*
X156524000Y-108144000D01*
X148844000Y-110804000D02*
X148844000Y-108144000D01*
X147574000Y-110804000D02*
X146244000Y-110804000D01*
X146244000Y-110804000D02*
X146244000Y-109474000D01*
%TO.C,J5*%
X132870000Y-158360000D02*
X132870000Y-166760000D01*
X132870000Y-166760000D02*
X123670000Y-166760000D01*
X123670000Y-166760000D02*
X123670000Y-158360000D01*
X123670000Y-158360000D02*
X132870000Y-158360000D01*
%TO.C,J4*%
X132870000Y-140448000D02*
X132870000Y-152668000D01*
X132870000Y-152668000D02*
X123670000Y-152668000D01*
X123670000Y-152668000D02*
X123670000Y-140448000D01*
X123670000Y-140448000D02*
X132870000Y-140448000D01*
%TO.C,J3*%
X123440000Y-93868000D02*
X135590000Y-93868000D01*
X123440000Y-105268000D02*
X123440000Y-93868000D01*
X135590000Y-105268000D02*
X123440000Y-105268000D01*
X135590000Y-93868000D02*
X135590000Y-105268000D01*
%TO.C,J2*%
X147057000Y-63208000D02*
X147057000Y-51278000D01*
X147057000Y-63208000D02*
X163077000Y-63208000D01*
X163077000Y-63208000D02*
X163077000Y-51278000D01*
X147057000Y-44338000D02*
X163077000Y-44338000D01*
X147057000Y-47778000D02*
X147057000Y-44338000D01*
X163445000Y-58928000D02*
X163953000Y-59436000D01*
X163953000Y-59436000D02*
X163953000Y-58420000D01*
X163953000Y-58420000D02*
X163445000Y-58928000D01*
X163077000Y-47778000D02*
X163077000Y-44338000D01*
%TO.C,J1*%
X141948000Y-89671000D02*
X130018000Y-89671000D01*
X141948000Y-89671000D02*
X141948000Y-73651000D01*
X141948000Y-73651000D02*
X130018000Y-73651000D01*
X123078000Y-89671000D02*
X123078000Y-73651000D01*
X126518000Y-89671000D02*
X123078000Y-89671000D01*
X137668000Y-73283000D02*
X138176000Y-72775000D01*
X138176000Y-72775000D02*
X137160000Y-72775000D01*
X137160000Y-72775000D02*
X137668000Y-73283000D01*
X126518000Y-73651000D02*
X123078000Y-73651000D01*
%TO.C,FB2*%
X166619422Y-99366000D02*
X167136578Y-99366000D01*
X166619422Y-100786000D02*
X167136578Y-100786000D01*
%TO.C,FB1*%
X167136578Y-104850000D02*
X166619422Y-104850000D01*
X167136578Y-103430000D02*
X166619422Y-103430000D01*
%TO.C,D2*%
X161440000Y-148170000D02*
X163680000Y-148170000D01*
X163680000Y-148170000D02*
X163680000Y-143930000D01*
X163680000Y-143930000D02*
X161440000Y-143930000D01*
X161440000Y-143930000D02*
X161440000Y-148170000D01*
X162560000Y-148820000D02*
X162560000Y-148170000D01*
X162560000Y-143280000D02*
X162560000Y-143930000D01*
X161440000Y-147450000D02*
X163680000Y-147450000D01*
X161440000Y-147330000D02*
X163680000Y-147330000D01*
X161440000Y-147570000D02*
X163680000Y-147570000D01*
D14*
%TO.C,D1*%
X134096000Y-111916000D02*
G75*
G03*
X134096000Y-111916000I-100000J0D01*
G01*
D12*
%TO.C,C4*%
X152395422Y-91746000D02*
X152912578Y-91746000D01*
X152395422Y-93166000D02*
X152912578Y-93166000D01*
%TO.C,C3*%
X148134000Y-91698578D02*
X148134000Y-91181422D01*
X149554000Y-91698578D02*
X149554000Y-91181422D01*
%TO.C,C2*%
X143418779Y-55374000D02*
X143093221Y-55374000D01*
X143418779Y-54354000D02*
X143093221Y-54354000D01*
%TO.C,C1*%
X147068000Y-87975221D02*
X147068000Y-88300779D01*
X146048000Y-87975221D02*
X146048000Y-88300779D01*
%TO.C,U2*%
D11*
X145288095Y-132802380D02*
X145288095Y-133611904D01*
X145335714Y-133707142D01*
X145383333Y-133754761D01*
X145478571Y-133802380D01*
X145669047Y-133802380D01*
X145764285Y-133754761D01*
X145811904Y-133707142D01*
X145859523Y-133611904D01*
X145859523Y-132802380D01*
X146288095Y-132897619D02*
X146335714Y-132850000D01*
X146430952Y-132802380D01*
X146669047Y-132802380D01*
X146764285Y-132850000D01*
X146811904Y-132897619D01*
X146859523Y-132992857D01*
X146859523Y-133088095D01*
X146811904Y-133230952D01*
X146240476Y-133802380D01*
X146859523Y-133802380D01*
%TO.C,K1*%
X146101904Y-137810380D02*
X146101904Y-136810380D01*
X146673333Y-137810380D02*
X146244761Y-137238952D01*
X146673333Y-136810380D02*
X146101904Y-137381809D01*
X147625714Y-137810380D02*
X147054285Y-137810380D01*
X147340000Y-137810380D02*
X147340000Y-136810380D01*
X147244761Y-136953238D01*
X147149523Y-137048476D01*
X147054285Y-137096095D01*
%TO.C,U5*%
X150368095Y-103592380D02*
X150368095Y-104401904D01*
X150415714Y-104497142D01*
X150463333Y-104544761D01*
X150558571Y-104592380D01*
X150749047Y-104592380D01*
X150844285Y-104544761D01*
X150891904Y-104497142D01*
X150939523Y-104401904D01*
X150939523Y-103592380D01*
X151891904Y-103592380D02*
X151415714Y-103592380D01*
X151368095Y-104068571D01*
X151415714Y-104020952D01*
X151510952Y-103973333D01*
X151749047Y-103973333D01*
X151844285Y-104020952D01*
X151891904Y-104068571D01*
X151939523Y-104163809D01*
X151939523Y-104401904D01*
X151891904Y-104497142D01*
X151844285Y-104544761D01*
X151749047Y-104592380D01*
X151510952Y-104592380D01*
X151415714Y-104544761D01*
X151368095Y-104497142D01*
%TO.C,U4*%
X138938095Y-164937380D02*
X138938095Y-165746904D01*
X138985714Y-165842142D01*
X139033333Y-165889761D01*
X139128571Y-165937380D01*
X139319047Y-165937380D01*
X139414285Y-165889761D01*
X139461904Y-165842142D01*
X139509523Y-165746904D01*
X139509523Y-164937380D01*
X140414285Y-165270714D02*
X140414285Y-165937380D01*
X140176190Y-164889761D02*
X139938095Y-165604047D01*
X140557142Y-165604047D01*
%TO.C,U3*%
X135890095Y-52534380D02*
X135890095Y-53343904D01*
X135937714Y-53439142D01*
X135985333Y-53486761D01*
X136080571Y-53534380D01*
X136271047Y-53534380D01*
X136366285Y-53486761D01*
X136413904Y-53439142D01*
X136461523Y-53343904D01*
X136461523Y-52534380D01*
X136842476Y-52534380D02*
X137461523Y-52534380D01*
X137128190Y-52915333D01*
X137271047Y-52915333D01*
X137366285Y-52962952D01*
X137413904Y-53010571D01*
X137461523Y-53105809D01*
X137461523Y-53343904D01*
X137413904Y-53439142D01*
X137366285Y-53486761D01*
X137271047Y-53534380D01*
X136985333Y-53534380D01*
X136890095Y-53486761D01*
X136842476Y-53439142D01*
%TO.C,U1*%
X150113904Y-87615619D02*
X150113904Y-86806095D01*
X150066285Y-86710857D01*
X150018666Y-86663238D01*
X149923428Y-86615619D01*
X149732952Y-86615619D01*
X149637714Y-86663238D01*
X149590095Y-86710857D01*
X149542476Y-86806095D01*
X149542476Y-87615619D01*
X148542476Y-86615619D02*
X149113904Y-86615619D01*
X148828190Y-86615619D02*
X148828190Y-87615619D01*
X148923428Y-87472761D01*
X149018666Y-87377523D01*
X149113904Y-87329904D01*
%TO.C,SW2*%
X133204761Y-128533333D02*
X133252380Y-128390476D01*
X133252380Y-128152380D01*
X133204761Y-128057142D01*
X133157142Y-128009523D01*
X133061904Y-127961904D01*
X132966666Y-127961904D01*
X132871428Y-128009523D01*
X132823809Y-128057142D01*
X132776190Y-128152380D01*
X132728571Y-128342857D01*
X132680952Y-128438095D01*
X132633333Y-128485714D01*
X132538095Y-128533333D01*
X132442857Y-128533333D01*
X132347619Y-128485714D01*
X132300000Y-128438095D01*
X132252380Y-128342857D01*
X132252380Y-128104761D01*
X132300000Y-127961904D01*
X132252380Y-127628571D02*
X133252380Y-127390476D01*
X132538095Y-127200000D01*
X133252380Y-127009523D01*
X132252380Y-126771428D01*
X132347619Y-126438095D02*
X132300000Y-126390476D01*
X132252380Y-126295238D01*
X132252380Y-126057142D01*
X132300000Y-125961904D01*
X132347619Y-125914285D01*
X132442857Y-125866666D01*
X132538095Y-125866666D01*
X132680952Y-125914285D01*
X133252380Y-126485714D01*
X133252380Y-125866666D01*
%TO.C,SW1*%
X164766666Y-80604761D02*
X164909523Y-80652380D01*
X165147619Y-80652380D01*
X165242857Y-80604761D01*
X165290476Y-80557142D01*
X165338095Y-80461904D01*
X165338095Y-80366666D01*
X165290476Y-80271428D01*
X165242857Y-80223809D01*
X165147619Y-80176190D01*
X164957142Y-80128571D01*
X164861904Y-80080952D01*
X164814285Y-80033333D01*
X164766666Y-79938095D01*
X164766666Y-79842857D01*
X164814285Y-79747619D01*
X164861904Y-79700000D01*
X164957142Y-79652380D01*
X165195238Y-79652380D01*
X165338095Y-79700000D01*
X165671428Y-79652380D02*
X165909523Y-80652380D01*
X166100000Y-79938095D01*
X166290476Y-80652380D01*
X166528571Y-79652380D01*
X167433333Y-80652380D02*
X166861904Y-80652380D01*
X167147619Y-80652380D02*
X167147619Y-79652380D01*
X167052380Y-79795238D01*
X166957142Y-79890476D01*
X166861904Y-79938095D01*
%TO.C,R16*%
X161409142Y-97226380D02*
X161075809Y-96750190D01*
X160837714Y-97226380D02*
X160837714Y-96226380D01*
X161218666Y-96226380D01*
X161313904Y-96274000D01*
X161361523Y-96321619D01*
X161409142Y-96416857D01*
X161409142Y-96559714D01*
X161361523Y-96654952D01*
X161313904Y-96702571D01*
X161218666Y-96750190D01*
X160837714Y-96750190D01*
X162361523Y-97226380D02*
X161790095Y-97226380D01*
X162075809Y-97226380D02*
X162075809Y-96226380D01*
X161980571Y-96369238D01*
X161885333Y-96464476D01*
X161790095Y-96512095D01*
X163218666Y-96226380D02*
X163028190Y-96226380D01*
X162932952Y-96274000D01*
X162885333Y-96321619D01*
X162790095Y-96464476D01*
X162742476Y-96654952D01*
X162742476Y-97035904D01*
X162790095Y-97131142D01*
X162837714Y-97178761D01*
X162932952Y-97226380D01*
X163123428Y-97226380D01*
X163218666Y-97178761D01*
X163266285Y-97131142D01*
X163313904Y-97035904D01*
X163313904Y-96797809D01*
X163266285Y-96702571D01*
X163218666Y-96654952D01*
X163123428Y-96607333D01*
X162932952Y-96607333D01*
X162837714Y-96654952D01*
X162790095Y-96702571D01*
X162742476Y-96797809D01*
%TO.C,R15*%
X162425142Y-106022380D02*
X162091809Y-105546190D01*
X161853714Y-106022380D02*
X161853714Y-105022380D01*
X162234666Y-105022380D01*
X162329904Y-105070000D01*
X162377523Y-105117619D01*
X162425142Y-105212857D01*
X162425142Y-105355714D01*
X162377523Y-105450952D01*
X162329904Y-105498571D01*
X162234666Y-105546190D01*
X161853714Y-105546190D01*
X163377523Y-106022380D02*
X162806095Y-106022380D01*
X163091809Y-106022380D02*
X163091809Y-105022380D01*
X162996571Y-105165238D01*
X162901333Y-105260476D01*
X162806095Y-105308095D01*
X164282285Y-105022380D02*
X163806095Y-105022380D01*
X163758476Y-105498571D01*
X163806095Y-105450952D01*
X163901333Y-105403333D01*
X164139428Y-105403333D01*
X164234666Y-105450952D01*
X164282285Y-105498571D01*
X164329904Y-105593809D01*
X164329904Y-105831904D01*
X164282285Y-105927142D01*
X164234666Y-105974761D01*
X164139428Y-106022380D01*
X163901333Y-106022380D01*
X163806095Y-105974761D01*
X163758476Y-105927142D01*
%TO.C,R14*%
X132199142Y-132372380D02*
X131865809Y-131896190D01*
X131627714Y-132372380D02*
X131627714Y-131372380D01*
X132008666Y-131372380D01*
X132103904Y-131420000D01*
X132151523Y-131467619D01*
X132199142Y-131562857D01*
X132199142Y-131705714D01*
X132151523Y-131800952D01*
X132103904Y-131848571D01*
X132008666Y-131896190D01*
X131627714Y-131896190D01*
X133151523Y-132372380D02*
X132580095Y-132372380D01*
X132865809Y-132372380D02*
X132865809Y-131372380D01*
X132770571Y-131515238D01*
X132675333Y-131610476D01*
X132580095Y-131658095D01*
X134008666Y-131705714D02*
X134008666Y-132372380D01*
X133770571Y-131324761D02*
X133532476Y-132039047D01*
X134151523Y-132039047D01*
%TO.C,R13*%
X154470380Y-113672857D02*
X153994190Y-114006190D01*
X154470380Y-114244285D02*
X153470380Y-114244285D01*
X153470380Y-113863333D01*
X153518000Y-113768095D01*
X153565619Y-113720476D01*
X153660857Y-113672857D01*
X153803714Y-113672857D01*
X153898952Y-113720476D01*
X153946571Y-113768095D01*
X153994190Y-113863333D01*
X153994190Y-114244285D01*
X154470380Y-112720476D02*
X154470380Y-113291904D01*
X154470380Y-113006190D02*
X153470380Y-113006190D01*
X153613238Y-113101428D01*
X153708476Y-113196666D01*
X153756095Y-113291904D01*
X153470380Y-112387142D02*
X153470380Y-111768095D01*
X153851333Y-112101428D01*
X153851333Y-111958571D01*
X153898952Y-111863333D01*
X153946571Y-111815714D01*
X154041809Y-111768095D01*
X154279904Y-111768095D01*
X154375142Y-111815714D01*
X154422761Y-111863333D01*
X154470380Y-111958571D01*
X154470380Y-112244285D01*
X154422761Y-112339523D01*
X154375142Y-112387142D01*
%TO.C,R12*%
X151676380Y-113672857D02*
X151200190Y-114006190D01*
X151676380Y-114244285D02*
X150676380Y-114244285D01*
X150676380Y-113863333D01*
X150724000Y-113768095D01*
X150771619Y-113720476D01*
X150866857Y-113672857D01*
X151009714Y-113672857D01*
X151104952Y-113720476D01*
X151152571Y-113768095D01*
X151200190Y-113863333D01*
X151200190Y-114244285D01*
X151676380Y-112720476D02*
X151676380Y-113291904D01*
X151676380Y-113006190D02*
X150676380Y-113006190D01*
X150819238Y-113101428D01*
X150914476Y-113196666D01*
X150962095Y-113291904D01*
X150771619Y-112339523D02*
X150724000Y-112291904D01*
X150676380Y-112196666D01*
X150676380Y-111958571D01*
X150724000Y-111863333D01*
X150771619Y-111815714D01*
X150866857Y-111768095D01*
X150962095Y-111768095D01*
X151104952Y-111815714D01*
X151676380Y-112387142D01*
X151676380Y-111768095D01*
%TO.C,R11*%
X138628380Y-159646857D02*
X138152190Y-159980190D01*
X138628380Y-160218285D02*
X137628380Y-160218285D01*
X137628380Y-159837333D01*
X137676000Y-159742095D01*
X137723619Y-159694476D01*
X137818857Y-159646857D01*
X137961714Y-159646857D01*
X138056952Y-159694476D01*
X138104571Y-159742095D01*
X138152190Y-159837333D01*
X138152190Y-160218285D01*
X138628380Y-158694476D02*
X138628380Y-159265904D01*
X138628380Y-158980190D02*
X137628380Y-158980190D01*
X137771238Y-159075428D01*
X137866476Y-159170666D01*
X137914095Y-159265904D01*
X138628380Y-157742095D02*
X138628380Y-158313523D01*
X138628380Y-158027809D02*
X137628380Y-158027809D01*
X137771238Y-158123047D01*
X137866476Y-158218285D01*
X137914095Y-158313523D01*
%TO.C,R10*%
X131982380Y-48742857D02*
X131506190Y-49076190D01*
X131982380Y-49314285D02*
X130982380Y-49314285D01*
X130982380Y-48933333D01*
X131030000Y-48838095D01*
X131077619Y-48790476D01*
X131172857Y-48742857D01*
X131315714Y-48742857D01*
X131410952Y-48790476D01*
X131458571Y-48838095D01*
X131506190Y-48933333D01*
X131506190Y-49314285D01*
X131982380Y-47790476D02*
X131982380Y-48361904D01*
X131982380Y-48076190D02*
X130982380Y-48076190D01*
X131125238Y-48171428D01*
X131220476Y-48266666D01*
X131268095Y-48361904D01*
X130982380Y-47171428D02*
X130982380Y-47076190D01*
X131030000Y-46980952D01*
X131077619Y-46933333D01*
X131172857Y-46885714D01*
X131363333Y-46838095D01*
X131601428Y-46838095D01*
X131791904Y-46885714D01*
X131887142Y-46933333D01*
X131934761Y-46980952D01*
X131982380Y-47076190D01*
X131982380Y-47171428D01*
X131934761Y-47266666D01*
X131887142Y-47314285D01*
X131791904Y-47361904D01*
X131601428Y-47409523D01*
X131363333Y-47409523D01*
X131172857Y-47361904D01*
X131077619Y-47314285D01*
X131030000Y-47266666D01*
X130982380Y-47171428D01*
%TO.C,R9*%
X165949333Y-139042380D02*
X165616000Y-138566190D01*
X165377904Y-139042380D02*
X165377904Y-138042380D01*
X165758857Y-138042380D01*
X165854095Y-138090000D01*
X165901714Y-138137619D01*
X165949333Y-138232857D01*
X165949333Y-138375714D01*
X165901714Y-138470952D01*
X165854095Y-138518571D01*
X165758857Y-138566190D01*
X165377904Y-138566190D01*
X166425523Y-139042380D02*
X166616000Y-139042380D01*
X166711238Y-138994761D01*
X166758857Y-138947142D01*
X166854095Y-138804285D01*
X166901714Y-138613809D01*
X166901714Y-138232857D01*
X166854095Y-138137619D01*
X166806476Y-138090000D01*
X166711238Y-138042380D01*
X166520761Y-138042380D01*
X166425523Y-138090000D01*
X166377904Y-138137619D01*
X166330285Y-138232857D01*
X166330285Y-138470952D01*
X166377904Y-138566190D01*
X166425523Y-138613809D01*
X166520761Y-138661428D01*
X166711238Y-138661428D01*
X166806476Y-138613809D01*
X166854095Y-138566190D01*
X166901714Y-138470952D01*
%TO.C,R8*%
X144216380Y-121578666D02*
X143740190Y-121912000D01*
X144216380Y-122150095D02*
X143216380Y-122150095D01*
X143216380Y-121769142D01*
X143264000Y-121673904D01*
X143311619Y-121626285D01*
X143406857Y-121578666D01*
X143549714Y-121578666D01*
X143644952Y-121626285D01*
X143692571Y-121673904D01*
X143740190Y-121769142D01*
X143740190Y-122150095D01*
X143644952Y-121007238D02*
X143597333Y-121102476D01*
X143549714Y-121150095D01*
X143454476Y-121197714D01*
X143406857Y-121197714D01*
X143311619Y-121150095D01*
X143264000Y-121102476D01*
X143216380Y-121007238D01*
X143216380Y-120816761D01*
X143264000Y-120721523D01*
X143311619Y-120673904D01*
X143406857Y-120626285D01*
X143454476Y-120626285D01*
X143549714Y-120673904D01*
X143597333Y-120721523D01*
X143644952Y-120816761D01*
X143644952Y-121007238D01*
X143692571Y-121102476D01*
X143740190Y-121150095D01*
X143835428Y-121197714D01*
X144025904Y-121197714D01*
X144121142Y-121150095D01*
X144168761Y-121102476D01*
X144216380Y-121007238D01*
X144216380Y-120816761D01*
X144168761Y-120721523D01*
X144121142Y-120673904D01*
X144025904Y-120626285D01*
X143835428Y-120626285D01*
X143740190Y-120673904D01*
X143692571Y-120721523D01*
X143644952Y-120816761D01*
%TO.C,R7*%
X144216380Y-115736666D02*
X143740190Y-116070000D01*
X144216380Y-116308095D02*
X143216380Y-116308095D01*
X143216380Y-115927142D01*
X143264000Y-115831904D01*
X143311619Y-115784285D01*
X143406857Y-115736666D01*
X143549714Y-115736666D01*
X143644952Y-115784285D01*
X143692571Y-115831904D01*
X143740190Y-115927142D01*
X143740190Y-116308095D01*
X143216380Y-115403333D02*
X143216380Y-114736666D01*
X144216380Y-115165238D01*
%TO.C,R6*%
X144216380Y-110656666D02*
X143740190Y-110990000D01*
X144216380Y-111228095D02*
X143216380Y-111228095D01*
X143216380Y-110847142D01*
X143264000Y-110751904D01*
X143311619Y-110704285D01*
X143406857Y-110656666D01*
X143549714Y-110656666D01*
X143644952Y-110704285D01*
X143692571Y-110751904D01*
X143740190Y-110847142D01*
X143740190Y-111228095D01*
X143216380Y-109799523D02*
X143216380Y-109990000D01*
X143264000Y-110085238D01*
X143311619Y-110132857D01*
X143454476Y-110228095D01*
X143644952Y-110275714D01*
X144025904Y-110275714D01*
X144121142Y-110228095D01*
X144168761Y-110180476D01*
X144216380Y-110085238D01*
X144216380Y-109894761D01*
X144168761Y-109799523D01*
X144121142Y-109751904D01*
X144025904Y-109704285D01*
X143787809Y-109704285D01*
X143692571Y-109751904D01*
X143644952Y-109799523D01*
X143597333Y-109894761D01*
X143597333Y-110085238D01*
X143644952Y-110180476D01*
X143692571Y-110228095D01*
X143787809Y-110275714D01*
%TO.C,R5*%
X135533333Y-119852380D02*
X135200000Y-119376190D01*
X134961904Y-119852380D02*
X134961904Y-118852380D01*
X135342857Y-118852380D01*
X135438095Y-118900000D01*
X135485714Y-118947619D01*
X135533333Y-119042857D01*
X135533333Y-119185714D01*
X135485714Y-119280952D01*
X135438095Y-119328571D01*
X135342857Y-119376190D01*
X134961904Y-119376190D01*
X136438095Y-118852380D02*
X135961904Y-118852380D01*
X135914285Y-119328571D01*
X135961904Y-119280952D01*
X136057142Y-119233333D01*
X136295238Y-119233333D01*
X136390476Y-119280952D01*
X136438095Y-119328571D01*
X136485714Y-119423809D01*
X136485714Y-119661904D01*
X136438095Y-119757142D01*
X136390476Y-119804761D01*
X136295238Y-119852380D01*
X136057142Y-119852380D01*
X135961904Y-119804761D01*
X135914285Y-119757142D01*
%TO.C,R4*%
X131102380Y-110910666D02*
X130626190Y-111244000D01*
X131102380Y-111482095D02*
X130102380Y-111482095D01*
X130102380Y-111101142D01*
X130150000Y-111005904D01*
X130197619Y-110958285D01*
X130292857Y-110910666D01*
X130435714Y-110910666D01*
X130530952Y-110958285D01*
X130578571Y-111005904D01*
X130626190Y-111101142D01*
X130626190Y-111482095D01*
X130435714Y-110053523D02*
X131102380Y-110053523D01*
X130054761Y-110291619D02*
X130769047Y-110529714D01*
X130769047Y-109910666D01*
%TO.C,R3*%
X134453333Y-109258380D02*
X134120000Y-108782190D01*
X133881904Y-109258380D02*
X133881904Y-108258380D01*
X134262857Y-108258380D01*
X134358095Y-108306000D01*
X134405714Y-108353619D01*
X134453333Y-108448857D01*
X134453333Y-108591714D01*
X134405714Y-108686952D01*
X134358095Y-108734571D01*
X134262857Y-108782190D01*
X133881904Y-108782190D01*
X134786666Y-108258380D02*
X135405714Y-108258380D01*
X135072380Y-108639333D01*
X135215238Y-108639333D01*
X135310476Y-108686952D01*
X135358095Y-108734571D01*
X135405714Y-108829809D01*
X135405714Y-109067904D01*
X135358095Y-109163142D01*
X135310476Y-109210761D01*
X135215238Y-109258380D01*
X134929523Y-109258380D01*
X134834285Y-109210761D01*
X134786666Y-109163142D01*
%TO.C,R2*%
X129324380Y-55538666D02*
X128848190Y-55872000D01*
X129324380Y-56110095D02*
X128324380Y-56110095D01*
X128324380Y-55729142D01*
X128372000Y-55633904D01*
X128419619Y-55586285D01*
X128514857Y-55538666D01*
X128657714Y-55538666D01*
X128752952Y-55586285D01*
X128800571Y-55633904D01*
X128848190Y-55729142D01*
X128848190Y-56110095D01*
X128419619Y-55157714D02*
X128372000Y-55110095D01*
X128324380Y-55014857D01*
X128324380Y-54776761D01*
X128372000Y-54681523D01*
X128419619Y-54633904D01*
X128514857Y-54586285D01*
X128610095Y-54586285D01*
X128752952Y-54633904D01*
X129324380Y-55205333D01*
X129324380Y-54586285D01*
%TO.C,R1*%
X144613333Y-85034380D02*
X144280000Y-84558190D01*
X144041904Y-85034380D02*
X144041904Y-84034380D01*
X144422857Y-84034380D01*
X144518095Y-84082000D01*
X144565714Y-84129619D01*
X144613333Y-84224857D01*
X144613333Y-84367714D01*
X144565714Y-84462952D01*
X144518095Y-84510571D01*
X144422857Y-84558190D01*
X144041904Y-84558190D01*
X145565714Y-85034380D02*
X144994285Y-85034380D01*
X145280000Y-85034380D02*
X145280000Y-84034380D01*
X145184761Y-84177238D01*
X145089523Y-84272476D01*
X144994285Y-84320095D01*
%TO.C,Q9*%
X165099619Y-101187238D02*
X165052000Y-101282476D01*
X164956761Y-101377714D01*
X164813904Y-101520571D01*
X164766285Y-101615809D01*
X164766285Y-101711047D01*
X165004380Y-101663428D02*
X164956761Y-101758666D01*
X164861523Y-101853904D01*
X164671047Y-101901523D01*
X164337714Y-101901523D01*
X164147238Y-101853904D01*
X164052000Y-101758666D01*
X164004380Y-101663428D01*
X164004380Y-101472952D01*
X164052000Y-101377714D01*
X164147238Y-101282476D01*
X164337714Y-101234857D01*
X164671047Y-101234857D01*
X164861523Y-101282476D01*
X164956761Y-101377714D01*
X165004380Y-101472952D01*
X165004380Y-101663428D01*
X165004380Y-100758666D02*
X165004380Y-100568190D01*
X164956761Y-100472952D01*
X164909142Y-100425333D01*
X164766285Y-100330095D01*
X164575809Y-100282476D01*
X164194857Y-100282476D01*
X164099619Y-100330095D01*
X164052000Y-100377714D01*
X164004380Y-100472952D01*
X164004380Y-100663428D01*
X164052000Y-100758666D01*
X164099619Y-100806285D01*
X164194857Y-100853904D01*
X164432952Y-100853904D01*
X164528190Y-100806285D01*
X164575809Y-100758666D01*
X164623428Y-100663428D01*
X164623428Y-100472952D01*
X164575809Y-100377714D01*
X164528190Y-100330095D01*
X164432952Y-100282476D01*
%TO.C,Q8*%
X169163619Y-141065238D02*
X169116000Y-141160476D01*
X169020761Y-141255714D01*
X168877904Y-141398571D01*
X168830285Y-141493809D01*
X168830285Y-141589047D01*
X169068380Y-141541428D02*
X169020761Y-141636666D01*
X168925523Y-141731904D01*
X168735047Y-141779523D01*
X168401714Y-141779523D01*
X168211238Y-141731904D01*
X168116000Y-141636666D01*
X168068380Y-141541428D01*
X168068380Y-141350952D01*
X168116000Y-141255714D01*
X168211238Y-141160476D01*
X168401714Y-141112857D01*
X168735047Y-141112857D01*
X168925523Y-141160476D01*
X169020761Y-141255714D01*
X169068380Y-141350952D01*
X169068380Y-141541428D01*
X168496952Y-140541428D02*
X168449333Y-140636666D01*
X168401714Y-140684285D01*
X168306476Y-140731904D01*
X168258857Y-140731904D01*
X168163619Y-140684285D01*
X168116000Y-140636666D01*
X168068380Y-140541428D01*
X168068380Y-140350952D01*
X168116000Y-140255714D01*
X168163619Y-140208095D01*
X168258857Y-140160476D01*
X168306476Y-140160476D01*
X168401714Y-140208095D01*
X168449333Y-140255714D01*
X168496952Y-140350952D01*
X168496952Y-140541428D01*
X168544571Y-140636666D01*
X168592190Y-140684285D01*
X168687428Y-140731904D01*
X168877904Y-140731904D01*
X168973142Y-140684285D01*
X169020761Y-140636666D01*
X169068380Y-140541428D01*
X169068380Y-140350952D01*
X169020761Y-140255714D01*
X168973142Y-140208095D01*
X168877904Y-140160476D01*
X168687428Y-140160476D01*
X168592190Y-140208095D01*
X168544571Y-140255714D01*
X168496952Y-140350952D01*
%TO.C,Q7*%
X142144761Y-104687619D02*
X142049523Y-104640000D01*
X141954285Y-104544761D01*
X141811428Y-104401904D01*
X141716190Y-104354285D01*
X141620952Y-104354285D01*
X141668571Y-104592380D02*
X141573333Y-104544761D01*
X141478095Y-104449523D01*
X141430476Y-104259047D01*
X141430476Y-103925714D01*
X141478095Y-103735238D01*
X141573333Y-103640000D01*
X141668571Y-103592380D01*
X141859047Y-103592380D01*
X141954285Y-103640000D01*
X142049523Y-103735238D01*
X142097142Y-103925714D01*
X142097142Y-104259047D01*
X142049523Y-104449523D01*
X141954285Y-104544761D01*
X141859047Y-104592380D01*
X141668571Y-104592380D01*
X142430476Y-103592380D02*
X143097142Y-103592380D01*
X142668571Y-104592380D01*
%TO.C,Q6*%
X139350761Y-124459619D02*
X139255523Y-124412000D01*
X139160285Y-124316761D01*
X139017428Y-124173904D01*
X138922190Y-124126285D01*
X138826952Y-124126285D01*
X138874571Y-124364380D02*
X138779333Y-124316761D01*
X138684095Y-124221523D01*
X138636476Y-124031047D01*
X138636476Y-123697714D01*
X138684095Y-123507238D01*
X138779333Y-123412000D01*
X138874571Y-123364380D01*
X139065047Y-123364380D01*
X139160285Y-123412000D01*
X139255523Y-123507238D01*
X139303142Y-123697714D01*
X139303142Y-124031047D01*
X139255523Y-124221523D01*
X139160285Y-124316761D01*
X139065047Y-124364380D01*
X138874571Y-124364380D01*
X140160285Y-123364380D02*
X139969809Y-123364380D01*
X139874571Y-123412000D01*
X139826952Y-123459619D01*
X139731714Y-123602476D01*
X139684095Y-123792952D01*
X139684095Y-124173904D01*
X139731714Y-124269142D01*
X139779333Y-124316761D01*
X139874571Y-124364380D01*
X140065047Y-124364380D01*
X140160285Y-124316761D01*
X140207904Y-124269142D01*
X140255523Y-124173904D01*
X140255523Y-123935809D01*
X140207904Y-123840571D01*
X140160285Y-123792952D01*
X140065047Y-123745333D01*
X139874571Y-123745333D01*
X139779333Y-123792952D01*
X139731714Y-123840571D01*
X139684095Y-123935809D01*
%TO.C,Q5*%
X139350761Y-118617619D02*
X139255523Y-118570000D01*
X139160285Y-118474761D01*
X139017428Y-118331904D01*
X138922190Y-118284285D01*
X138826952Y-118284285D01*
X138874571Y-118522380D02*
X138779333Y-118474761D01*
X138684095Y-118379523D01*
X138636476Y-118189047D01*
X138636476Y-117855714D01*
X138684095Y-117665238D01*
X138779333Y-117570000D01*
X138874571Y-117522380D01*
X139065047Y-117522380D01*
X139160285Y-117570000D01*
X139255523Y-117665238D01*
X139303142Y-117855714D01*
X139303142Y-118189047D01*
X139255523Y-118379523D01*
X139160285Y-118474761D01*
X139065047Y-118522380D01*
X138874571Y-118522380D01*
X140207904Y-117522380D02*
X139731714Y-117522380D01*
X139684095Y-117998571D01*
X139731714Y-117950952D01*
X139826952Y-117903333D01*
X140065047Y-117903333D01*
X140160285Y-117950952D01*
X140207904Y-117998571D01*
X140255523Y-118093809D01*
X140255523Y-118331904D01*
X140207904Y-118427142D01*
X140160285Y-118474761D01*
X140065047Y-118522380D01*
X139826952Y-118522380D01*
X139731714Y-118474761D01*
X139684095Y-118427142D01*
%TO.C,Q4*%
X139096761Y-113537619D02*
X139001523Y-113490000D01*
X138906285Y-113394761D01*
X138763428Y-113251904D01*
X138668190Y-113204285D01*
X138572952Y-113204285D01*
X138620571Y-113442380D02*
X138525333Y-113394761D01*
X138430095Y-113299523D01*
X138382476Y-113109047D01*
X138382476Y-112775714D01*
X138430095Y-112585238D01*
X138525333Y-112490000D01*
X138620571Y-112442380D01*
X138811047Y-112442380D01*
X138906285Y-112490000D01*
X139001523Y-112585238D01*
X139049142Y-112775714D01*
X139049142Y-113109047D01*
X139001523Y-113299523D01*
X138906285Y-113394761D01*
X138811047Y-113442380D01*
X138620571Y-113442380D01*
X139906285Y-112775714D02*
X139906285Y-113442380D01*
X139668190Y-112394761D02*
X139430095Y-113109047D01*
X140049142Y-113109047D01*
%TO.C,Q3*%
X153241619Y-66897238D02*
X153194000Y-66992476D01*
X153098761Y-67087714D01*
X152955904Y-67230571D01*
X152908285Y-67325809D01*
X152908285Y-67421047D01*
X153146380Y-67373428D02*
X153098761Y-67468666D01*
X153003523Y-67563904D01*
X152813047Y-67611523D01*
X152479714Y-67611523D01*
X152289238Y-67563904D01*
X152194000Y-67468666D01*
X152146380Y-67373428D01*
X152146380Y-67182952D01*
X152194000Y-67087714D01*
X152289238Y-66992476D01*
X152479714Y-66944857D01*
X152813047Y-66944857D01*
X153003523Y-66992476D01*
X153098761Y-67087714D01*
X153146380Y-67182952D01*
X153146380Y-67373428D01*
X152146380Y-66611523D02*
X152146380Y-65992476D01*
X152527333Y-66325809D01*
X152527333Y-66182952D01*
X152574952Y-66087714D01*
X152622571Y-66040095D01*
X152717809Y-65992476D01*
X152955904Y-65992476D01*
X153051142Y-66040095D01*
X153098761Y-66087714D01*
X153146380Y-66182952D01*
X153146380Y-66468666D01*
X153098761Y-66563904D01*
X153051142Y-66611523D01*
%TO.C,Q2*%
X147653619Y-66643238D02*
X147606000Y-66738476D01*
X147510761Y-66833714D01*
X147367904Y-66976571D01*
X147320285Y-67071809D01*
X147320285Y-67167047D01*
X147558380Y-67119428D02*
X147510761Y-67214666D01*
X147415523Y-67309904D01*
X147225047Y-67357523D01*
X146891714Y-67357523D01*
X146701238Y-67309904D01*
X146606000Y-67214666D01*
X146558380Y-67119428D01*
X146558380Y-66928952D01*
X146606000Y-66833714D01*
X146701238Y-66738476D01*
X146891714Y-66690857D01*
X147225047Y-66690857D01*
X147415523Y-66738476D01*
X147510761Y-66833714D01*
X147558380Y-66928952D01*
X147558380Y-67119428D01*
X146653619Y-66309904D02*
X146606000Y-66262285D01*
X146558380Y-66167047D01*
X146558380Y-65928952D01*
X146606000Y-65833714D01*
X146653619Y-65786095D01*
X146748857Y-65738476D01*
X146844095Y-65738476D01*
X146986952Y-65786095D01*
X147558380Y-66357523D01*
X147558380Y-65738476D01*
%TO.C,Q1*%
X158321619Y-66897238D02*
X158274000Y-66992476D01*
X158178761Y-67087714D01*
X158035904Y-67230571D01*
X157988285Y-67325809D01*
X157988285Y-67421047D01*
X158226380Y-67373428D02*
X158178761Y-67468666D01*
X158083523Y-67563904D01*
X157893047Y-67611523D01*
X157559714Y-67611523D01*
X157369238Y-67563904D01*
X157274000Y-67468666D01*
X157226380Y-67373428D01*
X157226380Y-67182952D01*
X157274000Y-67087714D01*
X157369238Y-66992476D01*
X157559714Y-66944857D01*
X157893047Y-66944857D01*
X158083523Y-66992476D01*
X158178761Y-67087714D01*
X158226380Y-67182952D01*
X158226380Y-67373428D01*
X158226380Y-65992476D02*
X158226380Y-66563904D01*
X158226380Y-66278190D02*
X157226380Y-66278190D01*
X157369238Y-66373428D01*
X157464476Y-66468666D01*
X157512095Y-66563904D01*
%TO.C,J7*%
X173966666Y-101852380D02*
X173966666Y-102566666D01*
X173919047Y-102709523D01*
X173823809Y-102804761D01*
X173680952Y-102852380D01*
X173585714Y-102852380D01*
X174347619Y-101852380D02*
X175014285Y-101852380D01*
X174585714Y-102852380D01*
%TO.C,J6*%
X144696380Y-109807333D02*
X145410666Y-109807333D01*
X145553523Y-109854952D01*
X145648761Y-109950190D01*
X145696380Y-110093047D01*
X145696380Y-110188285D01*
X144696380Y-108902571D02*
X144696380Y-109093047D01*
X144744000Y-109188285D01*
X144791619Y-109235904D01*
X144934476Y-109331142D01*
X145124952Y-109378761D01*
X145505904Y-109378761D01*
X145601142Y-109331142D01*
X145648761Y-109283523D01*
X145696380Y-109188285D01*
X145696380Y-108997809D01*
X145648761Y-108902571D01*
X145601142Y-108854952D01*
X145505904Y-108807333D01*
X145267809Y-108807333D01*
X145172571Y-108854952D01*
X145124952Y-108902571D01*
X145077333Y-108997809D01*
X145077333Y-109188285D01*
X145124952Y-109283523D01*
X145172571Y-109331142D01*
X145267809Y-109378761D01*
%TO.C,J5*%
X127752380Y-162933333D02*
X128466666Y-162933333D01*
X128609523Y-162980952D01*
X128704761Y-163076190D01*
X128752380Y-163219047D01*
X128752380Y-163314285D01*
X127752380Y-161980952D02*
X127752380Y-162457142D01*
X128228571Y-162504761D01*
X128180952Y-162457142D01*
X128133333Y-162361904D01*
X128133333Y-162123809D01*
X128180952Y-162028571D01*
X128228571Y-161980952D01*
X128323809Y-161933333D01*
X128561904Y-161933333D01*
X128657142Y-161980952D01*
X128704761Y-162028571D01*
X128752380Y-162123809D01*
X128752380Y-162361904D01*
X128704761Y-162457142D01*
X128657142Y-162504761D01*
%TO.C,J4*%
X126252380Y-146733333D02*
X126966666Y-146733333D01*
X127109523Y-146780952D01*
X127204761Y-146876190D01*
X127252380Y-147019047D01*
X127252380Y-147114285D01*
X126585714Y-145828571D02*
X127252380Y-145828571D01*
X126204761Y-146066666D02*
X126919047Y-146304761D01*
X126919047Y-145685714D01*
%TO.C,J3*%
X121942380Y-99901333D02*
X122656666Y-99901333D01*
X122799523Y-99948952D01*
X122894761Y-100044190D01*
X122942380Y-100187047D01*
X122942380Y-100282285D01*
X121942380Y-99520380D02*
X121942380Y-98901333D01*
X122323333Y-99234666D01*
X122323333Y-99091809D01*
X122370952Y-98996571D01*
X122418571Y-98948952D01*
X122513809Y-98901333D01*
X122751904Y-98901333D01*
X122847142Y-98948952D01*
X122894761Y-98996571D01*
X122942380Y-99091809D01*
X122942380Y-99377523D01*
X122894761Y-99472761D01*
X122847142Y-99520380D01*
%TO.C,J2*%
X154766666Y-51952380D02*
X154766666Y-52666666D01*
X154719047Y-52809523D01*
X154623809Y-52904761D01*
X154480952Y-52952380D01*
X154385714Y-52952380D01*
X155195238Y-52047619D02*
X155242857Y-52000000D01*
X155338095Y-51952380D01*
X155576190Y-51952380D01*
X155671428Y-52000000D01*
X155719047Y-52047619D01*
X155766666Y-52142857D01*
X155766666Y-52238095D01*
X155719047Y-52380952D01*
X155147619Y-52952380D01*
X155766666Y-52952380D01*
%TO.C,J1*%
X130752380Y-81994333D02*
X131466666Y-81994333D01*
X131609523Y-82041952D01*
X131704761Y-82137190D01*
X131752380Y-82280047D01*
X131752380Y-82375285D01*
X131752380Y-80994333D02*
X131752380Y-81565761D01*
X131752380Y-81280047D02*
X130752380Y-81280047D01*
X130895238Y-81375285D01*
X130990476Y-81470523D01*
X131038095Y-81565761D01*
%TO.C,FB2*%
X166044666Y-98354571D02*
X165711333Y-98354571D01*
X165711333Y-98878380D02*
X165711333Y-97878380D01*
X166187523Y-97878380D01*
X166901809Y-98354571D02*
X167044666Y-98402190D01*
X167092285Y-98449809D01*
X167139904Y-98545047D01*
X167139904Y-98687904D01*
X167092285Y-98783142D01*
X167044666Y-98830761D01*
X166949428Y-98878380D01*
X166568476Y-98878380D01*
X166568476Y-97878380D01*
X166901809Y-97878380D01*
X166997047Y-97926000D01*
X167044666Y-97973619D01*
X167092285Y-98068857D01*
X167092285Y-98164095D01*
X167044666Y-98259333D01*
X166997047Y-98306952D01*
X166901809Y-98354571D01*
X166568476Y-98354571D01*
X167520857Y-97973619D02*
X167568476Y-97926000D01*
X167663714Y-97878380D01*
X167901809Y-97878380D01*
X167997047Y-97926000D01*
X168044666Y-97973619D01*
X168092285Y-98068857D01*
X168092285Y-98164095D01*
X168044666Y-98306952D01*
X167473238Y-98878380D01*
X168092285Y-98878380D01*
%TO.C,FB1*%
X166044666Y-105718571D02*
X165711333Y-105718571D01*
X165711333Y-106242380D02*
X165711333Y-105242380D01*
X166187523Y-105242380D01*
X166901809Y-105718571D02*
X167044666Y-105766190D01*
X167092285Y-105813809D01*
X167139904Y-105909047D01*
X167139904Y-106051904D01*
X167092285Y-106147142D01*
X167044666Y-106194761D01*
X166949428Y-106242380D01*
X166568476Y-106242380D01*
X166568476Y-105242380D01*
X166901809Y-105242380D01*
X166997047Y-105290000D01*
X167044666Y-105337619D01*
X167092285Y-105432857D01*
X167092285Y-105528095D01*
X167044666Y-105623333D01*
X166997047Y-105670952D01*
X166901809Y-105718571D01*
X166568476Y-105718571D01*
X168092285Y-106242380D02*
X167520857Y-106242380D01*
X167806571Y-106242380D02*
X167806571Y-105242380D01*
X167711333Y-105385238D01*
X167616095Y-105480476D01*
X167520857Y-105528095D01*
%TO.C,D2*%
X160892380Y-146788095D02*
X159892380Y-146788095D01*
X159892380Y-146550000D01*
X159940000Y-146407142D01*
X160035238Y-146311904D01*
X160130476Y-146264285D01*
X160320952Y-146216666D01*
X160463809Y-146216666D01*
X160654285Y-146264285D01*
X160749523Y-146311904D01*
X160844761Y-146407142D01*
X160892380Y-146550000D01*
X160892380Y-146788095D01*
X159987619Y-145835714D02*
X159940000Y-145788095D01*
X159892380Y-145692857D01*
X159892380Y-145454761D01*
X159940000Y-145359523D01*
X159987619Y-145311904D01*
X160082857Y-145264285D01*
X160178095Y-145264285D01*
X160320952Y-145311904D01*
X160892380Y-145883333D01*
X160892380Y-145264285D01*
X161212380Y-150121904D02*
X160212380Y-150121904D01*
X161212380Y-149550476D02*
X160640952Y-149979047D01*
X160212380Y-149550476D02*
X160783809Y-150121904D01*
%TO.C,D1*%
X136248380Y-116054095D02*
X135248380Y-116054095D01*
X135248380Y-115816000D01*
X135296000Y-115673142D01*
X135391238Y-115577904D01*
X135486476Y-115530285D01*
X135676952Y-115482666D01*
X135819809Y-115482666D01*
X136010285Y-115530285D01*
X136105523Y-115577904D01*
X136200761Y-115673142D01*
X136248380Y-115816000D01*
X136248380Y-116054095D01*
X136248380Y-114530285D02*
X136248380Y-115101714D01*
X136248380Y-114816000D02*
X135248380Y-114816000D01*
X135391238Y-114911238D01*
X135486476Y-115006476D01*
X135534095Y-115101714D01*
%TO.C,C4*%
X152487333Y-91163142D02*
X152439714Y-91210761D01*
X152296857Y-91258380D01*
X152201619Y-91258380D01*
X152058761Y-91210761D01*
X151963523Y-91115523D01*
X151915904Y-91020285D01*
X151868285Y-90829809D01*
X151868285Y-90686952D01*
X151915904Y-90496476D01*
X151963523Y-90401238D01*
X152058761Y-90306000D01*
X152201619Y-90258380D01*
X152296857Y-90258380D01*
X152439714Y-90306000D01*
X152487333Y-90353619D01*
X153344476Y-90591714D02*
X153344476Y-91258380D01*
X153106380Y-90210761D02*
X152868285Y-90925047D01*
X153487333Y-90925047D01*
%TO.C,C3*%
X147551142Y-91606666D02*
X147598761Y-91654285D01*
X147646380Y-91797142D01*
X147646380Y-91892380D01*
X147598761Y-92035238D01*
X147503523Y-92130476D01*
X147408285Y-92178095D01*
X147217809Y-92225714D01*
X147074952Y-92225714D01*
X146884476Y-92178095D01*
X146789238Y-92130476D01*
X146694000Y-92035238D01*
X146646380Y-91892380D01*
X146646380Y-91797142D01*
X146694000Y-91654285D01*
X146741619Y-91606666D01*
X146646380Y-91273333D02*
X146646380Y-90654285D01*
X147027333Y-90987619D01*
X147027333Y-90844761D01*
X147074952Y-90749523D01*
X147122571Y-90701904D01*
X147217809Y-90654285D01*
X147455904Y-90654285D01*
X147551142Y-90701904D01*
X147598761Y-90749523D01*
X147646380Y-90844761D01*
X147646380Y-91130476D01*
X147598761Y-91225714D01*
X147551142Y-91273333D01*
%TO.C,C2*%
X143089333Y-53697142D02*
X143041714Y-53744761D01*
X142898857Y-53792380D01*
X142803619Y-53792380D01*
X142660761Y-53744761D01*
X142565523Y-53649523D01*
X142517904Y-53554285D01*
X142470285Y-53363809D01*
X142470285Y-53220952D01*
X142517904Y-53030476D01*
X142565523Y-52935238D01*
X142660761Y-52840000D01*
X142803619Y-52792380D01*
X142898857Y-52792380D01*
X143041714Y-52840000D01*
X143089333Y-52887619D01*
X143470285Y-52887619D02*
X143517904Y-52840000D01*
X143613142Y-52792380D01*
X143851238Y-52792380D01*
X143946476Y-52840000D01*
X143994095Y-52887619D01*
X144041714Y-52982857D01*
X144041714Y-53078095D01*
X143994095Y-53220952D01*
X143422666Y-53792380D01*
X144041714Y-53792380D01*
%TO.C,C1*%
X145391142Y-88304666D02*
X145438761Y-88352285D01*
X145486380Y-88495142D01*
X145486380Y-88590380D01*
X145438761Y-88733238D01*
X145343523Y-88828476D01*
X145248285Y-88876095D01*
X145057809Y-88923714D01*
X144914952Y-88923714D01*
X144724476Y-88876095D01*
X144629238Y-88828476D01*
X144534000Y-88733238D01*
X144486380Y-88590380D01*
X144486380Y-88495142D01*
X144534000Y-88352285D01*
X144581619Y-88304666D01*
X145486380Y-87352285D02*
X145486380Y-87923714D01*
X145486380Y-87638000D02*
X144486380Y-87638000D01*
X144629238Y-87733238D01*
X144724476Y-87828476D01*
X144772095Y-87923714D01*
%TD*%
M02*
