G04 #@! TF.GenerationSoftware,KiCad,Pcbnew,(5.1.10-1-10_14)*
G04 #@! TF.CreationDate,2021-11-12T15:28:04+00:00*
G04 #@! TF.ProjectId,New-New-ACNode-Shield,4e65772d-4e65-4772-9d41-434e6f64652d,rev?*
G04 #@! TF.SameCoordinates,Original*
G04 #@! TF.FileFunction,Legend,Top*
G04 #@! TF.FilePolarity,Positive*
%FSLAX46Y46*%
G04 Gerber Fmt 4.6, Leading zero omitted, Abs format (unit mm)*
G04 Created by KiCad (PCBNEW (5.1.10-1-10_14)) date 2021-11-12 15:28:04*
%MOMM*%
%LPD*%
G01*
G04 APERTURE LIST*
%ADD10C,0.150000*%
%ADD11C,0.120000*%
%ADD12C,0.300000*%
%ADD13C,0.500000*%
%ADD14O,1.800000X1.800000*%
%ADD15C,2.100000*%
%ADD16C,2.000000*%
%ADD17C,1.624000*%
%ADD18C,3.100000*%
%ADD19C,2.600000*%
%ADD20C,2.640000*%
%ADD21C,1.600000*%
%ADD22C,3.350000*%
%ADD23O,1.700000X1.700000*%
G04 APERTURE END LIST*
D10*
X168938095Y-107552380D02*
X168938095Y-106552380D01*
X169176190Y-106552380D01*
X169319047Y-106600000D01*
X169414285Y-106695238D01*
X169461904Y-106790476D01*
X169509523Y-106980952D01*
X169509523Y-107123809D01*
X169461904Y-107314285D01*
X169414285Y-107409523D01*
X169319047Y-107504761D01*
X169176190Y-107552380D01*
X168938095Y-107552380D01*
X170080952Y-107552380D02*
X169985714Y-107504761D01*
X169938095Y-107457142D01*
X169890476Y-107361904D01*
X169890476Y-107076190D01*
X169938095Y-106980952D01*
X169985714Y-106933333D01*
X170080952Y-106885714D01*
X170223809Y-106885714D01*
X170319047Y-106933333D01*
X170366666Y-106980952D01*
X170414285Y-107076190D01*
X170414285Y-107361904D01*
X170366666Y-107457142D01*
X170319047Y-107504761D01*
X170223809Y-107552380D01*
X170080952Y-107552380D01*
X170985714Y-107552380D02*
X170890476Y-107504761D01*
X170842857Y-107457142D01*
X170795238Y-107361904D01*
X170795238Y-107076190D01*
X170842857Y-106980952D01*
X170890476Y-106933333D01*
X170985714Y-106885714D01*
X171128571Y-106885714D01*
X171223809Y-106933333D01*
X171271428Y-106980952D01*
X171319047Y-107076190D01*
X171319047Y-107361904D01*
X171271428Y-107457142D01*
X171223809Y-107504761D01*
X171128571Y-107552380D01*
X170985714Y-107552380D01*
X171747619Y-107552380D02*
X171747619Y-106885714D01*
X171747619Y-107076190D02*
X171795238Y-106980952D01*
X171842857Y-106933333D01*
X171938095Y-106885714D01*
X172033333Y-106885714D01*
X173700000Y-107552380D02*
X173366666Y-107076190D01*
X173128571Y-107552380D02*
X173128571Y-106552380D01*
X173509523Y-106552380D01*
X173604761Y-106600000D01*
X173652380Y-106647619D01*
X173700000Y-106742857D01*
X173700000Y-106885714D01*
X173652380Y-106980952D01*
X173604761Y-107028571D01*
X173509523Y-107076190D01*
X173128571Y-107076190D01*
X174509523Y-107504761D02*
X174414285Y-107552380D01*
X174223809Y-107552380D01*
X174128571Y-107504761D01*
X174080952Y-107409523D01*
X174080952Y-107028571D01*
X174128571Y-106933333D01*
X174223809Y-106885714D01*
X174414285Y-106885714D01*
X174509523Y-106933333D01*
X174557142Y-107028571D01*
X174557142Y-107123809D01*
X174080952Y-107219047D01*
X175128571Y-107552380D02*
X175033333Y-107504761D01*
X174985714Y-107409523D01*
X174985714Y-106552380D01*
X175890476Y-107504761D02*
X175795238Y-107552380D01*
X175604761Y-107552380D01*
X175509523Y-107504761D01*
X175461904Y-107409523D01*
X175461904Y-107028571D01*
X175509523Y-106933333D01*
X175604761Y-106885714D01*
X175795238Y-106885714D01*
X175890476Y-106933333D01*
X175938095Y-107028571D01*
X175938095Y-107123809D01*
X175461904Y-107219047D01*
X176795238Y-107552380D02*
X176795238Y-107028571D01*
X176747619Y-106933333D01*
X176652380Y-106885714D01*
X176461904Y-106885714D01*
X176366666Y-106933333D01*
X176795238Y-107504761D02*
X176700000Y-107552380D01*
X176461904Y-107552380D01*
X176366666Y-107504761D01*
X176319047Y-107409523D01*
X176319047Y-107314285D01*
X176366666Y-107219047D01*
X176461904Y-107171428D01*
X176700000Y-107171428D01*
X176795238Y-107123809D01*
X177223809Y-107504761D02*
X177319047Y-107552380D01*
X177509523Y-107552380D01*
X177604761Y-107504761D01*
X177652380Y-107409523D01*
X177652380Y-107361904D01*
X177604761Y-107266666D01*
X177509523Y-107219047D01*
X177366666Y-107219047D01*
X177271428Y-107171428D01*
X177223809Y-107076190D01*
X177223809Y-107028571D01*
X177271428Y-106933333D01*
X177366666Y-106885714D01*
X177509523Y-106885714D01*
X177604761Y-106933333D01*
X178461904Y-107504761D02*
X178366666Y-107552380D01*
X178176190Y-107552380D01*
X178080952Y-107504761D01*
X178033333Y-107409523D01*
X178033333Y-107028571D01*
X178080952Y-106933333D01*
X178176190Y-106885714D01*
X178366666Y-106885714D01*
X178461904Y-106933333D01*
X178509523Y-107028571D01*
X178509523Y-107123809D01*
X178033333Y-107219047D01*
X143552380Y-87566666D02*
X143076190Y-87900000D01*
X143552380Y-88138095D02*
X142552380Y-88138095D01*
X142552380Y-87757142D01*
X142600000Y-87661904D01*
X142647619Y-87614285D01*
X142742857Y-87566666D01*
X142885714Y-87566666D01*
X142980952Y-87614285D01*
X143028571Y-87661904D01*
X143076190Y-87757142D01*
X143076190Y-88138095D01*
X143504761Y-87185714D02*
X143552380Y-87042857D01*
X143552380Y-86804761D01*
X143504761Y-86709523D01*
X143457142Y-86661904D01*
X143361904Y-86614285D01*
X143266666Y-86614285D01*
X143171428Y-86661904D01*
X143123809Y-86709523D01*
X143076190Y-86804761D01*
X143028571Y-86995238D01*
X142980952Y-87090476D01*
X142933333Y-87138095D01*
X142838095Y-87185714D01*
X142742857Y-87185714D01*
X142647619Y-87138095D01*
X142600000Y-87090476D01*
X142552380Y-86995238D01*
X142552380Y-86757142D01*
X142600000Y-86614285D01*
X143171428Y-86185714D02*
X143171428Y-85423809D01*
X142885714Y-84519047D02*
X143552380Y-84519047D01*
X142504761Y-84757142D02*
X143219047Y-84995238D01*
X143219047Y-84376190D01*
X142647619Y-84042857D02*
X142600000Y-83995238D01*
X142552380Y-83900000D01*
X142552380Y-83661904D01*
X142600000Y-83566666D01*
X142647619Y-83519047D01*
X142742857Y-83471428D01*
X142838095Y-83471428D01*
X142980952Y-83519047D01*
X143552380Y-84090476D01*
X143552380Y-83471428D01*
X142647619Y-83090476D02*
X142600000Y-83042857D01*
X142552380Y-82947619D01*
X142552380Y-82709523D01*
X142600000Y-82614285D01*
X142647619Y-82566666D01*
X142742857Y-82519047D01*
X142838095Y-82519047D01*
X142980952Y-82566666D01*
X143552380Y-83138095D01*
X143552380Y-82519047D01*
X143552380Y-80757142D02*
X143076190Y-81090476D01*
X143552380Y-81328571D02*
X142552380Y-81328571D01*
X142552380Y-80947619D01*
X142600000Y-80852380D01*
X142647619Y-80804761D01*
X142742857Y-80757142D01*
X142885714Y-80757142D01*
X142980952Y-80804761D01*
X143028571Y-80852380D01*
X143076190Y-80947619D01*
X143076190Y-81328571D01*
X143504761Y-79947619D02*
X143552380Y-80042857D01*
X143552380Y-80233333D01*
X143504761Y-80328571D01*
X143409523Y-80376190D01*
X143028571Y-80376190D01*
X142933333Y-80328571D01*
X142885714Y-80233333D01*
X142885714Y-80042857D01*
X142933333Y-79947619D01*
X143028571Y-79900000D01*
X143123809Y-79900000D01*
X143219047Y-80376190D01*
X143552380Y-79042857D02*
X143028571Y-79042857D01*
X142933333Y-79090476D01*
X142885714Y-79185714D01*
X142885714Y-79376190D01*
X142933333Y-79471428D01*
X143504761Y-79042857D02*
X143552380Y-79138095D01*
X143552380Y-79376190D01*
X143504761Y-79471428D01*
X143409523Y-79519047D01*
X143314285Y-79519047D01*
X143219047Y-79471428D01*
X143171428Y-79376190D01*
X143171428Y-79138095D01*
X143123809Y-79042857D01*
X143552380Y-78138095D02*
X142552380Y-78138095D01*
X143504761Y-78138095D02*
X143552380Y-78233333D01*
X143552380Y-78423809D01*
X143504761Y-78519047D01*
X143457142Y-78566666D01*
X143361904Y-78614285D01*
X143076190Y-78614285D01*
X142980952Y-78566666D01*
X142933333Y-78519047D01*
X142885714Y-78423809D01*
X142885714Y-78233333D01*
X142933333Y-78138095D01*
X143504761Y-77280952D02*
X143552380Y-77376190D01*
X143552380Y-77566666D01*
X143504761Y-77661904D01*
X143409523Y-77709523D01*
X143028571Y-77709523D01*
X142933333Y-77661904D01*
X142885714Y-77566666D01*
X142885714Y-77376190D01*
X142933333Y-77280952D01*
X143028571Y-77233333D01*
X143123809Y-77233333D01*
X143219047Y-77709523D01*
X143552380Y-76804761D02*
X142885714Y-76804761D01*
X143076190Y-76804761D02*
X142980952Y-76757142D01*
X142933333Y-76709523D01*
X142885714Y-76614285D01*
X142885714Y-76519047D01*
X150495238Y-64652380D02*
X150495238Y-63652380D01*
X150733333Y-63652380D01*
X150876190Y-63700000D01*
X150971428Y-63795238D01*
X151019047Y-63890476D01*
X151066666Y-64080952D01*
X151066666Y-64223809D01*
X151019047Y-64414285D01*
X150971428Y-64509523D01*
X150876190Y-64604761D01*
X150733333Y-64652380D01*
X150495238Y-64652380D01*
X151495238Y-64652380D02*
X151495238Y-63985714D01*
X151495238Y-63652380D02*
X151447619Y-63700000D01*
X151495238Y-63747619D01*
X151542857Y-63700000D01*
X151495238Y-63652380D01*
X151495238Y-63747619D01*
X151971428Y-64652380D02*
X151971428Y-63985714D01*
X151971428Y-64176190D02*
X152019047Y-64080952D01*
X152066666Y-64033333D01*
X152161904Y-63985714D01*
X152257142Y-63985714D01*
X152971428Y-64604761D02*
X152876190Y-64652380D01*
X152685714Y-64652380D01*
X152590476Y-64604761D01*
X152542857Y-64509523D01*
X152542857Y-64128571D01*
X152590476Y-64033333D01*
X152685714Y-63985714D01*
X152876190Y-63985714D01*
X152971428Y-64033333D01*
X153019047Y-64128571D01*
X153019047Y-64223809D01*
X152542857Y-64319047D01*
X153876190Y-64604761D02*
X153780952Y-64652380D01*
X153590476Y-64652380D01*
X153495238Y-64604761D01*
X153447619Y-64557142D01*
X153400000Y-64461904D01*
X153400000Y-64176190D01*
X153447619Y-64080952D01*
X153495238Y-64033333D01*
X153590476Y-63985714D01*
X153780952Y-63985714D01*
X153876190Y-64033333D01*
X154161904Y-63985714D02*
X154542857Y-63985714D01*
X154304761Y-63652380D02*
X154304761Y-64509523D01*
X154352380Y-64604761D01*
X154447619Y-64652380D01*
X154542857Y-64652380D01*
X156209523Y-64652380D02*
X155876190Y-64176190D01*
X155638095Y-64652380D02*
X155638095Y-63652380D01*
X156019047Y-63652380D01*
X156114285Y-63700000D01*
X156161904Y-63747619D01*
X156209523Y-63842857D01*
X156209523Y-63985714D01*
X156161904Y-64080952D01*
X156114285Y-64128571D01*
X156019047Y-64176190D01*
X155638095Y-64176190D01*
X157019047Y-64604761D02*
X156923809Y-64652380D01*
X156733333Y-64652380D01*
X156638095Y-64604761D01*
X156590476Y-64509523D01*
X156590476Y-64128571D01*
X156638095Y-64033333D01*
X156733333Y-63985714D01*
X156923809Y-63985714D01*
X157019047Y-64033333D01*
X157066666Y-64128571D01*
X157066666Y-64223809D01*
X156590476Y-64319047D01*
X157923809Y-64652380D02*
X157923809Y-64128571D01*
X157876190Y-64033333D01*
X157780952Y-63985714D01*
X157590476Y-63985714D01*
X157495238Y-64033333D01*
X157923809Y-64604761D02*
X157828571Y-64652380D01*
X157590476Y-64652380D01*
X157495238Y-64604761D01*
X157447619Y-64509523D01*
X157447619Y-64414285D01*
X157495238Y-64319047D01*
X157590476Y-64271428D01*
X157828571Y-64271428D01*
X157923809Y-64223809D01*
X158828571Y-64652380D02*
X158828571Y-63652380D01*
X158828571Y-64604761D02*
X158733333Y-64652380D01*
X158542857Y-64652380D01*
X158447619Y-64604761D01*
X158400000Y-64557142D01*
X158352380Y-64461904D01*
X158352380Y-64176190D01*
X158400000Y-64080952D01*
X158447619Y-64033333D01*
X158542857Y-63985714D01*
X158733333Y-63985714D01*
X158828571Y-64033333D01*
X159685714Y-64604761D02*
X159590476Y-64652380D01*
X159400000Y-64652380D01*
X159304761Y-64604761D01*
X159257142Y-64509523D01*
X159257142Y-64128571D01*
X159304761Y-64033333D01*
X159400000Y-63985714D01*
X159590476Y-63985714D01*
X159685714Y-64033333D01*
X159733333Y-64128571D01*
X159733333Y-64223809D01*
X159257142Y-64319047D01*
X160161904Y-64652380D02*
X160161904Y-63985714D01*
X160161904Y-64176190D02*
X160209523Y-64080952D01*
X160257142Y-64033333D01*
X160352380Y-63985714D01*
X160447619Y-63985714D01*
X164861904Y-75852380D02*
X164528571Y-75376190D01*
X164290476Y-75852380D02*
X164290476Y-74852380D01*
X164671428Y-74852380D01*
X164766666Y-74900000D01*
X164814285Y-74947619D01*
X164861904Y-75042857D01*
X164861904Y-75185714D01*
X164814285Y-75280952D01*
X164766666Y-75328571D01*
X164671428Y-75376190D01*
X164290476Y-75376190D01*
X165671428Y-75804761D02*
X165576190Y-75852380D01*
X165385714Y-75852380D01*
X165290476Y-75804761D01*
X165242857Y-75709523D01*
X165242857Y-75328571D01*
X165290476Y-75233333D01*
X165385714Y-75185714D01*
X165576190Y-75185714D01*
X165671428Y-75233333D01*
X165719047Y-75328571D01*
X165719047Y-75423809D01*
X165242857Y-75519047D01*
X166100000Y-75804761D02*
X166195238Y-75852380D01*
X166385714Y-75852380D01*
X166480952Y-75804761D01*
X166528571Y-75709523D01*
X166528571Y-75661904D01*
X166480952Y-75566666D01*
X166385714Y-75519047D01*
X166242857Y-75519047D01*
X166147619Y-75471428D01*
X166100000Y-75376190D01*
X166100000Y-75328571D01*
X166147619Y-75233333D01*
X166242857Y-75185714D01*
X166385714Y-75185714D01*
X166480952Y-75233333D01*
X167338095Y-75804761D02*
X167242857Y-75852380D01*
X167052380Y-75852380D01*
X166957142Y-75804761D01*
X166909523Y-75709523D01*
X166909523Y-75328571D01*
X166957142Y-75233333D01*
X167052380Y-75185714D01*
X167242857Y-75185714D01*
X167338095Y-75233333D01*
X167385714Y-75328571D01*
X167385714Y-75423809D01*
X166909523Y-75519047D01*
X167671428Y-75185714D02*
X168052380Y-75185714D01*
X167814285Y-74852380D02*
X167814285Y-75709523D01*
X167861904Y-75804761D01*
X167957142Y-75852380D01*
X168052380Y-75852380D01*
X129028571Y-121052380D02*
X129600000Y-121052380D01*
X129314285Y-122052380D02*
X129314285Y-121052380D01*
X129933333Y-122052380D02*
X129933333Y-121052380D01*
X129933333Y-121528571D02*
X130504761Y-121528571D01*
X130504761Y-122052380D02*
X130504761Y-121052380D01*
X130980952Y-121528571D02*
X131314285Y-121528571D01*
X131457142Y-122052380D02*
X130980952Y-122052380D01*
X130980952Y-121052380D01*
X131457142Y-121052380D01*
X132980952Y-121528571D02*
X133123809Y-121576190D01*
X133171428Y-121623809D01*
X133219047Y-121719047D01*
X133219047Y-121861904D01*
X133171428Y-121957142D01*
X133123809Y-122004761D01*
X133028571Y-122052380D01*
X132647619Y-122052380D01*
X132647619Y-121052380D01*
X132980952Y-121052380D01*
X133076190Y-121100000D01*
X133123809Y-121147619D01*
X133171428Y-121242857D01*
X133171428Y-121338095D01*
X133123809Y-121433333D01*
X133076190Y-121480952D01*
X132980952Y-121528571D01*
X132647619Y-121528571D01*
X134076190Y-121385714D02*
X134076190Y-122052380D01*
X133647619Y-121385714D02*
X133647619Y-121909523D01*
X133695238Y-122004761D01*
X133790476Y-122052380D01*
X133933333Y-122052380D01*
X134028571Y-122004761D01*
X134076190Y-121957142D01*
X134409523Y-121385714D02*
X134790476Y-121385714D01*
X134552380Y-121052380D02*
X134552380Y-121909523D01*
X134600000Y-122004761D01*
X134695238Y-122052380D01*
X134790476Y-122052380D01*
X134980952Y-121385714D02*
X135361904Y-121385714D01*
X135123809Y-121052380D02*
X135123809Y-121909523D01*
X135171428Y-122004761D01*
X135266666Y-122052380D01*
X135361904Y-122052380D01*
X135838095Y-122052380D02*
X135742857Y-122004761D01*
X135695238Y-121957142D01*
X135647619Y-121861904D01*
X135647619Y-121576190D01*
X135695238Y-121480952D01*
X135742857Y-121433333D01*
X135838095Y-121385714D01*
X135980952Y-121385714D01*
X136076190Y-121433333D01*
X136123809Y-121480952D01*
X136171428Y-121576190D01*
X136171428Y-121861904D01*
X136123809Y-121957142D01*
X136076190Y-122004761D01*
X135980952Y-122052380D01*
X135838095Y-122052380D01*
X136600000Y-121385714D02*
X136600000Y-122052380D01*
X136600000Y-121480952D02*
X136647619Y-121433333D01*
X136742857Y-121385714D01*
X136885714Y-121385714D01*
X136980952Y-121433333D01*
X137028571Y-121528571D01*
X137028571Y-122052380D01*
X166952380Y-163609523D02*
X166952380Y-163038095D01*
X167952380Y-163323809D02*
X166952380Y-163323809D01*
X167952380Y-162561904D02*
X167904761Y-162657142D01*
X167857142Y-162704761D01*
X167761904Y-162752380D01*
X167476190Y-162752380D01*
X167380952Y-162704761D01*
X167333333Y-162657142D01*
X167285714Y-162561904D01*
X167285714Y-162419047D01*
X167333333Y-162323809D01*
X167380952Y-162276190D01*
X167476190Y-162228571D01*
X167761904Y-162228571D01*
X167857142Y-162276190D01*
X167904761Y-162323809D01*
X167952380Y-162419047D01*
X167952380Y-162561904D01*
X167952380Y-161657142D02*
X167904761Y-161752380D01*
X167857142Y-161800000D01*
X167761904Y-161847619D01*
X167476190Y-161847619D01*
X167380952Y-161800000D01*
X167333333Y-161752380D01*
X167285714Y-161657142D01*
X167285714Y-161514285D01*
X167333333Y-161419047D01*
X167380952Y-161371428D01*
X167476190Y-161323809D01*
X167761904Y-161323809D01*
X167857142Y-161371428D01*
X167904761Y-161419047D01*
X167952380Y-161514285D01*
X167952380Y-161657142D01*
X167952380Y-160752380D02*
X167904761Y-160847619D01*
X167809523Y-160895238D01*
X166952380Y-160895238D01*
X166952380Y-159419047D02*
X166952380Y-159228571D01*
X167000000Y-159133333D01*
X167095238Y-159038095D01*
X167285714Y-158990476D01*
X167619047Y-158990476D01*
X167809523Y-159038095D01*
X167904761Y-159133333D01*
X167952380Y-159228571D01*
X167952380Y-159419047D01*
X167904761Y-159514285D01*
X167809523Y-159609523D01*
X167619047Y-159657142D01*
X167285714Y-159657142D01*
X167095238Y-159609523D01*
X167000000Y-159514285D01*
X166952380Y-159419047D01*
X167285714Y-158561904D02*
X167952380Y-158561904D01*
X167380952Y-158561904D02*
X167333333Y-158514285D01*
X167285714Y-158419047D01*
X167285714Y-158276190D01*
X167333333Y-158180952D01*
X167428571Y-158133333D01*
X167952380Y-158133333D01*
X168119047Y-160471428D02*
X168880952Y-160471428D01*
X168419047Y-163471428D02*
X169180952Y-163471428D01*
X168800000Y-163852380D02*
X168800000Y-163090476D01*
X133414285Y-149552380D02*
X133414285Y-148552380D01*
X133985714Y-149552380D01*
X133985714Y-148552380D01*
X135033333Y-149457142D02*
X134985714Y-149504761D01*
X134842857Y-149552380D01*
X134747619Y-149552380D01*
X134604761Y-149504761D01*
X134509523Y-149409523D01*
X134461904Y-149314285D01*
X134414285Y-149123809D01*
X134414285Y-148980952D01*
X134461904Y-148790476D01*
X134509523Y-148695238D01*
X134604761Y-148600000D01*
X134747619Y-148552380D01*
X134842857Y-148552380D01*
X134985714Y-148600000D01*
X135033333Y-148647619D01*
X133514285Y-145657142D02*
X133466666Y-145704761D01*
X133323809Y-145752380D01*
X133228571Y-145752380D01*
X133085714Y-145704761D01*
X132990476Y-145609523D01*
X132942857Y-145514285D01*
X132895238Y-145323809D01*
X132895238Y-145180952D01*
X132942857Y-144990476D01*
X132990476Y-144895238D01*
X133085714Y-144800000D01*
X133228571Y-144752380D01*
X133323809Y-144752380D01*
X133466666Y-144800000D01*
X133514285Y-144847619D01*
X134133333Y-144752380D02*
X134323809Y-144752380D01*
X134419047Y-144800000D01*
X134514285Y-144895238D01*
X134561904Y-145085714D01*
X134561904Y-145419047D01*
X134514285Y-145609523D01*
X134419047Y-145704761D01*
X134323809Y-145752380D01*
X134133333Y-145752380D01*
X134038095Y-145704761D01*
X133942857Y-145609523D01*
X133895238Y-145419047D01*
X133895238Y-145085714D01*
X133942857Y-144895238D01*
X134038095Y-144800000D01*
X134133333Y-144752380D01*
X134990476Y-145752380D02*
X134990476Y-144752380D01*
X135323809Y-145466666D01*
X135657142Y-144752380D01*
X135657142Y-145752380D01*
X133590476Y-141652380D02*
X133590476Y-140652380D01*
X134161904Y-141652380D01*
X134161904Y-140652380D01*
X134828571Y-140652380D02*
X135019047Y-140652380D01*
X135114285Y-140700000D01*
X135209523Y-140795238D01*
X135257142Y-140985714D01*
X135257142Y-141319047D01*
X135209523Y-141509523D01*
X135114285Y-141604761D01*
X135019047Y-141652380D01*
X134828571Y-141652380D01*
X134733333Y-141604761D01*
X134638095Y-141509523D01*
X134590476Y-141319047D01*
X134590476Y-140985714D01*
X134638095Y-140795238D01*
X134733333Y-140700000D01*
X134828571Y-140652380D01*
X136977428Y-103869904D02*
X136977428Y-103108000D01*
X137358380Y-103488952D02*
X136596476Y-103488952D01*
X137358380Y-102108000D02*
X137358380Y-102679428D01*
X137358380Y-102393714D02*
X136358380Y-102393714D01*
X136501238Y-102488952D01*
X136596476Y-102584190D01*
X136644095Y-102679428D01*
X136453619Y-101727047D02*
X136406000Y-101679428D01*
X136358380Y-101584190D01*
X136358380Y-101346095D01*
X136406000Y-101250857D01*
X136453619Y-101203238D01*
X136548857Y-101155619D01*
X136644095Y-101155619D01*
X136786952Y-101203238D01*
X137358380Y-101774666D01*
X137358380Y-101155619D01*
X136358380Y-100869904D02*
X137358380Y-100536571D01*
X136358380Y-100203238D01*
X136406000Y-97789904D02*
X136358380Y-97885142D01*
X136358380Y-98028000D01*
X136406000Y-98170857D01*
X136501238Y-98266095D01*
X136596476Y-98313714D01*
X136786952Y-98361333D01*
X136929809Y-98361333D01*
X137120285Y-98313714D01*
X137215523Y-98266095D01*
X137310761Y-98170857D01*
X137358380Y-98028000D01*
X137358380Y-97932761D01*
X137310761Y-97789904D01*
X137263142Y-97742285D01*
X136929809Y-97742285D01*
X136929809Y-97932761D01*
X137358380Y-97313714D02*
X136358380Y-97313714D01*
X137358380Y-96742285D01*
X136358380Y-96742285D01*
X137358380Y-96266095D02*
X136358380Y-96266095D01*
X136358380Y-96028000D01*
X136406000Y-95885142D01*
X136501238Y-95789904D01*
X136596476Y-95742285D01*
X136786952Y-95694666D01*
X136929809Y-95694666D01*
X137120285Y-95742285D01*
X137215523Y-95789904D01*
X137310761Y-95885142D01*
X137358380Y-96028000D01*
X137358380Y-96266095D01*
D11*
X158030000Y-87370000D02*
X158030000Y-88700000D01*
X156700000Y-87370000D02*
X158030000Y-87370000D01*
X155430000Y-87370000D02*
X155430000Y-90030000D01*
X155430000Y-90030000D02*
X150290000Y-90030000D01*
X155430000Y-87370000D02*
X150290000Y-87370000D01*
X150290000Y-87370000D02*
X150290000Y-90030000D01*
X131900000Y-138990000D02*
X131900000Y-151210000D01*
X131900000Y-151210000D02*
X122700000Y-151210000D01*
X122700000Y-151210000D02*
X122700000Y-138990000D01*
X122700000Y-138990000D02*
X131900000Y-138990000D01*
X169700000Y-166700000D02*
X169700000Y-158300000D01*
X169700000Y-158300000D02*
X178900000Y-158300000D01*
X178900000Y-158300000D02*
X178900000Y-166700000D01*
X178900000Y-166700000D02*
X169700000Y-166700000D01*
X169644000Y-106308000D02*
X169644000Y-97908000D01*
X169644000Y-97908000D02*
X178844000Y-97908000D01*
X178844000Y-97908000D02*
X178844000Y-106308000D01*
X178844000Y-106308000D02*
X169644000Y-106308000D01*
X146890000Y-143250000D02*
X150890000Y-143250000D01*
X146890000Y-146850000D02*
X146890000Y-143250000D01*
X150890000Y-146850000D02*
X146890000Y-146850000D01*
X150890000Y-143250000D02*
X150890000Y-146850000D01*
X146890000Y-143250000D02*
X150890000Y-146850000D01*
X148890000Y-143250000D02*
X148890000Y-139050000D01*
X148890000Y-151050000D02*
X148890000Y-146850000D01*
X152290000Y-145050000D02*
X152290000Y-141450000D01*
X145490000Y-145050000D02*
X145490000Y-141450000D01*
X145490000Y-141450000D02*
X152290000Y-141450000D01*
X143990000Y-145050000D02*
X139390000Y-147550000D01*
X145490000Y-145050000D02*
X143990000Y-145050000D01*
X148890000Y-151050000D02*
X151390000Y-151050000D01*
X152290000Y-145050000D02*
X153090000Y-145050000D01*
X151390000Y-139050000D02*
X148890000Y-139050000D01*
X140790000Y-149300000D02*
X140790000Y-146800000D01*
X140790000Y-140900000D02*
X140790000Y-143350000D01*
X136540000Y-137300000D02*
X156340000Y-137300000D01*
X136540000Y-152900000D02*
X136540000Y-137300000D01*
X156340000Y-152900000D02*
X136540000Y-152900000D01*
X156340000Y-152900000D02*
X156340000Y-146300000D01*
X156340000Y-143900000D02*
X156340000Y-137300000D01*
X154540000Y-94706000D02*
X154540000Y-100716000D01*
X147720000Y-96956000D02*
X147720000Y-100716000D01*
X154540000Y-100716000D02*
X153280000Y-100716000D01*
X147720000Y-100716000D02*
X148980000Y-100716000D01*
X163900000Y-163625000D02*
X159500000Y-163625000D01*
X159500000Y-163625000D02*
X159500000Y-159775000D01*
X159500000Y-159775000D02*
X163900000Y-159775000D01*
X163900000Y-159775000D02*
X163900000Y-163625000D01*
D12*
X163515139Y-163075000D02*
G75*
G03*
X163515139Y-163075000I-90139J0D01*
G01*
D11*
X133927000Y-54177000D02*
X132252000Y-54177000D01*
X133927000Y-53917000D02*
X133927000Y-54177000D01*
X136652000Y-53917000D02*
X133927000Y-53917000D01*
X139377000Y-53917000D02*
X139377000Y-54177000D01*
X136652000Y-53917000D02*
X139377000Y-53917000D01*
X133927000Y-59367000D02*
X133927000Y-59107000D01*
X136652000Y-59367000D02*
X133927000Y-59367000D01*
X139377000Y-59367000D02*
X139377000Y-59107000D01*
X136652000Y-59367000D02*
X139377000Y-59367000D01*
X149352000Y-86223000D02*
X152802000Y-86223000D01*
X149352000Y-86223000D02*
X147402000Y-86223000D01*
X149352000Y-77353000D02*
X151302000Y-77353000D01*
X149352000Y-77353000D02*
X147402000Y-77353000D01*
X133556000Y-123552000D02*
X132056000Y-123552000D01*
X129556000Y-124802000D02*
X129556000Y-129302000D01*
X132056000Y-130552000D02*
X133556000Y-130552000D01*
X136056000Y-129302000D02*
X136056000Y-124802000D01*
X169650000Y-81000000D02*
X169650000Y-79500000D01*
X168400000Y-77000000D02*
X163900000Y-77000000D01*
X162650000Y-79500000D02*
X162650000Y-81000000D01*
X163900000Y-83500000D02*
X168400000Y-83500000D01*
X162214779Y-97788000D02*
X161889221Y-97788000D01*
X162214779Y-98808000D02*
X161889221Y-98808000D01*
X163230779Y-103630000D02*
X162905221Y-103630000D01*
X163230779Y-104650000D02*
X162905221Y-104650000D01*
X132679221Y-133860000D02*
X133004779Y-133860000D01*
X132679221Y-132840000D02*
X133004779Y-132840000D01*
X155958000Y-113192779D02*
X155958000Y-112867221D01*
X154938000Y-113192779D02*
X154938000Y-112867221D01*
X153164000Y-113192779D02*
X153164000Y-112867221D01*
X152144000Y-113192779D02*
X152144000Y-112867221D01*
X167437221Y-165410000D02*
X167762779Y-165410000D01*
X167437221Y-164390000D02*
X167762779Y-164390000D01*
X129590000Y-47937221D02*
X129590000Y-48262779D01*
X130610000Y-47937221D02*
X130610000Y-48262779D01*
X166278779Y-136650000D02*
X165953221Y-136650000D01*
X166278779Y-137670000D02*
X165953221Y-137670000D01*
X142750000Y-121574779D02*
X142750000Y-121249221D01*
X141730000Y-121574779D02*
X141730000Y-121249221D01*
X142750000Y-115732779D02*
X142750000Y-115407221D01*
X141730000Y-115732779D02*
X141730000Y-115407221D01*
X142750000Y-110652779D02*
X142750000Y-110327221D01*
X141730000Y-110652779D02*
X141730000Y-110327221D01*
X132933221Y-119890000D02*
X133258779Y-119890000D01*
X132933221Y-118870000D02*
X133258779Y-118870000D01*
X132590000Y-110906779D02*
X132590000Y-110581221D01*
X131570000Y-110906779D02*
X131570000Y-110581221D01*
X134457221Y-110746000D02*
X134782779Y-110746000D01*
X134457221Y-109726000D02*
X134782779Y-109726000D01*
X130812000Y-55534779D02*
X130812000Y-55209221D01*
X129792000Y-55534779D02*
X129792000Y-55209221D01*
X144270000Y-82133221D02*
X144270000Y-82458779D01*
X145290000Y-82133221D02*
X145290000Y-82458779D01*
X160472000Y-101852000D02*
X160472000Y-100392000D01*
X163632000Y-101852000D02*
X163632000Y-99692000D01*
X163632000Y-101852000D02*
X162702000Y-101852000D01*
X160472000Y-101852000D02*
X161402000Y-101852000D01*
X164536000Y-141730000D02*
X164536000Y-140270000D01*
X167696000Y-141730000D02*
X167696000Y-139570000D01*
X167696000Y-141730000D02*
X166766000Y-141730000D01*
X164536000Y-141730000D02*
X165466000Y-141730000D01*
X145650000Y-94706000D02*
X145650000Y-100716000D01*
X138830000Y-96956000D02*
X138830000Y-100716000D01*
X145650000Y-100716000D02*
X144390000Y-100716000D01*
X138830000Y-100716000D02*
X140090000Y-100716000D01*
X138686000Y-119832000D02*
X140146000Y-119832000D01*
X138686000Y-122992000D02*
X140846000Y-122992000D01*
X138686000Y-122992000D02*
X138686000Y-122062000D01*
X138686000Y-119832000D02*
X138686000Y-120762000D01*
X138686000Y-113990000D02*
X140146000Y-113990000D01*
X138686000Y-117150000D02*
X140846000Y-117150000D01*
X138686000Y-117150000D02*
X138686000Y-116220000D01*
X138686000Y-113990000D02*
X138686000Y-114920000D01*
X138432000Y-108910000D02*
X139892000Y-108910000D01*
X138432000Y-112070000D02*
X140592000Y-112070000D01*
X138432000Y-112070000D02*
X138432000Y-111140000D01*
X138432000Y-108910000D02*
X138432000Y-109840000D01*
X156774000Y-66042000D02*
X156774000Y-67502000D01*
X153614000Y-66042000D02*
X153614000Y-68202000D01*
X153614000Y-66042000D02*
X154544000Y-66042000D01*
X156774000Y-66042000D02*
X155844000Y-66042000D01*
X151186000Y-65788000D02*
X151186000Y-67248000D01*
X148026000Y-65788000D02*
X148026000Y-67948000D01*
X148026000Y-65788000D02*
X148956000Y-65788000D01*
X151186000Y-65788000D02*
X150256000Y-65788000D01*
X161854000Y-66042000D02*
X161854000Y-67502000D01*
X158694000Y-66042000D02*
X158694000Y-68202000D01*
X158694000Y-66042000D02*
X159624000Y-66042000D01*
X161854000Y-66042000D02*
X160924000Y-66042000D01*
X146244000Y-110804000D02*
X146244000Y-109474000D01*
X147574000Y-110804000D02*
X146244000Y-110804000D01*
X148844000Y-110804000D02*
X148844000Y-108144000D01*
X148844000Y-108144000D02*
X156524000Y-108144000D01*
X148844000Y-110804000D02*
X156524000Y-110804000D01*
X156524000Y-110804000D02*
X156524000Y-108144000D01*
X135590000Y-93868000D02*
X135590000Y-105268000D01*
X135590000Y-105268000D02*
X123440000Y-105268000D01*
X123440000Y-105268000D02*
X123440000Y-93868000D01*
X123440000Y-93868000D02*
X135590000Y-93868000D01*
X163077000Y-47778000D02*
X163077000Y-44338000D01*
X163953000Y-58420000D02*
X163445000Y-58928000D01*
X163953000Y-59436000D02*
X163953000Y-58420000D01*
X163445000Y-58928000D02*
X163953000Y-59436000D01*
X147057000Y-47778000D02*
X147057000Y-44338000D01*
X147057000Y-44338000D02*
X163077000Y-44338000D01*
X163077000Y-63208000D02*
X163077000Y-51278000D01*
X147057000Y-63208000D02*
X163077000Y-63208000D01*
X147057000Y-63208000D02*
X147057000Y-51278000D01*
X126518000Y-73651000D02*
X123078000Y-73651000D01*
X137160000Y-72775000D02*
X137668000Y-73283000D01*
X138176000Y-72775000D02*
X137160000Y-72775000D01*
X137668000Y-73283000D02*
X138176000Y-72775000D01*
X126518000Y-89671000D02*
X123078000Y-89671000D01*
X123078000Y-89671000D02*
X123078000Y-73651000D01*
X141948000Y-73651000D02*
X130018000Y-73651000D01*
X141948000Y-89671000D02*
X141948000Y-73651000D01*
X141948000Y-89671000D02*
X130018000Y-89671000D01*
X166619422Y-100786000D02*
X167136578Y-100786000D01*
X166619422Y-99366000D02*
X167136578Y-99366000D01*
X167136578Y-103430000D02*
X166619422Y-103430000D01*
X167136578Y-104850000D02*
X166619422Y-104850000D01*
X161440000Y-147570000D02*
X163680000Y-147570000D01*
X161440000Y-147330000D02*
X163680000Y-147330000D01*
X161440000Y-147450000D02*
X163680000Y-147450000D01*
X162560000Y-143280000D02*
X162560000Y-143930000D01*
X162560000Y-148820000D02*
X162560000Y-148170000D01*
X161440000Y-143930000D02*
X161440000Y-148170000D01*
X163680000Y-143930000D02*
X161440000Y-143930000D01*
X163680000Y-148170000D02*
X163680000Y-143930000D01*
X161440000Y-148170000D02*
X163680000Y-148170000D01*
D13*
X134096000Y-111916000D02*
G75*
G03*
X134096000Y-111916000I-100000J0D01*
G01*
D11*
X152395422Y-93166000D02*
X152912578Y-93166000D01*
X152395422Y-91746000D02*
X152912578Y-91746000D01*
X149554000Y-91698578D02*
X149554000Y-91181422D01*
X148134000Y-91698578D02*
X148134000Y-91181422D01*
X143418779Y-54354000D02*
X143093221Y-54354000D01*
X143418779Y-55374000D02*
X143093221Y-55374000D01*
X146048000Y-87975221D02*
X146048000Y-88300779D01*
X147068000Y-87975221D02*
X147068000Y-88300779D01*
D10*
X158482380Y-89033333D02*
X159196666Y-89033333D01*
X159339523Y-89080952D01*
X159434761Y-89176190D01*
X159482380Y-89319047D01*
X159482380Y-89414285D01*
X158910952Y-88414285D02*
X158863333Y-88509523D01*
X158815714Y-88557142D01*
X158720476Y-88604761D01*
X158672857Y-88604761D01*
X158577619Y-88557142D01*
X158530000Y-88509523D01*
X158482380Y-88414285D01*
X158482380Y-88223809D01*
X158530000Y-88128571D01*
X158577619Y-88080952D01*
X158672857Y-88033333D01*
X158720476Y-88033333D01*
X158815714Y-88080952D01*
X158863333Y-88128571D01*
X158910952Y-88223809D01*
X158910952Y-88414285D01*
X158958571Y-88509523D01*
X159006190Y-88557142D01*
X159101428Y-88604761D01*
X159291904Y-88604761D01*
X159387142Y-88557142D01*
X159434761Y-88509523D01*
X159482380Y-88414285D01*
X159482380Y-88223809D01*
X159434761Y-88128571D01*
X159387142Y-88080952D01*
X159291904Y-88033333D01*
X159101428Y-88033333D01*
X159006190Y-88080952D01*
X158958571Y-88128571D01*
X158910952Y-88223809D01*
X125282380Y-145275333D02*
X125996666Y-145275333D01*
X126139523Y-145322952D01*
X126234761Y-145418190D01*
X126282380Y-145561047D01*
X126282380Y-145656285D01*
X125615714Y-144370571D02*
X126282380Y-144370571D01*
X125234761Y-144608666D02*
X125949047Y-144846761D01*
X125949047Y-144227714D01*
X173722380Y-162793333D02*
X174436666Y-162793333D01*
X174579523Y-162840952D01*
X174674761Y-162936190D01*
X174722380Y-163079047D01*
X174722380Y-163174285D01*
X173722380Y-161840952D02*
X173722380Y-162317142D01*
X174198571Y-162364761D01*
X174150952Y-162317142D01*
X174103333Y-162221904D01*
X174103333Y-161983809D01*
X174150952Y-161888571D01*
X174198571Y-161840952D01*
X174293809Y-161793333D01*
X174531904Y-161793333D01*
X174627142Y-161840952D01*
X174674761Y-161888571D01*
X174722380Y-161983809D01*
X174722380Y-162221904D01*
X174674761Y-162317142D01*
X174627142Y-162364761D01*
X173966666Y-101852380D02*
X173966666Y-102566666D01*
X173919047Y-102709523D01*
X173823809Y-102804761D01*
X173680952Y-102852380D01*
X173585714Y-102852380D01*
X174347619Y-101852380D02*
X175014285Y-101852380D01*
X174585714Y-102852380D01*
X145288095Y-132802380D02*
X145288095Y-133611904D01*
X145335714Y-133707142D01*
X145383333Y-133754761D01*
X145478571Y-133802380D01*
X145669047Y-133802380D01*
X145764285Y-133754761D01*
X145811904Y-133707142D01*
X145859523Y-133611904D01*
X145859523Y-132802380D01*
X146288095Y-132897619D02*
X146335714Y-132850000D01*
X146430952Y-132802380D01*
X146669047Y-132802380D01*
X146764285Y-132850000D01*
X146811904Y-132897619D01*
X146859523Y-132992857D01*
X146859523Y-133088095D01*
X146811904Y-133230952D01*
X146240476Y-133802380D01*
X146859523Y-133802380D01*
X144861904Y-140052380D02*
X144861904Y-139052380D01*
X145433333Y-140052380D02*
X145004761Y-139480952D01*
X145433333Y-139052380D02*
X144861904Y-139623809D01*
X146385714Y-140052380D02*
X145814285Y-140052380D01*
X146100000Y-140052380D02*
X146100000Y-139052380D01*
X146004761Y-139195238D01*
X145909523Y-139290476D01*
X145814285Y-139338095D01*
X150368095Y-103592380D02*
X150368095Y-104401904D01*
X150415714Y-104497142D01*
X150463333Y-104544761D01*
X150558571Y-104592380D01*
X150749047Y-104592380D01*
X150844285Y-104544761D01*
X150891904Y-104497142D01*
X150939523Y-104401904D01*
X150939523Y-103592380D01*
X151891904Y-103592380D02*
X151415714Y-103592380D01*
X151368095Y-104068571D01*
X151415714Y-104020952D01*
X151510952Y-103973333D01*
X151749047Y-103973333D01*
X151844285Y-104020952D01*
X151891904Y-104068571D01*
X151939523Y-104163809D01*
X151939523Y-104401904D01*
X151891904Y-104497142D01*
X151844285Y-104544761D01*
X151749047Y-104592380D01*
X151510952Y-104592380D01*
X151415714Y-104544761D01*
X151368095Y-104497142D01*
X162561904Y-158847619D02*
X162561904Y-158038095D01*
X162514285Y-157942857D01*
X162466666Y-157895238D01*
X162371428Y-157847619D01*
X162180952Y-157847619D01*
X162085714Y-157895238D01*
X162038095Y-157942857D01*
X161990476Y-158038095D01*
X161990476Y-158847619D01*
X161085714Y-158514285D02*
X161085714Y-157847619D01*
X161323809Y-158895238D02*
X161561904Y-158180952D01*
X160942857Y-158180952D01*
X135890095Y-52534380D02*
X135890095Y-53343904D01*
X135937714Y-53439142D01*
X135985333Y-53486761D01*
X136080571Y-53534380D01*
X136271047Y-53534380D01*
X136366285Y-53486761D01*
X136413904Y-53439142D01*
X136461523Y-53343904D01*
X136461523Y-52534380D01*
X136842476Y-52534380D02*
X137461523Y-52534380D01*
X137128190Y-52915333D01*
X137271047Y-52915333D01*
X137366285Y-52962952D01*
X137413904Y-53010571D01*
X137461523Y-53105809D01*
X137461523Y-53343904D01*
X137413904Y-53439142D01*
X137366285Y-53486761D01*
X137271047Y-53534380D01*
X136985333Y-53534380D01*
X136890095Y-53486761D01*
X136842476Y-53439142D01*
X150113904Y-87615619D02*
X150113904Y-86806095D01*
X150066285Y-86710857D01*
X150018666Y-86663238D01*
X149923428Y-86615619D01*
X149732952Y-86615619D01*
X149637714Y-86663238D01*
X149590095Y-86710857D01*
X149542476Y-86806095D01*
X149542476Y-87615619D01*
X148542476Y-86615619D02*
X149113904Y-86615619D01*
X148828190Y-86615619D02*
X148828190Y-87615619D01*
X148923428Y-87472761D01*
X149018666Y-87377523D01*
X149113904Y-87329904D01*
X133204761Y-128533333D02*
X133252380Y-128390476D01*
X133252380Y-128152380D01*
X133204761Y-128057142D01*
X133157142Y-128009523D01*
X133061904Y-127961904D01*
X132966666Y-127961904D01*
X132871428Y-128009523D01*
X132823809Y-128057142D01*
X132776190Y-128152380D01*
X132728571Y-128342857D01*
X132680952Y-128438095D01*
X132633333Y-128485714D01*
X132538095Y-128533333D01*
X132442857Y-128533333D01*
X132347619Y-128485714D01*
X132300000Y-128438095D01*
X132252380Y-128342857D01*
X132252380Y-128104761D01*
X132300000Y-127961904D01*
X132252380Y-127628571D02*
X133252380Y-127390476D01*
X132538095Y-127200000D01*
X133252380Y-127009523D01*
X132252380Y-126771428D01*
X132347619Y-126438095D02*
X132300000Y-126390476D01*
X132252380Y-126295238D01*
X132252380Y-126057142D01*
X132300000Y-125961904D01*
X132347619Y-125914285D01*
X132442857Y-125866666D01*
X132538095Y-125866666D01*
X132680952Y-125914285D01*
X133252380Y-126485714D01*
X133252380Y-125866666D01*
X164766666Y-80604761D02*
X164909523Y-80652380D01*
X165147619Y-80652380D01*
X165242857Y-80604761D01*
X165290476Y-80557142D01*
X165338095Y-80461904D01*
X165338095Y-80366666D01*
X165290476Y-80271428D01*
X165242857Y-80223809D01*
X165147619Y-80176190D01*
X164957142Y-80128571D01*
X164861904Y-80080952D01*
X164814285Y-80033333D01*
X164766666Y-79938095D01*
X164766666Y-79842857D01*
X164814285Y-79747619D01*
X164861904Y-79700000D01*
X164957142Y-79652380D01*
X165195238Y-79652380D01*
X165338095Y-79700000D01*
X165671428Y-79652380D02*
X165909523Y-80652380D01*
X166100000Y-79938095D01*
X166290476Y-80652380D01*
X166528571Y-79652380D01*
X167433333Y-80652380D02*
X166861904Y-80652380D01*
X167147619Y-80652380D02*
X167147619Y-79652380D01*
X167052380Y-79795238D01*
X166957142Y-79890476D01*
X166861904Y-79938095D01*
X161409142Y-97226380D02*
X161075809Y-96750190D01*
X160837714Y-97226380D02*
X160837714Y-96226380D01*
X161218666Y-96226380D01*
X161313904Y-96274000D01*
X161361523Y-96321619D01*
X161409142Y-96416857D01*
X161409142Y-96559714D01*
X161361523Y-96654952D01*
X161313904Y-96702571D01*
X161218666Y-96750190D01*
X160837714Y-96750190D01*
X162361523Y-97226380D02*
X161790095Y-97226380D01*
X162075809Y-97226380D02*
X162075809Y-96226380D01*
X161980571Y-96369238D01*
X161885333Y-96464476D01*
X161790095Y-96512095D01*
X163218666Y-96226380D02*
X163028190Y-96226380D01*
X162932952Y-96274000D01*
X162885333Y-96321619D01*
X162790095Y-96464476D01*
X162742476Y-96654952D01*
X162742476Y-97035904D01*
X162790095Y-97131142D01*
X162837714Y-97178761D01*
X162932952Y-97226380D01*
X163123428Y-97226380D01*
X163218666Y-97178761D01*
X163266285Y-97131142D01*
X163313904Y-97035904D01*
X163313904Y-96797809D01*
X163266285Y-96702571D01*
X163218666Y-96654952D01*
X163123428Y-96607333D01*
X162932952Y-96607333D01*
X162837714Y-96654952D01*
X162790095Y-96702571D01*
X162742476Y-96797809D01*
X162425142Y-106022380D02*
X162091809Y-105546190D01*
X161853714Y-106022380D02*
X161853714Y-105022380D01*
X162234666Y-105022380D01*
X162329904Y-105070000D01*
X162377523Y-105117619D01*
X162425142Y-105212857D01*
X162425142Y-105355714D01*
X162377523Y-105450952D01*
X162329904Y-105498571D01*
X162234666Y-105546190D01*
X161853714Y-105546190D01*
X163377523Y-106022380D02*
X162806095Y-106022380D01*
X163091809Y-106022380D02*
X163091809Y-105022380D01*
X162996571Y-105165238D01*
X162901333Y-105260476D01*
X162806095Y-105308095D01*
X164282285Y-105022380D02*
X163806095Y-105022380D01*
X163758476Y-105498571D01*
X163806095Y-105450952D01*
X163901333Y-105403333D01*
X164139428Y-105403333D01*
X164234666Y-105450952D01*
X164282285Y-105498571D01*
X164329904Y-105593809D01*
X164329904Y-105831904D01*
X164282285Y-105927142D01*
X164234666Y-105974761D01*
X164139428Y-106022380D01*
X163901333Y-106022380D01*
X163806095Y-105974761D01*
X163758476Y-105927142D01*
X132199142Y-132372380D02*
X131865809Y-131896190D01*
X131627714Y-132372380D02*
X131627714Y-131372380D01*
X132008666Y-131372380D01*
X132103904Y-131420000D01*
X132151523Y-131467619D01*
X132199142Y-131562857D01*
X132199142Y-131705714D01*
X132151523Y-131800952D01*
X132103904Y-131848571D01*
X132008666Y-131896190D01*
X131627714Y-131896190D01*
X133151523Y-132372380D02*
X132580095Y-132372380D01*
X132865809Y-132372380D02*
X132865809Y-131372380D01*
X132770571Y-131515238D01*
X132675333Y-131610476D01*
X132580095Y-131658095D01*
X134008666Y-131705714D02*
X134008666Y-132372380D01*
X133770571Y-131324761D02*
X133532476Y-132039047D01*
X134151523Y-132039047D01*
X154470380Y-113672857D02*
X153994190Y-114006190D01*
X154470380Y-114244285D02*
X153470380Y-114244285D01*
X153470380Y-113863333D01*
X153518000Y-113768095D01*
X153565619Y-113720476D01*
X153660857Y-113672857D01*
X153803714Y-113672857D01*
X153898952Y-113720476D01*
X153946571Y-113768095D01*
X153994190Y-113863333D01*
X153994190Y-114244285D01*
X154470380Y-112720476D02*
X154470380Y-113291904D01*
X154470380Y-113006190D02*
X153470380Y-113006190D01*
X153613238Y-113101428D01*
X153708476Y-113196666D01*
X153756095Y-113291904D01*
X153470380Y-112387142D02*
X153470380Y-111768095D01*
X153851333Y-112101428D01*
X153851333Y-111958571D01*
X153898952Y-111863333D01*
X153946571Y-111815714D01*
X154041809Y-111768095D01*
X154279904Y-111768095D01*
X154375142Y-111815714D01*
X154422761Y-111863333D01*
X154470380Y-111958571D01*
X154470380Y-112244285D01*
X154422761Y-112339523D01*
X154375142Y-112387142D01*
X151676380Y-113672857D02*
X151200190Y-114006190D01*
X151676380Y-114244285D02*
X150676380Y-114244285D01*
X150676380Y-113863333D01*
X150724000Y-113768095D01*
X150771619Y-113720476D01*
X150866857Y-113672857D01*
X151009714Y-113672857D01*
X151104952Y-113720476D01*
X151152571Y-113768095D01*
X151200190Y-113863333D01*
X151200190Y-114244285D01*
X151676380Y-112720476D02*
X151676380Y-113291904D01*
X151676380Y-113006190D02*
X150676380Y-113006190D01*
X150819238Y-113101428D01*
X150914476Y-113196666D01*
X150962095Y-113291904D01*
X150771619Y-112339523D02*
X150724000Y-112291904D01*
X150676380Y-112196666D01*
X150676380Y-111958571D01*
X150724000Y-111863333D01*
X150771619Y-111815714D01*
X150866857Y-111768095D01*
X150962095Y-111768095D01*
X151104952Y-111815714D01*
X151676380Y-112387142D01*
X151676380Y-111768095D01*
X165512380Y-166050857D02*
X165036190Y-166384190D01*
X165512380Y-166622285D02*
X164512380Y-166622285D01*
X164512380Y-166241333D01*
X164560000Y-166146095D01*
X164607619Y-166098476D01*
X164702857Y-166050857D01*
X164845714Y-166050857D01*
X164940952Y-166098476D01*
X164988571Y-166146095D01*
X165036190Y-166241333D01*
X165036190Y-166622285D01*
X165512380Y-165098476D02*
X165512380Y-165669904D01*
X165512380Y-165384190D02*
X164512380Y-165384190D01*
X164655238Y-165479428D01*
X164750476Y-165574666D01*
X164798095Y-165669904D01*
X165512380Y-164146095D02*
X165512380Y-164717523D01*
X165512380Y-164431809D02*
X164512380Y-164431809D01*
X164655238Y-164527047D01*
X164750476Y-164622285D01*
X164798095Y-164717523D01*
X131982380Y-48742857D02*
X131506190Y-49076190D01*
X131982380Y-49314285D02*
X130982380Y-49314285D01*
X130982380Y-48933333D01*
X131030000Y-48838095D01*
X131077619Y-48790476D01*
X131172857Y-48742857D01*
X131315714Y-48742857D01*
X131410952Y-48790476D01*
X131458571Y-48838095D01*
X131506190Y-48933333D01*
X131506190Y-49314285D01*
X131982380Y-47790476D02*
X131982380Y-48361904D01*
X131982380Y-48076190D02*
X130982380Y-48076190D01*
X131125238Y-48171428D01*
X131220476Y-48266666D01*
X131268095Y-48361904D01*
X130982380Y-47171428D02*
X130982380Y-47076190D01*
X131030000Y-46980952D01*
X131077619Y-46933333D01*
X131172857Y-46885714D01*
X131363333Y-46838095D01*
X131601428Y-46838095D01*
X131791904Y-46885714D01*
X131887142Y-46933333D01*
X131934761Y-46980952D01*
X131982380Y-47076190D01*
X131982380Y-47171428D01*
X131934761Y-47266666D01*
X131887142Y-47314285D01*
X131791904Y-47361904D01*
X131601428Y-47409523D01*
X131363333Y-47409523D01*
X131172857Y-47361904D01*
X131077619Y-47314285D01*
X131030000Y-47266666D01*
X130982380Y-47171428D01*
X165949333Y-139042380D02*
X165616000Y-138566190D01*
X165377904Y-139042380D02*
X165377904Y-138042380D01*
X165758857Y-138042380D01*
X165854095Y-138090000D01*
X165901714Y-138137619D01*
X165949333Y-138232857D01*
X165949333Y-138375714D01*
X165901714Y-138470952D01*
X165854095Y-138518571D01*
X165758857Y-138566190D01*
X165377904Y-138566190D01*
X166425523Y-139042380D02*
X166616000Y-139042380D01*
X166711238Y-138994761D01*
X166758857Y-138947142D01*
X166854095Y-138804285D01*
X166901714Y-138613809D01*
X166901714Y-138232857D01*
X166854095Y-138137619D01*
X166806476Y-138090000D01*
X166711238Y-138042380D01*
X166520761Y-138042380D01*
X166425523Y-138090000D01*
X166377904Y-138137619D01*
X166330285Y-138232857D01*
X166330285Y-138470952D01*
X166377904Y-138566190D01*
X166425523Y-138613809D01*
X166520761Y-138661428D01*
X166711238Y-138661428D01*
X166806476Y-138613809D01*
X166854095Y-138566190D01*
X166901714Y-138470952D01*
X144216380Y-121578666D02*
X143740190Y-121912000D01*
X144216380Y-122150095D02*
X143216380Y-122150095D01*
X143216380Y-121769142D01*
X143264000Y-121673904D01*
X143311619Y-121626285D01*
X143406857Y-121578666D01*
X143549714Y-121578666D01*
X143644952Y-121626285D01*
X143692571Y-121673904D01*
X143740190Y-121769142D01*
X143740190Y-122150095D01*
X143644952Y-121007238D02*
X143597333Y-121102476D01*
X143549714Y-121150095D01*
X143454476Y-121197714D01*
X143406857Y-121197714D01*
X143311619Y-121150095D01*
X143264000Y-121102476D01*
X143216380Y-121007238D01*
X143216380Y-120816761D01*
X143264000Y-120721523D01*
X143311619Y-120673904D01*
X143406857Y-120626285D01*
X143454476Y-120626285D01*
X143549714Y-120673904D01*
X143597333Y-120721523D01*
X143644952Y-120816761D01*
X143644952Y-121007238D01*
X143692571Y-121102476D01*
X143740190Y-121150095D01*
X143835428Y-121197714D01*
X144025904Y-121197714D01*
X144121142Y-121150095D01*
X144168761Y-121102476D01*
X144216380Y-121007238D01*
X144216380Y-120816761D01*
X144168761Y-120721523D01*
X144121142Y-120673904D01*
X144025904Y-120626285D01*
X143835428Y-120626285D01*
X143740190Y-120673904D01*
X143692571Y-120721523D01*
X143644952Y-120816761D01*
X144216380Y-115736666D02*
X143740190Y-116070000D01*
X144216380Y-116308095D02*
X143216380Y-116308095D01*
X143216380Y-115927142D01*
X143264000Y-115831904D01*
X143311619Y-115784285D01*
X143406857Y-115736666D01*
X143549714Y-115736666D01*
X143644952Y-115784285D01*
X143692571Y-115831904D01*
X143740190Y-115927142D01*
X143740190Y-116308095D01*
X143216380Y-115403333D02*
X143216380Y-114736666D01*
X144216380Y-115165238D01*
X144216380Y-110656666D02*
X143740190Y-110990000D01*
X144216380Y-111228095D02*
X143216380Y-111228095D01*
X143216380Y-110847142D01*
X143264000Y-110751904D01*
X143311619Y-110704285D01*
X143406857Y-110656666D01*
X143549714Y-110656666D01*
X143644952Y-110704285D01*
X143692571Y-110751904D01*
X143740190Y-110847142D01*
X143740190Y-111228095D01*
X143216380Y-109799523D02*
X143216380Y-109990000D01*
X143264000Y-110085238D01*
X143311619Y-110132857D01*
X143454476Y-110228095D01*
X143644952Y-110275714D01*
X144025904Y-110275714D01*
X144121142Y-110228095D01*
X144168761Y-110180476D01*
X144216380Y-110085238D01*
X144216380Y-109894761D01*
X144168761Y-109799523D01*
X144121142Y-109751904D01*
X144025904Y-109704285D01*
X143787809Y-109704285D01*
X143692571Y-109751904D01*
X143644952Y-109799523D01*
X143597333Y-109894761D01*
X143597333Y-110085238D01*
X143644952Y-110180476D01*
X143692571Y-110228095D01*
X143787809Y-110275714D01*
X135533333Y-119852380D02*
X135200000Y-119376190D01*
X134961904Y-119852380D02*
X134961904Y-118852380D01*
X135342857Y-118852380D01*
X135438095Y-118900000D01*
X135485714Y-118947619D01*
X135533333Y-119042857D01*
X135533333Y-119185714D01*
X135485714Y-119280952D01*
X135438095Y-119328571D01*
X135342857Y-119376190D01*
X134961904Y-119376190D01*
X136438095Y-118852380D02*
X135961904Y-118852380D01*
X135914285Y-119328571D01*
X135961904Y-119280952D01*
X136057142Y-119233333D01*
X136295238Y-119233333D01*
X136390476Y-119280952D01*
X136438095Y-119328571D01*
X136485714Y-119423809D01*
X136485714Y-119661904D01*
X136438095Y-119757142D01*
X136390476Y-119804761D01*
X136295238Y-119852380D01*
X136057142Y-119852380D01*
X135961904Y-119804761D01*
X135914285Y-119757142D01*
X131102380Y-110910666D02*
X130626190Y-111244000D01*
X131102380Y-111482095D02*
X130102380Y-111482095D01*
X130102380Y-111101142D01*
X130150000Y-111005904D01*
X130197619Y-110958285D01*
X130292857Y-110910666D01*
X130435714Y-110910666D01*
X130530952Y-110958285D01*
X130578571Y-111005904D01*
X130626190Y-111101142D01*
X130626190Y-111482095D01*
X130435714Y-110053523D02*
X131102380Y-110053523D01*
X130054761Y-110291619D02*
X130769047Y-110529714D01*
X130769047Y-109910666D01*
X134453333Y-109258380D02*
X134120000Y-108782190D01*
X133881904Y-109258380D02*
X133881904Y-108258380D01*
X134262857Y-108258380D01*
X134358095Y-108306000D01*
X134405714Y-108353619D01*
X134453333Y-108448857D01*
X134453333Y-108591714D01*
X134405714Y-108686952D01*
X134358095Y-108734571D01*
X134262857Y-108782190D01*
X133881904Y-108782190D01*
X134786666Y-108258380D02*
X135405714Y-108258380D01*
X135072380Y-108639333D01*
X135215238Y-108639333D01*
X135310476Y-108686952D01*
X135358095Y-108734571D01*
X135405714Y-108829809D01*
X135405714Y-109067904D01*
X135358095Y-109163142D01*
X135310476Y-109210761D01*
X135215238Y-109258380D01*
X134929523Y-109258380D01*
X134834285Y-109210761D01*
X134786666Y-109163142D01*
X129324380Y-55538666D02*
X128848190Y-55872000D01*
X129324380Y-56110095D02*
X128324380Y-56110095D01*
X128324380Y-55729142D01*
X128372000Y-55633904D01*
X128419619Y-55586285D01*
X128514857Y-55538666D01*
X128657714Y-55538666D01*
X128752952Y-55586285D01*
X128800571Y-55633904D01*
X128848190Y-55729142D01*
X128848190Y-56110095D01*
X128419619Y-55157714D02*
X128372000Y-55110095D01*
X128324380Y-55014857D01*
X128324380Y-54776761D01*
X128372000Y-54681523D01*
X128419619Y-54633904D01*
X128514857Y-54586285D01*
X128610095Y-54586285D01*
X128752952Y-54633904D01*
X129324380Y-55205333D01*
X129324380Y-54586285D01*
X144613333Y-85034380D02*
X144280000Y-84558190D01*
X144041904Y-85034380D02*
X144041904Y-84034380D01*
X144422857Y-84034380D01*
X144518095Y-84082000D01*
X144565714Y-84129619D01*
X144613333Y-84224857D01*
X144613333Y-84367714D01*
X144565714Y-84462952D01*
X144518095Y-84510571D01*
X144422857Y-84558190D01*
X144041904Y-84558190D01*
X145565714Y-85034380D02*
X144994285Y-85034380D01*
X145280000Y-85034380D02*
X145280000Y-84034380D01*
X145184761Y-84177238D01*
X145089523Y-84272476D01*
X144994285Y-84320095D01*
X165099619Y-101187238D02*
X165052000Y-101282476D01*
X164956761Y-101377714D01*
X164813904Y-101520571D01*
X164766285Y-101615809D01*
X164766285Y-101711047D01*
X165004380Y-101663428D02*
X164956761Y-101758666D01*
X164861523Y-101853904D01*
X164671047Y-101901523D01*
X164337714Y-101901523D01*
X164147238Y-101853904D01*
X164052000Y-101758666D01*
X164004380Y-101663428D01*
X164004380Y-101472952D01*
X164052000Y-101377714D01*
X164147238Y-101282476D01*
X164337714Y-101234857D01*
X164671047Y-101234857D01*
X164861523Y-101282476D01*
X164956761Y-101377714D01*
X165004380Y-101472952D01*
X165004380Y-101663428D01*
X165004380Y-100758666D02*
X165004380Y-100568190D01*
X164956761Y-100472952D01*
X164909142Y-100425333D01*
X164766285Y-100330095D01*
X164575809Y-100282476D01*
X164194857Y-100282476D01*
X164099619Y-100330095D01*
X164052000Y-100377714D01*
X164004380Y-100472952D01*
X164004380Y-100663428D01*
X164052000Y-100758666D01*
X164099619Y-100806285D01*
X164194857Y-100853904D01*
X164432952Y-100853904D01*
X164528190Y-100806285D01*
X164575809Y-100758666D01*
X164623428Y-100663428D01*
X164623428Y-100472952D01*
X164575809Y-100377714D01*
X164528190Y-100330095D01*
X164432952Y-100282476D01*
X169163619Y-141065238D02*
X169116000Y-141160476D01*
X169020761Y-141255714D01*
X168877904Y-141398571D01*
X168830285Y-141493809D01*
X168830285Y-141589047D01*
X169068380Y-141541428D02*
X169020761Y-141636666D01*
X168925523Y-141731904D01*
X168735047Y-141779523D01*
X168401714Y-141779523D01*
X168211238Y-141731904D01*
X168116000Y-141636666D01*
X168068380Y-141541428D01*
X168068380Y-141350952D01*
X168116000Y-141255714D01*
X168211238Y-141160476D01*
X168401714Y-141112857D01*
X168735047Y-141112857D01*
X168925523Y-141160476D01*
X169020761Y-141255714D01*
X169068380Y-141350952D01*
X169068380Y-141541428D01*
X168496952Y-140541428D02*
X168449333Y-140636666D01*
X168401714Y-140684285D01*
X168306476Y-140731904D01*
X168258857Y-140731904D01*
X168163619Y-140684285D01*
X168116000Y-140636666D01*
X168068380Y-140541428D01*
X168068380Y-140350952D01*
X168116000Y-140255714D01*
X168163619Y-140208095D01*
X168258857Y-140160476D01*
X168306476Y-140160476D01*
X168401714Y-140208095D01*
X168449333Y-140255714D01*
X168496952Y-140350952D01*
X168496952Y-140541428D01*
X168544571Y-140636666D01*
X168592190Y-140684285D01*
X168687428Y-140731904D01*
X168877904Y-140731904D01*
X168973142Y-140684285D01*
X169020761Y-140636666D01*
X169068380Y-140541428D01*
X169068380Y-140350952D01*
X169020761Y-140255714D01*
X168973142Y-140208095D01*
X168877904Y-140160476D01*
X168687428Y-140160476D01*
X168592190Y-140208095D01*
X168544571Y-140255714D01*
X168496952Y-140350952D01*
X142144761Y-104687619D02*
X142049523Y-104640000D01*
X141954285Y-104544761D01*
X141811428Y-104401904D01*
X141716190Y-104354285D01*
X141620952Y-104354285D01*
X141668571Y-104592380D02*
X141573333Y-104544761D01*
X141478095Y-104449523D01*
X141430476Y-104259047D01*
X141430476Y-103925714D01*
X141478095Y-103735238D01*
X141573333Y-103640000D01*
X141668571Y-103592380D01*
X141859047Y-103592380D01*
X141954285Y-103640000D01*
X142049523Y-103735238D01*
X142097142Y-103925714D01*
X142097142Y-104259047D01*
X142049523Y-104449523D01*
X141954285Y-104544761D01*
X141859047Y-104592380D01*
X141668571Y-104592380D01*
X142430476Y-103592380D02*
X143097142Y-103592380D01*
X142668571Y-104592380D01*
X139350761Y-124459619D02*
X139255523Y-124412000D01*
X139160285Y-124316761D01*
X139017428Y-124173904D01*
X138922190Y-124126285D01*
X138826952Y-124126285D01*
X138874571Y-124364380D02*
X138779333Y-124316761D01*
X138684095Y-124221523D01*
X138636476Y-124031047D01*
X138636476Y-123697714D01*
X138684095Y-123507238D01*
X138779333Y-123412000D01*
X138874571Y-123364380D01*
X139065047Y-123364380D01*
X139160285Y-123412000D01*
X139255523Y-123507238D01*
X139303142Y-123697714D01*
X139303142Y-124031047D01*
X139255523Y-124221523D01*
X139160285Y-124316761D01*
X139065047Y-124364380D01*
X138874571Y-124364380D01*
X140160285Y-123364380D02*
X139969809Y-123364380D01*
X139874571Y-123412000D01*
X139826952Y-123459619D01*
X139731714Y-123602476D01*
X139684095Y-123792952D01*
X139684095Y-124173904D01*
X139731714Y-124269142D01*
X139779333Y-124316761D01*
X139874571Y-124364380D01*
X140065047Y-124364380D01*
X140160285Y-124316761D01*
X140207904Y-124269142D01*
X140255523Y-124173904D01*
X140255523Y-123935809D01*
X140207904Y-123840571D01*
X140160285Y-123792952D01*
X140065047Y-123745333D01*
X139874571Y-123745333D01*
X139779333Y-123792952D01*
X139731714Y-123840571D01*
X139684095Y-123935809D01*
X139350761Y-118617619D02*
X139255523Y-118570000D01*
X139160285Y-118474761D01*
X139017428Y-118331904D01*
X138922190Y-118284285D01*
X138826952Y-118284285D01*
X138874571Y-118522380D02*
X138779333Y-118474761D01*
X138684095Y-118379523D01*
X138636476Y-118189047D01*
X138636476Y-117855714D01*
X138684095Y-117665238D01*
X138779333Y-117570000D01*
X138874571Y-117522380D01*
X139065047Y-117522380D01*
X139160285Y-117570000D01*
X139255523Y-117665238D01*
X139303142Y-117855714D01*
X139303142Y-118189047D01*
X139255523Y-118379523D01*
X139160285Y-118474761D01*
X139065047Y-118522380D01*
X138874571Y-118522380D01*
X140207904Y-117522380D02*
X139731714Y-117522380D01*
X139684095Y-117998571D01*
X139731714Y-117950952D01*
X139826952Y-117903333D01*
X140065047Y-117903333D01*
X140160285Y-117950952D01*
X140207904Y-117998571D01*
X140255523Y-118093809D01*
X140255523Y-118331904D01*
X140207904Y-118427142D01*
X140160285Y-118474761D01*
X140065047Y-118522380D01*
X139826952Y-118522380D01*
X139731714Y-118474761D01*
X139684095Y-118427142D01*
X139096761Y-113537619D02*
X139001523Y-113490000D01*
X138906285Y-113394761D01*
X138763428Y-113251904D01*
X138668190Y-113204285D01*
X138572952Y-113204285D01*
X138620571Y-113442380D02*
X138525333Y-113394761D01*
X138430095Y-113299523D01*
X138382476Y-113109047D01*
X138382476Y-112775714D01*
X138430095Y-112585238D01*
X138525333Y-112490000D01*
X138620571Y-112442380D01*
X138811047Y-112442380D01*
X138906285Y-112490000D01*
X139001523Y-112585238D01*
X139049142Y-112775714D01*
X139049142Y-113109047D01*
X139001523Y-113299523D01*
X138906285Y-113394761D01*
X138811047Y-113442380D01*
X138620571Y-113442380D01*
X139906285Y-112775714D02*
X139906285Y-113442380D01*
X139668190Y-112394761D02*
X139430095Y-113109047D01*
X140049142Y-113109047D01*
X153241619Y-66897238D02*
X153194000Y-66992476D01*
X153098761Y-67087714D01*
X152955904Y-67230571D01*
X152908285Y-67325809D01*
X152908285Y-67421047D01*
X153146380Y-67373428D02*
X153098761Y-67468666D01*
X153003523Y-67563904D01*
X152813047Y-67611523D01*
X152479714Y-67611523D01*
X152289238Y-67563904D01*
X152194000Y-67468666D01*
X152146380Y-67373428D01*
X152146380Y-67182952D01*
X152194000Y-67087714D01*
X152289238Y-66992476D01*
X152479714Y-66944857D01*
X152813047Y-66944857D01*
X153003523Y-66992476D01*
X153098761Y-67087714D01*
X153146380Y-67182952D01*
X153146380Y-67373428D01*
X152146380Y-66611523D02*
X152146380Y-65992476D01*
X152527333Y-66325809D01*
X152527333Y-66182952D01*
X152574952Y-66087714D01*
X152622571Y-66040095D01*
X152717809Y-65992476D01*
X152955904Y-65992476D01*
X153051142Y-66040095D01*
X153098761Y-66087714D01*
X153146380Y-66182952D01*
X153146380Y-66468666D01*
X153098761Y-66563904D01*
X153051142Y-66611523D01*
X147653619Y-66643238D02*
X147606000Y-66738476D01*
X147510761Y-66833714D01*
X147367904Y-66976571D01*
X147320285Y-67071809D01*
X147320285Y-67167047D01*
X147558380Y-67119428D02*
X147510761Y-67214666D01*
X147415523Y-67309904D01*
X147225047Y-67357523D01*
X146891714Y-67357523D01*
X146701238Y-67309904D01*
X146606000Y-67214666D01*
X146558380Y-67119428D01*
X146558380Y-66928952D01*
X146606000Y-66833714D01*
X146701238Y-66738476D01*
X146891714Y-66690857D01*
X147225047Y-66690857D01*
X147415523Y-66738476D01*
X147510761Y-66833714D01*
X147558380Y-66928952D01*
X147558380Y-67119428D01*
X146653619Y-66309904D02*
X146606000Y-66262285D01*
X146558380Y-66167047D01*
X146558380Y-65928952D01*
X146606000Y-65833714D01*
X146653619Y-65786095D01*
X146748857Y-65738476D01*
X146844095Y-65738476D01*
X146986952Y-65786095D01*
X147558380Y-66357523D01*
X147558380Y-65738476D01*
X158321619Y-66897238D02*
X158274000Y-66992476D01*
X158178761Y-67087714D01*
X158035904Y-67230571D01*
X157988285Y-67325809D01*
X157988285Y-67421047D01*
X158226380Y-67373428D02*
X158178761Y-67468666D01*
X158083523Y-67563904D01*
X157893047Y-67611523D01*
X157559714Y-67611523D01*
X157369238Y-67563904D01*
X157274000Y-67468666D01*
X157226380Y-67373428D01*
X157226380Y-67182952D01*
X157274000Y-67087714D01*
X157369238Y-66992476D01*
X157559714Y-66944857D01*
X157893047Y-66944857D01*
X158083523Y-66992476D01*
X158178761Y-67087714D01*
X158226380Y-67182952D01*
X158226380Y-67373428D01*
X158226380Y-65992476D02*
X158226380Y-66563904D01*
X158226380Y-66278190D02*
X157226380Y-66278190D01*
X157369238Y-66373428D01*
X157464476Y-66468666D01*
X157512095Y-66563904D01*
X144696380Y-109807333D02*
X145410666Y-109807333D01*
X145553523Y-109854952D01*
X145648761Y-109950190D01*
X145696380Y-110093047D01*
X145696380Y-110188285D01*
X144696380Y-108902571D02*
X144696380Y-109093047D01*
X144744000Y-109188285D01*
X144791619Y-109235904D01*
X144934476Y-109331142D01*
X145124952Y-109378761D01*
X145505904Y-109378761D01*
X145601142Y-109331142D01*
X145648761Y-109283523D01*
X145696380Y-109188285D01*
X145696380Y-108997809D01*
X145648761Y-108902571D01*
X145601142Y-108854952D01*
X145505904Y-108807333D01*
X145267809Y-108807333D01*
X145172571Y-108854952D01*
X145124952Y-108902571D01*
X145077333Y-108997809D01*
X145077333Y-109188285D01*
X145124952Y-109283523D01*
X145172571Y-109331142D01*
X145267809Y-109378761D01*
X121942380Y-99901333D02*
X122656666Y-99901333D01*
X122799523Y-99948952D01*
X122894761Y-100044190D01*
X122942380Y-100187047D01*
X122942380Y-100282285D01*
X121942380Y-99520380D02*
X121942380Y-98901333D01*
X122323333Y-99234666D01*
X122323333Y-99091809D01*
X122370952Y-98996571D01*
X122418571Y-98948952D01*
X122513809Y-98901333D01*
X122751904Y-98901333D01*
X122847142Y-98948952D01*
X122894761Y-98996571D01*
X122942380Y-99091809D01*
X122942380Y-99377523D01*
X122894761Y-99472761D01*
X122847142Y-99520380D01*
X154766666Y-51952380D02*
X154766666Y-52666666D01*
X154719047Y-52809523D01*
X154623809Y-52904761D01*
X154480952Y-52952380D01*
X154385714Y-52952380D01*
X155195238Y-52047619D02*
X155242857Y-52000000D01*
X155338095Y-51952380D01*
X155576190Y-51952380D01*
X155671428Y-52000000D01*
X155719047Y-52047619D01*
X155766666Y-52142857D01*
X155766666Y-52238095D01*
X155719047Y-52380952D01*
X155147619Y-52952380D01*
X155766666Y-52952380D01*
X130752380Y-81994333D02*
X131466666Y-81994333D01*
X131609523Y-82041952D01*
X131704761Y-82137190D01*
X131752380Y-82280047D01*
X131752380Y-82375285D01*
X131752380Y-80994333D02*
X131752380Y-81565761D01*
X131752380Y-81280047D02*
X130752380Y-81280047D01*
X130895238Y-81375285D01*
X130990476Y-81470523D01*
X131038095Y-81565761D01*
X166044666Y-98354571D02*
X165711333Y-98354571D01*
X165711333Y-98878380D02*
X165711333Y-97878380D01*
X166187523Y-97878380D01*
X166901809Y-98354571D02*
X167044666Y-98402190D01*
X167092285Y-98449809D01*
X167139904Y-98545047D01*
X167139904Y-98687904D01*
X167092285Y-98783142D01*
X167044666Y-98830761D01*
X166949428Y-98878380D01*
X166568476Y-98878380D01*
X166568476Y-97878380D01*
X166901809Y-97878380D01*
X166997047Y-97926000D01*
X167044666Y-97973619D01*
X167092285Y-98068857D01*
X167092285Y-98164095D01*
X167044666Y-98259333D01*
X166997047Y-98306952D01*
X166901809Y-98354571D01*
X166568476Y-98354571D01*
X167520857Y-97973619D02*
X167568476Y-97926000D01*
X167663714Y-97878380D01*
X167901809Y-97878380D01*
X167997047Y-97926000D01*
X168044666Y-97973619D01*
X168092285Y-98068857D01*
X168092285Y-98164095D01*
X168044666Y-98306952D01*
X167473238Y-98878380D01*
X168092285Y-98878380D01*
X166044666Y-105718571D02*
X165711333Y-105718571D01*
X165711333Y-106242380D02*
X165711333Y-105242380D01*
X166187523Y-105242380D01*
X166901809Y-105718571D02*
X167044666Y-105766190D01*
X167092285Y-105813809D01*
X167139904Y-105909047D01*
X167139904Y-106051904D01*
X167092285Y-106147142D01*
X167044666Y-106194761D01*
X166949428Y-106242380D01*
X166568476Y-106242380D01*
X166568476Y-105242380D01*
X166901809Y-105242380D01*
X166997047Y-105290000D01*
X167044666Y-105337619D01*
X167092285Y-105432857D01*
X167092285Y-105528095D01*
X167044666Y-105623333D01*
X166997047Y-105670952D01*
X166901809Y-105718571D01*
X166568476Y-105718571D01*
X168092285Y-106242380D02*
X167520857Y-106242380D01*
X167806571Y-106242380D02*
X167806571Y-105242380D01*
X167711333Y-105385238D01*
X167616095Y-105480476D01*
X167520857Y-105528095D01*
X160892380Y-146788095D02*
X159892380Y-146788095D01*
X159892380Y-146550000D01*
X159940000Y-146407142D01*
X160035238Y-146311904D01*
X160130476Y-146264285D01*
X160320952Y-146216666D01*
X160463809Y-146216666D01*
X160654285Y-146264285D01*
X160749523Y-146311904D01*
X160844761Y-146407142D01*
X160892380Y-146550000D01*
X160892380Y-146788095D01*
X159987619Y-145835714D02*
X159940000Y-145788095D01*
X159892380Y-145692857D01*
X159892380Y-145454761D01*
X159940000Y-145359523D01*
X159987619Y-145311904D01*
X160082857Y-145264285D01*
X160178095Y-145264285D01*
X160320952Y-145311904D01*
X160892380Y-145883333D01*
X160892380Y-145264285D01*
X161212380Y-150121904D02*
X160212380Y-150121904D01*
X161212380Y-149550476D02*
X160640952Y-149979047D01*
X160212380Y-149550476D02*
X160783809Y-150121904D01*
X136248380Y-116054095D02*
X135248380Y-116054095D01*
X135248380Y-115816000D01*
X135296000Y-115673142D01*
X135391238Y-115577904D01*
X135486476Y-115530285D01*
X135676952Y-115482666D01*
X135819809Y-115482666D01*
X136010285Y-115530285D01*
X136105523Y-115577904D01*
X136200761Y-115673142D01*
X136248380Y-115816000D01*
X136248380Y-116054095D01*
X136248380Y-114530285D02*
X136248380Y-115101714D01*
X136248380Y-114816000D02*
X135248380Y-114816000D01*
X135391238Y-114911238D01*
X135486476Y-115006476D01*
X135534095Y-115101714D01*
X152487333Y-91163142D02*
X152439714Y-91210761D01*
X152296857Y-91258380D01*
X152201619Y-91258380D01*
X152058761Y-91210761D01*
X151963523Y-91115523D01*
X151915904Y-91020285D01*
X151868285Y-90829809D01*
X151868285Y-90686952D01*
X151915904Y-90496476D01*
X151963523Y-90401238D01*
X152058761Y-90306000D01*
X152201619Y-90258380D01*
X152296857Y-90258380D01*
X152439714Y-90306000D01*
X152487333Y-90353619D01*
X153344476Y-90591714D02*
X153344476Y-91258380D01*
X153106380Y-90210761D02*
X152868285Y-90925047D01*
X153487333Y-90925047D01*
X147551142Y-91606666D02*
X147598761Y-91654285D01*
X147646380Y-91797142D01*
X147646380Y-91892380D01*
X147598761Y-92035238D01*
X147503523Y-92130476D01*
X147408285Y-92178095D01*
X147217809Y-92225714D01*
X147074952Y-92225714D01*
X146884476Y-92178095D01*
X146789238Y-92130476D01*
X146694000Y-92035238D01*
X146646380Y-91892380D01*
X146646380Y-91797142D01*
X146694000Y-91654285D01*
X146741619Y-91606666D01*
X146646380Y-91273333D02*
X146646380Y-90654285D01*
X147027333Y-90987619D01*
X147027333Y-90844761D01*
X147074952Y-90749523D01*
X147122571Y-90701904D01*
X147217809Y-90654285D01*
X147455904Y-90654285D01*
X147551142Y-90701904D01*
X147598761Y-90749523D01*
X147646380Y-90844761D01*
X147646380Y-91130476D01*
X147598761Y-91225714D01*
X147551142Y-91273333D01*
X143089333Y-53697142D02*
X143041714Y-53744761D01*
X142898857Y-53792380D01*
X142803619Y-53792380D01*
X142660761Y-53744761D01*
X142565523Y-53649523D01*
X142517904Y-53554285D01*
X142470285Y-53363809D01*
X142470285Y-53220952D01*
X142517904Y-53030476D01*
X142565523Y-52935238D01*
X142660761Y-52840000D01*
X142803619Y-52792380D01*
X142898857Y-52792380D01*
X143041714Y-52840000D01*
X143089333Y-52887619D01*
X143470285Y-52887619D02*
X143517904Y-52840000D01*
X143613142Y-52792380D01*
X143851238Y-52792380D01*
X143946476Y-52840000D01*
X143994095Y-52887619D01*
X144041714Y-52982857D01*
X144041714Y-53078095D01*
X143994095Y-53220952D01*
X143422666Y-53792380D01*
X144041714Y-53792380D01*
X145391142Y-88304666D02*
X145438761Y-88352285D01*
X145486380Y-88495142D01*
X145486380Y-88590380D01*
X145438761Y-88733238D01*
X145343523Y-88828476D01*
X145248285Y-88876095D01*
X145057809Y-88923714D01*
X144914952Y-88923714D01*
X144724476Y-88876095D01*
X144629238Y-88828476D01*
X144534000Y-88733238D01*
X144486380Y-88590380D01*
X144486380Y-88495142D01*
X144534000Y-88352285D01*
X144581619Y-88304666D01*
X145486380Y-87352285D02*
X145486380Y-87923714D01*
X145486380Y-87638000D02*
X144486380Y-87638000D01*
X144629238Y-87733238D01*
X144724476Y-87828476D01*
X144772095Y-87923714D01*
%LPC*%
D14*
X151620000Y-88700000D03*
X154160000Y-88700000D03*
G36*
G01*
X155850000Y-87800000D02*
X157550000Y-87800000D01*
G75*
G02*
X157600000Y-87850000I0J-50000D01*
G01*
X157600000Y-89550000D01*
G75*
G02*
X157550000Y-89600000I-50000J0D01*
G01*
X155850000Y-89600000D01*
G75*
G02*
X155800000Y-89550000I0J50000D01*
G01*
X155800000Y-87850000D01*
G75*
G02*
X155850000Y-87800000I50000J0D01*
G01*
G37*
D15*
X130700000Y-148910000D03*
X130700000Y-145100000D03*
X130700000Y-141290000D03*
D16*
X170900000Y-160590000D03*
X170900000Y-164400000D03*
X170844000Y-100198000D03*
X170844000Y-104008000D03*
D17*
X170180000Y-132080000D03*
X167640000Y-132080000D03*
X127000000Y-132080000D03*
X124460000Y-132080000D03*
X170180000Y-129540000D03*
X167640000Y-129540000D03*
X170180000Y-127000000D03*
X167640000Y-127000000D03*
X170180000Y-124460000D03*
X167640000Y-124460000D03*
X170180000Y-121920000D03*
X167640000Y-121920000D03*
X170180000Y-119380000D03*
X167640000Y-119380000D03*
X170180000Y-116840000D03*
X167640000Y-116840000D03*
X170180000Y-114300000D03*
X167640000Y-114300000D03*
X170180000Y-111760000D03*
X167640000Y-111760000D03*
X170180000Y-109220000D03*
X167640000Y-109220000D03*
X170180000Y-68580000D03*
X167640000Y-68580000D03*
X170180000Y-66040000D03*
X167640000Y-66040000D03*
X170180000Y-63500000D03*
X167640000Y-63500000D03*
X170180000Y-60960000D03*
X167640000Y-60960000D03*
X170180000Y-58420000D03*
X167640000Y-58420000D03*
X170180000Y-55880000D03*
X167640000Y-55880000D03*
X170180000Y-53340000D03*
X167640000Y-53340000D03*
X170180000Y-50800000D03*
X167640000Y-50800000D03*
X170180000Y-48260000D03*
X167640000Y-48260000D03*
X170180000Y-45720000D03*
X167640000Y-45720000D03*
X127000000Y-129540000D03*
X124460000Y-129540000D03*
X127000000Y-127000000D03*
X124460000Y-127000000D03*
X127000000Y-124460000D03*
X124460000Y-124460000D03*
X127000000Y-121920000D03*
X124460000Y-121920000D03*
X127000000Y-119380000D03*
X124460000Y-119380000D03*
X127000000Y-116840000D03*
X124460000Y-116840000D03*
X127000000Y-114300000D03*
X124460000Y-114300000D03*
X127000000Y-111760000D03*
X124460000Y-111760000D03*
X127000000Y-109220000D03*
X124460000Y-109220000D03*
X127000000Y-68580000D03*
X124460000Y-68580000D03*
X127000000Y-66040000D03*
X124460000Y-66040000D03*
X127000000Y-63500000D03*
X124460000Y-63500000D03*
X127000000Y-60960000D03*
X124460000Y-60960000D03*
X127000000Y-58420000D03*
X124460000Y-58420000D03*
X127000000Y-55880000D03*
X124460000Y-55880000D03*
X127000000Y-53340000D03*
X124460000Y-53340000D03*
X127000000Y-50800000D03*
X124460000Y-50800000D03*
X127000000Y-48260000D03*
X124460000Y-48260000D03*
X127000000Y-45720000D03*
X124460000Y-45720000D03*
D18*
X154940000Y-145100000D03*
D19*
X152990000Y-151050000D03*
D18*
X140740000Y-151100000D03*
X140790000Y-139050000D03*
D19*
X152990000Y-139050000D03*
G36*
G01*
X152680000Y-94606000D02*
X154180000Y-94606000D01*
G75*
G02*
X154230000Y-94656000I0J-50000D01*
G01*
X154230000Y-96656000D01*
G75*
G02*
X154180000Y-96706000I-50000J0D01*
G01*
X152680000Y-96706000D01*
G75*
G02*
X152630000Y-96656000I0J50000D01*
G01*
X152630000Y-94656000D01*
G75*
G02*
X152680000Y-94606000I50000J0D01*
G01*
G37*
G36*
G01*
X148080000Y-94606000D02*
X149580000Y-94606000D01*
G75*
G02*
X149630000Y-94656000I0J-50000D01*
G01*
X149630000Y-96656000D01*
G75*
G02*
X149580000Y-96706000I-50000J0D01*
G01*
X148080000Y-96706000D01*
G75*
G02*
X148030000Y-96656000I0J50000D01*
G01*
X148030000Y-94656000D01*
G75*
G02*
X148080000Y-94606000I50000J0D01*
G01*
G37*
G36*
G01*
X150380000Y-94606000D02*
X151880000Y-94606000D01*
G75*
G02*
X151930000Y-94656000I0J-50000D01*
G01*
X151930000Y-96656000D01*
G75*
G02*
X151880000Y-96706000I-50000J0D01*
G01*
X150380000Y-96706000D01*
G75*
G02*
X150330000Y-96656000I0J50000D01*
G01*
X150330000Y-94656000D01*
G75*
G02*
X150380000Y-94606000I50000J0D01*
G01*
G37*
G36*
G01*
X149230000Y-100906000D02*
X153030000Y-100906000D01*
G75*
G02*
X153080000Y-100956000I0J-50000D01*
G01*
X153080000Y-102956000D01*
G75*
G02*
X153030000Y-103006000I-50000J0D01*
G01*
X149230000Y-103006000D01*
G75*
G02*
X149180000Y-102956000I0J50000D01*
G01*
X149180000Y-100956000D01*
G75*
G02*
X149230000Y-100906000I50000J0D01*
G01*
G37*
G36*
G01*
X164450000Y-159980000D02*
X165450000Y-159980000D01*
G75*
G02*
X165500000Y-160030000I0J-50000D01*
G01*
X165500000Y-160830000D01*
G75*
G02*
X165450000Y-160880000I-50000J0D01*
G01*
X164450000Y-160880000D01*
G75*
G02*
X164400000Y-160830000I0J50000D01*
G01*
X164400000Y-160030000D01*
G75*
G02*
X164450000Y-159980000I50000J0D01*
G01*
G37*
G36*
G01*
X157950000Y-159980000D02*
X158950000Y-159980000D01*
G75*
G02*
X159000000Y-160030000I0J-50000D01*
G01*
X159000000Y-160830000D01*
G75*
G02*
X158950000Y-160880000I-50000J0D01*
G01*
X157950000Y-160880000D01*
G75*
G02*
X157900000Y-160830000I0J50000D01*
G01*
X157900000Y-160030000D01*
G75*
G02*
X157950000Y-159980000I50000J0D01*
G01*
G37*
G36*
G01*
X157950000Y-162520000D02*
X158950000Y-162520000D01*
G75*
G02*
X159000000Y-162570000I0J-50000D01*
G01*
X159000000Y-163370000D01*
G75*
G02*
X158950000Y-163420000I-50000J0D01*
G01*
X157950000Y-163420000D01*
G75*
G02*
X157900000Y-163370000I0J50000D01*
G01*
X157900000Y-162570000D01*
G75*
G02*
X157950000Y-162520000I50000J0D01*
G01*
G37*
G36*
G01*
X164450000Y-162520000D02*
X165450000Y-162520000D01*
G75*
G02*
X165500000Y-162570000I0J-50000D01*
G01*
X165500000Y-163370000D01*
G75*
G02*
X165450000Y-163420000I-50000J0D01*
G01*
X164450000Y-163420000D01*
G75*
G02*
X164400000Y-163370000I0J50000D01*
G01*
X164400000Y-162570000D01*
G75*
G02*
X164450000Y-162520000I50000J0D01*
G01*
G37*
G36*
G01*
X139402000Y-54912000D02*
X139402000Y-54562000D01*
G75*
G02*
X139577000Y-54387000I175000J0D01*
G01*
X140927000Y-54387000D01*
G75*
G02*
X141102000Y-54562000I0J-175000D01*
G01*
X141102000Y-54912000D01*
G75*
G02*
X140927000Y-55087000I-175000J0D01*
G01*
X139577000Y-55087000D01*
G75*
G02*
X139402000Y-54912000I0J175000D01*
G01*
G37*
G36*
G01*
X139402000Y-56182000D02*
X139402000Y-55832000D01*
G75*
G02*
X139577000Y-55657000I175000J0D01*
G01*
X140927000Y-55657000D01*
G75*
G02*
X141102000Y-55832000I0J-175000D01*
G01*
X141102000Y-56182000D01*
G75*
G02*
X140927000Y-56357000I-175000J0D01*
G01*
X139577000Y-56357000D01*
G75*
G02*
X139402000Y-56182000I0J175000D01*
G01*
G37*
G36*
G01*
X139402000Y-57452000D02*
X139402000Y-57102000D01*
G75*
G02*
X139577000Y-56927000I175000J0D01*
G01*
X140927000Y-56927000D01*
G75*
G02*
X141102000Y-57102000I0J-175000D01*
G01*
X141102000Y-57452000D01*
G75*
G02*
X140927000Y-57627000I-175000J0D01*
G01*
X139577000Y-57627000D01*
G75*
G02*
X139402000Y-57452000I0J175000D01*
G01*
G37*
G36*
G01*
X139402000Y-58722000D02*
X139402000Y-58372000D01*
G75*
G02*
X139577000Y-58197000I175000J0D01*
G01*
X140927000Y-58197000D01*
G75*
G02*
X141102000Y-58372000I0J-175000D01*
G01*
X141102000Y-58722000D01*
G75*
G02*
X140927000Y-58897000I-175000J0D01*
G01*
X139577000Y-58897000D01*
G75*
G02*
X139402000Y-58722000I0J175000D01*
G01*
G37*
G36*
G01*
X132202000Y-58722000D02*
X132202000Y-58372000D01*
G75*
G02*
X132377000Y-58197000I175000J0D01*
G01*
X133727000Y-58197000D01*
G75*
G02*
X133902000Y-58372000I0J-175000D01*
G01*
X133902000Y-58722000D01*
G75*
G02*
X133727000Y-58897000I-175000J0D01*
G01*
X132377000Y-58897000D01*
G75*
G02*
X132202000Y-58722000I0J175000D01*
G01*
G37*
G36*
G01*
X132202000Y-57452000D02*
X132202000Y-57102000D01*
G75*
G02*
X132377000Y-56927000I175000J0D01*
G01*
X133727000Y-56927000D01*
G75*
G02*
X133902000Y-57102000I0J-175000D01*
G01*
X133902000Y-57452000D01*
G75*
G02*
X133727000Y-57627000I-175000J0D01*
G01*
X132377000Y-57627000D01*
G75*
G02*
X132202000Y-57452000I0J175000D01*
G01*
G37*
G36*
G01*
X132202000Y-56182000D02*
X132202000Y-55832000D01*
G75*
G02*
X132377000Y-55657000I175000J0D01*
G01*
X133727000Y-55657000D01*
G75*
G02*
X133902000Y-55832000I0J-175000D01*
G01*
X133902000Y-56182000D01*
G75*
G02*
X133727000Y-56357000I-175000J0D01*
G01*
X132377000Y-56357000D01*
G75*
G02*
X132202000Y-56182000I0J175000D01*
G01*
G37*
G36*
G01*
X132202000Y-54912000D02*
X132202000Y-54562000D01*
G75*
G02*
X132377000Y-54387000I175000J0D01*
G01*
X133727000Y-54387000D01*
G75*
G02*
X133902000Y-54562000I0J-175000D01*
G01*
X133902000Y-54912000D01*
G75*
G02*
X133727000Y-55087000I-175000J0D01*
G01*
X132377000Y-55087000D01*
G75*
G02*
X132202000Y-54912000I0J175000D01*
G01*
G37*
G36*
G01*
X147902000Y-85423000D02*
X147902000Y-85773000D01*
G75*
G02*
X147727000Y-85948000I-175000J0D01*
G01*
X146027000Y-85948000D01*
G75*
G02*
X145852000Y-85773000I0J175000D01*
G01*
X145852000Y-85423000D01*
G75*
G02*
X146027000Y-85248000I175000J0D01*
G01*
X147727000Y-85248000D01*
G75*
G02*
X147902000Y-85423000I0J-175000D01*
G01*
G37*
G36*
G01*
X147902000Y-84153000D02*
X147902000Y-84503000D01*
G75*
G02*
X147727000Y-84678000I-175000J0D01*
G01*
X146027000Y-84678000D01*
G75*
G02*
X145852000Y-84503000I0J175000D01*
G01*
X145852000Y-84153000D01*
G75*
G02*
X146027000Y-83978000I175000J0D01*
G01*
X147727000Y-83978000D01*
G75*
G02*
X147902000Y-84153000I0J-175000D01*
G01*
G37*
G36*
G01*
X147902000Y-82883000D02*
X147902000Y-83233000D01*
G75*
G02*
X147727000Y-83408000I-175000J0D01*
G01*
X146027000Y-83408000D01*
G75*
G02*
X145852000Y-83233000I0J175000D01*
G01*
X145852000Y-82883000D01*
G75*
G02*
X146027000Y-82708000I175000J0D01*
G01*
X147727000Y-82708000D01*
G75*
G02*
X147902000Y-82883000I0J-175000D01*
G01*
G37*
G36*
G01*
X147902000Y-81613000D02*
X147902000Y-81963000D01*
G75*
G02*
X147727000Y-82138000I-175000J0D01*
G01*
X146027000Y-82138000D01*
G75*
G02*
X145852000Y-81963000I0J175000D01*
G01*
X145852000Y-81613000D01*
G75*
G02*
X146027000Y-81438000I175000J0D01*
G01*
X147727000Y-81438000D01*
G75*
G02*
X147902000Y-81613000I0J-175000D01*
G01*
G37*
G36*
G01*
X147902000Y-80343000D02*
X147902000Y-80693000D01*
G75*
G02*
X147727000Y-80868000I-175000J0D01*
G01*
X146027000Y-80868000D01*
G75*
G02*
X145852000Y-80693000I0J175000D01*
G01*
X145852000Y-80343000D01*
G75*
G02*
X146027000Y-80168000I175000J0D01*
G01*
X147727000Y-80168000D01*
G75*
G02*
X147902000Y-80343000I0J-175000D01*
G01*
G37*
G36*
G01*
X147902000Y-79073000D02*
X147902000Y-79423000D01*
G75*
G02*
X147727000Y-79598000I-175000J0D01*
G01*
X146027000Y-79598000D01*
G75*
G02*
X145852000Y-79423000I0J175000D01*
G01*
X145852000Y-79073000D01*
G75*
G02*
X146027000Y-78898000I175000J0D01*
G01*
X147727000Y-78898000D01*
G75*
G02*
X147902000Y-79073000I0J-175000D01*
G01*
G37*
G36*
G01*
X147902000Y-77803000D02*
X147902000Y-78153000D01*
G75*
G02*
X147727000Y-78328000I-175000J0D01*
G01*
X146027000Y-78328000D01*
G75*
G02*
X145852000Y-78153000I0J175000D01*
G01*
X145852000Y-77803000D01*
G75*
G02*
X146027000Y-77628000I175000J0D01*
G01*
X147727000Y-77628000D01*
G75*
G02*
X147902000Y-77803000I0J-175000D01*
G01*
G37*
G36*
G01*
X152852000Y-77803000D02*
X152852000Y-78153000D01*
G75*
G02*
X152677000Y-78328000I-175000J0D01*
G01*
X150977000Y-78328000D01*
G75*
G02*
X150802000Y-78153000I0J175000D01*
G01*
X150802000Y-77803000D01*
G75*
G02*
X150977000Y-77628000I175000J0D01*
G01*
X152677000Y-77628000D01*
G75*
G02*
X152852000Y-77803000I0J-175000D01*
G01*
G37*
G36*
G01*
X152852000Y-79073000D02*
X152852000Y-79423000D01*
G75*
G02*
X152677000Y-79598000I-175000J0D01*
G01*
X150977000Y-79598000D01*
G75*
G02*
X150802000Y-79423000I0J175000D01*
G01*
X150802000Y-79073000D01*
G75*
G02*
X150977000Y-78898000I175000J0D01*
G01*
X152677000Y-78898000D01*
G75*
G02*
X152852000Y-79073000I0J-175000D01*
G01*
G37*
G36*
G01*
X152852000Y-80343000D02*
X152852000Y-80693000D01*
G75*
G02*
X152677000Y-80868000I-175000J0D01*
G01*
X150977000Y-80868000D01*
G75*
G02*
X150802000Y-80693000I0J175000D01*
G01*
X150802000Y-80343000D01*
G75*
G02*
X150977000Y-80168000I175000J0D01*
G01*
X152677000Y-80168000D01*
G75*
G02*
X152852000Y-80343000I0J-175000D01*
G01*
G37*
G36*
G01*
X152852000Y-81613000D02*
X152852000Y-81963000D01*
G75*
G02*
X152677000Y-82138000I-175000J0D01*
G01*
X150977000Y-82138000D01*
G75*
G02*
X150802000Y-81963000I0J175000D01*
G01*
X150802000Y-81613000D01*
G75*
G02*
X150977000Y-81438000I175000J0D01*
G01*
X152677000Y-81438000D01*
G75*
G02*
X152852000Y-81613000I0J-175000D01*
G01*
G37*
G36*
G01*
X152852000Y-82883000D02*
X152852000Y-83233000D01*
G75*
G02*
X152677000Y-83408000I-175000J0D01*
G01*
X150977000Y-83408000D01*
G75*
G02*
X150802000Y-83233000I0J175000D01*
G01*
X150802000Y-82883000D01*
G75*
G02*
X150977000Y-82708000I175000J0D01*
G01*
X152677000Y-82708000D01*
G75*
G02*
X152852000Y-82883000I0J-175000D01*
G01*
G37*
G36*
G01*
X152852000Y-84153000D02*
X152852000Y-84503000D01*
G75*
G02*
X152677000Y-84678000I-175000J0D01*
G01*
X150977000Y-84678000D01*
G75*
G02*
X150802000Y-84503000I0J175000D01*
G01*
X150802000Y-84153000D01*
G75*
G02*
X150977000Y-83978000I175000J0D01*
G01*
X152677000Y-83978000D01*
G75*
G02*
X152852000Y-84153000I0J-175000D01*
G01*
G37*
G36*
G01*
X152852000Y-85423000D02*
X152852000Y-85773000D01*
G75*
G02*
X152677000Y-85948000I-175000J0D01*
G01*
X150977000Y-85948000D01*
G75*
G02*
X150802000Y-85773000I0J175000D01*
G01*
X150802000Y-85423000D01*
G75*
G02*
X150977000Y-85248000I175000J0D01*
G01*
X152677000Y-85248000D01*
G75*
G02*
X152852000Y-85423000I0J-175000D01*
G01*
G37*
D15*
X130556000Y-123802000D03*
X135056000Y-123802000D03*
X130556000Y-130302000D03*
X135056000Y-130302000D03*
X169400000Y-78000000D03*
X169400000Y-82500000D03*
X162900000Y-78000000D03*
X162900000Y-82500000D03*
G36*
G01*
X161752000Y-98016750D02*
X161752000Y-98579250D01*
G75*
G02*
X161508250Y-98823000I-243750J0D01*
G01*
X161020750Y-98823000D01*
G75*
G02*
X160777000Y-98579250I0J243750D01*
G01*
X160777000Y-98016750D01*
G75*
G02*
X161020750Y-97773000I243750J0D01*
G01*
X161508250Y-97773000D01*
G75*
G02*
X161752000Y-98016750I0J-243750D01*
G01*
G37*
G36*
G01*
X163327000Y-98016750D02*
X163327000Y-98579250D01*
G75*
G02*
X163083250Y-98823000I-243750J0D01*
G01*
X162595750Y-98823000D01*
G75*
G02*
X162352000Y-98579250I0J243750D01*
G01*
X162352000Y-98016750D01*
G75*
G02*
X162595750Y-97773000I243750J0D01*
G01*
X163083250Y-97773000D01*
G75*
G02*
X163327000Y-98016750I0J-243750D01*
G01*
G37*
G36*
G01*
X162768000Y-103858750D02*
X162768000Y-104421250D01*
G75*
G02*
X162524250Y-104665000I-243750J0D01*
G01*
X162036750Y-104665000D01*
G75*
G02*
X161793000Y-104421250I0J243750D01*
G01*
X161793000Y-103858750D01*
G75*
G02*
X162036750Y-103615000I243750J0D01*
G01*
X162524250Y-103615000D01*
G75*
G02*
X162768000Y-103858750I0J-243750D01*
G01*
G37*
G36*
G01*
X164343000Y-103858750D02*
X164343000Y-104421250D01*
G75*
G02*
X164099250Y-104665000I-243750J0D01*
G01*
X163611750Y-104665000D01*
G75*
G02*
X163368000Y-104421250I0J243750D01*
G01*
X163368000Y-103858750D01*
G75*
G02*
X163611750Y-103615000I243750J0D01*
G01*
X164099250Y-103615000D01*
G75*
G02*
X164343000Y-103858750I0J-243750D01*
G01*
G37*
G36*
G01*
X133142000Y-133631250D02*
X133142000Y-133068750D01*
G75*
G02*
X133385750Y-132825000I243750J0D01*
G01*
X133873250Y-132825000D01*
G75*
G02*
X134117000Y-133068750I0J-243750D01*
G01*
X134117000Y-133631250D01*
G75*
G02*
X133873250Y-133875000I-243750J0D01*
G01*
X133385750Y-133875000D01*
G75*
G02*
X133142000Y-133631250I0J243750D01*
G01*
G37*
G36*
G01*
X131567000Y-133631250D02*
X131567000Y-133068750D01*
G75*
G02*
X131810750Y-132825000I243750J0D01*
G01*
X132298250Y-132825000D01*
G75*
G02*
X132542000Y-133068750I0J-243750D01*
G01*
X132542000Y-133631250D01*
G75*
G02*
X132298250Y-133875000I-243750J0D01*
G01*
X131810750Y-133875000D01*
G75*
G02*
X131567000Y-133631250I0J243750D01*
G01*
G37*
G36*
G01*
X155729250Y-112730000D02*
X155166750Y-112730000D01*
G75*
G02*
X154923000Y-112486250I0J243750D01*
G01*
X154923000Y-111998750D01*
G75*
G02*
X155166750Y-111755000I243750J0D01*
G01*
X155729250Y-111755000D01*
G75*
G02*
X155973000Y-111998750I0J-243750D01*
G01*
X155973000Y-112486250D01*
G75*
G02*
X155729250Y-112730000I-243750J0D01*
G01*
G37*
G36*
G01*
X155729250Y-114305000D02*
X155166750Y-114305000D01*
G75*
G02*
X154923000Y-114061250I0J243750D01*
G01*
X154923000Y-113573750D01*
G75*
G02*
X155166750Y-113330000I243750J0D01*
G01*
X155729250Y-113330000D01*
G75*
G02*
X155973000Y-113573750I0J-243750D01*
G01*
X155973000Y-114061250D01*
G75*
G02*
X155729250Y-114305000I-243750J0D01*
G01*
G37*
G36*
G01*
X152935250Y-112730000D02*
X152372750Y-112730000D01*
G75*
G02*
X152129000Y-112486250I0J243750D01*
G01*
X152129000Y-111998750D01*
G75*
G02*
X152372750Y-111755000I243750J0D01*
G01*
X152935250Y-111755000D01*
G75*
G02*
X153179000Y-111998750I0J-243750D01*
G01*
X153179000Y-112486250D01*
G75*
G02*
X152935250Y-112730000I-243750J0D01*
G01*
G37*
G36*
G01*
X152935250Y-114305000D02*
X152372750Y-114305000D01*
G75*
G02*
X152129000Y-114061250I0J243750D01*
G01*
X152129000Y-113573750D01*
G75*
G02*
X152372750Y-113330000I243750J0D01*
G01*
X152935250Y-113330000D01*
G75*
G02*
X153179000Y-113573750I0J-243750D01*
G01*
X153179000Y-114061250D01*
G75*
G02*
X152935250Y-114305000I-243750J0D01*
G01*
G37*
G36*
G01*
X167900000Y-165181250D02*
X167900000Y-164618750D01*
G75*
G02*
X168143750Y-164375000I243750J0D01*
G01*
X168631250Y-164375000D01*
G75*
G02*
X168875000Y-164618750I0J-243750D01*
G01*
X168875000Y-165181250D01*
G75*
G02*
X168631250Y-165425000I-243750J0D01*
G01*
X168143750Y-165425000D01*
G75*
G02*
X167900000Y-165181250I0J243750D01*
G01*
G37*
G36*
G01*
X166325000Y-165181250D02*
X166325000Y-164618750D01*
G75*
G02*
X166568750Y-164375000I243750J0D01*
G01*
X167056250Y-164375000D01*
G75*
G02*
X167300000Y-164618750I0J-243750D01*
G01*
X167300000Y-165181250D01*
G75*
G02*
X167056250Y-165425000I-243750J0D01*
G01*
X166568750Y-165425000D01*
G75*
G02*
X166325000Y-165181250I0J243750D01*
G01*
G37*
G36*
G01*
X129818750Y-48400000D02*
X130381250Y-48400000D01*
G75*
G02*
X130625000Y-48643750I0J-243750D01*
G01*
X130625000Y-49131250D01*
G75*
G02*
X130381250Y-49375000I-243750J0D01*
G01*
X129818750Y-49375000D01*
G75*
G02*
X129575000Y-49131250I0J243750D01*
G01*
X129575000Y-48643750D01*
G75*
G02*
X129818750Y-48400000I243750J0D01*
G01*
G37*
G36*
G01*
X129818750Y-46825000D02*
X130381250Y-46825000D01*
G75*
G02*
X130625000Y-47068750I0J-243750D01*
G01*
X130625000Y-47556250D01*
G75*
G02*
X130381250Y-47800000I-243750J0D01*
G01*
X129818750Y-47800000D01*
G75*
G02*
X129575000Y-47556250I0J243750D01*
G01*
X129575000Y-47068750D01*
G75*
G02*
X129818750Y-46825000I243750J0D01*
G01*
G37*
G36*
G01*
X165816000Y-136878750D02*
X165816000Y-137441250D01*
G75*
G02*
X165572250Y-137685000I-243750J0D01*
G01*
X165084750Y-137685000D01*
G75*
G02*
X164841000Y-137441250I0J243750D01*
G01*
X164841000Y-136878750D01*
G75*
G02*
X165084750Y-136635000I243750J0D01*
G01*
X165572250Y-136635000D01*
G75*
G02*
X165816000Y-136878750I0J-243750D01*
G01*
G37*
G36*
G01*
X167391000Y-136878750D02*
X167391000Y-137441250D01*
G75*
G02*
X167147250Y-137685000I-243750J0D01*
G01*
X166659750Y-137685000D01*
G75*
G02*
X166416000Y-137441250I0J243750D01*
G01*
X166416000Y-136878750D01*
G75*
G02*
X166659750Y-136635000I243750J0D01*
G01*
X167147250Y-136635000D01*
G75*
G02*
X167391000Y-136878750I0J-243750D01*
G01*
G37*
G36*
G01*
X142521250Y-121112000D02*
X141958750Y-121112000D01*
G75*
G02*
X141715000Y-120868250I0J243750D01*
G01*
X141715000Y-120380750D01*
G75*
G02*
X141958750Y-120137000I243750J0D01*
G01*
X142521250Y-120137000D01*
G75*
G02*
X142765000Y-120380750I0J-243750D01*
G01*
X142765000Y-120868250D01*
G75*
G02*
X142521250Y-121112000I-243750J0D01*
G01*
G37*
G36*
G01*
X142521250Y-122687000D02*
X141958750Y-122687000D01*
G75*
G02*
X141715000Y-122443250I0J243750D01*
G01*
X141715000Y-121955750D01*
G75*
G02*
X141958750Y-121712000I243750J0D01*
G01*
X142521250Y-121712000D01*
G75*
G02*
X142765000Y-121955750I0J-243750D01*
G01*
X142765000Y-122443250D01*
G75*
G02*
X142521250Y-122687000I-243750J0D01*
G01*
G37*
G36*
G01*
X142521250Y-115270000D02*
X141958750Y-115270000D01*
G75*
G02*
X141715000Y-115026250I0J243750D01*
G01*
X141715000Y-114538750D01*
G75*
G02*
X141958750Y-114295000I243750J0D01*
G01*
X142521250Y-114295000D01*
G75*
G02*
X142765000Y-114538750I0J-243750D01*
G01*
X142765000Y-115026250D01*
G75*
G02*
X142521250Y-115270000I-243750J0D01*
G01*
G37*
G36*
G01*
X142521250Y-116845000D02*
X141958750Y-116845000D01*
G75*
G02*
X141715000Y-116601250I0J243750D01*
G01*
X141715000Y-116113750D01*
G75*
G02*
X141958750Y-115870000I243750J0D01*
G01*
X142521250Y-115870000D01*
G75*
G02*
X142765000Y-116113750I0J-243750D01*
G01*
X142765000Y-116601250D01*
G75*
G02*
X142521250Y-116845000I-243750J0D01*
G01*
G37*
G36*
G01*
X142521250Y-110190000D02*
X141958750Y-110190000D01*
G75*
G02*
X141715000Y-109946250I0J243750D01*
G01*
X141715000Y-109458750D01*
G75*
G02*
X141958750Y-109215000I243750J0D01*
G01*
X142521250Y-109215000D01*
G75*
G02*
X142765000Y-109458750I0J-243750D01*
G01*
X142765000Y-109946250D01*
G75*
G02*
X142521250Y-110190000I-243750J0D01*
G01*
G37*
G36*
G01*
X142521250Y-111765000D02*
X141958750Y-111765000D01*
G75*
G02*
X141715000Y-111521250I0J243750D01*
G01*
X141715000Y-111033750D01*
G75*
G02*
X141958750Y-110790000I243750J0D01*
G01*
X142521250Y-110790000D01*
G75*
G02*
X142765000Y-111033750I0J-243750D01*
G01*
X142765000Y-111521250D01*
G75*
G02*
X142521250Y-111765000I-243750J0D01*
G01*
G37*
G36*
G01*
X133396000Y-119661250D02*
X133396000Y-119098750D01*
G75*
G02*
X133639750Y-118855000I243750J0D01*
G01*
X134127250Y-118855000D01*
G75*
G02*
X134371000Y-119098750I0J-243750D01*
G01*
X134371000Y-119661250D01*
G75*
G02*
X134127250Y-119905000I-243750J0D01*
G01*
X133639750Y-119905000D01*
G75*
G02*
X133396000Y-119661250I0J243750D01*
G01*
G37*
G36*
G01*
X131821000Y-119661250D02*
X131821000Y-119098750D01*
G75*
G02*
X132064750Y-118855000I243750J0D01*
G01*
X132552250Y-118855000D01*
G75*
G02*
X132796000Y-119098750I0J-243750D01*
G01*
X132796000Y-119661250D01*
G75*
G02*
X132552250Y-119905000I-243750J0D01*
G01*
X132064750Y-119905000D01*
G75*
G02*
X131821000Y-119661250I0J243750D01*
G01*
G37*
G36*
G01*
X132361250Y-110444000D02*
X131798750Y-110444000D01*
G75*
G02*
X131555000Y-110200250I0J243750D01*
G01*
X131555000Y-109712750D01*
G75*
G02*
X131798750Y-109469000I243750J0D01*
G01*
X132361250Y-109469000D01*
G75*
G02*
X132605000Y-109712750I0J-243750D01*
G01*
X132605000Y-110200250D01*
G75*
G02*
X132361250Y-110444000I-243750J0D01*
G01*
G37*
G36*
G01*
X132361250Y-112019000D02*
X131798750Y-112019000D01*
G75*
G02*
X131555000Y-111775250I0J243750D01*
G01*
X131555000Y-111287750D01*
G75*
G02*
X131798750Y-111044000I243750J0D01*
G01*
X132361250Y-111044000D01*
G75*
G02*
X132605000Y-111287750I0J-243750D01*
G01*
X132605000Y-111775250D01*
G75*
G02*
X132361250Y-112019000I-243750J0D01*
G01*
G37*
G36*
G01*
X134920000Y-110517250D02*
X134920000Y-109954750D01*
G75*
G02*
X135163750Y-109711000I243750J0D01*
G01*
X135651250Y-109711000D01*
G75*
G02*
X135895000Y-109954750I0J-243750D01*
G01*
X135895000Y-110517250D01*
G75*
G02*
X135651250Y-110761000I-243750J0D01*
G01*
X135163750Y-110761000D01*
G75*
G02*
X134920000Y-110517250I0J243750D01*
G01*
G37*
G36*
G01*
X133345000Y-110517250D02*
X133345000Y-109954750D01*
G75*
G02*
X133588750Y-109711000I243750J0D01*
G01*
X134076250Y-109711000D01*
G75*
G02*
X134320000Y-109954750I0J-243750D01*
G01*
X134320000Y-110517250D01*
G75*
G02*
X134076250Y-110761000I-243750J0D01*
G01*
X133588750Y-110761000D01*
G75*
G02*
X133345000Y-110517250I0J243750D01*
G01*
G37*
G36*
G01*
X130583250Y-55072000D02*
X130020750Y-55072000D01*
G75*
G02*
X129777000Y-54828250I0J243750D01*
G01*
X129777000Y-54340750D01*
G75*
G02*
X130020750Y-54097000I243750J0D01*
G01*
X130583250Y-54097000D01*
G75*
G02*
X130827000Y-54340750I0J-243750D01*
G01*
X130827000Y-54828250D01*
G75*
G02*
X130583250Y-55072000I-243750J0D01*
G01*
G37*
G36*
G01*
X130583250Y-56647000D02*
X130020750Y-56647000D01*
G75*
G02*
X129777000Y-56403250I0J243750D01*
G01*
X129777000Y-55915750D01*
G75*
G02*
X130020750Y-55672000I243750J0D01*
G01*
X130583250Y-55672000D01*
G75*
G02*
X130827000Y-55915750I0J-243750D01*
G01*
X130827000Y-56403250D01*
G75*
G02*
X130583250Y-56647000I-243750J0D01*
G01*
G37*
G36*
G01*
X144498750Y-82596000D02*
X145061250Y-82596000D01*
G75*
G02*
X145305000Y-82839750I0J-243750D01*
G01*
X145305000Y-83327250D01*
G75*
G02*
X145061250Y-83571000I-243750J0D01*
G01*
X144498750Y-83571000D01*
G75*
G02*
X144255000Y-83327250I0J243750D01*
G01*
X144255000Y-82839750D01*
G75*
G02*
X144498750Y-82596000I243750J0D01*
G01*
G37*
G36*
G01*
X144498750Y-81021000D02*
X145061250Y-81021000D01*
G75*
G02*
X145305000Y-81264750I0J-243750D01*
G01*
X145305000Y-81752250D01*
G75*
G02*
X145061250Y-81996000I-243750J0D01*
G01*
X144498750Y-81996000D01*
G75*
G02*
X144255000Y-81752250I0J243750D01*
G01*
X144255000Y-81264750D01*
G75*
G02*
X144498750Y-81021000I243750J0D01*
G01*
G37*
G36*
G01*
X161652000Y-101592000D02*
X162452000Y-101592000D01*
G75*
G02*
X162502000Y-101642000I0J-50000D01*
G01*
X162502000Y-102542000D01*
G75*
G02*
X162452000Y-102592000I-50000J0D01*
G01*
X161652000Y-102592000D01*
G75*
G02*
X161602000Y-102542000I0J50000D01*
G01*
X161602000Y-101642000D01*
G75*
G02*
X161652000Y-101592000I50000J0D01*
G01*
G37*
G36*
G01*
X160702000Y-99592000D02*
X161502000Y-99592000D01*
G75*
G02*
X161552000Y-99642000I0J-50000D01*
G01*
X161552000Y-100542000D01*
G75*
G02*
X161502000Y-100592000I-50000J0D01*
G01*
X160702000Y-100592000D01*
G75*
G02*
X160652000Y-100542000I0J50000D01*
G01*
X160652000Y-99642000D01*
G75*
G02*
X160702000Y-99592000I50000J0D01*
G01*
G37*
G36*
G01*
X162602000Y-99592000D02*
X163402000Y-99592000D01*
G75*
G02*
X163452000Y-99642000I0J-50000D01*
G01*
X163452000Y-100542000D01*
G75*
G02*
X163402000Y-100592000I-50000J0D01*
G01*
X162602000Y-100592000D01*
G75*
G02*
X162552000Y-100542000I0J50000D01*
G01*
X162552000Y-99642000D01*
G75*
G02*
X162602000Y-99592000I50000J0D01*
G01*
G37*
G36*
G01*
X165716000Y-141470000D02*
X166516000Y-141470000D01*
G75*
G02*
X166566000Y-141520000I0J-50000D01*
G01*
X166566000Y-142420000D01*
G75*
G02*
X166516000Y-142470000I-50000J0D01*
G01*
X165716000Y-142470000D01*
G75*
G02*
X165666000Y-142420000I0J50000D01*
G01*
X165666000Y-141520000D01*
G75*
G02*
X165716000Y-141470000I50000J0D01*
G01*
G37*
G36*
G01*
X164766000Y-139470000D02*
X165566000Y-139470000D01*
G75*
G02*
X165616000Y-139520000I0J-50000D01*
G01*
X165616000Y-140420000D01*
G75*
G02*
X165566000Y-140470000I-50000J0D01*
G01*
X164766000Y-140470000D01*
G75*
G02*
X164716000Y-140420000I0J50000D01*
G01*
X164716000Y-139520000D01*
G75*
G02*
X164766000Y-139470000I50000J0D01*
G01*
G37*
G36*
G01*
X166666000Y-139470000D02*
X167466000Y-139470000D01*
G75*
G02*
X167516000Y-139520000I0J-50000D01*
G01*
X167516000Y-140420000D01*
G75*
G02*
X167466000Y-140470000I-50000J0D01*
G01*
X166666000Y-140470000D01*
G75*
G02*
X166616000Y-140420000I0J50000D01*
G01*
X166616000Y-139520000D01*
G75*
G02*
X166666000Y-139470000I50000J0D01*
G01*
G37*
G36*
G01*
X143790000Y-94606000D02*
X145290000Y-94606000D01*
G75*
G02*
X145340000Y-94656000I0J-50000D01*
G01*
X145340000Y-96656000D01*
G75*
G02*
X145290000Y-96706000I-50000J0D01*
G01*
X143790000Y-96706000D01*
G75*
G02*
X143740000Y-96656000I0J50000D01*
G01*
X143740000Y-94656000D01*
G75*
G02*
X143790000Y-94606000I50000J0D01*
G01*
G37*
G36*
G01*
X139190000Y-94606000D02*
X140690000Y-94606000D01*
G75*
G02*
X140740000Y-94656000I0J-50000D01*
G01*
X140740000Y-96656000D01*
G75*
G02*
X140690000Y-96706000I-50000J0D01*
G01*
X139190000Y-96706000D01*
G75*
G02*
X139140000Y-96656000I0J50000D01*
G01*
X139140000Y-94656000D01*
G75*
G02*
X139190000Y-94606000I50000J0D01*
G01*
G37*
G36*
G01*
X141490000Y-94606000D02*
X142990000Y-94606000D01*
G75*
G02*
X143040000Y-94656000I0J-50000D01*
G01*
X143040000Y-96656000D01*
G75*
G02*
X142990000Y-96706000I-50000J0D01*
G01*
X141490000Y-96706000D01*
G75*
G02*
X141440000Y-96656000I0J50000D01*
G01*
X141440000Y-94656000D01*
G75*
G02*
X141490000Y-94606000I50000J0D01*
G01*
G37*
G36*
G01*
X140340000Y-100906000D02*
X144140000Y-100906000D01*
G75*
G02*
X144190000Y-100956000I0J-50000D01*
G01*
X144190000Y-102956000D01*
G75*
G02*
X144140000Y-103006000I-50000J0D01*
G01*
X140340000Y-103006000D01*
G75*
G02*
X140290000Y-102956000I0J50000D01*
G01*
X140290000Y-100956000D01*
G75*
G02*
X140340000Y-100906000I50000J0D01*
G01*
G37*
G36*
G01*
X138946000Y-121012000D02*
X138946000Y-121812000D01*
G75*
G02*
X138896000Y-121862000I-50000J0D01*
G01*
X137996000Y-121862000D01*
G75*
G02*
X137946000Y-121812000I0J50000D01*
G01*
X137946000Y-121012000D01*
G75*
G02*
X137996000Y-120962000I50000J0D01*
G01*
X138896000Y-120962000D01*
G75*
G02*
X138946000Y-121012000I0J-50000D01*
G01*
G37*
G36*
G01*
X140946000Y-120062000D02*
X140946000Y-120862000D01*
G75*
G02*
X140896000Y-120912000I-50000J0D01*
G01*
X139996000Y-120912000D01*
G75*
G02*
X139946000Y-120862000I0J50000D01*
G01*
X139946000Y-120062000D01*
G75*
G02*
X139996000Y-120012000I50000J0D01*
G01*
X140896000Y-120012000D01*
G75*
G02*
X140946000Y-120062000I0J-50000D01*
G01*
G37*
G36*
G01*
X140946000Y-121962000D02*
X140946000Y-122762000D01*
G75*
G02*
X140896000Y-122812000I-50000J0D01*
G01*
X139996000Y-122812000D01*
G75*
G02*
X139946000Y-122762000I0J50000D01*
G01*
X139946000Y-121962000D01*
G75*
G02*
X139996000Y-121912000I50000J0D01*
G01*
X140896000Y-121912000D01*
G75*
G02*
X140946000Y-121962000I0J-50000D01*
G01*
G37*
G36*
G01*
X138946000Y-115170000D02*
X138946000Y-115970000D01*
G75*
G02*
X138896000Y-116020000I-50000J0D01*
G01*
X137996000Y-116020000D01*
G75*
G02*
X137946000Y-115970000I0J50000D01*
G01*
X137946000Y-115170000D01*
G75*
G02*
X137996000Y-115120000I50000J0D01*
G01*
X138896000Y-115120000D01*
G75*
G02*
X138946000Y-115170000I0J-50000D01*
G01*
G37*
G36*
G01*
X140946000Y-114220000D02*
X140946000Y-115020000D01*
G75*
G02*
X140896000Y-115070000I-50000J0D01*
G01*
X139996000Y-115070000D01*
G75*
G02*
X139946000Y-115020000I0J50000D01*
G01*
X139946000Y-114220000D01*
G75*
G02*
X139996000Y-114170000I50000J0D01*
G01*
X140896000Y-114170000D01*
G75*
G02*
X140946000Y-114220000I0J-50000D01*
G01*
G37*
G36*
G01*
X140946000Y-116120000D02*
X140946000Y-116920000D01*
G75*
G02*
X140896000Y-116970000I-50000J0D01*
G01*
X139996000Y-116970000D01*
G75*
G02*
X139946000Y-116920000I0J50000D01*
G01*
X139946000Y-116120000D01*
G75*
G02*
X139996000Y-116070000I50000J0D01*
G01*
X140896000Y-116070000D01*
G75*
G02*
X140946000Y-116120000I0J-50000D01*
G01*
G37*
G36*
G01*
X138692000Y-110090000D02*
X138692000Y-110890000D01*
G75*
G02*
X138642000Y-110940000I-50000J0D01*
G01*
X137742000Y-110940000D01*
G75*
G02*
X137692000Y-110890000I0J50000D01*
G01*
X137692000Y-110090000D01*
G75*
G02*
X137742000Y-110040000I50000J0D01*
G01*
X138642000Y-110040000D01*
G75*
G02*
X138692000Y-110090000I0J-50000D01*
G01*
G37*
G36*
G01*
X140692000Y-109140000D02*
X140692000Y-109940000D01*
G75*
G02*
X140642000Y-109990000I-50000J0D01*
G01*
X139742000Y-109990000D01*
G75*
G02*
X139692000Y-109940000I0J50000D01*
G01*
X139692000Y-109140000D01*
G75*
G02*
X139742000Y-109090000I50000J0D01*
G01*
X140642000Y-109090000D01*
G75*
G02*
X140692000Y-109140000I0J-50000D01*
G01*
G37*
G36*
G01*
X140692000Y-111040000D02*
X140692000Y-111840000D01*
G75*
G02*
X140642000Y-111890000I-50000J0D01*
G01*
X139742000Y-111890000D01*
G75*
G02*
X139692000Y-111840000I0J50000D01*
G01*
X139692000Y-111040000D01*
G75*
G02*
X139742000Y-110990000I50000J0D01*
G01*
X140642000Y-110990000D01*
G75*
G02*
X140692000Y-111040000I0J-50000D01*
G01*
G37*
G36*
G01*
X155594000Y-66302000D02*
X154794000Y-66302000D01*
G75*
G02*
X154744000Y-66252000I0J50000D01*
G01*
X154744000Y-65352000D01*
G75*
G02*
X154794000Y-65302000I50000J0D01*
G01*
X155594000Y-65302000D01*
G75*
G02*
X155644000Y-65352000I0J-50000D01*
G01*
X155644000Y-66252000D01*
G75*
G02*
X155594000Y-66302000I-50000J0D01*
G01*
G37*
G36*
G01*
X156544000Y-68302000D02*
X155744000Y-68302000D01*
G75*
G02*
X155694000Y-68252000I0J50000D01*
G01*
X155694000Y-67352000D01*
G75*
G02*
X155744000Y-67302000I50000J0D01*
G01*
X156544000Y-67302000D01*
G75*
G02*
X156594000Y-67352000I0J-50000D01*
G01*
X156594000Y-68252000D01*
G75*
G02*
X156544000Y-68302000I-50000J0D01*
G01*
G37*
G36*
G01*
X154644000Y-68302000D02*
X153844000Y-68302000D01*
G75*
G02*
X153794000Y-68252000I0J50000D01*
G01*
X153794000Y-67352000D01*
G75*
G02*
X153844000Y-67302000I50000J0D01*
G01*
X154644000Y-67302000D01*
G75*
G02*
X154694000Y-67352000I0J-50000D01*
G01*
X154694000Y-68252000D01*
G75*
G02*
X154644000Y-68302000I-50000J0D01*
G01*
G37*
G36*
G01*
X150006000Y-66048000D02*
X149206000Y-66048000D01*
G75*
G02*
X149156000Y-65998000I0J50000D01*
G01*
X149156000Y-65098000D01*
G75*
G02*
X149206000Y-65048000I50000J0D01*
G01*
X150006000Y-65048000D01*
G75*
G02*
X150056000Y-65098000I0J-50000D01*
G01*
X150056000Y-65998000D01*
G75*
G02*
X150006000Y-66048000I-50000J0D01*
G01*
G37*
G36*
G01*
X150956000Y-68048000D02*
X150156000Y-68048000D01*
G75*
G02*
X150106000Y-67998000I0J50000D01*
G01*
X150106000Y-67098000D01*
G75*
G02*
X150156000Y-67048000I50000J0D01*
G01*
X150956000Y-67048000D01*
G75*
G02*
X151006000Y-67098000I0J-50000D01*
G01*
X151006000Y-67998000D01*
G75*
G02*
X150956000Y-68048000I-50000J0D01*
G01*
G37*
G36*
G01*
X149056000Y-68048000D02*
X148256000Y-68048000D01*
G75*
G02*
X148206000Y-67998000I0J50000D01*
G01*
X148206000Y-67098000D01*
G75*
G02*
X148256000Y-67048000I50000J0D01*
G01*
X149056000Y-67048000D01*
G75*
G02*
X149106000Y-67098000I0J-50000D01*
G01*
X149106000Y-67998000D01*
G75*
G02*
X149056000Y-68048000I-50000J0D01*
G01*
G37*
G36*
G01*
X160674000Y-66302000D02*
X159874000Y-66302000D01*
G75*
G02*
X159824000Y-66252000I0J50000D01*
G01*
X159824000Y-65352000D01*
G75*
G02*
X159874000Y-65302000I50000J0D01*
G01*
X160674000Y-65302000D01*
G75*
G02*
X160724000Y-65352000I0J-50000D01*
G01*
X160724000Y-66252000D01*
G75*
G02*
X160674000Y-66302000I-50000J0D01*
G01*
G37*
G36*
G01*
X161624000Y-68302000D02*
X160824000Y-68302000D01*
G75*
G02*
X160774000Y-68252000I0J50000D01*
G01*
X160774000Y-67352000D01*
G75*
G02*
X160824000Y-67302000I50000J0D01*
G01*
X161624000Y-67302000D01*
G75*
G02*
X161674000Y-67352000I0J-50000D01*
G01*
X161674000Y-68252000D01*
G75*
G02*
X161624000Y-68302000I-50000J0D01*
G01*
G37*
G36*
G01*
X159724000Y-68302000D02*
X158924000Y-68302000D01*
G75*
G02*
X158874000Y-68252000I0J50000D01*
G01*
X158874000Y-67352000D01*
G75*
G02*
X158924000Y-67302000I50000J0D01*
G01*
X159724000Y-67302000D01*
G75*
G02*
X159774000Y-67352000I0J-50000D01*
G01*
X159774000Y-68252000D01*
G75*
G02*
X159724000Y-68302000I-50000J0D01*
G01*
G37*
D14*
X155194000Y-109474000D03*
X152654000Y-109474000D03*
X150114000Y-109474000D03*
G36*
G01*
X148424000Y-110374000D02*
X146724000Y-110374000D01*
G75*
G02*
X146674000Y-110324000I0J50000D01*
G01*
X146674000Y-108624000D01*
G75*
G02*
X146724000Y-108574000I50000J0D01*
G01*
X148424000Y-108574000D01*
G75*
G02*
X148474000Y-108624000I0J-50000D01*
G01*
X148474000Y-110324000D01*
G75*
G02*
X148424000Y-110374000I-50000J0D01*
G01*
G37*
D20*
X133490000Y-102088000D03*
X133490000Y-97008000D03*
D21*
X153162000Y-61468000D03*
X150622000Y-61468000D03*
D18*
X162837000Y-49528000D03*
D21*
X158242000Y-61468000D03*
G36*
G01*
X158712000Y-59678000D02*
X158712000Y-58178000D01*
G75*
G02*
X158762000Y-58128000I50000J0D01*
G01*
X160262000Y-58128000D01*
G75*
G02*
X160312000Y-58178000I0J-50000D01*
G01*
X160312000Y-59678000D01*
G75*
G02*
X160262000Y-59728000I-50000J0D01*
G01*
X158762000Y-59728000D01*
G75*
G02*
X158712000Y-59678000I0J50000D01*
G01*
G37*
X151892000Y-58928000D03*
X155702000Y-61468000D03*
X154432000Y-58928000D03*
X156972000Y-58928000D03*
D22*
X160782000Y-52578000D03*
D18*
X147297000Y-49528000D03*
D22*
X149352000Y-52578000D03*
D21*
X140208000Y-83566000D03*
X140208000Y-86106000D03*
D18*
X128268000Y-73891000D03*
D21*
X140208000Y-78486000D03*
G36*
G01*
X138418000Y-78016000D02*
X136918000Y-78016000D01*
G75*
G02*
X136868000Y-77966000I0J50000D01*
G01*
X136868000Y-76466000D01*
G75*
G02*
X136918000Y-76416000I50000J0D01*
G01*
X138418000Y-76416000D01*
G75*
G02*
X138468000Y-76466000I0J-50000D01*
G01*
X138468000Y-77966000D01*
G75*
G02*
X138418000Y-78016000I-50000J0D01*
G01*
G37*
X137668000Y-84836000D03*
X140208000Y-81026000D03*
X137668000Y-82296000D03*
X137668000Y-79756000D03*
D22*
X131318000Y-75946000D03*
D18*
X128268000Y-89431000D03*
D22*
X131318000Y-87376000D03*
G36*
G01*
X167278000Y-100557250D02*
X167278000Y-99594750D01*
G75*
G02*
X167546750Y-99326000I268750J0D01*
G01*
X168084250Y-99326000D01*
G75*
G02*
X168353000Y-99594750I0J-268750D01*
G01*
X168353000Y-100557250D01*
G75*
G02*
X168084250Y-100826000I-268750J0D01*
G01*
X167546750Y-100826000D01*
G75*
G02*
X167278000Y-100557250I0J268750D01*
G01*
G37*
G36*
G01*
X165403000Y-100557250D02*
X165403000Y-99594750D01*
G75*
G02*
X165671750Y-99326000I268750J0D01*
G01*
X166209250Y-99326000D01*
G75*
G02*
X166478000Y-99594750I0J-268750D01*
G01*
X166478000Y-100557250D01*
G75*
G02*
X166209250Y-100826000I-268750J0D01*
G01*
X165671750Y-100826000D01*
G75*
G02*
X165403000Y-100557250I0J268750D01*
G01*
G37*
G36*
G01*
X166478000Y-103658750D02*
X166478000Y-104621250D01*
G75*
G02*
X166209250Y-104890000I-268750J0D01*
G01*
X165671750Y-104890000D01*
G75*
G02*
X165403000Y-104621250I0J268750D01*
G01*
X165403000Y-103658750D01*
G75*
G02*
X165671750Y-103390000I268750J0D01*
G01*
X166209250Y-103390000D01*
G75*
G02*
X166478000Y-103658750I0J-268750D01*
G01*
G37*
G36*
G01*
X168353000Y-103658750D02*
X168353000Y-104621250D01*
G75*
G02*
X168084250Y-104890000I-268750J0D01*
G01*
X167546750Y-104890000D01*
G75*
G02*
X167278000Y-104621250I0J268750D01*
G01*
X167278000Y-103658750D01*
G75*
G02*
X167546750Y-103390000I268750J0D01*
G01*
X168084250Y-103390000D01*
G75*
G02*
X168353000Y-103658750I0J-268750D01*
G01*
G37*
D23*
X162560000Y-142240000D03*
G36*
G01*
X163360000Y-150710000D02*
X161760000Y-150710000D01*
G75*
G02*
X161710000Y-150660000I0J50000D01*
G01*
X161710000Y-149060000D01*
G75*
G02*
X161760000Y-149010000I50000J0D01*
G01*
X163360000Y-149010000D01*
G75*
G02*
X163410000Y-149060000I0J-50000D01*
G01*
X163410000Y-150660000D01*
G75*
G02*
X163360000Y-150710000I-50000J0D01*
G01*
G37*
G36*
G01*
X131896000Y-117616000D02*
X131896000Y-116116000D01*
G75*
G02*
X131946000Y-116066000I50000J0D01*
G01*
X132846000Y-116066000D01*
G75*
G02*
X132896000Y-116116000I0J-50000D01*
G01*
X132896000Y-117616000D01*
G75*
G02*
X132846000Y-117666000I-50000J0D01*
G01*
X131946000Y-117666000D01*
G75*
G02*
X131896000Y-117616000I0J50000D01*
G01*
G37*
G36*
G01*
X133296000Y-117616000D02*
X133296000Y-116116000D01*
G75*
G02*
X133346000Y-116066000I50000J0D01*
G01*
X134246000Y-116066000D01*
G75*
G02*
X134296000Y-116116000I0J-50000D01*
G01*
X134296000Y-117616000D01*
G75*
G02*
X134246000Y-117666000I-50000J0D01*
G01*
X133346000Y-117666000D01*
G75*
G02*
X133296000Y-117616000I0J50000D01*
G01*
G37*
G36*
G01*
X131896000Y-114516000D02*
X131896000Y-113016000D01*
G75*
G02*
X131946000Y-112966000I50000J0D01*
G01*
X132846000Y-112966000D01*
G75*
G02*
X132896000Y-113016000I0J-50000D01*
G01*
X132896000Y-114516000D01*
G75*
G02*
X132846000Y-114566000I-50000J0D01*
G01*
X131946000Y-114566000D01*
G75*
G02*
X131896000Y-114516000I0J50000D01*
G01*
G37*
G36*
G01*
X133296000Y-114516000D02*
X133296000Y-113016000D01*
G75*
G02*
X133346000Y-112966000I50000J0D01*
G01*
X134246000Y-112966000D01*
G75*
G02*
X134296000Y-113016000I0J-50000D01*
G01*
X134296000Y-114516000D01*
G75*
G02*
X134246000Y-114566000I-50000J0D01*
G01*
X133346000Y-114566000D01*
G75*
G02*
X133296000Y-114516000I0J50000D01*
G01*
G37*
G36*
G01*
X153054000Y-92937250D02*
X153054000Y-91974750D01*
G75*
G02*
X153322750Y-91706000I268750J0D01*
G01*
X153860250Y-91706000D01*
G75*
G02*
X154129000Y-91974750I0J-268750D01*
G01*
X154129000Y-92937250D01*
G75*
G02*
X153860250Y-93206000I-268750J0D01*
G01*
X153322750Y-93206000D01*
G75*
G02*
X153054000Y-92937250I0J268750D01*
G01*
G37*
G36*
G01*
X151179000Y-92937250D02*
X151179000Y-91974750D01*
G75*
G02*
X151447750Y-91706000I268750J0D01*
G01*
X151985250Y-91706000D01*
G75*
G02*
X152254000Y-91974750I0J-268750D01*
G01*
X152254000Y-92937250D01*
G75*
G02*
X151985250Y-93206000I-268750J0D01*
G01*
X151447750Y-93206000D01*
G75*
G02*
X151179000Y-92937250I0J268750D01*
G01*
G37*
G36*
G01*
X149325250Y-91040000D02*
X148362750Y-91040000D01*
G75*
G02*
X148094000Y-90771250I0J268750D01*
G01*
X148094000Y-90233750D01*
G75*
G02*
X148362750Y-89965000I268750J0D01*
G01*
X149325250Y-89965000D01*
G75*
G02*
X149594000Y-90233750I0J-268750D01*
G01*
X149594000Y-90771250D01*
G75*
G02*
X149325250Y-91040000I-268750J0D01*
G01*
G37*
G36*
G01*
X149325250Y-92915000D02*
X148362750Y-92915000D01*
G75*
G02*
X148094000Y-92646250I0J268750D01*
G01*
X148094000Y-92108750D01*
G75*
G02*
X148362750Y-91840000I268750J0D01*
G01*
X149325250Y-91840000D01*
G75*
G02*
X149594000Y-92108750I0J-268750D01*
G01*
X149594000Y-92646250D01*
G75*
G02*
X149325250Y-92915000I-268750J0D01*
G01*
G37*
G36*
G01*
X142956000Y-54582750D02*
X142956000Y-55145250D01*
G75*
G02*
X142712250Y-55389000I-243750J0D01*
G01*
X142224750Y-55389000D01*
G75*
G02*
X141981000Y-55145250I0J243750D01*
G01*
X141981000Y-54582750D01*
G75*
G02*
X142224750Y-54339000I243750J0D01*
G01*
X142712250Y-54339000D01*
G75*
G02*
X142956000Y-54582750I0J-243750D01*
G01*
G37*
G36*
G01*
X144531000Y-54582750D02*
X144531000Y-55145250D01*
G75*
G02*
X144287250Y-55389000I-243750J0D01*
G01*
X143799750Y-55389000D01*
G75*
G02*
X143556000Y-55145250I0J243750D01*
G01*
X143556000Y-54582750D01*
G75*
G02*
X143799750Y-54339000I243750J0D01*
G01*
X144287250Y-54339000D01*
G75*
G02*
X144531000Y-54582750I0J-243750D01*
G01*
G37*
G36*
G01*
X146276750Y-88438000D02*
X146839250Y-88438000D01*
G75*
G02*
X147083000Y-88681750I0J-243750D01*
G01*
X147083000Y-89169250D01*
G75*
G02*
X146839250Y-89413000I-243750J0D01*
G01*
X146276750Y-89413000D01*
G75*
G02*
X146033000Y-89169250I0J243750D01*
G01*
X146033000Y-88681750D01*
G75*
G02*
X146276750Y-88438000I243750J0D01*
G01*
G37*
G36*
G01*
X146276750Y-86863000D02*
X146839250Y-86863000D01*
G75*
G02*
X147083000Y-87106750I0J-243750D01*
G01*
X147083000Y-87594250D01*
G75*
G02*
X146839250Y-87838000I-243750J0D01*
G01*
X146276750Y-87838000D01*
G75*
G02*
X146033000Y-87594250I0J243750D01*
G01*
X146033000Y-87106750D01*
G75*
G02*
X146276750Y-86863000I243750J0D01*
G01*
G37*
M02*
