M48
; DRILL file {KiCad (5.1.10-1-10_14)} date Friday, November 12, 2021 at 03:28:28 PM
; FORMAT={-:-/ absolute / metric / decimal}
; #@! TF.CreationDate,2021-11-12T15:28:28+00:00
; #@! TF.GenerationSoftware,Kicad,Pcbnew,(5.1.10-1-10_14)
; #@! TF.FileFunction,Plated,1,2,PTH
FMAT,2
METRIC
T1C0.400
T2C0.762
T3C0.800
T4C0.900
T5C1.000
T6C1.100
T7C1.200
T8C1.300
T9C1.600
T10C1.700
%
G90
G05
T1
X126.7Y-71.0
X127.5Y-99.5
X127.8Y-103.2
X128.3Y-100.5
X128.6Y-103.925
X128.675Y-58.9
X129.6Y-109.8
X129.6Y-115.9
X129.7Y-117.0
X130.4Y-61.4
X130.4Y-108.9
X131.191Y-58.547
X134.122Y-79.873
X134.4Y-90.0
X134.864Y-79.131
X135.4Y-90.9
X137.541Y-56.261
X138.176Y-59.627
X138.4Y-71.0
X139.0Y-88.4
X139.2Y-89.7
X140.2Y-70.0
X140.208Y-108.077
X140.462Y-113.03
X140.462Y-119.189
X142.24Y-107.76
X142.24Y-113.411
X142.24Y-119.253
X142.4Y-60.5
X142.6Y-57.7
X144.145Y-56.261
X144.399Y-98.044
X144.399Y-99.06
X144.6Y-85.9
X145.542Y-98.044
X145.542Y-99.06
X146.558Y-90.17
X148.844Y-89.027
X149.0Y-74.3
X149.7Y-86.3
X149.9Y-114.0
X150.622Y-69.215
X150.8Y-74.2
X151.0Y-116.6
X151.5Y-114.9
X153.543Y-93.98
X153.7Y-116.9
X153.8Y-84.0
X153.8Y-115.4
X154.178Y-77.978
X154.178Y-79.248
X154.2Y-86.5
X154.5Y-56.2
X155.194Y-92.456
X155.194Y-93.726
X155.194Y-94.869
X155.194Y-95.885
X155.322Y-78.821
X156.21Y-69.215
X156.3Y-84.4
X156.32Y-79.48
X156.9Y-163.0
X157.0Y-101.4
X157.083Y-100.091
X157.4Y-75.8
X157.9Y-112.7
X158.0Y-76.7
X158.3Y-54.7
X158.625Y-99.3
X159.025Y-91.425
X159.103Y-92.978
X159.4Y-117.7
X159.639Y-100.076
X160.02Y-98.298
X160.4Y-93.8
X161.29Y-69.215
X161.7Y-115.0
X161.7Y-112.9
X162.6Y-106.2
X163.703Y-139.954
X163.83Y-137.16
X165.2Y-106.3
X170.2Y-94.1
X171.3Y-98.3
X172.1Y-94.0
X172.7Y-98.2
X173.6Y-108.1
X173.8Y-111.5
X174.2Y-135.5
X174.3Y-138.1
X176.5Y-96.3
X176.6Y-70.6
X176.6Y-71.6
X176.9Y-149.8
X177.5Y-96.3
T2
X124.46Y-45.72
X124.46Y-48.26
X124.46Y-50.8
X124.46Y-53.34
X124.46Y-55.88
X124.46Y-58.42
X124.46Y-60.96
X124.46Y-63.5
X124.46Y-66.04
X124.46Y-68.58
X124.46Y-109.22
X124.46Y-111.76
X124.46Y-114.3
X124.46Y-116.84
X124.46Y-119.38
X124.46Y-121.92
X124.46Y-124.46
X124.46Y-127.0
X124.46Y-129.54
X124.46Y-132.08
X127.0Y-45.72
X127.0Y-48.26
X127.0Y-50.8
X127.0Y-53.34
X127.0Y-55.88
X127.0Y-58.42
X127.0Y-60.96
X127.0Y-63.5
X127.0Y-66.04
X127.0Y-68.58
X127.0Y-109.22
X127.0Y-111.76
X127.0Y-114.3
X127.0Y-116.84
X127.0Y-119.38
X127.0Y-121.92
X127.0Y-124.46
X127.0Y-127.0
X127.0Y-129.54
X127.0Y-132.08
X167.64Y-45.72
X167.64Y-48.26
X167.64Y-50.8
X167.64Y-53.34
X167.64Y-55.88
X167.64Y-58.42
X167.64Y-60.96
X167.64Y-63.5
X167.64Y-66.04
X167.64Y-68.58
X167.64Y-109.22
X167.64Y-111.76
X167.64Y-114.3
X167.64Y-116.84
X167.64Y-119.38
X167.64Y-121.92
X167.64Y-124.46
X167.64Y-127.0
X167.64Y-129.54
X167.64Y-132.08
X170.18Y-45.72
X170.18Y-48.26
X170.18Y-50.8
X170.18Y-53.34
X170.18Y-55.88
X170.18Y-58.42
X170.18Y-60.96
X170.18Y-63.5
X170.18Y-66.04
X170.18Y-68.58
X170.18Y-109.22
X170.18Y-111.76
X170.18Y-114.3
X170.18Y-116.84
X170.18Y-119.38
X170.18Y-121.92
X170.18Y-124.46
X170.18Y-127.0
X170.18Y-129.54
X170.18Y-132.08
T3
X162.56Y-142.24
X162.56Y-149.86
T4
X137.668Y-77.216
X137.668Y-79.756
X137.668Y-82.296
X137.668Y-84.836
X140.208Y-78.486
X140.208Y-81.026
X140.208Y-83.566
X140.208Y-86.106
X150.622Y-61.468
X151.892Y-58.928
X153.162Y-61.468
X154.432Y-58.928
X155.702Y-61.468
X156.972Y-58.928
X158.242Y-61.468
X159.512Y-58.928
T5
X147.574Y-109.474
X150.114Y-109.474
X151.62Y-88.7
X152.654Y-109.474
X152.99Y-139.05
X152.99Y-151.05
X154.16Y-88.7
X155.194Y-109.474
X156.7Y-88.7
T6
X130.556Y-123.802
X130.556Y-130.302
X135.056Y-123.802
X135.056Y-130.302
X162.9Y-78.0
X162.9Y-82.5
X169.4Y-78.0
X169.4Y-82.5
T7
X130.7Y-141.29
X130.7Y-145.1
X130.7Y-148.91
X170.844Y-100.198
X170.844Y-104.008
X170.9Y-160.59
X170.9Y-164.4
T8
X140.74Y-151.1
X140.79Y-139.05
X154.94Y-145.1
T9
X128.268Y-73.891
X128.268Y-89.431
X147.297Y-49.528
X162.837Y-49.528
T10
X133.49Y-97.008
X133.49Y-102.088
T0
M30
