%TF.GenerationSoftware,KiCad,Pcbnew,5.1.6-1.fc32*%
%TF.CreationDate,2021-02-06T17:56:30+01:00*%
%TF.ProjectId,New-New-ACNode-Shield,4e65772d-4e65-4772-9d41-434e6f64652d,rev?*%
%TF.SameCoordinates,Original*%
%TF.FileFunction,Profile,NP*%
%FSLAX46Y46*%
G04 Gerber Fmt 4.6, Leading zero omitted, Abs format (unit mm)*
G04 Created by KiCad (PCBNEW 5.1.6-1.fc32) date 2021-02-06 17:56:30*
%MOMM*%
%LPD*%
G01*
G04 APERTURE LIST*
%TA.AperFunction,Profile*%
%ADD10C,0.050000*%
%TD*%
G04 APERTURE END LIST*
D10*
X149860000Y-137668000D02*
X149860000Y-143256000D01*
X150876000Y-142240000D02*
X150876000Y-137668000D01*
X149860000Y-137668000D02*
G75*
G02*
X150876000Y-137668000I508000J0D01*
G01*
X124460000Y-136144000D02*
X149860000Y-136144000D01*
X149860000Y-135128000D02*
X124460000Y-135128000D01*
X124460000Y-136144000D02*
G75*
G02*
X124460000Y-135128000I0J508000D01*
G01*
X149860000Y-135128000D02*
G75*
G02*
X149860000Y-136144000I0J-508000D01*
G01*
X124460000Y-156972000D02*
X150368000Y-156972000D01*
X150368000Y-155956000D02*
X124460000Y-155956000D01*
X150368000Y-155956000D02*
G75*
G02*
X150368000Y-156972000I0J-508000D01*
G01*
X159004000Y-142748000D02*
X151384000Y-142748000D01*
X151384000Y-142748000D02*
G75*
G02*
X150876000Y-142240000I0J508000D01*
G01*
X159512000Y-149860000D02*
X159512000Y-143256000D01*
X159004000Y-142748000D02*
G75*
G02*
X159512000Y-143256000I0J-508000D01*
G01*
X159004000Y-150368000D02*
X151384000Y-150368000D01*
X159512000Y-149860000D02*
G75*
G02*
X159004000Y-150368000I-508000J0D01*
G01*
X150876000Y-154432000D02*
G75*
G02*
X149860000Y-154432000I-508000J0D01*
G01*
X150876000Y-150876000D02*
X150876000Y-154432000D01*
X149860000Y-149860000D02*
X149860000Y-154432000D01*
X150876000Y-150876000D02*
G75*
G02*
X151384000Y-150368000I508000J0D01*
G01*
X149860000Y-149860000D02*
G75*
G02*
X150368000Y-149352000I508000J0D01*
G01*
X157988000Y-149352000D02*
X150368000Y-149352000D01*
X157988000Y-143764000D02*
X150368000Y-143764000D01*
X150368000Y-143764000D02*
G75*
G02*
X149860000Y-143256000I0J508000D01*
G01*
X158496000Y-148844000D02*
X158496000Y-144272000D01*
X157988000Y-143764000D02*
G75*
G02*
X158496000Y-144272000I0J-508000D01*
G01*
X158496000Y-148844000D02*
G75*
G02*
X157988000Y-149352000I-508000J0D01*
G01*
X124460000Y-156972000D02*
G75*
G02*
X124460000Y-155956000I0J508000D01*
G01*
X140208000Y-167132000D02*
X140208000Y-158496000D01*
X140208000Y-167132000D02*
G75*
G02*
X139192000Y-167132000I-508000J0D01*
G01*
X139192000Y-158496000D02*
G75*
G02*
X140208000Y-158496000I508000J0D01*
G01*
X139192000Y-158496000D02*
X139192000Y-167132000D01*
X123190000Y-168910000D02*
X123190000Y-44450000D01*
X179070000Y-168910000D02*
X123190000Y-168910000D01*
X179070000Y-44450000D02*
X179070000Y-168910000D01*
X123190000Y-44450000D02*
X179070000Y-44450000D01*
M02*
