G04 #@! TF.GenerationSoftware,KiCad,Pcbnew,(5.1.10-1-10_14)*
G04 #@! TF.CreationDate,2021-11-12T15:28:04+00:00*
G04 #@! TF.ProjectId,New-New-ACNode-Shield,4e65772d-4e65-4772-9d41-434e6f64652d,rev?*
G04 #@! TF.SameCoordinates,Original*
G04 #@! TF.FileFunction,Soldermask,Bot*
G04 #@! TF.FilePolarity,Negative*
%FSLAX46Y46*%
G04 Gerber Fmt 4.6, Leading zero omitted, Abs format (unit mm)*
G04 Created by KiCad (PCBNEW (5.1.10-1-10_14)) date 2021-11-12 15:28:04*
%MOMM*%
%LPD*%
G01*
G04 APERTURE LIST*
%ADD10O,1.800000X1.800000*%
%ADD11C,2.100000*%
%ADD12C,2.000000*%
%ADD13C,1.624000*%
%ADD14C,3.100000*%
%ADD15C,2.600000*%
%ADD16C,2.640000*%
%ADD17C,1.600000*%
%ADD18C,3.350000*%
%ADD19O,1.700000X1.700000*%
G04 APERTURE END LIST*
D10*
X151620000Y-88700000D03*
X154160000Y-88700000D03*
G36*
G01*
X155850000Y-87800000D02*
X157550000Y-87800000D01*
G75*
G02*
X157600000Y-87850000I0J-50000D01*
G01*
X157600000Y-89550000D01*
G75*
G02*
X157550000Y-89600000I-50000J0D01*
G01*
X155850000Y-89600000D01*
G75*
G02*
X155800000Y-89550000I0J50000D01*
G01*
X155800000Y-87850000D01*
G75*
G02*
X155850000Y-87800000I50000J0D01*
G01*
G37*
D11*
X130700000Y-148910000D03*
X130700000Y-145100000D03*
X130700000Y-141290000D03*
D12*
X170900000Y-160590000D03*
X170900000Y-164400000D03*
X170844000Y-100198000D03*
X170844000Y-104008000D03*
D13*
X170180000Y-132080000D03*
X167640000Y-132080000D03*
X127000000Y-132080000D03*
X124460000Y-132080000D03*
X170180000Y-129540000D03*
X167640000Y-129540000D03*
X170180000Y-127000000D03*
X167640000Y-127000000D03*
X170180000Y-124460000D03*
X167640000Y-124460000D03*
X170180000Y-121920000D03*
X167640000Y-121920000D03*
X170180000Y-119380000D03*
X167640000Y-119380000D03*
X170180000Y-116840000D03*
X167640000Y-116840000D03*
X170180000Y-114300000D03*
X167640000Y-114300000D03*
X170180000Y-111760000D03*
X167640000Y-111760000D03*
X170180000Y-109220000D03*
X167640000Y-109220000D03*
X170180000Y-68580000D03*
X167640000Y-68580000D03*
X170180000Y-66040000D03*
X167640000Y-66040000D03*
X170180000Y-63500000D03*
X167640000Y-63500000D03*
X170180000Y-60960000D03*
X167640000Y-60960000D03*
X170180000Y-58420000D03*
X167640000Y-58420000D03*
X170180000Y-55880000D03*
X167640000Y-55880000D03*
X170180000Y-53340000D03*
X167640000Y-53340000D03*
X170180000Y-50800000D03*
X167640000Y-50800000D03*
X170180000Y-48260000D03*
X167640000Y-48260000D03*
X170180000Y-45720000D03*
X167640000Y-45720000D03*
X127000000Y-129540000D03*
X124460000Y-129540000D03*
X127000000Y-127000000D03*
X124460000Y-127000000D03*
X127000000Y-124460000D03*
X124460000Y-124460000D03*
X127000000Y-121920000D03*
X124460000Y-121920000D03*
X127000000Y-119380000D03*
X124460000Y-119380000D03*
X127000000Y-116840000D03*
X124460000Y-116840000D03*
X127000000Y-114300000D03*
X124460000Y-114300000D03*
X127000000Y-111760000D03*
X124460000Y-111760000D03*
X127000000Y-109220000D03*
X124460000Y-109220000D03*
X127000000Y-68580000D03*
X124460000Y-68580000D03*
X127000000Y-66040000D03*
X124460000Y-66040000D03*
X127000000Y-63500000D03*
X124460000Y-63500000D03*
X127000000Y-60960000D03*
X124460000Y-60960000D03*
X127000000Y-58420000D03*
X124460000Y-58420000D03*
X127000000Y-55880000D03*
X124460000Y-55880000D03*
X127000000Y-53340000D03*
X124460000Y-53340000D03*
X127000000Y-50800000D03*
X124460000Y-50800000D03*
X127000000Y-48260000D03*
X124460000Y-48260000D03*
X127000000Y-45720000D03*
X124460000Y-45720000D03*
D14*
X154940000Y-145100000D03*
D15*
X152990000Y-151050000D03*
D14*
X140740000Y-151100000D03*
X140790000Y-139050000D03*
D15*
X152990000Y-139050000D03*
D11*
X130556000Y-123802000D03*
X135056000Y-123802000D03*
X130556000Y-130302000D03*
X135056000Y-130302000D03*
X169400000Y-78000000D03*
X169400000Y-82500000D03*
X162900000Y-78000000D03*
X162900000Y-82500000D03*
D10*
X155194000Y-109474000D03*
X152654000Y-109474000D03*
X150114000Y-109474000D03*
G36*
G01*
X148424000Y-110374000D02*
X146724000Y-110374000D01*
G75*
G02*
X146674000Y-110324000I0J50000D01*
G01*
X146674000Y-108624000D01*
G75*
G02*
X146724000Y-108574000I50000J0D01*
G01*
X148424000Y-108574000D01*
G75*
G02*
X148474000Y-108624000I0J-50000D01*
G01*
X148474000Y-110324000D01*
G75*
G02*
X148424000Y-110374000I-50000J0D01*
G01*
G37*
D16*
X133490000Y-102088000D03*
X133490000Y-97008000D03*
D17*
X153162000Y-61468000D03*
X150622000Y-61468000D03*
D14*
X162837000Y-49528000D03*
D17*
X158242000Y-61468000D03*
G36*
G01*
X158712000Y-59678000D02*
X158712000Y-58178000D01*
G75*
G02*
X158762000Y-58128000I50000J0D01*
G01*
X160262000Y-58128000D01*
G75*
G02*
X160312000Y-58178000I0J-50000D01*
G01*
X160312000Y-59678000D01*
G75*
G02*
X160262000Y-59728000I-50000J0D01*
G01*
X158762000Y-59728000D01*
G75*
G02*
X158712000Y-59678000I0J50000D01*
G01*
G37*
X151892000Y-58928000D03*
X155702000Y-61468000D03*
X154432000Y-58928000D03*
X156972000Y-58928000D03*
D18*
X160782000Y-52578000D03*
D14*
X147297000Y-49528000D03*
D18*
X149352000Y-52578000D03*
D17*
X140208000Y-83566000D03*
X140208000Y-86106000D03*
D14*
X128268000Y-73891000D03*
D17*
X140208000Y-78486000D03*
G36*
G01*
X138418000Y-78016000D02*
X136918000Y-78016000D01*
G75*
G02*
X136868000Y-77966000I0J50000D01*
G01*
X136868000Y-76466000D01*
G75*
G02*
X136918000Y-76416000I50000J0D01*
G01*
X138418000Y-76416000D01*
G75*
G02*
X138468000Y-76466000I0J-50000D01*
G01*
X138468000Y-77966000D01*
G75*
G02*
X138418000Y-78016000I-50000J0D01*
G01*
G37*
X137668000Y-84836000D03*
X140208000Y-81026000D03*
X137668000Y-82296000D03*
X137668000Y-79756000D03*
D18*
X131318000Y-75946000D03*
D14*
X128268000Y-89431000D03*
D18*
X131318000Y-87376000D03*
D19*
X162560000Y-142240000D03*
G36*
G01*
X163360000Y-150710000D02*
X161760000Y-150710000D01*
G75*
G02*
X161710000Y-150660000I0J50000D01*
G01*
X161710000Y-149060000D01*
G75*
G02*
X161760000Y-149010000I50000J0D01*
G01*
X163360000Y-149010000D01*
G75*
G02*
X163410000Y-149060000I0J-50000D01*
G01*
X163410000Y-150660000D01*
G75*
G02*
X163360000Y-150710000I-50000J0D01*
G01*
G37*
M02*
