G04 #@! TF.GenerationSoftware,KiCad,Pcbnew,(5.1.10-1-10_14)*
G04 #@! TF.CreationDate,2021-11-12T15:28:04+00:00*
G04 #@! TF.ProjectId,New-New-ACNode-Shield,4e65772d-4e65-4772-9d41-434e6f64652d,rev?*
G04 #@! TF.SameCoordinates,Original*
G04 #@! TF.FileFunction,Soldermask,Top*
G04 #@! TF.FilePolarity,Negative*
%FSLAX46Y46*%
G04 Gerber Fmt 4.6, Leading zero omitted, Abs format (unit mm)*
G04 Created by KiCad (PCBNEW (5.1.10-1-10_14)) date 2021-11-12 15:28:04*
%MOMM*%
%LPD*%
G01*
G04 APERTURE LIST*
%ADD10O,1.800000X1.800000*%
%ADD11C,2.100000*%
%ADD12C,2.000000*%
%ADD13C,1.624000*%
%ADD14C,3.100000*%
%ADD15C,2.600000*%
%ADD16C,2.640000*%
%ADD17C,1.600000*%
%ADD18C,3.350000*%
%ADD19O,1.700000X1.700000*%
G04 APERTURE END LIST*
D10*
X151620000Y-88700000D03*
X154160000Y-88700000D03*
G36*
G01*
X155850000Y-87800000D02*
X157550000Y-87800000D01*
G75*
G02*
X157600000Y-87850000I0J-50000D01*
G01*
X157600000Y-89550000D01*
G75*
G02*
X157550000Y-89600000I-50000J0D01*
G01*
X155850000Y-89600000D01*
G75*
G02*
X155800000Y-89550000I0J50000D01*
G01*
X155800000Y-87850000D01*
G75*
G02*
X155850000Y-87800000I50000J0D01*
G01*
G37*
D11*
X130700000Y-148910000D03*
X130700000Y-145100000D03*
X130700000Y-141290000D03*
D12*
X170900000Y-160590000D03*
X170900000Y-164400000D03*
X170844000Y-100198000D03*
X170844000Y-104008000D03*
D13*
X170180000Y-132080000D03*
X167640000Y-132080000D03*
X127000000Y-132080000D03*
X124460000Y-132080000D03*
X170180000Y-129540000D03*
X167640000Y-129540000D03*
X170180000Y-127000000D03*
X167640000Y-127000000D03*
X170180000Y-124460000D03*
X167640000Y-124460000D03*
X170180000Y-121920000D03*
X167640000Y-121920000D03*
X170180000Y-119380000D03*
X167640000Y-119380000D03*
X170180000Y-116840000D03*
X167640000Y-116840000D03*
X170180000Y-114300000D03*
X167640000Y-114300000D03*
X170180000Y-111760000D03*
X167640000Y-111760000D03*
X170180000Y-109220000D03*
X167640000Y-109220000D03*
X170180000Y-68580000D03*
X167640000Y-68580000D03*
X170180000Y-66040000D03*
X167640000Y-66040000D03*
X170180000Y-63500000D03*
X167640000Y-63500000D03*
X170180000Y-60960000D03*
X167640000Y-60960000D03*
X170180000Y-58420000D03*
X167640000Y-58420000D03*
X170180000Y-55880000D03*
X167640000Y-55880000D03*
X170180000Y-53340000D03*
X167640000Y-53340000D03*
X170180000Y-50800000D03*
X167640000Y-50800000D03*
X170180000Y-48260000D03*
X167640000Y-48260000D03*
X170180000Y-45720000D03*
X167640000Y-45720000D03*
X127000000Y-129540000D03*
X124460000Y-129540000D03*
X127000000Y-127000000D03*
X124460000Y-127000000D03*
X127000000Y-124460000D03*
X124460000Y-124460000D03*
X127000000Y-121920000D03*
X124460000Y-121920000D03*
X127000000Y-119380000D03*
X124460000Y-119380000D03*
X127000000Y-116840000D03*
X124460000Y-116840000D03*
X127000000Y-114300000D03*
X124460000Y-114300000D03*
X127000000Y-111760000D03*
X124460000Y-111760000D03*
X127000000Y-109220000D03*
X124460000Y-109220000D03*
X127000000Y-68580000D03*
X124460000Y-68580000D03*
X127000000Y-66040000D03*
X124460000Y-66040000D03*
X127000000Y-63500000D03*
X124460000Y-63500000D03*
X127000000Y-60960000D03*
X124460000Y-60960000D03*
X127000000Y-58420000D03*
X124460000Y-58420000D03*
X127000000Y-55880000D03*
X124460000Y-55880000D03*
X127000000Y-53340000D03*
X124460000Y-53340000D03*
X127000000Y-50800000D03*
X124460000Y-50800000D03*
X127000000Y-48260000D03*
X124460000Y-48260000D03*
X127000000Y-45720000D03*
X124460000Y-45720000D03*
D14*
X154940000Y-145100000D03*
D15*
X152990000Y-151050000D03*
D14*
X140740000Y-151100000D03*
X140790000Y-139050000D03*
D15*
X152990000Y-139050000D03*
G36*
G01*
X152680000Y-94606000D02*
X154180000Y-94606000D01*
G75*
G02*
X154230000Y-94656000I0J-50000D01*
G01*
X154230000Y-96656000D01*
G75*
G02*
X154180000Y-96706000I-50000J0D01*
G01*
X152680000Y-96706000D01*
G75*
G02*
X152630000Y-96656000I0J50000D01*
G01*
X152630000Y-94656000D01*
G75*
G02*
X152680000Y-94606000I50000J0D01*
G01*
G37*
G36*
G01*
X148080000Y-94606000D02*
X149580000Y-94606000D01*
G75*
G02*
X149630000Y-94656000I0J-50000D01*
G01*
X149630000Y-96656000D01*
G75*
G02*
X149580000Y-96706000I-50000J0D01*
G01*
X148080000Y-96706000D01*
G75*
G02*
X148030000Y-96656000I0J50000D01*
G01*
X148030000Y-94656000D01*
G75*
G02*
X148080000Y-94606000I50000J0D01*
G01*
G37*
G36*
G01*
X150380000Y-94606000D02*
X151880000Y-94606000D01*
G75*
G02*
X151930000Y-94656000I0J-50000D01*
G01*
X151930000Y-96656000D01*
G75*
G02*
X151880000Y-96706000I-50000J0D01*
G01*
X150380000Y-96706000D01*
G75*
G02*
X150330000Y-96656000I0J50000D01*
G01*
X150330000Y-94656000D01*
G75*
G02*
X150380000Y-94606000I50000J0D01*
G01*
G37*
G36*
G01*
X149230000Y-100906000D02*
X153030000Y-100906000D01*
G75*
G02*
X153080000Y-100956000I0J-50000D01*
G01*
X153080000Y-102956000D01*
G75*
G02*
X153030000Y-103006000I-50000J0D01*
G01*
X149230000Y-103006000D01*
G75*
G02*
X149180000Y-102956000I0J50000D01*
G01*
X149180000Y-100956000D01*
G75*
G02*
X149230000Y-100906000I50000J0D01*
G01*
G37*
G36*
G01*
X164450000Y-159980000D02*
X165450000Y-159980000D01*
G75*
G02*
X165500000Y-160030000I0J-50000D01*
G01*
X165500000Y-160830000D01*
G75*
G02*
X165450000Y-160880000I-50000J0D01*
G01*
X164450000Y-160880000D01*
G75*
G02*
X164400000Y-160830000I0J50000D01*
G01*
X164400000Y-160030000D01*
G75*
G02*
X164450000Y-159980000I50000J0D01*
G01*
G37*
G36*
G01*
X157950000Y-159980000D02*
X158950000Y-159980000D01*
G75*
G02*
X159000000Y-160030000I0J-50000D01*
G01*
X159000000Y-160830000D01*
G75*
G02*
X158950000Y-160880000I-50000J0D01*
G01*
X157950000Y-160880000D01*
G75*
G02*
X157900000Y-160830000I0J50000D01*
G01*
X157900000Y-160030000D01*
G75*
G02*
X157950000Y-159980000I50000J0D01*
G01*
G37*
G36*
G01*
X157950000Y-162520000D02*
X158950000Y-162520000D01*
G75*
G02*
X159000000Y-162570000I0J-50000D01*
G01*
X159000000Y-163370000D01*
G75*
G02*
X158950000Y-163420000I-50000J0D01*
G01*
X157950000Y-163420000D01*
G75*
G02*
X157900000Y-163370000I0J50000D01*
G01*
X157900000Y-162570000D01*
G75*
G02*
X157950000Y-162520000I50000J0D01*
G01*
G37*
G36*
G01*
X164450000Y-162520000D02*
X165450000Y-162520000D01*
G75*
G02*
X165500000Y-162570000I0J-50000D01*
G01*
X165500000Y-163370000D01*
G75*
G02*
X165450000Y-163420000I-50000J0D01*
G01*
X164450000Y-163420000D01*
G75*
G02*
X164400000Y-163370000I0J50000D01*
G01*
X164400000Y-162570000D01*
G75*
G02*
X164450000Y-162520000I50000J0D01*
G01*
G37*
G36*
G01*
X139402000Y-54912000D02*
X139402000Y-54562000D01*
G75*
G02*
X139577000Y-54387000I175000J0D01*
G01*
X140927000Y-54387000D01*
G75*
G02*
X141102000Y-54562000I0J-175000D01*
G01*
X141102000Y-54912000D01*
G75*
G02*
X140927000Y-55087000I-175000J0D01*
G01*
X139577000Y-55087000D01*
G75*
G02*
X139402000Y-54912000I0J175000D01*
G01*
G37*
G36*
G01*
X139402000Y-56182000D02*
X139402000Y-55832000D01*
G75*
G02*
X139577000Y-55657000I175000J0D01*
G01*
X140927000Y-55657000D01*
G75*
G02*
X141102000Y-55832000I0J-175000D01*
G01*
X141102000Y-56182000D01*
G75*
G02*
X140927000Y-56357000I-175000J0D01*
G01*
X139577000Y-56357000D01*
G75*
G02*
X139402000Y-56182000I0J175000D01*
G01*
G37*
G36*
G01*
X139402000Y-57452000D02*
X139402000Y-57102000D01*
G75*
G02*
X139577000Y-56927000I175000J0D01*
G01*
X140927000Y-56927000D01*
G75*
G02*
X141102000Y-57102000I0J-175000D01*
G01*
X141102000Y-57452000D01*
G75*
G02*
X140927000Y-57627000I-175000J0D01*
G01*
X139577000Y-57627000D01*
G75*
G02*
X139402000Y-57452000I0J175000D01*
G01*
G37*
G36*
G01*
X139402000Y-58722000D02*
X139402000Y-58372000D01*
G75*
G02*
X139577000Y-58197000I175000J0D01*
G01*
X140927000Y-58197000D01*
G75*
G02*
X141102000Y-58372000I0J-175000D01*
G01*
X141102000Y-58722000D01*
G75*
G02*
X140927000Y-58897000I-175000J0D01*
G01*
X139577000Y-58897000D01*
G75*
G02*
X139402000Y-58722000I0J175000D01*
G01*
G37*
G36*
G01*
X132202000Y-58722000D02*
X132202000Y-58372000D01*
G75*
G02*
X132377000Y-58197000I175000J0D01*
G01*
X133727000Y-58197000D01*
G75*
G02*
X133902000Y-58372000I0J-175000D01*
G01*
X133902000Y-58722000D01*
G75*
G02*
X133727000Y-58897000I-175000J0D01*
G01*
X132377000Y-58897000D01*
G75*
G02*
X132202000Y-58722000I0J175000D01*
G01*
G37*
G36*
G01*
X132202000Y-57452000D02*
X132202000Y-57102000D01*
G75*
G02*
X132377000Y-56927000I175000J0D01*
G01*
X133727000Y-56927000D01*
G75*
G02*
X133902000Y-57102000I0J-175000D01*
G01*
X133902000Y-57452000D01*
G75*
G02*
X133727000Y-57627000I-175000J0D01*
G01*
X132377000Y-57627000D01*
G75*
G02*
X132202000Y-57452000I0J175000D01*
G01*
G37*
G36*
G01*
X132202000Y-56182000D02*
X132202000Y-55832000D01*
G75*
G02*
X132377000Y-55657000I175000J0D01*
G01*
X133727000Y-55657000D01*
G75*
G02*
X133902000Y-55832000I0J-175000D01*
G01*
X133902000Y-56182000D01*
G75*
G02*
X133727000Y-56357000I-175000J0D01*
G01*
X132377000Y-56357000D01*
G75*
G02*
X132202000Y-56182000I0J175000D01*
G01*
G37*
G36*
G01*
X132202000Y-54912000D02*
X132202000Y-54562000D01*
G75*
G02*
X132377000Y-54387000I175000J0D01*
G01*
X133727000Y-54387000D01*
G75*
G02*
X133902000Y-54562000I0J-175000D01*
G01*
X133902000Y-54912000D01*
G75*
G02*
X133727000Y-55087000I-175000J0D01*
G01*
X132377000Y-55087000D01*
G75*
G02*
X132202000Y-54912000I0J175000D01*
G01*
G37*
G36*
G01*
X147902000Y-85423000D02*
X147902000Y-85773000D01*
G75*
G02*
X147727000Y-85948000I-175000J0D01*
G01*
X146027000Y-85948000D01*
G75*
G02*
X145852000Y-85773000I0J175000D01*
G01*
X145852000Y-85423000D01*
G75*
G02*
X146027000Y-85248000I175000J0D01*
G01*
X147727000Y-85248000D01*
G75*
G02*
X147902000Y-85423000I0J-175000D01*
G01*
G37*
G36*
G01*
X147902000Y-84153000D02*
X147902000Y-84503000D01*
G75*
G02*
X147727000Y-84678000I-175000J0D01*
G01*
X146027000Y-84678000D01*
G75*
G02*
X145852000Y-84503000I0J175000D01*
G01*
X145852000Y-84153000D01*
G75*
G02*
X146027000Y-83978000I175000J0D01*
G01*
X147727000Y-83978000D01*
G75*
G02*
X147902000Y-84153000I0J-175000D01*
G01*
G37*
G36*
G01*
X147902000Y-82883000D02*
X147902000Y-83233000D01*
G75*
G02*
X147727000Y-83408000I-175000J0D01*
G01*
X146027000Y-83408000D01*
G75*
G02*
X145852000Y-83233000I0J175000D01*
G01*
X145852000Y-82883000D01*
G75*
G02*
X146027000Y-82708000I175000J0D01*
G01*
X147727000Y-82708000D01*
G75*
G02*
X147902000Y-82883000I0J-175000D01*
G01*
G37*
G36*
G01*
X147902000Y-81613000D02*
X147902000Y-81963000D01*
G75*
G02*
X147727000Y-82138000I-175000J0D01*
G01*
X146027000Y-82138000D01*
G75*
G02*
X145852000Y-81963000I0J175000D01*
G01*
X145852000Y-81613000D01*
G75*
G02*
X146027000Y-81438000I175000J0D01*
G01*
X147727000Y-81438000D01*
G75*
G02*
X147902000Y-81613000I0J-175000D01*
G01*
G37*
G36*
G01*
X147902000Y-80343000D02*
X147902000Y-80693000D01*
G75*
G02*
X147727000Y-80868000I-175000J0D01*
G01*
X146027000Y-80868000D01*
G75*
G02*
X145852000Y-80693000I0J175000D01*
G01*
X145852000Y-80343000D01*
G75*
G02*
X146027000Y-80168000I175000J0D01*
G01*
X147727000Y-80168000D01*
G75*
G02*
X147902000Y-80343000I0J-175000D01*
G01*
G37*
G36*
G01*
X147902000Y-79073000D02*
X147902000Y-79423000D01*
G75*
G02*
X147727000Y-79598000I-175000J0D01*
G01*
X146027000Y-79598000D01*
G75*
G02*
X145852000Y-79423000I0J175000D01*
G01*
X145852000Y-79073000D01*
G75*
G02*
X146027000Y-78898000I175000J0D01*
G01*
X147727000Y-78898000D01*
G75*
G02*
X147902000Y-79073000I0J-175000D01*
G01*
G37*
G36*
G01*
X147902000Y-77803000D02*
X147902000Y-78153000D01*
G75*
G02*
X147727000Y-78328000I-175000J0D01*
G01*
X146027000Y-78328000D01*
G75*
G02*
X145852000Y-78153000I0J175000D01*
G01*
X145852000Y-77803000D01*
G75*
G02*
X146027000Y-77628000I175000J0D01*
G01*
X147727000Y-77628000D01*
G75*
G02*
X147902000Y-77803000I0J-175000D01*
G01*
G37*
G36*
G01*
X152852000Y-77803000D02*
X152852000Y-78153000D01*
G75*
G02*
X152677000Y-78328000I-175000J0D01*
G01*
X150977000Y-78328000D01*
G75*
G02*
X150802000Y-78153000I0J175000D01*
G01*
X150802000Y-77803000D01*
G75*
G02*
X150977000Y-77628000I175000J0D01*
G01*
X152677000Y-77628000D01*
G75*
G02*
X152852000Y-77803000I0J-175000D01*
G01*
G37*
G36*
G01*
X152852000Y-79073000D02*
X152852000Y-79423000D01*
G75*
G02*
X152677000Y-79598000I-175000J0D01*
G01*
X150977000Y-79598000D01*
G75*
G02*
X150802000Y-79423000I0J175000D01*
G01*
X150802000Y-79073000D01*
G75*
G02*
X150977000Y-78898000I175000J0D01*
G01*
X152677000Y-78898000D01*
G75*
G02*
X152852000Y-79073000I0J-175000D01*
G01*
G37*
G36*
G01*
X152852000Y-80343000D02*
X152852000Y-80693000D01*
G75*
G02*
X152677000Y-80868000I-175000J0D01*
G01*
X150977000Y-80868000D01*
G75*
G02*
X150802000Y-80693000I0J175000D01*
G01*
X150802000Y-80343000D01*
G75*
G02*
X150977000Y-80168000I175000J0D01*
G01*
X152677000Y-80168000D01*
G75*
G02*
X152852000Y-80343000I0J-175000D01*
G01*
G37*
G36*
G01*
X152852000Y-81613000D02*
X152852000Y-81963000D01*
G75*
G02*
X152677000Y-82138000I-175000J0D01*
G01*
X150977000Y-82138000D01*
G75*
G02*
X150802000Y-81963000I0J175000D01*
G01*
X150802000Y-81613000D01*
G75*
G02*
X150977000Y-81438000I175000J0D01*
G01*
X152677000Y-81438000D01*
G75*
G02*
X152852000Y-81613000I0J-175000D01*
G01*
G37*
G36*
G01*
X152852000Y-82883000D02*
X152852000Y-83233000D01*
G75*
G02*
X152677000Y-83408000I-175000J0D01*
G01*
X150977000Y-83408000D01*
G75*
G02*
X150802000Y-83233000I0J175000D01*
G01*
X150802000Y-82883000D01*
G75*
G02*
X150977000Y-82708000I175000J0D01*
G01*
X152677000Y-82708000D01*
G75*
G02*
X152852000Y-82883000I0J-175000D01*
G01*
G37*
G36*
G01*
X152852000Y-84153000D02*
X152852000Y-84503000D01*
G75*
G02*
X152677000Y-84678000I-175000J0D01*
G01*
X150977000Y-84678000D01*
G75*
G02*
X150802000Y-84503000I0J175000D01*
G01*
X150802000Y-84153000D01*
G75*
G02*
X150977000Y-83978000I175000J0D01*
G01*
X152677000Y-83978000D01*
G75*
G02*
X152852000Y-84153000I0J-175000D01*
G01*
G37*
G36*
G01*
X152852000Y-85423000D02*
X152852000Y-85773000D01*
G75*
G02*
X152677000Y-85948000I-175000J0D01*
G01*
X150977000Y-85948000D01*
G75*
G02*
X150802000Y-85773000I0J175000D01*
G01*
X150802000Y-85423000D01*
G75*
G02*
X150977000Y-85248000I175000J0D01*
G01*
X152677000Y-85248000D01*
G75*
G02*
X152852000Y-85423000I0J-175000D01*
G01*
G37*
D11*
X130556000Y-123802000D03*
X135056000Y-123802000D03*
X130556000Y-130302000D03*
X135056000Y-130302000D03*
X169400000Y-78000000D03*
X169400000Y-82500000D03*
X162900000Y-78000000D03*
X162900000Y-82500000D03*
G36*
G01*
X161752000Y-98016750D02*
X161752000Y-98579250D01*
G75*
G02*
X161508250Y-98823000I-243750J0D01*
G01*
X161020750Y-98823000D01*
G75*
G02*
X160777000Y-98579250I0J243750D01*
G01*
X160777000Y-98016750D01*
G75*
G02*
X161020750Y-97773000I243750J0D01*
G01*
X161508250Y-97773000D01*
G75*
G02*
X161752000Y-98016750I0J-243750D01*
G01*
G37*
G36*
G01*
X163327000Y-98016750D02*
X163327000Y-98579250D01*
G75*
G02*
X163083250Y-98823000I-243750J0D01*
G01*
X162595750Y-98823000D01*
G75*
G02*
X162352000Y-98579250I0J243750D01*
G01*
X162352000Y-98016750D01*
G75*
G02*
X162595750Y-97773000I243750J0D01*
G01*
X163083250Y-97773000D01*
G75*
G02*
X163327000Y-98016750I0J-243750D01*
G01*
G37*
G36*
G01*
X162768000Y-103858750D02*
X162768000Y-104421250D01*
G75*
G02*
X162524250Y-104665000I-243750J0D01*
G01*
X162036750Y-104665000D01*
G75*
G02*
X161793000Y-104421250I0J243750D01*
G01*
X161793000Y-103858750D01*
G75*
G02*
X162036750Y-103615000I243750J0D01*
G01*
X162524250Y-103615000D01*
G75*
G02*
X162768000Y-103858750I0J-243750D01*
G01*
G37*
G36*
G01*
X164343000Y-103858750D02*
X164343000Y-104421250D01*
G75*
G02*
X164099250Y-104665000I-243750J0D01*
G01*
X163611750Y-104665000D01*
G75*
G02*
X163368000Y-104421250I0J243750D01*
G01*
X163368000Y-103858750D01*
G75*
G02*
X163611750Y-103615000I243750J0D01*
G01*
X164099250Y-103615000D01*
G75*
G02*
X164343000Y-103858750I0J-243750D01*
G01*
G37*
G36*
G01*
X133142000Y-133631250D02*
X133142000Y-133068750D01*
G75*
G02*
X133385750Y-132825000I243750J0D01*
G01*
X133873250Y-132825000D01*
G75*
G02*
X134117000Y-133068750I0J-243750D01*
G01*
X134117000Y-133631250D01*
G75*
G02*
X133873250Y-133875000I-243750J0D01*
G01*
X133385750Y-133875000D01*
G75*
G02*
X133142000Y-133631250I0J243750D01*
G01*
G37*
G36*
G01*
X131567000Y-133631250D02*
X131567000Y-133068750D01*
G75*
G02*
X131810750Y-132825000I243750J0D01*
G01*
X132298250Y-132825000D01*
G75*
G02*
X132542000Y-133068750I0J-243750D01*
G01*
X132542000Y-133631250D01*
G75*
G02*
X132298250Y-133875000I-243750J0D01*
G01*
X131810750Y-133875000D01*
G75*
G02*
X131567000Y-133631250I0J243750D01*
G01*
G37*
G36*
G01*
X155729250Y-112730000D02*
X155166750Y-112730000D01*
G75*
G02*
X154923000Y-112486250I0J243750D01*
G01*
X154923000Y-111998750D01*
G75*
G02*
X155166750Y-111755000I243750J0D01*
G01*
X155729250Y-111755000D01*
G75*
G02*
X155973000Y-111998750I0J-243750D01*
G01*
X155973000Y-112486250D01*
G75*
G02*
X155729250Y-112730000I-243750J0D01*
G01*
G37*
G36*
G01*
X155729250Y-114305000D02*
X155166750Y-114305000D01*
G75*
G02*
X154923000Y-114061250I0J243750D01*
G01*
X154923000Y-113573750D01*
G75*
G02*
X155166750Y-113330000I243750J0D01*
G01*
X155729250Y-113330000D01*
G75*
G02*
X155973000Y-113573750I0J-243750D01*
G01*
X155973000Y-114061250D01*
G75*
G02*
X155729250Y-114305000I-243750J0D01*
G01*
G37*
G36*
G01*
X152935250Y-112730000D02*
X152372750Y-112730000D01*
G75*
G02*
X152129000Y-112486250I0J243750D01*
G01*
X152129000Y-111998750D01*
G75*
G02*
X152372750Y-111755000I243750J0D01*
G01*
X152935250Y-111755000D01*
G75*
G02*
X153179000Y-111998750I0J-243750D01*
G01*
X153179000Y-112486250D01*
G75*
G02*
X152935250Y-112730000I-243750J0D01*
G01*
G37*
G36*
G01*
X152935250Y-114305000D02*
X152372750Y-114305000D01*
G75*
G02*
X152129000Y-114061250I0J243750D01*
G01*
X152129000Y-113573750D01*
G75*
G02*
X152372750Y-113330000I243750J0D01*
G01*
X152935250Y-113330000D01*
G75*
G02*
X153179000Y-113573750I0J-243750D01*
G01*
X153179000Y-114061250D01*
G75*
G02*
X152935250Y-114305000I-243750J0D01*
G01*
G37*
G36*
G01*
X167900000Y-165181250D02*
X167900000Y-164618750D01*
G75*
G02*
X168143750Y-164375000I243750J0D01*
G01*
X168631250Y-164375000D01*
G75*
G02*
X168875000Y-164618750I0J-243750D01*
G01*
X168875000Y-165181250D01*
G75*
G02*
X168631250Y-165425000I-243750J0D01*
G01*
X168143750Y-165425000D01*
G75*
G02*
X167900000Y-165181250I0J243750D01*
G01*
G37*
G36*
G01*
X166325000Y-165181250D02*
X166325000Y-164618750D01*
G75*
G02*
X166568750Y-164375000I243750J0D01*
G01*
X167056250Y-164375000D01*
G75*
G02*
X167300000Y-164618750I0J-243750D01*
G01*
X167300000Y-165181250D01*
G75*
G02*
X167056250Y-165425000I-243750J0D01*
G01*
X166568750Y-165425000D01*
G75*
G02*
X166325000Y-165181250I0J243750D01*
G01*
G37*
G36*
G01*
X129818750Y-48400000D02*
X130381250Y-48400000D01*
G75*
G02*
X130625000Y-48643750I0J-243750D01*
G01*
X130625000Y-49131250D01*
G75*
G02*
X130381250Y-49375000I-243750J0D01*
G01*
X129818750Y-49375000D01*
G75*
G02*
X129575000Y-49131250I0J243750D01*
G01*
X129575000Y-48643750D01*
G75*
G02*
X129818750Y-48400000I243750J0D01*
G01*
G37*
G36*
G01*
X129818750Y-46825000D02*
X130381250Y-46825000D01*
G75*
G02*
X130625000Y-47068750I0J-243750D01*
G01*
X130625000Y-47556250D01*
G75*
G02*
X130381250Y-47800000I-243750J0D01*
G01*
X129818750Y-47800000D01*
G75*
G02*
X129575000Y-47556250I0J243750D01*
G01*
X129575000Y-47068750D01*
G75*
G02*
X129818750Y-46825000I243750J0D01*
G01*
G37*
G36*
G01*
X165816000Y-136878750D02*
X165816000Y-137441250D01*
G75*
G02*
X165572250Y-137685000I-243750J0D01*
G01*
X165084750Y-137685000D01*
G75*
G02*
X164841000Y-137441250I0J243750D01*
G01*
X164841000Y-136878750D01*
G75*
G02*
X165084750Y-136635000I243750J0D01*
G01*
X165572250Y-136635000D01*
G75*
G02*
X165816000Y-136878750I0J-243750D01*
G01*
G37*
G36*
G01*
X167391000Y-136878750D02*
X167391000Y-137441250D01*
G75*
G02*
X167147250Y-137685000I-243750J0D01*
G01*
X166659750Y-137685000D01*
G75*
G02*
X166416000Y-137441250I0J243750D01*
G01*
X166416000Y-136878750D01*
G75*
G02*
X166659750Y-136635000I243750J0D01*
G01*
X167147250Y-136635000D01*
G75*
G02*
X167391000Y-136878750I0J-243750D01*
G01*
G37*
G36*
G01*
X142521250Y-121112000D02*
X141958750Y-121112000D01*
G75*
G02*
X141715000Y-120868250I0J243750D01*
G01*
X141715000Y-120380750D01*
G75*
G02*
X141958750Y-120137000I243750J0D01*
G01*
X142521250Y-120137000D01*
G75*
G02*
X142765000Y-120380750I0J-243750D01*
G01*
X142765000Y-120868250D01*
G75*
G02*
X142521250Y-121112000I-243750J0D01*
G01*
G37*
G36*
G01*
X142521250Y-122687000D02*
X141958750Y-122687000D01*
G75*
G02*
X141715000Y-122443250I0J243750D01*
G01*
X141715000Y-121955750D01*
G75*
G02*
X141958750Y-121712000I243750J0D01*
G01*
X142521250Y-121712000D01*
G75*
G02*
X142765000Y-121955750I0J-243750D01*
G01*
X142765000Y-122443250D01*
G75*
G02*
X142521250Y-122687000I-243750J0D01*
G01*
G37*
G36*
G01*
X142521250Y-115270000D02*
X141958750Y-115270000D01*
G75*
G02*
X141715000Y-115026250I0J243750D01*
G01*
X141715000Y-114538750D01*
G75*
G02*
X141958750Y-114295000I243750J0D01*
G01*
X142521250Y-114295000D01*
G75*
G02*
X142765000Y-114538750I0J-243750D01*
G01*
X142765000Y-115026250D01*
G75*
G02*
X142521250Y-115270000I-243750J0D01*
G01*
G37*
G36*
G01*
X142521250Y-116845000D02*
X141958750Y-116845000D01*
G75*
G02*
X141715000Y-116601250I0J243750D01*
G01*
X141715000Y-116113750D01*
G75*
G02*
X141958750Y-115870000I243750J0D01*
G01*
X142521250Y-115870000D01*
G75*
G02*
X142765000Y-116113750I0J-243750D01*
G01*
X142765000Y-116601250D01*
G75*
G02*
X142521250Y-116845000I-243750J0D01*
G01*
G37*
G36*
G01*
X142521250Y-110190000D02*
X141958750Y-110190000D01*
G75*
G02*
X141715000Y-109946250I0J243750D01*
G01*
X141715000Y-109458750D01*
G75*
G02*
X141958750Y-109215000I243750J0D01*
G01*
X142521250Y-109215000D01*
G75*
G02*
X142765000Y-109458750I0J-243750D01*
G01*
X142765000Y-109946250D01*
G75*
G02*
X142521250Y-110190000I-243750J0D01*
G01*
G37*
G36*
G01*
X142521250Y-111765000D02*
X141958750Y-111765000D01*
G75*
G02*
X141715000Y-111521250I0J243750D01*
G01*
X141715000Y-111033750D01*
G75*
G02*
X141958750Y-110790000I243750J0D01*
G01*
X142521250Y-110790000D01*
G75*
G02*
X142765000Y-111033750I0J-243750D01*
G01*
X142765000Y-111521250D01*
G75*
G02*
X142521250Y-111765000I-243750J0D01*
G01*
G37*
G36*
G01*
X133396000Y-119661250D02*
X133396000Y-119098750D01*
G75*
G02*
X133639750Y-118855000I243750J0D01*
G01*
X134127250Y-118855000D01*
G75*
G02*
X134371000Y-119098750I0J-243750D01*
G01*
X134371000Y-119661250D01*
G75*
G02*
X134127250Y-119905000I-243750J0D01*
G01*
X133639750Y-119905000D01*
G75*
G02*
X133396000Y-119661250I0J243750D01*
G01*
G37*
G36*
G01*
X131821000Y-119661250D02*
X131821000Y-119098750D01*
G75*
G02*
X132064750Y-118855000I243750J0D01*
G01*
X132552250Y-118855000D01*
G75*
G02*
X132796000Y-119098750I0J-243750D01*
G01*
X132796000Y-119661250D01*
G75*
G02*
X132552250Y-119905000I-243750J0D01*
G01*
X132064750Y-119905000D01*
G75*
G02*
X131821000Y-119661250I0J243750D01*
G01*
G37*
G36*
G01*
X132361250Y-110444000D02*
X131798750Y-110444000D01*
G75*
G02*
X131555000Y-110200250I0J243750D01*
G01*
X131555000Y-109712750D01*
G75*
G02*
X131798750Y-109469000I243750J0D01*
G01*
X132361250Y-109469000D01*
G75*
G02*
X132605000Y-109712750I0J-243750D01*
G01*
X132605000Y-110200250D01*
G75*
G02*
X132361250Y-110444000I-243750J0D01*
G01*
G37*
G36*
G01*
X132361250Y-112019000D02*
X131798750Y-112019000D01*
G75*
G02*
X131555000Y-111775250I0J243750D01*
G01*
X131555000Y-111287750D01*
G75*
G02*
X131798750Y-111044000I243750J0D01*
G01*
X132361250Y-111044000D01*
G75*
G02*
X132605000Y-111287750I0J-243750D01*
G01*
X132605000Y-111775250D01*
G75*
G02*
X132361250Y-112019000I-243750J0D01*
G01*
G37*
G36*
G01*
X134920000Y-110517250D02*
X134920000Y-109954750D01*
G75*
G02*
X135163750Y-109711000I243750J0D01*
G01*
X135651250Y-109711000D01*
G75*
G02*
X135895000Y-109954750I0J-243750D01*
G01*
X135895000Y-110517250D01*
G75*
G02*
X135651250Y-110761000I-243750J0D01*
G01*
X135163750Y-110761000D01*
G75*
G02*
X134920000Y-110517250I0J243750D01*
G01*
G37*
G36*
G01*
X133345000Y-110517250D02*
X133345000Y-109954750D01*
G75*
G02*
X133588750Y-109711000I243750J0D01*
G01*
X134076250Y-109711000D01*
G75*
G02*
X134320000Y-109954750I0J-243750D01*
G01*
X134320000Y-110517250D01*
G75*
G02*
X134076250Y-110761000I-243750J0D01*
G01*
X133588750Y-110761000D01*
G75*
G02*
X133345000Y-110517250I0J243750D01*
G01*
G37*
G36*
G01*
X130583250Y-55072000D02*
X130020750Y-55072000D01*
G75*
G02*
X129777000Y-54828250I0J243750D01*
G01*
X129777000Y-54340750D01*
G75*
G02*
X130020750Y-54097000I243750J0D01*
G01*
X130583250Y-54097000D01*
G75*
G02*
X130827000Y-54340750I0J-243750D01*
G01*
X130827000Y-54828250D01*
G75*
G02*
X130583250Y-55072000I-243750J0D01*
G01*
G37*
G36*
G01*
X130583250Y-56647000D02*
X130020750Y-56647000D01*
G75*
G02*
X129777000Y-56403250I0J243750D01*
G01*
X129777000Y-55915750D01*
G75*
G02*
X130020750Y-55672000I243750J0D01*
G01*
X130583250Y-55672000D01*
G75*
G02*
X130827000Y-55915750I0J-243750D01*
G01*
X130827000Y-56403250D01*
G75*
G02*
X130583250Y-56647000I-243750J0D01*
G01*
G37*
G36*
G01*
X144498750Y-82596000D02*
X145061250Y-82596000D01*
G75*
G02*
X145305000Y-82839750I0J-243750D01*
G01*
X145305000Y-83327250D01*
G75*
G02*
X145061250Y-83571000I-243750J0D01*
G01*
X144498750Y-83571000D01*
G75*
G02*
X144255000Y-83327250I0J243750D01*
G01*
X144255000Y-82839750D01*
G75*
G02*
X144498750Y-82596000I243750J0D01*
G01*
G37*
G36*
G01*
X144498750Y-81021000D02*
X145061250Y-81021000D01*
G75*
G02*
X145305000Y-81264750I0J-243750D01*
G01*
X145305000Y-81752250D01*
G75*
G02*
X145061250Y-81996000I-243750J0D01*
G01*
X144498750Y-81996000D01*
G75*
G02*
X144255000Y-81752250I0J243750D01*
G01*
X144255000Y-81264750D01*
G75*
G02*
X144498750Y-81021000I243750J0D01*
G01*
G37*
G36*
G01*
X161652000Y-101592000D02*
X162452000Y-101592000D01*
G75*
G02*
X162502000Y-101642000I0J-50000D01*
G01*
X162502000Y-102542000D01*
G75*
G02*
X162452000Y-102592000I-50000J0D01*
G01*
X161652000Y-102592000D01*
G75*
G02*
X161602000Y-102542000I0J50000D01*
G01*
X161602000Y-101642000D01*
G75*
G02*
X161652000Y-101592000I50000J0D01*
G01*
G37*
G36*
G01*
X160702000Y-99592000D02*
X161502000Y-99592000D01*
G75*
G02*
X161552000Y-99642000I0J-50000D01*
G01*
X161552000Y-100542000D01*
G75*
G02*
X161502000Y-100592000I-50000J0D01*
G01*
X160702000Y-100592000D01*
G75*
G02*
X160652000Y-100542000I0J50000D01*
G01*
X160652000Y-99642000D01*
G75*
G02*
X160702000Y-99592000I50000J0D01*
G01*
G37*
G36*
G01*
X162602000Y-99592000D02*
X163402000Y-99592000D01*
G75*
G02*
X163452000Y-99642000I0J-50000D01*
G01*
X163452000Y-100542000D01*
G75*
G02*
X163402000Y-100592000I-50000J0D01*
G01*
X162602000Y-100592000D01*
G75*
G02*
X162552000Y-100542000I0J50000D01*
G01*
X162552000Y-99642000D01*
G75*
G02*
X162602000Y-99592000I50000J0D01*
G01*
G37*
G36*
G01*
X165716000Y-141470000D02*
X166516000Y-141470000D01*
G75*
G02*
X166566000Y-141520000I0J-50000D01*
G01*
X166566000Y-142420000D01*
G75*
G02*
X166516000Y-142470000I-50000J0D01*
G01*
X165716000Y-142470000D01*
G75*
G02*
X165666000Y-142420000I0J50000D01*
G01*
X165666000Y-141520000D01*
G75*
G02*
X165716000Y-141470000I50000J0D01*
G01*
G37*
G36*
G01*
X164766000Y-139470000D02*
X165566000Y-139470000D01*
G75*
G02*
X165616000Y-139520000I0J-50000D01*
G01*
X165616000Y-140420000D01*
G75*
G02*
X165566000Y-140470000I-50000J0D01*
G01*
X164766000Y-140470000D01*
G75*
G02*
X164716000Y-140420000I0J50000D01*
G01*
X164716000Y-139520000D01*
G75*
G02*
X164766000Y-139470000I50000J0D01*
G01*
G37*
G36*
G01*
X166666000Y-139470000D02*
X167466000Y-139470000D01*
G75*
G02*
X167516000Y-139520000I0J-50000D01*
G01*
X167516000Y-140420000D01*
G75*
G02*
X167466000Y-140470000I-50000J0D01*
G01*
X166666000Y-140470000D01*
G75*
G02*
X166616000Y-140420000I0J50000D01*
G01*
X166616000Y-139520000D01*
G75*
G02*
X166666000Y-139470000I50000J0D01*
G01*
G37*
G36*
G01*
X143790000Y-94606000D02*
X145290000Y-94606000D01*
G75*
G02*
X145340000Y-94656000I0J-50000D01*
G01*
X145340000Y-96656000D01*
G75*
G02*
X145290000Y-96706000I-50000J0D01*
G01*
X143790000Y-96706000D01*
G75*
G02*
X143740000Y-96656000I0J50000D01*
G01*
X143740000Y-94656000D01*
G75*
G02*
X143790000Y-94606000I50000J0D01*
G01*
G37*
G36*
G01*
X139190000Y-94606000D02*
X140690000Y-94606000D01*
G75*
G02*
X140740000Y-94656000I0J-50000D01*
G01*
X140740000Y-96656000D01*
G75*
G02*
X140690000Y-96706000I-50000J0D01*
G01*
X139190000Y-96706000D01*
G75*
G02*
X139140000Y-96656000I0J50000D01*
G01*
X139140000Y-94656000D01*
G75*
G02*
X139190000Y-94606000I50000J0D01*
G01*
G37*
G36*
G01*
X141490000Y-94606000D02*
X142990000Y-94606000D01*
G75*
G02*
X143040000Y-94656000I0J-50000D01*
G01*
X143040000Y-96656000D01*
G75*
G02*
X142990000Y-96706000I-50000J0D01*
G01*
X141490000Y-96706000D01*
G75*
G02*
X141440000Y-96656000I0J50000D01*
G01*
X141440000Y-94656000D01*
G75*
G02*
X141490000Y-94606000I50000J0D01*
G01*
G37*
G36*
G01*
X140340000Y-100906000D02*
X144140000Y-100906000D01*
G75*
G02*
X144190000Y-100956000I0J-50000D01*
G01*
X144190000Y-102956000D01*
G75*
G02*
X144140000Y-103006000I-50000J0D01*
G01*
X140340000Y-103006000D01*
G75*
G02*
X140290000Y-102956000I0J50000D01*
G01*
X140290000Y-100956000D01*
G75*
G02*
X140340000Y-100906000I50000J0D01*
G01*
G37*
G36*
G01*
X138946000Y-121012000D02*
X138946000Y-121812000D01*
G75*
G02*
X138896000Y-121862000I-50000J0D01*
G01*
X137996000Y-121862000D01*
G75*
G02*
X137946000Y-121812000I0J50000D01*
G01*
X137946000Y-121012000D01*
G75*
G02*
X137996000Y-120962000I50000J0D01*
G01*
X138896000Y-120962000D01*
G75*
G02*
X138946000Y-121012000I0J-50000D01*
G01*
G37*
G36*
G01*
X140946000Y-120062000D02*
X140946000Y-120862000D01*
G75*
G02*
X140896000Y-120912000I-50000J0D01*
G01*
X139996000Y-120912000D01*
G75*
G02*
X139946000Y-120862000I0J50000D01*
G01*
X139946000Y-120062000D01*
G75*
G02*
X139996000Y-120012000I50000J0D01*
G01*
X140896000Y-120012000D01*
G75*
G02*
X140946000Y-120062000I0J-50000D01*
G01*
G37*
G36*
G01*
X140946000Y-121962000D02*
X140946000Y-122762000D01*
G75*
G02*
X140896000Y-122812000I-50000J0D01*
G01*
X139996000Y-122812000D01*
G75*
G02*
X139946000Y-122762000I0J50000D01*
G01*
X139946000Y-121962000D01*
G75*
G02*
X139996000Y-121912000I50000J0D01*
G01*
X140896000Y-121912000D01*
G75*
G02*
X140946000Y-121962000I0J-50000D01*
G01*
G37*
G36*
G01*
X138946000Y-115170000D02*
X138946000Y-115970000D01*
G75*
G02*
X138896000Y-116020000I-50000J0D01*
G01*
X137996000Y-116020000D01*
G75*
G02*
X137946000Y-115970000I0J50000D01*
G01*
X137946000Y-115170000D01*
G75*
G02*
X137996000Y-115120000I50000J0D01*
G01*
X138896000Y-115120000D01*
G75*
G02*
X138946000Y-115170000I0J-50000D01*
G01*
G37*
G36*
G01*
X140946000Y-114220000D02*
X140946000Y-115020000D01*
G75*
G02*
X140896000Y-115070000I-50000J0D01*
G01*
X139996000Y-115070000D01*
G75*
G02*
X139946000Y-115020000I0J50000D01*
G01*
X139946000Y-114220000D01*
G75*
G02*
X139996000Y-114170000I50000J0D01*
G01*
X140896000Y-114170000D01*
G75*
G02*
X140946000Y-114220000I0J-50000D01*
G01*
G37*
G36*
G01*
X140946000Y-116120000D02*
X140946000Y-116920000D01*
G75*
G02*
X140896000Y-116970000I-50000J0D01*
G01*
X139996000Y-116970000D01*
G75*
G02*
X139946000Y-116920000I0J50000D01*
G01*
X139946000Y-116120000D01*
G75*
G02*
X139996000Y-116070000I50000J0D01*
G01*
X140896000Y-116070000D01*
G75*
G02*
X140946000Y-116120000I0J-50000D01*
G01*
G37*
G36*
G01*
X138692000Y-110090000D02*
X138692000Y-110890000D01*
G75*
G02*
X138642000Y-110940000I-50000J0D01*
G01*
X137742000Y-110940000D01*
G75*
G02*
X137692000Y-110890000I0J50000D01*
G01*
X137692000Y-110090000D01*
G75*
G02*
X137742000Y-110040000I50000J0D01*
G01*
X138642000Y-110040000D01*
G75*
G02*
X138692000Y-110090000I0J-50000D01*
G01*
G37*
G36*
G01*
X140692000Y-109140000D02*
X140692000Y-109940000D01*
G75*
G02*
X140642000Y-109990000I-50000J0D01*
G01*
X139742000Y-109990000D01*
G75*
G02*
X139692000Y-109940000I0J50000D01*
G01*
X139692000Y-109140000D01*
G75*
G02*
X139742000Y-109090000I50000J0D01*
G01*
X140642000Y-109090000D01*
G75*
G02*
X140692000Y-109140000I0J-50000D01*
G01*
G37*
G36*
G01*
X140692000Y-111040000D02*
X140692000Y-111840000D01*
G75*
G02*
X140642000Y-111890000I-50000J0D01*
G01*
X139742000Y-111890000D01*
G75*
G02*
X139692000Y-111840000I0J50000D01*
G01*
X139692000Y-111040000D01*
G75*
G02*
X139742000Y-110990000I50000J0D01*
G01*
X140642000Y-110990000D01*
G75*
G02*
X140692000Y-111040000I0J-50000D01*
G01*
G37*
G36*
G01*
X155594000Y-66302000D02*
X154794000Y-66302000D01*
G75*
G02*
X154744000Y-66252000I0J50000D01*
G01*
X154744000Y-65352000D01*
G75*
G02*
X154794000Y-65302000I50000J0D01*
G01*
X155594000Y-65302000D01*
G75*
G02*
X155644000Y-65352000I0J-50000D01*
G01*
X155644000Y-66252000D01*
G75*
G02*
X155594000Y-66302000I-50000J0D01*
G01*
G37*
G36*
G01*
X156544000Y-68302000D02*
X155744000Y-68302000D01*
G75*
G02*
X155694000Y-68252000I0J50000D01*
G01*
X155694000Y-67352000D01*
G75*
G02*
X155744000Y-67302000I50000J0D01*
G01*
X156544000Y-67302000D01*
G75*
G02*
X156594000Y-67352000I0J-50000D01*
G01*
X156594000Y-68252000D01*
G75*
G02*
X156544000Y-68302000I-50000J0D01*
G01*
G37*
G36*
G01*
X154644000Y-68302000D02*
X153844000Y-68302000D01*
G75*
G02*
X153794000Y-68252000I0J50000D01*
G01*
X153794000Y-67352000D01*
G75*
G02*
X153844000Y-67302000I50000J0D01*
G01*
X154644000Y-67302000D01*
G75*
G02*
X154694000Y-67352000I0J-50000D01*
G01*
X154694000Y-68252000D01*
G75*
G02*
X154644000Y-68302000I-50000J0D01*
G01*
G37*
G36*
G01*
X150006000Y-66048000D02*
X149206000Y-66048000D01*
G75*
G02*
X149156000Y-65998000I0J50000D01*
G01*
X149156000Y-65098000D01*
G75*
G02*
X149206000Y-65048000I50000J0D01*
G01*
X150006000Y-65048000D01*
G75*
G02*
X150056000Y-65098000I0J-50000D01*
G01*
X150056000Y-65998000D01*
G75*
G02*
X150006000Y-66048000I-50000J0D01*
G01*
G37*
G36*
G01*
X150956000Y-68048000D02*
X150156000Y-68048000D01*
G75*
G02*
X150106000Y-67998000I0J50000D01*
G01*
X150106000Y-67098000D01*
G75*
G02*
X150156000Y-67048000I50000J0D01*
G01*
X150956000Y-67048000D01*
G75*
G02*
X151006000Y-67098000I0J-50000D01*
G01*
X151006000Y-67998000D01*
G75*
G02*
X150956000Y-68048000I-50000J0D01*
G01*
G37*
G36*
G01*
X149056000Y-68048000D02*
X148256000Y-68048000D01*
G75*
G02*
X148206000Y-67998000I0J50000D01*
G01*
X148206000Y-67098000D01*
G75*
G02*
X148256000Y-67048000I50000J0D01*
G01*
X149056000Y-67048000D01*
G75*
G02*
X149106000Y-67098000I0J-50000D01*
G01*
X149106000Y-67998000D01*
G75*
G02*
X149056000Y-68048000I-50000J0D01*
G01*
G37*
G36*
G01*
X160674000Y-66302000D02*
X159874000Y-66302000D01*
G75*
G02*
X159824000Y-66252000I0J50000D01*
G01*
X159824000Y-65352000D01*
G75*
G02*
X159874000Y-65302000I50000J0D01*
G01*
X160674000Y-65302000D01*
G75*
G02*
X160724000Y-65352000I0J-50000D01*
G01*
X160724000Y-66252000D01*
G75*
G02*
X160674000Y-66302000I-50000J0D01*
G01*
G37*
G36*
G01*
X161624000Y-68302000D02*
X160824000Y-68302000D01*
G75*
G02*
X160774000Y-68252000I0J50000D01*
G01*
X160774000Y-67352000D01*
G75*
G02*
X160824000Y-67302000I50000J0D01*
G01*
X161624000Y-67302000D01*
G75*
G02*
X161674000Y-67352000I0J-50000D01*
G01*
X161674000Y-68252000D01*
G75*
G02*
X161624000Y-68302000I-50000J0D01*
G01*
G37*
G36*
G01*
X159724000Y-68302000D02*
X158924000Y-68302000D01*
G75*
G02*
X158874000Y-68252000I0J50000D01*
G01*
X158874000Y-67352000D01*
G75*
G02*
X158924000Y-67302000I50000J0D01*
G01*
X159724000Y-67302000D01*
G75*
G02*
X159774000Y-67352000I0J-50000D01*
G01*
X159774000Y-68252000D01*
G75*
G02*
X159724000Y-68302000I-50000J0D01*
G01*
G37*
D10*
X155194000Y-109474000D03*
X152654000Y-109474000D03*
X150114000Y-109474000D03*
G36*
G01*
X148424000Y-110374000D02*
X146724000Y-110374000D01*
G75*
G02*
X146674000Y-110324000I0J50000D01*
G01*
X146674000Y-108624000D01*
G75*
G02*
X146724000Y-108574000I50000J0D01*
G01*
X148424000Y-108574000D01*
G75*
G02*
X148474000Y-108624000I0J-50000D01*
G01*
X148474000Y-110324000D01*
G75*
G02*
X148424000Y-110374000I-50000J0D01*
G01*
G37*
D16*
X133490000Y-102088000D03*
X133490000Y-97008000D03*
D17*
X153162000Y-61468000D03*
X150622000Y-61468000D03*
D14*
X162837000Y-49528000D03*
D17*
X158242000Y-61468000D03*
G36*
G01*
X158712000Y-59678000D02*
X158712000Y-58178000D01*
G75*
G02*
X158762000Y-58128000I50000J0D01*
G01*
X160262000Y-58128000D01*
G75*
G02*
X160312000Y-58178000I0J-50000D01*
G01*
X160312000Y-59678000D01*
G75*
G02*
X160262000Y-59728000I-50000J0D01*
G01*
X158762000Y-59728000D01*
G75*
G02*
X158712000Y-59678000I0J50000D01*
G01*
G37*
X151892000Y-58928000D03*
X155702000Y-61468000D03*
X154432000Y-58928000D03*
X156972000Y-58928000D03*
D18*
X160782000Y-52578000D03*
D14*
X147297000Y-49528000D03*
D18*
X149352000Y-52578000D03*
D17*
X140208000Y-83566000D03*
X140208000Y-86106000D03*
D14*
X128268000Y-73891000D03*
D17*
X140208000Y-78486000D03*
G36*
G01*
X138418000Y-78016000D02*
X136918000Y-78016000D01*
G75*
G02*
X136868000Y-77966000I0J50000D01*
G01*
X136868000Y-76466000D01*
G75*
G02*
X136918000Y-76416000I50000J0D01*
G01*
X138418000Y-76416000D01*
G75*
G02*
X138468000Y-76466000I0J-50000D01*
G01*
X138468000Y-77966000D01*
G75*
G02*
X138418000Y-78016000I-50000J0D01*
G01*
G37*
X137668000Y-84836000D03*
X140208000Y-81026000D03*
X137668000Y-82296000D03*
X137668000Y-79756000D03*
D18*
X131318000Y-75946000D03*
D14*
X128268000Y-89431000D03*
D18*
X131318000Y-87376000D03*
G36*
G01*
X167278000Y-100557250D02*
X167278000Y-99594750D01*
G75*
G02*
X167546750Y-99326000I268750J0D01*
G01*
X168084250Y-99326000D01*
G75*
G02*
X168353000Y-99594750I0J-268750D01*
G01*
X168353000Y-100557250D01*
G75*
G02*
X168084250Y-100826000I-268750J0D01*
G01*
X167546750Y-100826000D01*
G75*
G02*
X167278000Y-100557250I0J268750D01*
G01*
G37*
G36*
G01*
X165403000Y-100557250D02*
X165403000Y-99594750D01*
G75*
G02*
X165671750Y-99326000I268750J0D01*
G01*
X166209250Y-99326000D01*
G75*
G02*
X166478000Y-99594750I0J-268750D01*
G01*
X166478000Y-100557250D01*
G75*
G02*
X166209250Y-100826000I-268750J0D01*
G01*
X165671750Y-100826000D01*
G75*
G02*
X165403000Y-100557250I0J268750D01*
G01*
G37*
G36*
G01*
X166478000Y-103658750D02*
X166478000Y-104621250D01*
G75*
G02*
X166209250Y-104890000I-268750J0D01*
G01*
X165671750Y-104890000D01*
G75*
G02*
X165403000Y-104621250I0J268750D01*
G01*
X165403000Y-103658750D01*
G75*
G02*
X165671750Y-103390000I268750J0D01*
G01*
X166209250Y-103390000D01*
G75*
G02*
X166478000Y-103658750I0J-268750D01*
G01*
G37*
G36*
G01*
X168353000Y-103658750D02*
X168353000Y-104621250D01*
G75*
G02*
X168084250Y-104890000I-268750J0D01*
G01*
X167546750Y-104890000D01*
G75*
G02*
X167278000Y-104621250I0J268750D01*
G01*
X167278000Y-103658750D01*
G75*
G02*
X167546750Y-103390000I268750J0D01*
G01*
X168084250Y-103390000D01*
G75*
G02*
X168353000Y-103658750I0J-268750D01*
G01*
G37*
D19*
X162560000Y-142240000D03*
G36*
G01*
X163360000Y-150710000D02*
X161760000Y-150710000D01*
G75*
G02*
X161710000Y-150660000I0J50000D01*
G01*
X161710000Y-149060000D01*
G75*
G02*
X161760000Y-149010000I50000J0D01*
G01*
X163360000Y-149010000D01*
G75*
G02*
X163410000Y-149060000I0J-50000D01*
G01*
X163410000Y-150660000D01*
G75*
G02*
X163360000Y-150710000I-50000J0D01*
G01*
G37*
G36*
G01*
X131896000Y-117616000D02*
X131896000Y-116116000D01*
G75*
G02*
X131946000Y-116066000I50000J0D01*
G01*
X132846000Y-116066000D01*
G75*
G02*
X132896000Y-116116000I0J-50000D01*
G01*
X132896000Y-117616000D01*
G75*
G02*
X132846000Y-117666000I-50000J0D01*
G01*
X131946000Y-117666000D01*
G75*
G02*
X131896000Y-117616000I0J50000D01*
G01*
G37*
G36*
G01*
X133296000Y-117616000D02*
X133296000Y-116116000D01*
G75*
G02*
X133346000Y-116066000I50000J0D01*
G01*
X134246000Y-116066000D01*
G75*
G02*
X134296000Y-116116000I0J-50000D01*
G01*
X134296000Y-117616000D01*
G75*
G02*
X134246000Y-117666000I-50000J0D01*
G01*
X133346000Y-117666000D01*
G75*
G02*
X133296000Y-117616000I0J50000D01*
G01*
G37*
G36*
G01*
X131896000Y-114516000D02*
X131896000Y-113016000D01*
G75*
G02*
X131946000Y-112966000I50000J0D01*
G01*
X132846000Y-112966000D01*
G75*
G02*
X132896000Y-113016000I0J-50000D01*
G01*
X132896000Y-114516000D01*
G75*
G02*
X132846000Y-114566000I-50000J0D01*
G01*
X131946000Y-114566000D01*
G75*
G02*
X131896000Y-114516000I0J50000D01*
G01*
G37*
G36*
G01*
X133296000Y-114516000D02*
X133296000Y-113016000D01*
G75*
G02*
X133346000Y-112966000I50000J0D01*
G01*
X134246000Y-112966000D01*
G75*
G02*
X134296000Y-113016000I0J-50000D01*
G01*
X134296000Y-114516000D01*
G75*
G02*
X134246000Y-114566000I-50000J0D01*
G01*
X133346000Y-114566000D01*
G75*
G02*
X133296000Y-114516000I0J50000D01*
G01*
G37*
G36*
G01*
X153054000Y-92937250D02*
X153054000Y-91974750D01*
G75*
G02*
X153322750Y-91706000I268750J0D01*
G01*
X153860250Y-91706000D01*
G75*
G02*
X154129000Y-91974750I0J-268750D01*
G01*
X154129000Y-92937250D01*
G75*
G02*
X153860250Y-93206000I-268750J0D01*
G01*
X153322750Y-93206000D01*
G75*
G02*
X153054000Y-92937250I0J268750D01*
G01*
G37*
G36*
G01*
X151179000Y-92937250D02*
X151179000Y-91974750D01*
G75*
G02*
X151447750Y-91706000I268750J0D01*
G01*
X151985250Y-91706000D01*
G75*
G02*
X152254000Y-91974750I0J-268750D01*
G01*
X152254000Y-92937250D01*
G75*
G02*
X151985250Y-93206000I-268750J0D01*
G01*
X151447750Y-93206000D01*
G75*
G02*
X151179000Y-92937250I0J268750D01*
G01*
G37*
G36*
G01*
X149325250Y-91040000D02*
X148362750Y-91040000D01*
G75*
G02*
X148094000Y-90771250I0J268750D01*
G01*
X148094000Y-90233750D01*
G75*
G02*
X148362750Y-89965000I268750J0D01*
G01*
X149325250Y-89965000D01*
G75*
G02*
X149594000Y-90233750I0J-268750D01*
G01*
X149594000Y-90771250D01*
G75*
G02*
X149325250Y-91040000I-268750J0D01*
G01*
G37*
G36*
G01*
X149325250Y-92915000D02*
X148362750Y-92915000D01*
G75*
G02*
X148094000Y-92646250I0J268750D01*
G01*
X148094000Y-92108750D01*
G75*
G02*
X148362750Y-91840000I268750J0D01*
G01*
X149325250Y-91840000D01*
G75*
G02*
X149594000Y-92108750I0J-268750D01*
G01*
X149594000Y-92646250D01*
G75*
G02*
X149325250Y-92915000I-268750J0D01*
G01*
G37*
G36*
G01*
X142956000Y-54582750D02*
X142956000Y-55145250D01*
G75*
G02*
X142712250Y-55389000I-243750J0D01*
G01*
X142224750Y-55389000D01*
G75*
G02*
X141981000Y-55145250I0J243750D01*
G01*
X141981000Y-54582750D01*
G75*
G02*
X142224750Y-54339000I243750J0D01*
G01*
X142712250Y-54339000D01*
G75*
G02*
X142956000Y-54582750I0J-243750D01*
G01*
G37*
G36*
G01*
X144531000Y-54582750D02*
X144531000Y-55145250D01*
G75*
G02*
X144287250Y-55389000I-243750J0D01*
G01*
X143799750Y-55389000D01*
G75*
G02*
X143556000Y-55145250I0J243750D01*
G01*
X143556000Y-54582750D01*
G75*
G02*
X143799750Y-54339000I243750J0D01*
G01*
X144287250Y-54339000D01*
G75*
G02*
X144531000Y-54582750I0J-243750D01*
G01*
G37*
G36*
G01*
X146276750Y-88438000D02*
X146839250Y-88438000D01*
G75*
G02*
X147083000Y-88681750I0J-243750D01*
G01*
X147083000Y-89169250D01*
G75*
G02*
X146839250Y-89413000I-243750J0D01*
G01*
X146276750Y-89413000D01*
G75*
G02*
X146033000Y-89169250I0J243750D01*
G01*
X146033000Y-88681750D01*
G75*
G02*
X146276750Y-88438000I243750J0D01*
G01*
G37*
G36*
G01*
X146276750Y-86863000D02*
X146839250Y-86863000D01*
G75*
G02*
X147083000Y-87106750I0J-243750D01*
G01*
X147083000Y-87594250D01*
G75*
G02*
X146839250Y-87838000I-243750J0D01*
G01*
X146276750Y-87838000D01*
G75*
G02*
X146033000Y-87594250I0J243750D01*
G01*
X146033000Y-87106750D01*
G75*
G02*
X146276750Y-86863000I243750J0D01*
G01*
G37*
M02*
