%FSLAX45Y45*%
G04 Gerber Fmt 4.5, Leading zero omitted, Abs format (unit mm)*
G04 Created by KiCad (PCBNEW (5.1.10-1-10_14)) date 2021-11-12 15:28:32*
%MOMM*%
%LPD*%
G01*
G04 APERTURE LIST*
%TA.AperFunction,Profile*%
%ADD10C,0.050000*%
%TD*%
%ADD11C,0.200000*%
%ADD12C,0.300000*%
G04 APERTURE END LIST*
D10*
X15060000Y-15400000D02*
X12319000Y-15400000D01*
X15060000Y-16891000D02*
X15060000Y-15400000D01*
X16390000Y-15920000D02*
G75*
G02*
X16390000Y-15720000I0J100000D01*
G01*
X16390000Y-15920000D02*
X17500000Y-15920000D01*
X17500000Y-15720000D02*
X16390000Y-15720000D01*
X17500000Y-15720000D02*
G75*
G02*
X17500000Y-15920000I0J-100000D01*
G01*
X16090000Y-16030000D02*
X16090000Y-16390000D01*
X16290000Y-16390000D02*
X16290000Y-16030000D01*
X16290000Y-16390000D02*
G75*
G02*
X16090000Y-16390000I-100000J0D01*
G01*
X16090000Y-16030000D02*
G75*
G02*
X16290000Y-16030000I100000J0D01*
G01*
X14976000Y-13626800D02*
X14976000Y-14185600D01*
X15077600Y-14084000D02*
X15077600Y-13626800D01*
X14976000Y-13626800D02*
G75*
G02*
X15077600Y-13626800I50800J0D01*
G01*
X12446000Y-13614400D02*
X14880000Y-13614400D01*
X14880000Y-13512800D02*
X12446000Y-13512800D01*
X12446000Y-13614400D02*
G75*
G02*
X12446000Y-13512800I0J50800D01*
G01*
X14880000Y-13512800D02*
G75*
G02*
X14880000Y-13614400I0J-50800D01*
G01*
X15890400Y-14134800D02*
X15128400Y-14134800D01*
X15128400Y-14134800D02*
G75*
G02*
X15077600Y-14084000I0J50800D01*
G01*
X15941200Y-14846000D02*
X15941200Y-14185600D01*
X15890400Y-14134800D02*
G75*
G02*
X15941200Y-14185600I0J-50800D01*
G01*
X15890400Y-14896800D02*
X15128400Y-14896800D01*
X15941200Y-14846000D02*
G75*
G02*
X15890400Y-14896800I-50800J0D01*
G01*
X15077600Y-15240000D02*
G75*
G02*
X14976000Y-15240000I-50800J0D01*
G01*
X15077600Y-14947600D02*
X15077600Y-15240000D01*
X14976000Y-14846000D02*
X14976000Y-15240000D01*
X15077600Y-14947600D02*
G75*
G02*
X15128400Y-14896800I50800J0D01*
G01*
X14976000Y-14846000D02*
G75*
G02*
X15026800Y-14795200I50800J0D01*
G01*
X15788800Y-14795200D02*
X15026800Y-14795200D01*
X15788800Y-14236400D02*
X15026800Y-14236400D01*
X15026800Y-14236400D02*
G75*
G02*
X14976000Y-14185600I0J50800D01*
G01*
X15839600Y-14744400D02*
X15839600Y-14287200D01*
X15788800Y-14236400D02*
G75*
G02*
X15839600Y-14287200I0J-50800D01*
G01*
X15839600Y-14744400D02*
G75*
G02*
X15788800Y-14795200I-50800J0D01*
G01*
X12319000Y-15400000D02*
X12319000Y-4445000D01*
X17907000Y-16891000D02*
X15060000Y-16891000D01*
X17907000Y-4445000D02*
X17907000Y-16891000D01*
X12319000Y-4445000D02*
X17907000Y-4445000D01*
D11*
X12969300Y-7432100D02*
X13294300Y-7757100D01*
X13294300Y-7432100D02*
X12969300Y-7757100D01*
X12969300Y-8575100D02*
X13294300Y-8900100D01*
X13294300Y-8575100D02*
X12969300Y-8900100D01*
X14772700Y-5095300D02*
X15097700Y-5420300D01*
X15097700Y-5095300D02*
X14772700Y-5420300D01*
X15915700Y-5095300D02*
X16240700Y-5420300D01*
X16240700Y-5095300D02*
X15915700Y-5420300D01*
D12*
X12602928Y-17359214D02*
X12602928Y-17059214D01*
X12674357Y-17059214D01*
X12717214Y-17073500D01*
X12745786Y-17102072D01*
X12760071Y-17130643D01*
X12774357Y-17187786D01*
X12774357Y-17230643D01*
X12760071Y-17287786D01*
X12745786Y-17316357D01*
X12717214Y-17344929D01*
X12674357Y-17359214D01*
X12602928Y-17359214D01*
X12902928Y-17359214D02*
X12902928Y-17159214D01*
X12902928Y-17216357D02*
X12917214Y-17187786D01*
X12931500Y-17173500D01*
X12960071Y-17159214D01*
X12988643Y-17159214D01*
X13088643Y-17359214D02*
X13088643Y-17159214D01*
X13088643Y-17059214D02*
X13074357Y-17073500D01*
X13088643Y-17087786D01*
X13102928Y-17073500D01*
X13088643Y-17059214D01*
X13088643Y-17087786D01*
X13274357Y-17359214D02*
X13245786Y-17344929D01*
X13231500Y-17316357D01*
X13231500Y-17059214D01*
X13431500Y-17359214D02*
X13402928Y-17344929D01*
X13388643Y-17316357D01*
X13388643Y-17059214D01*
X13774357Y-17359214D02*
X13774357Y-17059214D01*
X13874357Y-17273500D01*
X13974357Y-17059214D01*
X13974357Y-17359214D01*
X14245786Y-17359214D02*
X14245786Y-17202072D01*
X14231500Y-17173500D01*
X14202928Y-17159214D01*
X14145786Y-17159214D01*
X14117214Y-17173500D01*
X14245786Y-17344929D02*
X14217214Y-17359214D01*
X14145786Y-17359214D01*
X14117214Y-17344929D01*
X14102928Y-17316357D01*
X14102928Y-17287786D01*
X14117214Y-17259214D01*
X14145786Y-17244929D01*
X14217214Y-17244929D01*
X14245786Y-17230643D01*
X14388643Y-17159214D02*
X14388643Y-17459214D01*
X14388643Y-17173500D02*
X14417214Y-17159214D01*
X14474357Y-17159214D01*
X14502928Y-17173500D01*
X14517214Y-17187786D01*
X14531500Y-17216357D01*
X14531500Y-17302072D01*
X14517214Y-17330643D01*
X14502928Y-17344929D01*
X14474357Y-17359214D01*
X14417214Y-17359214D01*
X14388643Y-17344929D01*
X14660071Y-17330643D02*
X14674357Y-17344929D01*
X14660071Y-17359214D01*
X14645786Y-17344929D01*
X14660071Y-17330643D01*
X14660071Y-17359214D01*
X14660071Y-17173500D02*
X14674357Y-17187786D01*
X14660071Y-17202072D01*
X14645786Y-17187786D01*
X14660071Y-17173500D01*
X14660071Y-17202072D01*
X11991500Y-17691000D02*
X12316500Y-18016000D01*
X12316500Y-17691000D02*
X11991500Y-18016000D01*
X12574357Y-17689214D02*
X12760071Y-17689214D01*
X12660071Y-17803500D01*
X12702928Y-17803500D01*
X12731500Y-17817786D01*
X12745786Y-17832072D01*
X12760071Y-17860643D01*
X12760071Y-17932072D01*
X12745786Y-17960643D01*
X12731500Y-17974929D01*
X12702928Y-17989214D01*
X12617214Y-17989214D01*
X12588643Y-17974929D01*
X12574357Y-17960643D01*
X12888643Y-17960643D02*
X12902928Y-17974929D01*
X12888643Y-17989214D01*
X12874357Y-17974929D01*
X12888643Y-17960643D01*
X12888643Y-17989214D01*
X13017214Y-17717786D02*
X13031500Y-17703500D01*
X13060071Y-17689214D01*
X13131500Y-17689214D01*
X13160071Y-17703500D01*
X13174357Y-17717786D01*
X13188643Y-17746357D01*
X13188643Y-17774929D01*
X13174357Y-17817786D01*
X13002928Y-17989214D01*
X13188643Y-17989214D01*
X13460071Y-17689214D02*
X13317214Y-17689214D01*
X13302928Y-17832072D01*
X13317214Y-17817786D01*
X13345786Y-17803500D01*
X13417214Y-17803500D01*
X13445786Y-17817786D01*
X13460071Y-17832072D01*
X13474357Y-17860643D01*
X13474357Y-17932072D01*
X13460071Y-17960643D01*
X13445786Y-17974929D01*
X13417214Y-17989214D01*
X13345786Y-17989214D01*
X13317214Y-17974929D01*
X13302928Y-17960643D01*
X13660071Y-17689214D02*
X13688643Y-17689214D01*
X13717214Y-17703500D01*
X13731500Y-17717786D01*
X13745786Y-17746357D01*
X13760071Y-17803500D01*
X13760071Y-17874929D01*
X13745786Y-17932072D01*
X13731500Y-17960643D01*
X13717214Y-17974929D01*
X13688643Y-17989214D01*
X13660071Y-17989214D01*
X13631500Y-17974929D01*
X13617214Y-17960643D01*
X13602928Y-17932072D01*
X13588643Y-17874929D01*
X13588643Y-17803500D01*
X13602928Y-17746357D01*
X13617214Y-17717786D01*
X13631500Y-17703500D01*
X13660071Y-17689214D01*
X13888643Y-17989214D02*
X13888643Y-17789214D01*
X13888643Y-17817786D02*
X13902928Y-17803500D01*
X13931500Y-17789214D01*
X13974357Y-17789214D01*
X14002928Y-17803500D01*
X14017214Y-17832072D01*
X14017214Y-17989214D01*
X14017214Y-17832072D02*
X14031500Y-17803500D01*
X14060071Y-17789214D01*
X14102928Y-17789214D01*
X14131500Y-17803500D01*
X14145786Y-17832072D01*
X14145786Y-17989214D01*
X14288643Y-17989214D02*
X14288643Y-17789214D01*
X14288643Y-17817786D02*
X14302928Y-17803500D01*
X14331500Y-17789214D01*
X14374357Y-17789214D01*
X14402928Y-17803500D01*
X14417214Y-17832072D01*
X14417214Y-17989214D01*
X14417214Y-17832072D02*
X14431500Y-17803500D01*
X14460071Y-17789214D01*
X14502928Y-17789214D01*
X14531500Y-17803500D01*
X14545786Y-17832072D01*
X14545786Y-17989214D01*
X15131500Y-17674929D02*
X14874357Y-18060643D01*
X15517214Y-17689214D02*
X15545786Y-17689214D01*
X15574357Y-17703500D01*
X15588643Y-17717786D01*
X15602928Y-17746357D01*
X15617214Y-17803500D01*
X15617214Y-17874929D01*
X15602928Y-17932072D01*
X15588643Y-17960643D01*
X15574357Y-17974929D01*
X15545786Y-17989214D01*
X15517214Y-17989214D01*
X15488643Y-17974929D01*
X15474357Y-17960643D01*
X15460071Y-17932072D01*
X15445786Y-17874929D01*
X15445786Y-17803500D01*
X15460071Y-17746357D01*
X15474357Y-17717786D01*
X15488643Y-17703500D01*
X15517214Y-17689214D01*
X15745786Y-17960643D02*
X15760071Y-17974929D01*
X15745786Y-17989214D01*
X15731500Y-17974929D01*
X15745786Y-17960643D01*
X15745786Y-17989214D01*
X16045786Y-17989214D02*
X15874357Y-17989214D01*
X15960071Y-17989214D02*
X15960071Y-17689214D01*
X15931500Y-17732072D01*
X15902928Y-17760643D01*
X15874357Y-17774929D01*
X16160071Y-17717786D02*
X16174357Y-17703500D01*
X16202928Y-17689214D01*
X16274357Y-17689214D01*
X16302928Y-17703500D01*
X16317214Y-17717786D01*
X16331500Y-17746357D01*
X16331500Y-17774929D01*
X16317214Y-17817786D01*
X16145786Y-17989214D01*
X16331500Y-17989214D01*
X16502928Y-17817786D02*
X16474357Y-17803500D01*
X16460071Y-17789214D01*
X16445786Y-17760643D01*
X16445786Y-17746357D01*
X16460071Y-17717786D01*
X16474357Y-17703500D01*
X16502928Y-17689214D01*
X16560071Y-17689214D01*
X16588643Y-17703500D01*
X16602928Y-17717786D01*
X16617214Y-17746357D01*
X16617214Y-17760643D01*
X16602928Y-17789214D01*
X16588643Y-17803500D01*
X16560071Y-17817786D01*
X16502928Y-17817786D01*
X16474357Y-17832072D01*
X16460071Y-17846357D01*
X16445786Y-17874929D01*
X16445786Y-17932072D01*
X16460071Y-17960643D01*
X16474357Y-17974929D01*
X16502928Y-17989214D01*
X16560071Y-17989214D01*
X16588643Y-17974929D01*
X16602928Y-17960643D01*
X16617214Y-17932072D01*
X16617214Y-17874929D01*
X16602928Y-17846357D01*
X16588643Y-17832072D01*
X16560071Y-17817786D01*
X16802928Y-17689214D02*
X16831500Y-17689214D01*
X16860071Y-17703500D01*
X16874357Y-17717786D01*
X16888643Y-17746357D01*
X16902928Y-17803500D01*
X16902928Y-17874929D01*
X16888643Y-17932072D01*
X16874357Y-17960643D01*
X16860071Y-17974929D01*
X16831500Y-17989214D01*
X16802928Y-17989214D01*
X16774357Y-17974929D01*
X16760071Y-17960643D01*
X16745786Y-17932072D01*
X16731500Y-17874929D01*
X16731500Y-17803500D01*
X16745786Y-17746357D01*
X16760071Y-17717786D01*
X16774357Y-17703500D01*
X16802928Y-17689214D01*
X17017214Y-17689214D02*
X17017214Y-17746357D01*
X17131500Y-17689214D02*
X17131500Y-17746357D01*
X17574357Y-18103500D02*
X17560071Y-18089214D01*
X17531500Y-18046357D01*
X17517214Y-18017786D01*
X17502928Y-17974929D01*
X17488643Y-17903500D01*
X17488643Y-17846357D01*
X17502928Y-17774929D01*
X17517214Y-17732072D01*
X17531500Y-17703500D01*
X17560071Y-17660643D01*
X17574357Y-17646357D01*
X17817214Y-17789214D02*
X17817214Y-17989214D01*
X17745786Y-17674929D02*
X17674357Y-17889214D01*
X17860071Y-17889214D01*
X18202928Y-17989214D02*
X18202928Y-17689214D01*
X18331500Y-17989214D02*
X18331500Y-17832072D01*
X18317214Y-17803500D01*
X18288643Y-17789214D01*
X18245786Y-17789214D01*
X18217214Y-17803500D01*
X18202928Y-17817786D01*
X18517214Y-17989214D02*
X18488643Y-17974929D01*
X18474357Y-17960643D01*
X18460071Y-17932072D01*
X18460071Y-17846357D01*
X18474357Y-17817786D01*
X18488643Y-17803500D01*
X18517214Y-17789214D01*
X18560071Y-17789214D01*
X18588643Y-17803500D01*
X18602928Y-17817786D01*
X18617214Y-17846357D01*
X18617214Y-17932072D01*
X18602928Y-17960643D01*
X18588643Y-17974929D01*
X18560071Y-17989214D01*
X18517214Y-17989214D01*
X18788643Y-17989214D02*
X18760071Y-17974929D01*
X18745786Y-17946357D01*
X18745786Y-17689214D01*
X19017214Y-17974929D02*
X18988643Y-17989214D01*
X18931500Y-17989214D01*
X18902928Y-17974929D01*
X18888643Y-17946357D01*
X18888643Y-17832072D01*
X18902928Y-17803500D01*
X18931500Y-17789214D01*
X18988643Y-17789214D01*
X19017214Y-17803500D01*
X19031500Y-17832072D01*
X19031500Y-17860643D01*
X18888643Y-17889214D01*
X19145786Y-17974929D02*
X19174357Y-17989214D01*
X19231500Y-17989214D01*
X19260071Y-17974929D01*
X19274357Y-17946357D01*
X19274357Y-17932072D01*
X19260071Y-17903500D01*
X19231500Y-17889214D01*
X19188643Y-17889214D01*
X19160071Y-17874929D01*
X19145786Y-17846357D01*
X19145786Y-17832072D01*
X19160071Y-17803500D01*
X19188643Y-17789214D01*
X19231500Y-17789214D01*
X19260071Y-17803500D01*
X19374357Y-18103500D02*
X19388643Y-18089214D01*
X19417214Y-18046357D01*
X19431500Y-18017786D01*
X19445786Y-17974929D01*
X19460071Y-17903500D01*
X19460071Y-17846357D01*
X19445786Y-17774929D01*
X19431500Y-17732072D01*
X19417214Y-17703500D01*
X19388643Y-17660643D01*
X19374357Y-17646357D01*
X19917214Y-18103500D02*
X19902928Y-18089214D01*
X19874357Y-18046357D01*
X19860071Y-18017786D01*
X19845786Y-17974929D01*
X19831500Y-17903500D01*
X19831500Y-17846357D01*
X19845786Y-17774929D01*
X19860071Y-17732072D01*
X19874357Y-17703500D01*
X19902928Y-17660643D01*
X19917214Y-17646357D01*
X20031500Y-17789214D02*
X20031500Y-17989214D01*
X20031500Y-17817786D02*
X20045786Y-17803500D01*
X20074357Y-17789214D01*
X20117214Y-17789214D01*
X20145786Y-17803500D01*
X20160071Y-17832072D01*
X20160071Y-17989214D01*
X20345786Y-17989214D02*
X20317214Y-17974929D01*
X20302928Y-17960643D01*
X20288643Y-17932072D01*
X20288643Y-17846357D01*
X20302928Y-17817786D01*
X20317214Y-17803500D01*
X20345786Y-17789214D01*
X20388643Y-17789214D01*
X20417214Y-17803500D01*
X20431500Y-17817786D01*
X20445786Y-17846357D01*
X20445786Y-17932072D01*
X20431500Y-17960643D01*
X20417214Y-17974929D01*
X20388643Y-17989214D01*
X20345786Y-17989214D01*
X20531500Y-17789214D02*
X20645786Y-17789214D01*
X20574357Y-17689214D02*
X20574357Y-17946357D01*
X20588643Y-17974929D01*
X20617214Y-17989214D01*
X20645786Y-17989214D01*
X20974357Y-17789214D02*
X20974357Y-18089214D01*
X20974357Y-17803500D02*
X21002928Y-17789214D01*
X21060071Y-17789214D01*
X21088643Y-17803500D01*
X21102928Y-17817786D01*
X21117214Y-17846357D01*
X21117214Y-17932072D01*
X21102928Y-17960643D01*
X21088643Y-17974929D01*
X21060071Y-17989214D01*
X21002928Y-17989214D01*
X20974357Y-17974929D01*
X21288643Y-17989214D02*
X21260071Y-17974929D01*
X21245786Y-17946357D01*
X21245786Y-17689214D01*
X21531500Y-17989214D02*
X21531500Y-17832072D01*
X21517214Y-17803500D01*
X21488643Y-17789214D01*
X21431500Y-17789214D01*
X21402928Y-17803500D01*
X21531500Y-17974929D02*
X21502928Y-17989214D01*
X21431500Y-17989214D01*
X21402928Y-17974929D01*
X21388643Y-17946357D01*
X21388643Y-17917786D01*
X21402928Y-17889214D01*
X21431500Y-17874929D01*
X21502928Y-17874929D01*
X21531500Y-17860643D01*
X21631500Y-17789214D02*
X21745786Y-17789214D01*
X21674357Y-17689214D02*
X21674357Y-17946357D01*
X21688643Y-17974929D01*
X21717214Y-17989214D01*
X21745786Y-17989214D01*
X21960071Y-17974929D02*
X21931500Y-17989214D01*
X21874357Y-17989214D01*
X21845786Y-17974929D01*
X21831500Y-17946357D01*
X21831500Y-17832072D01*
X21845786Y-17803500D01*
X21874357Y-17789214D01*
X21931500Y-17789214D01*
X21960071Y-17803500D01*
X21974357Y-17832072D01*
X21974357Y-17860643D01*
X21831500Y-17889214D01*
X22231500Y-17989214D02*
X22231500Y-17689214D01*
X22231500Y-17974929D02*
X22202928Y-17989214D01*
X22145786Y-17989214D01*
X22117214Y-17974929D01*
X22102928Y-17960643D01*
X22088643Y-17932072D01*
X22088643Y-17846357D01*
X22102928Y-17817786D01*
X22117214Y-17803500D01*
X22145786Y-17789214D01*
X22202928Y-17789214D01*
X22231500Y-17803500D01*
X22345786Y-18103500D02*
X22360071Y-18089214D01*
X22388643Y-18046357D01*
X22402928Y-18017786D01*
X22417214Y-17974929D01*
X22431500Y-17903500D01*
X22431500Y-17846357D01*
X22417214Y-17774929D01*
X22402928Y-17732072D01*
X22388643Y-17703500D01*
X22360071Y-17660643D01*
X22345786Y-17646357D01*
M02*
