%TF.GenerationSoftware,KiCad,Pcbnew,5.1.6-1.fc32*%
%TF.CreationDate,2021-02-06T17:56:30+01:00*%
%TF.ProjectId,New-New-ACNode-Shield,4e65772d-4e65-4772-9d41-434e6f64652d,rev?*%
%TF.SameCoordinates,Original*%
%TF.FileFunction,Soldermask,Bot*%
%TF.FilePolarity,Negative*%
%FSLAX46Y46*%
G04 Gerber Fmt 4.6, Leading zero omitted, Abs format (unit mm)*
G04 Created by KiCad (PCBNEW 5.1.6-1.fc32) date 2021-02-06 17:56:30*
%MOMM*%
%LPD*%
G01*
G04 APERTURE LIST*
%ADD10C,1.624000*%
%ADD11C,3.100000*%
%ADD12C,2.600000*%
%ADD13C,2.100000*%
%ADD14C,2.000000*%
%ADD15O,1.800000X1.800000*%
%ADD16R,1.800000X1.800000*%
%ADD17C,2.640000*%
%ADD18C,1.600000*%
%ADD19R,1.600000X1.600000*%
%ADD20C,3.350000*%
%ADD21O,1.700000X1.700000*%
%ADD22R,1.700000X1.700000*%
G04 APERTURE END LIST*
D10*
%TO.C,U2*%
X170180000Y-132080000D03*
X167640000Y-132080000D03*
X127000000Y-132080000D03*
X124460000Y-132080000D03*
X170180000Y-129540000D03*
X167640000Y-129540000D03*
X170180000Y-127000000D03*
X167640000Y-127000000D03*
X170180000Y-124460000D03*
X167640000Y-124460000D03*
X170180000Y-121920000D03*
X167640000Y-121920000D03*
X170180000Y-119380000D03*
X167640000Y-119380000D03*
X170180000Y-116840000D03*
X167640000Y-116840000D03*
X170180000Y-114300000D03*
X167640000Y-114300000D03*
X170180000Y-111760000D03*
X167640000Y-111760000D03*
X170180000Y-109220000D03*
X167640000Y-109220000D03*
X170180000Y-68580000D03*
X167640000Y-68580000D03*
X170180000Y-66040000D03*
X167640000Y-66040000D03*
X170180000Y-63500000D03*
X167640000Y-63500000D03*
X170180000Y-60960000D03*
X167640000Y-60960000D03*
X170180000Y-58420000D03*
X167640000Y-58420000D03*
X170180000Y-55880000D03*
X167640000Y-55880000D03*
X170180000Y-53340000D03*
X167640000Y-53340000D03*
X170180000Y-50800000D03*
X167640000Y-50800000D03*
X170180000Y-48260000D03*
X167640000Y-48260000D03*
X170180000Y-45720000D03*
X167640000Y-45720000D03*
X127000000Y-129540000D03*
X124460000Y-129540000D03*
X127000000Y-127000000D03*
X124460000Y-127000000D03*
X127000000Y-124460000D03*
X124460000Y-124460000D03*
X127000000Y-121920000D03*
X124460000Y-121920000D03*
X127000000Y-119380000D03*
X124460000Y-119380000D03*
X127000000Y-116840000D03*
X124460000Y-116840000D03*
X127000000Y-114300000D03*
X124460000Y-114300000D03*
X127000000Y-111760000D03*
X124460000Y-111760000D03*
X127000000Y-109220000D03*
X124460000Y-109220000D03*
X127000000Y-68580000D03*
X124460000Y-68580000D03*
X127000000Y-66040000D03*
X124460000Y-66040000D03*
X127000000Y-63500000D03*
X124460000Y-63500000D03*
X127000000Y-60960000D03*
X124460000Y-60960000D03*
X127000000Y-58420000D03*
X124460000Y-58420000D03*
X127000000Y-55880000D03*
X124460000Y-55880000D03*
X127000000Y-53340000D03*
X124460000Y-53340000D03*
X127000000Y-50800000D03*
X124460000Y-50800000D03*
X127000000Y-48260000D03*
X124460000Y-48260000D03*
X127000000Y-45720000D03*
X124460000Y-45720000D03*
%TD*%
D11*
%TO.C,K1*%
X154940000Y-146558000D03*
D12*
X152990000Y-152508000D03*
D11*
X140740000Y-152558000D03*
X140790000Y-140508000D03*
D12*
X152990000Y-140508000D03*
%TD*%
D13*
%TO.C,SW2*%
X130556000Y-123802000D03*
X135056000Y-123802000D03*
X130556000Y-130302000D03*
X135056000Y-130302000D03*
%TD*%
%TO.C,SW1*%
X169400000Y-78000000D03*
X169400000Y-82500000D03*
X162900000Y-78000000D03*
X162900000Y-82500000D03*
%TD*%
D14*
%TO.C,J7*%
X170844000Y-100198000D03*
X170844000Y-104008000D03*
%TD*%
D15*
%TO.C,J6*%
X155194000Y-109474000D03*
X152654000Y-109474000D03*
X150114000Y-109474000D03*
D16*
X147574000Y-109474000D03*
%TD*%
D14*
%TO.C,J5*%
X131670000Y-164470000D03*
X131670000Y-160660000D03*
%TD*%
D13*
%TO.C,J4*%
X131670000Y-150368000D03*
X131670000Y-146558000D03*
X131670000Y-142748000D03*
%TD*%
D17*
%TO.C,J3*%
X133490000Y-102088000D03*
X133490000Y-97008000D03*
%TD*%
D18*
%TO.C,J2*%
X153162000Y-61468000D03*
X150622000Y-61468000D03*
D11*
X162837000Y-49528000D03*
D18*
X158242000Y-61468000D03*
D19*
X159512000Y-58928000D03*
D18*
X151892000Y-58928000D03*
X155702000Y-61468000D03*
X154432000Y-58928000D03*
X156972000Y-58928000D03*
D20*
X160782000Y-52578000D03*
D11*
X147297000Y-49528000D03*
D20*
X149352000Y-52578000D03*
%TD*%
D18*
%TO.C,J1*%
X140208000Y-83566000D03*
X140208000Y-86106000D03*
D11*
X128268000Y-73891000D03*
D18*
X140208000Y-78486000D03*
D19*
X137668000Y-77216000D03*
D18*
X137668000Y-84836000D03*
X140208000Y-81026000D03*
X137668000Y-82296000D03*
X137668000Y-79756000D03*
D20*
X131318000Y-75946000D03*
D11*
X128268000Y-89431000D03*
D20*
X131318000Y-87376000D03*
%TD*%
D21*
%TO.C,D2*%
X162560000Y-142240000D03*
D22*
X162560000Y-149860000D03*
%TD*%
M02*
